<svg version="1.1" viewBox="0.0 0.0 592.0 359.0" fill="none" stroke="none" stroke-linecap="square" stroke-miterlimit="10" width="592" height="359" xmlns:xlink="http://www.w3.org/1999/xlink" xmlns="http://www.w3.org/2000/svg"><path fill="#ffffff" d="M0 0L592.0 0L592.0 359.0L0 359.0L0 0Z" fill-rule="nonzero"/><path fill="#db4437" d="M296.0 58.916668C353.05615 58.916668 404.49417 93.28645 426.3286 145.99945C448.16306 198.71246 436.094 259.38776 395.7492 299.73254L296.0 199.98334Z" fill-rule="nonzero"/><path fill="#4285f4" d="M395.7492 299.73254C369.29407 326.18765 333.4132 341.05 296.0 341.05L296.0 199.98334Z" fill-rule="nonzero"/><path fill="#f4b400" d="M296.0 341.05C218.09103 341.05 154.93333 277.8923 154.93333 199.98334C154.93333 122.07436 218.09103 58.916668 296.0 58.916668L296.0 199.98334Z" fill-rule="nonzero"/><path fill="#757575" d="M28.246876 188.31146Q28.246876 190.73334 27.1375 192.21771Q26.04375 193.68646 24.153126 193.68646Q22.23125 193.68646 21.121876 192.45209L21.121876 197.54584L19.325 197.54584L19.325 182.92084L20.965626 182.92084L21.059376 184.09271Q22.153126 182.71771 24.121876 182.71771Q26.028126 182.71771 27.1375 184.15521Q28.246876 185.59271 28.246876 188.15521L28.246876 188.31146ZM26.434376 188.10834Q26.434376 186.32709 25.66875 185.29584Q24.91875 184.24896 23.590626 184.24896Q21.95 184.24896 21.121876 185.70209L21.121876 190.76459Q21.934376 192.20209 23.60625 192.20209Q24.903126 192.20209 25.66875 191.17084Q26.434376 190.13959 26.434376 188.10834ZM36.840626 193.48334Q36.684376 193.17084 36.590626 192.37396Q35.325 193.68646 33.575 193.68646Q32.0125 193.68646 31.0125 192.79584Q30.0125 191.90521 30.0125 190.54584Q30.0125 188.90521 31.2625 187.99896Q32.528126 187.07709 34.79375 187.07709L36.559376 187.07709L36.559376 186.24896Q36.559376 185.29584 35.98125 184.73334Q35.41875 184.17084 34.325 184.17084Q33.35625 184.17084 32.7 184.67084Q32.04375 185.15521 32.04375 185.84271L30.23125 185.84271Q30.23125 185.06146 30.79375 184.32709Q31.35625 183.57709 32.309376 183.15521Q33.278126 182.71771 34.434376 182.71771Q36.2625 182.71771 37.29375 183.63959Q38.325 184.54584 38.371876 186.15521L38.371876 191.01459Q38.371876 192.46771 38.73125 193.32709L38.73125 193.48334L36.840626 193.48334ZM33.840626 192.10834Q34.7 192.10834 35.45 191.67084Q36.215626 191.23334 36.559376 190.53021L36.559376 188.35834L35.1375 188.35834Q31.825 188.35834 31.825 190.29584Q31.825 191.15521 32.3875 191.63959Q32.95 192.10834 33.840626 192.10834ZM46.41875 184.53021Q46.0125 184.46771 45.54375 184.46771Q43.7625 184.46771 43.121876 185.98334L43.121876 193.48334L41.325 193.48334L41.325 182.92084L43.075 182.92084L43.10625 184.13959Q43.996876 182.71771 45.621876 182.71771Q46.153126 182.71771 46.41875 182.85834L46.41875 184.53021ZM54.840626 193.48334Q54.684376 193.17084 54.590626 192.37396Q53.325 193.68646 51.575 193.68646Q50.0125 193.68646 49.0125 192.79584Q48.0125 191.90521 48.0125 190.54584Q48.0125 188.90521 49.2625 187.99896Q50.528126 187.07709 52.79375 187.07709L54.559376 187.07709L54.559376 186.24896Q54.559376 185.29584 53.98125 184.73334Q53.41875 184.17084 52.325 184.17084Q51.35625 184.17084 50.7 184.67084Q50.04375 185.15521 50.04375 185.84271L48.23125 185.84271Q48.23125 185.06146 48.79375 184.32709Q49.35625 183.57709 50.309376 183.15521Q51.278126 182.71771 52.434376 182.71771Q54.2625 182.71771 55.29375 183.63959Q56.325 184.54584 56.371876 186.15521L56.371876 191.01459Q56.371876 192.46771 56.73125 193.32709L56.73125 193.48334L54.840626 193.48334ZM51.840626 192.10834Q52.7 192.10834 53.45 191.67084Q54.215626 191.23334 54.559376 190.53021L54.559376 188.35834L53.1375 188.35834Q49.825 188.35834 49.825 190.29584Q49.825 191.15521 50.3875 191.63959Q50.95 192.10834 51.840626 192.10834ZM58.8875 188.10834Q58.8875 185.63959 60.028126 184.18646Q61.16875 182.71771 63.059376 182.71771Q64.99687 182.71771 66.075 184.09271L66.16875 182.92084L67.80937 182.92084L67.80937 193.23334Q67.80937 195.28021 66.59062 196.45209Q65.3875 197.63959 63.325 197.63959Q62.184376 197.63959 61.090626 197.15521Q59.996876 196.67084 59.41875 195.81146L60.35625 194.73334Q61.528126 196.17084 63.2 196.17084Q64.52812 196.17084 65.2625 195.42084Q65.99687 194.68646 65.99687 193.34271L65.99687 192.42084Q64.91875 193.68646 63.04375 193.68646Q61.184376 193.68646 60.028126 192.18646Q58.8875 190.68646 58.8875 188.10834ZM60.7 188.31146Q60.7 190.10834 61.434376 191.12396Q62.16875 192.13959 63.48125 192.13959Q65.2 192.13959 65.99687 190.59271L65.99687 185.76459Q65.16875 184.24896 63.5125 184.24896Q62.184376 184.24896 61.434376 185.28021Q60.7 186.31146 60.7 188.31146ZM75.41875 184.53021Q75.0125 184.46771 74.54375 184.46771Q72.7625 184.46771 72.12187 185.98334L72.12187 193.48334L70.325 193.48334L70.325 182.92084L72.075 182.92084L72.10625 184.13959Q72.99687 182.71771 74.62187 182.71771Q75.15312 182.71771 75.41875 182.85834L75.41875 184.53021ZM83.84062 193.48334Q83.68437 193.17084 83.59062 192.37396Q82.325 193.68646 80.575 193.68646Q79.0125 193.68646 78.0125 192.79584Q77.0125 191.90521 77.0125 190.54584Q77.0125 188.90521 78.2625 187.99896Q79.52812 187.07709 81.79375 187.07709L83.55937 187.07709L83.55937 186.24896Q83.55937 185.29584 82.98125 184.73334Q82.41875 184.17084 81.325 184.17084Q80.35625 184.17084 79.7 184.67084Q79.04375 185.15521 79.04375 185.84271L77.23125 185.84271Q77.23125 185.06146 77.79375 184.32709Q78.35625 183.57709 79.30937 183.15521Q80.27812 182.71771 81.43437 182.71771Q83.2625 182.71771 84.29375 183.63959Q85.325 184.54584 85.37187 186.15521L85.37187 191.01459Q85.37187 192.46771 85.73125 193.32709L85.73125 193.48334L83.84062 193.48334ZM80.84062 192.10834Q81.7 192.10834 82.45 191.67084Q83.21562 191.23334 83.55937 190.53021L83.55937 188.35834L82.1375 188.35834Q78.825 188.35834 78.825 190.29584Q78.825 191.15521 79.3875 191.63959Q79.95 192.10834 80.84062 192.10834ZM97.24687 188.31146Q97.24687 190.73334 96.1375 192.21771Q95.04375 193.68646 93.15312 193.68646Q91.23125 193.68646 90.12187 192.45209L90.12187 197.54584L88.325 197.54584L88.325 182.92084L89.96562 182.92084L90.05937 184.09271Q91.15312 182.71771 93.12187 182.71771Q95.02812 182.71771 96.1375 184.15521Q97.24687 185.59271 97.24687 188.15521L97.24687 188.31146ZM95.43437 188.10834Q95.43437 186.32709 94.66875 185.29584Q93.91875 184.24896 92.59062 184.24896Q90.95 184.24896 90.12187 185.70209L90.12187 190.76459Q90.93437 192.20209 92.60625 192.20209Q93.90312 192.20209 94.66875 191.17084Q95.43437 190.13959 95.43437 188.10834ZM101.12187 184.20209Q102.325 182.71771 104.24687 182.71771Q107.60625 182.71771 107.62187 186.49896L107.62187 193.48334L105.825 193.48334L105.825 186.48334Q105.80937 185.34271 105.29375 184.79584Q104.79375 184.24896 103.7 184.24896Q102.825 184.24896 102.15312 184.71771Q101.49687 185.18646 101.12187 185.95209L101.12187 193.48334L99.325 193.48334L99.325 178.48334L101.12187 178.48334L101.12187 184.20209Z" fill-rule="nonzero"/><path fill="#9e9e9e" d="M19.965626 213.35834L20.684376 206.26459L27.965626 206.26459L27.965626 207.93646L22.215626 207.93646L21.79375 211.81146Q22.840626 211.20209 24.16875 211.20209Q26.10625 211.20209 27.246876 212.48334Q28.3875 213.76459 28.3875 215.95209Q28.3875 218.15521 27.2 219.42084Q26.0125 220.68646 23.8875 220.68646Q21.996876 220.68646 20.809376 219.63959Q19.621876 218.59271 19.45 216.74896L21.16875 216.74896Q21.325 217.96771 22.028126 218.59271Q22.73125 219.20209 23.8875 219.20209Q25.153126 219.20209 25.871876 218.34271Q26.590626 217.48334 26.590626 215.96771Q26.590626 214.54584 25.809376 213.68646Q25.028126 212.81146 23.746876 212.81146Q22.559376 212.81146 21.8875 213.32709L21.403126 213.71771L19.965626 213.35834ZM39.04375 214.42084Q39.04375 217.59271 37.965626 219.13959Q36.8875 220.68646 34.575 220.68646Q32.29375 220.68646 31.2 219.17084Q30.10625 217.65521 30.075 214.65521L30.075 212.24896Q30.075 209.10834 31.153126 207.59271Q32.246876 206.06146 34.559376 206.06146Q36.85625 206.06146 37.934376 207.54584Q39.0125 209.01459 39.04375 212.07709L39.04375 214.42084ZM37.246876 211.95209Q37.246876 209.65521 36.590626 208.60834Q35.95 207.54584 34.559376 207.54584Q33.16875 207.54584 32.528126 208.59271Q31.903126 209.63959 31.8875 211.81146L31.8875 214.70209Q31.8875 216.99896 32.54375 218.10834Q33.215626 219.20209 34.575 219.20209Q35.91875 219.20209 36.559376 218.17084Q37.215626 217.13959 37.246876 214.90521L37.246876 211.95209ZM41.35625 219.53021Q41.35625 219.06146 41.6375 218.74896Q41.91875 218.43646 42.465626 218.43646Q43.028126 218.43646 43.309376 218.74896Q43.60625 219.06146 43.60625 219.53021Q43.60625 219.98334 43.309376 220.29584Q43.028126 220.59271 42.465626 220.59271Q41.91875 220.59271 41.6375 220.29584Q41.35625 219.98334 41.35625 219.53021ZM55.04375 214.42084Q55.04375 217.59271 53.965626 219.13959Q52.8875 220.68646 50.575 220.68646Q48.29375 220.68646 47.2 219.17084Q46.10625 217.65521 46.075 214.65521L46.075 212.24896Q46.075 209.10834 47.153126 207.59271Q48.246876 206.06146 50.559376 206.06146Q52.85625 206.06146 53.934376 207.54584Q55.0125 209.01459 55.04375 212.07709L55.04375 214.42084ZM53.246876 211.95209Q53.246876 209.65521 52.590626 208.60834Q51.95 207.54584 50.559376 207.54584Q49.16875 207.54584 48.528126 208.59271Q47.903126 209.63959 47.8875 211.81146L47.8875 214.70209Q47.8875 216.99896 48.54375 218.10834Q49.215626 219.20209 50.575 219.20209Q51.91875 219.20209 52.559376 218.17084Q53.215626 217.13959 53.246876 214.90521L53.246876 211.95209ZM56.98125 208.99896Q56.98125 207.71771 57.79375 206.88959Q58.60625 206.06146 59.8875 206.06146Q61.184376 206.06146 61.98125 206.90521Q62.79375 207.73334 62.79375 209.06146L62.79375 209.74896Q62.79375 211.04584 61.98125 211.85834Q61.16875 212.67084 59.903126 212.67084Q58.6375 212.67084 57.809376 211.85834Q56.98125 211.04584 56.98125 209.68646L56.98125 208.99896ZM58.325 209.74896Q58.325 210.51459 58.746876 211.01459Q59.184376 211.49896 59.903126 211.49896Q60.60625 211.49896 61.028126 211.03021Q61.45 210.54584 61.45 209.71771L61.45 208.99896Q61.45 208.23334 61.028126 207.73334Q60.60625 207.23334 59.8875 207.23334Q59.16875 207.23334 58.746876 207.73334Q58.325 208.23334 58.325 209.03021L58.325 209.74896ZM63.903126 216.99896Q63.903126 215.71771 64.71562 214.88959Q65.52812 214.06146 66.80937 214.06146Q68.09062 214.06146 68.90312 214.88959Q69.73125 215.70209 69.73125 217.06146L69.73125 217.76459Q69.73125 219.03021 68.91875 219.85834Q68.10625 220.68646 66.825 220.68646Q65.55937 220.68646 64.73125 219.87396Q63.903126 219.06146 63.903126 217.70209L63.903126 216.99896ZM65.24687 217.76459Q65.24687 218.53021 65.66875 219.03021Q66.10625 219.51459 66.825 219.51459Q67.52812 219.51459 67.95 219.03021Q68.37187 218.54584 68.37187 217.71771L68.37187 216.99896Q68.37187 216.21771 67.95 215.73334Q67.52812 215.24896 66.80937 215.24896Q66.12187 215.24896 65.68437 215.73334Q65.24687 216.21771 65.24687 217.03021L65.24687 217.76459ZM60.309376 219.40521L59.29375 218.76459L66.23125 207.65521L67.2625 208.29584L60.309376 219.40521Z" fill-rule="nonzero"/><path stroke="#757575" stroke-width="1.0" stroke-linecap="butt" d="M17.95 199.98334L148.93333 199.98334L161.98666 199.98334" fill-rule="nonzero"/><path fill="#9e9e9e" d="M163.98666 199.98334C163.98666 198.87877 163.09123 197.98334 161.98666 197.98334C160.8821 197.98334 159.98666 198.87877 159.98666 199.98334C159.98666 201.0879 160.8821 201.98334 161.98666 201.98334C163.09123 201.98334 163.98666 201.0879 163.98666 199.98334" fill-rule="nonzero"/><path fill="#757575" d="M525.9406 142.19865Q525.78436 141.88615 525.6906 141.08928Q524.425 142.40178 522.675 142.40178Q521.1125 142.40178 520.1125 141.51115Q519.1125 140.62053 519.1125 139.26115Q519.1125 137.62053 520.3625 136.71428Q521.6281 135.7924 523.89374 135.7924L525.65936 135.7924L525.65936 134.96428Q525.65936 134.01115 525.08124 133.44865Q524.51874 132.88615 523.425 132.88615Q522.45624 132.88615 521.8 133.38615Q521.14374 133.87053 521.14374 134.55803L519.33124 134.55803Q519.33124 133.77678 519.89374 133.0424Q520.45624 132.2924 521.40936 131.87053Q522.3781 131.43303 523.53436 131.43303Q525.3625 131.43303 526.39374 132.3549Q527.425 133.26115 527.47186 134.87053L527.47186 139.7299Q527.47186 141.18303 527.83124 142.0424L527.83124 142.19865L525.9406 142.19865ZM522.9406 140.82365Q523.8 140.82365 524.55 140.38615Q525.3156 139.94865 525.65936 139.24553L525.65936 137.07365L524.2375 137.07365Q520.925 137.07365 520.925 139.01115Q520.925 139.87053 521.4875 140.3549Q522.05 140.82365 522.9406 140.82365ZM535.51874 133.24553Q535.1125 133.18303 534.64374 133.18303Q532.8625 133.18303 532.22186 134.69865L532.22186 142.19865L530.425 142.19865L530.425 131.63615L532.175 131.63615L532.20624 132.8549Q533.09686 131.43303 534.72186 131.43303Q535.2531 131.43303 535.51874 131.57365L535.51874 133.24553ZM539.8625 129.07365L539.8625 131.63615L541.84686 131.63615L541.84686 133.02678L539.8625 133.02678L539.8625 139.57365Q539.8625 140.21428 540.1281 140.5424Q540.39374 140.8549 541.03436 140.8549Q541.34686 140.8549 541.89374 140.7299L541.89374 142.19865Q541.175 142.40178 540.5031 142.40178Q539.3 142.40178 538.675 141.6674Q538.0656 140.93303 538.0656 139.57365L538.0656 133.02678L536.14374 133.02678L536.14374 131.63615L538.0656 131.63615L538.0656 129.07365L539.8625 129.07365ZM546.3781 142.19865L544.58124 142.19865L544.58124 131.63615L546.3781 131.63615L546.3781 142.19865ZM544.425 128.82365Q544.425 128.38615 544.6906 128.08928Q544.97186 127.77678 545.4875 127.77678Q546.01874 127.77678 546.28436 128.08928Q546.5656 128.38615 546.5656 128.82365Q546.5656 129.26115 546.28436 129.55803Q546.01874 129.8549 545.4875 129.8549Q544.97186 129.8549 544.6906 129.55803Q544.425 129.26115 544.425 128.82365ZM553.65936 140.9174Q554.6281 140.9174 555.34686 140.33928Q556.0656 139.74553 556.14374 138.87053L557.8625 138.87053Q557.8 139.77678 557.22186 140.6049Q556.65936 141.4174 555.6906 141.9174Q554.7375 142.40178 553.65936 142.40178Q551.5031 142.40178 550.22186 140.96428Q548.95624 139.51115 548.95624 137.01115L548.95624 136.71428Q548.95624 135.1674 549.51874 133.96428Q550.08124 132.76115 551.14374 132.1049Q552.20624 131.43303 553.64374 131.43303Q555.425 131.43303 556.59686 132.49553Q557.78436 133.55803 557.8625 135.26115L556.14374 135.26115Q556.0656 134.24553 555.3625 133.58928Q554.675 132.9174 553.64374 132.9174Q552.26874 132.9174 551.5031 133.9174Q550.7531 134.90178 550.7531 136.77678L550.7531 137.12053Q550.7531 138.94865 551.5031 139.93303Q552.2531 140.9174 553.65936 140.9174ZM561.3781 142.19865L559.58124 142.19865L559.58124 127.198654L561.3781 127.198654L561.3781 142.19865ZM568.8 142.40178Q566.65936 142.40178 565.3 140.99553Q563.95624 139.57365 563.95624 137.21428L563.95624 136.87053Q563.95624 135.30803 564.55 134.07365Q565.15936 132.83928 566.2375 132.13615Q567.3156 131.43303 568.58124 131.43303Q570.64374 131.43303 571.78436 132.7924Q572.925 134.15178 572.925 136.68303L572.925 137.43303L565.76874 137.43303Q565.8 138.99553 566.675 139.96428Q567.55 140.9174 568.89374 140.9174Q569.8625 140.9174 570.51874 140.52678Q571.1906 140.13615 571.6906 139.49553L572.78436 140.3549Q571.45624 142.40178 568.8 142.40178ZM568.58124 132.9174Q567.4875 132.9174 566.7375 133.71428Q566.0031 134.51115 565.83124 135.94865L571.1125 135.94865L571.1125 135.80803Q571.03436 134.43303 570.3625 133.68303Q569.70624 132.9174 568.58124 132.9174Z" fill-rule="nonzero"/><path fill="#9e9e9e" d="M524.8625 161.21428L526.22186 161.21428Q527.5031 161.18303 528.22186 160.5424Q528.95624 159.88615 528.95624 158.76115Q528.95624 156.26115 526.47186 156.26115Q525.3 156.26115 524.59686 156.93303Q523.90936 157.6049 523.90936 158.71428L522.09686 158.71428Q522.09686 157.02678 523.33124 155.90178Q524.5656 154.77678 526.47186 154.77678Q528.4875 154.77678 529.6281 155.8549Q530.76874 156.9174 530.76874 158.80803Q530.76874 159.7299 530.15936 160.6049Q529.5656 161.4799 528.53436 161.90178Q529.70624 162.27678 530.34686 163.13615Q530.9875 163.99553 530.9875 165.2299Q530.9875 167.15178 529.7375 168.27678Q528.4875 169.40178 526.47186 169.40178Q524.47186 169.40178 523.22186 168.32365Q521.97186 167.2299 521.97186 165.44865L523.78436 165.44865Q523.78436 166.57365 524.51874 167.24553Q525.2531 167.9174 526.4875 167.9174Q527.78436 167.9174 528.47186 167.24553Q529.175 166.55803 529.175 165.27678Q529.175 164.02678 528.40936 163.37053Q527.65936 162.69865 526.22186 162.68303L524.8625 162.68303L524.8625 161.21428ZM542.40936 155.99553L536.51874 169.19865L534.6281 169.19865L540.5031 156.46428L532.8 156.46428L532.8 154.9799L542.40936 154.9799L542.40936 155.99553ZM544.45624 168.24553Q544.45624 167.77678 544.7375 167.46428Q545.01874 167.15178 545.5656 167.15178Q546.1281 167.15178 546.40936 167.46428Q546.70624 167.77678 546.70624 168.24553Q546.70624 168.69865 546.40936 169.01115Q546.1281 169.30803 545.5656 169.30803Q545.01874 169.30803 544.7375 169.01115Q544.45624 168.69865 544.45624 168.24553ZM550.0656 162.07365L550.78436 154.9799L558.0656 154.9799L558.0656 156.65178L552.3156 156.65178L551.89374 160.52678Q552.9406 159.9174 554.26874 159.9174Q556.20624 159.9174 557.34686 161.19865Q558.4875 162.4799 558.4875 164.6674Q558.4875 166.87053 557.3 168.13615Q556.1125 169.40178 553.9875 169.40178Q552.09686 169.40178 550.90936 168.3549Q549.72186 167.30803 549.55 165.46428L551.26874 165.46428Q551.425 166.68303 552.1281 167.30803Q552.83124 167.9174 553.9875 167.9174Q555.2531 167.9174 555.97186 167.05803Q556.6906 166.19865 556.6906 164.68303Q556.6906 163.26115 555.90936 162.40178Q555.1281 161.52678 553.84686 161.52678Q552.65936 161.52678 551.9875 162.0424L551.5031 162.43303L550.0656 162.07365ZM560.08124 157.71428Q560.08124 156.43303 560.89374 155.6049Q561.70624 154.77678 562.9875 154.77678Q564.28436 154.77678 565.08124 155.62053Q565.89374 156.44865 565.89374 157.77678L565.89374 158.46428Q565.89374 159.76115 565.08124 160.57365Q564.26874 161.38615 563.0031 161.38615Q561.7375 161.38615 560.90936 160.57365Q560.08124 159.76115 560.08124 158.40178L560.08124 157.71428ZM561.425 158.46428Q561.425 159.2299 561.84686 159.7299Q562.28436 160.21428 563.0031 160.21428Q563.70624 160.21428 564.1281 159.74553Q564.55 159.26115 564.55 158.43303L564.55 157.71428Q564.55 156.94865 564.1281 156.44865Q563.70624 155.94865 562.9875 155.94865Q562.26874 155.94865 561.84686 156.44865Q561.425 156.94865 561.425 157.74553L561.425 158.46428ZM567.0031 165.71428Q567.0031 164.43303 567.8156 163.6049Q568.6281 162.77678 569.90936 162.77678Q571.1906 162.77678 572.0031 163.6049Q572.83124 164.4174 572.83124 165.77678L572.83124 166.4799Q572.83124 167.74553 572.01874 168.57365Q571.20624 169.40178 569.925 169.40178Q568.65936 169.40178 567.83124 168.58928Q567.0031 167.77678 567.0031 166.4174L567.0031 165.71428ZM568.34686 166.4799Q568.34686 167.24553 568.76874 167.74553Q569.20624 168.2299 569.925 168.2299Q570.6281 168.2299 571.05 167.74553Q571.47186 167.26115 571.47186 166.43303L571.47186 165.71428Q571.47186 164.93303 571.05 164.44865Q570.6281 163.96428 569.90936 163.96428Q569.22186 163.96428 568.78436 164.44865Q568.34686 164.93303 568.34686 165.74553L568.34686 166.4799ZM563.40936 168.12053L562.39374 167.4799L569.33124 156.37053L570.3625 157.01115L563.40936 168.12053Z" fill-rule="nonzero"/><path stroke="#757575" stroke-width="1.0" stroke-linecap="butt" d="M574.05 148.69865L443.06668 148.69865L419.81216 148.69865" fill-rule="nonzero"/><path fill="#9e9e9e" d="M421.81216 148.69865C421.81216 147.59409 420.91675 146.69865 419.81216 146.69865C418.7076 146.69865 417.81216 147.59409 417.81216 148.69865C417.81216 149.80322 418.7076 150.69865 419.81216 150.69865C420.91675 150.69865 421.81216 149.80322 421.81216 148.69865" fill-rule="nonzero"/><path fill="#757575" d="M516.5656 306.2531Q516.5656 305.51874 516.01874 305.1125Q515.47186 304.70624 514.09686 304.40936Q512.72186 304.1125 511.90936 303.70624Q511.1125 303.3 510.72186 302.7375Q510.34686 302.15936 510.34686 301.3781Q510.34686 300.08124 511.4406 299.1906Q512.53436 298.28436 514.2531 298.28436Q516.05 298.28436 517.15936 299.22186Q518.28436 300.14374 518.28436 301.58124L516.45624 301.58124Q516.45624 300.84686 515.83124 300.3156Q515.20624 299.76874 514.2531 299.76874Q513.2531 299.76874 512.6906 300.20624Q512.14374 300.6281 512.14374 301.33124Q512.14374 301.97186 512.65936 302.3156Q513.175 302.64374 514.53436 302.95624Q515.89374 303.2531 516.72186 303.675Q517.5656 304.08124 517.97186 304.675Q518.3781 305.26874 518.3781 306.1125Q518.3781 307.53436 517.2375 308.39374Q516.1125 309.2531 514.3 309.2531Q513.03436 309.2531 512.05 308.8Q511.08124 308.34686 510.51874 307.55Q509.97186 306.7375 509.97186 305.8L511.78436 305.8Q511.83124 306.70624 512.5031 307.2375Q513.1906 307.76874 514.3 307.76874Q515.33124 307.76874 515.9406 307.3625Q516.5656 306.9406 516.5656 306.2531ZM524.8 309.2531Q522.65936 309.2531 521.3 307.84686Q519.95624 306.425 519.95624 304.0656L519.95624 303.72186Q519.95624 302.15936 520.55 300.925Q521.15936 299.6906 522.2375 298.9875Q523.3156 298.28436 524.58124 298.28436Q526.64374 298.28436 527.78436 299.64374Q528.925 301.0031 528.925 303.53436L528.925 304.28436L521.76874 304.28436Q521.8 305.84686 522.675 306.8156Q523.55 307.76874 524.89374 307.76874Q525.8625 307.76874 526.51874 307.3781Q527.1906 306.9875 527.6906 306.34686L528.78436 307.20624Q527.45624 309.2531 524.8 309.2531ZM524.58124 299.76874Q523.4875 299.76874 522.7375 300.5656Q522.0031 301.3625 521.83124 302.8L527.1125 302.8L527.1125 302.65936Q527.03436 301.28436 526.3625 300.53436Q525.70624 299.76874 524.58124 299.76874ZM535.65936 307.76874Q536.6281 307.76874 537.34686 307.1906Q538.0656 306.59686 538.14374 305.72186L539.8625 305.72186Q539.8 306.6281 539.22186 307.45624Q538.65936 308.26874 537.6906 308.76874Q536.7375 309.2531 535.65936 309.2531Q533.5031 309.2531 532.22186 307.8156Q530.95624 306.3625 530.95624 303.8625L530.95624 303.5656Q530.95624 302.01874 531.51874 300.8156Q532.08124 299.6125 533.14374 298.95624Q534.20624 298.28436 535.64374 298.28436Q537.425 298.28436 538.59686 299.34686Q539.78436 300.40936 539.8625 302.1125L538.14374 302.1125Q538.0656 301.09686 537.3625 300.4406Q536.675 299.76874 535.64374 299.76874Q534.26874 299.76874 533.5031 300.76874Q532.7531 301.7531 532.7531 303.6281L532.7531 303.97186Q532.7531 305.8 533.5031 306.78436Q534.2531 307.76874 535.65936 307.76874ZM543.8625 295.925L543.8625 298.4875L545.84686 298.4875L545.84686 299.8781L543.8625 299.8781L543.8625 306.425Q543.8625 307.0656 544.1281 307.39374Q544.39374 307.70624 545.03436 307.70624Q545.34686 307.70624 545.89374 307.58124L545.89374 309.05Q545.175 309.2531 544.5031 309.2531Q543.3 309.2531 542.675 308.51874Q542.0656 307.78436 542.0656 306.425L542.0656 299.8781L540.14374 299.8781L540.14374 298.4875L542.0656 298.4875L542.0656 295.925L543.8625 295.925ZM550.3781 309.05L548.58124 309.05L548.58124 298.4875L550.3781 298.4875L550.3781 309.05ZM548.425 295.675Q548.425 295.2375 548.6906 294.9406Q548.97186 294.6281 549.4875 294.6281Q550.01874 294.6281 550.28436 294.9406Q550.5656 295.2375 550.5656 295.675Q550.5656 296.1125 550.28436 296.40936Q550.01874 296.70624 549.4875 296.70624Q548.97186 296.70624 548.6906 296.40936Q548.425 296.1125 548.425 295.675ZM552.9406 303.675Q552.9406 302.1125 553.55 300.8781Q554.15936 299.6281 555.2375 298.95624Q556.33124 298.28436 557.7375 298.28436Q559.89374 298.28436 561.22186 299.78436Q562.5656 301.26874 562.5656 303.7531L562.5656 303.8781Q562.5656 305.425 561.97186 306.65936Q561.3781 307.8781 560.26874 308.5656Q559.175 309.2531 557.7531 309.2531Q555.6125 309.2531 554.26874 307.7531Q552.9406 306.2531 552.9406 303.8L552.9406 303.675ZM554.7531 303.8781Q554.7531 305.64374 555.5656 306.70624Q556.39374 307.76874 557.7531 307.76874Q559.1281 307.76874 559.9406 306.6906Q560.7531 305.6125 560.7531 303.675Q560.7531 301.925 559.925 300.84686Q559.09686 299.76874 557.7375 299.76874Q556.39374 299.76874 555.5656 300.83124Q554.7531 301.89374 554.7531 303.8781ZM566.1281 298.4875L566.1906 299.8156Q567.39374 298.28436 569.34686 298.28436Q572.70624 298.28436 572.72186 302.0656L572.72186 309.05L570.925 309.05L570.925 302.05Q570.90936 300.90936 570.39374 300.3625Q569.89374 299.8156 568.8 299.8156Q567.925 299.8156 567.2531 300.28436Q566.59686 300.7531 566.22186 301.51874L566.22186 309.05L564.425 309.05L564.425 298.4875L566.1281 298.4875Z" fill-rule="nonzero"/><path fill="#9e9e9e" d="M528.175 336.05L526.34686 336.05L526.34686 324.0031L522.70624 325.34686L522.70624 323.70624L527.89374 321.76874L528.175 321.76874L528.175 336.05ZM542.55 336.05L533.2375 336.05L533.2375 334.7531L538.15936 329.28436Q539.2531 328.03436 539.65936 327.26874Q540.08124 326.4875 540.08124 325.65936Q540.08124 324.55 539.40936 323.83124Q538.7375 323.1125 537.6125 323.1125Q536.2531 323.1125 535.5031 323.89374Q534.76874 324.65936 534.76874 326.01874L532.95624 326.01874Q532.95624 324.05 534.22186 322.84686Q535.4875 321.6281 537.6125 321.6281Q539.59686 321.6281 540.7375 322.675Q541.89374 323.72186 541.89374 325.4406Q541.89374 327.55 539.22186 330.4406L535.40936 334.58124L542.55 334.58124L542.55 336.05ZM544.45624 335.09686Q544.45624 334.6281 544.7375 334.3156Q545.01874 334.0031 545.5656 334.0031Q546.1281 334.0031 546.40936 334.3156Q546.70624 334.6281 546.70624 335.09686Q546.70624 335.55 546.40936 335.8625Q546.1281 336.15936 545.5656 336.15936Q545.01874 336.15936 544.7375 335.8625Q544.45624 335.55 544.45624 335.09686ZM550.0656 328.925L550.78436 321.83124L558.0656 321.83124L558.0656 323.5031L552.3156 323.5031L551.89374 327.3781Q552.9406 326.76874 554.26874 326.76874Q556.20624 326.76874 557.34686 328.05Q558.4875 329.33124 558.4875 331.51874Q558.4875 333.72186 557.3 334.9875Q556.1125 336.2531 553.9875 336.2531Q552.09686 336.2531 550.90936 335.20624Q549.72186 334.15936 549.55 332.3156L551.26874 332.3156Q551.425 333.53436 552.1281 334.15936Q552.83124 334.76874 553.9875 334.76874Q555.2531 334.76874 555.97186 333.90936Q556.6906 333.05 556.6906 331.53436Q556.6906 330.1125 555.90936 329.2531Q555.1281 328.3781 553.84686 328.3781Q552.65936 328.3781 551.9875 328.89374L551.5031 329.28436L550.0656 328.925ZM560.08124 324.5656Q560.08124 323.28436 560.89374 322.45624Q561.70624 321.6281 562.9875 321.6281Q564.28436 321.6281 565.08124 322.47186Q565.89374 323.3 565.89374 324.6281L565.89374 325.3156Q565.89374 326.6125 565.08124 327.425Q564.26874 328.2375 563.0031 328.2375Q561.7375 328.2375 560.90936 327.425Q560.08124 326.6125 560.08124 325.2531L560.08124 324.5656ZM561.425 325.3156Q561.425 326.08124 561.84686 326.58124Q562.28436 327.0656 563.0031 327.0656Q563.70624 327.0656 564.1281 326.59686Q564.55 326.1125 564.55 325.28436L564.55 324.5656Q564.55 323.8 564.1281 323.3Q563.70624 322.8 562.9875 322.8Q562.26874 322.8 561.84686 323.3Q561.425 323.8 561.425 324.59686L561.425 325.3156ZM567.0031 332.5656Q567.0031 331.28436 567.8156 330.45624Q568.6281 329.6281 569.90936 329.6281Q571.1906 329.6281 572.0031 330.45624Q572.83124 331.26874 572.83124 332.6281L572.83124 333.33124Q572.83124 334.59686 572.01874 335.425Q571.20624 336.2531 569.925 336.2531Q568.65936 336.2531 567.83124 335.4406Q567.0031 334.6281 567.0031 333.26874L567.0031 332.5656ZM568.34686 333.33124Q568.34686 334.09686 568.76874 334.59686Q569.20624 335.08124 569.925 335.08124Q570.6281 335.08124 571.05 334.59686Q571.47186 334.1125 571.47186 333.28436L571.47186 332.5656Q571.47186 331.78436 571.05 331.3Q570.6281 330.8156 569.90936 330.8156Q569.22186 330.8156 568.78436 331.3Q568.34686 331.78436 568.34686 332.59686L568.34686 333.33124ZM563.40936 334.97186L562.39374 334.33124L569.33124 323.22186L570.3625 323.8625L563.40936 334.97186Z" fill-rule="nonzero"/><path stroke="#757575" stroke-width="1.0" stroke-linecap="butt" d="M574.05 315.55L443.06668 315.55L347.28467 323.7955" fill-rule="nonzero"/><path fill="#9e9e9e" d="M349.28467 323.7955C349.28467 322.69095 348.38925 321.7955 347.28467 321.7955C346.1801 321.7955 345.28467 322.69095 345.28467 323.7955C345.28467 324.9001 346.1801 325.7955 347.28467 325.7955C348.38925 325.7955 349.28467 324.9001 349.28467 323.7955" fill-rule="nonzero"/><path fill="#757575" d="M26.184376 34.04375L22.184376 34.04375L22.184376 40.95L19.91875 40.95L19.91875 23.8875L25.575 23.8875Q28.45 23.8875 29.996876 25.2Q31.559376 26.5125 31.559376 29.0125Q31.559376 30.60625 30.7 31.79375Q29.840626 32.98125 28.29375 33.559376L32.309376 40.809376L32.309376 40.95L29.8875 40.95L26.184376 34.04375ZM22.184376 32.2L25.6375 32.2Q27.309376 32.2 28.29375 31.340626Q29.29375 30.465626 29.29375 29.0125Q29.29375 27.434376 28.340626 26.590626Q27.403126 25.746876 25.621876 25.73125L22.184376 25.73125L22.184376 32.2ZM39.85625 41.184376Q37.278126 41.184376 35.653126 39.496876Q34.04375 37.79375 34.04375 34.965626L34.04375 34.559376Q34.04375 32.66875 34.7625 31.2Q35.48125 29.715626 36.778126 28.871876Q38.075 28.028126 39.590626 28.028126Q42.059376 28.028126 43.41875 29.66875Q44.79375 31.29375 44.79375 34.325L44.79375 35.23125L36.215626 35.23125Q36.2625 37.10625 37.309376 38.2625Q38.35625 39.41875 39.965626 39.41875Q41.121876 39.41875 41.91875 38.95Q42.715626 38.48125 43.309376 37.7L44.6375 38.73125Q43.04375 41.184376 39.85625 41.184376ZM39.590626 29.809376Q38.278126 29.809376 37.3875 30.778126Q36.496876 31.73125 36.278126 33.45L42.6375 33.45L42.6375 33.278126Q42.54375 31.6375 41.746876 30.73125Q40.95 29.809376 39.590626 29.809376ZM51.778126 38.0125L54.91875 28.2625L57.1375 28.2625L52.590626 40.95L50.934376 40.95L46.340626 28.2625L48.559376 28.2625L51.778126 38.0125ZM61.95 40.95L59.778126 40.95L59.778126 28.2625L61.95 28.2625L61.95 40.95ZM59.60625 24.903126Q59.60625 24.371876 59.91875 24.0125Q60.246876 23.653126 60.871876 23.653126Q61.5125 23.653126 61.840626 24.0125Q62.16875 24.371876 62.16875 24.903126Q62.16875 25.434376 61.840626 25.79375Q61.5125 26.1375 60.871876 26.1375Q60.246876 26.1375 59.91875 25.79375Q59.60625 25.434376 59.60625 24.903126ZM70.85625 41.184376Q68.27812 41.184376 66.65312 39.496876Q65.04375 37.79375 65.04375 34.965626L65.04375 34.559376Q65.04375 32.66875 65.7625 31.2Q66.48125 29.715626 67.77812 28.871876Q69.075 28.028126 70.59062 28.028126Q73.05937 28.028126 74.41875 29.66875Q75.79375 31.29375 75.79375 34.325L75.79375 35.23125L67.21562 35.23125Q67.2625 37.10625 68.30937 38.2625Q69.35625 39.41875 70.96562 39.41875Q72.12187 39.41875 72.91875 38.95Q73.71562 38.48125 74.30937 37.7L75.6375 38.73125Q74.04375 41.184376 70.85625 41.184376ZM70.59062 29.809376Q69.27812 29.809376 68.3875 30.778126Q67.49687 31.73125 67.27812 33.45L73.6375 33.45L73.6375 33.278126Q73.54375 31.6375 72.74687 30.73125Q71.95 29.809376 70.59062 29.809376ZM89.825 37.965626L92.2625 28.2625L94.41875 28.2625L90.73125 40.95L88.98125 40.95L85.8875 31.340626L82.8875 40.95L81.1375 40.95L77.45 28.2625L79.60625 28.2625L82.10625 37.7625L85.05937 28.2625L86.80937 28.2625L89.825 37.965626ZM107.68437 39.41875Q108.84062 39.41875 109.7 38.715626Q110.575 38.0125 110.66875 36.95L112.71562 36.95Q112.65312 38.04375 111.96562 39.028126Q111.27812 40.0125 110.12187 40.60625Q108.96562 41.184376 107.68437 41.184376Q105.09062 41.184376 103.55937 39.465626Q102.02812 37.73125 102.02812 34.73125L102.02812 34.35625Q102.02812 32.5125 102.7 31.075Q103.3875 29.621876 104.65312 28.825Q105.93437 28.028126 107.66875 28.028126Q109.79375 28.028126 111.2 29.309376Q112.62187 30.590626 112.71562 32.621876L110.66875 32.621876Q110.575 31.403126 109.73125 30.60625Q108.90312 29.809376 107.66875 29.809376Q106.0125 29.809376 105.10625 31.0125Q104.2 32.2 104.2 34.45L104.2 34.85625Q104.2 37.04375 105.09062 38.23125Q105.99687 39.41875 107.68437 39.41875ZM115.0125 34.496876Q115.0125 32.621876 115.74687 31.1375Q116.48125 29.653126 117.77812 28.840626Q119.09062 28.028126 120.77812 28.028126Q123.35625 28.028126 124.95 29.825Q126.55937 31.621876 126.55937 34.590626L126.55937 34.746876Q126.55937 36.60625 125.84062 38.075Q125.1375 39.54375 123.825 40.371876Q122.5125 41.184376 120.79375 41.184376Q118.21562 41.184376 116.60625 39.3875Q115.0125 37.590626 115.0125 34.6375L115.0125 34.496876ZM117.2 34.746876Q117.2 36.85625 118.16875 38.1375Q119.15312 39.41875 120.79375 39.41875Q122.45 39.41875 123.41875 38.121876Q124.3875 36.825 124.3875 34.496876Q124.3875 32.403126 123.40312 31.10625Q122.41875 29.809376 120.77812 29.809376Q119.16875 29.809376 118.18437 31.090626Q117.2 32.371876 117.2 34.746876ZM131.6375 28.2625L131.68437 29.66875Q133.09062 28.028126 135.45 28.028126Q138.10625 28.028126 139.075 30.075Q139.7 29.153126 140.71562 28.590626Q141.73125 28.028126 143.12187 28.028126Q147.29375 28.028126 147.35625 32.45L147.35625 40.95L145.18437 40.95L145.18437 32.575Q145.18437 31.215626 144.55937 30.54375Q143.95 29.871876 142.48125 29.871876Q141.27812 29.871876 140.48125 30.590626Q139.68437 31.309376 139.55937 32.528126L139.55937 40.95L137.37187 40.95L137.37187 32.6375Q137.37187 29.871876 134.66875 29.871876Q132.52812 29.871876 131.74687 31.684376L131.74687 40.95L129.575 40.95L129.575 28.2625L131.6375 28.2625ZM152.6375 28.2625L152.68437 29.66875Q154.09062 28.028126 156.45 28.028126Q159.10625 28.028126 160.075 30.075Q160.7 29.153126 161.71562 28.590626Q162.73125 28.028126 164.12187 28.028126Q168.29375 28.028126 168.35625 32.45L168.35625 40.95L166.18437 40.95L166.18437 32.575Q166.18437 31.215626 165.55937 30.54375Q164.95 29.871876 163.48125 29.871876Q162.27812 29.871876 161.48125 30.590626Q160.68437 31.309376 160.55937 32.528126L160.55937 40.95L158.37187 40.95L158.37187 32.6375Q158.37187 29.871876 155.66875 29.871876Q153.52812 29.871876 152.74687 31.684376L152.74687 40.95L150.575 40.95L150.575 28.2625L152.6375 28.2625ZM176.85625 41.184376Q174.27812 41.184376 172.65312 39.496876Q171.04375 37.79375 171.04375 34.965626L171.04375 34.559376Q171.04375 32.66875 171.7625 31.2Q172.48125 29.715626 173.77812 28.871876Q175.075 28.028126 176.59062 28.028126Q179.05937 28.028126 180.41875 29.66875Q181.79375 31.29375 181.79375 34.325L181.79375 35.23125L173.21562 35.23125Q173.2625 37.10625 174.30937 38.2625Q175.35625 39.41875 176.96562 39.41875Q178.12187 39.41875 178.91875 38.95Q179.71562 38.48125 180.30937 37.7L181.6375 38.73125Q180.04375 41.184376 176.85625 41.184376ZM176.59062 29.809376Q175.27812 29.809376 174.3875 30.778126Q173.49687 31.73125 173.27812 33.45L179.6375 33.45L179.6375 33.278126Q179.54375 31.6375 178.74687 30.73125Q177.95 29.809376 176.59062 29.809376ZM186.6375 28.2625L186.71562 29.85625Q188.16875 28.028126 190.5125 28.028126Q194.52812 28.028126 194.55937 32.575L194.55937 40.95L192.40312 40.95L192.40312 32.559376Q192.3875 31.184376 191.7625 30.528126Q191.15312 29.871876 189.85625 29.871876Q188.79375 29.871876 187.99687 30.434376Q187.2 30.996876 186.7625 31.91875L186.7625 40.95L184.59062 40.95L184.59062 28.2625L186.6375 28.2625ZM200.52812 25.2L200.52812 28.2625L202.90312 28.2625L202.90312 29.95L200.52812 29.95L200.52812 37.809376Q200.52812 38.575 200.84062 38.95Q201.16875 39.325 201.93437 39.325Q202.30937 39.325 202.96562 39.184376L202.96562 40.95Q202.10625 41.184376 201.29375 41.184376Q199.84062 41.184376 199.10625 40.309376Q198.37187 39.41875 198.37187 37.809376L198.37187 29.95L196.05937 29.95L196.05937 28.2625L198.37187 28.2625L198.37187 25.2L200.52812 25.2ZM212.98125 37.590626Q212.98125 36.7 212.30937 36.215626Q211.65312 35.73125 209.99687 35.3875Q208.35625 35.028126 207.3875 34.54375Q206.41875 34.04375 205.95 33.371876Q205.49687 32.684376 205.49687 31.746876Q205.49687 30.184376 206.80937 29.10625Q208.1375 28.028126 210.18437 28.028126Q212.34062 28.028126 213.68437 29.153126Q215.02812 30.2625 215.02812 31.996876L212.84062 31.996876Q212.84062 31.10625 212.09062 30.465626Q211.34062 29.809376 210.18437 29.809376Q208.99687 29.809376 208.325 30.325Q207.66875 30.840626 207.66875 31.684376Q207.66875 32.465626 208.27812 32.871876Q208.90312 33.2625 210.52812 33.621876Q212.15312 33.98125 213.15312 34.496876Q214.16875 34.996876 214.65312 35.715626Q215.1375 36.41875 215.1375 37.434376Q215.1375 39.1375 213.77812 40.16875Q212.41875 41.184376 210.2625 41.184376Q208.73125 41.184376 207.55937 40.653126Q206.3875 40.10625 205.71562 39.1375Q205.05937 38.16875 205.05937 37.04375L207.23125 37.04375Q207.29375 38.1375 208.10625 38.778126Q208.91875 39.41875 210.2625 39.41875Q211.48125 39.41875 212.23125 38.91875Q212.98125 38.41875 212.98125 37.590626ZM226.34062 40.95L224.09062 40.95L224.09062 23.8875L226.34062 23.8875L226.34062 40.95ZM235.96562 33.340626Q233.05937 32.5125 231.74687 31.309376Q230.43437 30.090626 230.43437 28.309376Q230.43437 26.29375 232.04375 24.98125Q233.65312 23.653126 236.23125 23.653126Q237.98125 23.653126 239.35625 24.340626Q240.74687 25.0125 241.49687 26.215626Q242.24687 27.403126 242.24687 28.825L239.99687 28.825Q239.99687 27.278126 239.0125 26.3875Q238.02812 25.496876 236.23125 25.496876Q234.55937 25.496876 233.62187 26.23125Q232.7 26.965626 232.7 28.2625Q232.7 29.309376 233.575 30.028126Q234.46562 30.746876 236.59062 31.35625Q238.73125 31.95 239.91875 32.66875Q241.12187 33.3875 241.7 34.35625Q242.29375 35.309376 242.29375 36.60625Q242.29375 38.684376 240.66875 39.934376Q239.05937 41.184376 236.34062 41.184376Q234.59062 41.184376 233.05937 40.5125Q231.54375 39.840626 230.71562 38.66875Q229.8875 37.496876 229.8875 35.996876L232.15312 35.996876Q232.15312 37.54375 233.29375 38.45Q234.43437 39.340626 236.34062 39.340626Q238.12187 39.340626 239.075 38.621876Q240.02812 37.8875 240.02812 36.6375Q240.02812 35.3875 239.1375 34.7Q238.2625 34.0125 235.96562 33.340626ZM247.84062 23.8875L253.41875 37.809376L258.9969 23.8875L261.91876 23.8875L261.91876 40.95L259.66876 40.95L259.66876 34.309376L259.8719 27.1375L254.27812 40.95L252.54375 40.95L246.96562 27.16875L247.18437 34.309376L247.18437 40.95L244.93437 40.95L244.93437 23.8875L247.84062 23.8875ZM268.34064 40.95L266.09064 40.95L266.09064 23.8875L268.34064 23.8875L268.34064 40.95ZM279.1844 34.04375L275.1844 34.04375L275.1844 40.95L272.91876 40.95L272.91876 23.8875L278.575 23.8875Q281.45 23.8875 282.9969 25.2Q284.5594 26.5125 284.5594 29.0125Q284.5594 30.60625 283.7 31.79375Q282.84064 32.98125 281.29376 33.559376L285.3094 40.809376L285.3094 40.95L282.8875 40.95L279.1844 34.04375ZM275.1844 32.2L278.6375 32.2Q280.3094 32.2 281.29376 31.340626Q282.29376 30.465626 282.29376 29.0125Q282.29376 27.434376 281.34064 26.590626Q280.40314 25.746876 278.6219 25.73125L275.1844 25.73125L275.1844 32.2ZM292.10626 34.590626L286.3875 34.590626L286.3875 32.809376L292.10626 32.809376L292.10626 34.590626ZM298.60626 35.575L298.9344 37.825L299.41876 35.79375L302.79376 23.8875L304.7 23.8875L307.98126 35.79375L308.45 37.85625L308.825 35.559376L311.46564 23.8875L313.73126 23.8875L309.59064 40.95L307.54376 40.95L304.02814 28.5125L303.7625 27.215626L303.48126 28.5125L299.84064 40.95L297.79376 40.95L293.66876 23.8875L295.91876 23.8875L298.60626 35.575ZM329.0594 32.965626Q329.0594 35.48125 328.21564 37.35625Q327.3719 39.215626 325.825 40.2Q324.27814 41.184376 322.21564 41.184376Q320.2 41.184376 318.6375 40.2Q317.075 39.2 316.21564 37.371876Q315.35626 35.528126 315.34064 33.121876L315.34064 31.8875Q315.34064 29.434376 316.1844 27.54375Q317.04376 25.653126 318.60626 24.653126Q320.16876 23.653126 322.1844 23.653126Q324.2469 23.653126 325.8094 24.653126Q327.3719 25.6375 328.21564 27.5125Q329.0594 29.3875 329.0594 31.8875L329.0594 32.965626ZM326.825 31.871876Q326.825 28.825 325.60626 27.215626Q324.3875 25.590626 322.1844 25.590626Q320.0594 25.590626 318.825 27.215626Q317.60626 28.825 317.575 31.715626L317.575 32.965626Q317.575 35.903126 318.8094 37.590626Q320.04376 39.278126 322.21564 39.278126Q324.3875 39.278126 325.575 37.684376Q326.77814 36.090626 326.825 33.1375L326.825 31.871876ZM339.1844 34.04375L335.1844 34.04375L335.1844 40.95L332.91876 40.95L332.91876 23.8875L338.575 23.8875Q341.45 23.8875 342.9969 25.2Q344.5594 26.5125 344.5594 29.0125Q344.5594 30.60625 343.7 31.79375Q342.84064 32.98125 341.29376 33.559376L345.3094 40.809376L345.3094 40.95L342.8875 40.95L339.1844 34.04375ZM335.1844 32.2L338.6375 32.2Q340.3094 32.2 341.29376 31.340626Q342.29376 30.465626 342.29376 29.0125Q342.29376 27.434376 341.34064 26.590626Q340.40314 25.746876 338.6219 25.73125L335.1844 25.73125L335.1844 32.2ZM350.84064 23.8875L356.41876 37.809376L361.9969 23.8875L364.91876 23.8875L364.91876 40.95L362.66876 40.95L362.66876 34.309376L362.8719 27.1375L357.27814 40.95L355.54376 40.95L349.96564 27.16875L350.1844 34.309376L350.1844 40.95L347.9344 40.95L347.9344 23.8875L350.84064 23.8875ZM373.96564 33.340626Q371.0594 32.5125 369.7469 31.309376Q368.4344 30.090626 368.4344 28.309376Q368.4344 26.29375 370.04376 24.98125Q371.65314 23.653126 374.23126 23.653126Q375.98126 23.653126 377.35626 24.340626Q378.7469 25.0125 379.4969 26.215626Q380.2469 27.403126 380.2469 28.825L377.9969 28.825Q377.9969 27.278126 377.0125 26.3875Q376.02814 25.496876 374.23126 25.496876Q372.5594 25.496876 371.6219 26.23125Q370.7 26.965626 370.7 28.2625Q370.7 29.309376 371.575 30.028126Q372.46564 30.746876 374.59064 31.35625Q376.73126 31.95 377.91876 32.66875Q379.1219 33.3875 379.7 34.35625Q380.29376 35.309376 380.29376 36.60625Q380.29376 38.684376 378.66876 39.934376Q377.0594 41.184376 374.34064 41.184376Q372.59064 41.184376 371.0594 40.5125Q369.54376 39.840626 368.71564 38.66875Q367.8875 37.496876 367.8875 35.996876L370.15314 35.996876Q370.15314 37.54375 371.29376 38.45Q372.4344 39.340626 374.34064 39.340626Q376.1219 39.340626 377.075 38.621876Q378.02814 37.8875 378.02814 36.6375Q378.02814 35.3875 377.1375 34.7Q376.2625 34.0125 373.96564 33.340626Z" fill-rule="nonzero"/></svg>