<svg version="1.1" viewBox="0.0 0.0 586.0 363.0" fill="none" stroke="none" stroke-linecap="square" stroke-miterlimit="10" width="586" height="363" xmlns:xlink="http://www.w3.org/1999/xlink" xmlns="http://www.w3.org/2000/svg"><path fill="#ffffff" d="M0 0L586.0 0L586.0 363.0L0 363.0L0 0Z" fill-rule="nonzero"/><path fill="#db4437" d="M293.0 59.25C337.84784 59.25 380.0904 80.319016 407.0701 116.14391C434.04977 151.96881 442.63205 198.38736 430.2453 241.49068L293.0 202.05Z" fill-rule="nonzero"/><path fill="#f4b400" d="M236.02335 332.99084C173.99078 305.9984 139.41078 239.18245 153.19623 172.95113C166.98167 106.71979 225.34921 59.25 293.0 59.25L293.0 202.05Z" fill-rule="nonzero"/><path fill="#4285f4" d="M430.2453 241.49068C418.88962 281.0061 391.05298 313.70963 353.85913 331.23206C316.66525 348.75452 273.7236 349.39545 236.02335 332.99084L293.0 202.05Z" fill-rule="nonzero"/><path fill="#757575" d="M28.446875 162.73419Q28.446875 165.15607 27.3375 166.64044Q26.24375 168.10919 24.353125 168.10919Q22.43125 168.10919 21.321875 166.87482L21.321875 171.96857L19.525 171.96857L19.525 157.34357L21.165625 157.34357L21.259375 158.51544Q22.353125 157.14044 24.321875 157.14044Q26.228125 157.14044 27.3375 158.57794Q28.446875 160.01544 28.446875 162.57794L28.446875 162.73419ZM26.634375 162.53107Q26.634375 160.74982 25.86875 159.71857Q25.11875 158.67169 23.790625 158.67169Q22.15 158.67169 21.321875 160.12482L21.321875 165.18732Q22.134375 166.62482 23.80625 166.62482Q25.103125 166.62482 25.86875 165.59357Q26.634375 164.56232 26.634375 162.53107ZM37.040627 167.90607Q36.884377 167.59357 36.790627 166.79669Q35.525 168.10919 33.775 168.10919Q32.2125 168.10919 31.2125 167.21857Q30.2125 166.32794 30.2125 164.96857Q30.2125 163.32794 31.4625 162.42169Q32.728127 161.49982 34.99375 161.49982L36.759377 161.49982L36.759377 160.67169Q36.759377 159.71857 36.18125 159.15607Q35.61875 158.59357 34.525 158.59357Q33.55625 158.59357 32.9 159.09357Q32.24375 159.57794 32.24375 160.26544L30.43125 160.26544Q30.43125 159.48419 30.99375 158.74982Q31.55625 157.99982 32.509377 157.57794Q33.478127 157.14044 34.634377 157.14044Q36.4625 157.14044 37.49375 158.06232Q38.525 158.96857 38.571877 160.57794L38.571877 165.43732Q38.571877 166.89044 38.93125 167.74982L38.93125 167.90607L37.040627 167.90607ZM34.040627 166.53107Q34.9 166.53107 35.65 166.09357Q36.415627 165.65607 36.759377 164.95294L36.759377 162.78107L35.3375 162.78107Q32.025 162.78107 32.025 164.71857Q32.025 165.57794 32.5875 166.06232Q33.15 166.53107 34.040627 166.53107ZM46.61875 158.95294Q46.2125 158.89044 45.74375 158.89044Q43.9625 158.89044 43.321877 160.40607L43.321877 167.90607L41.525 167.90607L41.525 157.34357L43.275 157.34357L43.30625 158.56232Q44.196877 157.14044 45.821877 157.14044Q46.353127 157.14044 46.61875 157.28107L46.61875 158.95294ZM55.040627 167.90607Q54.884377 167.59357 54.790627 166.79669Q53.525 168.10919 51.775 168.10919Q50.2125 168.10919 49.2125 167.21857Q48.2125 166.32794 48.2125 164.96857Q48.2125 163.32794 49.4625 162.42169Q50.728127 161.49982 52.99375 161.49982L54.759377 161.49982L54.759377 160.67169Q54.759377 159.71857 54.18125 159.15607Q53.61875 158.59357 52.525 158.59357Q51.55625 158.59357 50.9 159.09357Q50.24375 159.57794 50.24375 160.26544L48.43125 160.26544Q48.43125 159.48419 48.99375 158.74982Q49.55625 157.99982 50.509377 157.57794Q51.478127 157.14044 52.634377 157.14044Q54.4625 157.14044 55.49375 158.06232Q56.525 158.96857 56.571877 160.57794L56.571877 165.43732Q56.571877 166.89044 56.93125 167.74982L56.93125 167.90607L55.040627 167.90607ZM52.040627 166.53107Q52.9 166.53107 53.65 166.09357Q54.415627 165.65607 54.759377 164.95294L54.759377 162.78107L53.3375 162.78107Q50.025 162.78107 50.025 164.71857Q50.025 165.57794 50.5875 166.06232Q51.15 166.53107 52.040627 166.53107ZM59.0875 162.53107Q59.0875 160.06232 60.228127 158.60919Q61.36875 157.14044 63.259377 157.14044Q65.19688 157.14044 66.275 158.51544L66.36875 157.34357L68.00938 157.34357L68.00938 167.65607Q68.00938 169.70294 66.79063 170.87482Q65.5875 172.06232 63.525 172.06232Q62.384377 172.06232 61.290627 171.57794Q60.196877 171.09357 59.61875 170.23419L60.55625 169.15607Q61.728127 170.59357 63.4 170.59357Q64.72813 170.59357 65.4625 169.84357Q66.19688 169.10919 66.19688 167.76544L66.19688 166.84357Q65.11875 168.10919 63.24375 168.10919Q61.384377 168.10919 60.228127 166.60919Q59.0875 165.10919 59.0875 162.53107ZM60.9 162.73419Q60.9 164.53107 61.634377 165.54669Q62.36875 166.56232 63.68125 166.56232Q65.4 166.56232 66.19688 165.01544L66.19688 160.18732Q65.36875 158.67169 63.7125 158.67169Q62.384377 158.67169 61.634377 159.70294Q60.9 160.73419 60.9 162.73419ZM75.61875 158.95294Q75.2125 158.89044 74.74375 158.89044Q72.9625 158.89044 72.32188 160.40607L72.32188 167.90607L70.525 167.90607L70.525 157.34357L72.275 157.34357L72.30625 158.56232Q73.19688 157.14044 74.82188 157.14044Q75.35313 157.14044 75.61875 157.28107L75.61875 158.95294ZM84.04063 167.90607Q83.88438 167.59357 83.79063 166.79669Q82.525 168.10919 80.775 168.10919Q79.2125 168.10919 78.2125 167.21857Q77.2125 166.32794 77.2125 164.96857Q77.2125 163.32794 78.4625 162.42169Q79.72813 161.49982 81.99375 161.49982L83.75938 161.49982L83.75938 160.67169Q83.75938 159.71857 83.18125 159.15607Q82.61875 158.59357 81.525 158.59357Q80.55625 158.59357 79.9 159.09357Q79.24375 159.57794 79.24375 160.26544L77.43125 160.26544Q77.43125 159.48419 77.99375 158.74982Q78.55625 157.99982 79.50938 157.57794Q80.47813 157.14044 81.63438 157.14044Q83.4625 157.14044 84.49375 158.06232Q85.525 158.96857 85.57188 160.57794L85.57188 165.43732Q85.57188 166.89044 85.93125 167.74982L85.93125 167.90607L84.04063 167.90607ZM81.04063 166.53107Q81.9 166.53107 82.65 166.09357Q83.41563 165.65607 83.75938 164.95294L83.75938 162.78107L82.3375 162.78107Q79.025 162.78107 79.025 164.71857Q79.025 165.57794 79.5875 166.06232Q80.15 166.53107 81.04063 166.53107ZM97.44688 162.73419Q97.44688 165.15607 96.3375 166.64044Q95.24375 168.10919 93.35313 168.10919Q91.43125 168.10919 90.32188 166.87482L90.32188 171.96857L88.525 171.96857L88.525 157.34357L90.16563 157.34357L90.25938 158.51544Q91.35313 157.14044 93.32188 157.14044Q95.22813 157.14044 96.3375 158.57794Q97.44688 160.01544 97.44688 162.57794L97.44688 162.73419ZM95.63438 162.53107Q95.63438 160.74982 94.86875 159.71857Q94.11875 158.67169 92.79063 158.67169Q91.15 158.67169 90.32188 160.12482L90.32188 165.18732Q91.13438 166.62482 92.80625 166.62482Q94.10313 166.62482 94.86875 165.59357Q95.63438 164.56232 95.63438 162.53107ZM101.32188 158.62482Q102.525 157.14044 104.44688 157.14044Q107.80625 157.14044 107.82188 160.92169L107.82188 167.90607L106.025 167.90607L106.025 160.90607Q106.00938 159.76544 105.49375 159.21857Q104.99375 158.67169 103.9 158.67169Q103.025 158.67169 102.35313 159.14044Q101.69688 159.60919 101.32188 160.37482L101.32188 167.90607L99.525 167.90607L99.525 152.90607L101.32188 152.90607L101.32188 158.62482Z" fill-rule="nonzero"/><path fill="#9e9e9e" d="M26.9625 190.12482L28.93125 190.12482L28.93125 191.60919L26.9625 191.60919L26.9625 194.90607L25.15 194.90607L25.15 191.60919L18.665625 191.60919L18.665625 190.54669L25.040625 180.68732L26.9625 180.68732L26.9625 190.12482ZM20.7125 190.12482L25.15 190.12482L25.15 183.15607L24.93125 183.54669L20.7125 190.12482ZM32.9625 186.92169L34.321877 186.92169Q35.603127 186.89044 36.321877 186.24982Q37.05625 185.59357 37.05625 184.46857Q37.05625 181.96857 34.571877 181.96857Q33.4 181.96857 32.696877 182.64044Q32.009377 183.31232 32.009377 184.42169L30.196875 184.42169Q30.196875 182.73419 31.43125 181.60919Q32.665627 180.48419 34.571877 180.48419Q36.5875 180.48419 37.728127 181.56232Q38.86875 182.62482 38.86875 184.51544Q38.86875 185.43732 38.259377 186.31232Q37.665627 187.18732 36.634377 187.60919Q37.80625 187.98419 38.446877 188.84357Q39.0875 189.70294 39.0875 190.93732Q39.0875 192.85919 37.8375 193.98419Q36.5875 195.10919 34.571877 195.10919Q32.571877 195.10919 31.321875 194.03107Q30.071875 192.93732 30.071875 191.15607L31.884375 191.15607Q31.884375 192.28107 32.61875 192.95294Q33.353127 193.62482 34.5875 193.62482Q35.884377 193.62482 36.571877 192.95294Q37.275 192.26544 37.275 190.98419Q37.275 189.73419 36.509377 189.07794Q35.759377 188.40607 34.321877 188.39044L32.9625 188.39044L32.9625 186.92169ZM41.55625 193.95294Q41.55625 193.48419 41.8375 193.17169Q42.11875 192.85919 42.665627 192.85919Q43.228127 192.85919 43.509377 193.17169Q43.80625 193.48419 43.80625 193.95294Q43.80625 194.40607 43.509377 194.71857Q43.228127 195.01544 42.665627 195.01544Q42.11875 195.01544 41.8375 194.71857Q41.55625 194.40607 41.55625 193.95294ZM47.165627 187.78107L47.884377 180.68732L55.165627 180.68732L55.165627 182.35919L49.415627 182.35919L48.99375 186.23419Q50.040627 185.62482 51.36875 185.62482Q53.30625 185.62482 54.446877 186.90607Q55.5875 188.18732 55.5875 190.37482Q55.5875 192.57794 54.4 193.84357Q53.2125 195.10919 51.0875 195.10919Q49.196877 195.10919 48.009377 194.06232Q46.821877 193.01544 46.65 191.17169L48.36875 191.17169Q48.525 192.39044 49.228127 193.01544Q49.93125 193.62482 51.0875 193.62482Q52.353127 193.62482 53.071877 192.76544Q53.790627 191.90607 53.790627 190.39044Q53.790627 188.96857 53.009377 188.10919Q52.228127 187.23419 50.946877 187.23419Q49.759377 187.23419 49.0875 187.74982L48.603127 188.14044L47.165627 187.78107ZM57.18125 183.42169Q57.18125 182.14044 57.99375 181.31232Q58.80625 180.48419 60.0875 180.48419Q61.384377 180.48419 62.18125 181.32794Q62.99375 182.15607 62.99375 183.48419L62.99375 184.17169Q62.99375 185.46857 62.18125 186.28107Q61.36875 187.09357 60.103127 187.09357Q58.8375 187.09357 58.009377 186.28107Q57.18125 185.46857 57.18125 184.10919L57.18125 183.42169ZM58.525 184.17169Q58.525 184.93732 58.946877 185.43732Q59.384377 185.92169 60.103127 185.92169Q60.80625 185.92169 61.228127 185.45294Q61.65 184.96857 61.65 184.14044L61.65 183.42169Q61.65 182.65607 61.228127 182.15607Q60.80625 181.65607 60.0875 181.65607Q59.36875 181.65607 58.946877 182.15607Q58.525 182.65607 58.525 183.45294L58.525 184.17169ZM64.10313 191.42169Q64.10313 190.14044 64.91563 189.31232Q65.72813 188.48419 67.00938 188.48419Q68.29063 188.48419 69.10313 189.31232Q69.93125 190.12482 69.93125 191.48419L69.93125 192.18732Q69.93125 193.45294 69.11875 194.28107Q68.30625 195.10919 67.025 195.10919Q65.75938 195.10919 64.93125 194.29669Q64.10313 193.48419 64.10313 192.12482L64.10313 191.42169ZM65.44688 192.18732Q65.44688 192.95294 65.86875 193.45294Q66.30625 193.93732 67.025 193.93732Q67.72813 193.93732 68.15 193.45294Q68.57188 192.96857 68.57188 192.14044L68.57188 191.42169Q68.57188 190.64044 68.15 190.15607Q67.72813 189.67169 67.00938 189.67169Q66.32188 189.67169 65.88438 190.15607Q65.44688 190.64044 65.44688 191.45294L65.44688 192.18732ZM60.509377 193.82794L59.49375 193.18732L66.43125 182.07794L67.4625 182.71857L60.509377 193.82794Z" fill-rule="nonzero"/><path stroke="#757575" stroke-width="1.0" stroke-linecap="butt" d="M18.15 174.40607L144.2 174.40607L160.18642 174.40607" fill-rule="nonzero"/><path fill="#9e9e9e" d="M162.18642 174.40607C162.18642 173.3015 161.29099 172.40607 160.18642 172.40607C159.08185 172.40607 158.18642 173.3015 158.18642 174.40607C158.18642 175.51064 159.08185 176.40607 160.18642 176.40607C161.29099 176.40607 162.18642 175.51064 162.18642 174.40607" fill-rule="nonzero"/><path fill="#757575" d="M519.7406 113.93922Q519.58435 113.62672 519.4906 112.82984Q518.225 114.14234 516.475 114.14234Q514.9125 114.14234 513.9125 113.25172Q512.9125 112.36109 512.9125 111.00172Q512.9125 109.36109 514.1625 108.45484Q515.4281 107.53297 517.6937 107.53297L519.45935 107.53297L519.45935 106.70484Q519.45935 105.75172 518.8812 105.18922Q518.3187 104.62672 517.225 104.62672Q516.2562 104.62672 515.6 105.12672Q514.9437 105.61109 514.9437 106.29859L513.1312 106.29859Q513.1312 105.51734 513.6937 104.78297Q514.2562 104.03297 515.20935 103.61109Q516.1781 103.17359 517.33435 103.17359Q519.1625 103.17359 520.1937 104.09547Q521.225 105.00172 521.27185 106.61109L521.27185 111.47047Q521.27185 112.92359 521.6312 113.78297L521.6312 113.93922L519.7406 113.93922ZM516.7406 112.56422Q517.6 112.56422 518.35 112.12672Q519.1156 111.68922 519.45935 110.98609L519.45935 108.81422L518.0375 108.81422Q514.725 108.81422 514.725 110.75172Q514.725 111.61109 515.2875 112.09547Q515.85 112.56422 516.7406 112.56422ZM529.3187 104.98609Q528.9125 104.92359 528.4437 104.92359Q526.6625 104.92359 526.02185 106.43922L526.02185 113.93922L524.225 113.93922L524.225 103.37672L525.975 103.37672L526.0062 104.59547Q526.89685 103.17359 528.52185 103.17359Q529.0531 103.17359 529.3187 103.31422L529.3187 104.98609ZM533.6625 100.81422L533.6625 103.37672L535.64685 103.37672L535.64685 104.76734L533.6625 104.76734L533.6625 111.31422Q533.6625 111.95484 533.9281 112.28297Q534.1937 112.59547 534.83435 112.59547Q535.14685 112.59547 535.6937 112.47047L535.6937 113.93922Q534.975 114.14234 534.3031 114.14234Q533.1 114.14234 532.475 113.40797Q531.8656 112.67359 531.8656 111.31422L531.8656 104.76734L529.9437 104.76734L529.9437 103.37672L531.8656 103.37672L531.8656 100.81422L533.6625 100.81422ZM540.1781 113.93922L538.3812 113.93922L538.3812 103.37672L540.1781 103.37672L540.1781 113.93922ZM538.225 100.56422Q538.225 100.12672 538.4906 99.82984Q538.77185 99.51734 539.2875 99.51734Q539.8187 99.51734 540.08435 99.82984Q540.3656 100.12672 540.3656 100.56422Q540.3656 101.00172 540.08435 101.29859Q539.8187 101.59547 539.2875 101.59547Q538.77185 101.59547 538.4906 101.29859Q538.225 101.00172 538.225 100.56422ZM547.45935 112.65797Q548.4281 112.65797 549.14685 112.07984Q549.8656 111.48609 549.9437 110.61109L551.6625 110.61109Q551.6 111.51734 551.02185 112.34547Q550.45935 113.15797 549.4906 113.65797Q548.5375 114.14234 547.45935 114.14234Q545.3031 114.14234 544.02185 112.70484Q542.7562 111.25172 542.7562 108.75172L542.7562 108.45484Q542.7562 106.90797 543.3187 105.70484Q543.8812 104.50172 544.9437 103.84547Q546.0062 103.17359 547.4437 103.17359Q549.225 103.17359 550.39685 104.23609Q551.58435 105.29859 551.6625 107.00172L549.9437 107.00172Q549.8656 105.98609 549.1625 105.32984Q548.475 104.65797 547.4437 104.65797Q546.0687 104.65797 545.3031 105.65797Q544.5531 106.64234 544.5531 108.51734L544.5531 108.86109Q544.5531 110.68922 545.3031 111.67359Q546.0531 112.65797 547.45935 112.65797ZM555.1781 113.93922L553.3812 113.93922L553.3812 98.93922L555.1781 98.93922L555.1781 113.93922ZM562.6 114.14234Q560.45935 114.14234 559.1 112.73609Q557.7562 111.31422 557.7562 108.95484L557.7562 108.61109Q557.7562 107.04859 558.35 105.81422Q558.95935 104.57984 560.0375 103.87672Q561.1156 103.17359 562.3812 103.17359Q564.4437 103.17359 565.58435 104.53297Q566.725 105.89234 566.725 108.42359L566.725 109.17359L559.5687 109.17359Q559.6 110.73609 560.475 111.70484Q561.35 112.65797 562.6937 112.65797Q563.6625 112.65797 564.3187 112.26734Q564.9906 111.87672 565.4906 111.23609L566.58435 112.09547Q565.2562 114.14234 562.6 114.14234ZM562.3812 104.65797Q561.2875 104.65797 560.5375 105.45484Q559.8031 106.25172 559.6312 107.68922L564.9125 107.68922L564.9125 107.54859Q564.83435 106.17359 564.1625 105.42359Q563.5062 104.65797 562.3812 104.65797Z" fill-rule="nonzero"/><path fill="#9e9e9e" d="M525.35 140.93922L516.0375 140.93922L516.0375 139.64235L520.95935 134.1736Q522.0531 132.9236 522.45935 132.15797Q522.8812 131.37672 522.8812 130.5486Q522.8812 129.43922 522.20935 128.72047Q521.5375 128.00172 520.4125 128.00172Q519.0531 128.00172 518.3031 128.78297Q517.5687 129.5486 517.5687 130.90797L515.7562 130.90797Q515.7562 128.93922 517.02185 127.7361Q518.2875 126.51735 520.4125 126.51735Q522.39685 126.51735 523.5375 127.564224Q524.6937 128.6111 524.6937 130.32985Q524.6937 132.43922 522.02185 135.32985L518.20935 139.47047L525.35 139.47047L525.35 140.93922ZM533.95935 134.68922Q533.39685 135.3611 532.6 135.78297Q531.8187 136.18922 530.8812 136.18922Q529.64685 136.18922 528.725 135.57985Q527.8187 134.97047 527.3187 133.87672Q526.83435 132.76735 526.83435 131.43922Q526.83435 130.01735 527.3656 128.87672Q527.9125 127.7361 528.89685 127.126724Q529.89685 126.51735 531.225 126.51735Q533.33435 126.51735 534.5531 128.09547Q535.77185 129.6736 535.77185 132.40797L535.77185 132.9236Q535.77185 137.07985 534.1312 138.9861Q532.4906 140.89235 529.1781 140.95485L528.83435 140.95485L528.83435 139.4236L529.20935 139.4236Q531.4437 139.39235 532.64685 138.26735Q533.85 137.12672 533.95935 134.68922ZM531.1781 134.68922Q532.08435 134.68922 532.85 134.14235Q533.6156 133.57985 533.95935 132.75172L533.95935 132.03297Q533.95935 130.25172 533.1937 129.14235Q532.4281 128.03297 531.2406 128.03297Q530.0531 128.03297 529.3187 128.95485Q528.6 129.8611 528.6 131.34547Q528.6 132.7986 529.3031 133.75172Q530.0062 134.68922 531.1781 134.68922ZM538.2562 139.9861Q538.2562 139.51735 538.5375 139.20485Q538.8187 138.89235 539.3656 138.89235Q539.9281 138.89235 540.20935 139.20485Q540.5062 139.51735 540.5062 139.9861Q540.5062 140.43922 540.20935 140.75172Q539.9281 141.0486 539.3656 141.0486Q538.8187 141.0486 538.5375 140.75172Q538.2562 140.43922 538.2562 139.9861ZM543.8656 133.81422L544.58435 126.720474L551.8656 126.720474L551.8656 128.39235L546.1156 128.39235L545.6937 132.26735Q546.7406 131.65797 548.0687 131.65797Q550.0062 131.65797 551.14685 132.93922Q552.2875 134.22047 552.2875 136.40797Q552.2875 138.6111 551.1 139.87672Q549.9125 141.14235 547.7875 141.14235Q545.89685 141.14235 544.70935 140.09547Q543.52185 139.0486 543.35 137.20485L545.0687 137.20485Q545.225 138.4236 545.9281 139.0486Q546.6312 139.65797 547.7875 139.65797Q549.0531 139.65797 549.77185 138.7986Q550.4906 137.93922 550.4906 136.4236Q550.4906 135.00172 549.70935 134.14235Q548.9281 133.26735 547.64685 133.26735Q546.45935 133.26735 545.7875 133.78297L545.3031 134.1736L543.8656 133.81422ZM553.8812 129.45485Q553.8812 128.1736 554.6937 127.345474Q555.5062 126.51735 556.7875 126.51735Q558.08435 126.51735 558.8812 127.3611Q559.6937 128.18922 559.6937 129.51735L559.6937 130.20485Q559.6937 131.50172 558.8812 132.31422Q558.0687 133.12672 556.8031 133.12672Q555.5375 133.12672 554.70935 132.31422Q553.8812 131.50172 553.8812 130.14235L553.8812 129.45485ZM555.225 130.20485Q555.225 130.97047 555.64685 131.47047Q556.08435 131.95485 556.8031 131.95485Q557.5062 131.95485 557.9281 131.4861Q558.35 131.00172 558.35 130.1736L558.35 129.45485Q558.35 128.68922 557.9281 128.18922Q557.5062 127.689224 556.7875 127.689224Q556.0687 127.689224 555.64685 128.18922Q555.225 128.68922 555.225 129.4861L555.225 130.20485ZM560.8031 137.45485Q560.8031 136.1736 561.6156 135.34547Q562.4281 134.51735 563.70935 134.51735Q564.9906 134.51735 565.8031 135.34547Q566.6312 136.15797 566.6312 137.51735L566.6312 138.22047Q566.6312 139.4861 565.8187 140.31422Q565.0062 141.14235 563.725 141.14235Q562.45935 141.14235 561.6312 140.32985Q560.8031 139.51735 560.8031 138.15797L560.8031 137.45485ZM562.14685 138.22047Q562.14685 138.9861 562.5687 139.4861Q563.0062 139.97047 563.725 139.97047Q564.4281 139.97047 564.85 139.4861Q565.27185 139.00172 565.27185 138.1736L565.27185 137.45485Q565.27185 136.6736 564.85 136.18922Q564.4281 135.70485 563.70935 135.70485Q563.02185 135.70485 562.58435 136.18922Q562.14685 136.6736 562.14685 137.4861L562.14685 138.22047ZM557.20935 139.8611L556.1937 139.22047L563.1312 128.1111L564.1625 128.75172L557.20935 139.8611Z" fill-rule="nonzero"/><path stroke="#757575" stroke-width="1.0" stroke-linecap="butt" d="M567.85 120.43922L441.8 120.43922L401.36658 120.43922" fill-rule="nonzero"/><path fill="#9e9e9e" d="M403.36658 120.43922C403.36658 119.33465 402.47116 118.43922 401.36658 118.43922C400.26202 118.43922 399.36658 119.33465 399.36658 120.43922C399.36658 121.543785 400.26202 122.43922 401.36658 122.43922C402.47116 122.43922 403.36658 121.543785 403.36658 120.43922" fill-rule="nonzero"/><path fill="#757575" d="M510.36563 310.05313Q510.36563 309.31876 509.81876 308.9125Q509.27188 308.50626 507.89688 308.20938Q506.52188 307.9125 505.70938 307.50626Q504.9125 307.1 504.52188 306.5375Q504.14688 305.95938 504.14688 305.17813Q504.14688 303.88126 505.24063 302.99063Q506.33438 302.08438 508.05313 302.08438Q509.85 302.08438 510.95938 303.02188Q512.08435 303.94376 512.08435 305.38126L510.25626 305.38126Q510.25626 304.64688 509.63126 304.11563Q509.00626 303.56876 508.05313 303.56876Q507.05313 303.56876 506.49063 304.00626Q505.94376 304.42813 505.94376 305.13126Q505.94376 305.77188 506.45938 306.11563Q506.975 306.44376 508.33438 306.75626Q509.69376 307.05313 510.52188 307.475Q511.36563 307.88126 511.77188 308.475Q512.1781 309.06876 512.1781 309.9125Q512.1781 311.33438 511.0375 312.19376Q509.9125 313.05313 508.1 313.05313Q506.83438 313.05313 505.85 312.6Q504.88126 312.14688 504.31876 311.35Q503.77188 310.5375 503.77188 309.6L505.58438 309.6Q505.63126 310.50626 506.30313 311.0375Q506.99063 311.56876 508.1 311.56876Q509.13126 311.56876 509.74063 311.1625Q510.36563 310.74063 510.36563 310.05313ZM518.6 313.05313Q516.45935 313.05313 515.1 311.64688Q513.7562 310.225 513.7562 307.86563L513.7562 307.52188Q513.7562 305.95938 514.35 304.725Q514.95935 303.49063 516.0375 302.7875Q517.1156 302.08438 518.3812 302.08438Q520.4437 302.08438 521.58435 303.44376Q522.725 304.80313 522.725 307.33438L522.725 308.08438L515.5687 308.08438Q515.6 309.64688 516.475 310.61563Q517.35 311.56876 518.6937 311.56876Q519.6625 311.56876 520.3187 311.17813Q520.9906 310.7875 521.4906 310.14688L522.58435 311.00626Q521.2562 313.05313 518.6 313.05313ZM518.3812 303.56876Q517.2875 303.56876 516.5375 304.36563Q515.8031 305.1625 515.6312 306.6L520.9125 306.6L520.9125 306.45938Q520.83435 305.08438 520.1625 304.33438Q519.5062 303.56876 518.3812 303.56876ZM529.45935 311.56876Q530.4281 311.56876 531.14685 310.99063Q531.8656 310.39688 531.9437 309.52188L533.6625 309.52188Q533.6 310.42813 533.02185 311.25626Q532.45935 312.06876 531.4906 312.56876Q530.5375 313.05313 529.45935 313.05313Q527.3031 313.05313 526.02185 311.61563Q524.7562 310.1625 524.7562 307.6625L524.7562 307.36563Q524.7562 305.81876 525.3187 304.61563Q525.8812 303.4125 526.9437 302.75626Q528.0062 302.08438 529.4437 302.08438Q531.225 302.08438 532.39685 303.14688Q533.58435 304.20938 533.6625 305.9125L531.9437 305.9125Q531.8656 304.89688 531.1625 304.24063Q530.475 303.56876 529.4437 303.56876Q528.0687 303.56876 527.3031 304.56876Q526.5531 305.55313 526.5531 307.42813L526.5531 307.77188Q526.5531 309.6 527.3031 310.58438Q528.0531 311.56876 529.45935 311.56876ZM537.6625 299.725L537.6625 302.2875L539.64685 302.2875L539.64685 303.67813L537.6625 303.67813L537.6625 310.225Q537.6625 310.86563 537.9281 311.19376Q538.1937 311.50626 538.83435 311.50626Q539.14685 311.50626 539.6937 311.38126L539.6937 312.85Q538.975 313.05313 538.3031 313.05313Q537.1 313.05313 536.475 312.31876Q535.8656 311.58438 535.8656 310.225L535.8656 303.67813L533.9437 303.67813L533.9437 302.2875L535.8656 302.2875L535.8656 299.725L537.6625 299.725ZM544.1781 312.85L542.3812 312.85L542.3812 302.2875L544.1781 302.2875L544.1781 312.85ZM542.225 299.475Q542.225 299.0375 542.4906 298.74063Q542.77185 298.42813 543.2875 298.42813Q543.8187 298.42813 544.08435 298.74063Q544.3656 299.0375 544.3656 299.475Q544.3656 299.9125 544.08435 300.20938Q543.8187 300.50626 543.2875 300.50626Q542.77185 300.50626 542.4906 300.20938Q542.225 299.9125 542.225 299.475ZM546.7406 307.475Q546.7406 305.9125 547.35 304.67813Q547.95935 303.42813 549.0375 302.75626Q550.1312 302.08438 551.5375 302.08438Q553.6937 302.08438 555.02185 303.58438Q556.3656 305.06876 556.3656 307.55313L556.3656 307.67813Q556.3656 309.225 555.77185 310.45938Q555.1781 311.67813 554.0687 312.36563Q552.975 313.05313 551.5531 313.05313Q549.4125 313.05313 548.0687 311.55313Q546.7406 310.05313 546.7406 307.6L546.7406 307.475ZM548.5531 307.67813Q548.5531 309.44376 549.3656 310.50626Q550.1937 311.56876 551.5531 311.56876Q552.9281 311.56876 553.7406 310.49063Q554.5531 309.4125 554.5531 307.475Q554.5531 305.725 553.725 304.64688Q552.89685 303.56876 551.5375 303.56876Q550.1937 303.56876 549.3656 304.63126Q548.5531 305.69376 548.5531 307.67813ZM559.9281 302.2875L559.9906 303.61563Q561.1937 302.08438 563.14685 302.08438Q566.5062 302.08438 566.52185 305.86563L566.52185 312.85L564.725 312.85L564.725 305.85Q564.70935 304.70938 564.1937 304.1625Q563.6937 303.61563 562.6 303.61563Q561.725 303.61563 561.0531 304.08438Q560.39685 304.55313 560.02185 305.31876L560.02185 312.85L558.225 312.85L558.225 302.2875L559.9281 302.2875Z" fill-rule="nonzero"/><path fill="#9e9e9e" d="M525.35 339.85L516.0375 339.85L516.0375 338.55313L520.95935 333.08438Q522.0531 331.83438 522.45935 331.06876Q522.8812 330.2875 522.8812 329.45938Q522.8812 328.35 522.20935 327.63126Q521.5375 326.9125 520.4125 326.9125Q519.0531 326.9125 518.3031 327.69376Q517.5687 328.45938 517.5687 329.81876L515.7562 329.81876Q515.7562 327.85 517.02185 326.64688Q518.2875 325.42813 520.4125 325.42813Q522.39685 325.42813 523.5375 326.475Q524.6937 327.52188 524.6937 329.24063Q524.6937 331.35 522.02185 334.24063L518.20935 338.38126L525.35 338.38126L525.35 339.85ZM536.20935 326.64688L530.3187 339.85L528.4281 339.85L534.3031 327.11563L526.6 327.11563L526.6 325.63126L536.20935 325.63126L536.20935 326.64688ZM538.2562 338.89688Q538.2562 338.42813 538.5375 338.11563Q538.8187 337.80313 539.3656 337.80313Q539.9281 337.80313 540.20935 338.11563Q540.5062 338.42813 540.5062 338.89688Q540.5062 339.35 540.20935 339.6625Q539.9281 339.95938 539.3656 339.95938Q538.8187 339.95938 538.5375 339.6625Q538.2562 339.35 538.2562 338.89688ZM548.975 339.85L547.14685 339.85L547.14685 327.80313L543.5062 329.14688L543.5062 327.50626L548.6937 325.56876L548.975 325.56876L548.975 339.85ZM553.8812 328.36563Q553.8812 327.08438 554.6937 326.25626Q555.5062 325.42813 556.7875 325.42813Q558.08435 325.42813 558.8812 326.27188Q559.6937 327.1 559.6937 328.42813L559.6937 329.11563Q559.6937 330.4125 558.8812 331.225Q558.0687 332.0375 556.8031 332.0375Q555.5375 332.0375 554.70935 331.225Q553.8812 330.4125 553.8812 329.05313L553.8812 328.36563ZM555.225 329.11563Q555.225 329.88126 555.64685 330.38126Q556.08435 330.86563 556.8031 330.86563Q557.5062 330.86563 557.9281 330.39688Q558.35 329.9125 558.35 329.08438L558.35 328.36563Q558.35 327.6 557.9281 327.1Q557.5062 326.6 556.7875 326.6Q556.0687 326.6 555.64685 327.1Q555.225 327.6 555.225 328.39688L555.225 329.11563ZM560.8031 336.36563Q560.8031 335.08438 561.6156 334.25626Q562.4281 333.42813 563.70935 333.42813Q564.9906 333.42813 565.8031 334.25626Q566.6312 335.06876 566.6312 336.42813L566.6312 337.13126Q566.6312 338.39688 565.8187 339.225Q565.0062 340.05313 563.725 340.05313Q562.45935 340.05313 561.6312 339.24063Q560.8031 338.42813 560.8031 337.06876L560.8031 336.36563ZM562.14685 337.13126Q562.14685 337.89688 562.5687 338.39688Q563.0062 338.88126 563.725 338.88126Q564.4281 338.88126 564.85 338.39688Q565.27185 337.9125 565.27185 337.08438L565.27185 336.36563Q565.27185 335.58438 564.85 335.1Q564.4281 334.61563 563.70935 334.61563Q563.02185 334.61563 562.58435 335.1Q562.14685 335.58438 562.14685 336.39688L562.14685 337.13126ZM557.20935 338.77188L556.1937 338.13126L563.1312 327.02188L564.1625 327.6625L557.20935 338.77188Z" fill-rule="nonzero"/><path stroke="#757575" stroke-width="1.0" stroke-linecap="butt" d="M567.85 319.35L441.8 319.35L350.81616 324.77295" fill-rule="nonzero"/><path fill="#9e9e9e" d="M352.81616 324.77295C352.81616 323.6684 351.92075 322.77295 350.81616 322.77295C349.7116 322.77295 348.81616 323.6684 348.81616 324.77295C348.81616 325.87753 349.7116 326.77295 350.81616 326.77295C351.92075 326.77295 352.81616 325.87753 352.81616 324.77295" fill-rule="nonzero"/><path fill="#757575" d="M26.384375 34.24375L22.384375 34.24375L22.384375 41.15L20.11875 41.15L20.11875 24.087502L25.775 24.087502Q28.65 24.087502 30.196875 25.400002Q31.759375 26.712502 31.759375 29.212502Q31.759375 30.806252 30.9 31.993752Q30.040625 33.18125 28.49375 33.759377L32.509377 41.009377L32.509377 41.15L30.0875 41.15L26.384375 34.24375ZM22.384375 32.4L25.8375 32.4Q27.509375 32.4 28.49375 31.540627Q29.49375 30.665627 29.49375 29.212502Q29.49375 27.634377 28.540625 26.790627Q27.603125 25.946877 25.821875 25.931252L22.384375 25.931252L22.384375 32.4ZM40.05625 41.384377Q37.478127 41.384377 35.853127 39.696877Q34.24375 37.99375 34.24375 35.165627L34.24375 34.759377Q34.24375 32.86875 34.9625 31.400002Q35.68125 29.915627 36.978127 29.071877Q38.275 28.228127 39.790627 28.228127Q42.259377 28.228127 43.61875 29.868752Q44.99375 31.493752 44.99375 34.525L44.99375 35.43125L36.415627 35.43125Q36.4625 37.30625 37.509377 38.4625Q38.55625 39.61875 40.165627 39.61875Q41.321877 39.61875 42.11875 39.15Q42.915627 38.68125 43.509377 37.9L44.8375 38.93125Q43.24375 41.384377 40.05625 41.384377ZM39.790627 30.009377Q38.478127 30.009377 37.5875 30.978127Q36.696877 31.931252 36.478127 33.65L42.8375 33.65L42.8375 33.478127Q42.74375 31.837502 41.946877 30.931252Q41.15 30.009377 39.790627 30.009377ZM51.978127 38.2125L55.11875 28.462502L57.3375 28.462502L52.790627 41.15L51.134377 41.15L46.540627 28.462502L48.759377 28.462502L51.978127 38.2125ZM62.15 41.15L59.978127 41.15L59.978127 28.462502L62.15 28.462502L62.15 41.15ZM59.80625 25.103127Q59.80625 24.571877 60.11875 24.212502Q60.446877 23.853127 61.071877 23.853127Q61.7125 23.853127 62.040627 24.212502Q62.36875 24.571877 62.36875 25.103127Q62.36875 25.634377 62.040627 25.993752Q61.7125 26.337502 61.071877 26.337502Q60.446877 26.337502 60.11875 25.993752Q59.80625 25.634377 59.80625 25.103127ZM71.05625 41.384377Q68.47813 41.384377 66.85313 39.696877Q65.24375 37.99375 65.24375 35.165627L65.24375 34.759377Q65.24375 32.86875 65.9625 31.400002Q66.68125 29.915627 67.97813 29.071877Q69.275 28.228127 70.79063 28.228127Q73.25938 28.228127 74.61875 29.868752Q75.99375 31.493752 75.99375 34.525L75.99375 35.43125L67.41563 35.43125Q67.4625 37.30625 68.50938 38.4625Q69.55625 39.61875 71.16563 39.61875Q72.32188 39.61875 73.11875 39.15Q73.91563 38.68125 74.50938 37.9L75.8375 38.93125Q74.24375 41.384377 71.05625 41.384377ZM70.79063 30.009377Q69.47813 30.009377 68.5875 30.978127Q67.69688 31.931252 67.47813 33.65L73.8375 33.65L73.8375 33.478127Q73.74375 31.837502 72.94688 30.931252Q72.15 30.009377 70.79063 30.009377ZM90.025 38.165627L92.4625 28.462502L94.61875 28.462502L90.93125 41.15L89.18125 41.15L86.0875 31.540627L83.0875 41.15L81.3375 41.15L77.65 28.462502L79.80625 28.462502L82.30625 37.9625L85.25938 28.462502L87.00938 28.462502L90.025 38.165627ZM107.88438 39.61875Q109.04063 39.61875 109.9 38.915627Q110.775 38.2125 110.86875 37.15L112.91563 37.15Q112.85313 38.24375 112.16563 39.228127Q111.47813 40.2125 110.32188 40.80625Q109.16563 41.384377 107.88438 41.384377Q105.29063 41.384377 103.75938 39.665627Q102.22813 37.93125 102.22813 34.93125L102.22813 34.55625Q102.22813 32.7125 102.9 31.275002Q103.5875 29.821877 104.85313 29.025002Q106.13438 28.228127 107.86875 28.228127Q109.99375 28.228127 111.4 29.509377Q112.82188 30.790627 112.91563 32.821877L110.86875 32.821877Q110.775 31.603127 109.93125 30.806252Q109.10313 30.009377 107.86875 30.009377Q106.2125 30.009377 105.30625 31.212502Q104.4 32.4 104.4 34.65L104.4 35.05625Q104.4 37.24375 105.29063 38.43125Q106.19688 39.61875 107.88438 39.61875ZM115.2125 34.696877Q115.2125 32.821877 115.94688 31.337502Q116.68125 29.853127 117.97813 29.040627Q119.29063 28.228127 120.97813 28.228127Q123.55625 28.228127 125.15 30.025002Q126.75938 31.821877 126.75938 34.790627L126.75938 34.946877Q126.75938 36.80625 126.04063 38.275Q125.3375 39.74375 124.025 40.571877Q122.7125 41.384377 120.99375 41.384377Q118.41563 41.384377 116.80625 39.5875Q115.2125 37.790627 115.2125 34.8375L115.2125 34.696877ZM117.4 34.946877Q117.4 37.05625 118.36875 38.3375Q119.35313 39.61875 120.99375 39.61875Q122.65 39.61875 123.61875 38.321877Q124.5875 37.025 124.5875 34.696877Q124.5875 32.603127 123.60313 31.306252Q122.61875 30.009377 120.97813 30.009377Q119.36875 30.009377 118.38438 31.290627Q117.4 32.571877 117.4 34.946877ZM131.8375 28.462502L131.88437 29.868752Q133.29062 28.228127 135.65 28.228127Q138.30624 28.228127 139.275 30.275002Q139.9 29.353127 140.91562 28.790627Q141.93124 28.228127 143.32187 28.228127Q147.49374 28.228127 147.55624 32.65L147.55624 41.15L145.38437 41.15L145.38437 32.775Q145.38437 31.415627 144.75937 30.743752Q144.15 30.071877 142.68124 30.071877Q141.47812 30.071877 140.68124 30.790627Q139.88437 31.509377 139.75937 32.728127L139.75937 41.15L137.57187 41.15L137.57187 32.8375Q137.57187 30.071877 134.86874 30.071877Q132.72812 30.071877 131.94687 31.884377L131.94687 41.15L129.775 41.15L129.775 28.462502L131.8375 28.462502ZM152.8375 28.462502L152.88437 29.868752Q154.29062 28.228127 156.65 28.228127Q159.30624 28.228127 160.275 30.275002Q160.9 29.353127 161.91562 28.790627Q162.93124 28.228127 164.32187 28.228127Q168.49374 28.228127 168.55624 32.65L168.55624 41.15L166.38437 41.15L166.38437 32.775Q166.38437 31.415627 165.75937 30.743752Q165.15 30.071877 163.68124 30.071877Q162.47812 30.071877 161.68124 30.790627Q160.88437 31.509377 160.75937 32.728127L160.75937 41.15L158.57187 41.15L158.57187 32.8375Q158.57187 30.071877 155.86874 30.071877Q153.72812 30.071877 152.94687 31.884377L152.94687 41.15L150.775 41.15L150.775 28.462502L152.8375 28.462502ZM177.05624 41.384377Q174.47812 41.384377 172.85312 39.696877Q171.24374 37.99375 171.24374 35.165627L171.24374 34.759377Q171.24374 32.86875 171.9625 31.400002Q172.68124 29.915627 173.97812 29.071877Q175.275 28.228127 176.79062 28.228127Q179.25937 28.228127 180.61874 29.868752Q181.99374 31.493752 181.99374 34.525L181.99374 35.43125L173.41562 35.43125Q173.4625 37.30625 174.50937 38.4625Q175.55624 39.61875 177.16562 39.61875Q178.32187 39.61875 179.11874 39.15Q179.91562 38.68125 180.50937 37.9L181.8375 38.93125Q180.24374 41.384377 177.05624 41.384377ZM176.79062 30.009377Q175.47812 30.009377 174.5875 30.978127Q173.69687 31.931252 173.47812 33.65L179.8375 33.65L179.8375 33.478127Q179.74374 31.837502 178.94687 30.931252Q178.15 30.009377 176.79062 30.009377ZM186.8375 28.462502L186.91562 30.056252Q188.36874 28.228127 190.7125 28.228127Q194.72812 28.228127 194.75937 32.775L194.75937 41.15L192.60312 41.15L192.60312 32.759377Q192.5875 31.384377 191.9625 30.728127Q191.35312 30.071877 190.05624 30.071877Q188.99374 30.071877 188.19687 30.634377Q187.4 31.196877 186.9625 32.11875L186.9625 41.15L184.79062 41.15L184.79062 28.462502L186.8375 28.462502ZM200.72812 25.400002L200.72812 28.462502L203.10312 28.462502L203.10312 30.150002L200.72812 30.150002L200.72812 38.009377Q200.72812 38.775 201.04062 39.15Q201.36874 39.525 202.13437 39.525Q202.50937 39.525 203.16562 39.384377L203.16562 41.15Q202.30624 41.384377 201.49374 41.384377Q200.04062 41.384377 199.30624 40.509377Q198.57187 39.61875 198.57187 38.009377L198.57187 30.150002L196.25937 30.150002L196.25937 28.462502L198.57187 28.462502L198.57187 25.400002L200.72812 25.400002ZM213.18124 37.790627Q213.18124 36.9 212.50937 36.415627Q211.85312 35.93125 210.19687 35.5875Q208.55624 35.228127 207.5875 34.74375Q206.61874 34.24375 206.15 33.571877Q205.69687 32.884377 205.69687 31.946877Q205.69687 30.384377 207.00937 29.306252Q208.3375 28.228127 210.38437 28.228127Q212.54062 28.228127 213.88437 29.353127Q215.22812 30.462502 215.22812 32.196877L213.04062 32.196877Q213.04062 31.306252 212.29062 30.665627Q211.54062 30.009377 210.38437 30.009377Q209.19687 30.009377 208.525 30.525002Q207.86874 31.040627 207.86874 31.884377Q207.86874 32.665627 208.47812 33.071877Q209.10312 33.4625 210.72812 33.821877Q212.35312 34.18125 213.35312 34.696877Q214.36874 35.196877 214.85312 35.915627Q215.3375 36.61875 215.3375 37.634377Q215.3375 39.3375 213.97812 40.36875Q212.61874 41.384377 210.4625 41.384377Q208.93124 41.384377 207.75937 40.853127Q206.5875 40.30625 205.91562 39.3375Q205.25937 38.36875 205.25937 37.24375L207.43124 37.24375Q207.49374 38.3375 208.30624 38.978127Q209.11874 39.61875 210.4625 39.61875Q211.68124 39.61875 212.43124 39.11875Q213.18124 38.61875 213.18124 37.790627ZM229.16562 33.540627Q226.25937 32.7125 224.94687 31.509377Q223.63437 30.290627 223.63437 28.509377Q223.63437 26.493752 225.24374 25.181252Q226.85312 23.853127 229.43124 23.853127Q231.18124 23.853127 232.55624 24.540627Q233.94687 25.212502 234.69687 26.415627Q235.44687 27.603127 235.44687 29.025002L233.19687 29.025002Q233.19687 27.478127 232.2125 26.587502Q231.22812 25.696877 229.43124 25.696877Q227.75937 25.696877 226.82187 26.431252Q225.9 27.165627 225.9 28.462502Q225.9 29.509377 226.775 30.228127Q227.66562 30.946877 229.79062 31.556252Q231.93124 32.15 233.11874 32.86875Q234.32187 33.5875 234.9 34.55625Q235.49374 35.509377 235.49374 36.80625Q235.49374 38.884377 233.86874 40.134377Q232.25937 41.384377 229.54062 41.384377Q227.79062 41.384377 226.25937 40.7125Q224.74374 40.040627 223.91562 38.86875Q223.0875 37.696877 223.0875 36.196877L225.35312 36.196877Q225.35312 37.74375 226.49374 38.65Q227.63437 39.540627 229.54062 39.540627Q231.32187 39.540627 232.275 38.821877Q233.22812 38.0875 233.22812 36.8375Q233.22812 35.5875 232.3375 34.9Q231.4625 34.2125 229.16562 33.540627ZM243.05624 41.384377Q240.47812 41.384377 238.85312 39.696877Q237.24374 37.99375 237.24374 35.165627L237.24374 34.759377Q237.24374 32.86875 237.9625 31.400002Q238.68124 29.915627 239.97812 29.071877Q241.275 28.228127 242.79062 28.228127Q245.25937 28.228127 246.61874 29.868752Q247.99374 31.493752 247.99374 34.525L247.99374 35.43125L239.41562 35.43125Q239.4625 37.30625 240.50937 38.4625Q241.55624 39.61875 243.16562 39.61875Q244.32187 39.61875 245.11874 39.15Q245.91562 38.68125 246.50937 37.9L247.8375 38.93125Q246.24374 41.384377 243.05624 41.384377ZM242.79062 30.009377Q241.47812 30.009377 240.5875 30.978127Q239.69687 31.931252 239.47812 33.65L245.8375 33.65L245.8375 33.478127Q245.74374 31.837502 244.94687 30.931252Q244.15 30.009377 242.79062 30.009377ZM252.8375 28.462502L252.88437 29.868752Q254.29062 28.228127 256.65 28.228127Q259.30624 28.228127 260.275 30.275002Q260.9 29.353127 261.91562 28.790627Q262.93124 28.228127 264.32187 28.228127Q268.49374 28.228127 268.55624 32.65L268.55624 41.15L266.38437 41.15L266.38437 32.775Q266.38437 31.415627 265.75937 30.743752Q265.15 30.071877 263.68124 30.071877Q262.47812 30.071877 261.68124 30.790627Q260.88437 31.509377 260.75937 32.728127L260.75937 41.15L258.57187 41.15L258.57187 32.8375Q258.57187 30.071877 255.86874 30.071877Q253.72812 30.071877 252.94687 31.884377L252.94687 41.15L250.775 41.15L250.775 28.462502L252.8375 28.462502ZM279.61874 41.15Q279.43124 40.775 279.32187 39.80625Q277.80624 41.384377 275.7125 41.384377Q273.8375 41.384377 272.63437 40.321877Q271.43124 39.259377 271.43124 37.634377Q271.43124 35.65 272.93124 34.55625Q274.44687 33.4625 277.16562 33.4625L279.275 33.4625L279.275 32.4625Q279.275 31.321877 278.5875 30.650002Q277.91562 29.978127 276.60312 29.978127Q275.43124 29.978127 274.65 30.571877Q273.86874 31.150002 273.86874 31.978127L271.68124 31.978127Q271.68124 31.040627 272.35312 30.150002Q273.04062 29.259377 274.18124 28.743752Q275.3375 28.228127 276.72812 28.228127Q278.91562 28.228127 280.15 29.337502Q281.4 30.431252 281.44687 32.353127L281.44687 38.18125Q281.44687 39.93125 281.9 40.9625L281.9 41.15L279.61874 41.15ZM276.025 39.49375Q277.04062 39.49375 277.94687 38.978127Q278.86874 38.446877 279.275 37.603127L279.275 34.99375L277.5875 34.99375Q273.60312 34.99375 273.60312 37.321877Q273.60312 38.353127 274.275 38.93125Q274.9625 39.49375 276.025 39.49375ZM286.8375 28.462502L286.91562 30.056252Q288.36874 28.228127 290.7125 28.228127Q294.72812 28.228127 294.75937 32.775L294.75937 41.15L292.60312 41.15L292.60312 32.759377Q292.5875 31.384377 291.9625 30.728127Q291.35312 30.071877 290.05624 30.071877Q288.99374 30.071877 288.19687 30.634377Q287.4 31.196877 286.9625 32.11875L286.9625 41.15L284.79062 41.15L284.79062 28.462502L286.8375 28.462502ZM300.72812 25.400002L300.72812 28.462502L303.10312 28.462502L303.10312 30.150002L300.72812 30.150002L300.72812 38.009377Q300.72812 38.775 301.04062 39.15Q301.36874 39.525 302.13437 39.525Q302.50937 39.525 303.16562 39.384377L303.16562 41.15Q302.30624 41.384377 301.49374 41.384377Q300.04062 41.384377 299.30624 40.509377Q298.57187 39.61875 298.57187 38.009377L298.57187 30.150002L296.25937 30.150002L296.25937 28.462502L298.57187 28.462502L298.57187 25.400002L300.72812 25.400002ZM308.15 41.15L305.97812 41.15L305.97812 28.462502L308.15 28.462502L308.15 41.15ZM305.80624 25.103127Q305.80624 24.571877 306.11874 24.212502Q306.44687 23.853127 307.07187 23.853127Q307.7125 23.853127 308.04062 24.212502Q308.36874 24.571877 308.36874 25.103127Q308.36874 25.634377 308.04062 25.993752Q307.7125 26.337502 307.07187 26.337502Q306.44687 26.337502 306.11874 25.993752Q305.80624 25.634377 305.80624 25.103127ZM316.88437 39.61875Q318.04062 39.61875 318.9 38.915627Q319.775 38.2125 319.86874 37.15L321.91562 37.15Q321.85312 38.24375 321.16562 39.228127Q320.47812 40.2125 319.32187 40.80625Q318.16562 41.384377 316.88437 41.384377Q314.29062 41.384377 312.75937 39.665627Q311.22812 37.93125 311.22812 34.93125L311.22812 34.55625Q311.22812 32.7125 311.9 31.275002Q312.5875 29.821877 313.85312 29.025002Q315.13437 28.228127 316.86874 28.228127Q318.99374 28.228127 320.4 29.509377Q321.82187 30.790627 321.91562 32.821877L319.86874 32.821877Q319.775 31.603127 318.93124 30.806252Q318.10312 30.009377 316.86874 30.009377Q315.2125 30.009377 314.30624 31.212502Q313.4 32.4 313.4 34.65L313.4 35.05625Q313.4 37.24375 314.29062 38.43125Q315.19687 39.61875 316.88437 39.61875ZM334.80624 35.775L335.13437 38.025L335.61874 35.99375L338.99374 24.087502L340.9 24.087502L344.18124 35.99375L344.65 38.05625L345.025 35.759377L347.66562 24.087502L349.93124 24.087502L345.79062 41.15L343.74374 41.15L340.22812 28.712502L339.9625 27.415627L339.68124 28.712502L336.04062 41.15L333.99374 41.15L329.86874 24.087502L332.11874 24.087502L334.80624 35.775ZM357.05624 41.384377Q354.47812 41.384377 352.85312 39.696877Q351.24374 37.99375 351.24374 35.165627L351.24374 34.759377Q351.24374 32.86875 351.9625 31.400002Q352.68124 29.915627 353.97812 29.071877Q355.275 28.228127 356.79062 28.228127Q359.25937 28.228127 360.61874 29.868752Q361.99374 31.493752 361.99374 34.525L361.99374 35.43125L353.41562 35.43125Q353.4625 37.30625 354.50937 38.4625Q355.55624 39.61875 357.16562 39.61875Q358.32187 39.61875 359.11874 39.15Q359.91562 38.68125 360.50937 37.9L361.8375 38.93125Q360.24374 41.384377 357.05624 41.384377ZM356.79062 30.009377Q355.47812 30.009377 354.5875 30.978127Q353.69687 31.931252 353.47812 33.65L359.8375 33.65L359.8375 33.478127Q359.74374 31.837502 358.94687 30.931252Q358.15 30.009377 356.79062 30.009377ZM375.525 34.946877Q375.525 37.853127 374.18124 39.61875Q372.85312 41.384377 370.60312 41.384377Q368.19687 41.384377 366.88437 39.68125L366.79062 41.15L364.79062 41.15L364.79062 23.150002L366.9625 23.150002L366.9625 29.868752Q368.275 28.228127 370.57187 28.228127Q372.88437 28.228127 374.19687 29.978127Q375.525 31.728127 375.525 34.759377L375.525 34.946877ZM373.35312 34.696877Q373.35312 32.49375 372.49374 31.290627Q371.65 30.071877 370.04062 30.071877Q367.9 30.071877 366.9625 32.071877L366.9625 37.55625Q367.9625 39.540627 370.07187 39.540627Q371.61874 39.540627 372.47812 38.3375Q373.35312 37.134377 373.35312 34.696877ZM391.275 24.087502L393.54062 24.087502L393.54062 36.165627Q393.54062 38.61875 392.07187 40.009377Q390.60312 41.384377 388.15 41.384377Q385.60312 41.384377 384.18124 40.0875Q382.775 38.775 382.775 36.43125L385.025 36.43125Q385.025 37.9 385.82187 38.728127Q386.63437 39.540627 388.15 39.540627Q389.54062 39.540627 390.4 38.665627Q391.275 37.790627 391.275 36.196877L391.275 24.087502ZM396.2125 34.696877Q396.2125 32.821877 396.94687 31.337502Q397.68124 29.853127 398.97812 29.040627Q400.29062 28.228127 401.97812 28.228127Q404.55624 28.228127 406.15 30.025002Q407.75937 31.821877 407.75937 34.790627L407.75937 34.946877Q407.75937 36.80625 407.04062 38.275Q406.3375 39.74375 405.025 40.571877Q403.7125 41.384377 401.99374 41.384377Q399.41562 41.384377 397.80624 39.5875Q396.2125 37.790627 396.2125 34.8375L396.2125 34.696877ZM398.4 34.946877Q398.4 37.05625 399.36874 38.3375Q400.35312 39.61875 401.99374 39.61875Q403.65 39.61875 404.61874 38.321877Q405.5875 37.025 405.5875 34.696877Q405.5875 32.603127 404.60312 31.306252Q403.61874 30.009377 401.97812 30.009377Q400.36874 30.009377 399.38437 31.290627Q398.4 32.571877 398.4 34.946877ZM418.61874 39.9Q417.35312 41.384377 414.9 41.384377Q412.88437 41.384377 411.82187 40.2125Q410.75937 39.025 410.74374 36.7125L410.74374 28.462502L412.91562 28.462502L412.91562 36.665627Q412.91562 39.540627 415.25937 39.540627Q417.74374 39.540627 418.55624 37.696877L418.55624 28.462502L420.72812 28.462502L420.72812 41.15L418.66562 41.15L418.61874 39.9ZM429.91562 30.415627Q429.43124 30.337502 428.85312 30.337502Q426.72812 30.337502 425.9625 32.15L425.9625 41.15L423.79062 41.15L423.79062 28.462502L425.9 28.462502L425.93124 29.931252Q427.00937 28.228127 428.9625 28.228127Q429.5875 28.228127 429.91562 28.400002L429.91562 30.415627ZM433.8375 28.462502L433.91562 30.056252Q435.36874 28.228127 437.7125 28.228127Q441.72812 28.228127 441.75937 32.775L441.75937 41.15L439.60312 41.15L439.60312 32.759377Q439.5875 31.384377 438.9625 30.728127Q438.35312 30.071877 437.05624 30.071877Q435.99374 30.071877 435.19687 30.634377Q434.4 31.196877 433.9625 32.11875L433.9625 41.15L431.79062 41.15L431.79062 28.462502L433.8375 28.462502ZM452.61874 41.15Q452.43124 40.775 452.32187 39.80625Q450.80624 41.384377 448.7125 41.384377Q446.8375 41.384377 445.63437 40.321877Q444.43124 39.259377 444.43124 37.634377Q444.43124 35.65 445.93124 34.55625Q447.44687 33.4625 450.16562 33.4625L452.275 33.4625L452.275 32.4625Q452.275 31.321877 451.5875 30.650002Q450.91562 29.978127 449.60312 29.978127Q448.43124 29.978127 447.65 30.571877Q446.86874 31.150002 446.86874 31.978127L444.68124 31.978127Q444.68124 31.040627 445.35312 30.150002Q446.04062 29.259377 447.18124 28.743752Q448.3375 28.228127 449.72812 28.228127Q451.91562 28.228127 453.15 29.337502Q454.4 30.431252 454.44687 32.353127L454.44687 38.18125Q454.44687 39.93125 454.9 40.9625L454.9 41.15L452.61874 41.15ZM449.025 39.49375Q450.04062 39.49375 450.94687 38.978127Q451.86874 38.446877 452.275 37.603127L452.275 34.99375L450.5875 34.99375Q446.60312 34.99375 446.60312 37.321877Q446.60312 38.353127 447.275 38.93125Q447.9625 39.49375 449.025 39.49375ZM460.15 41.15L457.97812 41.15L457.97812 23.150002L460.15 23.150002L460.15 41.15Z" fill-rule="nonzero"/></svg>