<svg version="1.1" viewBox="0.0 0.0 1292.0 799.0" fill="none" stroke="none" stroke-linecap="square" stroke-miterlimit="10" width="1292" height="799" xmlns:xlink="http://www.w3.org/1999/xlink" xmlns="http://www.w3.org/2000/svg"><path fill="#ffffff" d="M0 0L1292.0 0L1292.0 799.0L0 799.0L0 0Z" fill-rule="nonzero"/><path stroke="#333333" stroke-width="1.0" stroke-linecap="butt" d="M277.5 39.5L277.5 673.5" fill-rule="nonzero"/><path stroke="#cccccc" stroke-width="1.0" stroke-linecap="butt" d="M521.5 39.5L521.5 673.5" fill-rule="nonzero"/><path stroke="#cccccc" stroke-width="1.0" stroke-linecap="butt" d="M765.5 39.5L765.5 673.5" fill-rule="nonzero"/><path stroke="#cccccc" stroke-width="1.0" stroke-linecap="butt" d="M1008.5 39.5L1008.5 673.5" fill-rule="nonzero"/><path stroke="#cccccc" stroke-width="1.0" stroke-linecap="butt" d="M1252.5 39.5L1252.5 673.5" fill-rule="nonzero"/><clipPath id="id_0"><path d="M277.95 39.95L1252.05 39.95L1252.05 673.05L277.95 673.05L277.95 39.95Z" clip-rule="nonzero"/></clipPath><path stroke="#000000" stroke-width="0.0" stroke-linecap="butt" stroke-opacity="0.0" clip-path="url(#id_0)" d="M278.0 74.0L278.0 52.0L444.0 52.0C445.10458 52.0 446.0 52.89543 446.0 54.0L446.0 72.0C446.0 73.10457 445.10458 74.0 444.0 74.0Z" fill-rule="nonzero"/><path fill="#4285f4" clip-path="url(#id_0)" d="M278.0 74.0L278.0 52.0L444.0 52.0C445.10458 52.0 446.0 52.89543 446.0 54.0L446.0 72.0C446.0 73.10457 445.10458 74.0 444.0 74.0Z" fill-rule="nonzero"/><path stroke="#000000" stroke-width="0.0" stroke-linecap="butt" stroke-opacity="0.0" clip-path="url(#id_0)" d="M278.0 109.0L278.0 87.0L578.0 87.0C579.10455 87.0 580.0 87.89543 580.0 89.0L580.0 107.0C580.0 108.10457 579.10455 109.0 578.0 109.0Z" fill-rule="nonzero"/><path fill="#4285f4" clip-path="url(#id_0)" d="M278.0 109.0L278.0 87.0L578.0 87.0C579.10455 87.0 580.0 87.89543 580.0 89.0L580.0 107.0C580.0 108.10457 579.10455 109.0 578.0 109.0Z" fill-rule="nonzero"/><path stroke="#000000" stroke-width="0.0" stroke-linecap="butt" stroke-opacity="0.0" clip-path="url(#id_0)" d="M278.0 143.0L278.0 121.0L511.0 121.0C512.10455 121.0 513.0 121.89543 513.0 123.0L513.0 141.0C513.0 142.10457 512.10455 143.0 511.0 143.0Z" fill-rule="nonzero"/><path fill="#4285f4" clip-path="url(#id_0)" d="M278.0 143.0L278.0 121.0L511.0 121.0C512.10455 121.0 513.0 121.89543 513.0 123.0L513.0 141.0C513.0 142.10457 512.10455 143.0 511.0 143.0Z" fill-rule="nonzero"/><path stroke="#000000" stroke-width="0.0" stroke-linecap="butt" stroke-opacity="0.0" clip-path="url(#id_0)" d="M278.0 178.0L278.0 156.0L343.0 156.0C344.10458 156.0 345.0 156.89543 345.0 158.0L345.0 176.0C345.0 177.10457 344.10458 178.0 343.0 178.0Z" fill-rule="nonzero"/><path fill="#4285f4" clip-path="url(#id_0)" d="M278.0 178.0L278.0 156.0L343.0 156.0C344.10458 156.0 345.0 156.89543 345.0 158.0L345.0 176.0C345.0 177.10457 344.10458 178.0 343.0 178.0Z" fill-rule="nonzero"/><path stroke="#000000" stroke-width="0.0" stroke-linecap="butt" stroke-opacity="0.0" clip-path="url(#id_0)" d="M278.0 212.0L278.0 190.0L511.0 190.0C512.10455 190.0 513.0 190.89543 513.0 192.0L513.0 210.0C513.0 211.10457 512.10455 212.0 511.0 212.0Z" fill-rule="nonzero"/><path fill="#4285f4" clip-path="url(#id_0)" d="M278.0 212.0L278.0 190.0L511.0 190.0C512.10455 190.0 513.0 190.89543 513.0 192.0L513.0 210.0C513.0 211.10457 512.10455 212.0 511.0 212.0Z" fill-rule="nonzero"/><path stroke="#000000" stroke-width="0.0" stroke-linecap="butt" stroke-opacity="0.0" clip-path="url(#id_0)" d="M278.0 247.0L278.0 225.0L310.0 225.0C311.10458 225.0 312.0 225.89543 312.0 227.0L312.0 245.0C312.0 246.10457 311.10458 247.0 310.0 247.0Z" fill-rule="nonzero"/><path fill="#4285f4" clip-path="url(#id_0)" d="M278.0 247.0L278.0 225.0L310.0 225.0C311.10458 225.0 312.0 225.89543 312.0 227.0L312.0 245.0C312.0 246.10457 311.10458 247.0 310.0 247.0Z" fill-rule="nonzero"/><path stroke="#000000" stroke-width="0.0" stroke-linecap="butt" stroke-opacity="0.0" clip-path="url(#id_0)" d="M278.0 281.0L278.0 259.0L881.0 259.0C882.10455 259.0 883.0 259.89542 883.0 261.0L883.0 279.0C883.0 280.10458 882.10455 281.0 881.0 281.0Z" fill-rule="nonzero"/><path fill="#4285f4" clip-path="url(#id_0)" d="M278.0 281.0L278.0 259.0L881.0 259.0C882.10455 259.0 883.0 259.89542 883.0 261.0L883.0 279.0C883.0 280.10458 882.10455 281.0 881.0 281.0Z" fill-rule="nonzero"/><path stroke="#000000" stroke-width="0.0" stroke-linecap="butt" stroke-opacity="0.0" clip-path="url(#id_0)" d="M278.0 316.0L278.0 294.0L813.0 294.0C814.10455 294.0 815.0 294.89542 815.0 296.0L815.0 314.0C815.0 315.10458 814.10455 316.0 813.0 316.0Z" fill-rule="nonzero"/><path fill="#4285f4" clip-path="url(#id_0)" d="M278.0 316.0L278.0 294.0L813.0 294.0C814.10455 294.0 815.0 294.89542 815.0 296.0L815.0 314.0C815.0 315.10458 814.10455 316.0 813.0 316.0Z" fill-rule="nonzero"/><path stroke="#000000" stroke-width="0.0" stroke-linecap="butt" stroke-opacity="0.0" clip-path="url(#id_0)" d="M278.0 350.0L278.0 328.0L511.0 328.0C512.10455 328.0 513.0 328.89542 513.0 330.0L513.0 348.0C513.0 349.10458 512.10455 350.0 511.0 350.0Z" fill-rule="nonzero"/><path fill="#4285f4" clip-path="url(#id_0)" d="M278.0 350.0L278.0 328.0L511.0 328.0C512.10455 328.0 513.0 328.89542 513.0 330.0L513.0 348.0C513.0 349.10458 512.10455 350.0 511.0 350.0Z" fill-rule="nonzero"/><path stroke="#000000" stroke-width="0.0" stroke-linecap="butt" stroke-opacity="0.0" clip-path="url(#id_0)" d="M278.0 385.0L278.0 363.0L578.0 363.0C579.10455 363.0 580.0 363.89542 580.0 365.0L580.0 383.0C580.0 384.10458 579.10455 385.0 578.0 385.0Z" fill-rule="nonzero"/><path fill="#4285f4" clip-path="url(#id_0)" d="M278.0 385.0L278.0 363.0L578.0 363.0C579.10455 363.0 580.0 363.89542 580.0 365.0L580.0 383.0C580.0 384.10458 579.10455 385.0 578.0 385.0Z" fill-rule="nonzero"/><path stroke="#000000" stroke-width="0.0" stroke-linecap="butt" stroke-opacity="0.0" clip-path="url(#id_0)" d="M278.0 419.0L278.0 397.0L1149.0 397.0C1150.1046 397.0 1151.0 397.89542 1151.0 399.0L1151.0 417.0C1151.0 418.10458 1150.1046 419.0 1149.0 419.0Z" fill-rule="nonzero"/><path fill="#4285f4" clip-path="url(#id_0)" d="M278.0 419.0L278.0 397.0L1149.0 397.0C1150.1046 397.0 1151.0 397.89542 1151.0 399.0L1151.0 417.0C1151.0 418.10458 1150.1046 419.0 1149.0 419.0Z" fill-rule="nonzero"/><path stroke="#000000" stroke-width="0.0" stroke-linecap="butt" stroke-opacity="0.0" clip-path="url(#id_0)" d="M278.0 454.0L278.0 432.0L444.0 432.0C445.10458 432.0 446.0 432.89542 446.0 434.0L446.0 452.0C446.0 453.10458 445.10458 454.0 444.0 454.0Z" fill-rule="nonzero"/><path fill="#4285f4" clip-path="url(#id_0)" d="M278.0 454.0L278.0 432.0L444.0 432.0C445.10458 432.0 446.0 432.89542 446.0 434.0L446.0 452.0C446.0 453.10458 445.10458 454.0 444.0 454.0Z" fill-rule="nonzero"/><path stroke="#000000" stroke-width="0.0" stroke-linecap="butt" stroke-opacity="0.0" clip-path="url(#id_0)" d="M278.0 488.0L278.0 466.0L278.0 466.0L278.0 488.0Z" fill-rule="nonzero"/><path fill="#4285f4" clip-path="url(#id_0)" d="M278.0 488.0L278.0 466.0L278.0 466.0L278.0 488.0Z" fill-rule="nonzero"/><path stroke="#000000" stroke-width="0.0" stroke-linecap="butt" stroke-opacity="0.0" clip-path="url(#id_0)" d="M278.0 523.0L278.0 501.0L278.0 501.0L278.0 523.0Z" fill-rule="nonzero"/><path fill="#4285f4" clip-path="url(#id_0)" d="M278.0 523.0L278.0 501.0L278.0 501.0L278.0 523.0Z" fill-rule="nonzero"/><path stroke="#000000" stroke-width="0.0" stroke-linecap="butt" stroke-opacity="0.0" clip-path="url(#id_0)" d="M278.0 557.0L278.0 535.0L377.0 535.0C378.10458 535.0 379.0 535.89545 379.0 537.0L379.0 555.0C379.0 556.10455 378.10458 557.0 377.0 557.0Z" fill-rule="nonzero"/><path fill="#4285f4" clip-path="url(#id_0)" d="M278.0 557.0L278.0 535.0L377.0 535.0C378.10458 535.0 379.0 535.89545 379.0 537.0L379.0 555.0C379.0 556.10455 378.10458 557.0 377.0 557.0Z" fill-rule="nonzero"/><path stroke="#000000" stroke-width="0.0" stroke-linecap="butt" stroke-opacity="0.0" clip-path="url(#id_0)" d="M278.0 592.0L278.0 570.0L545.0 570.0C546.10455 570.0 547.0 570.89545 547.0 572.0L547.0 590.0C547.0 591.10455 546.10455 592.0 545.0 592.0Z" fill-rule="nonzero"/><path fill="#4285f4" clip-path="url(#id_0)" d="M278.0 592.0L278.0 570.0L545.0 570.0C546.10455 570.0 547.0 570.89545 547.0 572.0L547.0 590.0C547.0 591.10455 546.10455 592.0 545.0 592.0Z" fill-rule="nonzero"/><path stroke="#000000" stroke-width="0.0" stroke-linecap="butt" stroke-opacity="0.0" clip-path="url(#id_0)" d="M278.0 626.0L278.0 604.0L343.0 604.0C344.10458 604.0 345.0 604.89545 345.0 606.0L345.0 624.0C345.0 625.10455 344.10458 626.0 343.0 626.0Z" fill-rule="nonzero"/><path fill="#4285f4" clip-path="url(#id_0)" d="M278.0 626.0L278.0 604.0L343.0 604.0C344.10458 604.0 345.0 604.89545 345.0 606.0L345.0 624.0C345.0 625.10455 344.10458 626.0 343.0 626.0Z" fill-rule="nonzero"/><path stroke="#000000" stroke-width="0.0" stroke-linecap="butt" stroke-opacity="0.0" clip-path="url(#id_0)" d="M278.0 661.0L278.0 639.0L511.0 639.0C512.10455 639.0 513.0 639.89545 513.0 641.0L513.0 659.0C513.0 660.10455 512.10455 661.0 511.0 661.0Z" fill-rule="nonzero"/><path fill="#4285f4" clip-path="url(#id_0)" d="M278.0 661.0L278.0 639.0L511.0 639.0C512.10455 639.0 513.0 639.89545 513.0 641.0L513.0 659.0C513.0 660.10455 512.10455 661.0 511.0 661.0Z" fill-rule="nonzero"/><path fill="#424242" d="M726.40625 748.59686L719.25 748.59686L717.65625 753.05L715.3281 753.05L721.84375 735.9875L723.8125 735.9875L730.34375 753.05L728.03125 753.05L726.40625 748.59686ZM719.9375 746.7375L725.7344 746.7375L722.8281 738.76874L719.9375 746.7375ZM737.7344 751.51874Q738.8906 751.51874 739.75 750.8156Q740.625 750.1125 740.71875 749.05L742.7656 749.05Q742.7031 750.14374 742.0156 751.1281Q741.3281 752.1125 740.1719 752.70624Q739.0156 753.28436 737.7344 753.28436Q735.1406 753.28436 733.6094 751.5656Q732.0781 749.83124 732.0781 746.83124L732.0781 746.45624Q732.0781 744.6125 732.75 743.175Q733.4375 741.72186 734.7031 740.925Q735.9844 740.1281 737.71875 740.1281Q739.84375 740.1281 741.25 741.40936Q742.6719 742.6906 742.7656 744.72186L740.71875 744.72186Q740.625 743.5031 739.78125 742.70624Q738.9531 741.90936 737.71875 741.90936Q736.0625 741.90936 735.15625 743.1125Q734.25 744.3 734.25 746.55L734.25 746.95624Q734.25 749.14374 735.1406 750.33124Q736.0469 751.51874 737.7344 751.51874ZM750.7344 751.51874Q751.8906 751.51874 752.75 750.8156Q753.625 750.1125 753.71875 749.05L755.7656 749.05Q755.7031 750.14374 755.0156 751.1281Q754.3281 752.1125 753.1719 752.70624Q752.0156 753.28436 750.7344 753.28436Q748.1406 753.28436 746.6094 751.5656Q745.0781 749.83124 745.0781 746.83124L745.0781 746.45624Q745.0781 744.6125 745.75 743.175Q746.4375 741.72186 747.7031 740.925Q748.9844 740.1281 750.71875 740.1281Q752.84375 740.1281 754.25 741.40936Q755.6719 742.6906 755.7656 744.72186L753.71875 744.72186Q753.625 743.5031 752.78125 742.70624Q751.9531 741.90936 750.71875 741.90936Q749.0625 741.90936 748.15625 743.1125Q747.25 744.3 747.25 746.55L747.25 746.95624Q747.25 749.14374 748.1406 750.33124Q749.0469 751.51874 750.7344 751.51874ZM766.46875 751.8Q765.2031 753.28436 762.75 753.28436Q760.7344 753.28436 759.6719 752.1125Q758.6094 750.925 758.59375 748.6125L758.59375 740.3625L760.7656 740.3625L760.7656 748.5656Q760.7656 751.4406 763.1094 751.4406Q765.59375 751.4406 766.40625 749.59686L766.40625 740.3625L768.5781 740.3625L768.5781 753.05L766.5156 753.05L766.46875 751.8ZM777.7656 742.3156Q777.28125 742.2375 776.7031 742.2375Q774.5781 742.2375 773.8125 744.05L773.8125 753.05L771.6406 753.05L771.6406 740.3625L773.75 740.3625L773.78125 741.83124Q774.8594 740.1281 776.8125 740.1281Q777.4375 740.1281 777.7656 740.3L777.7656 742.3156ZM787.46875 753.05Q787.28125 752.675 787.1719 751.70624Q785.65625 753.28436 783.5625 753.28436Q781.6875 753.28436 780.4844 752.22186Q779.28125 751.15936 779.28125 749.53436Q779.28125 747.55 780.78125 746.45624Q782.2969 745.3625 785.0156 745.3625L787.125 745.3625L787.125 744.3625Q787.125 743.22186 786.4375 742.55Q785.7656 741.8781 784.4531 741.8781Q783.28125 741.8781 782.5 742.47186Q781.71875 743.05 781.71875 743.8781L779.53125 743.8781Q779.53125 742.9406 780.2031 742.05Q780.8906 741.15936 782.03125 740.64374Q783.1875 740.1281 784.5781 740.1281Q786.7656 740.1281 788.0 741.2375Q789.25 742.33124 789.2969 744.2531L789.2969 750.08124Q789.2969 751.83124 789.75 752.8625L789.75 753.05L787.46875 753.05ZM783.875 751.39374Q784.8906 751.39374 785.7969 750.8781Q786.71875 750.34686 787.125 749.5031L787.125 746.89374L785.4375 746.89374Q781.4531 746.89374 781.4531 749.22186Q781.4531 750.2531 782.125 750.83124Q782.8125 751.39374 783.875 751.39374ZM797.7344 751.51874Q798.8906 751.51874 799.75 750.8156Q800.625 750.1125 800.71875 749.05L802.7656 749.05Q802.7031 750.14374 802.0156 751.1281Q801.3281 752.1125 800.1719 752.70624Q799.0156 753.28436 797.7344 753.28436Q795.1406 753.28436 793.6094 751.5656Q792.0781 749.83124 792.0781 746.83124L792.0781 746.45624Q792.0781 744.6125 792.75 743.175Q793.4375 741.72186 794.7031 740.925Q795.9844 740.1281 797.71875 740.1281Q799.84375 740.1281 801.25 741.40936Q802.6719 742.6906 802.7656 744.72186L800.71875 744.72186Q800.625 743.5031 799.78125 742.70624Q798.9531 741.90936 797.71875 741.90936Q796.0625 741.90936 795.15625 743.1125Q794.25 744.3 794.25 746.55L794.25 746.95624Q794.25 749.14374 795.1406 750.33124Q796.0469 751.51874 797.7344 751.51874ZM809.7969 749.8781L812.75 740.3625L815.0625 740.3625L809.96875 755.0031Q808.78125 758.175 806.2031 758.175L805.7969 758.14374L804.9844 757.9875L804.9844 756.22186L805.5781 756.26874Q806.6719 756.26874 807.28125 755.8156Q807.90625 755.3781 808.2969 754.20624L808.78125 752.90936L804.2656 740.3625L806.625 740.3625L809.7969 749.8781Z" fill-rule="nonzero"/><path fill="#424242" d="M45.88749 403.60938L59.809364 398.03125L45.88749 392.45312L45.88749 389.53125L62.94999 389.53125L62.94999 391.78125L56.309364 391.78125L49.13749 391.57812L62.94999 397.17188L62.94999 398.90625L49.16874 404.48438L56.309364 404.26562L62.94999 404.26562L62.94999 406.51562L45.88749 406.51562L45.88749 403.60938ZM63.184364 380.59375Q63.184364 383.17188 61.496864 384.79688Q59.79374 386.40625 56.965614 386.40625L56.559364 386.40625Q54.66874 386.40625 53.19999 385.6875Q51.715614 384.96875 50.871864 383.67188Q50.028114 382.375 50.028114 380.85938Q50.028114 378.39062 51.66874 377.03125Q53.29374 375.65625 56.32499 375.65625L57.23124 375.65625L57.23124 384.23438Q59.10624 384.1875 60.26249 383.14062Q61.41874 382.09375 61.41874 380.48438Q61.41874 379.32812 60.94999 378.53125Q60.48124 377.73438 59.69999 377.14062L60.73124 375.8125Q63.184364 377.40625 63.184364 380.59375ZM51.809364 380.85938Q51.809364 382.17188 52.778114 383.0625Q53.73124 383.95312 55.44999 384.17188L55.44999 377.8125L55.278114 377.8125Q53.63749 377.90625 52.73124 378.70312Q51.809364 379.5 51.809364 380.85938ZM47.19999 369.92188L50.26249 369.92188L50.26249 367.54688L51.94999 367.54688L51.94999 369.92188L59.809364 369.92188Q60.57499 369.92188 60.94999 369.60938Q61.32499 369.28125 61.32499 368.51562Q61.32499 368.14062 61.184364 367.48438L62.94999 367.48438Q63.184364 368.34375 63.184364 369.15625Q63.184364 370.60938 62.309364 371.34375Q61.41874 372.07812 59.809364 372.07812L51.94999 372.07812L51.94999 374.39062L50.26249 374.39062L50.26249 372.07812L47.19999 372.07812L47.19999 369.92188ZM51.809364 362.6875Q50.028114 361.25 50.028114 358.9375Q50.028114 354.92188 54.57499 354.89062L62.94999 354.89062L62.94999 357.04688L54.559364 357.04688Q53.184364 357.0625 52.528114 357.6875Q51.871864 358.29688 51.871864 359.59375Q51.871864 360.65625 52.434364 361.45312Q52.996864 362.25 53.91874 362.6875L62.94999 362.6875L62.94999 364.85938L44.94999 364.85938L44.94999 362.6875L51.809364 362.6875ZM56.496864 352.4375Q54.621864 352.4375 53.13749 351.70312Q51.653114 350.96875 50.840614 349.67188Q50.028114 348.35938 50.028114 346.67188Q50.028114 344.09375 51.82499 342.5Q53.621864 340.89062 56.590614 340.89062L56.746864 340.89062Q58.60624 340.89062 60.07499 341.60938Q61.54374 342.3125 62.371864 343.625Q63.184364 344.9375 63.184364 346.65625Q63.184364 349.23438 61.38749 350.84375Q59.590614 352.4375 56.63749 352.4375L56.496864 352.4375ZM56.746864 350.25Q58.85624 350.25 60.13749 349.28125Q61.41874 348.29688 61.41874 346.65625Q61.41874 345.0 60.121864 344.03125Q58.82499 343.0625 56.496864 343.0625Q54.403114 343.0625 53.10624 344.04688Q51.809364 345.03125 51.809364 346.67188Q51.809364 348.28125 53.090614 349.26562Q54.371864 350.25 56.746864 350.25ZM56.496864 338.39062Q53.590614 338.39062 51.809364 337.01562Q50.028114 335.625 50.028114 333.375Q50.028114 331.15625 51.559364 329.85938L44.94999 329.85938L44.94999 327.6875L62.94999 327.6875L62.94999 329.67188L61.590614 329.78125Q63.184364 331.07812 63.184364 333.40625Q63.184364 335.60938 61.38749 337.0Q59.57499 338.39062 56.66874 338.39062L56.496864 338.39062ZM56.746864 336.21875Q58.903114 336.21875 60.121864 335.32812Q61.340614 334.4375 61.340614 332.85938Q61.340614 330.79688 59.496864 329.85938L53.66874 329.85938Q51.871864 330.82812 51.871864 332.84375Q51.871864 334.4375 53.10624 335.32812Q54.340614 336.21875 56.746864 336.21875Z" fill-rule="nonzero"/><path fill="#757575" d="M120.54375 63.58217Q120.54375 65.67592 119.84062 67.23842Q119.1375 68.78529 117.84062 69.61342Q116.55937 70.44154 114.84062 70.44154Q113.15312 70.44154 111.85625 69.61342Q110.55937 68.78529 109.84062 67.25404Q109.12187 65.72279 109.10625 63.70717L109.10625 62.691544Q109.10625 60.64467 109.80937 59.066544Q110.52812 57.48842 111.825 56.660294Q113.1375 55.816544 114.80937 55.816544Q116.52812 55.816544 117.825 56.64467Q119.1375 57.472794 119.84062 59.05092Q120.54375 60.61342 120.54375 62.691544L120.54375 63.58217ZM118.66875 62.67592Q118.66875 60.14467 117.65312 58.80092Q116.6375 57.441544 114.80937 57.441544Q113.04375 57.441544 112.0125 58.80092Q110.99687 60.14467 110.96562 62.535294L110.96562 63.58217Q110.96562 66.03529 111.99687 67.44154Q113.02812 68.84779 114.84062 68.84779Q116.65312 68.84779 117.6375 67.51967Q118.6375 66.19154 118.66875 63.722794L118.66875 62.67592ZM125.48125 64.67592L125.48125 70.23842L123.60625 70.23842L123.60625 56.01967L128.84062 56.01967Q131.18437 56.01967 132.49687 57.20717Q133.825 58.39467 133.825 60.36342Q133.825 62.441544 132.52812 63.566544Q131.23125 64.67592 128.825 64.67592L125.48125 64.67592ZM125.48125 63.14467L128.84062 63.14467Q130.35625 63.14467 131.15312 62.441544Q131.95 61.722794 131.95 60.379044Q131.95 59.11342 131.15312 58.36342Q130.35625 57.597794 128.95 57.566544L125.48125 57.566544L125.48125 63.14467ZM138.60625 70.23842L136.73125 70.23842L136.73125 56.01967L138.60625 56.01967L138.60625 70.23842ZM152.52812 70.23842L150.6375 70.23842L143.48125 59.285294L143.48125 70.23842L141.60625 70.23842L141.60625 56.01967L143.48125 56.01967L150.66875 67.01967L150.66875 56.01967L152.52812 56.01967L152.52812 70.23842ZM157.60625 70.23842L155.73125 70.23842L155.73125 56.01967L157.60625 56.01967L157.60625 70.23842ZM171.54375 63.58217Q171.54375 65.67592 170.84062 67.23842Q170.1375 68.78529 168.84062 69.61342Q167.55937 70.44154 165.84062 70.44154Q164.15312 70.44154 162.85625 69.61342Q161.55937 68.78529 160.84062 67.25404Q160.12187 65.72279 160.10625 63.70717L160.10625 62.691544Q160.10625 60.64467 160.80937 59.066544Q161.52812 57.48842 162.825 56.660294Q164.1375 55.816544 165.80937 55.816544Q167.52812 55.816544 168.825 56.64467Q170.1375 57.472794 170.84062 59.05092Q171.54375 60.61342 171.54375 62.691544L171.54375 63.58217ZM169.66875 62.67592Q169.66875 60.14467 168.65312 58.80092Q167.6375 57.441544 165.80937 57.441544Q164.04375 57.441544 163.0125 58.80092Q161.99687 60.14467 161.96562 62.535294L161.96562 63.58217Q161.96562 66.03529 162.99687 67.44154Q164.02812 68.84779 165.84062 68.84779Q167.65312 68.84779 168.6375 67.51967Q169.6375 66.19154 169.66875 63.722794L169.66875 62.67592ZM185.52812 70.23842L183.6375 70.23842L176.48125 59.285294L176.48125 70.23842L174.60625 70.23842L174.60625 56.01967L176.48125 56.01967L183.66875 67.01967L183.66875 56.01967L185.52812 56.01967L185.52812 70.23842ZM190.48125 68.70717L197.23125 68.70717L197.23125 70.23842L188.60625 70.23842L188.60625 56.01967L190.48125 56.01967L190.48125 68.70717ZM207.6375 63.660294L201.48125 63.660294L201.48125 68.70717L208.6375 68.70717L208.6375 70.23842L199.60625 70.23842L199.60625 56.01967L208.54375 56.01967L208.54375 57.566544L201.48125 57.566544L201.48125 62.129044L207.6375 62.129044L207.6375 63.660294ZM215.24687 61.472794L218.65312 56.01967L220.85625 56.01967L216.35625 63.066544L220.96562 70.23842L218.73125 70.23842L215.24687 64.69154L211.73125 70.23842L209.5125 70.23842L214.12187 63.066544L209.62187 56.01967L211.80937 56.01967L215.24687 61.472794ZM225.60625 70.23842L223.73125 70.23842L223.73125 56.01967L225.60625 56.01967L225.60625 70.23842ZM239.05937 65.72279Q238.79375 67.98842 237.3875 69.22279Q235.99687 70.44154 233.66875 70.44154Q231.15312 70.44154 229.62187 68.62904Q228.10625 66.81654 228.10625 63.785294L228.10625 62.42592Q228.10625 60.441544 228.80937 58.941544Q229.52812 57.441544 230.825 56.629044Q232.12187 55.816544 233.84062 55.816544Q236.10625 55.816544 237.46562 57.08217Q238.84062 58.347794 239.05937 60.58217L237.16875 60.58217Q236.93437 58.89467 236.10625 58.129044Q235.29375 57.36342 233.84062 57.36342Q232.04375 57.36342 231.0125 58.691544Q229.99687 60.01967 229.99687 62.472794L229.99687 63.847794Q229.99687 66.16029 230.96562 67.53529Q231.93437 68.89467 233.66875 68.89467Q235.23125 68.89467 236.05937 68.19154Q236.90312 67.48842 237.16875 65.72279L239.05937 65.72279ZM252.54375 63.58217Q252.54375 65.67592 251.84062 67.23842Q251.1375 68.78529 249.84062 69.61342Q248.55937 70.44154 246.84062 70.44154Q245.15312 70.44154 243.85625 69.61342Q242.55937 68.78529 241.84062 67.25404Q241.12187 65.72279 241.10625 63.70717L241.10625 62.691544Q241.10625 60.64467 241.80937 59.066544Q242.52812 57.48842 243.825 56.660294Q245.1375 55.816544 246.80937 55.816544Q248.52812 55.816544 249.825 56.64467Q251.1375 57.472794 251.84062 59.05092Q252.54375 60.61342 252.54375 62.691544L252.54375 63.58217ZM250.66875 62.67592Q250.66875 60.14467 249.65312 58.80092Q248.6375 57.441544 246.80937 57.441544Q245.04375 57.441544 244.0125 58.80092Q242.99687 60.14467 242.96562 62.535294L242.96562 63.58217Q242.96562 66.03529 243.99687 67.44154Q245.02812 68.84779 246.84062 68.84779Q248.65312 68.84779 249.6375 67.51967Q250.6375 66.19154 250.66875 63.722794L250.66875 62.67592ZM266.52814 70.23842L264.6375 70.23842L257.48126 59.285294L257.48126 70.23842L255.60625 70.23842L255.60625 56.01967L257.48126 56.01967L264.66876 67.01967L264.66876 56.01967L266.52814 56.01967L266.52814 70.23842Z" fill-rule="nonzero"/><path fill="#757575" d="M118.79375 98.396034Q116.37187 97.708534 115.27812 96.708534Q114.18437 95.69291 114.18437 94.208534Q114.18437 92.521034 115.52812 91.427284Q116.87187 90.31791 119.0125 90.31791Q120.48125 90.31791 121.62187 90.896034Q122.77812 91.458534 123.40312 92.458534Q124.02812 93.44291 124.02812 94.63041L122.15312 94.63041Q122.15312 93.34916 121.325 92.614784Q120.5125 91.864784 119.0125 91.864784Q117.62187 91.864784 116.84062 92.47416Q116.075 93.083534 116.075 94.177284Q116.075 95.03666 116.80937 95.646034Q117.54375 96.239784 119.30937 96.739784Q121.09062 97.239784 122.09062 97.84916Q123.09062 98.44291 123.575 99.239784Q124.05937 100.03666 124.05937 101.13041Q124.05937 102.84916 122.71562 103.896034Q121.37187 104.94291 119.10625 104.94291Q117.65312 104.94291 116.37187 104.38041Q115.10625 103.81791 114.41875 102.84916Q113.73125 101.864784 113.73125 100.614784L115.62187 100.614784Q115.62187 101.91166 116.575 102.66166Q117.52812 103.396034 119.10625 103.396034Q120.59062 103.396034 121.3875 102.802284Q122.18437 102.19291 122.18437 101.146034Q122.18437 100.09916 121.45 99.53666Q120.71562 98.958534 118.79375 98.396034ZM134.6375 98.16166L128.48125 98.16166L128.48125 103.208534L135.6375 103.208534L135.6375 104.739784L126.60625 104.739784L126.60625 90.521034L135.54375 90.521034L135.54375 92.06791L128.48125 92.06791L128.48125 96.63041L134.6375 96.63041L134.6375 98.16166ZM148.52812 104.739784L146.6375 104.739784L139.48125 93.78666L139.48125 104.739784L137.60625 104.739784L137.60625 90.521034L139.48125 90.521034L146.66875 101.521034L146.66875 90.521034L148.52812 90.521034L148.52812 104.739784ZM161.41875 92.06791L156.85625 92.06791L156.85625 104.739784L154.99687 104.739784L154.99687 92.06791L150.43437 92.06791L150.43437 90.521034L161.41875 90.521034L161.41875 92.06791ZM165.60625 104.739784L163.73125 104.739784L163.73125 90.521034L165.60625 90.521034L165.60625 104.739784ZM172.79375 98.396034Q170.37187 97.708534 169.27812 96.708534Q168.18437 95.69291 168.18437 94.208534Q168.18437 92.521034 169.52812 91.427284Q170.87187 90.31791 173.0125 90.31791Q174.48125 90.31791 175.62187 90.896034Q176.77812 91.458534 177.40312 92.458534Q178.02812 93.44291 178.02812 94.63041L176.15312 94.63041Q176.15312 93.34916 175.325 92.614784Q174.5125 91.864784 173.0125 91.864784Q171.62187 91.864784 170.84062 92.47416Q170.075 93.083534 170.075 94.177284Q170.075 95.03666 170.80937 95.646034Q171.54375 96.239784 173.30937 96.739784Q175.09062 97.239784 176.09062 97.84916Q177.09062 98.44291 177.575 99.239784Q178.05937 100.03666 178.05937 101.13041Q178.05937 102.84916 176.71562 103.896034Q175.37187 104.94291 173.10625 104.94291Q171.65312 104.94291 170.37187 104.38041Q169.10625 103.81791 168.41875 102.84916Q167.73125 101.864784 167.73125 100.614784L169.62187 100.614784Q169.62187 101.91166 170.575 102.66166Q171.52812 103.396034 173.10625 103.396034Q174.59062 103.396034 175.3875 102.802284Q176.18437 102.19291 176.18437 101.146034Q176.18437 100.09916 175.45 99.53666Q174.71562 98.958534 172.79375 98.396034ZM190.41875 92.06791L185.85625 92.06791L185.85625 104.739784L183.99687 104.739784L183.99687 92.06791L179.43437 92.06791L179.43437 90.521034L190.41875 90.521034L190.41875 92.06791ZM197.80937 98.989784L194.48125 98.989784L194.48125 104.739784L192.59062 104.739784L192.59062 90.521034L197.29375 90.521034Q199.7 90.521034 200.99687 91.614784Q202.29375 92.708534 202.29375 94.802284Q202.29375 96.13041 201.575 97.114784Q200.85625 98.09916 199.575 98.583534L202.91875 104.614784L202.91875 104.739784L200.90312 104.739784L197.80937 98.989784ZM194.48125 97.458534L197.35625 97.458534Q198.74687 97.458534 199.575 96.739784Q200.40312 96.00541 200.40312 94.802284Q200.40312 93.47416 199.60625 92.771034Q198.825 92.06791 197.34062 92.06791L194.48125 92.06791L194.48125 97.458534ZM212.6375 98.16166L206.48125 98.16166L206.48125 103.208534L213.6375 103.208534L213.6375 104.739784L204.60625 104.739784L204.60625 90.521034L213.54375 90.521034L213.54375 92.06791L206.48125 92.06791L206.48125 96.63041L212.6375 96.63041L212.6375 98.16166ZM226.52812 104.739784L224.6375 104.739784L217.48125 93.78666L217.48125 104.739784L215.60625 104.739784L215.60625 90.521034L217.48125 90.521034L224.66875 101.521034L224.66875 90.521034L226.52812 90.521034L226.52812 104.739784ZM240.10625 102.88041Q239.37187 103.91166 238.075 104.427284Q236.79375 104.94291 235.075 104.94291Q233.325 104.94291 231.98125 104.13041Q230.6375 103.302284 229.90312 101.802284Q229.16875 100.302284 229.1375 98.31791L229.1375 97.06791Q229.1375 93.864784 230.6375 92.09916Q232.1375 90.31791 234.85625 90.31791Q237.075 90.31791 238.43437 91.458534Q239.79375 92.59916 240.10625 94.69291L238.23125 94.69291Q237.7 91.864784 234.87187 91.864784Q232.98125 91.864784 232.0125 93.19291Q231.04375 94.521034 231.02812 97.021034L231.02812 98.19291Q231.02812 100.583534 232.12187 101.989784Q233.21562 103.396034 235.075 103.396034Q236.1375 103.396034 236.91875 103.16166Q237.71562 102.927284 238.23125 102.38041L238.23125 99.177284L234.95 99.177284L234.95 97.66166L240.10625 97.66166L240.10625 102.88041ZM253.41875 92.06791L248.85625 92.06791L248.85625 104.739784L246.99687 104.739784L246.99687 92.06791L242.43437 92.06791L242.43437 90.521034L253.41875 90.521034L253.41875 92.06791ZM266.52814 104.739784L264.6375 104.739784L264.6375 98.16166L257.48126 98.16166L257.48126 104.739784L255.60625 104.739784L255.60625 90.521034L257.48126 90.521034L257.48126 96.63041L264.6375 96.63041L264.6375 90.521034L266.52814 90.521034L266.52814 104.739784Z" fill-rule="nonzero"/><path fill="#757575" d="M210.79375 132.8974Q208.37187 132.2099 207.27812 131.2099Q206.18437 130.19427 206.18437 128.7099Q206.18437 127.0224 207.52812 125.92865Q208.87187 124.819275 211.0125 124.819275Q212.48125 124.819275 213.62187 125.3974Q214.77812 125.9599 215.40312 126.9599Q216.02812 127.944275 216.02812 129.13177L214.15312 129.13177Q214.15312 127.850525 213.325 127.11615Q212.5125 126.36615 211.0125 126.36615Q209.62187 126.36615 208.84062 126.975525Q208.075 127.5849 208.075 128.67865Q208.075 129.53802 208.80937 130.1474Q209.54375 130.74115 211.30937 131.24115Q213.09062 131.74115 214.09062 132.35052Q215.09062 132.94427 215.575 133.74115Q216.05937 134.53802 216.05937 135.63177Q216.05937 137.35052 214.71562 138.3974Q213.37187 139.44427 211.10625 139.44427Q209.65312 139.44427 208.37187 138.88177Q207.10625 138.31927 206.41875 137.35052Q205.73125 136.36615 205.73125 135.11615L207.62187 135.11615Q207.62187 136.41302 208.575 137.16302Q209.52812 137.8974 211.10625 137.8974Q212.59062 137.8974 213.3875 137.30365Q214.18437 136.69427 214.18437 135.6474Q214.18437 134.60052 213.45 134.03802Q212.71562 133.4599 210.79375 132.8974ZM229.54375 132.5849Q229.54375 134.67865 228.84062 136.24115Q228.1375 137.78802 226.84062 138.61615Q225.55937 139.44427 223.84062 139.44427Q222.15312 139.44427 220.85625 138.61615Q219.55937 137.78802 218.84062 136.25677Q218.12187 134.72552 218.10625 132.7099L218.10625 131.69427Q218.10625 129.6474 218.80937 128.06927Q219.52812 126.49115 220.825 125.663025Q222.1375 124.819275 223.80937 124.819275Q225.52812 124.819275 226.825 125.6474Q228.1375 126.475525 228.84062 128.05365Q229.54375 129.61615 229.54375 131.69427L229.54375 132.5849ZM227.66875 131.67865Q227.66875 129.1474 226.65312 127.80365Q225.6375 126.444275 223.80937 126.444275Q222.04375 126.444275 221.0125 127.80365Q219.99687 129.1474 219.96562 131.53802L219.96562 132.5849Q219.96562 135.03802 220.99687 136.44427Q222.02812 137.85052 223.84062 137.85052Q225.65312 137.85052 226.6375 136.5224Q227.6375 135.19427 227.66875 132.72552L227.66875 131.67865ZM243.05937 134.72552Q242.79375 136.99115 241.3875 138.22552Q239.99687 139.44427 237.66875 139.44427Q235.15312 139.44427 233.62187 137.63177Q232.10625 135.81927 232.10625 132.78802L232.10625 131.42865Q232.10625 129.44427 232.80937 127.944275Q233.52812 126.444275 234.825 125.631775Q236.12187 124.819275 237.84062 124.819275Q240.10625 124.819275 241.46562 126.0849Q242.84062 127.350525 243.05937 129.5849L241.16875 129.5849Q240.93437 127.8974 240.10625 127.131775Q239.29375 126.36615 237.84062 126.36615Q236.04375 126.36615 235.0125 127.694275Q233.99687 129.0224 233.99687 131.47552L233.99687 132.85052Q233.99687 135.16302 234.96562 136.53802Q235.93437 137.8974 237.66875 137.8974Q239.23125 137.8974 240.05937 137.19427Q240.90312 136.49115 241.16875 134.72552L243.05937 134.72552ZM253.45 135.5224L247.49687 135.5224L246.15312 139.24115L244.23125 139.24115L249.65312 125.0224L251.29375 125.0224L256.73126 139.24115L254.80937 139.24115L253.45 135.5224ZM248.05937 133.99115L252.90312 133.99115L250.48125 127.3349L248.05937 133.99115ZM260.48126 137.7099L267.23126 137.7099L267.23126 139.24115L258.60626 139.24115L258.60626 125.0224L260.48126 125.0224L260.48126 137.7099Z" fill-rule="nonzero"/><path fill="#757575" d="M117.52812 173.74251L115.6375 173.74251L115.6375 167.16438L108.48125 167.16438L108.48125 173.74251L106.60625 173.74251L106.60625 159.52376L108.48125 159.52376L108.48125 165.63313L115.6375 165.63313L115.6375 159.52376L117.52812 159.52376L117.52812 173.74251ZM128.45 170.02376L122.49687 170.02376L121.15312 173.74251L119.23125 173.74251L124.65312 159.52376L126.29375 159.52376L131.73125 173.74251L129.80937 173.74251L128.45 170.02376ZM123.05937 168.49251L127.90312 168.49251L125.48125 161.83626L123.05937 168.49251ZM135.48125 168.18001L135.48125 173.74251L133.60625 173.74251L133.60625 159.52376L138.84062 159.52376Q141.18437 159.52376 142.49687 160.71126Q143.825 161.89876 143.825 163.86751Q143.825 165.94563 142.52812 167.07063Q141.23125 168.18001 138.825 168.18001L135.48125 168.18001ZM135.48125 166.64876L138.84062 166.64876Q140.35625 166.64876 141.15312 165.94563Q141.95 165.22688 141.95 163.88313Q141.95 162.61751 141.15312 161.86751Q140.35625 161.10188 138.95 161.07063L135.48125 161.07063L135.48125 166.64876ZM148.48125 168.18001L148.48125 173.74251L146.60625 173.74251L146.60625 159.52376L151.84062 159.52376Q154.18437 159.52376 155.49687 160.71126Q156.825 161.89876 156.825 163.86751Q156.825 165.94563 155.52812 167.07063Q154.23125 168.18001 151.825 168.18001L148.48125 168.18001ZM148.48125 166.64876L151.84062 166.64876Q153.35625 166.64876 154.15312 165.94563Q154.95 165.22688 154.95 163.88313Q154.95 162.61751 154.15312 161.86751Q153.35625 161.10188 151.95 161.07063L148.48125 161.07063L148.48125 166.64876ZM161.60625 173.74251L159.73125 173.74251L159.73125 159.52376L161.60625 159.52376L161.60625 173.74251ZM175.52812 173.74251L173.6375 173.74251L166.48125 162.78938L166.48125 173.74251L164.60625 173.74251L164.60625 159.52376L166.48125 159.52376L173.66875 170.52376L173.66875 159.52376L175.52812 159.52376L175.52812 173.74251ZM186.6375 167.16438L180.48125 167.16438L180.48125 172.21126L187.6375 172.21126L187.6375 173.74251L178.60625 173.74251L178.60625 159.52376L187.54375 159.52376L187.54375 161.07063L180.48125 161.07063L180.48125 165.63313L186.6375 165.63313L186.6375 167.16438ZM193.79375 167.39876Q191.37187 166.71126 190.27812 165.71126Q189.18437 164.69563 189.18437 163.21126Q189.18437 161.52376 190.52812 160.43001Q191.87187 159.32063 194.0125 159.32063Q195.48125 159.32063 196.62187 159.89876Q197.77812 160.46126 198.40312 161.46126Q199.02812 162.44563 199.02812 163.63313L197.15312 163.63313Q197.15312 162.35188 196.325 161.61751Q195.5125 160.86751 194.0125 160.86751Q192.62187 160.86751 191.84062 161.47688Q191.075 162.08626 191.075 163.18001Q191.075 164.03938 191.80937 164.64876Q192.54375 165.24251 194.30937 165.74251Q196.09062 166.24251 197.09062 166.85188Q198.09062 167.44563 198.575 168.24251Q199.05937 169.03938 199.05937 170.13313Q199.05937 171.85188 197.71562 172.89876Q196.37187 173.94563 194.10625 173.94563Q192.65312 173.94563 191.37187 173.38313Q190.10625 172.82063 189.41875 171.85188Q188.73125 170.86751 188.73125 169.61751L190.62187 169.61751Q190.62187 170.91438 191.575 171.66438Q192.52812 172.39876 194.10625 172.39876Q195.59062 172.39876 196.3875 171.80501Q197.18437 171.19563 197.18437 170.14876Q197.18437 169.10188 196.45 168.53938Q195.71562 167.96126 193.79375 167.39876ZM205.79375 167.39876Q203.37187 166.71126 202.27812 165.71126Q201.18437 164.69563 201.18437 163.21126Q201.18437 161.52376 202.52812 160.43001Q203.87187 159.32063 206.0125 159.32063Q207.48125 159.32063 208.62187 159.89876Q209.77812 160.46126 210.40312 161.46126Q211.02812 162.44563 211.02812 163.63313L209.15312 163.63313Q209.15312 162.35188 208.325 161.61751Q207.5125 160.86751 206.0125 160.86751Q204.62187 160.86751 203.84062 161.47688Q203.075 162.08626 203.075 163.18001Q203.075 164.03938 203.80937 164.64876Q204.54375 165.24251 206.30937 165.74251Q208.09062 166.24251 209.09062 166.85188Q210.09062 167.44563 210.575 168.24251Q211.05937 169.03938 211.05937 170.13313Q211.05937 171.85188 209.71562 172.89876Q208.37187 173.94563 206.10625 173.94563Q204.65312 173.94563 203.37187 173.38313Q202.10625 172.82063 201.41875 171.85188Q200.73125 170.86751 200.73125 169.61751L202.62187 169.61751Q202.62187 170.91438 203.575 171.66438Q204.52812 172.39876 206.10625 172.39876Q207.59062 172.39876 208.3875 171.80501Q209.18437 171.19563 209.18437 170.14876Q209.18437 169.10188 208.45 168.53938Q207.71562 167.96126 205.79375 167.39876ZM215.60625 173.74251L213.73125 173.74251L213.73125 159.52376L215.60625 159.52376L215.60625 173.74251ZM229.52812 173.74251L227.6375 173.74251L220.48125 162.78938L220.48125 173.74251L218.60625 173.74251L218.60625 159.52376L220.48125 159.52376L227.66875 170.52376L227.66875 159.52376L229.52812 159.52376L229.52812 173.74251ZM232.60625 173.74251L232.60625 159.52376L236.62187 159.52376Q238.46562 159.52376 239.8875 160.35188Q241.325 161.16438 242.09062 162.68001Q242.87187 164.19563 242.8875 166.14876L242.8875 167.05501Q242.8875 169.07063 242.10625 170.58626Q241.325 172.10188 239.8875 172.91438Q238.45 173.72688 236.54375 173.74251L232.60625 173.74251ZM234.48125 161.07063L234.48125 172.21126L236.45 172.21126Q238.62187 172.21126 239.825 170.86751Q241.02812 169.50813 241.02812 167.02376L241.02812 166.19563Q241.02812 163.77376 239.8875 162.43001Q238.74687 161.08626 236.66875 161.07063L234.48125 161.07063ZM253.6375 167.16438L247.48125 167.16438L247.48125 172.21126L254.6375 172.21126L254.6375 173.74251L245.60625 173.74251L245.60625 159.52376L254.54375 159.52376L254.54375 161.07063L247.48125 161.07063L247.48125 165.63313L253.6375 165.63313L253.6375 167.16438ZM261.2469 164.97688L264.65314 159.52376L266.85626 159.52376L262.35626 166.57063L266.96564 173.74251L264.73126 173.74251L261.2469 168.19563L257.73126 173.74251L255.5125 173.74251L260.1219 166.57063L255.62187 159.52376L257.8094 159.52376L261.2469 164.97688Z" fill-rule="nonzero"/><path fill="#757575" d="M220.79375 201.90012Q218.37187 201.21262 217.27812 200.21262Q216.18437 199.19699 216.18437 197.71262Q216.18437 196.02512 217.52812 194.93137Q218.87187 193.82199 221.0125 193.82199Q222.48125 193.82199 223.62187 194.40012Q224.77812 194.96262 225.40312 195.96262Q226.02812 196.94699 226.02812 198.13449L224.15312 198.13449Q224.15312 196.85324 223.325 196.11887Q222.5125 195.36887 221.0125 195.36887Q219.62187 195.36887 218.84062 195.97824Q218.075 196.58762 218.075 197.68137Q218.075 198.54074 218.80937 199.15012Q219.54375 199.74387 221.30937 200.24387Q223.09062 200.74387 224.09062 201.35324Q225.09062 201.94699 225.575 202.74387Q226.05937 203.54074 226.05937 204.63449Q226.05937 206.35324 224.71562 207.40012Q223.37187 208.44699 221.10625 208.44699Q219.65312 208.44699 218.37187 207.88449Q217.10625 207.32199 216.41875 206.35324Q215.73125 205.36887 215.73125 204.11887L217.62187 204.11887Q217.62187 205.41574 218.575 206.16574Q219.52812 206.90012 221.10625 206.90012Q222.59062 206.90012 223.3875 206.30637Q224.18437 205.69699 224.18437 204.65012Q224.18437 203.60324 223.45 203.04074Q222.71562 202.46262 220.79375 201.90012ZM236.45 204.52512L230.49687 204.52512L229.15312 208.24387L227.23125 208.24387L232.65312 194.02512L234.29375 194.02512L239.73125 208.24387L237.80937 208.24387L236.45 204.52512ZM231.05937 202.99387L235.90312 202.99387L233.48125 196.33762L231.05937 202.99387ZM252.52812 208.24387L250.6375 208.24387L243.48125 197.29074L243.48125 208.24387L241.60625 208.24387L241.60625 194.02512L243.48125 194.02512L250.66875 205.02512L250.66875 194.02512L252.52812 194.02512L252.52812 208.24387ZM266.52814 208.24387L264.6375 208.24387L257.48126 197.29074L257.48126 208.24387L255.60625 208.24387L255.60625 194.02512L257.48126 194.02512L264.66876 205.02512L264.66876 194.02512L266.52814 194.02512L266.52814 208.24387Z" fill-rule="nonzero"/><path fill="#757575" d="M140.6375 236.1671L134.48125 236.1671L134.48125 241.21397L141.6375 241.21397L141.6375 242.74522L132.60625 242.74522L132.60625 228.52647L141.54375 228.52647L141.54375 230.07335L134.48125 230.07335L134.48125 234.63585L140.6375 234.63585L140.6375 236.1671ZM146.02812 228.52647L150.66875 240.12022L155.325 228.52647L157.74687 228.52647L157.74687 242.74522L155.87187 242.74522L155.87187 237.21397L156.05937 231.2296L151.3875 242.74522L149.95 242.74522L145.29375 231.26085L145.48125 237.21397L145.48125 242.74522L143.60625 242.74522L143.60625 228.52647L146.02812 228.52647ZM171.54375 236.08897Q171.54375 238.18272 170.84062 239.74522Q170.1375 241.2921 168.84062 242.12022Q167.55937 242.94835 165.84062 242.94835Q164.15312 242.94835 162.85625 242.12022Q161.55937 241.2921 160.84062 239.76085Q160.12187 238.2296 160.10625 236.21397L160.10625 235.19835Q160.10625 233.15147 160.80937 231.57335Q161.52812 229.99522 162.825 229.1671Q164.1375 228.32335 165.80937 228.32335Q167.52812 228.32335 168.825 229.15147Q170.1375 229.9796 170.84062 231.55772Q171.54375 233.12022 171.54375 235.19835L171.54375 236.08897ZM169.66875 235.18272Q169.66875 232.65147 168.65312 231.30772Q167.6375 229.94835 165.80937 229.94835Q164.04375 229.94835 163.0125 231.30772Q161.99687 232.65147 161.96562 235.0421L161.96562 236.08897Q161.96562 238.5421 162.99687 239.94835Q164.02812 241.3546 165.84062 241.3546Q167.65312 241.3546 168.6375 240.02647Q169.6375 238.69835 169.66875 236.2296L169.66875 235.18272ZM184.41875 230.07335L179.85625 230.07335L179.85625 242.74522L177.99687 242.74522L177.99687 230.07335L173.43437 230.07335L173.43437 228.52647L184.41875 228.52647L184.41875 230.07335ZM188.60625 242.74522L186.73125 242.74522L186.73125 228.52647L188.60625 228.52647L188.60625 242.74522ZM202.05937 238.2296Q201.79375 240.49522 200.3875 241.7296Q198.99687 242.94835 196.66875 242.94835Q194.15312 242.94835 192.62187 241.13585Q191.10625 239.32335 191.10625 236.2921L191.10625 234.93272Q191.10625 232.94835 191.80937 231.44835Q192.52812 229.94835 193.825 229.13585Q195.12187 228.32335 196.84062 228.32335Q199.10625 228.32335 200.46562 229.58897Q201.84062 230.8546 202.05937 233.08897L200.16875 233.08897Q199.93437 231.40147 199.10625 230.63585Q198.29375 229.87022 196.84062 229.87022Q195.04375 229.87022 194.0125 231.19835Q192.99687 232.52647 192.99687 234.9796L192.99687 236.3546Q192.99687 238.6671 193.96562 240.0421Q194.93437 241.40147 196.66875 241.40147Q198.23125 241.40147 199.05937 240.69835Q199.90312 239.99522 200.16875 238.2296L202.05937 238.2296ZM215.54375 236.08897Q215.54375 238.18272 214.84062 239.74522Q214.1375 241.2921 212.84062 242.12022Q211.55937 242.94835 209.84062 242.94835Q208.15312 242.94835 206.85625 242.12022Q205.55937 241.2921 204.84062 239.76085Q204.12187 238.2296 204.10625 236.21397L204.10625 235.19835Q204.10625 233.15147 204.80937 231.57335Q205.52812 229.99522 206.825 229.1671Q208.1375 228.32335 209.80937 228.32335Q211.52812 228.32335 212.825 229.15147Q214.1375 229.9796 214.84062 231.55772Q215.54375 233.12022 215.54375 235.19835L215.54375 236.08897ZM213.66875 235.18272Q213.66875 232.65147 212.65312 231.30772Q211.6375 229.94835 209.80937 229.94835Q208.04375 229.94835 207.0125 231.30772Q205.99687 232.65147 205.96562 235.0421L205.96562 236.08897Q205.96562 238.5421 206.99687 239.94835Q208.02812 241.3546 209.84062 241.3546Q211.65312 241.3546 212.6375 240.02647Q213.6375 238.69835 213.66875 236.2296L213.66875 235.18272ZM229.52812 242.74522L227.6375 242.74522L220.48125 231.7921L220.48125 242.74522L218.60625 242.74522L218.60625 228.52647L220.48125 228.52647L227.66875 239.52647L227.66875 228.52647L229.52812 228.52647L229.52812 242.74522ZM236.79375 236.40147Q234.37187 235.71397 233.27812 234.71397Q232.18437 233.69835 232.18437 232.21397Q232.18437 230.52647 233.52812 229.43272Q234.87187 228.32335 237.0125 228.32335Q238.48125 228.32335 239.62187 228.90147Q240.77812 229.46397 241.40312 230.46397Q242.02812 231.44835 242.02812 232.63585L240.15312 232.63585Q240.15312 231.3546 239.325 230.62022Q238.5125 229.87022 237.0125 229.87022Q235.62187 229.87022 234.84062 230.4796Q234.075 231.08897 234.075 232.18272Q234.075 233.0421 234.80937 233.65147Q235.54375 234.24522 237.30937 234.74522Q239.09062 235.24522 240.09062 235.8546Q241.09062 236.44835 241.575 237.24522Q242.05937 238.0421 242.05937 239.13585Q242.05937 240.8546 240.71562 241.90147Q239.37187 242.94835 237.10625 242.94835Q235.65312 242.94835 234.37187 242.38585Q233.10625 241.82335 232.41875 240.8546Q231.73125 239.87022 231.73125 238.62022L233.62187 238.62022Q233.62187 239.9171 234.575 240.6671Q235.52812 241.40147 237.10625 241.40147Q238.59062 241.40147 239.3875 240.80772Q240.18437 240.19835 240.18437 239.15147Q240.18437 238.1046 239.45 237.5421Q238.71562 236.96397 236.79375 236.40147ZM244.60625 242.74522L244.60625 228.52647L248.62187 228.52647Q250.46562 228.52647 251.8875 229.3546Q253.325 230.1671 254.09062 231.68272Q254.87187 233.19835 254.8875 235.15147L254.8875 236.05772Q254.8875 238.07335 254.10625 239.58897Q253.325 241.1046 251.8875 241.9171Q250.45 242.7296 248.54375 242.74522L244.60625 242.74522ZM246.48125 230.07335L246.48125 241.21397L248.45 241.21397Q250.62187 241.21397 251.825 239.87022Q253.02812 238.51085 253.02812 236.02647L253.02812 235.19835Q253.02812 232.77647 251.8875 231.43272Q250.74687 230.08897 248.66875 230.07335L246.48125 230.07335ZM261.79376 236.40147Q259.3719 235.71397 258.27814 234.71397Q257.1844 233.69835 257.1844 232.21397Q257.1844 230.52647 258.52814 229.43272Q259.8719 228.32335 262.0125 228.32335Q263.48126 228.32335 264.6219 228.90147Q265.77814 229.46397 266.40314 230.46397Q267.02814 231.44835 267.02814 232.63585L265.15314 232.63585Q265.15314 231.3546 264.325 230.62022Q263.5125 229.87022 262.0125 229.87022Q260.6219 229.87022 259.84064 230.4796Q259.075 231.08897 259.075 232.18272Q259.075 233.0421 259.8094 233.65147Q260.54376 234.24522 262.3094 234.74522Q264.09064 235.24522 265.09064 235.8546Q266.09064 236.44835 266.575 237.24522Q267.0594 238.0421 267.0594 239.13585Q267.0594 240.8546 265.71564 241.90147Q264.3719 242.94835 262.10626 242.94835Q260.65314 242.94835 259.3719 242.38585Q258.10626 241.82335 257.41876 240.8546Q256.73126 239.87022 256.73126 238.62022L258.6219 238.62022Q258.6219 239.9171 259.575 240.6671Q260.52814 241.40147 262.10626 241.40147Q263.59064 241.40147 264.3875 240.80772Q265.1844 240.19835 265.1844 239.15147Q265.1844 238.1046 264.45 237.5421Q263.71564 236.96397 261.79376 236.40147Z" fill-rule="nonzero"/><path fill="#757575" d="M132.79375 270.90283Q130.37187 270.21533 129.27812 269.21533Q128.18437 268.1997 128.18437 266.71533Q128.18437 265.02783 129.52812 263.93408Q130.87187 262.8247 133.0125 262.8247Q134.48125 262.8247 135.62187 263.40283Q136.77812 263.96533 137.40312 264.96533Q138.02812 265.9497 138.02812 267.1372L136.15312 267.1372Q136.15312 265.85596 135.325 265.12158Q134.5125 264.37158 133.0125 264.37158Q131.62187 264.37158 130.84062 264.98096Q130.075 265.59033 130.075 266.68408Q130.075 267.54346 130.80937 268.15283Q131.54375 268.74658 133.30937 269.24658Q135.09062 269.74658 136.09062 270.35596Q137.09062 270.9497 137.575 271.74658Q138.05937 272.54346 138.05937 273.6372Q138.05937 275.35596 136.71562 276.40283Q135.37187 277.4497 133.10625 277.4497Q131.65312 277.4497 130.37187 276.8872Q129.10625 276.3247 128.41875 275.35596Q127.73125 274.37158 127.73125 273.12158L129.62187 273.12158Q129.62187 274.41846 130.575 275.16846Q131.52812 275.90283 133.10625 275.90283Q134.59062 275.90283 135.3875 275.30908Q136.18437 274.6997 136.18437 273.65283Q136.18437 272.60596 135.45 272.04346Q134.71562 271.46533 132.79375 270.90283ZM148.6375 270.66846L142.48125 270.66846L142.48125 275.71533L149.6375 275.71533L149.6375 277.24658L140.60625 277.24658L140.60625 263.02783L149.54375 263.02783L149.54375 264.5747L142.48125 264.5747L142.48125 269.1372L148.6375 269.1372L148.6375 270.66846ZM162.52812 277.24658L160.6375 277.24658L153.48125 266.29346L153.48125 277.24658L151.60625 277.24658L151.60625 263.02783L153.48125 263.02783L160.66875 274.02783L160.66875 263.02783L162.52812 263.02783L162.52812 277.24658ZM175.41875 264.5747L170.85625 264.5747L170.85625 277.24658L168.99687 277.24658L168.99687 264.5747L164.43437 264.5747L164.43437 263.02783L175.41875 263.02783L175.41875 264.5747ZM179.60625 277.24658L177.73125 277.24658L177.73125 263.02783L179.60625 263.02783L179.60625 277.24658ZM185.02812 263.02783L189.66875 274.62158L194.325 263.02783L196.74687 263.02783L196.74687 277.24658L194.87187 277.24658L194.87187 271.71533L195.05937 265.73096L190.3875 277.24658L188.95 277.24658L184.29375 265.7622L184.48125 271.71533L184.48125 277.24658L182.60625 277.24658L182.60625 263.02783L185.02812 263.02783ZM207.6375 270.66846L201.48125 270.66846L201.48125 275.71533L208.6375 275.71533L208.6375 277.24658L199.60625 277.24658L199.60625 263.02783L208.54375 263.02783L208.54375 264.5747L201.48125 264.5747L201.48125 269.1372L207.6375 269.1372L207.6375 270.66846ZM221.52812 277.24658L219.6375 277.24658L212.48125 266.29346L212.48125 277.24658L210.60625 277.24658L210.60625 263.02783L212.48125 263.02783L219.66875 274.02783L219.66875 263.02783L221.52812 263.02783L221.52812 277.24658ZM234.41875 264.5747L229.85625 264.5747L229.85625 277.24658L227.99687 277.24658L227.99687 264.5747L223.43437 264.5747L223.43437 263.02783L234.41875 263.02783L234.41875 264.5747ZM242.075 277.24658L240.24687 277.24658L240.24687 265.1997L236.60625 266.54346L236.60625 264.90283L241.79375 262.96533L242.075 262.96533L242.075 277.24658ZM254.7625 272.46533L256.73126 272.46533L256.73126 273.9497L254.7625 273.9497L254.7625 277.24658L252.95 277.24658L252.95 273.9497L246.46562 273.9497L246.46562 272.8872L252.84062 263.02783L254.7625 263.02783L254.7625 272.46533ZM248.5125 272.46533L252.95 272.46533L252.95 265.49658L252.73125 265.8872L248.5125 272.46533ZM267.04376 271.18408Q267.04376 274.35596 265.96564 275.90283Q264.8875 277.4497 262.575 277.4497Q260.29376 277.4497 259.2 275.93408Q258.10626 274.41846 258.075 271.41846L258.075 269.0122Q258.075 265.87158 259.15314 264.35596Q260.2469 262.8247 262.5594 262.8247Q264.85626 262.8247 265.9344 264.30908Q267.0125 265.77783 267.04376 268.84033L267.04376 271.18408ZM265.2469 268.71533Q265.2469 266.41846 264.59064 265.37158Q263.95 264.30908 262.5594 264.30908Q261.16876 264.30908 260.52814 265.35596Q259.90314 266.40283 259.8875 268.5747L259.8875 271.46533Q259.8875 273.7622 260.54376 274.87158Q261.21564 275.96533 262.575 275.96533Q263.91876 275.96533 264.5594 274.93408Q265.21564 273.90283 265.2469 271.66846L265.2469 268.71533Z" fill-rule="nonzero"/><path fill="#757575" d="M172.79375 305.4042Q170.37187 304.7167 169.27812 303.7167Q168.18437 302.70108 168.18437 301.2167Q168.18437 299.5292 169.52812 298.43546Q170.87187 297.32608 173.0125 297.32608Q174.48125 297.32608 175.62187 297.9042Q176.77812 298.4667 177.40312 299.4667Q178.02812 300.45108 178.02812 301.63858L176.15312 301.63858Q176.15312 300.35733 175.325 299.62296Q174.5125 298.87296 173.0125 298.87296Q171.62187 298.87296 170.84062 299.48233Q170.075 300.0917 170.075 301.18546Q170.075 302.04483 170.80937 302.6542Q171.54375 303.24796 173.30937 303.74796Q175.09062 304.24796 176.09062 304.85733Q177.09062 305.45108 177.575 306.24796Q178.05937 307.04483 178.05937 308.13858Q178.05937 309.85733 176.71562 310.9042Q175.37187 311.95108 173.10625 311.95108Q171.65312 311.95108 170.37187 311.38858Q169.10625 310.82608 168.41875 309.85733Q167.73125 308.87296 167.73125 307.62296L169.62187 307.62296Q169.62187 308.91983 170.575 309.66983Q171.52812 310.4042 173.10625 310.4042Q174.59062 310.4042 175.3875 309.81046Q176.18437 309.20108 176.18437 308.1542Q176.18437 307.10733 175.45 306.54483Q174.71562 305.9667 172.79375 305.4042ZM190.41875 299.07608L185.85625 299.07608L185.85625 311.74796L183.99687 311.74796L183.99687 299.07608L179.43437 299.07608L179.43437 297.5292L190.41875 297.5292L190.41875 299.07608ZM200.45 308.0292L194.49687 308.0292L193.15312 311.74796L191.23125 311.74796L196.65312 297.5292L198.29375 297.5292L203.73125 311.74796L201.80937 311.74796L200.45 308.0292ZM195.05937 306.49796L199.90312 306.49796L197.48125 299.8417L195.05937 306.49796ZM216.52812 311.74796L214.6375 311.74796L207.48125 300.79483L207.48125 311.74796L205.60625 311.74796L205.60625 297.5292L207.48125 297.5292L214.66875 308.5292L214.66875 297.5292L216.52812 297.5292L216.52812 311.74796ZM227.45 305.4667L221.48125 305.4667L221.48125 311.74796L219.60625 311.74796L219.60625 297.5292L228.40312 297.5292L228.40312 299.07608L221.48125 299.07608L221.48125 303.93546L227.45 303.93546L227.45 305.4667ZM241.54375 305.0917Q241.54375 307.18546 240.84062 308.74796Q240.1375 310.29483 238.84062 311.12296Q237.55937 311.95108 235.84062 311.95108Q234.15312 311.95108 232.85625 311.12296Q231.55937 310.29483 230.84062 308.76358Q230.12187 307.23233 230.10625 305.2167L230.10625 304.20108Q230.10625 302.1542 230.80937 300.57608Q231.52812 298.99796 232.825 298.16983Q234.1375 297.32608 235.80937 297.32608Q237.52812 297.32608 238.825 298.1542Q240.1375 298.98233 240.84062 300.56046Q241.54375 302.12296 241.54375 304.20108L241.54375 305.0917ZM239.66875 304.18546Q239.66875 301.6542 238.65312 300.31046Q237.6375 298.95108 235.80937 298.95108Q234.04375 298.95108 233.0125 300.31046Q231.99687 301.6542 231.96562 304.04483L231.96562 305.0917Q231.96562 307.54483 232.99687 308.95108Q234.02812 310.35733 235.84062 310.35733Q237.65312 310.35733 238.6375 309.0292Q239.6375 307.70108 239.66875 305.23233L239.66875 304.18546ZM249.80937 305.99796L246.48125 305.99796L246.48125 311.74796L244.59062 311.74796L244.59062 297.5292L249.29375 297.5292Q251.7 297.5292 252.99687 298.62296Q254.29375 299.7167 254.29375 301.81046Q254.29375 303.13858 253.575 304.12296Q252.85625 305.10733 251.575 305.5917L254.91875 311.62296L254.91875 311.74796L252.90312 311.74796L249.80937 305.99796ZM246.48125 304.4667L249.35625 304.4667Q250.74687 304.4667 251.575 303.74796Q252.40312 303.01358 252.40312 301.81046Q252.40312 300.48233 251.60625 299.7792Q250.825 299.07608 249.34062 299.07608L246.48125 299.07608L246.48125 304.4667ZM256.60626 311.74796L256.60626 297.5292L260.6219 297.5292Q262.46564 297.5292 263.8875 298.35733Q265.325 299.16983 266.09064 300.68546Q266.8719 302.20108 266.8875 304.1542L266.8875 305.06046Q266.8875 307.07608 266.10626 308.5917Q265.325 310.10733 263.8875 310.91983Q262.45 311.73233 260.54376 311.74796L256.60626 311.74796ZM258.48126 299.07608L258.48126 310.2167L260.45 310.2167Q262.6219 310.2167 263.825 308.87296Q265.02814 307.51358 265.02814 305.0292L265.02814 304.20108Q265.02814 301.7792 263.8875 300.43546Q262.7469 299.0917 260.66876 299.07608L258.48126 299.07608Z" fill-rule="nonzero"/><path fill="#757575" d="M220.45 342.53058L214.49687 342.53058L213.15312 346.24933L211.23125 346.24933L216.65312 332.03058L218.29375 332.03058L223.73125 346.24933L221.80937 346.24933L220.45 342.53058ZM215.05937 340.99933L219.90312 340.99933L217.48125 334.34308L215.05937 340.99933ZM233.45 339.96808L227.48125 339.96808L227.48125 346.24933L225.60625 346.24933L225.60625 332.03058L234.40312 332.03058L234.40312 333.57745L227.48125 333.57745L227.48125 338.43683L233.45 338.43683L233.45 339.96808ZM238.60625 346.24933L236.73125 346.24933L236.73125 332.03058L238.60625 332.03058L238.60625 346.24933ZM252.52812 346.24933L250.6375 346.24933L243.48125 335.2962L243.48125 346.24933L241.60625 346.24933L241.60625 332.03058L243.48125 332.03058L250.66875 343.03058L250.66875 332.03058L252.52812 332.03058L252.52812 346.24933ZM266.52814 346.24933L264.6375 346.24933L257.48126 335.2962L257.48126 346.24933L255.60625 346.24933L255.60625 332.03058L257.48126 332.03058L264.66876 343.03058L264.66876 332.03058L266.52814 332.03058L266.52814 346.24933Z" fill-rule="nonzero"/><path fill="#757575" d="M215.02812 366.53192L219.66875 378.12567L224.325 366.53192L226.74687 366.53192L226.74687 380.75067L224.87187 380.75067L224.87187 375.21942L225.05937 369.23505L220.3875 380.75067L218.95 380.75067L214.29375 369.2663L214.48125 375.21942L214.48125 380.75067L212.60625 380.75067L212.60625 366.53192L215.02812 366.53192ZM231.48125 375.18817L231.48125 380.75067L229.60625 380.75067L229.60625 366.53192L234.84062 366.53192Q237.18437 366.53192 238.49687 367.71942Q239.825 368.90692 239.825 370.87567Q239.825 372.9538 238.52812 374.0788Q237.23125 375.18817 234.825 375.18817L231.48125 375.18817ZM231.48125 373.65692L234.84062 373.65692Q236.35625 373.65692 237.15312 372.9538Q237.95 372.23505 237.95 370.8913Q237.95 369.62567 237.15312 368.87567Q236.35625 368.11005 234.95 368.0788L231.48125 368.0788L231.48125 373.65692ZM253.46562 374.09442Q253.46562 376.15692 252.80937 377.65692Q252.15312 379.1413 250.96562 379.98505L253.5125 381.96942L252.23125 383.15692L249.23125 380.7663Q248.52812 380.9538 247.74687 380.9538Q246.075 380.9538 244.7625 380.12567Q243.46562 379.29755 242.74687 377.7663Q242.02812 376.23505 242.0125 374.21942L242.0125 373.2038Q242.0125 371.15692 242.71562 369.5788Q243.43437 368.00067 244.73125 367.17255Q246.04375 366.3288 247.73125 366.3288Q249.45 366.3288 250.74687 367.17255Q252.05937 368.00067 252.7625 369.56317Q253.46562 371.11005 253.46562 373.18817L253.46562 374.09442ZM251.59062 373.18817Q251.59062 370.67255 250.59062 369.31317Q249.59062 367.9538 247.73125 367.9538Q245.96562 367.9538 244.93437 369.31317Q243.91875 370.65692 243.8875 373.04755L243.8875 374.09442Q243.8875 376.54755 244.90312 377.9538Q245.93437 379.36005 247.74687 379.36005Q249.55937 379.36005 250.55937 378.03192Q251.55937 376.7038 251.59062 374.23505L251.59062 373.18817ZM264.45 377.03192L258.4969 377.03192L257.15314 380.75067L255.23125 380.75067L260.65314 366.53192L262.29376 366.53192L267.73126 380.75067L265.8094 380.75067L264.45 377.03192ZM259.0594 375.50067L263.90314 375.50067L261.48126 368.84442L259.0594 375.50067Z" fill-rule="nonzero"/><path fill="#757575" d="M149.52812 415.25204L147.6375 415.25204L140.48125 404.29892L140.48125 415.25204L138.60625 415.25204L138.60625 401.0333L140.48125 401.0333L147.66875 412.0333L147.66875 401.0333L149.52812 401.0333L149.52812 415.25204ZM157.80937 409.50204L154.48125 409.50204L154.48125 415.25204L152.59062 415.25204L152.59062 401.0333L157.29375 401.0333Q159.7 401.0333 160.99687 402.12704Q162.29375 403.2208 162.29375 405.31454Q162.29375 406.64267 161.575 407.62704Q160.85625 408.61142 159.575 409.0958L162.91875 415.12704L162.91875 415.25204L160.90312 415.25204L157.80937 409.50204ZM154.48125 407.9708L157.35625 407.9708Q158.74687 407.9708 159.575 407.25204Q160.40312 406.51767 160.40312 405.31454Q160.40312 403.98642 159.60625 403.2833Q158.825 402.58017 157.34062 402.58017L154.48125 402.58017L154.48125 407.9708ZM175.05937 410.73642Q174.79375 413.00204 173.3875 414.23642Q171.99687 415.45517 169.66875 415.45517Q167.15312 415.45517 165.62187 413.64267Q164.10625 411.83017 164.10625 408.79892L164.10625 407.43954Q164.10625 405.45517 164.80937 403.95517Q165.52812 402.45517 166.825 401.64267Q168.12187 400.83017 169.84062 400.83017Q172.10625 400.83017 173.46562 402.0958Q174.84062 403.36142 175.05937 405.5958L173.16875 405.5958Q172.93437 403.9083 172.10625 403.14267Q171.29375 402.37704 169.84062 402.37704Q168.04375 402.37704 167.0125 403.70517Q165.99687 405.0333 165.99687 407.48642L165.99687 408.86142Q165.99687 411.17392 166.96562 412.54892Q167.93437 413.9083 169.66875 413.9083Q171.23125 413.9083 172.05937 413.20517Q172.90312 412.50204 173.16875 410.73642L175.05937 410.73642ZM188.52812 415.25204L186.6375 415.25204L186.6375 408.67392L179.48125 408.67392L179.48125 415.25204L177.60625 415.25204L177.60625 401.0333L179.48125 401.0333L179.48125 407.14267L186.6375 407.14267L186.6375 401.0333L188.52812 401.0333L188.52812 415.25204ZM199.45 411.5333L193.49687 411.5333L192.15312 415.25204L190.23125 415.25204L195.65312 401.0333L197.29375 401.0333L202.73125 415.25204L200.80937 415.25204L199.45 411.5333ZM194.05937 410.00204L198.90312 410.00204L196.48125 403.3458L194.05937 410.00204ZM208.79375 408.9083Q206.37187 408.2208 205.27812 407.2208Q204.18437 406.20517 204.18437 404.7208Q204.18437 403.0333 205.52812 401.93954Q206.87187 400.83017 209.0125 400.83017Q210.48125 400.83017 211.62187 401.4083Q212.77812 401.9708 213.40312 402.9708Q214.02812 403.95517 214.02812 405.14267L212.15312 405.14267Q212.15312 403.86142 211.325 403.12704Q210.5125 402.37704 209.0125 402.37704Q207.62187 402.37704 206.84062 402.98642Q206.075 403.5958 206.075 404.68954Q206.075 405.54892 206.80937 406.1583Q207.54375 406.75204 209.30937 407.25204Q211.09062 407.75204 212.09062 408.36142Q213.09062 408.95517 213.575 409.75204Q214.05937 410.54892 214.05937 411.64267Q214.05937 413.36142 212.71562 414.4083Q211.37187 415.45517 209.10625 415.45517Q207.65312 415.45517 206.37187 414.89267Q205.10625 414.33017 204.41875 413.36142Q203.73125 412.37704 203.73125 411.12704L205.62187 411.12704Q205.62187 412.42392 206.575 413.17392Q207.52812 413.9083 209.10625 413.9083Q210.59062 413.9083 211.3875 413.31454Q212.18437 412.70517 212.18437 411.6583Q212.18437 410.61142 211.45 410.04892Q210.71562 409.4708 208.79375 408.9083ZM227.52812 415.25204L225.6375 415.25204L225.6375 408.67392L218.48125 408.67392L218.48125 415.25204L216.60625 415.25204L216.60625 401.0333L218.48125 401.0333L218.48125 407.14267L225.6375 407.14267L225.6375 401.0333L227.52812 401.0333L227.52812 415.25204ZM240.41875 402.58017L235.85625 402.58017L235.85625 415.25204L233.99687 415.25204L233.99687 402.58017L229.43437 402.58017L229.43437 401.0333L240.41875 401.0333L240.41875 402.58017ZM250.45 411.5333L244.49687 411.5333L243.15312 415.25204L241.23125 415.25204L246.65312 401.0333L248.29375 401.0333L253.73125 415.25204L251.80937 415.25204L250.45 411.5333ZM245.05937 410.00204L249.90312 410.00204L247.48125 403.3458L245.05937 410.00204ZM266.10626 413.39267Q265.3719 414.42392 264.075 414.93954Q262.79376 415.45517 261.075 415.45517Q259.325 415.45517 257.98126 414.64267Q256.6375 413.81454 255.90312 412.31454Q255.16875 410.81454 255.1375 408.83017L255.1375 407.58017Q255.1375 404.37704 256.6375 402.61142Q258.1375 400.83017 260.85626 400.83017Q263.075 400.83017 264.4344 401.9708Q265.79376 403.11142 266.10626 405.20517L264.23126 405.20517Q263.7 402.37704 260.8719 402.37704Q258.98126 402.37704 258.0125 403.70517Q257.04376 405.0333 257.02814 407.5333L257.02814 408.70517Q257.02814 411.0958 258.1219 412.50204Q259.21564 413.9083 261.075 413.9083Q262.1375 413.9083 262.91876 413.67392Q263.71564 413.43954 264.23126 412.89267L264.23126 409.68954L260.95 409.68954L260.95 408.17392L266.10626 408.17392L266.10626 413.39267Z" fill-rule="nonzero"/><path fill="#757575" d="M200.6375 443.1753L194.48125 443.1753L194.48125 448.22217L201.6375 448.22217L201.6375 449.75342L192.60625 449.75342L192.60625 435.53467L201.54375 435.53467L201.54375 437.08154L194.48125 437.08154L194.48125 441.64404L200.6375 441.64404L200.6375 443.1753ZM206.02812 435.53467L210.66875 447.12842L215.325 435.53467L217.74687 435.53467L217.74687 449.75342L215.87187 449.75342L215.87187 444.22217L216.05937 438.2378L211.3875 449.75342L209.95 449.75342L205.29375 438.26904L205.48125 444.22217L205.48125 449.75342L203.60625 449.75342L203.60625 435.53467L206.02812 435.53467ZM231.54375 443.09717Q231.54375 445.19092 230.84062 446.75342Q230.1375 448.3003 228.84062 449.12842Q227.55937 449.95654 225.84062 449.95654Q224.15312 449.95654 222.85625 449.12842Q221.55937 448.3003 220.84062 446.76904Q220.12187 445.2378 220.10625 443.22217L220.10625 442.20654Q220.10625 440.15967 220.80937 438.58154Q221.52812 437.00342 222.825 436.1753Q224.1375 435.33154 225.80937 435.33154Q227.52812 435.33154 228.825 436.15967Q230.1375 436.9878 230.84062 438.56592Q231.54375 440.12842 231.54375 442.20654L231.54375 443.09717ZM229.66875 442.19092Q229.66875 439.65967 228.65312 438.31592Q227.6375 436.95654 225.80937 436.95654Q224.04375 436.95654 223.0125 438.31592Q221.99687 439.65967 221.96562 442.0503L221.96562 443.09717Q221.96562 445.5503 222.99687 446.95654Q224.02812 448.3628 225.84062 448.3628Q227.65312 448.3628 228.6375 447.03467Q229.6375 445.70654 229.66875 443.2378L229.66875 442.19092ZM236.48125 448.22217L243.23125 448.22217L243.23125 449.75342L234.60625 449.75342L234.60625 435.53467L236.48125 435.53467L236.48125 448.22217ZM253.6375 443.1753L247.48125 443.1753L247.48125 448.22217L254.6375 448.22217L254.6375 449.75342L245.60625 449.75342L245.60625 435.53467L254.54375 435.53467L254.54375 437.08154L247.48125 437.08154L247.48125 441.64404L253.6375 441.64404L253.6375 443.1753ZM261.2469 440.9878L264.65314 435.53467L266.85626 435.53467L262.35626 442.58154L266.96564 449.75342L264.73126 449.75342L261.2469 444.20654L257.73126 449.75342L255.5125 449.75342L260.1219 442.58154L255.62187 435.53467L257.8094 435.53467L261.2469 440.9878Z" fill-rule="nonzero"/><path fill="#757575" d="M165.6375 477.67664L159.48125 477.67664L159.48125 482.7235L166.6375 482.7235L166.6375 484.25476L157.60625 484.25476L157.60625 470.036L166.54375 470.036L166.54375 471.5829L159.48125 471.5829L159.48125 476.1454L165.6375 476.1454L165.6375 477.67664ZM171.02812 470.036L175.66875 481.62976L180.325 470.036L182.74687 470.036L182.74687 484.25476L180.87187 484.25476L180.87187 478.7235L181.05937 472.73914L176.3875 484.25476L174.95 484.25476L170.29375 472.7704L170.48125 478.7235L170.48125 484.25476L168.60625 484.25476L168.60625 470.036L171.02812 470.036ZM196.54375 477.5985Q196.54375 479.69226 195.84062 481.25476Q195.1375 482.80164 193.84062 483.62976Q192.55937 484.4579 190.84062 484.4579Q189.15312 484.4579 187.85625 483.62976Q186.55937 482.80164 185.84062 481.2704Q185.12187 479.73914 185.10625 477.7235L185.10625 476.7079Q185.10625 474.661 185.80937 473.0829Q186.52812 471.50476 187.825 470.67664Q189.1375 469.8329 190.80937 469.8329Q192.52812 469.8329 193.825 470.661Q195.1375 471.48914 195.84062 473.06726Q196.54375 474.62976 196.54375 476.7079L196.54375 477.5985ZM194.66875 476.69226Q194.66875 474.161 193.65312 472.81726Q192.6375 471.4579 190.80937 471.4579Q189.04375 471.4579 188.0125 472.81726Q186.99687 474.161 186.96562 476.55164L186.96562 477.5985Q186.96562 480.05164 187.99687 481.4579Q189.02812 482.86414 190.84062 482.86414Q192.65312 482.86414 193.6375 481.536Q194.6375 480.2079 194.66875 477.73914L194.66875 476.69226ZM209.41875 471.5829L204.85625 471.5829L204.85625 484.25476L202.99687 484.25476L202.99687 471.5829L198.43437 471.5829L198.43437 470.036L209.41875 470.036L209.41875 471.5829ZM213.60625 484.25476L211.73125 484.25476L211.73125 470.036L213.60625 470.036L213.60625 484.25476ZM227.05937 479.73914Q226.79375 482.00476 225.3875 483.23914Q223.99687 484.4579 221.66875 484.4579Q219.15312 484.4579 217.62187 482.6454Q216.10625 480.8329 216.10625 477.80164L216.10625 476.44226Q216.10625 474.4579 216.80937 472.9579Q217.52812 471.4579 218.825 470.6454Q220.12187 469.8329 221.84062 469.8329Q224.10625 469.8329 225.46562 471.0985Q226.84062 472.36414 227.05937 474.5985L225.16875 474.5985Q224.93437 472.911 224.10625 472.1454Q223.29375 471.37976 221.84062 471.37976Q220.04375 471.37976 219.0125 472.7079Q217.99687 474.036 217.99687 476.48914L217.99687 477.86414Q217.99687 480.17664 218.96562 481.55164Q219.93437 482.911 221.66875 482.911Q223.23125 482.911 224.05937 482.2079Q224.90312 481.50476 225.16875 479.73914L227.05937 479.73914ZM240.54375 477.5985Q240.54375 479.69226 239.84062 481.25476Q239.1375 482.80164 237.84062 483.62976Q236.55937 484.4579 234.84062 484.4579Q233.15312 484.4579 231.85625 483.62976Q230.55937 482.80164 229.84062 481.2704Q229.12187 479.73914 229.10625 477.7235L229.10625 476.7079Q229.10625 474.661 229.80937 473.0829Q230.52812 471.50476 231.825 470.67664Q233.1375 469.8329 234.80937 469.8329Q236.52812 469.8329 237.825 470.661Q239.1375 471.48914 239.84062 473.06726Q240.54375 474.62976 240.54375 476.7079L240.54375 477.5985ZM238.66875 476.69226Q238.66875 474.161 237.65312 472.81726Q236.6375 471.4579 234.80937 471.4579Q233.04375 471.4579 232.0125 472.81726Q230.99687 474.161 230.96562 476.55164L230.96562 477.5985Q230.96562 480.05164 231.99687 481.4579Q233.02812 482.86414 234.84062 482.86414Q236.65312 482.86414 237.6375 481.536Q238.6375 480.2079 238.66875 477.73914L238.66875 476.69226ZM254.52812 484.25476L252.6375 484.25476L245.48125 473.30164L245.48125 484.25476L243.60625 484.25476L243.60625 470.036L245.48125 470.036L252.66875 481.036L252.66875 470.036L254.52812 470.036L254.52812 484.25476ZM261.79376 477.911Q259.3719 477.2235 258.27814 476.2235Q257.1844 475.2079 257.1844 473.7235Q257.1844 472.036 258.52814 470.94226Q259.8719 469.8329 262.0125 469.8329Q263.48126 469.8329 264.6219 470.411Q265.77814 470.9735 266.40314 471.9735Q267.02814 472.9579 267.02814 474.1454L265.15314 474.1454Q265.15314 472.86414 264.325 472.12976Q263.5125 471.37976 262.0125 471.37976Q260.6219 471.37976 259.84064 471.98914Q259.075 472.5985 259.075 473.69226Q259.075 474.55164 259.8094 475.161Q260.54376 475.75476 262.3094 476.25476Q264.09064 476.75476 265.09064 477.36414Q266.09064 477.9579 266.575 478.75476Q267.0594 479.55164 267.0594 480.6454Q267.0594 482.36414 265.71564 483.411Q264.3719 484.4579 262.10626 484.4579Q260.65314 484.4579 259.3719 483.8954Q258.10626 483.3329 257.41876 482.36414Q256.73126 481.37976 256.73126 480.12976L258.6219 480.12976Q258.6219 481.42664 259.575 482.17664Q260.52814 482.911 262.10626 482.911Q263.59064 482.911 264.3875 482.31726Q265.1844 481.7079 265.1844 480.661Q265.1844 479.61414 264.45 479.05164Q263.71564 478.4735 261.79376 477.911Z" fill-rule="nonzero"/><path fill="#757575" d="M194.48125 513.1936L194.48125 518.7561L192.60625 518.7561L192.60625 504.53735L197.84062 504.53735Q200.18437 504.53735 201.49687 505.72485Q202.825 506.91235 202.825 508.8811Q202.825 510.95923 201.52812 512.0842Q200.23125 513.1936 197.825 513.1936L194.48125 513.1936ZM194.48125 511.66235L197.84062 511.66235Q199.35625 511.66235 200.15312 510.95923Q200.95 510.24048 200.95 508.89673Q200.95 507.6311 200.15312 506.8811Q199.35625 506.11548 197.95 506.08423L194.48125 506.08423L194.48125 511.66235ZM213.45 515.03735L207.49687 515.03735L206.15312 518.7561L204.23125 518.7561L209.65312 504.53735L211.29375 504.53735L216.73125 518.7561L214.80937 518.7561L213.45 515.03735ZM208.05937 513.5061L212.90312 513.5061L210.48125 506.84985L208.05937 513.5061ZM229.52812 518.7561L227.6375 518.7561L220.48125 507.80298L220.48125 518.7561L218.60625 518.7561L218.60625 504.53735L220.48125 504.53735L227.66875 515.53735L227.66875 504.53735L229.52812 504.53735L229.52812 518.7561ZM240.45 515.03735L234.49687 515.03735L233.15312 518.7561L231.23125 518.7561L236.65312 504.53735L238.29375 504.53735L243.73125 518.7561L241.80937 518.7561L240.45 515.03735ZM235.05937 513.5061L239.90312 513.5061L237.48125 506.84985L235.05937 513.5061ZM249.79375 512.41235Q247.37187 511.72485 246.27812 510.72485Q245.18437 509.70923 245.18437 508.22485Q245.18437 506.53735 246.52812 505.4436Q247.87187 504.33423 250.0125 504.33423Q251.48125 504.33423 252.62187 504.91235Q253.77812 505.47485 254.40312 506.47485Q255.02812 507.45923 255.02812 508.64673L253.15312 508.64673Q253.15312 507.36548 252.325 506.6311Q251.5125 505.8811 250.0125 505.8811Q248.62187 505.8811 247.84062 506.49048Q247.075 507.09985 247.075 508.1936Q247.075 509.05298 247.80937 509.66235Q248.54375 510.2561 250.30937 510.7561Q252.09062 511.2561 253.09062 511.86548Q254.09062 512.4592 254.575 513.2561Q255.05937 514.053 255.05937 515.1467Q255.05937 516.8655 253.71562 517.91235Q252.37187 518.9592 250.10625 518.9592Q248.65312 518.9592 247.37187 518.3967Q246.10625 517.8342 245.41875 516.8655Q244.73125 515.8811 244.73125 514.6311L246.62187 514.6311Q246.62187 515.928 247.575 516.678Q248.52812 517.41235 250.10625 517.41235Q251.59062 517.41235 252.3875 516.8186Q253.18437 516.2092 253.18437 515.16235Q253.18437 514.1155 252.45 513.553Q251.71562 512.97485 249.79375 512.41235ZM267.41876 506.08423L262.85626 506.08423L262.85626 518.7561L260.9969 518.7561L260.9969 506.08423L256.4344 506.08423L256.4344 504.53735L267.41876 504.53735L267.41876 506.08423Z" fill-rule="nonzero"/><path fill="#757575" d="M223.79375 546.91376Q221.37187 546.22626 220.27812 545.22626Q219.18437 544.21063 219.18437 542.72626Q219.18437 541.03876 220.52812 539.945Q221.87187 538.83563 224.0125 538.83563Q225.48125 538.83563 226.62187 539.41376Q227.77812 539.97626 228.40312 540.97626Q229.02812 541.96063 229.02812 543.14813L227.15312 543.14813Q227.15312 541.8669 226.325 541.1325Q225.5125 540.3825 224.0125 540.3825Q222.62187 540.3825 221.84062 540.9919Q221.075 541.60126 221.075 542.695Q221.075 543.5544 221.80937 544.16376Q222.54375 544.7575 224.30937 545.2575Q226.09062 545.7575 227.09062 546.3669Q228.09062 546.96063 228.575 547.7575Q229.05937 548.5544 229.05937 549.64813Q229.05937 551.3669 227.71562 552.41376Q226.37187 553.46063 224.10625 553.46063Q222.65312 553.46063 221.37187 552.89813Q220.10625 552.33563 219.41875 551.3669Q218.73125 550.3825 218.73125 549.1325L220.62187 549.1325Q220.62187 550.4294 221.575 551.1794Q222.52812 551.91376 224.10625 551.91376Q225.59062 551.91376 226.3875 551.32Q227.18437 550.71063 227.18437 549.66376Q227.18437 548.6169 226.45 548.0544Q225.71562 547.47626 223.79375 546.91376ZM239.45 549.53876L233.49687 549.53876L232.15312 553.2575L230.23125 553.2575L235.65312 539.03876L237.29375 539.03876L242.73125 553.2575L240.80937 553.2575L239.45 549.53876ZM234.05937 548.0075L238.90312 548.0075L236.48125 541.35126L234.05937 548.0075ZM248.79375 546.91376Q246.37187 546.22626 245.27812 545.22626Q244.18437 544.21063 244.18437 542.72626Q244.18437 541.03876 245.52812 539.945Q246.87187 538.83563 249.0125 538.83563Q250.48125 538.83563 251.62187 539.41376Q252.77812 539.97626 253.40312 540.97626Q254.02812 541.96063 254.02812 543.14813L252.15312 543.14813Q252.15312 541.8669 251.325 541.1325Q250.5125 540.3825 249.0125 540.3825Q247.62187 540.3825 246.84062 540.9919Q246.075 541.60126 246.075 542.695Q246.075 543.5544 246.80937 544.16376Q247.54375 544.7575 249.30937 545.2575Q251.09062 545.7575 252.09062 546.3669Q253.09062 546.96063 253.575 547.7575Q254.05937 548.5544 254.05937 549.64813Q254.05937 551.3669 252.71562 552.41376Q251.37187 553.46063 249.10625 553.46063Q247.65312 553.46063 246.37187 552.89813Q245.10625 552.33563 244.41875 551.3669Q243.73125 550.3825 243.73125 549.1325L245.62187 549.1325Q245.62187 550.4294 246.575 551.1794Q247.52812 551.91376 249.10625 551.91376Q250.59062 551.91376 251.3875 551.32Q252.18437 550.71063 252.18437 549.66376Q252.18437 548.6169 251.45 548.0544Q250.71562 547.47626 248.79375 546.91376ZM264.45 549.53876L258.4969 549.53876L257.15314 553.2575L255.23125 553.2575L260.65314 539.03876L262.29376 539.03876L267.73126 553.2575L265.8094 553.2575L264.45 549.53876ZM259.0594 548.0075L263.90314 548.0075L261.48126 541.35126L259.0594 548.0075Z" fill-rule="nonzero"/><path fill="#757575" d="M125.79375 581.4151Q123.37187 580.7276 122.27812 579.7276Q121.18437 578.712 121.18437 577.2276Q121.18437 575.5401 122.52812 574.44635Q123.87187 573.337 126.0125 573.337Q127.48125 573.337 128.62187 573.9151Q129.77812 574.4776 130.40312 575.4776Q131.02812 576.462 131.02812 577.6495L129.15312 577.6495Q129.15312 576.3682 128.325 575.63385Q127.5125 574.88385 126.0125 574.88385Q124.62187 574.88385 123.84062 575.4932Q123.075 576.1026 123.075 577.19635Q123.075 578.0557 123.80937 578.6651Q124.54375 579.25885 126.30937 579.75885Q128.09062 580.25885 129.09062 580.8682Q130.09062 581.462 130.575 582.25885Q131.05937 583.0557 131.05937 584.1495Q131.05937 585.8682 129.71562 586.9151Q128.37187 587.962 126.10625 587.962Q124.65312 587.962 123.37187 587.3995Q122.10625 586.837 121.41875 585.8682Q120.73125 584.88385 120.73125 583.63385L122.62187 583.63385Q122.62187 584.9307 123.575 585.6807Q124.52812 586.4151 126.10625 586.4151Q127.59062 586.4151 128.3875 585.82135Q129.18437 585.212 129.18437 584.1651Q129.18437 583.1182 128.45 582.5557Q127.71562 581.9776 125.79375 581.4151ZM141.6375 581.1807L135.48125 581.1807L135.48125 586.2276L142.6375 586.2276L142.6375 587.75885L133.60625 587.75885L133.60625 573.5401L142.54375 573.5401L142.54375 575.087L135.48125 575.087L135.48125 579.6495L141.6375 579.6495L141.6375 581.1807ZM155.52812 587.75885L153.6375 587.75885L146.48125 576.8057L146.48125 587.75885L144.60625 587.75885L144.60625 573.5401L146.48125 573.5401L153.66875 584.5401L153.66875 573.5401L155.52812 573.5401L155.52812 587.75885ZM168.41875 575.087L163.85625 575.087L163.85625 587.75885L161.99687 587.75885L161.99687 575.087L157.43437 575.087L157.43437 573.5401L168.41875 573.5401L168.41875 575.087ZM172.60625 587.75885L170.73125 587.75885L170.73125 573.5401L172.60625 573.5401L172.60625 587.75885ZM178.66875 583.2745L178.93437 585.1495L179.34062 583.462L182.15312 573.5401L183.73125 573.5401L186.48125 583.462L186.87187 585.1807L187.16875 583.25885L189.3875 573.5401L191.2625 573.5401L187.825 587.75885L186.10625 587.75885L183.18437 577.3995L182.95 576.3057L182.73125 577.3995L179.7 587.75885L177.98125 587.75885L174.54375 573.5401L176.41875 573.5401L178.66875 583.2745ZM204.54375 581.1026Q204.54375 583.19635 203.84062 584.75885Q203.1375 586.3057 201.84062 587.13385Q200.55937 587.962 198.84062 587.962Q197.15312 587.962 195.85625 587.13385Q194.55937 586.3057 193.84062 584.7745Q193.12187 583.2432 193.10625 581.2276L193.10625 580.212Q193.10625 578.1651 193.80937 576.587Q194.52812 575.00885 195.825 574.1807Q197.1375 573.337 198.80937 573.337Q200.52812 573.337 201.825 574.1651Q203.1375 574.9932 203.84062 576.57135Q204.54375 578.13385 204.54375 580.212L204.54375 581.1026ZM202.66875 580.19635Q202.66875 577.6651 201.65312 576.32135Q200.6375 574.962 198.80937 574.962Q197.04375 574.962 196.0125 576.32135Q194.99687 577.6651 194.96562 580.0557L194.96562 581.1026Q194.96562 583.5557 195.99687 584.962Q197.02812 586.3682 198.84062 586.3682Q200.65312 586.3682 201.6375 585.0401Q202.6375 583.712 202.66875 581.2432L202.66875 580.19635ZM212.80937 582.00885L209.48125 582.00885L209.48125 587.75885L207.59062 587.75885L207.59062 573.5401L212.29375 573.5401Q214.7 573.5401 215.99687 574.63385Q217.29375 575.7276 217.29375 577.82135Q217.29375 579.1495 216.575 580.13385Q215.85625 581.1182 214.575 581.6026L217.91875 587.63385L217.91875 587.75885L215.90312 587.75885L212.80937 582.00885ZM209.48125 580.4776L212.35625 580.4776Q213.74687 580.4776 214.575 579.75885Q215.40312 579.0245 215.40312 577.82135Q215.40312 576.4932 214.60625 575.7901Q213.825 575.087 212.34062 575.087L209.48125 575.087L209.48125 580.4776ZM219.60625 587.75885L219.60625 573.5401L223.62187 573.5401Q225.46562 573.5401 226.8875 574.3682Q228.325 575.1807 229.09062 576.69635Q229.87187 578.212 229.8875 580.1651L229.8875 581.07135Q229.8875 583.087 229.10625 584.6026Q228.325 586.1182 226.8875 586.9307Q225.45 587.7432 223.54375 587.75885L219.60625 587.75885ZM221.48125 575.087L221.48125 586.2276L223.45 586.2276Q225.62187 586.2276 226.825 584.88385Q228.02812 583.5245 228.02812 581.0401L228.02812 580.212Q228.02812 577.7901 226.8875 576.44635Q225.74687 575.1026 223.66875 575.087L221.48125 575.087ZM243.52812 587.75885L241.6375 587.75885L234.48125 576.8057L234.48125 587.75885L232.60625 587.75885L232.60625 573.5401L234.48125 573.5401L241.66875 584.5401L241.66875 573.5401L243.52812 573.5401L243.52812 587.75885ZM254.6375 581.1807L248.48125 581.1807L248.48125 586.2276L255.6375 586.2276L255.6375 587.75885L246.60625 587.75885L246.60625 573.5401L255.54375 573.5401L255.54375 575.087L248.48125 575.087L248.48125 579.6495L254.6375 579.6495L254.6375 581.1807ZM267.41876 575.087L262.85626 575.087L262.85626 587.75885L260.9969 587.75885L260.9969 575.087L256.4344 575.087L256.4344 573.5401L267.41876 573.5401L267.41876 575.087Z" fill-rule="nonzero"/><path fill="#757575" d="M212.30937 619.7758L216.37187 608.04144L218.41875 608.04144L213.15312 622.2602L211.48125 622.2602L206.23125 608.04144L208.2625 608.04144L212.30937 619.7758ZM228.45 618.54144L222.49687 618.54144L221.15312 622.2602L219.23125 622.2602L224.65312 608.04144L226.29375 608.04144L231.73125 622.2602L229.80937 622.2602L228.45 618.54144ZM223.05937 617.0102L227.90312 617.0102L225.48125 610.35394L223.05937 617.0102ZM233.60625 622.2602L233.60625 608.04144L237.62187 608.04144Q239.46562 608.04144 240.8875 608.86957Q242.325 609.68207 243.09062 611.1977Q243.87187 612.7133 243.8875 614.66644L243.8875 615.5727Q243.8875 617.5883 243.10625 619.10394Q242.325 620.61957 240.8875 621.43207Q239.45 622.24457 237.54375 622.2602L233.60625 622.2602ZM235.48125 609.5883L235.48125 620.72894L237.45 620.72894Q239.62187 620.72894 240.825 619.3852Q242.02812 618.0258 242.02812 615.54144L242.02812 614.7133Q242.02812 612.29144 240.8875 610.9477Q239.74687 609.60394 237.66875 609.5883L235.48125 609.5883ZM254.6375 615.68207L248.48125 615.68207L248.48125 620.72894L255.6375 620.72894L255.6375 622.2602L246.60625 622.2602L246.60625 608.04144L255.54375 608.04144L255.54375 609.5883L248.48125 609.5883L248.48125 614.1508L254.6375 614.1508L254.6375 615.68207ZM262.8094 616.5102L259.48126 616.5102L259.48126 622.2602L257.59064 622.2602L257.59064 608.04144L262.29376 608.04144Q264.7 608.04144 265.9969 609.1352Q267.29376 610.22894 267.29376 612.3227Q267.29376 613.6508 266.575 614.6352Q265.85626 615.61957 264.575 616.10394L267.91876 622.1352L267.91876 622.2602L265.90314 622.2602L262.8094 616.5102ZM259.48126 614.97894L262.35626 614.97894Q263.7469 614.97894 264.575 614.2602Q265.40314 613.5258 265.40314 612.3227Q265.40314 610.99457 264.60626 610.29144Q263.825 609.5883 262.34064 609.5883L259.48126 609.5883L259.48126 614.97894Z" fill-rule="nonzero"/><path fill="#757575" d="M202.60625 642.54285L202.60625 652.2147Q202.60625 654.2147 201.34062 655.496Q200.09062 656.7772 197.95 656.9335L197.45 656.9647Q195.10625 656.9647 193.71562 655.6991Q192.34062 654.4335 192.325 652.23035L192.325 642.54285L194.16875 642.54285L194.16875 652.16785Q194.16875 653.7147 195.0125 654.5741Q195.87187 655.41785 197.45 655.41785Q199.04375 655.41785 199.8875 654.5741Q200.73125 653.73035 200.73125 652.1835L200.73125 642.54285L202.60625 642.54285ZM208.02812 642.54285L212.66875 654.1366L217.325 642.54285L219.74687 642.54285L219.74687 656.7616L217.87187 656.7616L217.87187 651.23035L218.05937 645.246L213.3875 656.7616L211.95 656.7616L207.29375 645.2772L207.48125 651.23035L207.48125 656.7616L205.60625 656.7616L205.60625 642.54285L208.02812 642.54285ZM224.60625 656.7616L222.73125 656.7616L222.73125 642.54285L224.60625 642.54285L224.60625 656.7616ZM238.10625 654.9022Q237.37187 655.9335 236.075 656.4491Q234.79375 656.9647 233.075 656.9647Q231.325 656.9647 229.98125 656.1522Q228.6375 655.3241 227.90312 653.8241Q227.16875 652.3241 227.1375 650.3397L227.1375 649.0897Q227.1375 645.8866 228.6375 644.121Q230.1375 642.3397 232.85625 642.3397Q235.075 642.3397 236.43437 643.48035Q237.79375 644.621 238.10625 646.7147L236.23125 646.7147Q235.7 643.8866 232.87187 643.8866Q230.98125 643.8866 230.0125 645.2147Q229.04375 646.54285 229.02812 649.04285L229.02812 650.2147Q229.02812 652.60535 230.12187 654.0116Q231.21562 655.41785 233.075 655.41785Q234.1375 655.41785 234.91875 655.1835Q235.71562 654.9491 236.23125 654.4022L236.23125 651.1991L232.95 651.1991L232.95 649.6835L238.10625 649.6835L238.10625 654.9022ZM252.54375 650.10535Q252.54375 652.1991 251.84062 653.7616Q251.1375 655.3085 249.84062 656.1366Q248.55937 656.9647 246.84062 656.9647Q245.15312 656.9647 243.85625 656.1366Q242.55937 655.3085 241.84062 653.7772Q241.12187 652.246 241.10625 650.23035L241.10625 649.2147Q241.10625 647.16785 241.80937 645.5897Q242.52812 644.0116 243.825 643.1835Q245.1375 642.3397 246.80937 642.3397Q248.52812 642.3397 249.825 643.16785Q251.1375 643.996 251.84062 645.5741Q252.54375 647.1366 252.54375 649.2147L252.54375 650.10535ZM250.66875 649.1991Q250.66875 646.66785 249.65312 645.3241Q248.6375 643.9647 246.80937 643.9647Q245.04375 643.9647 244.0125 645.3241Q242.99687 646.66785 242.96562 649.0585L242.96562 650.10535Q242.96562 652.5585 243.99687 653.9647Q245.02812 655.371 246.84062 655.371Q248.65312 655.371 249.6375 654.04285Q250.6375 652.7147 250.66875 650.246L250.66875 649.1991ZM266.52814 656.7616L264.6375 656.7616L257.48126 645.8085L257.48126 656.7616L255.60625 656.7616L255.60625 642.54285L257.48126 642.54285L264.66876 653.54285L264.66876 642.54285L266.52814 642.54285L266.52814 656.7616Z" fill-rule="nonzero"/><path fill="#757575" d="M280.5125 687.40936Q280.5125 689.3156 279.85626 690.2531Q279.21564 691.175 277.825 691.175Q276.46564 691.175 275.8094 690.26874Q275.15314 689.3625 275.1219 687.55L275.1219 686.1125Q275.1219 684.22186 275.7625 683.3156Q276.41876 682.39374 277.8094 682.39374Q279.1844 682.39374 279.84064 683.28436Q280.4969 684.15936 280.5125 686.0031L280.5125 687.40936ZM279.41876 685.925Q279.41876 684.55 279.02814 683.925Q278.65314 683.28436 277.8094 683.28436Q276.98126 683.28436 276.59064 683.925Q276.21564 684.55 276.21564 685.84686L276.21564 687.58124Q276.21564 688.95624 276.60626 689.6281Q277.0125 690.28436 277.825 690.28436Q278.6219 690.28436 279.0125 689.65936Q279.40314 689.03436 279.41876 687.70624L279.41876 685.925Z" fill-rule="nonzero"/><path fill="#757575" d="M520.77185 691.05L515.1781 691.05L515.1781 690.26874L518.1312 686.9875Q518.7875 686.2375 519.0375 685.78436Q519.2875 685.3156 519.2875 684.8156Q519.2875 684.14374 518.8812 683.72186Q518.4906 683.28436 517.8031 683.28436Q517.0062 683.28436 516.5531 683.7531Q516.1 684.20624 516.1 685.03436L515.02185 685.03436Q515.02185 683.84686 515.77185 683.1281Q516.5375 682.39374 517.8031 682.39374Q519.0062 682.39374 519.6937 683.01874Q520.3812 683.64374 520.3812 684.6906Q520.3812 685.9406 518.77185 687.6906L516.4906 690.15936L520.77185 690.15936L520.77185 691.05ZM522.6781 686.76874L523.1156 682.51874L527.4906 682.51874L527.4906 683.51874L524.0375 683.51874L523.77185 685.84686Q524.4125 685.47186 525.20935 685.47186Q526.3656 685.47186 527.0531 686.2531Q527.7406 687.01874 527.7406 688.33124Q527.7406 689.64374 527.02185 690.40936Q526.3187 691.175 525.0375 691.175Q523.9125 691.175 523.1937 690.55Q522.475 689.90936 522.3812 688.8L523.39685 688.8Q523.5062 689.53436 523.9281 689.90936Q524.35 690.28436 525.0375 690.28436Q525.7875 690.28436 526.225 689.76874Q526.6625 689.2531 526.6625 688.34686Q526.6625 687.4875 526.1937 686.97186Q525.725 686.45624 524.9437 686.45624Q524.2406 686.45624 523.83435 686.7531L523.5531 686.9875L522.6781 686.76874Z" fill-rule="nonzero"/><path fill="#757575" d="M759.2031 686.76874L759.6406 682.51874L764.0156 682.51874L764.0156 683.51874L760.5625 683.51874L760.2969 685.84686Q760.9375 685.47186 761.7344 685.47186Q762.8906 685.47186 763.5781 686.2531Q764.2656 687.01874 764.2656 688.33124Q764.2656 689.64374 763.5469 690.40936Q762.84375 691.175 761.5625 691.175Q760.4375 691.175 759.71875 690.55Q759.0 689.90936 758.90625 688.8L759.9219 688.8Q760.03125 689.53436 760.4531 689.90936Q760.875 690.28436 761.5625 690.28436Q762.3125 690.28436 762.75 689.76874Q763.1875 689.2531 763.1875 688.34686Q763.1875 687.4875 762.71875 686.97186Q762.25 686.45624 761.46875 686.45624Q760.7656 686.45624 760.3594 686.7531L760.0781 686.9875L759.2031 686.76874ZM771.0625 687.40936Q771.0625 689.3156 770.40625 690.2531Q769.7656 691.175 768.375 691.175Q767.0156 691.175 766.3594 690.26874Q765.7031 689.3625 765.6719 687.55L765.6719 686.1125Q765.6719 684.22186 766.3125 683.3156Q766.96875 682.39374 768.3594 682.39374Q769.7344 682.39374 770.3906 683.28436Q771.0469 684.15936 771.0625 686.0031L771.0625 687.40936ZM769.96875 685.925Q769.96875 684.55 769.5781 683.925Q769.2031 683.28436 768.3594 683.28436Q767.53125 683.28436 767.1406 683.925Q766.7656 684.55 766.7656 685.84686L766.7656 687.58124Q766.7656 688.95624 767.15625 689.6281Q767.5625 690.28436 768.375 690.28436Q769.1719 690.28436 769.5625 689.65936Q769.9531 689.03436 769.96875 687.70624L769.96875 685.925Z" fill-rule="nonzero"/><path fill="#757575" d="M1007.7438 683.1281L1004.2125 691.05L1003.0719 691.05L1006.5875 683.40936L1001.97815 683.40936L1001.97815 682.51874L1007.7438 682.51874L1007.7438 683.1281ZM1009.72815 686.76874L1010.16565 682.51874L1014.54065 682.51874L1014.54065 683.51874L1011.0875 683.51874L1010.8219 685.84686Q1011.4625 685.47186 1012.2594 685.47186Q1013.41565 685.47186 1014.10315 686.2531Q1014.79065 687.01874 1014.79065 688.33124Q1014.79065 689.64374 1014.0719 690.40936Q1013.3688 691.175 1012.0875 691.175Q1010.9625 691.175 1010.2438 690.55Q1009.525 689.90936 1009.4313 688.8L1010.4469 688.8Q1010.5563 689.53436 1010.97815 689.90936Q1011.4 690.28436 1012.0875 690.28436Q1012.8375 690.28436 1013.275 689.76874Q1013.7125 689.2531 1013.7125 688.34686Q1013.7125 687.4875 1013.2438 686.97186Q1012.775 686.45624 1011.9938 686.45624Q1011.29065 686.45624 1010.8844 686.7531L1010.60315 686.9875L1009.72815 686.76874Z" fill-rule="nonzero"/><path fill="#757575" d="M1245.8157 691.05L1244.7375 691.05L1244.7375 683.83124L1242.55 684.6281L1242.55 683.64374L1245.6594 682.47186L1245.8157 682.47186L1245.8157 691.05ZM1254.6125 687.40936Q1254.6125 689.3156 1253.9563 690.2531Q1253.3157 691.175 1251.925 691.175Q1250.5657 691.175 1249.9094 690.26874Q1249.2532 689.3625 1249.2219 687.55L1249.2219 686.1125Q1249.2219 684.22186 1249.8625 683.3156Q1250.5188 682.39374 1251.9094 682.39374Q1253.2844 682.39374 1253.9407 683.28436Q1254.5969 684.15936 1254.6125 686.0031L1254.6125 687.40936ZM1253.5188 685.925Q1253.5188 684.55 1253.1282 683.925Q1252.7532 683.28436 1251.9094 683.28436Q1251.0813 683.28436 1250.6907 683.925Q1250.3157 684.55 1250.3157 685.84686L1250.3157 687.58124Q1250.3157 688.95624 1250.7063 689.6281Q1251.1125 690.28436 1251.925 690.28436Q1252.7219 690.28436 1253.1125 689.65936Q1253.5032 689.03436 1253.5188 687.70624L1253.5188 685.925ZM1261.6125 687.40936Q1261.6125 689.3156 1260.9563 690.2531Q1260.3157 691.175 1258.925 691.175Q1257.5657 691.175 1256.9094 690.26874Q1256.2532 689.3625 1256.2219 687.55L1256.2219 686.1125Q1256.2219 684.22186 1256.8625 683.3156Q1257.5188 682.39374 1258.9094 682.39374Q1260.2844 682.39374 1260.9407 683.28436Q1261.5969 684.15936 1261.6125 686.0031L1261.6125 687.40936ZM1260.5188 685.925Q1260.5188 684.55 1260.1282 683.925Q1259.7532 683.28436 1258.9094 683.28436Q1258.0813 683.28436 1257.6907 683.925Q1257.3157 684.55 1257.3157 685.84686L1257.3157 687.58124Q1257.3157 688.95624 1257.7063 689.6281Q1258.1125 690.28436 1258.925 690.28436Q1259.7219 690.28436 1260.1125 689.65936Q1260.5032 689.03436 1260.5188 687.70624L1260.5188 685.925Z" fill-rule="nonzero"/></svg>