<svg version="1.1" viewBox="0.0 0.0 600.0 371.0" fill="none" stroke="none" stroke-linecap="square" stroke-miterlimit="10" width="600" height="371" xmlns:xlink="http://www.w3.org/1999/xlink" xmlns="http://www.w3.org/2000/svg"><path fill="#ffffff" d="M0 0L600.0 0L600.0 371.0L0 371.0L0 0Z" fill-rule="nonzero"/><path fill="#4a86e8" d="M154.65303 189.80666C162.9881 115.830864 225.5561 59.916668 300.0 59.916668L300.0 206.18333Z" fill-rule="nonzero"/><path fill="#ff00ff" d="M153.73334 206.18333C153.73334 200.71153 154.04037 195.24405 154.65303 189.80666L300.0 206.18333Z" fill-rule="nonzero"/><path fill="#f1c232" d="M300.0 59.916668C380.78085 59.916668 446.26666 125.40248 446.26666 206.18333C446.26666 286.96417 380.78085 352.45 300.0 352.45C219.21915 352.45 153.73334 286.96417 153.73334 206.18333L300.0 206.18333Z" fill-rule="nonzero"/><path fill="#757575" d="M26.065624 93.27699Q26.065624 92.54262 25.51875 92.13637Q24.971874 91.73012 23.596874 91.43324Q22.221874 91.13637 21.409374 90.73012Q20.6125 90.32387 20.221874 89.76137Q19.846874 89.18324 19.846874 88.40199Q19.846874 87.10512 20.940624 86.21449Q22.034374 85.30824 23.753124 85.30824Q25.55 85.30824 26.659374 86.24574Q27.784374 87.16762 27.784374 88.60512L25.95625 88.60512Q25.95625 87.87074 25.33125 87.33949Q24.70625 86.79262 23.753124 86.79262Q22.753124 86.79262 22.190624 87.23012Q21.64375 87.65199 21.64375 88.35512Q21.64375 88.99574 22.159374 89.33949Q22.675 89.66762 24.034374 89.98012Q25.39375 90.27699 26.221874 90.69887Q27.065624 91.10512 27.471874 91.69887Q27.878124 92.29262 27.878124 93.13637Q27.878124 94.55824 26.7375 95.41762Q25.6125 96.27699 23.8 96.27699Q22.534374 96.27699 21.55 95.82387Q20.58125 95.37074 20.01875 94.57387Q19.471874 93.76137 19.471874 92.82387L21.284374 92.82387Q21.33125 93.73012 22.003124 94.26137Q22.690624 94.79262 23.8 94.79262Q24.83125 94.79262 25.440624 94.38637Q26.065624 93.96449 26.065624 93.27699ZM33.378124 93.43324L35.83125 85.51137L37.76875 85.51137L33.51875 97.69887Q32.534374 100.33949 30.39375 100.33949L30.05 100.30824L29.378124 100.18324L29.378124 98.71449L29.8625 98.76137Q30.784374 98.76137 31.284374 98.38637Q31.8 98.01137 32.128124 97.02699L32.534374 95.94887L28.76875 85.51137L30.7375 85.51137L33.378124 93.43324ZM40.628124 85.51137L40.690624 86.83949Q41.89375 85.30824 43.846874 85.30824Q47.20625 85.30824 47.221874 89.08949L47.221874 96.07387L45.425 96.07387L45.425 89.07387Q45.409374 87.93324 44.89375 87.38637Q44.39375 86.83949 43.3 86.83949Q42.425 86.83949 41.753124 87.30824Q41.096874 87.77699 40.721874 88.54262L40.721874 96.07387L38.925 96.07387L38.925 85.51137L40.628124 85.51137ZM52.3625 82.94887L52.3625 85.51137L54.346874 85.51137L54.346874 86.90199L52.3625 86.90199L52.3625 93.44887Q52.3625 94.08949 52.628124 94.41762Q52.89375 94.73012 53.534374 94.73012Q53.846874 94.73012 54.39375 94.60512L54.39375 96.07387Q53.675 96.27699 53.003124 96.27699Q51.8 96.27699 51.175 95.54262Q50.565624 94.80824 50.565624 93.44887L50.565624 86.90199L48.64375 86.90199L48.64375 85.51137L50.565624 85.51137L50.565624 82.94887L52.3625 82.94887ZM63.440624 96.07387Q63.284374 95.76137 63.190624 94.96449Q61.925 96.27699 60.175 96.27699Q58.6125 96.27699 57.6125 95.38637Q56.6125 94.49574 56.6125 93.13637Q56.6125 91.49574 57.8625 90.58949Q59.128124 89.66762 61.39375 89.66762L63.159374 89.66762L63.159374 88.83949Q63.159374 87.88637 62.58125 87.32387Q62.01875 86.76137 60.925 86.76137Q59.95625 86.76137 59.3 87.26137Q58.64375 87.74574 58.64375 88.43324L56.83125 88.43324Q56.83125 87.65199 57.39375 86.91762Q57.95625 86.16762 58.909374 85.74574Q59.878124 85.30824 61.034374 85.30824Q62.8625 85.30824 63.89375 86.23012Q64.925 87.13637 64.97188 88.74574L64.97188 93.60512Q64.97188 95.05824 65.33125 95.91762L65.33125 96.07387L63.440624 96.07387ZM60.440624 94.69887Q61.3 94.69887 62.05 94.26137Q62.815624 93.82387 63.159374 93.12074L63.159374 90.94887L61.7375 90.94887Q58.425 90.94887 58.425 92.88637Q58.425 93.74574 58.9875 94.23012Q59.55 94.69887 60.440624 94.69887ZM71.45625 89.37074L73.8 85.51137L75.90938 85.51137L72.45625 90.73012L76.01875 96.07387L73.94063 96.07387L71.4875 92.12074L69.05 96.07387L66.95625 96.07387L70.51875 90.73012L67.06563 85.51137L69.14375 85.51137L71.45625 89.37074Z" fill-rule="nonzero"/><path fill="#9e9e9e" d="M29.05 123.07387L19.7375 123.07387L19.7375 121.77699L24.659374 116.30824Q25.753124 115.05824 26.159374 114.29262Q26.58125 113.51137 26.58125 112.68324Q26.58125 111.57387 25.909374 110.85512Q25.2375 110.13637 24.1125 110.13637Q22.753124 110.13637 22.003124 110.91762Q21.26875 111.68324 21.26875 113.04262L19.45625 113.04262Q19.45625 111.07387 20.721874 109.87074Q21.9875 108.65199 24.1125 108.65199Q26.096874 108.65199 27.2375 109.69887Q28.39375 110.74574 28.39375 112.46449Q28.39375 114.57387 25.721874 117.46449L21.909374 121.60512L29.05 121.60512L29.05 123.07387ZM33.3625 115.08949L34.721874 115.08949Q36.003124 115.05824 36.721874 114.41762Q37.45625 113.76137 37.45625 112.63637Q37.45625 110.13637 34.971874 110.13637Q33.8 110.13637 33.096874 110.80824Q32.409374 111.48012 32.409374 112.58949L30.596874 112.58949Q30.596874 110.90199 31.83125 109.77699Q33.065624 108.65199 34.971874 108.65199Q36.9875 108.65199 38.128124 109.73012Q39.26875 110.79262 39.26875 112.68324Q39.26875 113.60512 38.659374 114.48012Q38.065624 115.35512 37.034374 115.77699Q38.20625 116.15199 38.846874 117.01137Q39.4875 117.87074 39.4875 119.10512Q39.4875 121.02699 38.2375 122.15199Q36.9875 123.27699 34.971874 123.27699Q32.971874 123.27699 31.721874 122.19887Q30.471874 121.10512 30.471874 119.32387L32.284374 119.32387Q32.284374 120.44887 33.01875 121.12074Q33.753124 121.79262 34.9875 121.79262Q36.284374 121.79262 36.971874 121.12074Q37.675 120.43324 37.675 119.15199Q37.675 117.90199 36.909374 117.24574Q36.159374 116.57387 34.721874 116.55824L33.3625 116.55824L33.3625 115.08949ZM41.95625 122.12074Q41.95625 121.65199 42.2375 121.33949Q42.51875 121.02699 43.065624 121.02699Q43.628124 121.02699 43.909374 121.33949Q44.20625 121.65199 44.20625 122.12074Q44.20625 122.57387 43.909374 122.88637Q43.628124 123.18324 43.065624 123.18324Q42.51875 123.18324 42.2375 122.88637Q41.95625 122.57387 41.95625 122.12074ZM56.05 123.07387L46.7375 123.07387L46.7375 121.77699L51.659374 116.30824Q52.753124 115.05824 53.159374 114.29262Q53.58125 113.51137 53.58125 112.68324Q53.58125 111.57387 52.909374 110.85512Q52.2375 110.13637 51.1125 110.13637Q49.753124 110.13637 49.003124 110.91762Q48.26875 111.68324 48.26875 113.04262L46.45625 113.04262Q46.45625 111.07387 47.721874 109.87074Q48.9875 108.65199 51.1125 108.65199Q53.096874 108.65199 54.2375 109.69887Q55.39375 110.74574 55.39375 112.46449Q55.39375 114.57387 52.721874 117.46449L48.909374 121.60512L56.05 121.60512L56.05 123.07387ZM57.58125 111.58949Q57.58125 110.30824 58.39375 109.48012Q59.20625 108.65199 60.4875 108.65199Q61.784374 108.65199 62.58125 109.49574Q63.39375 110.32387 63.39375 111.65199L63.39375 112.33949Q63.39375 113.63637 62.58125 114.44887Q61.76875 115.26137 60.503124 115.26137Q59.2375 115.26137 58.409374 114.44887Q57.58125 113.63637 57.58125 112.27699L57.58125 111.58949ZM58.925 112.33949Q58.925 113.10512 59.346874 113.60512Q59.784374 114.08949 60.503124 114.08949Q61.20625 114.08949 61.628124 113.62074Q62.05 113.13637 62.05 112.30824L62.05 111.58949Q62.05 110.82387 61.628124 110.32387Q61.20625 109.82387 60.4875 109.82387Q59.76875 109.82387 59.346874 110.32387Q58.925 110.82387 58.925 111.62074L58.925 112.33949ZM64.50313 119.58949Q64.50313 118.30824 65.31563 117.48012Q66.12813 116.65199 67.40938 116.65199Q68.69063 116.65199 69.50313 117.48012Q70.33125 118.29262 70.33125 119.65199L70.33125 120.35512Q70.33125 121.62074 69.51875 122.44887Q68.70625 123.27699 67.425 123.27699Q66.15938 123.27699 65.33125 122.46449Q64.50313 121.65199 64.50313 120.29262L64.50313 119.58949ZM65.84688 120.35512Q65.84688 121.12074 66.26875 121.62074Q66.70625 122.10512 67.425 122.10512Q68.12813 122.10512 68.55 121.62074Q68.97188 121.13637 68.97188 120.30824L68.97188 119.58949Q68.97188 118.80824 68.55 118.32387Q68.12813 117.83949 67.40938 117.83949Q66.72188 117.83949 66.28438 118.32387Q65.84688 118.80824 65.84688 119.62074L65.84688 120.35512ZM60.909374 121.99574L59.89375 121.35512L66.83125 110.24574L67.8625 110.88637L60.909374 121.99574Z" fill-rule="nonzero"/><path stroke="#757575" stroke-width="1.0" stroke-linecap="butt" d="M18.55 102.57387L147.73334 102.57387L207.40892 102.57387" fill-rule="nonzero"/><path fill="#9e9e9e" d="M209.40892 102.57387C209.40892 101.4693 208.51349 100.57387 207.40892 100.57387C206.30435 100.57387 205.40892 101.4693 205.40892 102.57387C205.40892 103.67844 206.30435 104.57387 207.40892 104.57387C208.51349 104.57387 209.40892 103.67844 209.40892 102.57387" fill-rule="nonzero"/><path fill="#757575" d="M26.065624 189.09528Q26.065624 188.3609 25.51875 187.95465Q24.971874 187.5484 23.596874 187.25153Q22.221874 186.95465 21.409374 186.5484Q20.6125 186.14215 20.221874 185.57965Q19.846874 185.00153 19.846874 184.22028Q19.846874 182.9234 20.940624 182.03278Q22.034374 181.12653 23.753124 181.12653Q25.55 181.12653 26.659374 182.06403Q27.784374 182.9859 27.784374 184.4234L25.95625 184.4234Q25.95625 183.68903 25.33125 183.15778Q24.70625 182.6109 23.753124 182.6109Q22.753124 182.6109 22.190624 183.0484Q21.64375 183.47028 21.64375 184.1734Q21.64375 184.81403 22.159374 185.15778Q22.675 185.4859 24.034374 185.7984Q25.39375 186.09528 26.221874 186.51715Q27.065624 186.9234 27.471874 187.51715Q27.878124 188.1109 27.878124 188.95465Q27.878124 190.37653 26.7375 191.2359Q25.6125 192.09528 23.8 192.09528Q22.534374 192.09528 21.55 191.64215Q20.58125 191.18903 20.01875 190.39215Q19.471874 189.57965 19.471874 188.64215L21.284374 188.64215Q21.33125 189.5484 22.003124 190.07965Q22.690624 190.6109 23.8 190.6109Q24.83125 190.6109 25.440624 190.20465Q26.065624 189.78278 26.065624 189.09528ZM32.3625 178.76715L32.3625 181.32965L34.346874 181.32965L34.346874 182.72028L32.3625 182.72028L32.3625 189.26715Q32.3625 189.90778 32.628124 190.2359Q32.89375 190.5484 33.534374 190.5484Q33.846874 190.5484 34.39375 190.4234L34.39375 191.89215Q33.675 192.09528 33.003124 192.09528Q31.8 192.09528 31.175 191.3609Q30.565624 190.62653 30.565624 189.26715L30.565624 182.72028L28.64375 182.72028L28.64375 181.32965L30.565624 181.32965L30.565624 178.76715L32.3625 178.76715ZM40.378124 189.25153L42.83125 181.32965L44.76875 181.32965L40.51875 193.51715Q39.534374 196.15778 37.39375 196.15778L37.05 196.12653L36.378124 196.00153L36.378124 194.53278L36.8625 194.57965Q37.784374 194.57965 38.284374 194.20465Q38.8 193.82965 39.128124 192.84528L39.534374 191.76715L35.76875 181.32965L37.7375 181.32965L40.378124 189.25153ZM47.878124 191.89215L46.08125 191.89215L46.08125 176.89215L47.878124 176.89215L47.878124 191.89215ZM55.3 192.09528Q53.159374 192.09528 51.8 190.68903Q50.45625 189.26715 50.45625 186.90778L50.45625 186.56403Q50.45625 185.00153 51.05 183.76715Q51.659374 182.53278 52.7375 181.82965Q53.815624 181.12653 55.08125 181.12653Q57.14375 181.12653 58.284374 182.4859Q59.425 183.84528 59.425 186.37653L59.425 187.12653L52.26875 187.12653Q52.3 188.68903 53.175 189.65778Q54.05 190.6109 55.39375 190.6109Q56.3625 190.6109 57.01875 190.22028Q57.690624 189.82965 58.190624 189.18903L59.284374 190.0484Q57.95625 192.09528 55.3 192.09528ZM55.08125 182.6109Q53.9875 182.6109 53.2375 183.40778Q52.503124 184.20465 52.33125 185.64215L57.6125 185.64215L57.6125 185.50153Q57.534374 184.12653 56.8625 183.37653Q56.20625 182.6109 55.08125 182.6109Z" fill-rule="nonzero"/><path fill="#9e9e9e" d="M25.675 218.89215L23.846874 218.89215L23.846874 206.84528L20.20625 208.18903L20.20625 206.5484L25.39375 204.6109L25.675 204.6109L25.675 218.89215ZM30.95625 217.93903Q30.95625 217.47028 31.2375 217.15778Q31.51875 216.84528 32.065624 216.84528Q32.628124 216.84528 32.909374 217.15778Q33.20625 217.47028 33.20625 217.93903Q33.20625 218.39215 32.909374 218.70465Q32.628124 219.00153 32.065624 219.00153Q31.51875 219.00153 31.2375 218.70465Q30.95625 218.39215 30.95625 217.93903ZM44.3625 208.37653Q44.3625 209.45465 43.8 210.28278Q43.2375 211.1109 42.26875 211.57965Q43.39375 212.0484 44.034374 212.97028Q44.690624 213.89215 44.690624 215.0484Q44.690624 216.89215 43.440624 218.00153Q42.190624 219.09528 40.159374 219.09528Q38.1125 219.09528 36.878124 218.00153Q35.64375 216.89215 35.64375 215.0484Q35.64375 213.90778 36.26875 212.9859Q36.909374 212.0484 38.01875 211.56403Q37.065624 211.09528 36.51875 210.26715Q35.971874 209.43903 35.971874 208.37653Q35.971874 206.57965 37.128124 205.53278Q38.284374 204.47028 40.159374 204.47028Q42.034374 204.47028 43.190624 205.53278Q44.3625 206.57965 44.3625 208.37653ZM42.878124 215.01715Q42.878124 213.82965 42.1125 213.07965Q41.3625 212.31403 40.14375 212.31403Q38.925 212.31403 38.190624 213.06403Q37.45625 213.7984 37.45625 215.01715Q37.45625 216.22028 38.175 216.9234Q38.89375 217.6109 40.159374 217.6109Q41.440624 217.6109 42.159374 216.9234Q42.878124 216.22028 42.878124 215.01715ZM40.159374 205.95465Q39.096874 205.95465 38.440624 206.62653Q37.784374 207.28278 37.784374 208.40778Q37.784374 209.50153 38.425 210.1734Q39.08125 210.82965 40.159374 210.82965Q41.253124 210.82965 41.89375 210.1734Q42.55 209.50153 42.55 208.4234Q42.55 207.32965 41.878124 206.64215Q41.20625 205.95465 40.159374 205.95465ZM46.58125 207.40778Q46.58125 206.12653 47.39375 205.2984Q48.20625 204.47028 49.4875 204.47028Q50.784374 204.47028 51.58125 205.31403Q52.39375 206.14215 52.39375 207.47028L52.39375 208.15778Q52.39375 209.45465 51.58125 210.26715Q50.76875 211.07965 49.503124 211.07965Q48.2375 211.07965 47.409374 210.26715Q46.58125 209.45465 46.58125 208.09528L46.58125 207.40778ZM47.925 208.15778Q47.925 208.9234 48.346874 209.4234Q48.784374 209.90778 49.503124 209.90778Q50.20625 209.90778 50.628124 209.43903Q51.05 208.95465 51.05 208.12653L51.05 207.40778Q51.05 206.64215 50.628124 206.14215Q50.20625 205.64215 49.4875 205.64215Q48.76875 205.64215 48.346874 206.14215Q47.925 206.64215 47.925 207.43903L47.925 208.15778ZM53.503124 215.40778Q53.503124 214.12653 54.315624 213.2984Q55.128124 212.47028 56.409374 212.47028Q57.690624 212.47028 58.503124 213.2984Q59.33125 214.1109 59.33125 215.47028L59.33125 216.1734Q59.33125 217.43903 58.51875 218.26715Q57.70625 219.09528 56.425 219.09528Q55.159374 219.09528 54.33125 218.28278Q53.503124 217.47028 53.503124 216.1109L53.503124 215.40778ZM54.846874 216.1734Q54.846874 216.93903 55.26875 217.43903Q55.70625 217.9234 56.425 217.9234Q57.128124 217.9234 57.55 217.43903Q57.971874 216.95465 57.971874 216.12653L57.971874 215.40778Q57.971874 214.62653 57.55 214.14215Q57.128124 213.65778 56.409374 213.65778Q55.721874 213.65778 55.284374 214.14215Q54.846874 214.62653 54.846874 215.43903L54.846874 216.1734ZM49.909374 217.81403L48.89375 217.1734L55.83125 206.06403L56.8625 206.70465L49.909374 217.81403Z" fill-rule="nonzero"/><path stroke="#757575" stroke-width="1.0" stroke-linecap="butt" d="M18.55 198.39215L147.73334 198.39215L161.26526 198.39215" fill-rule="nonzero"/><path fill="#9e9e9e" d="M163.26526 198.39215C163.26526 197.28758 162.36984 196.39215 161.26526 196.39215C160.16069 196.39215 159.26526 197.28758 159.26526 198.39215C159.26526 199.49673 160.16069 200.39215 161.26526 200.39215C162.36984 200.39215 163.26526 199.49673 163.26526 198.39215" fill-rule="nonzero"/><path fill="#757575" d="M519.0594 296.65692Q520.02814 296.65692 520.7469 296.0788Q521.46564 295.48505 521.54376 294.61005L523.2625 294.61005Q523.2 295.5163 522.6219 296.34442Q522.0594 297.15692 521.09064 297.65692Q520.1375 298.1413 519.0594 298.1413Q516.90314 298.1413 515.6219 296.7038Q514.35626 295.25067 514.35626 292.75067L514.35626 292.4538Q514.35626 290.90692 514.91876 289.7038Q515.48126 288.50067 516.54376 287.84442Q517.60626 287.17255 519.04376 287.17255Q520.825 287.17255 521.9969 288.23505Q523.1844 289.29755 523.2625 291.00067L521.54376 291.00067Q521.46564 289.98505 520.7625 289.3288Q520.075 288.65692 519.04376 288.65692Q517.66876 288.65692 516.90314 289.65692Q516.15314 290.6413 516.15314 292.5163L516.15314 292.86005Q516.15314 294.68817 516.90314 295.67255Q517.65314 296.65692 519.0594 296.65692ZM524.34064 292.56317Q524.34064 291.00067 524.95 289.7663Q525.5594 288.5163 526.6375 287.84442Q527.73126 287.17255 529.1375 287.17255Q531.29376 287.17255 532.6219 288.67255Q533.96564 290.15692 533.96564 292.6413L533.96564 292.7663Q533.96564 294.31317 533.3719 295.54755Q532.77814 296.7663 531.66876 297.4538Q530.575 298.1413 529.15314 298.1413Q527.0125 298.1413 525.66876 296.6413Q524.34064 295.1413 524.34064 292.68817L524.34064 292.56317ZM526.15314 292.7663Q526.15314 294.53192 526.96564 295.59442Q527.79376 296.65692 529.15314 296.65692Q530.52814 296.65692 531.34064 295.5788Q532.15314 294.50067 532.15314 292.56317Q532.15314 290.81317 531.325 289.73505Q530.4969 288.65692 529.1375 288.65692Q527.79376 288.65692 526.96564 289.71942Q526.15314 290.78192 526.15314 292.7663ZM537.52814 287.37567L537.59064 288.7038Q538.79376 287.17255 540.7469 287.17255Q544.10626 287.17255 544.1219 290.9538L544.1219 297.93817L542.325 297.93817L542.325 290.93817Q542.3094 289.79755 541.79376 289.25067Q541.29376 288.7038 540.2 288.7038Q539.325 288.7038 538.65314 289.17255Q537.9969 289.6413 537.6219 290.40692L537.6219 297.93817L535.825 297.93817L535.825 287.37567L537.52814 287.37567ZM549.2625 284.81317L549.2625 287.37567L551.2469 287.37567L551.2469 288.7663L549.2625 288.7663L549.2625 295.31317Q549.2625 295.9538 549.52814 296.28192Q549.79376 296.59442 550.4344 296.59442Q550.7469 296.59442 551.29376 296.46942L551.29376 297.93817Q550.575 298.1413 549.90314 298.1413Q548.7 298.1413 548.075 297.40692Q547.46564 296.67255 547.46564 295.31317L547.46564 288.7663L545.54376 288.7663L545.54376 287.37567L547.46564 287.37567L547.46564 284.81317L549.2625 284.81317ZM558.2 298.1413Q556.0594 298.1413 554.7 296.73505Q553.35626 295.31317 553.35626 292.9538L553.35626 292.61005Q553.35626 291.04755 553.95 289.81317Q554.5594 288.5788 555.6375 287.87567Q556.71564 287.17255 557.98126 287.17255Q560.04376 287.17255 561.1844 288.53192Q562.325 289.8913 562.325 292.42255L562.325 293.17255L555.16876 293.17255Q555.2 294.73505 556.075 295.7038Q556.95 296.65692 558.29376 296.65692Q559.2625 296.65692 559.91876 296.2663Q560.59064 295.87567 561.09064 295.23505L562.1844 296.09442Q560.85626 298.1413 558.2 298.1413ZM557.98126 288.65692Q556.8875 288.65692 556.1375 289.4538Q555.40314 290.25067 555.23126 291.68817L560.5125 291.68817L560.5125 291.54755Q560.4344 290.17255 559.7625 289.42255Q559.10626 288.65692 557.98126 288.65692ZM566.52814 287.37567L566.59064 288.7038Q567.79376 287.17255 569.7469 287.17255Q573.10626 287.17255 573.1219 290.9538L573.1219 297.93817L571.325 297.93817L571.325 290.93817Q571.3094 289.79755 570.79376 289.25067Q570.29376 288.7038 569.2 288.7038Q568.325 288.7038 567.65314 289.17255Q566.9969 289.6413 566.6219 290.40692L566.6219 297.93817L564.825 297.93817L564.825 287.37567L566.52814 287.37567ZM578.2625 284.81317L578.2625 287.37567L580.2469 287.37567L580.2469 288.7663L578.2625 288.7663L578.2625 295.31317Q578.2625 295.9538 578.52814 296.28192Q578.79376 296.59442 579.4344 296.59442Q579.7469 296.59442 580.29376 296.46942L580.29376 297.93817Q579.575 298.1413 578.90314 298.1413Q577.7 298.1413 577.075 297.40692Q576.46564 296.67255 576.46564 295.31317L576.46564 288.7663L574.54376 288.7663L574.54376 287.37567L576.46564 287.37567L576.46564 284.81317L578.2625 284.81317Z" fill-rule="nonzero"/><path fill="#9e9e9e" d="M538.8094 311.73505L532.91876 324.93817L531.02814 324.93817L536.90314 312.2038L529.2 312.2038L529.2 310.71942L538.8094 310.71942L538.8094 311.73505ZM541.46564 317.81317L542.1844 310.71942L549.46564 310.71942L549.46564 312.3913L543.71564 312.3913L543.29376 316.2663Q544.34064 315.65692 545.66876 315.65692Q547.60626 315.65692 548.7469 316.93817Q549.8875 318.21942 549.8875 320.40692Q549.8875 322.61005 548.7 323.87567Q547.5125 325.1413 545.3875 325.1413Q543.4969 325.1413 542.3094 324.09442Q541.1219 323.04755 540.95 321.2038L542.66876 321.2038Q542.825 322.42255 543.52814 323.04755Q544.23126 323.65692 545.3875 323.65692Q546.65314 323.65692 547.3719 322.79755Q548.09064 321.93817 548.09064 320.42255Q548.09064 319.00067 547.3094 318.1413Q546.52814 317.2663 545.2469 317.2663Q544.0594 317.2663 543.3875 317.78192L542.90314 318.17255L541.46564 317.81317ZM551.85626 323.98505Q551.85626 323.5163 552.1375 323.2038Q552.41876 322.8913 552.96564 322.8913Q553.52814 322.8913 553.8094 323.2038Q554.10626 323.5163 554.10626 323.98505Q554.10626 324.43817 553.8094 324.75067Q553.52814 325.04755 552.96564 325.04755Q552.41876 325.04755 552.1375 324.75067Q551.85626 324.43817 551.85626 323.98505ZM565.54376 318.87567Q565.54376 322.04755 564.46564 323.59442Q563.3875 325.1413 561.075 325.1413Q558.79376 325.1413 557.7 323.62567Q556.60626 322.11005 556.575 319.11005L556.575 316.7038Q556.575 313.56317 557.65314 312.04755Q558.7469 310.5163 561.0594 310.5163Q563.35626 310.5163 564.4344 312.00067Q565.5125 313.46942 565.54376 316.53192L565.54376 318.87567ZM563.7469 316.40692Q563.7469 314.11005 563.09064 313.06317Q562.45 312.00067 561.0594 312.00067Q559.66876 312.00067 559.02814 313.04755Q558.40314 314.09442 558.3875 316.2663L558.3875 319.15692Q558.3875 321.4538 559.04376 322.56317Q559.71564 323.65692 561.075 323.65692Q562.41876 323.65692 563.0594 322.62567Q563.71564 321.59442 563.7469 319.36005L563.7469 316.40692ZM567.48126 313.4538Q567.48126 312.17255 568.29376 311.34442Q569.10626 310.5163 570.3875 310.5163Q571.6844 310.5163 572.48126 311.36005Q573.29376 312.18817 573.29376 313.5163L573.29376 314.2038Q573.29376 315.50067 572.48126 316.31317Q571.66876 317.12567 570.40314 317.12567Q569.1375 317.12567 568.3094 316.31317Q567.48126 315.50067 567.48126 314.1413L567.48126 313.4538ZM568.825 314.2038Q568.825 314.96942 569.2469 315.46942Q569.6844 315.9538 570.40314 315.9538Q571.10626 315.9538 571.52814 315.48505Q571.95 315.00067 571.95 314.17255L571.95 313.4538Q571.95 312.68817 571.52814 312.18817Q571.10626 311.68817 570.3875 311.68817Q569.66876 311.68817 569.2469 312.18817Q568.825 312.68817 568.825 313.48505L568.825 314.2038ZM574.40314 321.4538Q574.40314 320.17255 575.21564 319.34442Q576.02814 318.5163 577.3094 318.5163Q578.59064 318.5163 579.40314 319.34442Q580.23126 320.15692 580.23126 321.5163L580.23126 322.21942Q580.23126 323.48505 579.41876 324.31317Q578.60626 325.1413 577.325 325.1413Q576.0594 325.1413 575.23126 324.3288Q574.40314 323.5163 574.40314 322.15692L574.40314 321.4538ZM575.7469 322.21942Q575.7469 322.98505 576.16876 323.48505Q576.60626 323.96942 577.325 323.96942Q578.02814 323.96942 578.45 323.48505Q578.8719 323.00067 578.8719 322.17255L578.8719 321.4538Q578.8719 320.67255 578.45 320.18817Q578.02814 319.7038 577.3094 319.7038Q576.6219 319.7038 576.1844 320.18817Q575.7469 320.67255 575.7469 321.48505L575.7469 322.21942ZM570.8094 323.86005L569.79376 323.21942L576.73126 312.11005L577.7625 312.75067L570.8094 323.86005Z" fill-rule="nonzero"/><path stroke="#757575" stroke-width="1.0" stroke-linecap="butt" d="M581.45 304.43817L452.26666 304.43817L398.25485 304.43817" fill-rule="nonzero"/><path fill="#9e9e9e" d="M400.25485 304.43817C400.25485 303.33362 399.3594 302.43817 398.25485 302.43817C397.15027 302.43817 396.25485 303.33362 396.25485 304.43817C396.25485 305.54276 397.15027 306.43817 398.25485 306.43817C399.3594 306.43817 400.25485 305.54276 400.25485 304.43817" fill-rule="nonzero"/><path fill="#757575" d="M29.95625 37.096874L22.8 37.096874L21.20625 41.55L18.878124 41.55L25.39375 24.4875L27.3625 24.4875L33.89375 41.55L31.58125 41.55L29.95625 37.096874ZM23.4875 35.2375L29.284374 35.2375L26.378124 27.26875L23.4875 35.2375ZM43.58125 38.190624Q43.58125 37.3 42.909374 36.815624Q42.253124 36.33125 40.596874 35.9875Q38.95625 35.628124 37.9875 35.14375Q37.01875 34.64375 36.55 33.971874Q36.096874 33.284374 36.096874 32.346874Q36.096874 30.784374 37.409374 29.70625Q38.7375 28.628124 40.784374 28.628124Q42.940624 28.628124 44.284374 29.753124Q45.628124 30.8625 45.628124 32.596874L43.440624 32.596874Q43.440624 31.70625 42.690624 31.065624Q41.940624 30.409374 40.784374 30.409374Q39.596874 30.409374 38.925 30.925Q38.26875 31.440624 38.26875 32.284374Q38.26875 33.065624 38.878124 33.471874Q39.503124 33.8625 41.128124 34.221874Q42.753124 34.58125 43.753124 35.096874Q44.76875 35.596874 45.253124 36.315624Q45.7375 37.01875 45.7375 38.034374Q45.7375 39.7375 44.378124 40.76875Q43.01875 41.784374 40.8625 41.784374Q39.33125 41.784374 38.159374 41.253124Q36.9875 40.70625 36.315624 39.7375Q35.659374 38.76875 35.659374 37.64375L37.83125 37.64375Q37.89375 38.7375 38.70625 39.378124Q39.51875 40.01875 40.8625 40.01875Q42.08125 40.01875 42.83125 39.51875Q43.58125 39.01875 43.58125 38.190624ZM58.909374 35.346874Q58.909374 38.2375 57.58125 40.01875Q56.253124 41.784374 53.9875 41.784374Q51.690624 41.784374 50.3625 40.315624L50.3625 46.425L48.190624 46.425L48.190624 28.8625L50.175 28.8625L50.284374 30.26875Q51.596874 28.628124 53.95625 28.628124Q56.2375 28.628124 57.565624 30.3625Q58.909374 32.08125 58.909374 35.14375L58.909374 35.346874ZM56.7375 35.096874Q56.7375 32.95625 55.815624 31.721874Q54.909374 30.471874 53.315624 30.471874Q51.346874 30.471874 50.3625 32.221874L50.3625 38.284374Q51.33125 40.01875 53.33125 40.01875Q54.89375 40.01875 55.815624 38.784374Q56.7375 37.534374 56.7375 35.096874ZM66.45625 41.784374Q63.878124 41.784374 62.253124 40.096874Q60.64375 38.39375 60.64375 35.565624L60.64375 35.159374Q60.64375 33.26875 61.3625 31.8Q62.08125 30.315624 63.378124 29.471874Q64.675 28.628124 66.19063 28.628124Q68.65938 28.628124 70.01875 30.26875Q71.39375 31.89375 71.39375 34.925L71.39375 35.83125L62.815624 35.83125Q62.8625 37.70625 63.909374 38.8625Q64.95625 40.01875 66.56563 40.01875Q67.72188 40.01875 68.51875 39.55Q69.31563 39.08125 69.90938 38.3L71.2375 39.33125Q69.64375 41.784374 66.45625 41.784374ZM66.19063 30.409374Q64.87813 30.409374 63.9875 31.378124Q63.096874 32.33125 62.878124 34.05L69.2375 34.05L69.2375 33.878124Q69.14375 32.2375 68.34688 31.33125Q67.55 30.409374 66.19063 30.409374ZM79.28438 40.01875Q80.44063 40.01875 81.3 39.315624Q82.175 38.6125 82.26875 37.55L84.31563 37.55Q84.25313 38.64375 83.56563 39.628124Q82.87813 40.6125 81.72188 41.20625Q80.56563 41.784374 79.28438 41.784374Q76.69063 41.784374 75.15938 40.065624Q73.62813 38.33125 73.62813 35.33125L73.62813 34.95625Q73.62813 33.1125 74.3 31.675Q74.9875 30.221874 76.25313 29.425Q77.53438 28.628124 79.26875 28.628124Q81.39375 28.628124 82.8 29.909374Q84.22188 31.190624 84.31563 33.221874L82.26875 33.221874Q82.175 32.003124 81.33125 31.20625Q80.50313 30.409374 79.26875 30.409374Q77.6125 30.409374 76.70625 31.6125Q75.8 32.8 75.8 35.05L75.8 35.45625Q75.8 37.64375 76.69063 38.83125Q77.59688 40.01875 79.28438 40.01875ZM90.12813 25.8L90.12813 28.8625L92.50313 28.8625L92.50313 30.55L90.12813 30.55L90.12813 38.409374Q90.12813 39.175 90.44063 39.55Q90.76875 39.925 91.53438 39.925Q91.90938 39.925 92.56563 39.784374L92.56563 41.55Q91.70625 41.784374 90.89375 41.784374Q89.44063 41.784374 88.70625 40.909374Q87.97188 40.01875 87.97188 38.409374L87.97188 30.55L85.65938 30.55L85.65938 28.8625L87.97188 28.8625L87.97188 25.8L90.12813 25.8ZM100.65938 35.096874Q100.65938 32.190624 102.03438 30.409374Q103.425 28.628124 105.675 28.628124Q107.89375 28.628124 109.19063 30.159374L109.19063 23.55L111.3625 23.55L111.3625 41.55L109.37813 41.55L109.26875 40.190624Q107.97188 41.784374 105.64375 41.784374Q103.44063 41.784374 102.05 39.9875Q100.65938 38.175 100.65938 35.26875L100.65938 35.096874ZM102.83125 35.346874Q102.83125 37.503124 103.72188 38.721874Q104.6125 39.940624 106.19063 39.940624Q108.25313 39.940624 109.19063 38.096874L109.19063 32.26875Q108.22188 30.471874 106.20625 30.471874Q104.6125 30.471874 103.72188 31.70625Q102.83125 32.940624 102.83125 35.346874ZM117.55 41.55L115.37813 41.55L115.37813 28.8625L117.55 28.8625L117.55 41.55ZM115.20625 25.503124Q115.20625 24.971874 115.51875 24.6125Q115.84688 24.253124 116.47188 24.253124Q117.1125 24.253124 117.44063 24.6125Q117.76875 24.971874 117.76875 25.503124Q117.76875 26.034374 117.44063 26.39375Q117.1125 26.7375 116.47188 26.7375Q115.84688 26.7375 115.51875 26.39375Q115.20625 26.034374 115.20625 25.503124ZM128.58125 38.190624Q128.58125 37.3 127.90938 36.815624Q127.25313 36.33125 125.59688 35.9875Q123.95625 35.628124 122.9875 35.14375Q122.01875 34.64375 121.55 33.971874Q121.09688 33.284374 121.09688 32.346874Q121.09688 30.784374 122.40938 29.70625Q123.7375 28.628124 125.78438 28.628124Q127.94063 28.628124 129.28438 29.753124Q130.62813 30.8625 130.62813 32.596874L128.44063 32.596874Q128.44063 31.70625 127.69063 31.065624Q126.94063 30.409374 125.78438 30.409374Q124.59688 30.409374 123.925 30.925Q123.26875 31.440624 123.26875 32.284374Q123.26875 33.065624 123.87813 33.471874Q124.50313 33.8625 126.12813 34.221874Q127.75313 34.58125 128.75313 35.096874Q129.76875 35.596874 130.25313 36.315624Q130.7375 37.01875 130.7375 38.034374Q130.7375 39.7375 129.37813 40.76875Q128.01875 41.784374 125.8625 41.784374Q124.33125 41.784374 123.15938 41.253124Q121.9875 40.70625 121.31563 39.7375Q120.65938 38.76875 120.65938 37.64375L122.83125 37.64375Q122.89375 38.7375 123.70625 39.378124Q124.51875 40.01875 125.8625 40.01875Q127.08125 40.01875 127.83125 39.51875Q128.58125 39.01875 128.58125 38.190624ZM138.28438 40.01875Q139.44063 40.01875 140.3 39.315624Q141.175 38.6125 141.26875 37.55L143.31563 37.55Q143.25313 38.64375 142.56563 39.628124Q141.87813 40.6125 140.72188 41.20625Q139.56563 41.784374 138.28438 41.784374Q135.69063 41.784374 134.15938 40.065624Q132.62813 38.33125 132.62813 35.33125L132.62813 34.95625Q132.62813 33.1125 133.3 31.675Q133.9875 30.221874 135.25313 29.425Q136.53438 28.628124 138.26875 28.628124Q140.39375 28.628124 141.8 29.909374Q143.22188 31.190624 143.31563 33.221874L141.26875 33.221874Q141.175 32.003124 140.33125 31.20625Q139.50313 30.409374 138.26875 30.409374Q136.6125 30.409374 135.70625 31.6125Q134.8 32.8 134.8 35.05L134.8 35.45625Q134.8 37.64375 135.69063 38.83125Q136.59688 40.01875 138.28438 40.01875ZM154.01875 40.3Q152.75313 41.784374 150.3 41.784374Q148.28438 41.784374 147.22188 40.6125Q146.15938 39.425 146.14375 37.1125L146.14375 28.8625L148.31563 28.8625L148.31563 37.065624Q148.31563 39.940624 150.65938 39.940624Q153.14375 39.940624 153.95625 38.096874L153.95625 28.8625L156.12813 28.8625L156.12813 41.55L154.06563 41.55L154.01875 40.3ZM166.58125 38.190624Q166.58125 37.3 165.90938 36.815624Q165.25313 36.33125 163.59688 35.9875Q161.95625 35.628124 160.9875 35.14375Q160.01875 34.64375 159.55 33.971874Q159.09688 33.284374 159.09688 32.346874Q159.09688 30.784374 160.40938 29.70625Q161.7375 28.628124 163.78438 28.628124Q165.94063 28.628124 167.28438 29.753124Q168.62813 30.8625 168.62813 32.596874L166.44063 32.596874Q166.44063 31.70625 165.69063 31.065624Q164.94063 30.409374 163.78438 30.409374Q162.59688 30.409374 161.925 30.925Q161.26875 31.440624 161.26875 32.284374Q161.26875 33.065624 161.87813 33.471874Q162.50313 33.8625 164.12813 34.221874Q165.75313 34.58125 166.75313 35.096874Q167.76875 35.596874 168.25313 36.315624Q168.7375 37.01875 168.7375 38.034374Q168.7375 39.7375 167.37813 40.76875Q166.01875 41.784374 163.8625 41.784374Q162.33125 41.784374 161.15938 41.253124Q159.9875 40.70625 159.31563 39.7375Q158.65938 38.76875 158.65938 37.64375L160.83125 37.64375Q160.89375 38.7375 161.70625 39.378124Q162.51875 40.01875 163.8625 40.01875Q165.08125 40.01875 165.83125 39.51875Q166.58125 39.01875 166.58125 38.190624ZM178.58125 38.190624Q178.58125 37.3 177.90938 36.815624Q177.25313 36.33125 175.59688 35.9875Q173.95625 35.628124 172.9875 35.14375Q172.01875 34.64375 171.55 33.971874Q171.09688 33.284374 171.09688 32.346874Q171.09688 30.784374 172.40938 29.70625Q173.7375 28.628124 175.78438 28.628124Q177.94063 28.628124 179.28438 29.753124Q180.62813 30.8625 180.62813 32.596874L178.44063 32.596874Q178.44063 31.70625 177.69063 31.065624Q176.94063 30.409374 175.78438 30.409374Q174.59688 30.409374 173.925 30.925Q173.26875 31.440624 173.26875 32.284374Q173.26875 33.065624 173.87813 33.471874Q174.50313 33.8625 176.12813 34.221874Q177.75313 34.58125 178.75313 35.096874Q179.76875 35.596874 180.25313 36.315624Q180.7375 37.01875 180.7375 38.034374Q180.7375 39.7375 179.37813 40.76875Q178.01875 41.784374 175.8625 41.784374Q174.33125 41.784374 173.15938 41.253124Q171.9875 40.70625 171.31563 39.7375Q170.65938 38.76875 170.65938 37.64375L172.83125 37.64375Q172.89375 38.7375 173.70625 39.378124Q174.51875 40.01875 175.8625 40.01875Q177.08125 40.01875 177.83125 39.51875Q178.58125 39.01875 178.58125 38.190624ZM188.45625 41.784374Q185.87813 41.784374 184.25313 40.096874Q182.64375 38.39375 182.64375 35.565624L182.64375 35.159374Q182.64375 33.26875 183.3625 31.8Q184.08125 30.315624 185.37813 29.471874Q186.675 28.628124 188.19063 28.628124Q190.65938 28.628124 192.01875 30.26875Q193.39375 31.89375 193.39375 34.925L193.39375 35.83125L184.81563 35.83125Q184.8625 37.70625 185.90938 38.8625Q186.95625 40.01875 188.56563 40.01875Q189.72188 40.01875 190.51875 39.55Q191.31563 39.08125 191.90938 38.3L193.2375 39.33125Q191.64375 41.784374 188.45625 41.784374ZM188.19063 30.409374Q186.87813 30.409374 185.9875 31.378124Q185.09688 32.33125 184.87813 34.05L191.2375 34.05L191.2375 33.878124Q191.14375 32.2375 190.34688 31.33125Q189.55 30.409374 188.19063 30.409374ZM195.65938 35.096874Q195.65938 32.190624 197.03438 30.409374Q198.425 28.628124 200.675 28.628124Q202.89375 28.628124 204.19063 30.159374L204.19063 23.55L206.3625 23.55L206.3625 41.55L204.37813 41.55L204.26875 40.190624Q202.97188 41.784374 200.64375 41.784374Q198.44063 41.784374 197.05 39.9875Q195.65938 38.175 195.65938 35.26875L195.65938 35.096874ZM197.83125 35.346874Q197.83125 37.503124 198.72188 38.721874Q199.6125 39.940624 201.19063 39.940624Q203.25313 39.940624 204.19063 38.096874L204.19063 32.26875Q203.22188 30.471874 201.20625 30.471874Q199.6125 30.471874 198.72188 31.70625Q197.83125 32.940624 197.83125 35.346874ZM218.55 41.55L216.37813 41.55L216.37813 28.8625L218.55 28.8625L218.55 41.55ZM216.20625 25.503124Q216.20625 24.971874 216.51875 24.6125Q216.84688 24.253124 217.47188 24.253124Q218.1125 24.253124 218.44063 24.6125Q218.76875 24.971874 218.76875 25.503124Q218.76875 26.034374 218.44063 26.39375Q218.1125 26.7375 217.47188 26.7375Q216.84688 26.7375 216.51875 26.39375Q216.20625 26.034374 216.20625 25.503124ZM224.2375 28.8625L224.31563 30.45625Q225.76875 28.628124 228.1125 28.628124Q232.12813 28.628124 232.15938 33.175L232.15938 41.55L230.00313 41.55L230.00313 33.159374Q229.9875 31.784374 229.3625 31.128124Q228.75313 30.471874 227.45625 30.471874Q226.39375 30.471874 225.59688 31.034374Q224.8 31.596874 224.3625 32.51875L224.3625 41.55L222.19063 41.55L222.19063 28.8625L224.2375 28.8625ZM244.12813 25.8L244.12813 28.8625L246.50313 28.8625L246.50313 30.55L244.12813 30.55L244.12813 38.409374Q244.12813 39.175 244.44063 39.55Q244.76875 39.925 245.53438 39.925Q245.90938 39.925 246.56563 39.784374L246.56563 41.55Q245.70625 41.784374 244.89375 41.784374Q243.44063 41.784374 242.70625 40.909374Q241.97188 40.01875 241.97188 38.409374L241.97188 30.55L239.65938 30.55L239.65938 28.8625L241.97188 28.8625L241.97188 25.8L244.12813 25.8ZM251.3625 30.409374Q252.8 28.628124 255.1125 28.628124Q259.1281 28.628124 259.15936 33.175L259.15936 41.55L257.0031 41.55L257.0031 33.159374Q256.9875 31.784374 256.3625 31.128124Q255.75313 30.471874 254.45625 30.471874Q253.39375 30.471874 252.59688 31.034374Q251.8 31.596874 251.3625 32.51875L251.3625 41.55L249.19063 41.55L249.19063 23.55L251.3625 23.55L251.3625 30.409374ZM267.45624 41.784374Q264.8781 41.784374 263.2531 40.096874Q261.64374 38.39375 261.64374 35.565624L261.64374 35.159374Q261.64374 33.26875 262.3625 31.8Q263.08124 30.315624 264.3781 29.471874Q265.675 28.628124 267.1906 28.628124Q269.65936 28.628124 271.01874 30.26875Q272.39374 31.89375 272.39374 34.925L272.39374 35.83125L263.8156 35.83125Q263.8625 37.70625 264.90936 38.8625Q265.95624 40.01875 267.5656 40.01875Q268.72186 40.01875 269.51874 39.55Q270.3156 39.08125 270.90936 38.3L272.2375 39.33125Q270.64374 41.784374 267.45624 41.784374ZM267.1906 30.409374Q265.8781 30.409374 264.9875 31.378124Q264.09686 32.33125 263.8781 34.05L270.2375 34.05L270.2375 33.878124Q270.14374 32.2375 269.34686 31.33125Q268.55 30.409374 267.1906 30.409374ZM287.3156 30.815624Q286.83124 30.7375 286.2531 30.7375Q284.1281 30.7375 283.3625 32.55L283.3625 41.55L281.1906 41.55L281.1906 28.8625L283.3 28.8625L283.33124 30.33125Q284.40936 28.628124 286.3625 28.628124Q286.9875 28.628124 287.3156 28.8L287.3156 30.815624ZM294.45624 41.784374Q291.8781 41.784374 290.2531 40.096874Q288.64374 38.39375 288.64374 35.565624L288.64374 35.159374Q288.64374 33.26875 289.3625 31.8Q290.08124 30.315624 291.3781 29.471874Q292.675 28.628124 294.1906 28.628124Q296.65936 28.628124 298.01874 30.26875Q299.39374 31.89375 299.39374 34.925L299.39374 35.83125L290.8156 35.83125Q290.8625 37.70625 291.90936 38.8625Q292.95624 40.01875 294.5656 40.01875Q295.72186 40.01875 296.51874 39.55Q297.3156 39.08125 297.90936 38.3L299.2375 39.33125Q297.64374 41.784374 294.45624 41.784374ZM294.1906 30.409374Q292.8781 30.409374 291.9875 31.378124Q291.09686 32.33125 290.8781 34.05L297.2375 34.05L297.2375 33.878124Q297.14374 32.2375 296.34686 31.33125Q295.55 30.409374 294.1906 30.409374ZM306.3781 38.6125L309.51874 28.8625L311.7375 28.8625L307.1906 41.55L305.53436 41.55L300.9406 28.8625L303.15936 28.8625L306.3781 38.6125ZM316.55 41.55L314.3781 41.55L314.3781 28.8625L316.55 28.8625L316.55 41.55ZM314.20624 25.503124Q314.20624 24.971874 314.51874 24.6125Q314.84686 24.253124 315.47186 24.253124Q316.1125 24.253124 316.4406 24.6125Q316.76874 24.971874 316.76874 25.503124Q316.76874 26.034374 316.4406 26.39375Q316.1125 26.7375 315.47186 26.7375Q314.84686 26.7375 314.51874 26.39375Q314.20624 26.034374 314.20624 25.503124ZM325.45624 41.784374Q322.8781 41.784374 321.2531 40.096874Q319.64374 38.39375 319.64374 35.565624L319.64374 35.159374Q319.64374 33.26875 320.3625 31.8Q321.08124 30.315624 322.3781 29.471874Q323.675 28.628124 325.1906 28.628124Q327.65936 28.628124 329.01874 30.26875Q330.39374 31.89375 330.39374 34.925L330.39374 35.83125L321.8156 35.83125Q321.8625 37.70625 322.90936 38.8625Q323.95624 40.01875 325.5656 40.01875Q326.72186 40.01875 327.51874 39.55Q328.3156 39.08125 328.90936 38.3L330.2375 39.33125Q328.64374 41.784374 325.45624 41.784374ZM325.1906 30.409374Q323.8781 30.409374 322.9875 31.378124Q322.09686 32.33125 321.8781 34.05L328.2375 34.05L328.2375 33.878124Q328.14374 32.2375 327.34686 31.33125Q326.55 30.409374 325.1906 30.409374ZM344.425 38.565624L346.8625 28.8625L349.01874 28.8625L345.33124 41.55L343.58124 41.55L340.4875 31.940624L337.4875 41.55L335.7375 41.55L332.05 28.8625L334.20624 28.8625L336.70624 38.3625L339.65936 28.8625L341.40936 28.8625L344.425 38.565624ZM362.28436 40.01875Q363.4406 40.01875 364.3 39.315624Q365.175 38.6125 365.26874 37.55L367.3156 37.55Q367.2531 38.64375 366.5656 39.628124Q365.8781 40.6125 364.72186 41.20625Q363.5656 41.784374 362.28436 41.784374Q359.6906 41.784374 358.15936 40.065624Q356.6281 38.33125 356.6281 35.33125L356.6281 34.95625Q356.6281 33.1125 357.3 31.675Q357.9875 30.221874 359.2531 29.425Q360.53436 28.628124 362.26874 28.628124Q364.39374 28.628124 365.8 29.909374Q367.22186 31.190624 367.3156 33.221874L365.26874 33.221874Q365.175 32.003124 364.33124 31.20625Q363.5031 30.409374 362.26874 30.409374Q360.6125 30.409374 359.70624 31.6125Q358.8 32.8 358.8 35.05L358.8 35.45625Q358.8 37.64375 359.6906 38.83125Q360.59686 40.01875 362.28436 40.01875ZM369.6125 35.096874Q369.6125 33.221874 370.34686 31.7375Q371.08124 30.253124 372.3781 29.440624Q373.6906 28.628124 375.3781 28.628124Q377.95624 28.628124 379.55 30.425Q381.15936 32.221874 381.15936 35.190624L381.15936 35.346874Q381.15936 37.20625 380.4406 38.675Q379.7375 40.14375 378.425 40.971874Q377.1125 41.784374 375.39374 41.784374Q372.8156 41.784374 371.20624 39.9875Q369.6125 38.190624 369.6125 35.2375L369.6125 35.096874ZM371.8 35.346874Q371.8 37.45625 372.76874 38.7375Q373.7531 40.01875 375.39374 40.01875Q377.05 40.01875 378.01874 38.721874Q378.9875 37.425 378.9875 35.096874Q378.9875 33.003124 378.0031 31.70625Q377.01874 30.409374 375.3781 30.409374Q373.76874 30.409374 372.78436 31.690624Q371.8 32.971874 371.8 35.346874ZM386.2375 28.8625L386.28436 30.26875Q387.6906 28.628124 390.05 28.628124Q392.70624 28.628124 393.675 30.675Q394.3 29.753124 395.3156 29.190624Q396.33124 28.628124 397.72186 28.628124Q401.89374 28.628124 401.95624 33.05L401.95624 41.55L399.78436 41.55L399.78436 33.175Q399.78436 31.815624 399.15936 31.14375Q398.55 30.471874 397.08124 30.471874Q395.8781 30.471874 395.08124 31.190624Q394.28436 31.909374 394.15936 33.128124L394.15936 41.55L391.97186 41.55L391.97186 33.2375Q391.97186 30.471874 389.26874 30.471874Q387.1281 30.471874 386.34686 32.284374L386.34686 41.55L384.175 41.55L384.175 28.8625L386.2375 28.8625ZM407.2375 28.8625L407.28436 30.26875Q408.6906 28.628124 411.05 28.628124Q413.70624 28.628124 414.675 30.675Q415.3 29.753124 416.3156 29.190624Q417.33124 28.628124 418.72186 28.628124Q422.89374 28.628124 422.95624 33.05L422.95624 41.55L420.78436 41.55L420.78436 33.175Q420.78436 31.815624 420.15936 31.14375Q419.55 30.471874 418.08124 30.471874Q416.8781 30.471874 416.08124 31.190624Q415.28436 31.909374 415.15936 33.128124L415.15936 41.55L412.97186 41.55L412.97186 33.2375Q412.97186 30.471874 410.26874 30.471874Q408.1281 30.471874 407.34686 32.284374L407.34686 41.55L405.175 41.55L405.175 28.8625L407.2375 28.8625ZM431.45624 41.784374Q428.8781 41.784374 427.2531 40.096874Q425.64374 38.39375 425.64374 35.565624L425.64374 35.159374Q425.64374 33.26875 426.3625 31.8Q427.08124 30.315624 428.3781 29.471874Q429.675 28.628124 431.1906 28.628124Q433.65936 28.628124 435.01874 30.26875Q436.39374 31.89375 436.39374 34.925L436.39374 35.83125L427.8156 35.83125Q427.8625 37.70625 428.90936 38.8625Q429.95624 40.01875 431.5656 40.01875Q432.72186 40.01875 433.51874 39.55Q434.3156 39.08125 434.90936 38.3L436.2375 39.33125Q434.64374 41.784374 431.45624 41.784374ZM431.1906 30.409374Q429.8781 30.409374 428.9875 31.378124Q428.09686 32.33125 427.8781 34.05L434.2375 34.05L434.2375 33.878124Q434.14374 32.2375 433.34686 31.33125Q432.55 30.409374 431.1906 30.409374ZM441.2375 28.8625L441.3156 30.45625Q442.76874 28.628124 445.1125 28.628124Q449.1281 28.628124 449.15936 33.175L449.15936 41.55L447.0031 41.55L447.0031 33.159374Q446.9875 31.784374 446.3625 31.128124Q445.7531 30.471874 444.45624 30.471874Q443.39374 30.471874 442.59686 31.034374Q441.8 31.596874 441.3625 32.51875L441.3625 41.55L439.1906 41.55L439.1906 28.8625L441.2375 28.8625ZM455.1281 25.8L455.1281 28.8625L457.5031 28.8625L457.5031 30.55L455.1281 30.55L455.1281 38.409374Q455.1281 39.175 455.4406 39.55Q455.76874 39.925 456.53436 39.925Q456.90936 39.925 457.5656 39.784374L457.5656 41.55Q456.70624 41.784374 455.89374 41.784374Q454.4406 41.784374 453.70624 40.909374Q452.97186 40.01875 452.97186 38.409374L452.97186 30.55L450.65936 30.55L450.65936 28.8625L452.97186 28.8625L452.97186 25.8L455.1281 25.8ZM474.01874 41.55Q473.83124 41.175 473.72186 40.20625Q472.20624 41.784374 470.1125 41.784374Q468.2375 41.784374 467.03436 40.721874Q465.83124 39.659374 465.83124 38.034374Q465.83124 36.05 467.33124 34.95625Q468.84686 33.8625 471.5656 33.8625L473.675 33.8625L473.675 32.8625Q473.675 31.721874 472.9875 31.05Q472.3156 30.378124 471.0031 30.378124Q469.83124 30.378124 469.05 30.971874Q468.26874 31.55 468.26874 32.378124L466.08124 32.378124Q466.08124 31.440624 466.7531 30.55Q467.4406 29.659374 468.58124 29.14375Q469.7375 28.628124 471.1281 28.628124Q473.3156 28.628124 474.55 29.7375Q475.8 30.83125 475.84686 32.753124L475.84686 38.58125Q475.84686 40.33125 476.3 41.3625L476.3 41.55L474.01874 41.55ZM470.425 39.89375Q471.4406 39.89375 472.34686 39.378124Q473.26874 38.846874 473.675 38.003124L473.675 35.39375L471.9875 35.39375Q468.0031 35.39375 468.0031 37.721874Q468.0031 38.753124 468.675 39.33125Q469.3625 39.89375 470.425 39.89375ZM489.925 35.346874Q489.925 38.253124 488.58124 40.01875Q487.2531 41.784374 485.0031 41.784374Q482.59686 41.784374 481.28436 40.08125L481.1906 41.55L479.1906 41.55L479.1906 23.55L481.3625 23.55L481.3625 30.26875Q482.675 28.628124 484.97186 28.628124Q487.28436 28.628124 488.59686 30.378124Q489.925 32.128124 489.925 35.159374L489.925 35.346874ZM487.7531 35.096874Q487.7531 32.89375 486.89374 31.690624Q486.05 30.471874 484.4406 30.471874Q482.3 30.471874 481.3625 32.471874L481.3625 37.95625Q482.3625 39.940624 484.47186 39.940624Q486.01874 39.940624 486.8781 38.7375Q487.7531 37.534374 487.7531 35.096874ZM491.6125 35.096874Q491.6125 33.221874 492.34686 31.7375Q493.08124 30.253124 494.3781 29.440624Q495.6906 28.628124 497.3781 28.628124Q499.95624 28.628124 501.55 30.425Q503.15936 32.221874 503.15936 35.190624L503.15936 35.346874Q503.15936 37.20625 502.4406 38.675Q501.7375 40.14375 500.425 40.971874Q499.1125 41.784374 497.39374 41.784374Q494.8156 41.784374 493.20624 39.9875Q491.6125 38.190624 491.6125 35.2375L491.6125 35.096874ZM493.8 35.346874Q493.8 37.45625 494.76874 38.7375Q495.7531 40.01875 497.39374 40.01875Q499.05 40.01875 500.01874 38.721874Q500.9875 37.425 500.9875 35.096874Q500.9875 33.003124 500.0031 31.70625Q499.01874 30.409374 497.3781 30.409374Q495.76874 30.409374 494.78436 31.690624Q493.8 32.971874 493.8 35.346874ZM514.01874 40.3Q512.7531 41.784374 510.3 41.784374Q508.28436 41.784374 507.22186 40.6125Q506.15936 39.425 506.14374 37.1125L506.14374 28.8625L508.3156 28.8625L508.3156 37.065624Q508.3156 39.940624 510.65936 39.940624Q513.14374 39.940624 513.95624 38.096874L513.95624 28.8625L516.1281 28.8625L516.1281 41.55L514.0656 41.55L514.01874 40.3ZM522.1281 25.8L522.1281 28.8625L524.5031 28.8625L524.5031 30.55L522.1281 30.55L522.1281 38.409374Q522.1281 39.175 522.4406 39.55Q522.76874 39.925 523.53436 39.925Q523.90936 39.925 524.5656 39.784374L524.5656 41.55Q523.70624 41.784374 522.89374 41.784374Q521.4406 41.784374 520.70624 40.909374Q519.97186 40.01875 519.97186 38.409374L519.97186 30.55L517.65936 30.55L517.65936 28.8625L519.97186 28.8625L519.97186 25.8L522.1281 25.8ZM536.1281 25.8L536.1281 28.8625L538.5031 28.8625L538.5031 30.55L536.1281 30.55L536.1281 38.409374Q536.1281 39.175 536.4406 39.55Q536.76874 39.925 537.53436 39.925Q537.90936 39.925 538.5656 39.784374L538.5656 41.55Q537.70624 41.784374 536.89374 41.784374Q535.4406 41.784374 534.70624 40.909374Q533.97186 40.01875 533.97186 38.409374L533.97186 30.55L531.65936 30.55L531.65936 28.8625L533.97186 28.8625L533.97186 25.8L536.1281 25.8ZM546.45624 41.784374Q543.8781 41.784374 542.2531 40.096874Q540.64374 38.39375 540.64374 35.565624L540.64374 35.159374Q540.64374 33.26875 541.3625 31.8Q542.08124 30.315624 543.3781 29.471874Q544.675 28.628124 546.1906 28.628124Q548.65936 28.628124 550.01874 30.26875Q551.39374 31.89375 551.39374 34.925L551.39374 35.83125L542.8156 35.83125Q542.8625 37.70625 543.90936 38.8625Q544.95624 40.01875 546.5656 40.01875Q547.72186 40.01875 548.51874 39.55Q549.3156 39.08125 549.90936 38.3L551.2375 39.33125Q549.64374 41.784374 546.45624 41.784374ZM546.1906 30.409374Q544.8781 30.409374 543.9875 31.378124Q543.09686 32.33125 542.8781 34.05L549.2375 34.05L549.2375 33.878124Q549.14374 32.2375 548.34686 31.33125Q547.55 30.409374 546.1906 30.409374ZM558.4406 33.503124L561.2531 28.8625L563.78436 28.8625L559.64374 35.14375L563.925 41.55L561.40936 41.55L558.4875 36.8L555.55 41.55L553.03436 41.55L557.3156 35.14375L553.15936 28.8625L555.675 28.8625L558.4406 33.503124ZM569.1281 25.8L569.1281 28.8625L571.5031 28.8625L571.5031 30.55L569.1281 30.55L569.1281 38.409374Q569.1281 39.175 569.4406 39.55Q569.76874 39.925 570.53436 39.925Q570.90936 39.925 571.5656 39.784374L571.5656 41.55Q570.70624 41.784374 569.89374 41.784374Q568.4406 41.784374 567.70624 40.909374Q566.97186 40.01875 566.97186 38.409374L566.97186 30.55L564.65936 30.55L564.65936 28.8625L566.97186 28.8625L566.97186 25.8L569.1281 25.8Z" fill-rule="nonzero"/></svg>