<svg version="1.1" viewBox="0.0 0.0 600.0 371.0" fill="none" stroke="none" stroke-linecap="square" stroke-miterlimit="10" width="600" height="371" xmlns:xlink="http://www.w3.org/1999/xlink" xmlns="http://www.w3.org/2000/svg"><path fill="#ffffff" d="M0 0L600.0 0L600.0 371.0L0 371.0L0 0Z" fill-rule="nonzero"/><path stroke="#333333" stroke-width="1.0" stroke-linecap="butt" d="M158.5 54.5L158.5 298.5" fill-rule="nonzero"/><path stroke="#cccccc" stroke-width="1.0" stroke-linecap="butt" d="M264.5 54.5L264.5 298.5" fill-rule="nonzero"/><path stroke="#cccccc" stroke-width="1.0" stroke-linecap="butt" d="M370.5 54.5L370.5 298.5" fill-rule="nonzero"/><path stroke="#cccccc" stroke-width="1.0" stroke-linecap="butt" d="M475.5 54.5L475.5 298.5" fill-rule="nonzero"/><path stroke="#cccccc" stroke-width="1.0" stroke-linecap="butt" d="M581.5 54.5L581.5 298.5" fill-rule="nonzero"/><clipPath id="id_0"><path d="M158.55 54.916668L581.45 54.916668L581.45 298.45L158.55 298.45L158.55 54.916668Z" clip-rule="nonzero"/></clipPath><path stroke="#000000" stroke-width="0.0" stroke-linecap="butt" stroke-opacity="0.0" clip-path="url(#id_0)" d="M159.0 69.0L159.0 60.0L541.0 60.0C542.10455 60.0 543.0 60.89543 543.0 62.0L543.0 67.0C543.0 68.10457 542.10455 69.0 541.0 69.0Z" fill-rule="nonzero"/><path fill="#4285f4" clip-path="url(#id_0)" d="M159.0 69.0L159.0 60.0L541.0 60.0C542.10455 60.0 543.0 60.89543 543.0 62.0L543.0 67.0C543.0 68.10457 542.10455 69.0 541.0 69.0Z" fill-rule="nonzero"/><path stroke="#000000" stroke-width="0.0" stroke-linecap="butt" stroke-opacity="0.0" clip-path="url(#id_0)" d="M159.0 82.0L159.0 73.0L493.0 73.0C494.10458 73.0 495.0 73.89543 495.0 75.0L495.0 80.0C495.0 81.10457 494.10458 82.0 493.0 82.0Z" fill-rule="nonzero"/><path fill="#4285f4" clip-path="url(#id_0)" d="M159.0 82.0L159.0 73.0L493.0 73.0C494.10458 73.0 495.0 73.89543 495.0 75.0L495.0 80.0C495.0 81.10457 494.10458 82.0 493.0 82.0Z" fill-rule="nonzero"/><path stroke="#000000" stroke-width="0.0" stroke-linecap="butt" stroke-opacity="0.0" clip-path="url(#id_0)" d="M159.0 95.0L159.0 86.0L493.0 86.0C494.10458 86.0 495.0 86.89543 495.0 88.0L495.0 93.0C495.0 94.10457 494.10458 95.0 493.0 95.0Z" fill-rule="nonzero"/><path fill="#4285f4" clip-path="url(#id_0)" d="M159.0 95.0L159.0 86.0L493.0 86.0C494.10458 86.0 495.0 86.89543 495.0 88.0L495.0 93.0C495.0 94.10457 494.10458 95.0 493.0 95.0Z" fill-rule="nonzero"/><path stroke="#000000" stroke-width="0.0" stroke-linecap="butt" stroke-opacity="0.0" clip-path="url(#id_0)" d="M159.0 109.0L159.0 100.0L445.0 100.0C446.10458 100.0 447.0 100.89543 447.0 102.0L447.0 107.0C447.0 108.10457 446.10458 109.0 445.0 109.0Z" fill-rule="nonzero"/><path fill="#4285f4" clip-path="url(#id_0)" d="M159.0 109.0L159.0 100.0L445.0 100.0C446.10458 100.0 447.0 100.89543 447.0 102.0L447.0 107.0C447.0 108.10457 446.10458 109.0 445.0 109.0Z" fill-rule="nonzero"/><path stroke="#000000" stroke-width="0.0" stroke-linecap="butt" stroke-opacity="0.0" clip-path="url(#id_0)" d="M159.0 122.0L159.0 113.0L445.0 113.0C446.10458 113.0 447.0 113.89543 447.0 115.0L447.0 120.0C447.0 121.10457 446.10458 122.0 445.0 122.0Z" fill-rule="nonzero"/><path fill="#4285f4" clip-path="url(#id_0)" d="M159.0 122.0L159.0 113.0L445.0 113.0C446.10458 113.0 447.0 113.89543 447.0 115.0L447.0 120.0C447.0 121.10457 446.10458 122.0 445.0 122.0Z" fill-rule="nonzero"/><path stroke="#000000" stroke-width="0.0" stroke-linecap="butt" stroke-opacity="0.0" clip-path="url(#id_0)" d="M159.0 135.0L159.0 126.0L445.0 126.0C446.10458 126.0 447.0 126.89543 447.0 128.0L447.0 133.0C447.0 134.10457 446.10458 135.0 445.0 135.0Z" fill-rule="nonzero"/><path fill="#4285f4" clip-path="url(#id_0)" d="M159.0 135.0L159.0 126.0L445.0 126.0C446.10458 126.0 447.0 126.89543 447.0 128.0L447.0 133.0C447.0 134.10457 446.10458 135.0 445.0 135.0Z" fill-rule="nonzero"/><path stroke="#000000" stroke-width="0.0" stroke-linecap="butt" stroke-opacity="0.0" clip-path="url(#id_0)" d="M159.0 149.0L159.0 140.0L445.0 140.0C446.10458 140.0 447.0 140.89543 447.0 142.0L447.0 147.0C447.0 148.10457 446.10458 149.0 445.0 149.0Z" fill-rule="nonzero"/><path fill="#4285f4" clip-path="url(#id_0)" d="M159.0 149.0L159.0 140.0L445.0 140.0C446.10458 140.0 447.0 140.89543 447.0 142.0L447.0 147.0C447.0 148.10457 446.10458 149.0 445.0 149.0Z" fill-rule="nonzero"/><path stroke="#000000" stroke-width="0.0" stroke-linecap="butt" stroke-opacity="0.0" clip-path="url(#id_0)" d="M159.0 162.0L159.0 153.0L397.0 153.0C398.10458 153.0 399.0 153.89543 399.0 155.0L399.0 160.0C399.0 161.10457 398.10458 162.0 397.0 162.0Z" fill-rule="nonzero"/><path fill="#4285f4" clip-path="url(#id_0)" d="M159.0 162.0L159.0 153.0L397.0 153.0C398.10458 153.0 399.0 153.89543 399.0 155.0L399.0 160.0C399.0 161.10457 398.10458 162.0 397.0 162.0Z" fill-rule="nonzero"/><path stroke="#000000" stroke-width="0.0" stroke-linecap="butt" stroke-opacity="0.0" clip-path="url(#id_0)" d="M159.0 175.0L159.0 166.0L397.0 166.0C398.10458 166.0 399.0 166.89543 399.0 168.0L399.0 173.0C399.0 174.10457 398.10458 175.0 397.0 175.0Z" fill-rule="nonzero"/><path fill="#4285f4" clip-path="url(#id_0)" d="M159.0 175.0L159.0 166.0L397.0 166.0C398.10458 166.0 399.0 166.89543 399.0 168.0L399.0 173.0C399.0 174.10457 398.10458 175.0 397.0 175.0Z" fill-rule="nonzero"/><path stroke="#000000" stroke-width="0.0" stroke-linecap="butt" stroke-opacity="0.0" clip-path="url(#id_0)" d="M159.0 188.0L159.0 179.0L397.0 179.0C398.10458 179.0 399.0 179.89543 399.0 181.0L399.0 186.0C399.0 187.10457 398.10458 188.0 397.0 188.0Z" fill-rule="nonzero"/><path fill="#4285f4" clip-path="url(#id_0)" d="M159.0 188.0L159.0 179.0L397.0 179.0C398.10458 179.0 399.0 179.89543 399.0 181.0L399.0 186.0C399.0 187.10457 398.10458 188.0 397.0 188.0Z" fill-rule="nonzero"/><path stroke="#000000" stroke-width="0.0" stroke-linecap="butt" stroke-opacity="0.0" clip-path="url(#id_0)" d="M159.0 202.0L159.0 193.0L349.0 193.0C350.10458 193.0 351.0 193.89543 351.0 195.0L351.0 200.0C351.0 201.10457 350.10458 202.0 349.0 202.0Z" fill-rule="nonzero"/><path fill="#4285f4" clip-path="url(#id_0)" d="M159.0 202.0L159.0 193.0L349.0 193.0C350.10458 193.0 351.0 193.89543 351.0 195.0L351.0 200.0C351.0 201.10457 350.10458 202.0 349.0 202.0Z" fill-rule="nonzero"/><path stroke="#000000" stroke-width="0.0" stroke-linecap="butt" stroke-opacity="0.0" clip-path="url(#id_0)" d="M159.0 215.0L159.0 206.0L349.0 206.0C350.10458 206.0 351.0 206.89543 351.0 208.0L351.0 213.0C351.0 214.10457 350.10458 215.0 349.0 215.0Z" fill-rule="nonzero"/><path fill="#4285f4" clip-path="url(#id_0)" d="M159.0 215.0L159.0 206.0L349.0 206.0C350.10458 206.0 351.0 206.89543 351.0 208.0L351.0 213.0C351.0 214.10457 350.10458 215.0 349.0 215.0Z" fill-rule="nonzero"/><path stroke="#000000" stroke-width="0.0" stroke-linecap="butt" stroke-opacity="0.0" clip-path="url(#id_0)" d="M159.0 228.0L159.0 219.0L301.0 219.0C302.10458 219.0 303.0 219.89543 303.0 221.0L303.0 226.0C303.0 227.10457 302.10458 228.0 301.0 228.0Z" fill-rule="nonzero"/><path fill="#4285f4" clip-path="url(#id_0)" d="M159.0 228.0L159.0 219.0L301.0 219.0C302.10458 219.0 303.0 219.89543 303.0 221.0L303.0 226.0C303.0 227.10457 302.10458 228.0 301.0 228.0Z" fill-rule="nonzero"/><path stroke="#000000" stroke-width="0.0" stroke-linecap="butt" stroke-opacity="0.0" clip-path="url(#id_0)" d="M159.0 241.0L159.0 232.0L253.0 232.0C254.10457 232.0 255.0 232.89543 255.0 234.0L255.0 239.0C255.0 240.10457 254.10457 241.0 253.0 241.0Z" fill-rule="nonzero"/><path fill="#4285f4" clip-path="url(#id_0)" d="M159.0 241.0L159.0 232.0L253.0 232.0C254.10457 232.0 255.0 232.89543 255.0 234.0L255.0 239.0C255.0 240.10457 254.10457 241.0 253.0 241.0Z" fill-rule="nonzero"/><path stroke="#000000" stroke-width="0.0" stroke-linecap="butt" stroke-opacity="0.0" clip-path="url(#id_0)" d="M159.0 255.0L159.0 246.0L253.0 246.0C254.10457 246.0 255.0 246.89543 255.0 248.0L255.0 253.0C255.0 254.10457 254.10457 255.0 253.0 255.0Z" fill-rule="nonzero"/><path fill="#4285f4" clip-path="url(#id_0)" d="M159.0 255.0L159.0 246.0L253.0 246.0C254.10457 246.0 255.0 246.89543 255.0 248.0L255.0 253.0C255.0 254.10457 254.10457 255.0 253.0 255.0Z" fill-rule="nonzero"/><path stroke="#000000" stroke-width="0.0" stroke-linecap="butt" stroke-opacity="0.0" clip-path="url(#id_0)" d="M159.0 268.0L159.0 259.0L253.0 259.0C254.10457 259.0 255.0 259.89542 255.0 261.0L255.0 266.0C255.0 267.10458 254.10457 268.0 253.0 268.0Z" fill-rule="nonzero"/><path fill="#4285f4" clip-path="url(#id_0)" d="M159.0 268.0L159.0 259.0L253.0 259.0C254.10457 259.0 255.0 259.89542 255.0 261.0L255.0 266.0C255.0 267.10458 254.10457 268.0 253.0 268.0Z" fill-rule="nonzero"/><path stroke="#000000" stroke-width="0.0" stroke-linecap="butt" stroke-opacity="0.0" clip-path="url(#id_0)" d="M159.0 281.0L159.0 272.0L253.0 272.0C254.10457 272.0 255.0 272.89542 255.0 274.0L255.0 279.0C255.0 280.10458 254.10457 281.0 253.0 281.0Z" fill-rule="nonzero"/><path fill="#4285f4" clip-path="url(#id_0)" d="M159.0 281.0L159.0 272.0L253.0 272.0C254.10457 272.0 255.0 272.89542 255.0 274.0L255.0 279.0C255.0 280.10458 254.10457 281.0 253.0 281.0Z" fill-rule="nonzero"/><path stroke="#000000" stroke-width="0.0" stroke-linecap="butt" stroke-opacity="0.0" clip-path="url(#id_0)" d="M159.0 294.0L159.0 285.0L159.0 285.0L159.0 294.0Z" fill-rule="nonzero"/><path fill="#4285f4" clip-path="url(#id_0)" d="M159.0 294.0L159.0 285.0L159.0 285.0L159.0 294.0Z" fill-rule="nonzero"/><path fill="#424242" d="M316.29688 348.325Q315.85938 348.95 315.07812 349.2625Q314.29688 349.575 313.26562 349.575Q312.23438 349.575 311.42188 349.09064Q310.60938 348.59064 310.17188 347.6844Q309.73438 346.77814 309.71875 345.59064L309.71875 344.85626Q309.71875 342.91876 310.60938 341.85626Q311.51562 340.79376 313.14062 340.79376Q314.48438 340.79376 315.29688 341.48126Q316.10938 342.16876 316.29688 343.41876L315.17188 343.41876Q314.84375 341.73126 313.15625 341.73126Q312.01562 341.73126 311.4375 342.52814Q310.85938 343.3094 310.84375 344.825L310.84375 345.5125Q310.84375 346.95 311.5 347.8094Q312.15625 348.65314 313.28125 348.65314Q313.90625 348.65314 314.375 348.5125Q314.85938 348.3719 315.17188 348.02814L315.17188 346.1219L313.20312 346.1219L313.20312 345.2L316.29688 345.2L316.29688 348.325ZM320.89062 344.075Q320.64062 344.04376 320.35938 344.04376Q319.28125 344.04376 318.90625 344.95L318.90625 349.45L317.82812 349.45L317.82812 343.10626L318.875 343.10626L318.89062 343.84064Q319.42188 342.9969 320.40625 342.9969Q320.71875 342.9969 320.89062 343.075L320.89062 344.075ZM321.53125 346.21564Q321.53125 345.29376 321.89062 344.54376Q322.26562 343.79376 322.92188 343.40314Q323.57812 342.9969 324.40625 342.9969Q325.70312 342.9969 326.5 343.8875Q327.3125 344.77814 327.3125 346.27814L327.3125 346.35626Q327.3125 347.27814 326.95312 348.0125Q326.59375 348.7469 325.9375 349.16876Q325.28125 349.575 324.42188 349.575Q323.14062 349.575 322.32812 348.6844Q321.53125 347.77814 321.53125 346.29376L321.53125 346.21564ZM322.625 346.35626Q322.625 347.40314 323.10938 348.04376Q323.60938 348.6844 324.42188 348.6844Q325.25 348.6844 325.73438 348.04376Q326.21875 347.3875 326.21875 346.21564Q326.21875 345.1844 325.71875 344.54376Q325.23438 343.8875 324.40625 343.8875Q323.60938 343.8875 323.10938 344.52814Q322.625 345.15314 322.625 346.35626ZM332.73438 348.825Q332.10938 349.575 330.875 349.575Q329.85938 349.575 329.32812 348.98126Q328.79688 348.3875 328.79688 347.23126L328.79688 343.10626L329.875 343.10626L329.875 347.2Q329.875 348.65314 331.04688 348.65314Q332.29688 348.65314 332.70312 347.71564L332.70312 343.10626L333.79688 343.10626L333.79688 349.45L332.76562 349.45L332.73438 348.825ZM336.84375 343.10626L336.875 343.90314Q337.60938 342.9969 338.78125 342.9969Q340.79688 342.9969 340.8125 345.2625L340.8125 349.45L339.71875 349.45L339.71875 345.2469Q339.71875 344.575 339.40625 344.2469Q339.10938 343.91876 338.45312 343.91876Q337.92188 343.91876 337.51562 344.2Q337.125 344.48126 336.90625 344.9344L336.90625 349.45L335.82812 349.45L335.82812 343.10626L336.84375 343.10626ZM342.5625 346.23126Q342.5625 344.7625 343.25 343.8875Q343.9375 342.9969 345.0625 342.9969Q346.17188 342.9969 346.82812 343.7469L346.82812 340.45L347.90625 340.45L347.90625 349.45L346.90625 349.45L346.85938 348.7625Q346.20312 349.575 345.04688 349.575Q343.95312 349.575 343.25 348.66876Q342.5625 347.7625 342.5625 346.3094L342.5625 346.23126ZM343.64062 346.35626Q343.64062 347.4344 344.07812 348.04376Q344.53125 348.65314 345.3125 348.65314Q346.34375 348.65314 346.82812 347.71564L346.82812 344.8094Q346.34375 343.91876 345.32812 343.91876Q344.53125 343.91876 344.07812 344.52814Q343.64062 345.1375 343.64062 346.35626ZM352.07812 346.2625L349.21875 346.2625L349.21875 345.3875L352.07812 345.3875L352.07812 346.2625ZM354.29688 341.575L354.29688 343.10626L355.46875 343.10626L355.46875 343.95L354.29688 343.95L354.29688 347.8719Q354.29688 348.2625 354.45312 348.45Q354.60938 348.6375 354.98438 348.6375Q355.17188 348.6375 355.5 348.575L355.5 349.45Q355.07812 349.575 354.67188 349.575Q353.95312 349.575 353.57812 349.1375Q353.20312 348.6844 353.20312 347.8719L353.20312 343.95L352.04688 343.95L352.04688 343.10626L353.20312 343.10626L353.20312 341.575L354.29688 341.575ZM359.89062 344.075Q359.64062 344.04376 359.35938 344.04376Q358.28125 344.04376 357.90625 344.95L357.90625 349.45L356.82812 349.45L356.82812 343.10626L357.875 343.10626L357.89062 343.84064Q358.42188 342.9969 359.40625 342.9969Q359.71875 342.9969 359.89062 343.075L359.89062 344.075ZM364.73438 348.825Q364.10938 349.575 362.875 349.575Q361.85938 349.575 361.32812 348.98126Q360.79688 348.3875 360.79688 347.23126L360.79688 343.10626L361.875 343.10626L361.875 347.2Q361.875 348.65314 363.04688 348.65314Q364.29688 348.65314 364.70312 347.71564L364.70312 343.10626L365.79688 343.10626L365.79688 349.45L364.76562 349.45L364.73438 348.825ZM369.29688 341.575L369.29688 343.10626L370.46875 343.10626L370.46875 343.95L369.29688 343.95L369.29688 347.8719Q369.29688 348.2625 369.45312 348.45Q369.60938 348.6375 369.98438 348.6375Q370.17188 348.6375 370.5 348.575L370.5 349.45Q370.07812 349.575 369.67188 349.575Q368.95312 349.575 368.57812 349.1375Q368.20312 348.6844 368.20312 347.8719L368.20312 343.95L367.04688 343.95L367.04688 343.10626L368.20312 343.10626L368.20312 341.575L369.29688 341.575ZM372.90625 343.8719Q373.625 342.9969 374.78125 342.9969Q376.79688 342.9969 376.8125 345.2625L376.8125 349.45L375.71875 349.45L375.71875 345.2469Q375.71875 344.575 375.40625 344.2469Q375.10938 343.91876 374.45312 343.91876Q373.92188 343.91876 373.51562 344.2Q373.125 344.48126 372.90625 344.9344L372.90625 349.45L371.82812 349.45L371.82812 340.45L372.90625 340.45L372.90625 343.8719ZM386.70312 347.21564L383.125 347.21564L382.32812 349.45L381.17188 349.45L384.42188 340.91876L385.40625 340.91876L388.67188 349.45L387.51562 349.45L386.70312 347.21564ZM383.46875 346.29376L386.375 346.29376L384.92188 342.3094L383.46875 346.29376ZM392.35938 348.6844Q392.9375 348.6844 393.375 348.34064Q393.8125 347.98126 393.85938 347.45L394.89062 347.45Q394.85938 347.9969 394.5 348.4969Q394.15625 348.98126 393.57812 349.27814Q393.01562 349.575 392.35938 349.575Q391.0625 349.575 390.29688 348.71564Q389.54688 347.84064 389.54688 346.34064L389.54688 346.15314Q389.54688 345.23126 389.875 344.5125Q390.21875 343.79376 390.84375 343.40314Q391.48438 342.9969 392.35938 342.9969Q393.42188 342.9969 394.125 343.6375Q394.84375 344.2625 394.89062 345.29376L393.85938 345.29376Q393.8125 344.66876 393.39062 344.27814Q392.96875 343.8875 392.35938 343.8875Q391.53125 343.8875 391.07812 344.48126Q390.625 345.075 390.625 346.2L390.625 346.40314Q390.625 347.4969 391.07812 348.09064Q391.53125 348.6844 392.35938 348.6844ZM398.35938 348.6844Q398.9375 348.6844 399.375 348.34064Q399.8125 347.98126 399.85938 347.45L400.89062 347.45Q400.85938 347.9969 400.5 348.4969Q400.15625 348.98126 399.57812 349.27814Q399.01562 349.575 398.35938 349.575Q397.0625 349.575 396.29688 348.71564Q395.54688 347.84064 395.54688 346.34064L395.54688 346.15314Q395.54688 345.23126 395.875 344.5125Q396.21875 343.79376 396.84375 343.40314Q397.48438 342.9969 398.35938 342.9969Q399.42188 342.9969 400.125 343.6375Q400.84375 344.2625 400.89062 345.29376L399.85938 345.29376Q399.8125 344.66876 399.39062 344.27814Q398.96875 343.8875 398.35938 343.8875Q397.53125 343.8875 397.07812 344.48126Q396.625 345.075 396.625 346.2L396.625 346.40314Q396.625 347.4969 397.07812 348.09064Q397.53125 348.6844 398.35938 348.6844ZM405.73438 348.825Q405.10938 349.575 403.875 349.575Q402.85938 349.575 402.32812 348.98126Q401.79688 348.3875 401.79688 347.23126L401.79688 343.10626L402.875 343.10626L402.875 347.2Q402.875 348.65314 404.04688 348.65314Q405.29688 348.65314 405.70312 347.71564L405.70312 343.10626L406.79688 343.10626L406.79688 349.45L405.76562 349.45L405.73438 348.825ZM411.89062 344.075Q411.64062 344.04376 411.35938 344.04376Q410.28125 344.04376 409.90625 344.95L409.90625 349.45L408.82812 349.45L408.82812 343.10626L409.875 343.10626L409.89062 343.84064Q410.42188 342.9969 411.40625 342.9969Q411.71875 342.9969 411.89062 343.075L411.89062 344.075ZM416.73438 349.45Q416.64062 349.2625 416.57812 348.77814Q415.82812 349.575 414.78125 349.575Q413.84375 349.575 413.23438 349.04376Q412.64062 348.5125 412.64062 347.6844Q412.64062 346.7 413.39062 346.15314Q414.14062 345.60626 415.51562 345.60626L416.5625 345.60626L416.5625 345.10626Q416.5625 344.54376 416.21875 344.21564Q415.89062 343.8719 415.21875 343.8719Q414.64062 343.8719 414.25 344.16876Q413.85938 344.45 413.85938 344.8719L412.76562 344.8719Q412.76562 344.3875 413.09375 343.95Q413.4375 343.5125 414.01562 343.2625Q414.59375 342.9969 415.28125 342.9969Q416.39062 342.9969 417.0 343.54376Q417.625 344.09064 417.65625 345.04376L417.65625 347.96564Q417.65625 348.84064 417.875 349.35626L417.875 349.45L416.73438 349.45ZM414.9375 348.6219Q415.45312 348.6219 415.90625 348.35626Q416.35938 348.09064 416.5625 347.66876L416.5625 346.3719L415.71875 346.3719Q413.71875 346.3719 413.71875 347.54376Q413.71875 348.04376 414.0625 348.34064Q414.40625 348.6219 414.9375 348.6219ZM422.35938 348.6844Q422.9375 348.6844 423.375 348.34064Q423.8125 347.98126 423.85938 347.45L424.89062 347.45Q424.85938 347.9969 424.5 348.4969Q424.15625 348.98126 423.57812 349.27814Q423.01562 349.575 422.35938 349.575Q421.0625 349.575 420.29688 348.71564Q419.54688 347.84064 419.54688 346.34064L419.54688 346.15314Q419.54688 345.23126 419.875 344.5125Q420.21875 343.79376 420.84375 343.40314Q421.48438 342.9969 422.35938 342.9969Q423.42188 342.9969 424.125 343.6375Q424.84375 344.2625 424.89062 345.29376L423.85938 345.29376Q423.8125 344.66876 423.39062 344.27814Q422.96875 343.8875 422.35938 343.8875Q421.53125 343.8875 421.07812 344.48126Q420.625 345.075 420.625 346.2L420.625 346.40314Q420.625 347.4969 421.07812 348.09064Q421.53125 348.6844 422.35938 348.6844ZM427.89062 347.85626L429.375 343.10626L430.53125 343.10626L427.98438 350.4344Q427.39062 352.0125 426.10938 352.0125L425.89062 351.9969L425.5 351.91876L425.5 351.04376L425.78125 351.0594Q426.34375 351.0594 426.64062 350.84064Q426.95312 350.6219 427.15625 350.02814L427.39062 349.3719L425.125 343.10626L426.3125 343.10626L427.89062 347.85626Z" fill-rule="nonzero"/><path fill="#424242" d="M26.753138 257.68335Q26.331263 259.12085 25.721888 259.79272Q25.112513 260.44897 24.221888 260.44897Q23.221888 260.44897 22.565638 259.6521Q21.893763 258.8396 21.893763 257.54272Q21.893763 256.66772 22.237513 255.98021Q22.581263 255.29271 23.175013 254.91771Q23.768763 254.52708 24.487513 254.52708L24.487513 255.66771Q23.706263 255.66771 23.268763 256.16772Q22.831263 256.6521 22.831263 257.54272Q22.831263 258.37085 23.206263 258.8396Q23.565638 259.30835 24.206263 259.30835Q24.737513 259.30835 25.096888 258.87085Q25.456263 258.41772 25.753138 257.35522Q26.050013 256.29272 26.409388 255.69896Q26.768763 255.08958 27.253138 254.80833Q27.737513 254.51146 28.378138 254.51146Q29.425013 254.51146 30.050013 255.32396Q30.675013 256.13647 30.675013 257.48022Q30.675013 258.37085 30.331263 259.13647Q29.987513 259.88647 29.409388 260.30835Q28.815638 260.7146 28.081263 260.7146L28.081263 259.5896Q28.846888 259.5896 29.300013 259.01147Q29.753138 258.43335 29.753138 257.48022Q29.753138 256.5896 29.393763 256.12085Q29.018763 255.65208 28.393763 255.65208Q27.768763 255.65208 27.425013 256.0896Q27.081263 256.5271 26.753138 257.68335ZM30.675013 250.73021Q30.675013 252.02708 29.831263 252.83958Q28.971888 253.63646 27.550013 253.63646L27.362513 253.63646Q26.409388 253.63646 25.675013 253.27708Q24.925013 252.91771 24.518763 252.27708Q24.096888 251.62083 24.096888 250.87083Q24.096888 249.63646 24.909388 248.94896Q25.721888 248.26146 27.237513 248.26146L27.690638 248.26146L27.690638 252.55833Q28.628138 252.52708 29.206263 252.01146Q29.784388 251.48021 29.784388 250.66771Q29.784388 250.10521 29.550013 249.71458Q29.315638 249.30833 28.925013 248.99583L29.440638 248.33958Q30.675013 249.13646 30.675013 250.73021ZM24.987513 250.87083Q24.987513 251.52708 25.471888 251.98021Q25.940638 252.41771 26.800013 252.51146L26.800013 249.33958L26.721888 249.33958Q25.893763 249.38646 25.440638 249.79271Q24.987513 250.18333 24.987513 250.87083ZM24.206263 246.33958L25.003138 246.30833Q24.096888 245.57396 24.096888 244.40208Q24.096888 242.38646 26.362513 242.37083L30.550013 242.37083L30.550013 243.46458L26.346888 243.46458Q25.675013 243.46458 25.346888 243.77708Q25.018763 244.07396 25.018763 244.73021Q25.018763 245.26146 25.300013 245.66771Q25.581263 246.05833 26.034388 246.27708L30.550013 246.27708L30.550013 247.35521L24.206263 247.35521L24.206263 246.33958ZM22.675013 238.88646L24.206263 238.88646L24.206263 237.71458L25.050013 237.71458L25.050013 238.88646L28.971888 238.88646Q29.362513 238.88646 29.550013 238.73021Q29.737513 238.57396 29.737513 238.19896Q29.737513 238.01146 29.675013 237.68333L30.550013 237.68333Q30.675013 238.10521 30.675013 238.51146Q30.675013 239.23021 30.237513 239.60521Q29.784388 239.98021 28.971888 239.98021L25.050013 239.98021L25.050013 241.13646L24.206263 241.13646L24.206263 239.98021L22.675013 239.98021L22.675013 238.88646ZM30.550013 235.18333L30.550013 236.26146L24.206263 236.26146L24.206263 235.18333L30.550013 235.18333ZM22.534388 236.35521Q22.268763 236.35521 22.081263 236.19896Q21.893763 236.02708 21.893763 235.71458Q21.893763 235.40208 22.081263 235.24583Q22.268763 235.07396 22.534388 235.07396Q22.784388 235.07396 22.971888 235.24583Q23.143763 235.40208 23.143763 235.71458Q23.143763 236.02708 22.971888 236.19896Q22.784388 236.35521 22.534388 236.35521ZM24.206263 232.33958L24.909388 232.30833Q24.096888 231.62083 24.096888 230.43333Q24.096888 229.10521 25.112513 228.62083Q24.659388 228.30833 24.378138 227.80833Q24.096888 227.29271 24.096888 226.60521Q24.096888 224.51146 26.300013 224.48021L30.550013 224.48021L30.550013 225.55833L26.362513 225.55833Q25.690638 225.55833 25.362513 225.87083Q25.018763 226.18333 25.018763 226.91771Q25.018763 227.52708 25.378138 227.93333Q25.737513 228.32396 26.346888 228.38646L30.550013 228.38646L30.550013 229.46458L26.393763 229.46458Q25.018763 229.46458 25.018763 230.82396Q25.018763 231.88646 25.925013 232.27708L30.550013 232.27708L30.550013 233.37083L24.206263 233.37083L24.206263 232.33958ZM30.675013 219.73021Q30.675013 221.02708 29.831263 221.83958Q28.971888 222.63646 27.550013 222.63646L27.362513 222.63646Q26.409388 222.63646 25.675013 222.27708Q24.925013 221.91771 24.518763 221.27708Q24.096888 220.62083 24.096888 219.87083Q24.096888 218.63646 24.909388 217.94896Q25.721888 217.26146 27.237513 217.26146L27.690638 217.26146L27.690638 221.55833Q28.628138 221.52708 29.206263 221.01146Q29.784388 220.48021 29.784388 219.66771Q29.784388 219.10521 29.550013 218.71458Q29.315638 218.30833 28.925013 217.99583L29.440638 217.33958Q30.675013 218.13646 30.675013 219.73021ZM24.987513 219.87083Q24.987513 220.52708 25.471888 220.98021Q25.940638 221.41771 26.800013 221.51146L26.800013 218.33958L26.721888 218.33958Q25.893763 218.38646 25.440638 218.79271Q24.987513 219.18333 24.987513 219.87083ZM24.206263 215.33958L25.003138 215.30833Q24.096888 214.57396 24.096888 213.40208Q24.096888 211.38646 26.362513 211.37083L30.550013 211.37083L30.550013 212.46458L26.346888 212.46458Q25.675013 212.46458 25.346888 212.77708Q25.018763 213.07396 25.018763 213.73021Q25.018763 214.26146 25.300013 214.66771Q25.581263 215.05833 26.034388 215.27708L30.550013 215.27708L30.550013 216.35521L24.206263 216.35521L24.206263 215.33958ZM22.675013 207.88646L24.206263 207.88646L24.206263 206.71458L25.050013 206.71458L25.050013 207.88646L28.971888 207.88646Q29.362513 207.88646 29.550013 207.73021Q29.737513 207.57396 29.737513 207.19896Q29.737513 207.01146 29.675013 206.68333L30.550013 206.68333Q30.675013 207.10521 30.675013 207.51146Q30.675013 208.23021 30.237513 208.60521Q29.784388 208.98021 28.971888 208.98021L25.050013 208.98021L25.050013 210.13646L24.206263 210.13646L24.206263 208.98021L22.675013 208.98021L22.675013 207.88646ZM28.315638 197.48021L28.315638 201.05833L30.550013 201.85521L30.550013 203.01146L22.018763 199.76146L22.018763 198.77708L30.550013 195.51146L30.550013 196.66771L28.315638 197.48021ZM27.393763 200.71458L27.393763 197.80833L23.409388 199.26146L27.393763 200.71458ZM24.206263 193.33958L25.003138 193.30833Q24.096888 192.57396 24.096888 191.40208Q24.096888 189.38646 26.362513 189.37083L30.550013 189.37083L30.550013 190.46458L26.346888 190.46458Q25.675013 190.46458 25.346888 190.77708Q25.018763 191.07396 25.018763 191.73021Q25.018763 192.26146 25.300013 192.66771Q25.581263 193.05833 26.034388 193.27708L30.550013 193.27708L30.550013 194.35521L24.206263 194.35521L24.206263 193.33958ZM30.550013 183.44896Q30.362513 183.54271 29.878138 183.60521Q30.675013 184.35521 30.675013 185.40208Q30.675013 186.33958 30.143763 186.94896Q29.612513 187.54271 28.784388 187.54271Q27.800013 187.54271 27.253138 186.79271Q26.706263 186.04271 26.706263 184.66771L26.706263 183.62083L26.206263 183.62083Q25.643763 183.62083 25.315638 183.96458Q24.971888 184.29271 24.971888 184.96458Q24.971888 185.54271 25.268763 185.93333Q25.550013 186.32396 25.971888 186.32396L25.971888 187.41771Q25.487513 187.41771 25.050013 187.08958Q24.612513 186.74583 24.362513 186.16771Q24.096888 185.58958 24.096888 184.90208Q24.096888 183.79271 24.643763 183.18333Q25.190638 182.55833 26.143763 182.52708L29.065638 182.52708Q29.940638 182.52708 30.456263 182.30833L30.550013 182.30833L30.550013 183.44896ZM29.721888 185.24583Q29.721888 184.73021 29.456263 184.27708Q29.190638 183.82396 28.768763 183.62083L27.471888 183.62083L27.471888 184.46458Q27.471888 186.46458 28.643763 186.46458Q29.143763 186.46458 29.440638 186.12083Q29.721888 185.77708 29.721888 185.24583ZM30.550013 179.18333L30.550013 180.26146L21.550013 180.26146L21.550013 179.18333L30.550013 179.18333ZM28.956263 175.29271L24.206263 173.80833L24.206263 172.65208L31.534388 175.19896Q33.11251 175.79271 33.11251 177.07396L33.096886 177.29271L33.01876 177.68333L32.14376 177.68333L32.159386 177.40208Q32.159386 176.83958 31.940638 176.54271Q31.721888 176.23021 31.128138 176.02708L30.471888 175.79271L24.206263 178.05833L24.206263 176.87083L28.956263 175.29271ZM28.862513 167.66771Q28.425013 167.66771 28.190638 168.01146Q27.940638 168.33958 27.768763 169.16771Q27.596888 169.98021 27.346888 170.46458Q27.096888 170.94896 26.768763 171.18333Q26.425013 171.40208 25.956263 171.40208Q25.175013 171.40208 24.643763 170.74583Q24.096888 170.08958 24.096888 169.05833Q24.096888 167.98021 24.659388 167.32396Q25.206263 166.65208 26.065638 166.65208L26.065638 167.73021Q25.628138 167.73021 25.315638 168.12083Q24.987513 168.49583 24.987513 169.05833Q24.987513 169.65208 25.253138 169.99583Q25.503138 170.32396 25.909388 170.32396Q26.300013 170.32396 26.503138 170.01146Q26.706263 169.69896 26.893763 168.88646Q27.065638 168.07396 27.315638 167.57396Q27.565638 167.07396 27.925013 166.83958Q28.284388 166.58958 28.784388 166.58958Q29.643763 166.58958 30.159388 167.27708Q30.675013 167.94896 30.675013 169.02708Q30.675013 169.79271 30.409388 170.38646Q30.128138 170.96458 29.643763 171.29271Q29.159388 171.62083 28.596888 171.62083L28.596888 170.54271Q29.143763 170.51146 29.471888 170.10521Q29.784388 169.69896 29.784388 169.02708Q29.784388 168.41771 29.534388 168.04271Q29.284388 167.66771 28.862513 167.66771ZM30.550013 164.18333L30.550013 165.26146L24.206263 165.26146L24.206263 164.18333L30.550013 164.18333ZM22.534388 165.35521Q22.268763 165.35521 22.081263 165.19896Q21.893763 165.02708 21.893763 164.71458Q21.893763 164.40208 22.081263 164.24583Q22.268763 164.07396 22.534388 164.07396Q22.784388 164.07396 22.971888 164.24583Q23.143763 164.40208 23.143763 164.71458Q23.143763 165.02708 22.971888 165.19896Q22.784388 165.35521 22.534388 165.35521ZM28.862513 158.66771Q28.425013 158.66771 28.190638 159.01146Q27.940638 159.33958 27.768763 160.16771Q27.596888 160.98021 27.346888 161.46458Q27.096888 161.94896 26.768763 162.18333Q26.425013 162.40208 25.956263 162.40208Q25.175013 162.40208 24.643763 161.74583Q24.096888 161.08958 24.096888 160.05833Q24.096888 158.98021 24.659388 158.32396Q25.206263 157.65208 26.065638 157.65208L26.065638 158.73021Q25.628138 158.73021 25.315638 159.12083Q24.987513 159.49583 24.987513 160.05833Q24.987513 160.65208 25.253138 160.99583Q25.503138 161.32396 25.909388 161.32396Q26.300013 161.32396 26.503138 161.01146Q26.706263 160.69896 26.893763 159.88646Q27.065638 159.07396 27.315638 158.57396Q27.565638 158.07396 27.925013 157.83958Q28.284388 157.58958 28.784388 157.58958Q29.643763 157.58958 30.159388 158.27708Q30.675013 158.94896 30.675013 160.02708Q30.675013 160.79271 30.409388 161.38646Q30.128138 161.96458 29.643763 162.29271Q29.159388 162.62083 28.596888 162.62083L28.596888 161.54271Q29.143763 161.51146 29.471888 161.10521Q29.784388 160.69896 29.784388 160.02708Q29.784388 159.41771 29.534388 159.04271Q29.284388 158.66771 28.862513 158.66771ZM22.018763 151.74583L28.971888 148.94896L22.018763 146.16771L22.018763 144.69896L30.550013 144.69896L30.550013 145.82396L27.221888 145.82396L23.643763 145.71458L30.550013 148.52708L30.550013 149.38646L23.659388 152.18333L27.221888 152.07396L30.550013 152.07396L30.550013 153.19896L22.018763 153.19896L22.018763 151.74583ZM30.675013 140.73021Q30.675013 142.02708 29.831263 142.83958Q28.971888 143.63646 27.550013 143.63646L27.362513 143.63646Q26.409388 143.63646 25.675013 143.27708Q24.925013 142.91771 24.518763 142.27708Q24.096888 141.62083 24.096888 140.87083Q24.096888 139.63646 24.909388 138.94896Q25.721888 138.26146 27.237513 138.26146L27.690638 138.26146L27.690638 142.55833Q28.628138 142.52708 29.206263 142.01146Q29.784388 141.48021 29.784388 140.66771Q29.784388 140.10521 29.550013 139.71458Q29.315638 139.30833 28.925013 138.99583L29.440638 138.33958Q30.675013 139.13646 30.675013 140.73021ZM24.987513 140.87083Q24.987513 141.52708 25.471888 141.98021Q25.940638 142.41771 26.800013 142.51146L26.800013 139.33958L26.721888 139.33958Q25.893763 139.38646 25.440638 139.79271Q24.987513 140.18333 24.987513 140.87083ZM22.675013 135.88646L24.206263 135.88646L24.206263 134.71458L25.050013 134.71458L25.050013 135.88646L28.971888 135.88646Q29.362513 135.88646 29.550013 135.73021Q29.737513 135.57396 29.737513 135.19896Q29.737513 135.01146 29.675013 134.68333L30.550013 134.68333Q30.675013 135.10521 30.675013 135.51146Q30.675013 136.23021 30.237513 136.60521Q29.784388 136.98021 28.971888 136.98021L25.050013 136.98021L25.050013 138.13646L24.206263 138.13646L24.206263 136.98021L22.675013 136.98021L22.675013 135.88646ZM24.971888 132.27708Q24.096888 131.55833 24.096888 130.40208Q24.096888 128.38646 26.362513 128.37083L30.550013 128.37083L30.550013 129.46458L26.346888 129.46458Q25.675013 129.46458 25.346888 129.77708Q25.018763 130.07396 25.018763 130.73021Q25.018763 131.26146 25.300013 131.66771Q25.581263 132.05833 26.034388 132.27708L30.550013 132.27708L30.550013 133.35521L21.550013 133.35521L21.550013 132.27708L24.971888 132.27708ZM27.315638 126.652084Q26.393763 126.652084 25.643763 126.29271Q24.893763 125.91771 24.503138 125.26146Q24.096888 124.60521 24.096888 123.777084Q24.096888 122.48021 24.987513 121.683334Q25.878138 120.870834 27.378138 120.870834L27.456263 120.870834Q28.378138 120.870834 29.112513 121.23021Q29.846888 121.589584 30.268763 122.245834Q30.675013 122.902084 30.675013 123.76146Q30.675013 125.04271 29.784388 125.85521Q28.878138 126.652084 27.393763 126.652084L27.315638 126.652084ZM27.456263 125.558334Q28.503138 125.558334 29.143763 125.07396Q29.784388 124.57396 29.784388 123.76146Q29.784388 122.933334 29.143763 122.44896Q28.487513 121.964584 27.315638 121.964584Q26.284388 121.964584 25.643763 122.464584Q24.987513 122.94896 24.987513 123.777084Q24.987513 124.57396 25.628138 125.07396Q26.253138 125.558334 27.456263 125.558334ZM27.331263 119.620834Q25.862513 119.620834 24.987513 118.933334Q24.096888 118.245834 24.096888 117.120834Q24.096888 116.01146 24.846888 115.35521L21.550013 115.35521L21.550013 114.277084L30.550013 114.277084L30.550013 115.277084L29.862513 115.32396Q30.675013 115.98021 30.675013 117.13646Q30.675013 118.23021 29.768763 118.933334Q28.862513 119.620834 27.409388 119.620834L27.331263 119.620834ZM27.456263 118.54271Q28.534388 118.54271 29.143763 118.10521Q29.753138 117.652084 29.753138 116.870834Q29.753138 115.839584 28.815638 115.35521L25.909388 115.35521Q25.018763 115.839584 25.018763 116.85521Q25.018763 117.652084 25.628138 118.10521Q26.237513 118.54271 27.456263 118.54271Z" fill-rule="nonzero"/><path fill="#757575" d="M119.05 64.5781Q117.6125 64.15623 116.94063 63.546852Q116.28438 62.937477 116.28438 62.046852Q116.28438 61.046852 117.08125 60.390602Q117.89375 59.718727 119.19063 59.718727Q120.06563 59.718727 120.75313 60.062477Q121.44063 60.406227 121.81563 60.999977Q122.20625 61.593727 122.20625 62.312477L121.06563 62.312477Q121.06563 61.531227 120.56563 61.093727Q120.08125 60.656227 119.19063 60.656227Q118.3625 60.656227 117.89375 61.031227Q117.425 61.390602 117.425 62.031227Q117.425 62.562477 117.8625 62.921852Q118.31563 63.281227 119.37813 63.578102Q120.44063 63.874977 121.03438 64.23435Q121.64375 64.59373 121.925 65.0781Q122.22188 65.56248 122.22188 66.2031Q122.22188 67.24998 121.40938 67.87498Q120.59688 68.49998 119.25313 68.49998Q118.3625 68.49998 117.59688 68.15623Q116.84688 67.81248 116.425 67.23435Q116.01875 66.6406 116.01875 65.90623L117.14375 65.90623Q117.14375 66.67185 117.72188 67.12498Q118.3 67.5781 119.25313 67.5781Q120.14375 67.5781 120.6125 67.21873Q121.08125 66.84373 121.08125 66.21873Q121.08125 65.59373 120.64375 65.24998Q120.20625 64.90623 119.05 64.5781ZM130.09688 64.3906Q130.09688 65.6406 129.675 66.5781Q129.25313 67.49998 128.47188 67.99998Q127.70625 68.49998 126.675 68.49998Q125.675 68.49998 124.89375 67.99998Q124.1125 67.49998 123.675 66.59373Q123.25313 65.67185 123.2375 64.4531L123.2375 63.843727Q123.2375 62.609352 123.65938 61.671852Q124.09688 60.734352 124.87813 60.234352Q125.65938 59.718727 126.675 59.718727Q127.69063 59.718727 128.47188 60.218727Q129.25313 60.718727 129.675 61.656227Q130.09688 62.593727 130.09688 63.843727L130.09688 64.3906ZM128.9875 63.828102Q128.9875 62.312477 128.37813 61.499977Q127.76875 60.687477 126.675 60.687477Q125.59688 60.687477 124.9875 61.499977Q124.37813 62.312477 124.3625 63.749977L124.3625 64.3906Q124.3625 65.85935 124.97188 66.7031Q125.59688 67.53123 126.675 67.53123Q127.76875 67.53123 128.3625 66.74998Q128.97188 65.9531 128.9875 64.46873L128.9875 63.828102ZM137.81563 65.67185Q137.65938 67.0156 136.81563 67.7656Q135.97188 68.49998 134.58125 68.49998Q133.06563 68.49998 132.15938 67.42185Q131.25313 66.3281 131.25313 64.49998L131.25313 63.687477Q131.25313 62.499977 131.675 61.593727Q132.09688 60.687477 132.87813 60.203102Q133.65938 59.718727 134.675 59.718727Q136.03438 59.718727 136.84688 60.484352Q137.675 61.249977 137.81563 62.578102L136.69063 62.578102Q136.53438 61.562477 136.05 61.109352Q135.56563 60.656227 134.675 60.656227Q133.59688 60.656227 132.9875 61.453102Q132.37813 62.249977 132.37813 63.718727L132.37813 64.54685Q132.37813 65.93748 132.95625 66.7656Q133.53438 67.5781 134.58125 67.5781Q135.51875 67.5781 136.01875 67.15623Q136.51875 66.71873 136.69063 65.67185L137.81563 65.67185ZM144.25313 66.1406L140.675 66.1406L139.87813 68.37498L138.72188 68.37498L141.97188 59.843727L142.95625 59.843727L146.22188 68.37498L145.06563 68.37498L144.25313 66.1406ZM141.01875 65.21873L143.925 65.21873L142.47188 61.234352L141.01875 65.21873ZM148.675 67.4531L152.72188 67.4531L152.72188 68.37498L147.53438 68.37498L147.53438 59.843727L148.675 59.843727L148.675 67.4531Z" fill-rule="nonzero"/><path fill="#757575" d="M95.05 91.12125Q93.6125 90.69937 92.94063 90.09Q92.28438 89.48062 92.28438 88.59Q92.28438 87.59 93.08125 86.93375Q93.89375 86.26187 95.19063 86.26187Q96.06563 86.26187 96.75313 86.60562Q97.44063 86.94937 97.81563 87.54312Q98.20625 88.13687 98.20625 88.85562L97.06563 88.85562Q97.06563 88.07437 96.56563 87.63687Q96.08125 87.19937 95.19063 87.19937Q94.3625 87.19937 93.89375 87.57437Q93.425 87.93375 93.425 88.57437Q93.425 89.10562 93.8625 89.465Q94.31563 89.82437 95.37813 90.12125Q96.44063 90.41812 97.03438 90.7775Q97.64375 91.13687 97.925 91.62125Q98.22188 92.10562 98.22188 92.74625Q98.22188 93.79312 97.40938 94.41812Q96.59688 95.04312 95.25313 95.04312Q94.3625 95.04312 93.59688 94.69937Q92.84688 94.35562 92.425 93.7775Q92.01875 93.18375 92.01875 92.44937L93.14375 92.44937Q93.14375 93.215 93.72188 93.66812Q94.3 94.12125 95.25313 94.12125Q96.14375 94.12125 96.6125 93.76187Q97.08125 93.38687 97.08125 92.76187Q97.08125 92.13687 96.64375 91.79312Q96.20625 91.44937 95.05 91.12125ZM105.44063 87.30875L102.69063 87.30875L102.69063 94.91812L101.58125 94.91812L101.58125 87.30875L98.83125 87.30875L98.83125 86.38687L105.44063 86.38687L105.44063 87.30875ZM111.25313 92.68375L107.675 92.68375L106.87813 94.91812L105.72188 94.91812L108.97188 86.38687L109.95625 86.38687L113.22188 94.91812L112.06563 94.91812L111.25313 92.68375ZM108.01875 91.76187L110.925 91.76187L109.47188 87.7775L108.01875 91.76187ZM121.09688 94.91812L119.97188 94.91812L115.675 88.34L115.675 94.91812L114.53438 94.91812L114.53438 86.38687L115.675 86.38687L119.97188 92.99625L119.97188 86.38687L121.09688 86.38687L121.09688 94.91812ZM128.25313 91.1525L124.65938 91.1525L124.65938 94.91812L123.53438 94.91812L123.53438 86.38687L128.83125 86.38687L128.83125 87.30875L124.65938 87.30875L124.65938 90.23062L128.25313 90.23062L128.25313 91.1525ZM137.09688 90.93375Q137.09688 92.18375 136.675 93.12125Q136.25313 94.04312 135.47188 94.54312Q134.70625 95.04312 133.675 95.04312Q132.675 95.04312 131.89375 94.54312Q131.1125 94.04312 130.675 93.13687Q130.25313 92.215 130.2375 90.99625L130.2375 90.38687Q130.2375 89.1525 130.65938 88.215Q131.09688 87.2775 131.87813 86.7775Q132.65938 86.26187 133.675 86.26187Q134.69063 86.26187 135.47188 86.76187Q136.25313 87.26187 136.675 88.19937Q137.09688 89.13687 137.09688 90.38687L137.09688 90.93375ZM135.9875 90.37125Q135.9875 88.85562 135.37813 88.04312Q134.76875 87.23062 133.675 87.23062Q132.59688 87.23062 131.9875 88.04312Q131.37813 88.85562 131.3625 90.29312L131.3625 90.93375Q131.3625 92.4025 131.97188 93.24625Q132.59688 94.07437 133.675 94.07437Q134.76875 94.07437 135.3625 93.29312Q135.97188 92.49625 135.9875 91.01187L135.9875 90.37125ZM141.675 91.465L139.65938 91.465L139.65938 94.91812L138.53438 94.91812L138.53438 86.38687L141.3625 86.38687Q142.8 86.38687 143.56563 87.04312Q144.34688 87.69937 144.34688 88.94937Q144.34688 89.74625 143.90938 90.34Q143.4875 90.93375 142.72188 91.23062L144.72188 94.84L144.72188 94.91812L143.51875 94.91812L141.675 91.465ZM139.65938 90.54312L141.39375 90.54312Q142.2375 90.54312 142.72188 90.12125Q143.22188 89.68375 143.22188 88.94937Q143.22188 88.16812 142.75313 87.74625Q142.28438 87.32437 141.39375 87.30875L139.65938 87.30875L139.65938 90.54312ZM145.53438 94.91812L145.53438 86.38687L147.95625 86.38687Q149.06563 86.38687 149.90938 86.88687Q150.76875 87.37125 151.2375 88.2775Q151.70625 89.18375 151.70625 90.37125L151.70625 90.9025Q151.70625 92.12125 151.2375 93.0275Q150.78438 93.93375 149.90938 94.41812Q149.05 94.9025 147.90938 94.91812L145.53438 94.91812ZM146.65938 87.30875L146.65938 93.99625L147.84688 93.99625Q149.14375 93.99625 149.8625 93.19937Q150.59688 92.38687 150.59688 90.88687L150.59688 90.38687Q150.59688 88.93375 149.90938 88.13687Q149.2375 87.32437 147.97188 87.30875L146.65938 87.30875Z" fill-rule="nonzero"/><path fill="#757575" d="M122.25313 119.22689L118.675 119.22689L117.87813 121.461266L116.72188 121.461266L119.97188 112.930016L120.95625 112.930016L124.22188 121.461266L123.06563 121.461266L122.25313 119.22689ZM119.01875 118.305016L121.925 118.305016L120.47188 114.32064L119.01875 118.305016ZM130.25313 117.69564L126.65938 117.69564L126.65938 121.461266L125.53438 121.461266L125.53438 112.930016L130.83125 112.930016L130.83125 113.85189L126.65938 113.85189L126.65938 116.773766L130.25313 116.773766L130.25313 117.69564ZM133.75313 121.461266L132.62813 121.461266L132.62813 112.930016L133.75313 112.930016L133.75313 121.461266ZM142.09688 121.461266L140.97188 121.461266L136.675 114.88314L136.675 121.461266L135.53438 121.461266L135.53438 112.930016L136.675 112.930016L140.97188 119.53939L140.97188 112.930016L142.09688 112.930016L142.09688 121.461266ZM151.09688 121.461266L149.97188 121.461266L145.675 114.88314L145.675 121.461266L144.53438 121.461266L144.53438 112.930016L145.675 112.930016L149.97188 119.53939L149.97188 112.930016L151.09688 112.930016L151.09688 121.461266Z" fill-rule="nonzero"/><path fill="#757575" d="M118.3625 146.50441L120.8 139.47316L122.03438 139.47316L118.8625 148.00441L117.87813 148.00441L114.72188 139.47316L115.94063 139.47316L118.3625 146.50441ZM128.25313 145.77003L124.675 145.77003L123.87813 148.00441L122.72188 148.00441L125.97188 139.47316L126.95625 139.47316L130.22188 148.00441L129.06563 148.00441L128.25313 145.77003ZM125.01875 144.84816L127.925 144.84816L126.47188 140.86378L125.01875 144.84816ZM131.53438 148.00441L131.53438 139.47316L133.95625 139.47316Q135.06563 139.47316 135.90938 139.97316Q136.76875 140.45753 137.2375 141.36378Q137.70625 142.27003 137.70625 143.45753L137.70625 143.98878Q137.70625 145.20753 137.2375 146.11378Q136.78438 147.02003 135.90938 147.50441Q135.05 147.98878 133.90938 148.00441L131.53438 148.00441ZM132.65938 140.39503L132.65938 147.08253L133.84688 147.08253Q135.14375 147.08253 135.8625 146.28566Q136.59688 145.47316 136.59688 143.97316L136.59688 143.47316Q136.59688 142.02003 135.90938 141.22316Q135.2375 140.41066 133.97188 140.39503L132.65938 140.39503ZM144.3625 144.06691L140.65938 144.06691L140.65938 147.08253L144.95625 147.08253L144.95625 148.00441L139.53438 148.00441L139.53438 139.47316L144.90938 139.47316L144.90938 140.39503L140.65938 140.39503L140.65938 143.14503L144.3625 143.14503L144.3625 144.06691ZM149.675 144.55128L147.65938 144.55128L147.65938 148.00441L146.53438 148.00441L146.53438 139.47316L149.3625 139.47316Q150.8 139.47316 151.56563 140.12941Q152.34688 140.78566 152.34688 142.03566Q152.34688 142.83253 151.90938 143.42628Q151.4875 144.02003 150.72188 144.31691L152.72188 147.92628L152.72188 148.00441L151.51875 148.00441L149.675 144.55128ZM147.65938 143.62941L149.39375 143.62941Q150.2375 143.62941 150.72188 143.20753Q151.22188 142.77003 151.22188 142.03566Q151.22188 141.25441 150.75313 140.83253Q150.28438 140.41066 149.39375 140.39503L147.65938 140.39503L147.65938 143.62941Z" fill-rule="nonzero"/><path fill="#757575" d="M91.3625 170.61005L87.65938 170.61005L87.65938 173.62567L91.95625 173.62567L91.95625 174.54755L86.53438 174.54755L86.53438 166.0163L91.90938 166.0163L91.90938 166.93817L87.65938 166.93817L87.65938 169.68817L91.3625 169.68817L91.3625 170.61005ZM94.9875 166.0163L97.78438 172.96942L100.56563 166.0163L102.03438 166.0163L102.03438 174.54755L100.90938 174.54755L100.90938 171.21942L101.01875 167.6413L98.20625 174.54755L97.34688 174.54755L94.55 167.65692L94.65938 171.21942L94.65938 174.54755L93.53438 174.54755L93.53438 166.0163L94.9875 166.0163ZM110.09688 170.56317Q110.09688 171.81317 109.675 172.75067Q109.25313 173.67255 108.47188 174.17255Q107.70625 174.67255 106.675 174.67255Q105.675 174.67255 104.89375 174.17255Q104.1125 173.67255 103.675 172.7663Q103.25313 171.84442 103.2375 170.62567L103.2375 170.0163Q103.2375 168.78192 103.65938 167.84442Q104.09688 166.90692 104.87813 166.40692Q105.65938 165.8913 106.675 165.8913Q107.69063 165.8913 108.47188 166.3913Q109.25313 166.8913 109.675 167.8288Q110.09688 168.7663 110.09688 170.0163L110.09688 170.56317ZM108.9875 170.00067Q108.9875 168.48505 108.37813 167.67255Q107.76875 166.86005 106.675 166.86005Q105.59688 166.86005 104.9875 167.67255Q104.37813 168.48505 104.3625 169.92255L104.3625 170.56317Q104.3625 172.03192 104.97188 172.87567Q105.59688 173.7038 106.675 173.7038Q107.76875 173.7038 108.3625 172.92255Q108.97188 172.12567 108.9875 170.6413L108.9875 170.00067ZM117.44063 166.93817L114.69063 166.93817L114.69063 174.54755L113.58125 174.54755L113.58125 166.93817L110.83125 166.93817L110.83125 166.0163L117.44063 166.0163L117.44063 166.93817ZM119.75313 174.54755L118.62813 174.54755L118.62813 166.0163L119.75313 166.0163L119.75313 174.54755ZM127.81563 171.84442Q127.65938 173.18817 126.81563 173.93817Q125.97188 174.67255 124.58125 174.67255Q123.06563 174.67255 122.15938 173.59442Q121.25313 172.50067 121.25313 170.67255L121.25313 169.86005Q121.25313 168.67255 121.675 167.7663Q122.09688 166.86005 122.87813 166.37567Q123.65938 165.8913 124.675 165.8913Q126.03438 165.8913 126.84688 166.65692Q127.675 167.42255 127.81563 168.75067L126.69063 168.75067Q126.53438 167.73505 126.05 167.28192Q125.56563 166.8288 124.675 166.8288Q123.59688 166.8288 122.9875 167.62567Q122.37813 168.42255 122.37813 169.8913L122.37813 170.71942Q122.37813 172.11005 122.95625 172.93817Q123.53438 173.75067 124.58125 173.75067Q125.51875 173.75067 126.01875 173.3288Q126.51875 172.8913 126.69063 171.84442L127.81563 171.84442ZM136.09688 170.56317Q136.09688 171.81317 135.675 172.75067Q135.25313 173.67255 134.47188 174.17255Q133.70625 174.67255 132.675 174.67255Q131.675 174.67255 130.89375 174.17255Q130.1125 173.67255 129.675 172.7663Q129.25313 171.84442 129.2375 170.62567L129.2375 170.0163Q129.2375 168.78192 129.65938 167.84442Q130.09688 166.90692 130.87813 166.40692Q131.65938 165.8913 132.675 165.8913Q133.69063 165.8913 134.47188 166.3913Q135.25313 166.8913 135.675 167.8288Q136.09688 168.7663 136.09688 170.0163L136.09688 170.56317ZM134.9875 170.00067Q134.9875 168.48505 134.37813 167.67255Q133.76875 166.86005 132.675 166.86005Q131.59688 166.86005 130.9875 167.67255Q130.37813 168.48505 130.3625 169.92255L130.3625 170.56317Q130.3625 172.03192 130.97188 172.87567Q131.59688 173.7038 132.675 173.7038Q133.76875 173.7038 134.3625 172.92255Q134.97188 172.12567 134.9875 170.6413L134.9875 170.00067ZM144.09688 174.54755L142.97188 174.54755L138.675 167.96942L138.675 174.54755L137.53438 174.54755L137.53438 166.0163L138.675 166.0163L142.97188 172.62567L142.97188 166.0163L144.09688 166.0163L144.09688 174.54755ZM149.05 170.75067Q147.6125 170.3288 146.94063 169.71942Q146.28438 169.11005 146.28438 168.21942Q146.28438 167.21942 147.08125 166.56317Q147.89375 165.8913 149.19063 165.8913Q150.06563 165.8913 150.75313 166.23505Q151.44063 166.5788 151.81563 167.17255Q152.20625 167.7663 152.20625 168.48505L151.06563 168.48505Q151.06563 167.7038 150.56563 167.2663Q150.08125 166.8288 149.19063 166.8288Q148.3625 166.8288 147.89375 167.2038Q147.425 167.56317 147.425 168.2038Q147.425 168.73505 147.8625 169.09442Q148.31563 169.4538 149.37813 169.75067Q150.44063 170.04755 151.03438 170.40692Q151.64375 170.7663 151.925 171.25067Q152.22188 171.73505 152.22188 172.37567Q152.22188 173.42255 151.40938 174.04755Q150.59688 174.67255 149.25313 174.67255Q148.3625 174.67255 147.59688 174.3288Q146.84688 173.98505 146.425 173.40692Q146.01875 172.81317 146.01875 172.0788L147.14375 172.0788Q147.14375 172.84442 147.72188 173.29755Q148.3 173.75067 149.25313 173.75067Q150.14375 173.75067 150.6125 173.3913Q151.08125 173.0163 151.08125 172.3913Q151.08125 171.7663 150.64375 171.42255Q150.20625 171.0788 149.05 170.75067Z" fill-rule="nonzero"/><path fill="#757575" d="M120.9875 192.55943L123.78438 199.51256L126.56563 192.55943L128.03438 192.55943L128.03438 201.09068L126.90938 201.09068L126.90938 197.76256L127.01875 194.18443L124.20625 201.09068L123.34688 201.09068L120.55 194.20006L120.65938 197.76256L120.65938 201.09068L119.53438 201.09068L119.53438 192.55943L120.9875 192.55943ZM130.65938 197.74693L130.65938 201.09068L129.53438 201.09068L129.53438 192.55943L132.69063 192.55943Q134.08125 192.55943 134.87813 193.27818Q135.675 193.98131 135.675 195.16881Q135.675 196.40318 134.89375 197.07506Q134.12813 197.74693 132.675 197.74693L130.65938 197.74693ZM130.65938 196.82506L132.69063 196.82506Q133.59688 196.82506 134.06563 196.40318Q134.55 195.98131 134.55 195.18443Q134.55 194.41881 134.06563 193.96568Q133.59688 193.49693 132.75313 193.48131L130.65938 193.48131L130.65938 196.82506ZM144.05 197.10631Q144.05 198.34068 143.65938 199.23131Q143.26875 200.12193 142.56563 200.62193L144.08125 201.82506L143.31563 202.52818L141.51875 201.10631Q141.09688 201.21568 140.62813 201.21568Q139.62813 201.21568 138.84688 200.71568Q138.06563 200.21568 137.62813 199.30943Q137.20625 198.38756 137.19063 197.16881L137.19063 196.55943Q137.19063 195.32506 137.6125 194.38756Q138.05 193.45006 138.83125 192.95006Q139.6125 192.43443 140.6125 192.43443Q141.64375 192.43443 142.425 192.93443Q143.20625 193.43443 143.62813 194.37193Q144.05 195.30943 144.05 196.55943L144.05 197.10631ZM142.925 196.54381Q142.925 195.04381 142.33125 194.23131Q141.7375 193.40318 140.6125 193.40318Q139.55 193.40318 138.94063 194.21568Q138.33125 195.02818 138.31563 196.46568L138.31563 197.10631Q138.31563 198.55943 138.925 199.40318Q139.53438 200.24693 140.62813 200.24693Q141.72188 200.24693 142.31563 199.46568Q142.90938 198.66881 142.925 197.18443L142.925 196.54381ZM150.25313 198.85631L146.675 198.85631L145.87813 201.09068L144.72188 201.09068L147.97188 192.55943L148.95625 192.55943L152.22188 201.09068L151.06563 201.09068L150.25313 198.85631ZM147.01875 197.93443L149.925 197.93443L148.47188 193.95006L147.01875 197.93443Z" fill-rule="nonzero"/><path fill="#757575" d="M59.096874 227.63383L57.971874 227.63383L57.971874 223.69633L53.659374 223.69633L53.659374 227.63383L52.534374 227.63383L52.534374 219.10258L53.659374 219.10258L53.659374 222.77446L57.971874 222.77446L57.971874 219.10258L59.096874 219.10258L59.096874 227.63383ZM66.25313 225.39946L62.675 225.39946L61.878124 227.63383L60.721874 227.63383L63.971874 219.10258L64.95625 219.10258L68.22188 227.63383L67.06563 227.63383L66.25313 225.39946ZM63.01875 224.47758L65.925 224.47758L64.47188 220.49321L63.01875 224.47758ZM70.65938 224.29008L70.65938 227.63383L69.53438 227.63383L69.53438 219.10258L72.69063 219.10258Q74.08125 219.10258 74.87813 219.82133Q75.675 220.52446 75.675 221.71196Q75.675 222.94633 74.89375 223.61821Q74.12813 224.29008 72.675 224.29008L70.65938 224.29008ZM70.65938 223.36821L72.69063 223.36821Q73.59688 223.36821 74.06563 222.94633Q74.55 222.52446 74.55 221.72758Q74.55 220.96196 74.06563 220.50883Q73.59688 220.04008 72.75313 220.02446L70.65938 220.02446L70.65938 223.36821ZM78.65938 224.29008L78.65938 227.63383L77.53438 227.63383L77.53438 219.10258L80.69063 219.10258Q82.08125 219.10258 82.87813 219.82133Q83.675 220.52446 83.675 221.71196Q83.675 222.94633 82.89375 223.61821Q82.12813 224.29008 80.675 224.29008L78.65938 224.29008ZM78.65938 223.36821L80.69063 223.36821Q81.59688 223.36821 82.06563 222.94633Q82.55 222.52446 82.55 221.72758Q82.55 220.96196 82.06563 220.50883Q81.59688 220.04008 80.75313 220.02446L78.65938 220.02446L78.65938 223.36821ZM86.75313 227.63383L85.62813 227.63383L85.62813 219.10258L86.75313 219.10258L86.75313 227.63383ZM95.09688 227.63383L93.97188 227.63383L89.675 221.05571L89.675 227.63383L88.53438 227.63383L88.53438 219.10258L89.675 219.10258L93.97188 225.71196L93.97188 219.10258L95.09688 219.10258L95.09688 227.63383ZM102.3625 223.69633L98.65938 223.69633L98.65938 226.71196L102.95625 226.71196L102.95625 227.63383L97.53438 227.63383L97.53438 219.10258L102.90938 219.10258L102.90938 220.02446L98.65938 220.02446L98.65938 222.77446L102.3625 222.77446L102.3625 223.69633ZM107.05 223.83696Q105.6125 223.41508 104.94063 222.80571Q104.28438 222.19633 104.28438 221.30571Q104.28438 220.30571 105.08125 219.64946Q105.89375 218.97758 107.19063 218.97758Q108.06563 218.97758 108.75313 219.32133Q109.44063 219.66508 109.81563 220.25883Q110.20625 220.85258 110.20625 221.57133L109.06563 221.57133Q109.06563 220.79008 108.56563 220.35258Q108.08125 219.91508 107.19063 219.91508Q106.3625 219.91508 105.89375 220.29008Q105.425 220.64946 105.425 221.29008Q105.425 221.82133 105.8625 222.18071Q106.31563 222.54008 107.37813 222.83696Q108.44063 223.13383 109.03438 223.49321Q109.64375 223.85258 109.925 224.33696Q110.22188 224.82133 110.22188 225.46196Q110.22188 226.50883 109.40938 227.13383Q108.59688 227.75883 107.25313 227.75883Q106.3625 227.75883 105.59688 227.41508Q104.84688 227.07133 104.425 226.49321Q104.01875 225.89946 104.01875 225.16508L105.14375 225.16508Q105.14375 225.93071 105.72188 226.38383Q106.3 226.83696 107.25313 226.83696Q108.14375 226.83696 108.6125 226.47758Q109.08125 226.10258 109.08125 225.47758Q109.08125 224.85258 108.64375 224.50883Q108.20625 224.16508 107.05 223.83696ZM114.05 223.83696Q112.6125 223.41508 111.94063 222.80571Q111.28438 222.19633 111.28438 221.30571Q111.28438 220.30571 112.08125 219.64946Q112.89375 218.97758 114.19063 218.97758Q115.06563 218.97758 115.75313 219.32133Q116.44063 219.66508 116.81563 220.25883Q117.20625 220.85258 117.20625 221.57133L116.06563 221.57133Q116.06563 220.79008 115.56563 220.35258Q115.08125 219.91508 114.19063 219.91508Q113.3625 219.91508 112.89375 220.29008Q112.425 220.64946 112.425 221.29008Q112.425 221.82133 112.8625 222.18071Q113.31563 222.54008 114.37813 222.83696Q115.44063 223.13383 116.03438 223.49321Q116.64375 223.85258 116.925 224.33696Q117.22188 224.82133 117.22188 225.46196Q117.22188 226.50883 116.40938 227.13383Q115.59688 227.75883 114.25313 227.75883Q113.3625 227.75883 112.59688 227.41508Q111.84688 227.07133 111.425 226.49321Q111.01875 225.89946 111.01875 225.16508L112.14375 225.16508Q112.14375 225.93071 112.72188 226.38383Q113.3 226.83696 114.25313 226.83696Q115.14375 226.83696 115.6125 226.47758Q116.08125 226.10258 116.08125 225.47758Q116.08125 224.85258 115.64375 224.50883Q115.20625 224.16508 114.05 223.83696ZM119.75313 227.63383L118.62813 227.63383L118.62813 219.10258L119.75313 219.10258L119.75313 227.63383ZM128.09688 227.63383L126.97188 227.63383L122.675 221.05571L122.675 227.63383L121.53438 227.63383L121.53438 219.10258L122.675 219.10258L126.97188 225.71196L126.97188 219.10258L128.09688 219.10258L128.09688 227.63383ZM130.53438 227.63383L130.53438 219.10258L132.95625 219.10258Q134.06563 219.10258 134.90938 219.60258Q135.76875 220.08696 136.2375 220.99321Q136.70625 221.89946 136.70625 223.08696L136.70625 223.61821Q136.70625 224.83696 136.2375 225.74321Q135.78438 226.64946 134.90938 227.13383Q134.05 227.61821 132.90938 227.63383L130.53438 227.63383ZM131.65938 220.02446L131.65938 226.71196L132.84688 226.71196Q134.14375 226.71196 134.8625 225.91508Q135.59688 225.10258 135.59688 223.60258L135.59688 223.10258Q135.59688 221.64946 134.90938 220.85258Q134.2375 220.04008 132.97188 220.02446L131.65938 220.02446ZM143.3625 223.69633L139.65938 223.69633L139.65938 226.71196L143.95625 226.71196L143.95625 227.63383L138.53438 227.63383L138.53438 219.10258L143.90938 219.10258L143.90938 220.02446L139.65938 220.02446L139.65938 222.77446L143.3625 222.77446L143.3625 223.69633ZM148.33125 222.36821L150.3625 219.10258L151.69063 219.10258L149.00313 223.33696L151.75313 227.63383L150.425 227.63383L148.33125 224.30571L146.22188 227.63383L144.87813 227.63383L147.64375 223.33696L144.95625 219.10258L146.26875 219.10258L148.33125 222.36821Z" fill-rule="nonzero"/><path fill="#757575" d="M112.3625 250.23947L108.65938 250.23947L108.65938 253.2551L112.95625 253.2551L112.95625 254.17697L107.53438 254.17697L107.53438 245.64572L112.90938 245.64572L112.90938 246.5676L108.65938 246.5676L108.65938 249.3176L112.3625 249.3176L112.3625 250.23947ZM115.9875 245.64572L118.78438 252.59885L121.56563 245.64572L123.03438 245.64572L123.03438 254.17697L121.90938 254.17697L121.90938 250.84885L122.01875 247.27072L119.20625 254.17697L118.34688 254.17697L115.55 247.28635L115.65938 250.84885L115.65938 254.17697L114.53438 254.17697L114.53438 245.64572L115.9875 245.64572ZM131.09688 250.1926Q131.09688 251.4426 130.675 252.3801Q130.25313 253.30197 129.47188 253.80197Q128.70625 254.30197 127.675 254.30197Q126.675 254.30197 125.89375 253.80197Q125.1125 253.30197 124.675 252.39572Q124.25313 251.47385 124.2375 250.2551L124.2375 249.64572Q124.2375 248.41135 124.65938 247.47385Q125.09688 246.53635 125.87813 246.03635Q126.65938 245.52072 127.675 245.52072Q128.69063 245.52072 129.47188 246.02072Q130.25313 246.52072 130.675 247.45822Q131.09688 248.39572 131.09688 249.64572L131.09688 250.1926ZM129.9875 249.6301Q129.9875 248.11447 129.37813 247.30197Q128.76875 246.48947 127.675 246.48947Q126.59688 246.48947 125.9875 247.30197Q125.37813 248.11447 125.3625 249.55197L125.3625 250.1926Q125.3625 251.66135 125.97188 252.5051Q126.59688 253.33322 127.675 253.33322Q128.76875 253.33322 129.3625 252.55197Q129.97188 251.7551 129.9875 250.27072L129.9875 249.6301ZM133.675 253.2551L137.72188 253.2551L137.72188 254.17697L132.53438 254.17697L132.53438 245.64572L133.675 245.64572L133.675 253.2551ZM143.3625 250.23947L139.65938 250.23947L139.65938 253.2551L143.95625 253.2551L143.95625 254.17697L138.53438 254.17697L138.53438 245.64572L143.90938 245.64572L143.90938 246.5676L139.65938 246.5676L139.65938 249.3176L143.3625 249.3176L143.3625 250.23947ZM148.33125 248.91135L150.3625 245.64572L151.69063 245.64572L149.00313 249.8801L151.75313 254.17697L150.425 254.17697L148.33125 250.84885L146.22188 254.17697L144.87813 254.17697L147.64375 249.8801L144.95625 245.64572L146.26875 245.64572L148.33125 248.91135Z" fill-rule="nonzero"/><path fill="#757575" d="M66.05 276.92325Q64.6125 276.50137 63.940624 275.892Q63.284374 275.28262 63.284374 274.392Q63.284374 273.392 64.08125 272.73575Q64.89375 272.06387 66.19063 272.06387Q67.06563 272.06387 67.75313 272.40762Q68.44063 272.75137 68.81563 273.34512Q69.20625 273.93887 69.20625 274.65762L68.06563 274.65762Q68.06563 273.87637 67.56563 273.43887Q67.08125 273.00137 66.19063 273.00137Q65.3625 273.00137 64.89375 273.37637Q64.425 273.73575 64.425 274.37637Q64.425 274.90762 64.8625 275.267Q65.31563 275.62637 66.37813 275.92325Q67.44063 276.22012 68.03438 276.5795Q68.64375 276.93887 68.925 277.42325Q69.22188 277.90762 69.22188 278.54825Q69.22188 279.59512 68.40938 280.22012Q67.59688 280.84512 66.25313 280.84512Q65.3625 280.84512 64.59688 280.50137Q63.846874 280.15762 63.425 279.5795Q63.01875 278.98575 63.01875 278.25137L64.14375 278.25137Q64.14375 279.017 64.72188 279.47012Q65.3 279.92325 66.25313 279.92325Q67.14375 279.92325 67.6125 279.56387Q68.08125 279.18887 68.08125 278.56387Q68.08125 277.93887 67.64375 277.59512Q67.20625 277.25137 66.05 276.92325ZM75.3625 276.78262L71.65938 276.78262L71.65938 279.79825L75.95625 279.79825L75.95625 280.72012L70.53438 280.72012L70.53438 272.18887L75.90938 272.18887L75.90938 273.11075L71.65938 273.11075L71.65938 275.86075L75.3625 275.86075L75.3625 276.78262ZM84.09688 280.72012L82.97188 280.72012L78.675 274.142L78.675 280.72012L77.53438 280.72012L77.53438 272.18887L78.675 272.18887L82.97188 278.79825L82.97188 272.18887L84.09688 272.18887L84.09688 280.72012ZM92.44063 273.11075L89.69063 273.11075L89.69063 280.72012L88.58125 280.72012L88.58125 273.11075L85.83125 273.11075L85.83125 272.18887L92.44063 272.18887L92.44063 273.11075ZM94.75313 280.72012L93.62813 280.72012L93.62813 272.18887L94.75313 272.18887L94.75313 280.72012ZM98.37813 278.03262L98.55 279.15762L98.78438 278.142L100.47188 272.18887L101.425 272.18887L103.06563 278.142L103.3 279.17325L103.4875 278.017L104.81563 272.18887L105.94063 272.18887L103.87813 280.72012L102.84688 280.72012L101.08125 274.50137L100.95625 273.84512L100.81563 274.50137L99.00313 280.72012L97.97188 280.72012L95.90938 272.18887L97.03438 272.18887L98.37813 278.03262ZM114.09688 276.73575Q114.09688 277.98575 113.675 278.92325Q113.25313 279.84512 112.47188 280.34512Q111.70625 280.84512 110.675 280.84512Q109.675 280.84512 108.89375 280.34512Q108.1125 279.84512 107.675 278.93887Q107.25313 278.017 107.2375 276.79825L107.2375 276.18887Q107.2375 274.9545 107.65938 274.017Q108.09688 273.0795 108.87813 272.5795Q109.65938 272.06387 110.675 272.06387Q111.69063 272.06387 112.47188 272.56387Q113.25313 273.06387 113.675 274.00137Q114.09688 274.93887 114.09688 276.18887L114.09688 276.73575ZM112.9875 276.17325Q112.9875 274.65762 112.37813 273.84512Q111.76875 273.03262 110.675 273.03262Q109.59688 273.03262 108.9875 273.84512Q108.37813 274.65762 108.3625 276.09512L108.3625 276.73575Q108.3625 278.2045 108.97188 279.04825Q109.59688 279.87637 110.675 279.87637Q111.76875 279.87637 112.3625 279.09512Q112.97188 278.29825 112.9875 276.81387L112.9875 276.17325ZM118.675 277.267L116.65938 277.267L116.65938 280.72012L115.53438 280.72012L115.53438 272.18887L118.3625 272.18887Q119.8 272.18887 120.56563 272.84512Q121.34688 273.50137 121.34688 274.75137Q121.34688 275.54825 120.90938 276.142Q120.4875 276.73575 119.72188 277.03262L121.72188 280.642L121.72188 280.72012L120.51875 280.72012L118.675 277.267ZM116.65938 276.34512L118.39375 276.34512Q119.2375 276.34512 119.72188 275.92325Q120.22188 275.48575 120.22188 274.75137Q120.22188 273.97012 119.75313 273.54825Q119.28438 273.12637 118.39375 273.11075L116.65938 273.11075L116.65938 276.34512ZM122.53438 280.72012L122.53438 272.18887L124.95625 272.18887Q126.06563 272.18887 126.90938 272.68887Q127.76875 273.17325 128.2375 274.0795Q128.70625 274.98575 128.70625 276.17325L128.70625 276.7045Q128.70625 277.92325 128.2375 278.8295Q127.78438 279.73575 126.90938 280.22012Q126.05 280.7045 124.90938 280.72012L122.53438 280.72012ZM123.65938 273.11075L123.65938 279.79825L124.84688 279.79825Q126.14375 279.79825 126.8625 279.00137Q127.59688 278.18887 127.59688 276.68887L127.59688 276.18887Q127.59688 274.73575 126.90938 273.93887Q126.2375 273.12637 124.97188 273.11075L123.65938 273.11075ZM137.09688 280.72012L135.97188 280.72012L131.675 274.142L131.675 280.72012L130.53438 280.72012L130.53438 272.18887L131.675 272.18887L135.97188 278.79825L135.97188 272.18887L137.09688 272.18887L137.09688 280.72012ZM144.3625 276.78262L140.65938 276.78262L140.65938 279.79825L144.95625 279.79825L144.95625 280.72012L139.53438 280.72012L139.53438 272.18887L144.90938 272.18887L144.90938 273.11075L140.65938 273.11075L140.65938 275.86075L144.3625 275.86075L144.3625 276.78262ZM152.44063 273.11075L149.69063 273.11075L149.69063 280.72012L148.58125 280.72012L148.58125 273.11075L145.83125 273.11075L145.83125 272.18887L152.44063 272.18887L152.44063 273.11075Z" fill-rule="nonzero"/><path fill="#757575" d="M161.1125 312.8094Q161.1125 314.71564 160.45625 315.65314Q159.81563 316.575 158.425 316.575Q157.06563 316.575 156.40938 315.66876Q155.75313 314.7625 155.72188 312.95L155.72188 311.5125Q155.72188 309.6219 156.3625 308.71564Q157.01875 307.79376 158.40938 307.79376Q159.78438 307.79376 160.44063 308.6844Q161.09688 309.5594 161.1125 311.40314L161.1125 312.8094ZM160.01875 311.325Q160.01875 309.95 159.62813 309.325Q159.25313 308.6844 158.40938 308.6844Q157.58125 308.6844 157.19063 309.325Q156.81563 309.95 156.81563 311.2469L156.81563 312.98126Q156.81563 314.35626 157.20625 315.02814Q157.6125 315.6844 158.425 315.6844Q159.22188 315.6844 159.6125 315.0594Q160.00313 314.4344 160.01875 313.10626L160.01875 311.325Z" fill-rule="nonzero"/><path fill="#757575" d="M263.57187 316.45L257.97812 316.45L257.97812 315.66876L260.93124 312.3875Q261.5875 311.6375 261.8375 311.1844Q262.0875 310.71564 262.0875 310.21564Q262.0875 309.54376 261.68124 309.1219Q261.29062 308.6844 260.60312 308.6844Q259.80624 308.6844 259.35312 309.15314Q258.9 309.60626 258.9 310.4344L257.82187 310.4344Q257.82187 309.2469 258.57187 308.52814Q259.3375 307.79376 260.60312 307.79376Q261.80624 307.79376 262.49374 308.41876Q263.18124 309.04376 263.18124 310.09064Q263.18124 311.34064 261.57187 313.09064L259.29062 315.5594L263.57187 315.5594L263.57187 316.45ZM270.3375 312.8094Q270.3375 314.71564 269.68124 315.65314Q269.04062 316.575 267.65 316.575Q266.29062 316.575 265.63437 315.66876Q264.97812 314.7625 264.94687 312.95L264.94687 311.5125Q264.94687 309.6219 265.5875 308.71564Q266.24374 307.79376 267.63437 307.79376Q269.00937 307.79376 269.66562 308.6844Q270.32187 309.5594 270.3375 311.40314L270.3375 312.8094ZM269.24374 311.325Q269.24374 309.95 268.85312 309.325Q268.47812 308.6844 267.63437 308.6844Q266.80624 308.6844 266.41562 309.325Q266.04062 309.95 266.04062 311.2469L266.04062 312.98126Q266.04062 314.35626 266.43124 315.02814Q266.8375 315.6844 267.65 315.6844Q268.44687 315.6844 268.8375 315.0594Q269.22812 314.4344 269.24374 313.10626L269.24374 311.325Z" fill-rule="nonzero"/><path fill="#757575" d="M368.28125 313.59064L369.46875 313.59064L369.46875 314.46564L368.28125 314.46564L368.28125 316.45L367.20312 316.45L367.20312 314.46564L363.3125 314.46564L363.3125 313.825L367.125 307.91876L368.28125 307.91876L368.28125 313.59064ZM364.54688 313.59064L367.20312 313.59064L367.20312 309.40314L367.0625 309.6375L364.54688 313.59064ZM376.0625 312.8094Q376.0625 314.71564 375.40625 315.65314Q374.76562 316.575 373.375 316.575Q372.01562 316.575 371.35938 315.66876Q370.70312 314.7625 370.67188 312.95L370.67188 311.5125Q370.67188 309.6219 371.3125 308.71564Q371.96875 307.79376 373.35938 307.79376Q374.73438 307.79376 375.39062 308.6844Q376.04688 309.5594 376.0625 311.40314L376.0625 312.8094ZM374.96875 311.325Q374.96875 309.95 374.57812 309.325Q374.20312 308.6844 373.35938 308.6844Q372.53125 308.6844 372.14062 309.325Q371.76562 309.95 371.76562 311.2469L371.76562 312.98126Q371.76562 314.35626 372.15625 315.02814Q372.5625 315.6844 373.375 315.6844Q374.17188 315.6844 374.5625 315.0594Q374.95312 314.4344 374.96875 313.10626L374.96875 311.325Z" fill-rule="nonzero"/><path fill="#757575" d="M473.69376 307.91876L473.69376 308.825L473.49063 308.825Q472.225 308.85626 471.475 309.59064Q470.725 310.3094 470.6 311.6219Q471.2875 310.85626 472.44376 310.85626Q473.55313 310.85626 474.225 311.6375Q474.89688 312.41876 474.89688 313.66876Q474.89688 314.98126 474.17813 315.77814Q473.45938 316.575 472.24063 316.575Q471.02188 316.575 470.25626 315.6375Q469.50626 314.6844 469.50626 313.2L469.50626 312.79376Q469.50626 310.4344 470.50626 309.1844Q471.50626 307.9344 473.49063 307.91876L473.69376 307.91876ZM472.27188 311.7625Q471.70938 311.7625 471.24063 312.09064Q470.77188 312.41876 470.58438 312.9344L470.58438 313.325Q470.58438 314.3875 471.05313 315.02814Q471.5375 315.66876 472.24063 315.66876Q472.975 315.66876 473.39688 315.1375Q473.81876 314.59064 473.81876 313.71564Q473.81876 312.84064 473.39688 312.3094Q472.975 311.7625 472.27188 311.7625ZM481.7875 312.8094Q481.7875 314.71564 481.13126 315.65314Q480.49063 316.575 479.1 316.575Q477.74063 316.575 477.08438 315.66876Q476.42813 314.7625 476.39688 312.95L476.39688 311.5125Q476.39688 309.6219 477.0375 308.71564Q477.69376 307.79376 479.08438 307.79376Q480.45938 307.79376 481.11563 308.6844Q481.77188 309.5594 481.7875 311.40314L481.7875 312.8094ZM480.69376 311.325Q480.69376 309.95 480.30313 309.325Q479.92813 308.6844 479.08438 308.6844Q478.25626 308.6844 477.86563 309.325Q477.49063 309.95 477.49063 311.2469L477.49063 312.98126Q477.49063 314.35626 477.88126 315.02814Q478.2875 315.6844 479.1 315.6844Q479.89688 315.6844 480.2875 315.0594Q480.67813 314.4344 480.69376 313.10626L480.69376 311.325Z" fill-rule="nonzero"/><path fill="#757575" d="M580.34064 310.1375Q580.34064 310.77814 579.9969 311.27814Q579.65314 311.77814 579.09064 312.0594Q579.7469 312.34064 580.1375 312.90314Q580.52814 313.45 580.52814 314.15314Q580.52814 315.2469 579.77814 315.91876Q579.04376 316.575 577.825 316.575Q576.59064 316.575 575.84064 315.91876Q575.10626 315.2469 575.10626 314.15314Q575.10626 313.45 575.48126 312.90314Q575.85626 312.34064 576.52814 312.0594Q575.96564 311.77814 575.6375 311.27814Q575.3094 310.77814 575.3094 310.1375Q575.3094 309.0594 575.9969 308.4344Q576.6844 307.79376 577.825 307.79376Q578.95 307.79376 579.6375 308.4344Q580.34064 309.0594 580.34064 310.1375ZM579.45 314.1219Q579.45 313.40314 578.9969 312.96564Q578.54376 312.5125 577.8094 312.5125Q577.075 312.5125 576.6219 312.96564Q576.1844 313.40314 576.1844 314.1375Q576.1844 314.85626 576.6219 315.27814Q577.0594 315.6844 577.825 315.6844Q578.575 315.6844 579.0125 315.2625Q579.45 314.84064 579.45 314.1219ZM577.825 308.6844Q577.1844 308.6844 576.77814 309.09064Q576.3875 309.48126 576.3875 310.16876Q576.3875 310.8094 576.77814 311.21564Q577.16876 311.6219 577.8094 311.6219Q578.46564 311.6219 578.85626 311.21564Q579.2469 310.8094 579.2469 310.16876Q579.2469 309.5125 578.84064 309.10626Q578.4344 308.6844 577.825 308.6844ZM587.5125 312.8094Q587.5125 314.71564 586.85626 315.65314Q586.21564 316.575 584.825 316.575Q583.46564 316.575 582.8094 315.66876Q582.15314 314.7625 582.1219 312.95L582.1219 311.5125Q582.1219 309.6219 582.7625 308.71564Q583.41876 307.79376 584.8094 307.79376Q586.1844 307.79376 586.84064 308.6844Q587.4969 309.5594 587.5125 311.40314L587.5125 312.8094ZM586.41876 311.325Q586.41876 309.95 586.02814 309.325Q585.65314 308.6844 584.8094 308.6844Q583.98126 308.6844 583.59064 309.325Q583.21564 309.95 583.21564 311.2469L583.21564 312.98126Q583.21564 314.35626 583.60626 315.02814Q584.0125 315.6844 584.825 315.6844Q585.6219 315.6844 586.0125 315.0594Q586.40314 314.4344 586.41876 313.10626L586.41876 311.325Z" fill-rule="nonzero"/><path fill="#757575" d="M30.70625 35.690624Q29.971874 36.721874 28.675 37.2375Q27.39375 37.753124 25.675 37.753124Q23.925 37.753124 22.58125 36.940624Q21.2375 36.1125 20.503124 34.6125Q19.76875 33.1125 19.7375 31.128124L19.7375 29.878124Q19.7375 26.675 21.2375 24.909374Q22.7375 23.128124 25.45625 23.128124Q27.675 23.128124 29.034374 24.26875Q30.39375 25.409374 30.70625 27.503124L28.83125 27.503124Q28.3 24.675 25.471874 24.675Q23.58125 24.675 22.6125 26.003124Q21.64375 27.33125 21.628124 29.83125L21.628124 31.003124Q21.628124 33.39375 22.721874 34.8Q23.815624 36.20625 25.675 36.20625Q26.7375 36.20625 27.51875 35.971874Q28.315624 35.7375 28.83125 35.190624L28.83125 31.9875L25.55 31.9875L25.55 30.471874L30.70625 30.471874L30.70625 35.690624ZM39.01875 28.596874Q38.6125 28.534374 38.14375 28.534374Q36.3625 28.534374 35.721874 30.05L35.721874 37.55L33.925 37.55L33.925 26.9875L35.675 26.9875L35.70625 28.20625Q36.596874 26.784374 38.221874 26.784374Q38.753124 26.784374 39.01875 26.925L39.01875 28.596874ZM40.440624 32.175Q40.440624 30.6125 41.05 29.378124Q41.659374 28.128124 42.7375 27.45625Q43.83125 26.784374 45.2375 26.784374Q47.39375 26.784374 48.721874 28.284374Q50.065624 29.76875 50.065624 32.253124L50.065624 32.378124Q50.065624 33.925 49.471874 35.159374Q48.878124 36.378124 47.76875 37.065624Q46.675 37.753124 45.253124 37.753124Q43.1125 37.753124 41.76875 36.253124Q40.440624 34.753124 40.440624 32.3L40.440624 32.175ZM42.253124 32.378124Q42.253124 34.14375 43.065624 35.20625Q43.89375 36.26875 45.253124 36.26875Q46.628124 36.26875 47.440624 35.190624Q48.253124 34.1125 48.253124 32.175Q48.253124 30.425 47.425 29.346874Q46.596874 28.26875 45.2375 28.26875Q43.89375 28.26875 43.065624 29.33125Q42.253124 30.39375 42.253124 32.378124ZM58.440624 36.503124Q57.39375 37.753124 55.346874 37.753124Q53.659374 37.753124 52.76875 36.76875Q51.89375 35.784374 51.878124 33.8625L51.878124 26.9875L53.690624 26.9875L53.690624 33.815624Q53.690624 36.20625 55.64375 36.20625Q57.70625 36.20625 58.39375 34.675L58.39375 26.9875L60.20625 26.9875L60.20625 37.55L58.4875 37.55L58.440624 36.503124ZM64.62813 26.9875L64.69063 28.315624Q65.89375 26.784374 67.84688 26.784374Q71.20625 26.784374 71.22188 30.565624L71.22188 37.55L69.425 37.55L69.425 30.55Q69.40938 29.409374 68.89375 28.8625Q68.39375 28.315624 67.3 28.315624Q66.425 28.315624 65.75313 28.784374Q65.09688 29.253124 64.72188 30.01875L64.72188 37.55L62.925 37.55L62.925 26.9875L64.62813 26.9875ZM73.47188 32.175Q73.47188 29.753124 74.62813 28.26875Q75.78438 26.784374 77.64375 26.784374Q79.50313 26.784374 80.58125 28.05L80.58125 22.55L82.39375 22.55L82.39375 37.55L80.7375 37.55L80.64375 36.409374Q79.56563 37.753124 77.62813 37.753124Q75.8 37.753124 74.62813 36.253124Q73.47188 34.7375 73.47188 32.315624L73.47188 32.175ZM75.28438 32.378124Q75.28438 34.175 76.01875 35.190624Q76.76875 36.20625 78.08125 36.20625Q79.8 36.20625 80.58125 34.675L80.58125 29.815624Q79.78438 28.315624 78.09688 28.315624Q76.76875 28.315624 76.01875 29.346874Q75.28438 30.378124 75.28438 32.378124ZM88.675 32.253124L83.90938 32.253124L83.90938 30.76875L88.675 30.76875L88.675 32.253124ZM93.3625 24.425L93.3625 26.9875L95.34688 26.9875L95.34688 28.378124L93.3625 28.378124L93.3625 34.925Q93.3625 35.565624 93.62813 35.89375Q93.89375 36.20625 94.53438 36.20625Q94.84688 36.20625 95.39375 36.08125L95.39375 37.55Q94.675 37.753124 94.00313 37.753124Q92.8 37.753124 92.175 37.01875Q91.56563 36.284374 91.56563 34.925L91.56563 28.378124L89.64375 28.378124L89.64375 26.9875L91.56563 26.9875L91.56563 24.425L93.3625 24.425ZM103.01875 28.596874Q102.6125 28.534374 102.14375 28.534374Q100.3625 28.534374 99.72188 30.05L99.72188 37.55L97.925 37.55L97.925 26.9875L99.675 26.9875L99.70625 28.20625Q100.59688 26.784374 102.22188 26.784374Q102.75313 26.784374 103.01875 26.925L103.01875 28.596874ZM111.44063 36.503124Q110.39375 37.753124 108.34688 37.753124Q106.65938 37.753124 105.76875 36.76875Q104.89375 35.784374 104.87813 33.8625L104.87813 26.9875L106.69063 26.9875L106.69063 33.815624Q106.69063 36.20625 108.64375 36.20625Q110.70625 36.20625 111.39375 34.675L111.39375 26.9875L113.20625 26.9875L113.20625 37.55L111.4875 37.55L111.44063 36.503124ZM118.3625 24.425L118.3625 26.9875L120.34688 26.9875L120.34688 28.378124L118.3625 28.378124L118.3625 34.925Q118.3625 35.565624 118.62813 35.89375Q118.89375 36.20625 119.53438 36.20625Q119.84688 36.20625 120.39375 36.08125L120.39375 37.55Q119.675 37.753124 119.00313 37.753124Q117.8 37.753124 117.175 37.01875Q116.56563 36.284374 116.56563 34.925L116.56563 28.378124L114.64375 28.378124L114.64375 26.9875L116.56563 26.9875L116.56563 24.425L118.3625 24.425ZM124.72188 28.26875Q125.925 26.784374 127.84688 26.784374Q131.20625 26.784374 131.22188 30.565624L131.22188 37.55L129.425 37.55L129.425 30.55Q129.40938 29.409374 128.89375 28.8625Q128.39375 28.315624 127.3 28.315624Q126.425 28.315624 125.75313 28.784374Q125.09688 29.253124 124.72188 30.01875L124.72188 37.55L122.925 37.55L122.925 22.55L124.72188 22.55L124.72188 28.26875ZM147.05 33.83125L141.09688 33.83125L139.75313 37.55L137.83125 37.55L143.25313 23.33125L144.89375 23.33125L150.33125 37.55L148.40938 37.55L147.05 33.83125ZM141.65938 32.3L146.50313 32.3L144.08125 25.64375L141.65938 32.3ZM156.15938 36.26875Q157.12813 36.26875 157.84688 35.690624Q158.56563 35.096874 158.64375 34.221874L160.3625 34.221874Q160.3 35.128124 159.72188 35.95625Q159.15938 36.76875 158.19063 37.26875Q157.2375 37.753124 156.15938 37.753124Q154.00313 37.753124 152.72188 36.315624Q151.45625 34.8625 151.45625 32.3625L151.45625 32.065624Q151.45625 30.51875 152.01875 29.315624Q152.58125 28.1125 153.64375 27.45625Q154.70625 26.784374 156.14375 26.784374Q157.925 26.784374 159.09688 27.846874Q160.28438 28.909374 160.3625 30.6125L158.64375 30.6125Q158.56563 29.596874 157.8625 28.940624Q157.175 28.26875 156.14375 28.26875Q154.76875 28.26875 154.00313 29.26875Q153.25313 30.253124 153.25313 32.128124L153.25313 32.471874Q153.25313 34.3 154.00313 35.284374Q154.75313 36.26875 156.15938 36.26875ZM166.15938 36.26875Q167.12813 36.26875 167.84688 35.690624Q168.56563 35.096874 168.64375 34.221874L170.3625 34.221874Q170.3 35.128124 169.72188 35.95625Q169.15938 36.76875 168.19063 37.26875Q167.2375 37.753124 166.15938 37.753124Q164.00313 37.753124 162.72188 36.315624Q161.45625 34.8625 161.45625 32.3625L161.45625 32.065624Q161.45625 30.51875 162.01875 29.315624Q162.58125 28.1125 163.64375 27.45625Q164.70625 26.784374 166.14375 26.784374Q167.925 26.784374 169.09688 27.846874Q170.28438 28.909374 170.3625 30.6125L168.64375 30.6125Q168.56563 29.596874 167.8625 28.940624Q167.175 28.26875 166.14375 28.26875Q164.76875 28.26875 164.00313 29.26875Q163.25313 30.253124 163.25313 32.128124L163.25313 32.471874Q163.25313 34.3 164.00313 35.284374Q164.75313 36.26875 166.15938 36.26875ZM178.44063 36.503124Q177.39375 37.753124 175.34688 37.753124Q173.65938 37.753124 172.76875 36.76875Q171.89375 35.784374 171.87813 33.8625L171.87813 26.9875L173.69063 26.9875L173.69063 33.815624Q173.69063 36.20625 175.64375 36.20625Q177.70625 36.20625 178.39375 34.675L178.39375 26.9875L180.20625 26.9875L180.20625 37.55L178.4875 37.55L178.44063 36.503124ZM188.01875 28.596874Q187.6125 28.534374 187.14375 28.534374Q185.3625 28.534374 184.72188 30.05L184.72188 37.55L182.925 37.55L182.925 26.9875L184.675 26.9875L184.70625 28.20625Q185.59688 26.784374 187.22188 26.784374Q187.75313 26.784374 188.01875 26.925L188.01875 28.596874ZM196.44063 37.55Q196.28438 37.2375 196.19063 36.440624Q194.925 37.753124 193.175 37.753124Q191.6125 37.753124 190.6125 36.8625Q189.6125 35.971874 189.6125 34.6125Q189.6125 32.971874 190.8625 32.065624Q192.12813 31.14375 194.39375 31.14375L196.15938 31.14375L196.15938 30.315624Q196.15938 29.3625 195.58125 28.8Q195.01875 28.2375 193.925 28.2375Q192.95625 28.2375 192.3 28.7375Q191.64375 29.221874 191.64375 29.909374L189.83125 29.909374Q189.83125 29.128124 190.39375 28.39375Q190.95625 27.64375 191.90938 27.221874Q192.87813 26.784374 194.03438 26.784374Q195.8625 26.784374 196.89375 27.70625Q197.925 28.6125 197.97188 30.221874L197.97188 35.08125Q197.97188 36.534374 198.33125 37.39375L198.33125 37.55L196.44063 37.55ZM193.44063 36.175Q194.3 36.175 195.05 35.7375Q195.81563 35.3 196.15938 34.596874L196.15938 32.425L194.7375 32.425Q191.425 32.425 191.425 34.3625Q191.425 35.221874 191.9875 35.70625Q192.55 36.175 193.44063 36.175ZM205.15938 36.26875Q206.12813 36.26875 206.84688 35.690624Q207.56563 35.096874 207.64375 34.221874L209.3625 34.221874Q209.3 35.128124 208.72188 35.95625Q208.15938 36.76875 207.19063 37.26875Q206.2375 37.753124 205.15938 37.753124Q203.00313 37.753124 201.72188 36.315624Q200.45625 34.8625 200.45625 32.3625L200.45625 32.065624Q200.45625 30.51875 201.01875 29.315624Q201.58125 28.1125 202.64375 27.45625Q203.70625 26.784374 205.14375 26.784374Q206.925 26.784374 208.09688 27.846874Q209.28438 28.909374 209.3625 30.6125L207.64375 30.6125Q207.56563 29.596874 206.8625 28.940624Q206.175 28.26875 205.14375 28.26875Q203.76875 28.26875 203.00313 29.26875Q202.25313 30.253124 202.25313 32.128124L202.25313 32.471874Q202.25313 34.3 203.00313 35.284374Q203.75313 36.26875 205.15938 36.26875ZM214.37813 34.909374L216.83125 26.9875L218.76875 26.9875L214.51875 39.175Q213.53438 41.815624 211.39375 41.815624L211.05 41.784374L210.37813 41.659374L210.37813 40.190624L210.8625 40.2375Q211.78438 40.2375 212.28438 39.8625Q212.8 39.4875 213.12813 38.503124L213.53438 37.425L209.76875 26.9875L211.7375 26.9875L214.37813 34.909374ZM228.40938 35.096874L231.01875 26.9875L232.8625 26.9875L229.08125 37.55L227.70625 37.55L223.87813 26.9875L225.72188 26.9875L228.40938 35.096874ZM241.06563 34.753124Q241.06563 34.01875 240.51875 33.6125Q239.97188 33.20625 238.59688 32.909374Q237.22188 32.6125 236.40938 32.20625Q235.6125 31.8 235.22188 31.2375Q234.84688 30.659374 234.84688 29.878124Q234.84688 28.58125 235.94063 27.690624Q237.03438 26.784374 238.75313 26.784374Q240.55 26.784374 241.65938 27.721874Q242.78438 28.64375 242.78438 30.08125L240.95625 30.08125Q240.95625 29.346874 240.33125 28.815624Q239.70625 28.26875 238.75313 28.26875Q237.75313 28.26875 237.19063 28.70625Q236.64375 29.128124 236.64375 29.83125Q236.64375 30.471874 237.15938 30.815624Q237.675 31.14375 239.03438 31.45625Q240.39375 31.753124 241.22188 32.175Q242.06563 32.58125 242.47188 33.175Q242.87813 33.76875 242.87813 34.6125Q242.87813 36.034374 241.7375 36.89375Q240.6125 37.753124 238.8 37.753124Q237.53438 37.753124 236.55 37.3Q235.58125 36.846874 235.01875 36.05Q234.47188 35.2375 234.47188 34.3L236.28438 34.3Q236.33125 35.20625 237.00313 35.7375Q237.69063 36.26875 238.8 36.26875Q239.83125 36.26875 240.44063 35.8625Q241.06563 35.440624 241.06563 34.753124ZM244.95625 36.596874Q244.95625 36.128124 245.2375 35.815624Q245.51875 35.503124 246.06563 35.503124Q246.62813 35.503124 246.90938 35.815624Q247.20625 36.128124 247.20625 36.596874Q247.20625 37.05 246.90938 37.3625Q246.62813 37.659374 246.06563 37.659374Q245.51875 37.659374 245.2375 37.3625Q244.95625 37.05 244.95625 36.596874ZM259.39374 31.20625Q256.97186 30.51875 255.87813 29.51875Q254.78438 28.503124 254.78438 27.01875Q254.78438 25.33125 256.1281 24.2375Q257.47186 23.128124 259.6125 23.128124Q261.08124 23.128124 262.22186 23.70625Q263.3781 24.26875 264.0031 25.26875Q264.6281 26.253124 264.6281 27.440624L262.7531 27.440624Q262.7531 26.159374 261.925 25.425Q261.1125 24.675 259.6125 24.675Q258.22186 24.675 257.4406 25.284374Q256.675 25.89375 256.675 26.9875Q256.675 27.846874 257.40936 28.45625Q258.14374 29.05 259.90936 29.55Q261.6906 30.05 262.6906 30.659374Q263.6906 31.253124 264.175 32.05Q264.65936 32.846874 264.65936 33.940624Q264.65936 35.659374 263.3156 36.70625Q261.97186 37.753124 259.70624 37.753124Q258.2531 37.753124 256.97186 37.190624Q255.70625 36.628124 255.01875 35.659374Q254.33125 34.675 254.33125 33.425L256.22186 33.425Q256.22186 34.721874 257.175 35.471874Q258.1281 36.20625 259.70624 36.20625Q261.1906 36.20625 261.9875 35.6125Q262.78436 35.003124 262.78436 33.95625Q262.78436 32.909374 262.05 32.346874Q261.3156 31.76875 259.39374 31.20625ZM271.3 37.753124Q269.15936 37.753124 267.8 36.346874Q266.45624 34.925 266.45624 32.565624L266.45624 32.221874Q266.45624 30.659374 267.05 29.425Q267.65936 28.190624 268.7375 27.4875Q269.8156 26.784374 271.08124 26.784374Q273.14374 26.784374 274.28436 28.14375Q275.425 29.503124 275.425 32.034374L275.425 32.784374L268.26874 32.784374Q268.3 34.346874 269.175 35.315624Q270.05 36.26875 271.39374 36.26875Q272.3625 36.26875 273.01874 35.878124Q273.6906 35.4875 274.1906 34.846874L275.28436 35.70625Q273.95624 37.753124 271.3 37.753124ZM271.08124 28.26875Q269.9875 28.26875 269.2375 29.065624Q268.5031 29.8625 268.33124 31.3L273.6125 31.3L273.6125 31.159374Q273.53436 29.784374 272.8625 29.034374Q272.20624 28.26875 271.08124 28.26875ZM279.6281 26.9875L279.6906 28.315624Q280.89374 26.784374 282.84686 26.784374Q286.20624 26.784374 286.22186 30.565624L286.22186 37.55L284.425 37.55L284.425 30.55Q284.40936 29.409374 283.89374 28.8625Q283.39374 28.315624 282.3 28.315624Q281.425 28.315624 280.7531 28.784374Q280.09686 29.253124 279.72186 30.01875L279.72186 37.55L277.925 37.55L277.925 26.9875L279.6281 26.9875ZM291.3625 24.425L291.3625 26.9875L293.34686 26.9875L293.34686 28.378124L291.3625 28.378124L291.3625 34.925Q291.3625 35.565624 291.6281 35.89375Q291.89374 36.20625 292.53436 36.20625Q292.84686 36.20625 293.39374 36.08125L293.39374 37.55Q292.675 37.753124 292.0031 37.753124Q290.8 37.753124 290.175 37.01875Q289.5656 36.284374 289.5656 34.925L289.5656 28.378124L287.64374 28.378124L287.64374 26.9875L289.5656 26.9875L289.5656 24.425L291.3625 24.425ZM297.8781 37.55L296.08124 37.55L296.08124 26.9875L297.8781 26.9875L297.8781 37.55ZM295.925 24.175Q295.925 23.7375 296.1906 23.440624Q296.47186 23.128124 296.9875 23.128124Q297.51874 23.128124 297.78436 23.440624Q298.0656 23.7375 298.0656 24.175Q298.0656 24.6125 297.78436 24.909374Q297.51874 25.20625 296.9875 25.20625Q296.47186 25.20625 296.1906 24.909374Q295.925 24.6125 295.925 24.175ZM302.6125 26.9875L302.65936 28.159374Q303.83124 26.784374 305.8 26.784374Q308.01874 26.784374 308.8156 28.4875Q309.34686 27.721874 310.1906 27.253124Q311.03436 26.784374 312.1906 26.784374Q315.65936 26.784374 315.72186 30.471874L315.72186 37.55L313.90936 37.55L313.90936 30.58125Q313.90936 29.440624 313.39374 28.878124Q312.8781 28.315624 311.65936 28.315624Q310.65936 28.315624 309.9875 28.925Q309.33124 29.51875 309.22186 30.534374L309.22186 37.55L307.40936 37.55L307.40936 30.628124Q307.40936 28.315624 305.14374 28.315624Q303.3625 28.315624 302.72186 29.83125L302.72186 37.55L300.90936 37.55L300.90936 26.9875L302.6125 26.9875ZM323.3 37.753124Q321.15936 37.753124 319.8 36.346874Q318.45624 34.925 318.45624 32.565624L318.45624 32.221874Q318.45624 30.659374 319.05 29.425Q319.65936 28.190624 320.7375 27.4875Q321.8156 26.784374 323.08124 26.784374Q325.14374 26.784374 326.28436 28.14375Q327.425 29.503124 327.425 32.034374L327.425 32.784374L320.26874 32.784374Q320.3 34.346874 321.175 35.315624Q322.05 36.26875 323.39374 36.26875Q324.3625 36.26875 325.01874 35.878124Q325.6906 35.4875 326.1906 34.846874L327.28436 35.70625Q325.95624 37.753124 323.3 37.753124ZM323.08124 28.26875Q321.9875 28.26875 321.2375 29.065624Q320.5031 29.8625 320.33124 31.3L325.6125 31.3L325.6125 31.159374Q325.53436 29.784374 324.8625 29.034374Q324.20624 28.26875 323.08124 28.26875ZM331.6281 26.9875L331.6906 28.315624Q332.89374 26.784374 334.84686 26.784374Q338.20624 26.784374 338.22186 30.565624L338.22186 37.55L336.425 37.55L336.425 30.55Q336.40936 29.409374 335.89374 28.8625Q335.39374 28.315624 334.3 28.315624Q333.425 28.315624 332.7531 28.784374Q332.09686 29.253124 331.72186 30.01875L331.72186 37.55L329.925 37.55L329.925 26.9875L331.6281 26.9875ZM343.3625 24.425L343.3625 26.9875L345.34686 26.9875L345.34686 28.378124L343.3625 28.378124L343.3625 34.925Q343.3625 35.565624 343.6281 35.89375Q343.89374 36.20625 344.53436 36.20625Q344.84686 36.20625 345.39374 36.08125L345.39374 37.55Q344.675 37.753124 344.0031 37.753124Q342.8 37.753124 342.175 37.01875Q341.5656 36.284374 341.5656 34.925L341.5656 28.378124L339.64374 28.378124L339.64374 26.9875L341.5656 26.9875L341.5656 24.425L343.3625 24.425ZM361.05 33.83125L355.09686 33.83125L353.7531 37.55L351.83124 37.55L357.2531 23.33125L358.89374 23.33125L364.33124 37.55L362.40936 37.55L361.05 33.83125ZM355.65936 32.3L360.5031 32.3L358.08124 25.64375L355.65936 32.3ZM367.6281 26.9875L367.6906 28.315624Q368.89374 26.784374 370.84686 26.784374Q374.20624 26.784374 374.22186 30.565624L374.22186 37.55L372.425 37.55L372.425 30.55Q372.40936 29.409374 371.89374 28.8625Q371.39374 28.315624 370.3 28.315624Q369.425 28.315624 368.7531 28.784374Q368.09686 29.253124 367.72186 30.01875L367.72186 37.55L365.925 37.55L365.925 26.9875L367.6281 26.9875ZM383.4406 37.55Q383.28436 37.2375 383.1906 36.440624Q381.925 37.753124 380.175 37.753124Q378.6125 37.753124 377.6125 36.8625Q376.6125 35.971874 376.6125 34.6125Q376.6125 32.971874 377.8625 32.065624Q379.1281 31.14375 381.39374 31.14375L383.15936 31.14375L383.15936 30.315624Q383.15936 29.3625 382.58124 28.8Q382.01874 28.2375 380.925 28.2375Q379.95624 28.2375 379.3 28.7375Q378.64374 29.221874 378.64374 29.909374L376.83124 29.909374Q376.83124 29.128124 377.39374 28.39375Q377.95624 27.64375 378.90936 27.221874Q379.8781 26.784374 381.03436 26.784374Q382.8625 26.784374 383.89374 27.70625Q384.925 28.6125 384.97186 30.221874L384.97186 35.08125Q384.97186 36.534374 385.33124 37.39375L385.33124 37.55L383.4406 37.55ZM380.4406 36.175Q381.3 36.175 382.05 35.7375Q382.8156 35.3 383.15936 34.596874L383.15936 32.425L381.7375 32.425Q378.425 32.425 378.425 34.3625Q378.425 35.221874 378.9875 35.70625Q379.55 36.175 380.4406 36.175ZM389.8781 37.55L388.08124 37.55L388.08124 22.55L389.8781 22.55L389.8781 37.55ZM396.3781 34.909374L398.83124 26.9875L400.76874 26.9875L396.51874 39.175Q395.53436 41.815624 393.39374 41.815624L393.05 41.784374L392.3781 41.659374L392.3781 40.190624L392.8625 40.2375Q393.78436 40.2375 394.28436 39.8625Q394.8 39.4875 395.1281 38.503124L395.53436 37.425L391.76874 26.9875L393.7375 26.9875L396.3781 34.909374ZM408.0656 34.753124Q408.0656 34.01875 407.51874 33.6125Q406.97186 33.20625 405.59686 32.909374Q404.22186 32.6125 403.40936 32.20625Q402.6125 31.8 402.22186 31.2375Q401.84686 30.659374 401.84686 29.878124Q401.84686 28.58125 402.9406 27.690624Q404.03436 26.784374 405.7531 26.784374Q407.55 26.784374 408.65936 27.721874Q409.78436 28.64375 409.78436 30.08125L407.95624 30.08125Q407.95624 29.346874 407.33124 28.815624Q406.70624 28.26875 405.7531 28.26875Q404.7531 28.26875 404.1906 28.70625Q403.64374 29.128124 403.64374 29.83125Q403.64374 30.471874 404.15936 30.815624Q404.675 31.14375 406.03436 31.45625Q407.39374 31.753124 408.22186 32.175Q409.0656 32.58125 409.47186 33.175Q409.8781 33.76875 409.8781 34.6125Q409.8781 36.034374 408.7375 36.89375Q407.6125 37.753124 405.8 37.753124Q404.53436 37.753124 403.55 37.3Q402.58124 36.846874 402.01874 36.05Q401.47186 35.2375 401.47186 34.3L403.28436 34.3Q403.33124 35.20625 404.0031 35.7375Q404.6906 36.26875 405.8 36.26875Q406.83124 36.26875 407.4406 35.8625Q408.0656 35.440624 408.0656 34.753124ZM413.8781 37.55L412.08124 37.55L412.08124 26.9875L413.8781 26.9875L413.8781 37.55ZM411.925 24.175Q411.925 23.7375 412.1906 23.440624Q412.47186 23.128124 412.9875 23.128124Q413.51874 23.128124 413.78436 23.440624Q414.0656 23.7375 414.0656 24.175Q414.0656 24.6125 413.78436 24.909374Q413.51874 25.20625 412.9875 25.20625Q412.47186 25.20625 412.1906 24.909374Q411.925 24.6125 411.925 24.175ZM423.0656 34.753124Q423.0656 34.01875 422.51874 33.6125Q421.97186 33.20625 420.59686 32.909374Q419.22186 32.6125 418.40936 32.20625Q417.6125 31.8 417.22186 31.2375Q416.84686 30.659374 416.84686 29.878124Q416.84686 28.58125 417.9406 27.690624Q419.03436 26.784374 420.7531 26.784374Q422.55 26.784374 423.65936 27.721874Q424.78436 28.64375 424.78436 30.08125L422.95624 30.08125Q422.95624 29.346874 422.33124 28.815624Q421.70624 28.26875 420.7531 28.26875Q419.7531 28.26875 419.1906 28.70625Q418.64374 29.128124 418.64374 29.83125Q418.64374 30.471874 419.15936 30.815624Q419.675 31.14375 421.03436 31.45625Q422.39374 31.753124 423.22186 32.175Q424.0656 32.58125 424.47186 33.175Q424.8781 33.76875 424.8781 34.6125Q424.8781 36.034374 423.7375 36.89375Q422.6125 37.753124 420.8 37.753124Q419.53436 37.753124 418.55 37.3Q417.58124 36.846874 417.01874 36.05Q416.47186 35.2375 416.47186 34.3L418.28436 34.3Q418.33124 35.20625 419.0031 35.7375Q419.6906 36.26875 420.8 36.26875Q421.83124 36.26875 422.4406 35.8625Q423.0656 35.440624 423.0656 34.753124ZM434.6281 23.33125L439.26874 34.925L443.925 23.33125L446.34686 23.33125L446.34686 37.55L444.47186 37.55L444.47186 32.01875L444.65936 26.034374L439.9875 37.55L438.55 37.55L433.89374 26.065624L434.08124 32.01875L434.08124 37.55L432.20624 37.55L432.20624 23.33125L434.6281 23.33125ZM453.3 37.753124Q451.15936 37.753124 449.8 36.346874Q448.45624 34.925 448.45624 32.565624L448.45624 32.221874Q448.45624 30.659374 449.05 29.425Q449.65936 28.190624 450.7375 27.4875Q451.8156 26.784374 453.08124 26.784374Q455.14374 26.784374 456.28436 28.14375Q457.425 29.503124 457.425 32.034374L457.425 32.784374L450.26874 32.784374Q450.3 34.346874 451.175 35.315624Q452.05 36.26875 453.39374 36.26875Q454.3625 36.26875 455.01874 35.878124Q455.6906 35.4875 456.1906 34.846874L457.28436 35.70625Q455.95624 37.753124 453.3 37.753124ZM453.08124 28.26875Q451.9875 28.26875 451.2375 29.065624Q450.5031 29.8625 450.33124 31.3L455.6125 31.3L455.6125 31.159374Q455.53436 29.784374 454.8625 29.034374Q454.20624 28.26875 453.08124 28.26875ZM462.3625 24.425L462.3625 26.9875L464.34686 26.9875L464.34686 28.378124L462.3625 28.378124L462.3625 34.925Q462.3625 35.565624 462.6281 35.89375Q462.89374 36.20625 463.53436 36.20625Q463.84686 36.20625 464.39374 36.08125L464.39374 37.55Q463.675 37.753124 463.0031 37.753124Q461.8 37.753124 461.175 37.01875Q460.5656 36.284374 460.5656 34.925L460.5656 28.378124L458.64374 28.378124L458.64374 26.9875L460.5656 26.9875L460.5656 24.425L462.3625 24.425ZM468.72186 28.26875Q469.925 26.784374 471.84686 26.784374Q475.20624 26.784374 475.22186 30.565624L475.22186 37.55L473.425 37.55L473.425 30.55Q473.40936 29.409374 472.89374 28.8625Q472.39374 28.315624 471.3 28.315624Q470.425 28.315624 469.7531 28.784374Q469.09686 29.253124 468.72186 30.01875L468.72186 37.55L466.925 37.55L466.925 22.55L468.72186 22.55L468.72186 28.26875ZM477.4406 32.175Q477.4406 30.6125 478.05 29.378124Q478.65936 28.128124 479.7375 27.45625Q480.83124 26.784374 482.2375 26.784374Q484.39374 26.784374 485.72186 28.284374Q487.0656 29.76875 487.0656 32.253124L487.0656 32.378124Q487.0656 33.925 486.47186 35.159374Q485.8781 36.378124 484.76874 37.065624Q483.675 37.753124 482.2531 37.753124Q480.1125 37.753124 478.76874 36.253124Q477.4406 34.753124 477.4406 32.3L477.4406 32.175ZM479.2531 32.378124Q479.2531 34.14375 480.0656 35.20625Q480.89374 36.26875 482.2531 36.26875Q483.6281 36.26875 484.4406 35.190624Q485.2531 34.1125 485.2531 32.175Q485.2531 30.425 484.425 29.346874Q483.59686 28.26875 482.2375 28.26875Q480.89374 28.26875 480.0656 29.33125Q479.2531 30.39375 479.2531 32.378124ZM488.47186 32.175Q488.47186 29.753124 489.6281 28.26875Q490.78436 26.784374 492.64374 26.784374Q494.5031 26.784374 495.58124 28.05L495.58124 22.55L497.39374 22.55L497.39374 37.55L495.7375 37.55L495.64374 36.409374Q494.5656 37.753124 492.6281 37.753124Q490.8 37.753124 489.6281 36.253124Q488.47186 34.7375 488.47186 32.315624L488.47186 32.175ZM490.28436 32.378124Q490.28436 34.175 491.01874 35.190624Q491.76874 36.20625 493.08124 36.20625Q494.8 36.20625 495.58124 34.675L495.58124 29.815624Q494.78436 28.315624 493.09686 28.315624Q491.76874 28.315624 491.01874 29.346874Q490.28436 30.378124 490.28436 32.378124Z" fill-rule="nonzero"/></svg>