<svg version="1.1" viewBox="0.0 0.0 592.0 365.0" fill="none" stroke="none" stroke-linecap="square" stroke-miterlimit="10" width="592" height="365" xmlns:xlink="http://www.w3.org/1999/xlink" xmlns="http://www.w3.org/2000/svg"><path fill="#ffffff" d="M0 0L592.0 0L592.0 365.0L0 365.0L0 0Z" fill-rule="nonzero"/><path fill="#db4437" d="M296.0 59.416668C365.72052 59.416668 425.3772 109.47457 437.48404 178.13588L296.0 203.08333Z" fill-rule="nonzero"/><path fill="#f4b400" d="M207.98972 316.6364C159.44395 279.0106 140.18637 214.6858 160.07005 156.57356C179.95372 98.46131 234.58018 59.416668 296.0 59.416668L296.0 203.08333Z" fill-rule="nonzero"/><path fill="#4285f4" d="M437.48404 178.13588C447.7949 236.61157 421.06976 295.40552 370.23248 326.08597C319.3952 356.76645 254.92148 353.01126 207.98972 316.6364L296.0 203.08333Z" fill-rule="nonzero"/><path fill="#757575" d="M28.546875 147.22717Q28.546875 149.64905 27.4375 151.13342Q26.34375 152.60217 24.453125 152.60217Q22.53125 152.60217 21.421875 151.3678L21.421875 156.46155L19.625 156.46155L19.625 141.83655L21.265625 141.83655L21.359375 143.00842Q22.453125 141.63342 24.421875 141.63342Q26.328125 141.63342 27.4375 143.07092Q28.546875 144.50842 28.546875 147.07092L28.546875 147.22717ZM26.734375 147.02405Q26.734375 145.2428 25.96875 144.21155Q25.21875 143.16467 23.890625 143.16467Q22.25 143.16467 21.421875 144.6178L21.421875 149.6803Q22.234375 151.1178 23.90625 151.1178Q25.203125 151.1178 25.96875 150.08655Q26.734375 149.0553 26.734375 147.02405ZM37.140625 152.39905Q36.984375 152.08655 36.890625 151.28967Q35.625 152.60217 33.875 152.60217Q32.3125 152.60217 31.3125 151.71155Q30.3125 150.82092 30.3125 149.46155Q30.3125 147.82092 31.5625 146.91467Q32.828125 145.9928 35.09375 145.9928L36.859375 145.9928L36.859375 145.16467Q36.859375 144.21155 36.28125 143.64905Q35.71875 143.08655 34.625 143.08655Q33.65625 143.08655 33.0 143.58655Q32.34375 144.07092 32.34375 144.75842L30.53125 144.75842Q30.53125 143.97717 31.09375 143.2428Q31.65625 142.4928 32.609375 142.07092Q33.578125 141.63342 34.734375 141.63342Q36.5625 141.63342 37.59375 142.5553Q38.625 143.46155 38.671875 145.07092L38.671875 149.9303Q38.671875 151.38342 39.03125 152.2428L39.03125 152.39905L37.140625 152.39905ZM34.140625 151.02405Q35.0 151.02405 35.75 150.58655Q36.515625 150.14905 36.859375 149.44592L36.859375 147.27405L35.4375 147.27405Q32.125 147.27405 32.125 149.21155Q32.125 150.07092 32.6875 150.5553Q33.25 151.02405 34.140625 151.02405ZM46.71875 143.44592Q46.3125 143.38342 45.84375 143.38342Q44.0625 143.38342 43.421875 144.89905L43.421875 152.39905L41.625 152.39905L41.625 141.83655L43.375 141.83655L43.40625 143.0553Q44.296875 141.63342 45.921875 141.63342Q46.453125 141.63342 46.71875 141.77405L46.71875 143.44592ZM55.140625 152.39905Q54.984375 152.08655 54.890625 151.28967Q53.625 152.60217 51.875 152.60217Q50.3125 152.60217 49.3125 151.71155Q48.3125 150.82092 48.3125 149.46155Q48.3125 147.82092 49.5625 146.91467Q50.828125 145.9928 53.09375 145.9928L54.859375 145.9928L54.859375 145.16467Q54.859375 144.21155 54.28125 143.64905Q53.71875 143.08655 52.625 143.08655Q51.65625 143.08655 51.0 143.58655Q50.34375 144.07092 50.34375 144.75842L48.53125 144.75842Q48.53125 143.97717 49.09375 143.2428Q49.65625 142.4928 50.609375 142.07092Q51.578125 141.63342 52.734375 141.63342Q54.5625 141.63342 55.59375 142.5553Q56.625 143.46155 56.671875 145.07092L56.671875 149.9303Q56.671875 151.38342 57.03125 152.2428L57.03125 152.39905L55.140625 152.39905ZM52.140625 151.02405Q53.0 151.02405 53.75 150.58655Q54.515625 150.14905 54.859375 149.44592L54.859375 147.27405L53.4375 147.27405Q50.125 147.27405 50.125 149.21155Q50.125 150.07092 50.6875 150.5553Q51.25 151.02405 52.140625 151.02405ZM59.1875 147.02405Q59.1875 144.5553 60.328125 143.10217Q61.46875 141.63342 63.359375 141.63342Q65.296875 141.63342 66.375 143.00842L66.46875 141.83655L68.109375 141.83655L68.109375 152.14905Q68.109375 154.19592 66.890625 155.3678Q65.6875 156.5553 63.625 156.5553Q62.484375 156.5553 61.390625 156.07092Q60.296875 155.58655 59.71875 154.72717L60.65625 153.64905Q61.828125 155.08655 63.5 155.08655Q64.828125 155.08655 65.5625 154.33655Q66.296875 153.60217 66.296875 152.25842L66.296875 151.33655Q65.21875 152.60217 63.34375 152.60217Q61.484375 152.60217 60.328125 151.10217Q59.1875 149.60217 59.1875 147.02405ZM61.0 147.22717Q61.0 149.02405 61.734375 150.03967Q62.46875 151.0553 63.78125 151.0553Q65.5 151.0553 66.296875 149.50842L66.296875 144.6803Q65.46875 143.16467 63.8125 143.16467Q62.484375 143.16467 61.734375 144.19592Q61.0 145.22717 61.0 147.22717ZM75.71875 143.44592Q75.3125 143.38342 74.84375 143.38342Q73.0625 143.38342 72.421875 144.89905L72.421875 152.39905L70.625 152.39905L70.625 141.83655L72.375 141.83655L72.40625 143.0553Q73.296875 141.63342 74.921875 141.63342Q75.453125 141.63342 75.71875 141.77405L75.71875 143.44592ZM84.140625 152.39905Q83.984375 152.08655 83.890625 151.28967Q82.625 152.60217 80.875 152.60217Q79.3125 152.60217 78.3125 151.71155Q77.3125 150.82092 77.3125 149.46155Q77.3125 147.82092 78.5625 146.91467Q79.828125 145.9928 82.09375 145.9928L83.859375 145.9928L83.859375 145.16467Q83.859375 144.21155 83.28125 143.64905Q82.71875 143.08655 81.625 143.08655Q80.65625 143.08655 80.0 143.58655Q79.34375 144.07092 79.34375 144.75842L77.53125 144.75842Q77.53125 143.97717 78.09375 143.2428Q78.65625 142.4928 79.609375 142.07092Q80.578125 141.63342 81.734375 141.63342Q83.5625 141.63342 84.59375 142.5553Q85.625 143.46155 85.671875 145.07092L85.671875 149.9303Q85.671875 151.38342 86.03125 152.2428L86.03125 152.39905L84.140625 152.39905ZM81.140625 151.02405Q82.0 151.02405 82.75 150.58655Q83.515625 150.14905 83.859375 149.44592L83.859375 147.27405L82.4375 147.27405Q79.125 147.27405 79.125 149.21155Q79.125 150.07092 79.6875 150.5553Q80.25 151.02405 81.140625 151.02405ZM97.546875 147.22717Q97.546875 149.64905 96.4375 151.13342Q95.34375 152.60217 93.453125 152.60217Q91.53125 152.60217 90.421875 151.3678L90.421875 156.46155L88.625 156.46155L88.625 141.83655L90.265625 141.83655L90.359375 143.00842Q91.453125 141.63342 93.421875 141.63342Q95.328125 141.63342 96.4375 143.07092Q97.546875 144.50842 97.546875 147.07092L97.546875 147.22717ZM95.734375 147.02405Q95.734375 145.2428 94.96875 144.21155Q94.21875 143.16467 92.890625 143.16467Q91.25 143.16467 90.421875 144.6178L90.421875 149.6803Q91.234375 151.1178 92.90625 151.1178Q94.203125 151.1178 94.96875 150.08655Q95.734375 149.0553 95.734375 147.02405ZM101.421875 143.1178Q102.625 141.63342 104.546875 141.63342Q107.90625 141.63342 107.921875 145.41467L107.921875 152.39905L106.125 152.39905L106.125 145.39905Q106.109375 144.25842 105.59375 143.71155Q105.09375 143.16467 104.0 143.16467Q103.125 143.16467 102.453125 143.63342Q101.796875 144.10217 101.421875 144.8678L101.421875 152.39905L99.625 152.39905L99.625 137.39905L101.421875 137.39905L101.421875 143.1178Z" fill-rule="nonzero"/><path fill="#9e9e9e" d="M22.0625 171.41467L23.421875 171.41467Q24.703125 171.38342 25.421875 170.7428Q26.15625 170.08655 26.15625 168.96155Q26.15625 166.46155 23.671875 166.46155Q22.5 166.46155 21.796875 167.13342Q21.109375 167.8053 21.109375 168.91467L19.296875 168.91467Q19.296875 167.22717 20.53125 166.10217Q21.765625 164.97717 23.671875 164.97717Q25.6875 164.97717 26.828125 166.0553Q27.96875 167.1178 27.96875 169.00842Q27.96875 169.9303 27.359375 170.8053Q26.765625 171.6803 25.734375 172.10217Q26.90625 172.47717 27.546875 173.33655Q28.1875 174.19592 28.1875 175.4303Q28.1875 177.35217 26.9375 178.47717Q25.6875 179.60217 23.671875 179.60217Q21.671875 179.60217 20.421875 178.52405Q19.171875 177.4303 19.171875 175.64905L20.984375 175.64905Q20.984375 176.77405 21.71875 177.44592Q22.453125 178.1178 23.6875 178.1178Q24.984375 178.1178 25.671875 177.44592Q26.375 176.75842 26.375 175.47717Q26.375 174.22717 25.609375 173.57092Q24.859375 172.89905 23.421875 172.88342L22.0625 172.88342L22.0625 171.41467ZM37.359375 173.14905Q36.796875 173.82092 36.0 174.2428Q35.21875 174.64905 34.28125 174.64905Q33.046875 174.64905 32.125 174.03967Q31.21875 173.4303 30.71875 172.33655Q30.234375 171.22717 30.234375 169.89905Q30.234375 168.47717 30.765625 167.33655Q31.3125 166.19592 32.296875 165.58655Q33.296875 164.97717 34.625 164.97717Q36.734375 164.97717 37.953125 166.5553Q39.171875 168.13342 39.171875 170.8678L39.171875 171.38342Q39.171875 175.53967 37.53125 177.44592Q35.890625 179.35217 32.578125 179.41467L32.234375 179.41467L32.234375 177.88342L32.609375 177.88342Q34.84375 177.85217 36.046875 176.72717Q37.25 175.58655 37.359375 173.14905ZM34.578125 173.14905Q35.484375 173.14905 36.25 172.60217Q37.015625 172.03967 37.359375 171.21155L37.359375 170.4928Q37.359375 168.71155 36.59375 167.60217Q35.828125 166.4928 34.640625 166.4928Q33.453125 166.4928 32.71875 167.41467Q32.0 168.32092 32.0 169.8053Q32.0 171.25842 32.703125 172.21155Q33.40625 173.14905 34.578125 173.14905ZM41.65625 178.44592Q41.65625 177.97717 41.9375 177.66467Q42.21875 177.35217 42.765625 177.35217Q43.328125 177.35217 43.609375 177.66467Q43.90625 177.97717 43.90625 178.44592Q43.90625 178.89905 43.609375 179.21155Q43.328125 179.50842 42.765625 179.50842Q42.21875 179.50842 41.9375 179.21155Q41.65625 178.89905 41.65625 178.44592ZM47.265625 172.27405L47.984375 165.1803L55.265625 165.1803L55.265625 166.85217L49.515625 166.85217L49.09375 170.72717Q50.140625 170.1178 51.46875 170.1178Q53.40625 170.1178 54.546875 171.39905Q55.6875 172.6803 55.6875 174.8678Q55.6875 177.07092 54.5 178.33655Q53.3125 179.60217 51.1875 179.60217Q49.296875 179.60217 48.109375 178.5553Q46.921875 177.50842 46.75 175.66467L48.46875 175.66467Q48.625 176.88342 49.328125 177.50842Q50.03125 178.1178 51.1875 178.1178Q52.453125 178.1178 53.171875 177.25842Q53.890625 176.39905 53.890625 174.88342Q53.890625 173.46155 53.109375 172.60217Q52.328125 171.72717 51.046875 171.72717Q49.859375 171.72717 49.1875 172.2428L48.703125 172.63342L47.265625 172.27405ZM57.28125 167.91467Q57.28125 166.63342 58.09375 165.8053Q58.90625 164.97717 60.1875 164.97717Q61.484375 164.97717 62.28125 165.82092Q63.09375 166.64905 63.09375 167.97717L63.09375 168.66467Q63.09375 169.96155 62.28125 170.77405Q61.46875 171.58655 60.203125 171.58655Q58.9375 171.58655 58.109375 170.77405Q57.28125 169.96155 57.28125 168.60217L57.28125 167.91467ZM58.625 168.66467Q58.625 169.4303 59.046875 169.9303Q59.484375 170.41467 60.203125 170.41467Q60.90625 170.41467 61.328125 169.94592Q61.75 169.46155 61.75 168.63342L61.75 167.91467Q61.75 167.14905 61.328125 166.64905Q60.90625 166.14905 60.1875 166.14905Q59.46875 166.14905 59.046875 166.64905Q58.625 167.14905 58.625 167.94592L58.625 168.66467ZM64.203125 175.91467Q64.203125 174.63342 65.015625 173.8053Q65.828125 172.97717 67.109375 172.97717Q68.390625 172.97717 69.203125 173.8053Q70.03125 174.6178 70.03125 175.97717L70.03125 176.6803Q70.03125 177.94592 69.21875 178.77405Q68.40625 179.60217 67.125 179.60217Q65.859375 179.60217 65.03125 178.78967Q64.203125 177.97717 64.203125 176.6178L64.203125 175.91467ZM65.546875 176.6803Q65.546875 177.44592 65.96875 177.94592Q66.40625 178.4303 67.125 178.4303Q67.828125 178.4303 68.25 177.94592Q68.671875 177.46155 68.671875 176.63342L68.671875 175.91467Q68.671875 175.13342 68.25 174.64905Q67.828125 174.16467 67.109375 174.16467Q66.421875 174.16467 65.984375 174.64905Q65.546875 175.13342 65.546875 175.94592L65.546875 176.6803ZM60.609375 178.32092L59.59375 177.6803L66.53125 166.57092L67.5625 167.21155L60.609375 178.32092Z" fill-rule="nonzero"/><path stroke="#757575" stroke-width="1.0" stroke-linecap="butt" d="M18.25 158.89905L146.33333 158.89905L166.86655 158.89905" fill-rule="nonzero"/><path fill="#9e9e9e" d="M168.86655 158.89905C168.86655 157.79448 167.97112 156.89905 166.86655 156.89905C165.76198 156.89905 164.86655 157.79448 164.86655 158.89905C164.86655 160.00362 165.76198 160.89905 166.86655 160.89905C167.97112 160.89905 168.86655 160.00362 168.86655 158.89905" fill-rule="nonzero"/><path fill="#757575" d="M525.6406 92.03104Q525.4844 91.71854 525.3906 90.92166Q524.125 92.23416 522.375 92.23416Q520.8125 92.23416 519.8125 91.34354Q518.8125 90.45291 518.8125 89.09354Q518.8125 87.45291 520.0625 86.54666Q521.3281 85.62479 523.59375 85.62479L525.3594 85.62479L525.3594 84.79666Q525.3594 83.84354 524.78125 83.28104Q524.21875 82.71854 523.125 82.71854Q522.15625 82.71854 521.5 83.21854Q520.84375 83.70291 520.84375 84.39041L519.03125 84.39041Q519.03125 83.60916 519.59375 82.87479Q520.15625 82.12479 521.1094 81.70291Q522.0781 81.26541 523.2344 81.26541Q525.0625 81.26541 526.09375 82.18729Q527.125 83.09354 527.1719 84.70291L527.1719 89.56229Q527.1719 91.01541 527.53125 91.87479L527.53125 92.03104L525.6406 92.03104ZM522.6406 90.65604Q523.5 90.65604 524.25 90.21854Q525.0156 89.78104 525.3594 89.07791L525.3594 86.90604L523.9375 86.90604Q520.625 86.90604 520.625 88.84354Q520.625 89.70291 521.1875 90.18729Q521.75 90.65604 522.6406 90.65604ZM535.21875 83.07791Q534.8125 83.01541 534.34375 83.01541Q532.5625 83.01541 531.9219 84.53104L531.9219 92.03104L530.125 92.03104L530.125 81.46854L531.875 81.46854L531.90625 82.68729Q532.7969 81.26541 534.4219 81.26541Q534.9531 81.26541 535.21875 81.40604L535.21875 83.07791ZM539.5625 78.90604L539.5625 81.46854L541.5469 81.46854L541.5469 82.85916L539.5625 82.85916L539.5625 89.40604Q539.5625 90.04666 539.8281 90.37479Q540.09375 90.68729 540.7344 90.68729Q541.0469 90.68729 541.59375 90.56229L541.59375 92.03104Q540.875 92.23416 540.2031 92.23416Q539.0 92.23416 538.375 91.49979Q537.7656 90.76541 537.7656 89.40604L537.7656 82.85916L535.84375 82.85916L535.84375 81.46854L537.7656 81.46854L537.7656 78.90604L539.5625 78.90604ZM546.0781 92.03104L544.28125 92.03104L544.28125 81.46854L546.0781 81.46854L546.0781 92.03104ZM544.125 78.65604Q544.125 78.21854 544.3906 77.92166Q544.6719 77.60916 545.1875 77.60916Q545.71875 77.60916 545.9844 77.92166Q546.2656 78.21854 546.2656 78.65604Q546.2656 79.09354 545.9844 79.39041Q545.71875 79.68729 545.1875 79.68729Q544.6719 79.68729 544.3906 79.39041Q544.125 79.09354 544.125 78.65604ZM553.3594 90.74979Q554.3281 90.74979 555.0469 90.17166Q555.7656 89.57791 555.84375 88.70291L557.5625 88.70291Q557.5 89.60916 556.9219 90.43729Q556.3594 91.24979 555.3906 91.74979Q554.4375 92.23416 553.3594 92.23416Q551.2031 92.23416 549.9219 90.79666Q548.65625 89.34354 548.65625 86.84354L548.65625 86.54666Q548.65625 84.99979 549.21875 83.79666Q549.78125 82.59354 550.84375 81.93729Q551.90625 81.26541 553.34375 81.26541Q555.125 81.26541 556.2969 82.32791Q557.4844 83.39041 557.5625 85.09354L555.84375 85.09354Q555.7656 84.07791 555.0625 83.42166Q554.375 82.74979 553.34375 82.74979Q551.96875 82.74979 551.2031 83.74979Q550.4531 84.73416 550.4531 86.60916L550.4531 86.95291Q550.4531 88.78104 551.2031 89.76541Q551.9531 90.74979 553.3594 90.74979ZM561.0781 92.03104L559.28125 92.03104L559.28125 77.03104L561.0781 77.03104L561.0781 92.03104ZM568.5 92.23416Q566.3594 92.23416 565.0 90.82791Q563.65625 89.40604 563.65625 87.04666L563.65625 86.70291Q563.65625 85.14041 564.25 83.90604Q564.8594 82.67166 565.9375 81.96854Q567.0156 81.26541 568.28125 81.26541Q570.34375 81.26541 571.4844 82.62479Q572.625 83.98416 572.625 86.51541L572.625 87.26541L565.46875 87.26541Q565.5 88.82791 566.375 89.79666Q567.25 90.74979 568.59375 90.74979Q569.5625 90.74979 570.21875 90.35916Q570.8906 89.96854 571.3906 89.32791L572.4844 90.18729Q571.15625 92.23416 568.5 92.23416ZM568.28125 82.74979Q567.1875 82.74979 566.4375 83.54666Q565.7031 84.34354 565.53125 85.78104L570.8125 85.78104L570.8125 85.64041Q570.7344 84.26541 570.0625 83.51541Q569.40625 82.74979 568.28125 82.74979Z" fill-rule="nonzero"/><path fill="#9e9e9e" d="M531.25 119.03104L521.9375 119.03104L521.9375 117.73416L526.8594 112.26541Q527.9531 111.01541 528.3594 110.24979Q528.78125 109.46854 528.78125 108.64041Q528.78125 107.53104 528.1094 106.81229Q527.4375 106.09354 526.3125 106.09354Q524.9531 106.09354 524.2031 106.87479Q523.46875 107.64041 523.46875 108.99979L521.65625 108.99979Q521.65625 107.03104 522.9219 105.82791Q524.1875 104.60916 526.3125 104.60916Q528.2969 104.60916 529.4375 105.65604Q530.59375 106.70291 530.59375 108.42166Q530.59375 110.53104 527.9219 113.42166L524.1094 117.56229L531.25 117.56229L531.25 119.03104ZM542.25 119.03104L532.9375 119.03104L532.9375 117.73416L537.8594 112.26541Q538.9531 111.01541 539.3594 110.24979Q539.78125 109.46854 539.78125 108.64041Q539.78125 107.53104 539.1094 106.81229Q538.4375 106.09354 537.3125 106.09354Q535.9531 106.09354 535.2031 106.87479Q534.46875 107.64041 534.46875 108.99979L532.65625 108.99979Q532.65625 107.03104 533.9219 105.82791Q535.1875 104.60916 537.3125 104.60916Q539.2969 104.60916 540.4375 105.65604Q541.59375 106.70291 541.59375 108.42166Q541.59375 110.53104 538.9219 113.42166L535.1094 117.56229L542.25 117.56229L542.25 119.03104ZM544.15625 118.07791Q544.15625 117.60916 544.4375 117.29666Q544.71875 116.98416 545.2656 116.98416Q545.8281 116.98416 546.1094 117.29666Q546.40625 117.60916 546.40625 118.07791Q546.40625 118.53104 546.1094 118.84354Q545.8281 119.14041 545.2656 119.14041Q544.71875 119.14041 544.4375 118.84354Q544.15625 118.53104 544.15625 118.07791ZM558.25 119.03104L548.9375 119.03104L548.9375 117.73416L553.8594 112.26541Q554.9531 111.01541 555.3594 110.24979Q555.78125 109.46854 555.78125 108.64041Q555.78125 107.53104 555.1094 106.81229Q554.4375 106.09354 553.3125 106.09354Q551.9531 106.09354 551.2031 106.87479Q550.46875 107.64041 550.46875 108.99979L548.65625 108.99979Q548.65625 107.03104 549.9219 105.82791Q551.1875 104.60916 553.3125 104.60916Q555.2969 104.60916 556.4375 105.65604Q557.59375 106.70291 557.59375 108.42166Q557.59375 110.53104 554.9219 113.42166L551.1094 117.56229L558.25 117.56229L558.25 119.03104ZM559.78125 107.54666Q559.78125 106.26541 560.59375 105.43729Q561.40625 104.60916 562.6875 104.60916Q563.9844 104.60916 564.78125 105.45291Q565.59375 106.28104 565.59375 107.60916L565.59375 108.29666Q565.59375 109.59354 564.78125 110.40604Q563.96875 111.21854 562.7031 111.21854Q561.4375 111.21854 560.6094 110.40604Q559.78125 109.59354 559.78125 108.23416L559.78125 107.54666ZM561.125 108.29666Q561.125 109.06229 561.5469 109.56229Q561.9844 110.04666 562.7031 110.04666Q563.40625 110.04666 563.8281 109.57791Q564.25 109.09354 564.25 108.26541L564.25 107.54666Q564.25 106.78104 563.8281 106.28104Q563.40625 105.78104 562.6875 105.78104Q561.96875 105.78104 561.5469 106.28104Q561.125 106.78104 561.125 107.57791L561.125 108.29666ZM566.7031 115.54666Q566.7031 114.26541 567.5156 113.43729Q568.3281 112.60916 569.6094 112.60916Q570.8906 112.60916 571.7031 113.43729Q572.53125 114.24979 572.53125 115.60916L572.53125 116.31229Q572.53125 117.57791 571.71875 118.40604Q570.90625 119.23416 569.625 119.23416Q568.3594 119.23416 567.53125 118.42166Q566.7031 117.60916 566.7031 116.24979L566.7031 115.54666ZM568.0469 116.31229Q568.0469 117.07791 568.46875 117.57791Q568.90625 118.06229 569.625 118.06229Q570.3281 118.06229 570.75 117.57791Q571.1719 117.09354 571.1719 116.26541L571.1719 115.54666Q571.1719 114.76541 570.75 114.28104Q570.3281 113.79666 569.6094 113.79666Q568.9219 113.79666 568.4844 114.28104Q568.0469 114.76541 568.0469 115.57791L568.0469 116.31229ZM563.1094 117.95291L562.09375 117.31229L569.03125 106.20291L570.0625 106.84354L563.1094 117.95291Z" fill-rule="nonzero"/><path stroke="#757575" stroke-width="1.0" stroke-linecap="butt" d="M573.75 98.53104L445.66666 98.53104L383.7298 98.53104" fill-rule="nonzero"/><path fill="#9e9e9e" d="M385.7298 98.53104C385.7298 97.42647 384.83435 96.53104 383.7298 96.53104C382.6252 96.53104 381.7298 97.42647 381.7298 98.53104C381.7298 99.635605 382.6252 100.53104 383.7298 100.53104C384.83435 100.53104 385.7298 99.635605 385.7298 98.53104" fill-rule="nonzero"/><path fill="#757575" d="M516.2656 310.63898Q516.2656 309.9046 515.71875 309.49835Q515.1719 309.0921 513.7969 308.79523Q512.4219 308.49835 511.60938 308.0921Q510.8125 307.68585 510.42188 307.12335Q510.04688 306.54523 510.04688 305.76398Q510.04688 304.4671 511.14062 303.57648Q512.2344 302.67023 513.9531 302.67023Q515.75 302.67023 516.8594 303.60773Q517.9844 304.5296 517.9844 305.9671L516.15625 305.9671Q516.15625 305.23273 515.53125 304.70148Q514.90625 304.1546 513.9531 304.1546Q512.9531 304.1546 512.3906 304.5921Q511.84375 305.01398 511.84375 305.7171Q511.84375 306.35773 512.3594 306.70148Q512.875 307.0296 514.2344 307.3421Q515.59375 307.63898 516.4219 308.06085Q517.2656 308.4671 517.6719 309.06085Q518.0781 309.6546 518.0781 310.49835Q518.0781 311.92023 516.9375 312.7796Q515.8125 313.63898 514.0 313.63898Q512.7344 313.63898 511.75 313.18585Q510.78125 312.73273 510.21875 311.93585Q509.67188 311.12335 509.67188 310.18585L511.48438 310.18585Q511.53125 311.0921 512.2031 311.62335Q512.8906 312.1546 514.0 312.1546Q515.03125 312.1546 515.6406 311.74835Q516.2656 311.32648 516.2656 310.63898ZM524.5 313.63898Q522.3594 313.63898 521.0 312.23273Q519.65625 310.81085 519.65625 308.45148L519.65625 308.10773Q519.65625 306.54523 520.25 305.31085Q520.8594 304.07648 521.9375 303.37335Q523.0156 302.67023 524.28125 302.67023Q526.34375 302.67023 527.4844 304.0296Q528.625 305.38898 528.625 307.92023L528.625 308.67023L521.46875 308.67023Q521.5 310.23273 522.375 311.20148Q523.25 312.1546 524.59375 312.1546Q525.5625 312.1546 526.21875 311.76398Q526.8906 311.37335 527.3906 310.73273L528.4844 311.5921Q527.15625 313.63898 524.5 313.63898ZM524.28125 304.1546Q523.1875 304.1546 522.4375 304.95148Q521.7031 305.74835 521.53125 307.18585L526.8125 307.18585L526.8125 307.04523Q526.7344 305.67023 526.0625 304.92023Q525.40625 304.1546 524.28125 304.1546ZM535.3594 312.1546Q536.3281 312.1546 537.0469 311.57648Q537.7656 310.98273 537.84375 310.10773L539.5625 310.10773Q539.5 311.01398 538.9219 311.8421Q538.3594 312.6546 537.3906 313.1546Q536.4375 313.63898 535.3594 313.63898Q533.2031 313.63898 531.9219 312.20148Q530.65625 310.74835 530.65625 308.24835L530.65625 307.95148Q530.65625 306.4046 531.21875 305.20148Q531.78125 303.99835 532.84375 303.3421Q533.90625 302.67023 535.34375 302.67023Q537.125 302.67023 538.2969 303.73273Q539.4844 304.79523 539.5625 306.49835L537.84375 306.49835Q537.7656 305.48273 537.0625 304.82648Q536.375 304.1546 535.34375 304.1546Q533.96875 304.1546 533.2031 305.1546Q532.4531 306.13898 532.4531 308.01398L532.4531 308.35773Q532.4531 310.18585 533.2031 311.17023Q533.9531 312.1546 535.3594 312.1546ZM543.5625 300.31085L543.5625 302.87335L545.5469 302.87335L545.5469 304.26398L543.5625 304.26398L543.5625 310.81085Q543.5625 311.45148 543.8281 311.7796Q544.09375 312.0921 544.7344 312.0921Q545.0469 312.0921 545.59375 311.9671L545.59375 313.43585Q544.875 313.63898 544.2031 313.63898Q543.0 313.63898 542.375 312.9046Q541.7656 312.17023 541.7656 310.81085L541.7656 304.26398L539.84375 304.26398L539.84375 302.87335L541.7656 302.87335L541.7656 300.31085L543.5625 300.31085ZM550.0781 313.43585L548.28125 313.43585L548.28125 302.87335L550.0781 302.87335L550.0781 313.43585ZM548.125 300.06085Q548.125 299.62335 548.3906 299.32648Q548.6719 299.01398 549.1875 299.01398Q549.71875 299.01398 549.9844 299.32648Q550.2656 299.62335 550.2656 300.06085Q550.2656 300.49835 549.9844 300.79523Q549.71875 301.0921 549.1875 301.0921Q548.6719 301.0921 548.3906 300.79523Q548.125 300.49835 548.125 300.06085ZM552.6406 308.06085Q552.6406 306.49835 553.25 305.26398Q553.8594 304.01398 554.9375 303.3421Q556.03125 302.67023 557.4375 302.67023Q559.59375 302.67023 560.9219 304.17023Q562.2656 305.6546 562.2656 308.13898L562.2656 308.26398Q562.2656 309.81085 561.6719 311.04523Q561.0781 312.26398 559.96875 312.95148Q558.875 313.63898 557.4531 313.63898Q555.3125 313.63898 553.96875 312.13898Q552.6406 310.63898 552.6406 308.18585L552.6406 308.06085ZM554.4531 308.26398Q554.4531 310.0296 555.2656 311.0921Q556.09375 312.1546 557.4531 312.1546Q558.8281 312.1546 559.6406 311.07648Q560.4531 309.99835 560.4531 308.06085Q560.4531 306.31085 559.625 305.23273Q558.7969 304.1546 557.4375 304.1546Q556.09375 304.1546 555.2656 305.2171Q554.4531 306.2796 554.4531 308.26398ZM565.8281 302.87335L565.8906 304.20148Q567.09375 302.67023 569.0469 302.67023Q572.40625 302.67023 572.4219 306.45148L572.4219 313.43585L570.625 313.43585L570.625 306.43585Q570.6094 305.29523 570.09375 304.74835Q569.59375 304.20148 568.5 304.20148Q567.625 304.20148 566.9531 304.67023Q566.2969 305.13898 565.9219 305.9046L565.9219 313.43585L564.125 313.43585L564.125 302.87335L565.8281 302.87335Z" fill-rule="nonzero"/><path fill="#9e9e9e" d="M524.5625 332.45148L525.9219 332.45148Q527.2031 332.42023 527.9219 331.7796Q528.65625 331.12335 528.65625 329.99835Q528.65625 327.49835 526.1719 327.49835Q525.0 327.49835 524.2969 328.17023Q523.6094 328.8421 523.6094 329.95148L521.7969 329.95148Q521.7969 328.26398 523.03125 327.13898Q524.2656 326.01398 526.1719 326.01398Q528.1875 326.01398 529.3281 327.0921Q530.46875 328.1546 530.46875 330.04523Q530.46875 330.9671 529.8594 331.8421Q529.2656 332.7171 528.2344 333.13898Q529.40625 333.51398 530.0469 334.37335Q530.6875 335.23273 530.6875 336.4671Q530.6875 338.38898 529.4375 339.51398Q528.1875 340.63898 526.1719 340.63898Q524.1719 340.63898 522.9219 339.56085Q521.6719 338.4671 521.6719 336.68585L523.4844 336.68585Q523.4844 337.81085 524.21875 338.48273Q524.9531 339.1546 526.1875 339.1546Q527.4844 339.1546 528.1719 338.48273Q528.875 337.79523 528.875 336.51398Q528.875 335.26398 528.1094 334.60773Q527.3594 333.93585 525.9219 333.92023L524.5625 333.92023L524.5625 332.45148ZM541.5625 329.92023Q541.5625 330.99835 541.0 331.82648Q540.4375 332.6546 539.46875 333.12335Q540.59375 333.5921 541.2344 334.51398Q541.8906 335.43585 541.8906 336.5921Q541.8906 338.43585 540.6406 339.54523Q539.3906 340.63898 537.3594 340.63898Q535.3125 340.63898 534.0781 339.54523Q532.84375 338.43585 532.84375 336.5921Q532.84375 335.45148 533.46875 334.5296Q534.1094 333.5921 535.21875 333.10773Q534.2656 332.63898 533.71875 331.81085Q533.1719 330.98273 533.1719 329.92023Q533.1719 328.12335 534.3281 327.07648Q535.4844 326.01398 537.3594 326.01398Q539.2344 326.01398 540.3906 327.07648Q541.5625 328.12335 541.5625 329.92023ZM540.0781 336.56085Q540.0781 335.37335 539.3125 334.62335Q538.5625 333.85773 537.34375 333.85773Q536.125 333.85773 535.3906 334.60773Q534.65625 335.3421 534.65625 336.56085Q534.65625 337.76398 535.375 338.4671Q536.09375 339.1546 537.3594 339.1546Q538.6406 339.1546 539.3594 338.4671Q540.0781 337.76398 540.0781 336.56085ZM537.3594 327.49835Q536.2969 327.49835 535.6406 328.17023Q534.9844 328.82648 534.9844 329.95148Q534.9844 331.04523 535.625 331.7171Q536.28125 332.37335 537.3594 332.37335Q538.4531 332.37335 539.09375 331.7171Q539.75 331.04523 539.75 329.9671Q539.75 328.87335 539.0781 328.18585Q538.40625 327.49835 537.3594 327.49835ZM544.15625 339.48273Q544.15625 339.01398 544.4375 338.70148Q544.71875 338.38898 545.2656 338.38898Q545.8281 338.38898 546.1094 338.70148Q546.40625 339.01398 546.40625 339.48273Q546.40625 339.93585 546.1094 340.24835Q545.8281 340.54523 545.2656 340.54523Q544.71875 340.54523 544.4375 340.24835Q544.15625 339.93585 544.15625 339.48273ZM551.5625 332.45148L552.9219 332.45148Q554.2031 332.42023 554.9219 331.7796Q555.65625 331.12335 555.65625 329.99835Q555.65625 327.49835 553.1719 327.49835Q552.0 327.49835 551.2969 328.17023Q550.6094 328.8421 550.6094 329.95148L548.7969 329.95148Q548.7969 328.26398 550.03125 327.13898Q551.2656 326.01398 553.1719 326.01398Q555.1875 326.01398 556.3281 327.0921Q557.46875 328.1546 557.46875 330.04523Q557.46875 330.9671 556.8594 331.8421Q556.2656 332.7171 555.2344 333.13898Q556.40625 333.51398 557.0469 334.37335Q557.6875 335.23273 557.6875 336.4671Q557.6875 338.38898 556.4375 339.51398Q555.1875 340.63898 553.1719 340.63898Q551.1719 340.63898 549.9219 339.56085Q548.6719 338.4671 548.6719 336.68585L550.4844 336.68585Q550.4844 337.81085 551.21875 338.48273Q551.9531 339.1546 553.1875 339.1546Q554.4844 339.1546 555.1719 338.48273Q555.875 337.79523 555.875 336.51398Q555.875 335.26398 555.1094 334.60773Q554.3594 333.93585 552.9219 333.92023L551.5625 333.92023L551.5625 332.45148ZM559.78125 328.95148Q559.78125 327.67023 560.59375 326.8421Q561.40625 326.01398 562.6875 326.01398Q563.9844 326.01398 564.78125 326.85773Q565.59375 327.68585 565.59375 329.01398L565.59375 329.70148Q565.59375 330.99835 564.78125 331.81085Q563.96875 332.62335 562.7031 332.62335Q561.4375 332.62335 560.6094 331.81085Q559.78125 330.99835 559.78125 329.63898L559.78125 328.95148ZM561.125 329.70148Q561.125 330.4671 561.5469 330.9671Q561.9844 331.45148 562.7031 331.45148Q563.40625 331.45148 563.8281 330.98273Q564.25 330.49835 564.25 329.67023L564.25 328.95148Q564.25 328.18585 563.8281 327.68585Q563.40625 327.18585 562.6875 327.18585Q561.96875 327.18585 561.5469 327.68585Q561.125 328.18585 561.125 328.98273L561.125 329.70148ZM566.7031 336.95148Q566.7031 335.67023 567.5156 334.8421Q568.3281 334.01398 569.6094 334.01398Q570.8906 334.01398 571.7031 334.8421Q572.53125 335.6546 572.53125 337.01398L572.53125 337.7171Q572.53125 338.98273 571.71875 339.81085Q570.90625 340.63898 569.625 340.63898Q568.3594 340.63898 567.53125 339.82648Q566.7031 339.01398 566.7031 337.6546L566.7031 336.95148ZM568.0469 337.7171Q568.0469 338.48273 568.46875 338.98273Q568.90625 339.4671 569.625 339.4671Q570.3281 339.4671 570.75 338.98273Q571.1719 338.49835 571.1719 337.67023L571.1719 336.95148Q571.1719 336.17023 570.75 335.68585Q570.3281 335.20148 569.6094 335.20148Q568.9219 335.20148 568.4844 335.68585Q568.0469 336.17023 568.0469 336.98273L568.0469 337.7171ZM563.1094 339.35773L562.09375 338.7171L569.03125 327.60773L570.0625 328.24835L563.1094 339.35773Z" fill-rule="nonzero"/><path stroke="#757575" stroke-width="1.0" stroke-linecap="butt" d="M573.75 319.93585L445.66666 319.93585L366.52084 319.93585" fill-rule="nonzero"/><path fill="#9e9e9e" d="M368.52084 319.93585C368.52084 318.83127 367.62543 317.93585 366.52084 317.93585C365.4163 317.93585 364.52084 318.83127 364.52084 319.93585C364.52084 321.0404 365.4163 321.93585 366.52084 321.93585C367.62543 321.93585 368.52084 321.0404 368.52084 319.93585" fill-rule="nonzero"/><path fill="#757575" d="M26.484375 34.34375L22.484375 34.34375L22.484375 41.25L20.21875 41.25L20.21875 24.1875L25.875 24.1875Q28.75 24.1875 30.296875 25.5Q31.859375 26.8125 31.859375 29.3125Q31.859375 30.90625 31.0 32.09375Q30.140625 33.28125 28.59375 33.859375L32.609375 41.109375L32.609375 41.25L30.1875 41.25L26.484375 34.34375ZM22.484375 32.5L25.9375 32.5Q27.609375 32.5 28.59375 31.640625Q29.59375 30.765625 29.59375 29.3125Q29.59375 27.734375 28.640625 26.890625Q27.703125 26.046875 25.921875 26.03125L22.484375 26.03125L22.484375 32.5ZM40.15625 41.484375Q37.578125 41.484375 35.953125 39.796875Q34.34375 38.09375 34.34375 35.265625L34.34375 34.859375Q34.34375 32.96875 35.0625 31.5Q35.78125 30.015625 37.078125 29.171875Q38.375 28.328125 39.890625 28.328125Q42.359375 28.328125 43.71875 29.96875Q45.09375 31.59375 45.09375 34.625L45.09375 35.53125L36.515625 35.53125Q36.5625 37.40625 37.609375 38.5625Q38.65625 39.71875 40.265625 39.71875Q41.421875 39.71875 42.21875 39.25Q43.015625 38.78125 43.609375 38.0L44.9375 39.03125Q43.34375 41.484375 40.15625 41.484375ZM39.890625 30.109375Q38.578125 30.109375 37.6875 31.078125Q36.796875 32.03125 36.578125 33.75L42.9375 33.75L42.9375 33.578125Q42.84375 31.9375 42.046875 31.03125Q41.25 30.109375 39.890625 30.109375ZM52.078125 38.3125L55.21875 28.5625L57.4375 28.5625L52.890625 41.25L51.234375 41.25L46.640625 28.5625L48.859375 28.5625L52.078125 38.3125ZM62.25 41.25L60.078125 41.25L60.078125 28.5625L62.25 28.5625L62.25 41.25ZM59.90625 25.203125Q59.90625 24.671875 60.21875 24.3125Q60.546875 23.953125 61.171875 23.953125Q61.8125 23.953125 62.140625 24.3125Q62.46875 24.671875 62.46875 25.203125Q62.46875 25.734375 62.140625 26.09375Q61.8125 26.4375 61.171875 26.4375Q60.546875 26.4375 60.21875 26.09375Q59.90625 25.734375 59.90625 25.203125ZM71.15625 41.484375Q68.578125 41.484375 66.953125 39.796875Q65.34375 38.09375 65.34375 35.265625L65.34375 34.859375Q65.34375 32.96875 66.0625 31.5Q66.78125 30.015625 68.078125 29.171875Q69.375 28.328125 70.890625 28.328125Q73.359375 28.328125 74.71875 29.96875Q76.09375 31.59375 76.09375 34.625L76.09375 35.53125L67.515625 35.53125Q67.5625 37.40625 68.609375 38.5625Q69.65625 39.71875 71.265625 39.71875Q72.421875 39.71875 73.21875 39.25Q74.015625 38.78125 74.609375 38.0L75.9375 39.03125Q74.34375 41.484375 71.15625 41.484375ZM70.890625 30.109375Q69.578125 30.109375 68.6875 31.078125Q67.796875 32.03125 67.578125 33.75L73.9375 33.75L73.9375 33.578125Q73.84375 31.9375 73.046875 31.03125Q72.25 30.109375 70.890625 30.109375ZM90.125 38.265625L92.5625 28.5625L94.71875 28.5625L91.03125 41.25L89.28125 41.25L86.1875 31.640625L83.1875 41.25L81.4375 41.25L77.75 28.5625L79.90625 28.5625L82.40625 38.0625L85.359375 28.5625L87.109375 28.5625L90.125 38.265625ZM107.984375 39.71875Q109.140625 39.71875 110.0 39.015625Q110.875 38.3125 110.96875 37.25L113.015625 37.25Q112.953125 38.34375 112.265625 39.328125Q111.578125 40.3125 110.421875 40.90625Q109.265625 41.484375 107.984375 41.484375Q105.390625 41.484375 103.859375 39.765625Q102.328125 38.03125 102.328125 35.03125L102.328125 34.65625Q102.328125 32.8125 103.0 31.375Q103.6875 29.921875 104.953125 29.125Q106.234375 28.328125 107.96875 28.328125Q110.09375 28.328125 111.5 29.609375Q112.921875 30.890625 113.015625 32.921875L110.96875 32.921875Q110.875 31.703125 110.03125 30.90625Q109.203125 30.109375 107.96875 30.109375Q106.3125 30.109375 105.40625 31.3125Q104.5 32.5 104.5 34.75L104.5 35.15625Q104.5 37.34375 105.390625 38.53125Q106.296875 39.71875 107.984375 39.71875ZM115.3125 34.796875Q115.3125 32.921875 116.046875 31.4375Q116.78125 29.953125 118.078125 29.140625Q119.390625 28.328125 121.078125 28.328125Q123.65625 28.328125 125.25 30.125Q126.859375 31.921875 126.859375 34.890625L126.859375 35.046875Q126.859375 36.90625 126.140625 38.375Q125.4375 39.84375 124.125 40.671875Q122.8125 41.484375 121.09375 41.484375Q118.515625 41.484375 116.90625 39.6875Q115.3125 37.890625 115.3125 34.9375L115.3125 34.796875ZM117.5 35.046875Q117.5 37.15625 118.46875 38.4375Q119.453125 39.71875 121.09375 39.71875Q122.75 39.71875 123.71875 38.421875Q124.6875 37.125 124.6875 34.796875Q124.6875 32.703125 123.703125 31.40625Q122.71875 30.109375 121.078125 30.109375Q119.46875 30.109375 118.484375 31.390625Q117.5 32.671875 117.5 35.046875ZM131.9375 28.5625L131.98438 29.96875Q133.39062 28.328125 135.75 28.328125Q138.40625 28.328125 139.375 30.375Q140.0 29.453125 141.01562 28.890625Q142.03125 28.328125 143.42188 28.328125Q147.59375 28.328125 147.65625 32.75L147.65625 41.25L145.48438 41.25L145.48438 32.875Q145.48438 31.515625 144.85938 30.84375Q144.25 30.171875 142.78125 30.171875Q141.57812 30.171875 140.78125 30.890625Q139.98438 31.609375 139.85938 32.828125L139.85938 41.25L137.67188 41.25L137.67188 32.9375Q137.67188 30.171875 134.96875 30.171875Q132.82812 30.171875 132.04688 31.984375L132.04688 41.25L129.875 41.25L129.875 28.5625L131.9375 28.5625ZM152.9375 28.5625L152.98438 29.96875Q154.39062 28.328125 156.75 28.328125Q159.40625 28.328125 160.375 30.375Q161.0 29.453125 162.01562 28.890625Q163.03125 28.328125 164.42188 28.328125Q168.59375 28.328125 168.65625 32.75L168.65625 41.25L166.48438 41.25L166.48438 32.875Q166.48438 31.515625 165.85938 30.84375Q165.25 30.171875 163.78125 30.171875Q162.57812 30.171875 161.78125 30.890625Q160.98438 31.609375 160.85938 32.828125L160.85938 41.25L158.67188 41.25L158.67188 32.9375Q158.67188 30.171875 155.96875 30.171875Q153.82812 30.171875 153.04688 31.984375L153.04688 41.25L150.875 41.25L150.875 28.5625L152.9375 28.5625ZM177.15625 41.484375Q174.57812 41.484375 172.95312 39.796875Q171.34375 38.09375 171.34375 35.265625L171.34375 34.859375Q171.34375 32.96875 172.0625 31.5Q172.78125 30.015625 174.07812 29.171875Q175.375 28.328125 176.89062 28.328125Q179.35938 28.328125 180.71875 29.96875Q182.09375 31.59375 182.09375 34.625L182.09375 35.53125L173.51562 35.53125Q173.5625 37.40625 174.60938 38.5625Q175.65625 39.71875 177.26562 39.71875Q178.42188 39.71875 179.21875 39.25Q180.01562 38.78125 180.60938 38.0L181.9375 39.03125Q180.34375 41.484375 177.15625 41.484375ZM176.89062 30.109375Q175.57812 30.109375 174.6875 31.078125Q173.79688 32.03125 173.57812 33.75L179.9375 33.75L179.9375 33.578125Q179.84375 31.9375 179.04688 31.03125Q178.25 30.109375 176.89062 30.109375ZM186.9375 28.5625L187.01562 30.15625Q188.46875 28.328125 190.8125 28.328125Q194.82812 28.328125 194.85938 32.875L194.85938 41.25L192.70312 41.25L192.70312 32.859375Q192.6875 31.484375 192.0625 30.828125Q191.45312 30.171875 190.15625 30.171875Q189.09375 30.171875 188.29688 30.734375Q187.5 31.296875 187.0625 32.21875L187.0625 41.25L184.89062 41.25L184.89062 28.5625L186.9375 28.5625ZM200.82812 25.5L200.82812 28.5625L203.20312 28.5625L203.20312 30.25L200.82812 30.25L200.82812 38.109375Q200.82812 38.875 201.14062 39.25Q201.46875 39.625 202.23438 39.625Q202.60938 39.625 203.26562 39.484375L203.26562 41.25Q202.40625 41.484375 201.59375 41.484375Q200.14062 41.484375 199.40625 40.609375Q198.67188 39.71875 198.67188 38.109375L198.67188 30.25L196.35938 30.25L196.35938 28.5625L198.67188 28.5625L198.67188 25.5L200.82812 25.5ZM213.28125 37.890625Q213.28125 37.0 212.60938 36.515625Q211.95312 36.03125 210.29688 35.6875Q208.65625 35.328125 207.6875 34.84375Q206.71875 34.34375 206.25 33.671875Q205.79688 32.984375 205.79688 32.046875Q205.79688 30.484375 207.10938 29.40625Q208.4375 28.328125 210.48438 28.328125Q212.64062 28.328125 213.98438 29.453125Q215.32812 30.5625 215.32812 32.296875L213.14062 32.296875Q213.14062 31.40625 212.39062 30.765625Q211.64062 30.109375 210.48438 30.109375Q209.29688 30.109375 208.625 30.625Q207.96875 31.140625 207.96875 31.984375Q207.96875 32.765625 208.57812 33.171875Q209.20312 33.5625 210.82812 33.921875Q212.45312 34.28125 213.45312 34.796875Q214.46875 35.296875 214.95312 36.015625Q215.4375 36.71875 215.4375 37.734375Q215.4375 39.4375 214.07812 40.46875Q212.71875 41.484375 210.5625 41.484375Q209.03125 41.484375 207.85938 40.953125Q206.6875 40.40625 206.01562 39.4375Q205.35938 38.46875 205.35938 37.34375L207.53125 37.34375Q207.59375 38.4375 208.40625 39.078125Q209.21875 39.71875 210.5625 39.71875Q211.78125 39.71875 212.53125 39.21875Q213.28125 38.71875 213.28125 37.890625ZM226.48438 34.5625L226.48438 41.25L224.23438 41.25L224.23438 24.1875L230.53125 24.1875Q233.32812 24.1875 234.90625 25.625Q236.5 27.046875 236.5 29.40625Q236.5 31.890625 234.9375 33.234375Q233.39062 34.5625 230.5 34.5625L226.48438 34.5625ZM226.48438 32.734375L230.53125 32.734375Q232.32812 32.734375 233.28125 31.890625Q234.25 31.03125 234.25 29.421875Q234.25 27.90625 233.28125 27.0Q232.32812 26.078125 230.65625 26.03125L226.48438 26.03125L226.48438 32.734375ZM244.15625 41.484375Q241.57812 41.484375 239.95312 39.796875Q238.34375 38.09375 238.34375 35.265625L238.34375 34.859375Q238.34375 32.96875 239.0625 31.5Q239.78125 30.015625 241.07812 29.171875Q242.375 28.328125 243.89062 28.328125Q246.35938 28.328125 247.71875 29.96875Q249.09375 31.59375 249.09375 34.625L249.09375 35.53125L240.51562 35.53125Q240.5625 37.40625 241.60938 38.5625Q242.65625 39.71875 244.26562 39.71875Q245.42188 39.71875 246.21875 39.25Q247.01562 38.78125 247.60938 38.0L248.9375 39.03125Q247.34375 41.484375 244.15625 41.484375ZM243.89062 30.109375Q242.57812 30.109375 241.6875 31.078125Q240.79688 32.03125 240.57812 33.75L246.9375 33.75L246.9375 33.578125Q246.84375 31.9375 246.04688 31.03125Q245.25 30.109375 243.89062 30.109375ZM257.15625 41.484375Q254.57812 41.484375 252.95312 39.796875Q251.34375 38.09375 251.34375 35.265625L251.34375 34.859375Q251.34375 32.96875 252.0625 31.5Q252.78125 30.015625 254.07812 29.171875Q255.375 28.328125 256.89062 28.328125Q259.35938 28.328125 260.71875 29.96875Q262.09375 31.59375 262.09375 34.625L262.09375 35.53125L253.51562 35.53125Q253.5625 37.40625 254.60938 38.5625Q255.65625 39.71875 257.26562 39.71875Q258.42188 39.71875 259.21875 39.25Q260.01562 38.78125 260.60938 38.0L261.9375 39.03125Q260.34375 41.484375 257.15625 41.484375ZM256.89062 30.109375Q255.57812 30.109375 254.6875 31.078125Q253.79688 32.03125 253.57812 33.75L259.9375 33.75L259.9375 33.578125Q259.84375 31.9375 259.04688 31.03125Q258.25 30.109375 256.89062 30.109375ZM271.01562 30.515625Q270.53125 30.4375 269.95312 30.4375Q267.82812 30.4375 267.0625 32.25L267.0625 41.25L264.89062 41.25L264.89062 28.5625L267.0 28.5625L267.03125 30.03125Q268.10938 28.328125 270.0625 28.328125Q270.6875 28.328125 271.01562 28.5L271.01562 30.515625ZM275.125 28.5625L275.125 42.71875Q275.125 46.375 271.8125 46.375Q271.09375 46.375 270.48438 46.15625L270.48438 44.421875Q270.85938 44.515625 271.46875 44.515625Q272.20312 44.515625 272.57812 44.125Q272.96875 43.734375 272.96875 42.765625L272.96875 28.5625L275.125 28.5625ZM272.73438 25.203125Q272.73438 24.6875 273.0625 24.328125Q273.39062 23.953125 274.0 23.953125Q274.64062 23.953125 274.96875 24.3125Q275.29688 24.671875 275.29688 25.203125Q275.29688 25.734375 274.96875 26.09375Q274.64062 26.4375 274.0 26.4375Q273.375 26.4375 273.04688 26.09375Q272.73438 25.734375 272.73438 25.203125ZM297.78125 35.828125Q297.46875 38.546875 295.78125 40.015625Q294.10938 41.484375 291.3125 41.484375Q288.29688 41.484375 286.46875 39.3125Q284.64062 37.140625 284.64062 33.515625L284.64062 31.875Q284.64062 29.5 285.48438 27.703125Q286.34375 25.890625 287.90625 24.921875Q289.46875 23.953125 291.51562 23.953125Q294.23438 23.953125 295.875 25.46875Q297.51562 26.984375 297.78125 29.671875L295.51562 29.671875Q295.23438 27.625 294.25 26.71875Q293.26562 25.796875 291.51562 25.796875Q289.35938 25.796875 288.125 27.390625Q286.90625 28.984375 286.90625 31.9375L286.90625 33.578125Q286.90625 36.359375 288.0625 38.0Q289.23438 39.640625 291.3125 39.640625Q293.1875 39.640625 294.1875 38.796875Q295.1875 37.9375 295.51562 35.828125L297.78125 35.828125ZM300.3125 34.796875Q300.3125 32.921875 301.04688 31.4375Q301.78125 29.953125 303.07812 29.140625Q304.39062 28.328125 306.07812 28.328125Q308.65625 28.328125 310.25 30.125Q311.85938 31.921875 311.85938 34.890625L311.85938 35.046875Q311.85938 36.90625 311.14062 38.375Q310.4375 39.84375 309.125 40.671875Q307.8125 41.484375 306.09375 41.484375Q303.51562 41.484375 301.90625 39.6875Q300.3125 37.890625 300.3125 34.9375L300.3125 34.796875ZM302.5 35.046875Q302.5 37.15625 303.46875 38.4375Q304.45312 39.71875 306.09375 39.71875Q307.75 39.71875 308.71875 38.421875Q309.6875 37.125 309.6875 34.796875Q309.6875 32.703125 308.70312 31.40625Q307.71875 30.109375 306.07812 30.109375Q304.46875 30.109375 303.48438 31.390625Q302.5 32.671875 302.5 35.046875ZM316.9375 28.5625L316.98438 29.96875Q318.39062 28.328125 320.75 28.328125Q323.40625 28.328125 324.375 30.375Q325.0 29.453125 326.01562 28.890625Q327.03125 28.328125 328.42188 28.328125Q332.59375 28.328125 332.65625 32.75L332.65625 41.25L330.48438 41.25L330.48438 32.875Q330.48438 31.515625 329.85938 30.84375Q329.25 30.171875 327.78125 30.171875Q326.57812 30.171875 325.78125 30.890625Q324.98438 31.609375 324.85938 32.828125L324.85938 41.25L322.67188 41.25L322.67188 32.9375Q322.67188 30.171875 319.96875 30.171875Q317.82812 30.171875 317.04688 31.984375L317.04688 41.25L314.875 41.25L314.875 28.5625L316.9375 28.5625ZM346.60938 35.046875Q346.60938 37.9375 345.28125 39.71875Q343.95312 41.484375 341.6875 41.484375Q339.39062 41.484375 338.0625 40.015625L338.0625 46.125L335.89062 46.125L335.89062 28.5625L337.875 28.5625L337.98438 29.96875Q339.29688 28.328125 341.65625 28.328125Q343.9375 28.328125 345.26562 30.0625Q346.60938 31.78125 346.60938 34.84375L346.60938 35.046875ZM344.4375 34.796875Q344.4375 32.65625 343.51562 31.421875Q342.60938 30.171875 341.01562 30.171875Q339.04688 30.171875 338.0625 31.921875L338.0625 37.984375Q339.03125 39.71875 341.03125 39.71875Q342.59375 39.71875 343.51562 38.484375Q344.4375 37.234375 344.4375 34.796875ZM356.71875 40.0Q355.45312 41.484375 353.0 41.484375Q350.98438 41.484375 349.92188 40.3125Q348.85938 39.125 348.84375 36.8125L348.84375 28.5625L351.01562 28.5625L351.01562 36.765625Q351.01562 39.640625 353.35938 39.640625Q355.84375 39.640625 356.65625 37.796875L356.65625 28.5625L358.82812 28.5625L358.82812 41.25L356.76562 41.25L356.71875 40.0ZM364.82812 25.5L364.82812 28.5625L367.20312 28.5625L367.20312 30.25L364.82812 30.25L364.82812 38.109375Q364.82812 38.875 365.14062 39.25Q365.46875 39.625 366.23438 39.625Q366.60938 39.625 367.26562 39.484375L367.26562 41.25Q366.40625 41.484375 365.59375 41.484375Q364.14062 41.484375 363.40625 40.609375Q362.67188 39.71875 362.67188 38.109375L362.67188 30.25L360.35938 30.25L360.35938 28.5625L362.67188 28.5625L362.67188 25.5L364.82812 25.5ZM375.15625 41.484375Q372.57812 41.484375 370.95312 39.796875Q369.34375 38.09375 369.34375 35.265625L369.34375 34.859375Q369.34375 32.96875 370.0625 31.5Q370.78125 30.015625 372.07812 29.171875Q373.375 28.328125 374.89062 28.328125Q377.35938 28.328125 378.71875 29.96875Q380.09375 31.59375 380.09375 34.625L380.09375 35.53125L371.51562 35.53125Q371.5625 37.40625 372.60938 38.5625Q373.65625 39.71875 375.26562 39.71875Q376.42188 39.71875 377.21875 39.25Q378.01562 38.78125 378.60938 38.0L379.9375 39.03125Q378.34375 41.484375 375.15625 41.484375ZM374.89062 30.109375Q373.57812 30.109375 372.6875 31.078125Q371.79688 32.03125 371.57812 33.75L377.9375 33.75L377.9375 33.578125Q377.84375 31.9375 377.04688 31.03125Q376.25 30.109375 374.89062 30.109375ZM389.01562 30.515625Q388.53125 30.4375 387.95312 30.4375Q385.82812 30.4375 385.0625 32.25L385.0625 41.25L382.89062 41.25L382.89062 28.5625L385.0 28.5625L385.03125 30.03125Q386.10938 28.328125 388.0625 28.328125Q388.6875 28.328125 389.01562 28.5L389.01562 30.515625ZM402.26562 33.640625Q399.35938 32.8125 398.04688 31.609375Q396.73438 30.390625 396.73438 28.609375Q396.73438 26.59375 398.34375 25.28125Q399.95312 23.953125 402.53125 23.953125Q404.28125 23.953125 405.65625 24.640625Q407.04688 25.3125 407.79688 26.515625Q408.54688 27.703125 408.54688 29.125L406.29688 29.125Q406.29688 27.578125 405.3125 26.6875Q404.32812 25.796875 402.53125 25.796875Q400.85938 25.796875 399.92188 26.53125Q399.0 27.265625 399.0 28.5625Q399.0 29.609375 399.875 30.328125Q400.76562 31.046875 402.89062 31.65625Q405.03125 32.25 406.21875 32.96875Q407.42188 33.6875 408.0 34.65625Q408.59375 35.609375 408.59375 36.90625Q408.59375 38.984375 406.96875 40.234375Q405.35938 41.484375 402.64062 41.484375Q400.89062 41.484375 399.35938 40.8125Q397.84375 40.140625 397.01562 38.96875Q396.1875 37.796875 396.1875 36.296875L398.45312 36.296875Q398.45312 37.84375 399.59375 38.75Q400.73438 39.640625 402.64062 39.640625Q404.42188 39.640625 405.375 38.921875Q406.32812 38.1875 406.32812 36.9375Q406.32812 35.6875 405.4375 35.0Q404.5625 34.3125 402.26562 33.640625ZM415.98438 39.71875Q417.14062 39.71875 418.0 39.015625Q418.875 38.3125 418.96875 37.25L421.01562 37.25Q420.95312 38.34375 420.26562 39.328125Q419.57812 40.3125 418.42188 40.90625Q417.26562 41.484375 415.98438 41.484375Q413.39062 41.484375 411.85938 39.765625Q410.32812 38.03125 410.32812 35.03125L410.32812 34.65625Q410.32812 32.8125 411.0 31.375Q411.6875 29.921875 412.95312 29.125Q414.23438 28.328125 415.96875 28.328125Q418.09375 28.328125 419.5 29.609375Q420.92188 30.890625 421.01562 32.921875L418.96875 32.921875Q418.875 31.703125 418.03125 30.90625Q417.20312 30.109375 415.96875 30.109375Q414.3125 30.109375 413.40625 31.3125Q412.5 32.5 412.5 34.75L412.5 35.15625Q412.5 37.34375 413.39062 38.53125Q414.29688 39.71875 415.98438 39.71875ZM426.25 41.25L424.07812 41.25L424.07812 28.5625L426.25 28.5625L426.25 41.25ZM423.90625 25.203125Q423.90625 24.671875 424.21875 24.3125Q424.54688 23.953125 425.17188 23.953125Q425.8125 23.953125 426.14062 24.3125Q426.46875 24.671875 426.46875 25.203125Q426.46875 25.734375 426.14062 26.09375Q425.8125 26.4375 425.17188 26.4375Q424.54688 26.4375 424.21875 26.09375Q423.90625 25.734375 423.90625 25.203125ZM435.15625 41.484375Q432.57812 41.484375 430.95312 39.796875Q429.34375 38.09375 429.34375 35.265625L429.34375 34.859375Q429.34375 32.96875 430.0625 31.5Q430.78125 30.015625 432.07812 29.171875Q433.375 28.328125 434.89062 28.328125Q437.35938 28.328125 438.71875 29.96875Q440.09375 31.59375 440.09375 34.625L440.09375 35.53125L431.51562 35.53125Q431.5625 37.40625 432.60938 38.5625Q433.65625 39.71875 435.26562 39.71875Q436.42188 39.71875 437.21875 39.25Q438.01562 38.78125 438.60938 38.0L439.9375 39.03125Q438.34375 41.484375 435.15625 41.484375ZM434.89062 30.109375Q433.57812 30.109375 432.6875 31.078125Q431.79688 32.03125 431.57812 33.75L437.9375 33.75L437.9375 33.578125Q437.84375 31.9375 437.04688 31.03125Q436.25 30.109375 434.89062 30.109375ZM444.9375 28.5625L445.01562 30.15625Q446.46875 28.328125 448.8125 28.328125Q452.82812 28.328125 452.85938 32.875L452.85938 41.25L450.70312 41.25L450.70312 32.859375Q450.6875 31.484375 450.0625 30.828125Q449.45312 30.171875 448.15625 30.171875Q447.09375 30.171875 446.29688 30.734375Q445.5 31.296875 445.0625 32.21875L445.0625 41.25L442.89062 41.25L442.89062 28.5625L444.9375 28.5625ZM460.98438 39.71875Q462.14062 39.71875 463.0 39.015625Q463.875 38.3125 463.96875 37.25L466.01562 37.25Q465.95312 38.34375 465.26562 39.328125Q464.57812 40.3125 463.42188 40.90625Q462.26562 41.484375 460.98438 41.484375Q458.39062 41.484375 456.85938 39.765625Q455.32812 38.03125 455.32812 35.03125L455.32812 34.65625Q455.32812 32.8125 456.0 31.375Q456.6875 29.921875 457.95312 29.125Q459.23438 28.328125 460.96875 28.328125Q463.09375 28.328125 464.5 29.609375Q465.92188 30.890625 466.01562 32.921875L463.96875 32.921875Q463.875 31.703125 463.03125 30.90625Q462.20312 30.109375 460.96875 30.109375Q459.3125 30.109375 458.40625 31.3125Q457.5 32.5 457.5 34.75L457.5 35.15625Q457.5 37.34375 458.39062 38.53125Q459.29688 39.71875 460.98438 39.71875ZM474.15625 41.484375Q471.57812 41.484375 469.95312 39.796875Q468.34375 38.09375 468.34375 35.265625L468.34375 34.859375Q468.34375 32.96875 469.0625 31.5Q469.78125 30.015625 471.07812 29.171875Q472.375 28.328125 473.89062 28.328125Q476.35938 28.328125 477.71875 29.96875Q479.09375 31.59375 479.09375 34.625L479.09375 35.53125L470.51562 35.53125Q470.5625 37.40625 471.60938 38.5625Q472.65625 39.71875 474.26562 39.71875Q475.42188 39.71875 476.21875 39.25Q477.01562 38.78125 477.60938 38.0L478.9375 39.03125Q477.34375 41.484375 474.15625 41.484375ZM473.89062 30.109375Q472.57812 30.109375 471.6875 31.078125Q470.79688 32.03125 470.57812 33.75L476.9375 33.75L476.9375 33.578125Q476.84375 31.9375 476.04688 31.03125Q475.25 30.109375 473.89062 30.109375ZM495.375 24.1875L497.64062 24.1875L497.64062 36.265625Q497.64062 38.71875 496.17188 40.109375Q494.70312 41.484375 492.25 41.484375Q489.70312 41.484375 488.28125 40.1875Q486.875 38.875 486.875 36.53125L489.125 36.53125Q489.125 38.0 489.92188 38.828125Q490.73438 39.640625 492.25 39.640625Q493.64062 39.640625 494.5 38.765625Q495.375 37.890625 495.375 36.296875L495.375 24.1875ZM500.3125 34.796875Q500.3125 32.921875 501.04688 31.4375Q501.78125 29.953125 503.07812 29.140625Q504.39062 28.328125 506.07812 28.328125Q508.65625 28.328125 510.25 30.125Q511.85938 31.921875 511.85938 34.890625L511.85938 35.046875Q511.85938 36.90625 511.14062 38.375Q510.4375 39.84375 509.125 40.671875Q507.8125 41.484375 506.09375 41.484375Q503.51562 41.484375 501.90625 39.6875Q500.3125 37.890625 500.3125 34.9375L500.3125 34.796875ZM502.5 35.046875Q502.5 37.15625 503.46875 38.4375Q504.45312 39.71875 506.09375 39.71875Q507.75 39.71875 508.71875 38.421875Q509.6875 37.125 509.6875 34.796875Q509.6875 32.703125 508.70312 31.40625Q507.71875 30.109375 506.07812 30.109375Q504.46875 30.109375 503.48438 31.390625Q502.5 32.671875 502.5 35.046875ZM522.71875 40.0Q521.4531 41.484375 519.0 41.484375Q516.9844 41.484375 515.9219 40.3125Q514.8594 39.125 514.84375 36.8125L514.84375 28.5625L517.0156 28.5625L517.0156 36.765625Q517.0156 39.640625 519.3594 39.640625Q521.84375 39.640625 522.65625 37.796875L522.65625 28.5625L524.8281 28.5625L524.8281 41.25L522.7656 41.25L522.71875 40.0ZM534.0156 30.515625Q533.53125 30.4375 532.9531 30.4375Q530.8281 30.4375 530.0625 32.25L530.0625 41.25L527.8906 41.25L527.8906 28.5625L530.0 28.5625L530.03125 30.03125Q531.1094 28.328125 533.0625 28.328125Q533.6875 28.328125 534.0156 28.5L534.0156 30.515625ZM537.9375 28.5625L538.0156 30.15625Q539.46875 28.328125 541.8125 28.328125Q545.8281 28.328125 545.8594 32.875L545.8594 41.25L543.7031 41.25L543.7031 32.859375Q543.6875 31.484375 543.0625 30.828125Q542.4531 30.171875 541.15625 30.171875Q540.09375 30.171875 539.2969 30.734375Q538.5 31.296875 538.0625 32.21875L538.0625 41.25L535.8906 41.25L535.8906 28.5625L537.9375 28.5625ZM556.71875 41.25Q556.53125 40.875 556.4219 39.90625Q554.90625 41.484375 552.8125 41.484375Q550.9375 41.484375 549.7344 40.421875Q548.53125 39.359375 548.53125 37.734375Q548.53125 35.75 550.03125 34.65625Q551.5469 33.5625 554.2656 33.5625L556.375 33.5625L556.375 32.5625Q556.375 31.421875 555.6875 30.75Q555.0156 30.078125 553.7031 30.078125Q552.53125 30.078125 551.75 30.671875Q550.96875 31.25 550.96875 32.078125L548.78125 32.078125Q548.78125 31.140625 549.4531 30.25Q550.1406 29.359375 551.28125 28.84375Q552.4375 28.328125 553.8281 28.328125Q556.0156 28.328125 557.25 29.4375Q558.5 30.53125 558.5469 32.453125L558.5469 38.28125Q558.5469 40.03125 559.0 41.0625L559.0 41.25L556.71875 41.25ZM553.125 39.59375Q554.1406 39.59375 555.0469 39.078125Q555.96875 38.546875 556.375 37.703125L556.375 35.09375L554.6875 35.09375Q550.7031 35.09375 550.7031 37.421875Q550.7031 38.453125 551.375 39.03125Q552.0625 39.59375 553.125 39.59375ZM564.25 41.25L562.0781 41.25L562.0781 23.25L564.25 23.25L564.25 41.25Z" fill-rule="nonzero"/></svg>