<svg version="1.1" viewBox="0.0 0.0 600.0 371.0" fill="none" stroke="none" stroke-linecap="square" stroke-miterlimit="10" width="600" height="371" xmlns:xlink="http://www.w3.org/1999/xlink" xmlns="http://www.w3.org/2000/svg"><path fill="#ffffff" d="M0 0L600.0 0L600.0 371.0L0 371.0L0 0Z" fill-rule="nonzero"/><path fill="#db4437" d="M300.0 59.916668C345.93658 59.916668 389.20462 81.49716 416.8393 118.19176C444.47397 154.88635 453.2646 202.43178 440.57712 246.58148L300.0 206.18333Z" fill-rule="nonzero"/><path fill="#f4b400" d="M241.64017 340.30292C178.10167 312.65524 142.68219 244.21722 156.80229 176.37804C170.92241 108.53885 230.7069 59.916668 300.0 59.916668L300.0 206.18333Z" fill-rule="nonzero"/><path fill="#4285f4" d="M440.57712 246.58148C428.94577 287.05618 400.43335 320.55365 362.33658 338.50146C324.23978 356.4493 280.2556 357.1058 241.64017 340.30292L300.0 206.18333Z" fill-rule="nonzero"/><path fill="#757575" d="M28.846874 166.19643Q28.846874 168.6183 27.7375 170.10268Q26.64375 171.57143 24.753124 171.57143Q22.83125 171.57143 21.721874 170.33705L21.721874 175.4308L19.925 175.4308L19.925 160.8058L21.565624 160.8058L21.659374 161.97768Q22.753124 160.60268 24.721874 160.60268Q26.628124 160.60268 27.7375 162.04018Q28.846874 163.47768 28.846874 166.04018L28.846874 166.19643ZM27.034374 165.9933Q27.034374 164.21205 26.26875 163.1808Q25.51875 162.13393 24.190624 162.13393Q22.55 162.13393 21.721874 163.58705L21.721874 168.64955Q22.534374 170.08705 24.20625 170.08705Q25.503124 170.08705 26.26875 169.0558Q27.034374 168.02455 27.034374 165.9933ZM37.440624 171.3683Q37.284374 171.0558 37.190624 170.25893Q35.925 171.57143 34.175 171.57143Q32.6125 171.57143 31.6125 170.6808Q30.6125 169.79018 30.6125 168.4308Q30.6125 166.79018 31.8625 165.88393Q33.128124 164.96205 35.39375 164.96205L37.159374 164.96205L37.159374 164.13393Q37.159374 163.1808 36.58125 162.6183Q36.01875 162.0558 34.925 162.0558Q33.95625 162.0558 33.3 162.5558Q32.64375 163.04018 32.64375 163.72768L30.83125 163.72768Q30.83125 162.94643 31.39375 162.21205Q31.95625 161.46205 32.909374 161.04018Q33.878124 160.60268 35.034374 160.60268Q36.8625 160.60268 37.89375 161.52455Q38.925 162.4308 38.971874 164.04018L38.971874 168.89955Q38.971874 170.35268 39.33125 171.21205L39.33125 171.3683L37.440624 171.3683ZM34.440624 169.9933Q35.3 169.9933 36.05 169.5558Q36.815624 169.1183 37.159374 168.41518L37.159374 166.2433L35.7375 166.2433Q32.425 166.2433 32.425 168.1808Q32.425 169.04018 32.9875 169.52455Q33.55 169.9933 34.440624 169.9933ZM47.01875 162.41518Q46.6125 162.35268 46.14375 162.35268Q44.3625 162.35268 43.721874 163.8683L43.721874 171.3683L41.925 171.3683L41.925 160.8058L43.675 160.8058L43.70625 162.02455Q44.596874 160.60268 46.221874 160.60268Q46.753124 160.60268 47.01875 160.7433L47.01875 162.41518ZM55.440624 171.3683Q55.284374 171.0558 55.190624 170.25893Q53.925 171.57143 52.175 171.57143Q50.6125 171.57143 49.6125 170.6808Q48.6125 169.79018 48.6125 168.4308Q48.6125 166.79018 49.8625 165.88393Q51.128124 164.96205 53.39375 164.96205L55.159374 164.96205L55.159374 164.13393Q55.159374 163.1808 54.58125 162.6183Q54.01875 162.0558 52.925 162.0558Q51.95625 162.0558 51.3 162.5558Q50.64375 163.04018 50.64375 163.72768L48.83125 163.72768Q48.83125 162.94643 49.39375 162.21205Q49.95625 161.46205 50.909374 161.04018Q51.878124 160.60268 53.034374 160.60268Q54.8625 160.60268 55.89375 161.52455Q56.925 162.4308 56.971874 164.04018L56.971874 168.89955Q56.971874 170.35268 57.33125 171.21205L57.33125 171.3683L55.440624 171.3683ZM52.440624 169.9933Q53.3 169.9933 54.05 169.5558Q54.815624 169.1183 55.159374 168.41518L55.159374 166.2433L53.7375 166.2433Q50.425 166.2433 50.425 168.1808Q50.425 169.04018 50.9875 169.52455Q51.55 169.9933 52.440624 169.9933ZM59.4875 165.9933Q59.4875 163.52455 60.628124 162.07143Q61.76875 160.60268 63.659374 160.60268Q65.59688 160.60268 66.675 161.97768L66.76875 160.8058L68.40938 160.8058L68.40938 171.1183Q68.40938 173.16518 67.19063 174.33705Q65.9875 175.52455 63.925 175.52455Q62.784374 175.52455 61.690624 175.04018Q60.596874 174.5558 60.01875 173.69643L60.95625 172.6183Q62.128124 174.0558 63.8 174.0558Q65.12813 174.0558 65.8625 173.3058Q66.59688 172.57143 66.59688 171.22768L66.59688 170.3058Q65.51875 171.57143 63.64375 171.57143Q61.784374 171.57143 60.628124 170.07143Q59.4875 168.57143 59.4875 165.9933ZM61.3 166.19643Q61.3 167.9933 62.034374 169.00893Q62.76875 170.02455 64.08125 170.02455Q65.8 170.02455 66.59688 168.47768L66.59688 163.64955Q65.76875 162.13393 64.1125 162.13393Q62.784374 162.13393 62.034374 163.16518Q61.3 164.19643 61.3 166.19643ZM76.01875 162.41518Q75.6125 162.35268 75.14375 162.35268Q73.3625 162.35268 72.72188 163.8683L72.72188 171.3683L70.925 171.3683L70.925 160.8058L72.675 160.8058L72.70625 162.02455Q73.59688 160.60268 75.22188 160.60268Q75.75313 160.60268 76.01875 160.7433L76.01875 162.41518ZM84.44063 171.3683Q84.28438 171.0558 84.19063 170.25893Q82.925 171.57143 81.175 171.57143Q79.6125 171.57143 78.6125 170.6808Q77.6125 169.79018 77.6125 168.4308Q77.6125 166.79018 78.8625 165.88393Q80.12813 164.96205 82.39375 164.96205L84.15938 164.96205L84.15938 164.13393Q84.15938 163.1808 83.58125 162.6183Q83.01875 162.0558 81.925 162.0558Q80.95625 162.0558 80.3 162.5558Q79.64375 163.04018 79.64375 163.72768L77.83125 163.72768Q77.83125 162.94643 78.39375 162.21205Q78.95625 161.46205 79.90938 161.04018Q80.87813 160.60268 82.03438 160.60268Q83.8625 160.60268 84.89375 161.52455Q85.925 162.4308 85.97188 164.04018L85.97188 168.89955Q85.97188 170.35268 86.33125 171.21205L86.33125 171.3683L84.44063 171.3683ZM81.44063 169.9933Q82.3 169.9933 83.05 169.5558Q83.81563 169.1183 84.15938 168.41518L84.15938 166.2433L82.7375 166.2433Q79.425 166.2433 79.425 168.1808Q79.425 169.04018 79.9875 169.52455Q80.55 169.9933 81.44063 169.9933ZM97.84688 166.19643Q97.84688 168.6183 96.7375 170.10268Q95.64375 171.57143 93.75313 171.57143Q91.83125 171.57143 90.72188 170.33705L90.72188 175.4308L88.925 175.4308L88.925 160.8058L90.56563 160.8058L90.65938 161.97768Q91.75313 160.60268 93.72188 160.60268Q95.62813 160.60268 96.7375 162.04018Q97.84688 163.47768 97.84688 166.04018L97.84688 166.19643ZM96.03438 165.9933Q96.03438 164.21205 95.26875 163.1808Q94.51875 162.13393 93.19063 162.13393Q91.55 162.13393 90.72188 163.58705L90.72188 168.64955Q91.53438 170.08705 93.20625 170.08705Q94.50313 170.08705 95.26875 169.0558Q96.03438 168.02455 96.03438 165.9933ZM101.72188 162.08705Q102.925 160.60268 104.84688 160.60268Q108.20625 160.60268 108.22188 164.38393L108.22188 171.3683L106.425 171.3683L106.425 164.3683Q106.40938 163.22768 105.89375 162.6808Q105.39375 162.13393 104.3 162.13393Q103.425 162.13393 102.75313 162.60268Q102.09688 163.07143 101.72188 163.83705L101.72188 171.3683L99.925 171.3683L99.925 156.3683L101.72188 156.3683L101.72188 162.08705Z" fill-rule="nonzero"/><path fill="#9e9e9e" d="M27.3625 193.58705L29.33125 193.58705L29.33125 195.07143L27.3625 195.07143L27.3625 198.3683L25.55 198.3683L25.55 195.07143L19.065624 195.07143L19.065624 194.00893L25.440624 184.14955L27.3625 184.14955L27.3625 193.58705ZM21.1125 193.58705L25.55 193.58705L25.55 186.6183L25.33125 187.00893L21.1125 193.58705ZM33.3625 190.38393L34.721874 190.38393Q36.003124 190.35268 36.721874 189.71205Q37.45625 189.0558 37.45625 187.9308Q37.45625 185.4308 34.971874 185.4308Q33.8 185.4308 33.096874 186.10268Q32.409374 186.77455 32.409374 187.88393L30.596874 187.88393Q30.596874 186.19643 31.83125 185.07143Q33.065624 183.94643 34.971874 183.94643Q36.9875 183.94643 38.128124 185.02455Q39.26875 186.08705 39.26875 187.97768Q39.26875 188.89955 38.659374 189.77455Q38.065624 190.64955 37.034374 191.07143Q38.20625 191.44643 38.846874 192.3058Q39.4875 193.16518 39.4875 194.39955Q39.4875 196.32143 38.2375 197.44643Q36.9875 198.57143 34.971874 198.57143Q32.971874 198.57143 31.721874 197.4933Q30.471874 196.39955 30.471874 194.6183L32.284374 194.6183Q32.284374 195.7433 33.01875 196.41518Q33.753124 197.08705 34.9875 197.08705Q36.284374 197.08705 36.971874 196.41518Q37.675 195.72768 37.675 194.44643Q37.675 193.19643 36.909374 192.54018Q36.159374 191.8683 34.721874 191.85268L33.3625 191.85268L33.3625 190.38393ZM41.95625 197.41518Q41.95625 196.94643 42.2375 196.63393Q42.51875 196.32143 43.065624 196.32143Q43.628124 196.32143 43.909374 196.63393Q44.20625 196.94643 44.20625 197.41518Q44.20625 197.8683 43.909374 198.1808Q43.628124 198.47768 43.065624 198.47768Q42.51875 198.47768 42.2375 198.1808Q41.95625 197.8683 41.95625 197.41518ZM47.565624 191.2433L48.284374 184.14955L55.565624 184.14955L55.565624 185.82143L49.815624 185.82143L49.39375 189.69643Q50.440624 189.08705 51.76875 189.08705Q53.70625 189.08705 54.846874 190.3683Q55.9875 191.64955 55.9875 193.83705Q55.9875 196.04018 54.8 197.3058Q53.6125 198.57143 51.4875 198.57143Q49.596874 198.57143 48.409374 197.52455Q47.221874 196.47768 47.05 194.63393L48.76875 194.63393Q48.925 195.85268 49.628124 196.47768Q50.33125 197.08705 51.4875 197.08705Q52.753124 197.08705 53.471874 196.22768Q54.190624 195.3683 54.190624 193.85268Q54.190624 192.4308 53.409374 191.57143Q52.628124 190.69643 51.346874 190.69643Q50.159374 190.69643 49.4875 191.21205L49.003124 191.60268L47.565624 191.2433ZM57.58125 186.88393Q57.58125 185.60268 58.39375 184.77455Q59.20625 183.94643 60.4875 183.94643Q61.784374 183.94643 62.58125 184.79018Q63.39375 185.6183 63.39375 186.94643L63.39375 187.63393Q63.39375 188.9308 62.58125 189.7433Q61.76875 190.5558 60.503124 190.5558Q59.2375 190.5558 58.409374 189.7433Q57.58125 188.9308 57.58125 187.57143L57.58125 186.88393ZM58.925 187.63393Q58.925 188.39955 59.346874 188.89955Q59.784374 189.38393 60.503124 189.38393Q61.20625 189.38393 61.628124 188.91518Q62.05 188.4308 62.05 187.60268L62.05 186.88393Q62.05 186.1183 61.628124 185.6183Q61.20625 185.1183 60.4875 185.1183Q59.76875 185.1183 59.346874 185.6183Q58.925 186.1183 58.925 186.91518L58.925 187.63393ZM64.50313 194.88393Q64.50313 193.60268 65.31563 192.77455Q66.12813 191.94643 67.40938 191.94643Q68.69063 191.94643 69.50313 192.77455Q70.33125 193.58705 70.33125 194.94643L70.33125 195.64955Q70.33125 196.91518 69.51875 197.7433Q68.70625 198.57143 67.425 198.57143Q66.15938 198.57143 65.33125 197.75893Q64.50313 196.94643 64.50313 195.58705L64.50313 194.88393ZM65.84688 195.64955Q65.84688 196.41518 66.26875 196.91518Q66.70625 197.39955 67.425 197.39955Q68.12813 197.39955 68.55 196.91518Q68.97188 196.4308 68.97188 195.60268L68.97188 194.88393Q68.97188 194.10268 68.55 193.6183Q68.12813 193.13393 67.40938 193.13393Q66.72188 193.13393 66.28438 193.6183Q65.84688 194.10268 65.84688 194.91518L65.84688 195.64955ZM60.909374 197.29018L59.89375 196.64955L66.83125 185.54018L67.8625 186.1808L60.909374 197.29018Z" fill-rule="nonzero"/><path stroke="#757575" stroke-width="1.0" stroke-linecap="butt" d="M18.55 177.8683L147.73334 177.8683L163.96219 177.8683" fill-rule="nonzero"/><path fill="#9e9e9e" d="M165.96219 177.8683C165.96219 176.76373 165.06676 175.8683 163.96219 175.8683C162.8576 175.8683 161.96219 176.76373 161.96219 177.8683C161.96219 178.97287 162.8576 179.8683 163.96219 179.8683C165.06676 179.8683 165.96219 178.97287 165.96219 177.8683" fill-rule="nonzero"/><path fill="#757575" d="M533.34064 116.09134Q533.1844 115.77884 533.09064 114.981964Q531.825 116.294464 530.075 116.294464Q528.5125 116.294464 527.5125 115.40384Q526.5125 114.513214 526.5125 113.15384Q526.5125 111.513214 527.7625 110.606964Q529.02814 109.68509 531.29376 109.68509L533.0594 109.68509L533.0594 108.856964Q533.0594 107.90384 532.48126 107.34134Q531.91876 106.77884 530.825 106.77884Q529.85626 106.77884 529.2 107.27884Q528.54376 107.763214 528.54376 108.450714L526.73126 108.450714Q526.73126 107.669464 527.29376 106.93509Q527.85626 106.18509 528.8094 105.763214Q529.77814 105.325714 530.9344 105.325714Q532.7625 105.325714 533.79376 106.24759Q534.825 107.15384 534.8719 108.763214L534.8719 113.62259Q534.8719 115.075714 535.23126 115.93509L535.23126 116.09134L533.34064 116.09134ZM530.34064 114.71634Q531.2 114.71634 531.95 114.27884Q532.71564 113.84134 533.0594 113.138214L533.0594 110.96634L531.6375 110.96634Q528.325 110.96634 528.325 112.90384Q528.325 113.763214 528.8875 114.24759Q529.45 114.71634 530.34064 114.71634ZM542.91876 107.138214Q542.5125 107.075714 542.04376 107.075714Q540.2625 107.075714 539.6219 108.59134L539.6219 116.09134L537.825 116.09134L537.825 105.52884L539.575 105.52884L539.60626 106.74759Q540.4969 105.325714 542.1219 105.325714Q542.65314 105.325714 542.91876 105.46634L542.91876 107.138214ZM547.2625 102.96634L547.2625 105.52884L549.2469 105.52884L549.2469 106.919464L547.2625 106.919464L547.2625 113.46634Q547.2625 114.106964 547.52814 114.43509Q547.79376 114.74759 548.4344 114.74759Q548.7469 114.74759 549.29376 114.62259L549.29376 116.09134Q548.575 116.294464 547.90314 116.294464Q546.7 116.294464 546.075 115.56009Q545.46564 114.825714 545.46564 113.46634L545.46564 106.919464L543.54376 106.919464L543.54376 105.52884L545.46564 105.52884L545.46564 102.96634L547.2625 102.96634ZM553.77814 116.09134L551.98126 116.09134L551.98126 105.52884L553.77814 105.52884L553.77814 116.09134ZM551.825 102.71634Q551.825 102.27884 552.09064 101.981964Q552.3719 101.669464 552.8875 101.669464Q553.41876 101.669464 553.6844 101.981964Q553.96564 102.27884 553.96564 102.71634Q553.96564 103.15384 553.6844 103.450714Q553.41876 103.74759 552.8875 103.74759Q552.3719 103.74759 552.09064 103.450714Q551.825 103.15384 551.825 102.71634ZM561.0594 114.81009Q562.02814 114.81009 562.7469 114.231964Q563.46564 113.638214 563.54376 112.763214L565.2625 112.763214Q565.2 113.669464 564.6219 114.49759Q564.0594 115.31009 563.09064 115.81009Q562.1375 116.294464 561.0594 116.294464Q558.90314 116.294464 557.6219 114.856964Q556.35626 113.40384 556.35626 110.90384L556.35626 110.606964Q556.35626 109.06009 556.91876 107.856964Q557.48126 106.65384 558.54376 105.99759Q559.60626 105.325714 561.04376 105.325714Q562.825 105.325714 563.9969 106.388214Q565.1844 107.450714 565.2625 109.15384L563.54376 109.15384Q563.46564 108.138214 562.7625 107.481964Q562.075 106.81009 561.04376 106.81009Q559.66876 106.81009 558.90314 107.81009Q558.15314 108.794464 558.15314 110.669464L558.15314 111.013214Q558.15314 112.84134 558.90314 113.825714Q559.65314 114.81009 561.0594 114.81009ZM568.77814 116.09134L566.98126 116.09134L566.98126 101.09134L568.77814 101.09134L568.77814 116.09134ZM576.2 116.294464Q574.0594 116.294464 572.7 114.888214Q571.35626 113.46634 571.35626 111.106964L571.35626 110.763214Q571.35626 109.200714 571.95 107.96634Q572.5594 106.731964 573.6375 106.02884Q574.71564 105.325714 575.98126 105.325714Q578.04376 105.325714 579.1844 106.68509Q580.325 108.044464 580.325 110.575714L580.325 111.325714L573.16876 111.325714Q573.2 112.888214 574.075 113.856964Q574.95 114.81009 576.29376 114.81009Q577.2625 114.81009 577.91876 114.419464Q578.59064 114.02884 579.09064 113.388214L580.1844 114.24759Q578.85626 116.294464 576.2 116.294464ZM575.98126 106.81009Q574.8875 106.81009 574.1375 107.606964Q573.40314 108.40384 573.23126 109.84134L578.5125 109.84134L578.5125 109.700714Q578.4344 108.325714 577.7625 107.575714Q577.10626 106.81009 575.98126 106.81009Z" fill-rule="nonzero"/><path fill="#9e9e9e" d="M538.95 143.09134L529.6375 143.09134L529.6375 141.79446L534.5594 136.32571Q535.65314 135.07571 536.0594 134.31009Q536.48126 133.52884 536.48126 132.70071Q536.48126 131.59134 535.8094 130.87259Q535.1375 130.15384 534.0125 130.15384Q532.65314 130.15384 531.90314 130.93509Q531.16876 131.70071 531.16876 133.06009L529.35626 133.06009Q529.35626 131.09134 530.6219 129.88821Q531.8875 128.66946 534.0125 128.66946Q535.9969 128.66946 537.1375 129.71634Q538.29376 130.76321 538.29376 132.48196Q538.29376 134.59134 535.6219 137.48196L531.8094 141.62259L538.95 141.62259L538.95 143.09134ZM547.5594 136.84134Q546.9969 137.51321 546.2 137.93509Q545.41876 138.34134 544.48126 138.34134Q543.2469 138.34134 542.325 137.73196Q541.41876 137.12259 540.91876 136.02884Q540.4344 134.91946 540.4344 133.59134Q540.4344 132.16946 540.96564 131.02884Q541.5125 129.88821 542.4969 129.27884Q543.4969 128.66946 544.825 128.66946Q546.9344 128.66946 548.15314 130.24759Q549.3719 131.82571 549.3719 134.56009L549.3719 135.07571Q549.3719 139.23196 547.73126 141.13821Q546.09064 143.04446 542.77814 143.10696L542.4344 143.10696L542.4344 141.57571L542.8094 141.57571Q545.04376 141.54446 546.2469 140.41946Q547.45 139.27884 547.5594 136.84134ZM544.77814 136.84134Q545.6844 136.84134 546.45 136.29446Q547.21564 135.73196 547.5594 134.90384L547.5594 134.18509Q547.5594 132.40384 546.79376 131.29446Q546.02814 130.18509 544.84064 130.18509Q543.65314 130.18509 542.91876 131.10696Q542.2 132.01321 542.2 133.49759Q542.2 134.95071 542.90314 135.90384Q543.60626 136.84134 544.77814 136.84134ZM551.85626 142.13821Q551.85626 141.66946 552.1375 141.35696Q552.41876 141.04446 552.96564 141.04446Q553.52814 141.04446 553.8094 141.35696Q554.10626 141.66946 554.10626 142.13821Q554.10626 142.59134 553.8094 142.90384Q553.52814 143.20071 552.96564 143.20071Q552.41876 143.20071 552.1375 142.90384Q551.85626 142.59134 551.85626 142.13821ZM557.46564 135.96634L558.1844 128.87259L565.46564 128.87259L565.46564 130.54446L559.71564 130.54446L559.29376 134.41946Q560.34064 133.81009 561.66876 133.81009Q563.60626 133.81009 564.7469 135.09134Q565.8875 136.37259 565.8875 138.56009Q565.8875 140.76321 564.7 142.02884Q563.5125 143.29446 561.3875 143.29446Q559.4969 143.29446 558.3094 142.24759Q557.1219 141.20071 556.95 139.35696L558.66876 139.35696Q558.825 140.57571 559.52814 141.20071Q560.23126 141.81009 561.3875 141.81009Q562.65314 141.81009 563.3719 140.95071Q564.09064 140.09134 564.09064 138.57571Q564.09064 137.15384 563.3094 136.29446Q562.52814 135.41946 561.2469 135.41946Q560.0594 135.41946 559.3875 135.93509L558.90314 136.32571L557.46564 135.96634ZM567.48126 131.60696Q567.48126 130.32571 568.29376 129.49759Q569.10626 128.66946 570.3875 128.66946Q571.6844 128.66946 572.48126 129.51321Q573.29376 130.34134 573.29376 131.66946L573.29376 132.35696Q573.29376 133.65384 572.48126 134.46634Q571.66876 135.27884 570.40314 135.27884Q569.1375 135.27884 568.3094 134.46634Q567.48126 133.65384 567.48126 132.29446L567.48126 131.60696ZM568.825 132.35696Q568.825 133.12259 569.2469 133.62259Q569.6844 134.10696 570.40314 134.10696Q571.10626 134.10696 571.52814 133.63821Q571.95 133.15384 571.95 132.32571L571.95 131.60696Q571.95 130.84134 571.52814 130.34134Q571.10626 129.84134 570.3875 129.84134Q569.66876 129.84134 569.2469 130.34134Q568.825 130.84134 568.825 131.63821L568.825 132.35696ZM574.40314 139.60696Q574.40314 138.32571 575.21564 137.49759Q576.02814 136.66946 577.3094 136.66946Q578.59064 136.66946 579.40314 137.49759Q580.23126 138.31009 580.23126 139.66946L580.23126 140.37259Q580.23126 141.63821 579.41876 142.46634Q578.60626 143.29446 577.325 143.29446Q576.0594 143.29446 575.23126 142.48196Q574.40314 141.66946 574.40314 140.31009L574.40314 139.60696ZM575.7469 140.37259Q575.7469 141.13821 576.16876 141.63821Q576.60626 142.12259 577.325 142.12259Q578.02814 142.12259 578.45 141.63821Q578.8719 141.15384 578.8719 140.32571L578.8719 139.60696Q578.8719 138.82571 578.45 138.34134Q578.02814 137.85696 577.3094 137.85696Q576.6219 137.85696 576.1844 138.34134Q575.7469 138.82571 575.7469 139.63821L575.7469 140.37259ZM570.8094 142.01321L569.79376 141.37259L576.73126 130.26321L577.7625 130.90384L570.8094 142.01321Z" fill-rule="nonzero"/><path stroke="#757575" stroke-width="1.0" stroke-linecap="butt" d="M581.45 122.59134L452.26666 122.59134L410.9973 122.59134" fill-rule="nonzero"/><path fill="#9e9e9e" d="M412.9973 122.59134C412.9973 121.48677 412.1019 120.59134 410.9973 120.59134C409.89276 120.59134 408.9973 121.48677 408.9973 122.59134C408.9973 123.69591 409.89276 124.59134 410.9973 124.59134C412.1019 124.59134 412.9973 123.69591 412.9973 122.59134" fill-rule="nonzero"/><path fill="#757575" d="M523.96564 317.65314Q523.96564 316.91876 523.41876 316.5125Q522.8719 316.10626 521.4969 315.8094Q520.1219 315.5125 519.3094 315.10626Q518.5125 314.7 518.1219 314.1375Q517.7469 313.5594 517.7469 312.77814Q517.7469 311.48126 518.84064 310.59064Q519.9344 309.6844 521.65314 309.6844Q523.45 309.6844 524.5594 310.6219Q525.6844 311.54376 525.6844 312.98126L523.85626 312.98126Q523.85626 312.2469 523.23126 311.71564Q522.60626 311.16876 521.65314 311.16876Q520.65314 311.16876 520.09064 311.60626Q519.54376 312.02814 519.54376 312.73126Q519.54376 313.3719 520.0594 313.71564Q520.575 314.04376 521.9344 314.35626Q523.29376 314.65314 524.1219 315.075Q524.96564 315.48126 525.3719 316.075Q525.77814 316.66876 525.77814 317.5125Q525.77814 318.9344 524.6375 319.79376Q523.5125 320.65314 521.7 320.65314Q520.4344 320.65314 519.45 320.2Q518.48126 319.7469 517.91876 318.95Q517.3719 318.1375 517.3719 317.2L519.1844 317.2Q519.23126 318.10626 519.90314 318.6375Q520.59064 319.16876 521.7 319.16876Q522.73126 319.16876 523.34064 318.7625Q523.96564 318.34064 523.96564 317.65314ZM532.2 320.65314Q530.0594 320.65314 528.7 319.2469Q527.35626 317.825 527.35626 315.46564L527.35626 315.1219Q527.35626 313.5594 527.95 312.325Q528.5594 311.09064 529.6375 310.3875Q530.71564 309.6844 531.98126 309.6844Q534.04376 309.6844 535.1844 311.04376Q536.325 312.40314 536.325 314.9344L536.325 315.6844L529.16876 315.6844Q529.2 317.2469 530.075 318.21564Q530.95 319.16876 532.29376 319.16876Q533.2625 319.16876 533.91876 318.77814Q534.59064 318.3875 535.09064 317.7469L536.1844 318.60626Q534.85626 320.65314 532.2 320.65314ZM531.98126 311.16876Q530.8875 311.16876 530.1375 311.96564Q529.40314 312.7625 529.23126 314.2L534.5125 314.2L534.5125 314.0594Q534.4344 312.6844 533.7625 311.9344Q533.10626 311.16876 531.98126 311.16876ZM543.0594 319.16876Q544.02814 319.16876 544.7469 318.59064Q545.46564 317.9969 545.54376 317.1219L547.2625 317.1219Q547.2 318.02814 546.6219 318.85626Q546.0594 319.66876 545.09064 320.16876Q544.1375 320.65314 543.0594 320.65314Q540.90314 320.65314 539.6219 319.21564Q538.35626 317.7625 538.35626 315.2625L538.35626 314.96564Q538.35626 313.41876 538.91876 312.21564Q539.48126 311.0125 540.54376 310.35626Q541.60626 309.6844 543.04376 309.6844Q544.825 309.6844 545.9969 310.7469Q547.1844 311.8094 547.2625 313.5125L545.54376 313.5125Q545.46564 312.4969 544.7625 311.84064Q544.075 311.16876 543.04376 311.16876Q541.66876 311.16876 540.90314 312.16876Q540.15314 313.15314 540.15314 315.02814L540.15314 315.3719Q540.15314 317.2 540.90314 318.1844Q541.65314 319.16876 543.0594 319.16876ZM551.2625 307.325L551.2625 309.8875L553.2469 309.8875L553.2469 311.27814L551.2625 311.27814L551.2625 317.825Q551.2625 318.46564 551.52814 318.79376Q551.79376 319.10626 552.4344 319.10626Q552.7469 319.10626 553.29376 318.98126L553.29376 320.45Q552.575 320.65314 551.90314 320.65314Q550.7 320.65314 550.075 319.91876Q549.46564 319.1844 549.46564 317.825L549.46564 311.27814L547.54376 311.27814L547.54376 309.8875L549.46564 309.8875L549.46564 307.325L551.2625 307.325ZM557.77814 320.45L555.98126 320.45L555.98126 309.8875L557.77814 309.8875L557.77814 320.45ZM555.825 307.075Q555.825 306.6375 556.09064 306.34064Q556.3719 306.02814 556.8875 306.02814Q557.41876 306.02814 557.6844 306.34064Q557.96564 306.6375 557.96564 307.075Q557.96564 307.5125 557.6844 307.8094Q557.41876 308.10626 556.8875 308.10626Q556.3719 308.10626 556.09064 307.8094Q555.825 307.5125 555.825 307.075ZM560.34064 315.075Q560.34064 313.5125 560.95 312.27814Q561.5594 311.02814 562.6375 310.35626Q563.73126 309.6844 565.1375 309.6844Q567.29376 309.6844 568.6219 311.1844Q569.96564 312.66876 569.96564 315.15314L569.96564 315.27814Q569.96564 316.825 569.3719 318.0594Q568.77814 319.27814 567.66876 319.96564Q566.575 320.65314 565.15314 320.65314Q563.0125 320.65314 561.66876 319.15314Q560.34064 317.65314 560.34064 315.2L560.34064 315.075ZM562.15314 315.27814Q562.15314 317.04376 562.96564 318.10626Q563.79376 319.16876 565.15314 319.16876Q566.52814 319.16876 567.34064 318.09064Q568.15314 317.0125 568.15314 315.075Q568.15314 313.325 567.325 312.2469Q566.4969 311.16876 565.1375 311.16876Q563.79376 311.16876 562.96564 312.23126Q562.15314 313.29376 562.15314 315.27814ZM573.52814 309.8875L573.59064 311.21564Q574.79376 309.6844 576.7469 309.6844Q580.10626 309.6844 580.1219 313.46564L580.1219 320.45L578.325 320.45L578.325 313.45Q578.3094 312.3094 577.79376 311.7625Q577.29376 311.21564 576.2 311.21564Q575.325 311.21564 574.65314 311.6844Q573.9969 312.15314 573.6219 312.91876L573.6219 320.45L571.825 320.45L571.825 309.8875L573.52814 309.8875Z" fill-rule="nonzero"/><path fill="#9e9e9e" d="M538.95 347.45L529.6375 347.45L529.6375 346.15314L534.5594 340.6844Q535.65314 339.4344 536.0594 338.66876Q536.48126 337.8875 536.48126 337.0594Q536.48126 335.95 535.8094 335.23126Q535.1375 334.5125 534.0125 334.5125Q532.65314 334.5125 531.90314 335.29376Q531.16876 336.0594 531.16876 337.41876L529.35626 337.41876Q529.35626 335.45 530.6219 334.2469Q531.8875 333.02814 534.0125 333.02814Q535.9969 333.02814 537.1375 334.075Q538.29376 335.1219 538.29376 336.84064Q538.29376 338.95 535.6219 341.84064L531.8094 345.98126L538.95 345.98126L538.95 347.45ZM549.8094 334.2469L543.91876 347.45L542.02814 347.45L547.90314 334.71564L540.2 334.71564L540.2 333.23126L549.8094 333.23126L549.8094 334.2469ZM551.85626 346.4969Q551.85626 346.02814 552.1375 345.71564Q552.41876 345.40314 552.96564 345.40314Q553.52814 345.40314 553.8094 345.71564Q554.10626 346.02814 554.10626 346.4969Q554.10626 346.95 553.8094 347.2625Q553.52814 347.5594 552.96564 347.5594Q552.41876 347.5594 552.1375 347.2625Q551.85626 346.95 551.85626 346.4969ZM562.575 347.45L560.7469 347.45L560.7469 335.40314L557.10626 336.7469L557.10626 335.10626L562.29376 333.16876L562.575 333.16876L562.575 347.45ZM567.48126 335.96564Q567.48126 334.6844 568.29376 333.85626Q569.10626 333.02814 570.3875 333.02814Q571.6844 333.02814 572.48126 333.8719Q573.29376 334.7 573.29376 336.02814L573.29376 336.71564Q573.29376 338.0125 572.48126 338.825Q571.66876 339.6375 570.40314 339.6375Q569.1375 339.6375 568.3094 338.825Q567.48126 338.0125 567.48126 336.65314L567.48126 335.96564ZM568.825 336.71564Q568.825 337.48126 569.2469 337.98126Q569.6844 338.46564 570.40314 338.46564Q571.10626 338.46564 571.52814 337.9969Q571.95 337.5125 571.95 336.6844L571.95 335.96564Q571.95 335.2 571.52814 334.7Q571.10626 334.2 570.3875 334.2Q569.66876 334.2 569.2469 334.7Q568.825 335.2 568.825 335.9969L568.825 336.71564ZM574.40314 343.96564Q574.40314 342.6844 575.21564 341.85626Q576.02814 341.02814 577.3094 341.02814Q578.59064 341.02814 579.40314 341.85626Q580.23126 342.66876 580.23126 344.02814L580.23126 344.73126Q580.23126 345.9969 579.41876 346.825Q578.60626 347.65314 577.325 347.65314Q576.0594 347.65314 575.23126 346.84064Q574.40314 346.02814 574.40314 344.66876L574.40314 343.96564ZM575.7469 344.73126Q575.7469 345.4969 576.16876 345.9969Q576.60626 346.48126 577.325 346.48126Q578.02814 346.48126 578.45 345.9969Q578.8719 345.5125 578.8719 344.6844L578.8719 343.96564Q578.8719 343.1844 578.45 342.7Q578.02814 342.21564 577.3094 342.21564Q576.6219 342.21564 576.1844 342.7Q575.7469 343.1844 575.7469 343.9969L575.7469 344.73126ZM570.8094 346.3719L569.79376 345.73126L576.73126 334.6219L577.7625 335.2625L570.8094 346.3719Z" fill-rule="nonzero"/><path stroke="#757575" stroke-width="1.0" stroke-linecap="butt" d="M581.45 326.95L452.26666 326.95L359.21973 331.88556" fill-rule="nonzero"/><path fill="#9e9e9e" d="M361.21973 331.88556C361.21973 330.781 360.3243 329.88556 359.21973 329.88556C358.11517 329.88556 357.21973 330.781 357.21973 331.88556C357.21973 332.99014 358.11517 333.88556 359.21973 333.88556C360.3243 333.88556 361.21973 332.99014 361.21973 331.88556" fill-rule="nonzero"/><path fill="#757575" d="M20.534374 41.55L20.534374 24.4875L25.346874 24.4875Q27.58125 24.4875 29.284374 25.471874Q31.003124 26.45625 31.925 28.26875Q32.8625 30.08125 32.878124 32.440624L32.878124 33.534374Q32.878124 35.940624 31.940624 37.76875Q31.003124 39.58125 29.26875 40.55Q27.55 41.51875 25.253124 41.55L20.534374 41.55ZM22.784374 26.33125L22.784374 39.70625L25.14375 39.70625Q27.753124 39.70625 29.190624 38.096874Q30.64375 36.471874 30.64375 33.4875L30.64375 32.4875Q30.64375 29.58125 29.26875 27.971874Q27.909374 26.3625 25.409374 26.33125L22.784374 26.33125ZM38.55 41.55L36.378124 41.55L36.378124 28.8625L38.55 28.8625L38.55 41.55ZM36.20625 25.503124Q36.20625 24.971874 36.51875 24.6125Q36.846874 24.253124 37.471874 24.253124Q38.1125 24.253124 38.440624 24.6125Q38.76875 24.971874 38.76875 25.503124Q38.76875 26.034374 38.440624 26.39375Q38.1125 26.7375 37.471874 26.7375Q36.846874 26.7375 36.51875 26.39375Q36.20625 26.034374 36.20625 25.503124ZM49.58125 38.190624Q49.58125 37.3 48.909374 36.815624Q48.253124 36.33125 46.596874 35.9875Q44.95625 35.628124 43.9875 35.14375Q43.01875 34.64375 42.55 33.971874Q42.096874 33.284374 42.096874 32.346874Q42.096874 30.784374 43.409374 29.70625Q44.7375 28.628124 46.784374 28.628124Q48.940624 28.628124 50.284374 29.753124Q51.628124 30.8625 51.628124 32.596874L49.440624 32.596874Q49.440624 31.70625 48.690624 31.065624Q47.940624 30.409374 46.784374 30.409374Q45.596874 30.409374 44.925 30.925Q44.26875 31.440624 44.26875 32.284374Q44.26875 33.065624 44.878124 33.471874Q45.503124 33.8625 47.128124 34.221874Q48.753124 34.58125 49.753124 35.096874Q50.76875 35.596874 51.253124 36.315624Q51.7375 37.01875 51.7375 38.034374Q51.7375 39.7375 50.378124 40.76875Q49.01875 41.784374 46.8625 41.784374Q45.33125 41.784374 44.159374 41.253124Q42.9875 40.70625 42.315624 39.7375Q41.659374 38.76875 41.659374 37.64375L43.83125 37.64375Q43.89375 38.7375 44.70625 39.378124Q45.51875 40.01875 46.8625 40.01875Q48.08125 40.01875 48.83125 39.51875Q49.58125 39.01875 49.58125 38.190624ZM57.128124 25.8L57.128124 28.8625L59.503124 28.8625L59.503124 30.55L57.128124 30.55L57.128124 38.409374Q57.128124 39.175 57.440624 39.55Q57.76875 39.925 58.534374 39.925Q58.909374 39.925 59.565624 39.784374L59.565624 41.55Q58.70625 41.784374 57.89375 41.784374Q56.440624 41.784374 55.70625 40.909374Q54.971874 40.01875 54.971874 38.409374L54.971874 30.55L52.659374 30.55L52.659374 28.8625L54.971874 28.8625L54.971874 25.8L57.128124 25.8ZM68.31563 30.815624Q67.83125 30.7375 67.25313 30.7375Q65.12813 30.7375 64.3625 32.55L64.3625 41.55L62.190624 41.55L62.190624 28.8625L64.3 28.8625L64.33125 30.33125Q65.40938 28.628124 67.3625 28.628124Q67.9875 28.628124 68.31563 28.8L68.31563 30.815624ZM72.55 41.55L70.37813 41.55L70.37813 28.8625L72.55 28.8625L72.55 41.55ZM70.20625 25.503124Q70.20625 24.971874 70.51875 24.6125Q70.84688 24.253124 71.47188 24.253124Q72.1125 24.253124 72.44063 24.6125Q72.76875 24.971874 72.76875 25.503124Q72.76875 26.034374 72.44063 26.39375Q72.1125 26.7375 71.47188 26.7375Q70.84688 26.7375 70.51875 26.39375Q70.20625 26.034374 70.20625 25.503124ZM86.925 35.346874Q86.925 38.253124 85.58125 40.01875Q84.25313 41.784374 82.00313 41.784374Q79.59688 41.784374 78.28438 40.08125L78.19063 41.55L76.19063 41.55L76.19063 23.55L78.3625 23.55L78.3625 30.26875Q79.675 28.628124 81.97188 28.628124Q84.28438 28.628124 85.59688 30.378124Q86.925 32.128124 86.925 35.159374L86.925 35.346874ZM84.75313 35.096874Q84.75313 32.89375 83.89375 31.690624Q83.05 30.471874 81.44063 30.471874Q79.3 30.471874 78.3625 32.471874L78.3625 37.95625Q79.3625 39.940624 81.47188 39.940624Q83.01875 39.940624 83.87813 38.7375Q84.75313 37.534374 84.75313 35.096874ZM97.01875 40.3Q95.75313 41.784374 93.3 41.784374Q91.28438 41.784374 90.22188 40.6125Q89.15938 39.425 89.14375 37.1125L89.14375 28.8625L91.31563 28.8625L91.31563 37.065624Q91.31563 39.940624 93.65938 39.940624Q96.14375 39.940624 96.95625 38.096874L96.95625 28.8625L99.12813 28.8625L99.12813 41.55L97.06563 41.55L97.01875 40.3ZM105.12813 25.8L105.12813 28.8625L107.50313 28.8625L107.50313 30.55L105.12813 30.55L105.12813 38.409374Q105.12813 39.175 105.44063 39.55Q105.76875 39.925 106.53438 39.925Q106.90938 39.925 107.56563 39.784374L107.56563 41.55Q106.70625 41.784374 105.89375 41.784374Q104.44063 41.784374 103.70625 40.909374Q102.97188 40.01875 102.97188 38.409374L102.97188 30.55L100.65938 30.55L100.65938 28.8625L102.97188 28.8625L102.97188 25.8L105.12813 25.8ZM112.55 41.55L110.37813 41.55L110.37813 28.8625L112.55 28.8625L112.55 41.55ZM110.20625 25.503124Q110.20625 24.971874 110.51875 24.6125Q110.84688 24.253124 111.47188 24.253124Q112.1125 24.253124 112.44063 24.6125Q112.76875 24.971874 112.76875 25.503124Q112.76875 26.034374 112.44063 26.39375Q112.1125 26.7375 111.47188 26.7375Q110.84688 26.7375 110.51875 26.39375Q110.20625 26.034374 110.20625 25.503124ZM115.6125 35.096874Q115.6125 33.221874 116.34688 31.7375Q117.08125 30.253124 118.37813 29.440624Q119.69063 28.628124 121.37813 28.628124Q123.95625 28.628124 125.55 30.425Q127.15938 32.221874 127.15938 35.190624L127.15938 35.346874Q127.15938 37.20625 126.44063 38.675Q125.7375 40.14375 124.425 40.971874Q123.1125 41.784374 121.39375 41.784374Q118.81563 41.784374 117.20625 39.9875Q115.6125 38.190624 115.6125 35.2375L115.6125 35.096874ZM117.8 35.346874Q117.8 37.45625 118.76875 38.7375Q119.75313 40.01875 121.39375 40.01875Q123.05 40.01875 124.01875 38.721874Q124.9875 37.425 124.9875 35.096874Q124.9875 33.003124 124.00313 31.70625Q123.01875 30.409374 121.37813 30.409374Q119.76875 30.409374 118.78438 31.690624Q117.8 32.971874 117.8 35.346874ZM132.2375 28.8625L132.31563 30.45625Q133.76875 28.628124 136.1125 28.628124Q140.12813 28.628124 140.15938 33.175L140.15938 41.55L138.00313 41.55L138.00313 33.159374Q137.9875 31.784374 137.3625 31.128124Q136.75313 30.471874 135.45625 30.471874Q134.39375 30.471874 133.59688 31.034374Q132.8 31.596874 132.3625 32.51875L132.3625 41.55L130.19063 41.55L130.19063 28.8625L132.2375 28.8625ZM148.6125 35.096874Q148.6125 33.221874 149.34688 31.7375Q150.08125 30.253124 151.37813 29.440624Q152.69063 28.628124 154.37813 28.628124Q156.95625 28.628124 158.55 30.425Q160.15938 32.221874 160.15938 35.190624L160.15938 35.346874Q160.15938 37.20625 159.44063 38.675Q158.7375 40.14375 157.425 40.971874Q156.1125 41.784374 154.39375 41.784374Q151.81563 41.784374 150.20625 39.9875Q148.6125 38.190624 148.6125 35.2375L148.6125 35.096874ZM150.8 35.346874Q150.8 37.45625 151.76875 38.7375Q152.75313 40.01875 154.39375 40.01875Q156.05 40.01875 157.01875 38.721874Q157.9875 37.425 157.9875 35.096874Q157.9875 33.003124 157.00313 31.70625Q156.01875 30.409374 154.37813 30.409374Q152.76875 30.409374 151.78438 31.690624Q150.8 32.971874 150.8 35.346874ZM164.25313 41.55L164.25313 30.55L162.25313 30.55L162.25313 28.8625L164.25313 28.8625L164.25313 27.565624Q164.25313 25.534374 165.34688 24.425Q166.44063 23.3 168.425 23.3Q169.175 23.3 169.925 23.503124L169.8 25.253124Q169.25313 25.159374 168.62813 25.159374Q167.58125 25.159374 167.00313 25.76875Q166.425 26.378124 166.425 27.534374L166.425 28.8625L169.12813 28.8625L169.12813 30.55L166.425 30.55L166.425 41.55L164.25313 41.55ZM183.31563 30.815624Q182.83125 30.7375 182.25313 30.7375Q180.12813 30.7375 179.3625 32.55L179.3625 41.55L177.19063 41.55L177.19063 28.8625L179.3 28.8625L179.33125 30.33125Q180.40938 28.628124 182.3625 28.628124Q182.9875 28.628124 183.31563 28.8L183.31563 30.815624ZM190.45625 41.784374Q187.87813 41.784374 186.25313 40.096874Q184.64375 38.39375 184.64375 35.565624L184.64375 35.159374Q184.64375 33.26875 185.3625 31.8Q186.08125 30.315624 187.37813 29.471874Q188.675 28.628124 190.19063 28.628124Q192.65938 28.628124 194.01875 30.26875Q195.39375 31.89375 195.39375 34.925L195.39375 35.83125L186.81563 35.83125Q186.8625 37.70625 187.90938 38.8625Q188.95625 40.01875 190.56563 40.01875Q191.72188 40.01875 192.51875 39.55Q193.31563 39.08125 193.90938 38.3L195.2375 39.33125Q193.64375 41.784374 190.45625 41.784374ZM190.19063 30.409374Q188.87813 30.409374 187.9875 31.378124Q187.09688 32.33125 186.87813 34.05L193.2375 34.05L193.2375 33.878124Q193.14375 32.2375 192.34688 31.33125Q191.55 30.409374 190.19063 30.409374ZM202.37813 38.6125L205.51875 28.8625L207.7375 28.8625L203.19063 41.55L201.53438 41.55L196.94063 28.8625L199.15938 28.8625L202.37813 38.6125ZM212.55 41.55L210.37813 41.55L210.37813 28.8625L212.55 28.8625L212.55 41.55ZM210.20625 25.503124Q210.20625 24.971874 210.51875 24.6125Q210.84688 24.253124 211.47188 24.253124Q212.1125 24.253124 212.44063 24.6125Q212.76875 24.971874 212.76875 25.503124Q212.76875 26.034374 212.44063 26.39375Q212.1125 26.7375 211.47188 26.7375Q210.84688 26.7375 210.51875 26.39375Q210.20625 26.034374 210.20625 25.503124ZM221.45625 41.784374Q218.87813 41.784374 217.25313 40.096874Q215.64375 38.39375 215.64375 35.565624L215.64375 35.159374Q215.64375 33.26875 216.3625 31.8Q217.08125 30.315624 218.37813 29.471874Q219.675 28.628124 221.19063 28.628124Q223.65938 28.628124 225.01875 30.26875Q226.39375 31.89375 226.39375 34.925L226.39375 35.83125L217.81563 35.83125Q217.8625 37.70625 218.90938 38.8625Q219.95625 40.01875 221.56563 40.01875Q222.72188 40.01875 223.51875 39.55Q224.31563 39.08125 224.90938 38.3L226.2375 39.33125Q224.64375 41.784374 221.45625 41.784374ZM221.19063 30.409374Q219.87813 30.409374 218.9875 31.378124Q218.09688 32.33125 217.87813 34.05L224.2375 34.05L224.2375 33.878124Q224.14375 32.2375 223.34688 31.33125Q222.55 30.409374 221.19063 30.409374ZM240.425 38.565624L242.8625 28.8625L245.01875 28.8625L241.33125 41.55L239.58125 41.55L236.4875 31.940624L233.4875 41.55L231.7375 41.55L228.05 28.8625L230.20625 28.8625L232.70625 38.3625L235.65938 28.8625L237.40938 28.8625L240.425 38.565624ZM258.28436 40.01875Q259.4406 40.01875 260.3 39.315624Q261.175 38.6125 261.26874 37.55L263.3156 37.55Q263.2531 38.64375 262.5656 39.628124Q261.8781 40.6125 260.72186 41.20625Q259.5656 41.784374 258.28436 41.784374Q255.69063 41.784374 254.15938 40.065624Q252.62813 38.33125 252.62813 35.33125L252.62813 34.95625Q252.62813 33.1125 253.3 31.675Q253.9875 30.221874 255.25313 29.425Q256.53436 28.628124 258.26874 28.628124Q260.39374 28.628124 261.8 29.909374Q263.22186 31.190624 263.3156 33.221874L261.26874 33.221874Q261.175 32.003124 260.33124 31.20625Q259.5031 30.409374 258.26874 30.409374Q256.6125 30.409374 255.70625 31.6125Q254.8 32.8 254.8 35.05L254.8 35.45625Q254.8 37.64375 255.69063 38.83125Q256.59686 40.01875 258.28436 40.01875ZM265.6125 35.096874Q265.6125 33.221874 266.34686 31.7375Q267.08124 30.253124 268.3781 29.440624Q269.6906 28.628124 271.3781 28.628124Q273.95624 28.628124 275.55 30.425Q277.15936 32.221874 277.15936 35.190624L277.15936 35.346874Q277.15936 37.20625 276.4406 38.675Q275.7375 40.14375 274.425 40.971874Q273.1125 41.784374 271.39374 41.784374Q268.8156 41.784374 267.20624 39.9875Q265.6125 38.190624 265.6125 35.2375L265.6125 35.096874ZM267.8 35.346874Q267.8 37.45625 268.76874 38.7375Q269.7531 40.01875 271.39374 40.01875Q273.05 40.01875 274.01874 38.721874Q274.9875 37.425 274.9875 35.096874Q274.9875 33.003124 274.0031 31.70625Q273.01874 30.409374 271.3781 30.409374Q269.76874 30.409374 268.78436 31.690624Q267.8 32.971874 267.8 35.346874ZM282.2375 28.8625L282.28436 30.26875Q283.6906 28.628124 286.05 28.628124Q288.70624 28.628124 289.675 30.675Q290.3 29.753124 291.3156 29.190624Q292.33124 28.628124 293.72186 28.628124Q297.89374 28.628124 297.95624 33.05L297.95624 41.55L295.78436 41.55L295.78436 33.175Q295.78436 31.815624 295.15936 31.14375Q294.55 30.471874 293.08124 30.471874Q291.8781 30.471874 291.08124 31.190624Q290.28436 31.909374 290.15936 33.128124L290.15936 41.55L287.97186 41.55L287.97186 33.2375Q287.97186 30.471874 285.26874 30.471874Q283.1281 30.471874 282.34686 32.284374L282.34686 41.55L280.175 41.55L280.175 28.8625L282.2375 28.8625ZM303.2375 28.8625L303.28436 30.26875Q304.6906 28.628124 307.05 28.628124Q309.70624 28.628124 310.675 30.675Q311.3 29.753124 312.3156 29.190624Q313.33124 28.628124 314.72186 28.628124Q318.89374 28.628124 318.95624 33.05L318.95624 41.55L316.78436 41.55L316.78436 33.175Q316.78436 31.815624 316.15936 31.14375Q315.55 30.471874 314.08124 30.471874Q312.8781 30.471874 312.08124 31.190624Q311.28436 31.909374 311.15936 33.128124L311.15936 41.55L308.97186 41.55L308.97186 33.2375Q308.97186 30.471874 306.26874 30.471874Q304.1281 30.471874 303.34686 32.284374L303.34686 41.55L301.175 41.55L301.175 28.8625L303.2375 28.8625ZM327.45624 41.784374Q324.8781 41.784374 323.2531 40.096874Q321.64374 38.39375 321.64374 35.565624L321.64374 35.159374Q321.64374 33.26875 322.3625 31.8Q323.08124 30.315624 324.3781 29.471874Q325.675 28.628124 327.1906 28.628124Q329.65936 28.628124 331.01874 30.26875Q332.39374 31.89375 332.39374 34.925L332.39374 35.83125L323.8156 35.83125Q323.8625 37.70625 324.90936 38.8625Q325.95624 40.01875 327.5656 40.01875Q328.72186 40.01875 329.51874 39.55Q330.3156 39.08125 330.90936 38.3L332.2375 39.33125Q330.64374 41.784374 327.45624 41.784374ZM327.1906 30.409374Q325.8781 30.409374 324.9875 31.378124Q324.09686 32.33125 323.8781 34.05L330.2375 34.05L330.2375 33.878124Q330.14374 32.2375 329.34686 31.33125Q328.55 30.409374 327.1906 30.409374ZM337.2375 28.8625L337.3156 30.45625Q338.76874 28.628124 341.1125 28.628124Q345.1281 28.628124 345.15936 33.175L345.15936 41.55L343.0031 41.55L343.0031 33.159374Q342.9875 31.784374 342.3625 31.128124Q341.7531 30.471874 340.45624 30.471874Q339.39374 30.471874 338.59686 31.034374Q337.8 31.596874 337.3625 32.51875L337.3625 41.55L335.1906 41.55L335.1906 28.8625L337.2375 28.8625ZM351.1281 25.8L351.1281 28.8625L353.5031 28.8625L353.5031 30.55L351.1281 30.55L351.1281 38.409374Q351.1281 39.175 351.4406 39.55Q351.76874 39.925 352.53436 39.925Q352.90936 39.925 353.5656 39.784374L353.5656 41.55Q352.70624 41.784374 351.89374 41.784374Q350.4406 41.784374 349.70624 40.909374Q348.97186 40.01875 348.97186 38.409374L348.97186 30.55L346.65936 30.55L346.65936 28.8625L348.97186 28.8625L348.97186 25.8L351.1281 25.8ZM363.58124 38.190624Q363.58124 37.3 362.90936 36.815624Q362.2531 36.33125 360.59686 35.9875Q358.95624 35.628124 357.9875 35.14375Q357.01874 34.64375 356.55 33.971874Q356.09686 33.284374 356.09686 32.346874Q356.09686 30.784374 357.40936 29.70625Q358.7375 28.628124 360.78436 28.628124Q362.9406 28.628124 364.28436 29.753124Q365.6281 30.8625 365.6281 32.596874L363.4406 32.596874Q363.4406 31.70625 362.6906 31.065624Q361.9406 30.409374 360.78436 30.409374Q359.59686 30.409374 358.925 30.925Q358.26874 31.440624 358.26874 32.284374Q358.26874 33.065624 358.8781 33.471874Q359.5031 33.8625 361.1281 34.221874Q362.7531 34.58125 363.7531 35.096874Q364.76874 35.596874 365.2531 36.315624Q365.7375 37.01875 365.7375 38.034374Q365.7375 39.7375 364.3781 40.76875Q363.01874 41.784374 360.8625 41.784374Q359.33124 41.784374 358.15936 41.253124Q356.9875 40.70625 356.3156 39.7375Q355.65936 38.76875 355.65936 37.64375L357.83124 37.64375Q357.89374 38.7375 358.70624 39.378124Q359.51874 40.01875 360.8625 40.01875Q362.08124 40.01875 362.83124 39.51875Q363.58124 39.01875 363.58124 38.190624ZM375.2531 41.55L375.2531 30.55L373.2531 30.55L373.2531 28.8625L375.2531 28.8625L375.2531 27.565624Q375.2531 25.534374 376.34686 24.425Q377.4406 23.3 379.425 23.3Q380.175 23.3 380.925 23.503124L380.8 25.253124Q380.2531 25.159374 379.6281 25.159374Q378.58124 25.159374 378.0031 25.76875Q377.425 26.378124 377.425 27.534374L377.425 28.8625L380.1281 28.8625L380.1281 30.55L377.425 30.55L377.425 41.55L375.2531 41.55ZM381.6125 35.096874Q381.6125 33.221874 382.34686 31.7375Q383.08124 30.253124 384.3781 29.440624Q385.6906 28.628124 387.3781 28.628124Q389.95624 28.628124 391.55 30.425Q393.15936 32.221874 393.15936 35.190624L393.15936 35.346874Q393.15936 37.20625 392.4406 38.675Q391.7375 40.14375 390.425 40.971874Q389.1125 41.784374 387.39374 41.784374Q384.8156 41.784374 383.20624 39.9875Q381.6125 38.190624 381.6125 35.2375L381.6125 35.096874ZM383.8 35.346874Q383.8 37.45625 384.76874 38.7375Q385.7531 40.01875 387.39374 40.01875Q389.05 40.01875 390.01874 38.721874Q390.9875 37.425 390.9875 35.096874Q390.9875 33.003124 390.0031 31.70625Q389.01874 30.409374 387.3781 30.409374Q385.76874 30.409374 384.78436 31.690624Q383.8 32.971874 383.8 35.346874ZM402.3156 30.815624Q401.83124 30.7375 401.2531 30.7375Q399.1281 30.7375 398.3625 32.55L398.3625 41.55L396.1906 41.55L396.1906 28.8625L398.3 28.8625L398.33124 30.33125Q399.40936 28.628124 401.3625 28.628124Q401.9875 28.628124 402.3156 28.8L402.3156 30.815624ZM418.01874 41.55Q417.83124 41.175 417.72186 40.20625Q416.20624 41.784374 414.1125 41.784374Q412.2375 41.784374 411.03436 40.721874Q409.83124 39.659374 409.83124 38.034374Q409.83124 36.05 411.33124 34.95625Q412.84686 33.8625 415.5656 33.8625L417.675 33.8625L417.675 32.8625Q417.675 31.721874 416.9875 31.05Q416.3156 30.378124 415.0031 30.378124Q413.83124 30.378124 413.05 30.971874Q412.26874 31.55 412.26874 32.378124L410.08124 32.378124Q410.08124 31.440624 410.7531 30.55Q411.4406 29.659374 412.58124 29.14375Q413.7375 28.628124 415.1281 28.628124Q417.3156 28.628124 418.55 29.7375Q419.8 30.83125 419.84686 32.753124L419.84686 38.58125Q419.84686 40.33125 420.3 41.3625L420.3 41.55L418.01874 41.55ZM414.425 39.89375Q415.4406 39.89375 416.34686 39.378124Q417.26874 38.846874 417.675 38.003124L417.675 35.39375L415.9875 35.39375Q412.0031 35.39375 412.0031 37.721874Q412.0031 38.753124 412.675 39.33125Q413.3625 39.89375 414.425 39.89375ZM425.55 41.55L423.3781 41.55L423.3781 23.55L425.55 23.55L425.55 41.55ZM431.55 41.55L429.3781 41.55L429.3781 23.55L431.55 23.55L431.55 41.55ZM440.65936 35.096874Q440.65936 32.190624 442.03436 30.409374Q443.425 28.628124 445.675 28.628124Q447.89374 28.628124 449.1906 30.159374L449.1906 23.55L451.3625 23.55L451.3625 41.55L449.3781 41.55L449.26874 40.190624Q447.97186 41.784374 445.64374 41.784374Q443.4406 41.784374 442.05 39.9875Q440.65936 38.175 440.65936 35.26875L440.65936 35.096874ZM442.83124 35.346874Q442.83124 37.503124 443.72186 38.721874Q444.6125 39.940624 446.1906 39.940624Q448.2531 39.940624 449.1906 38.096874L449.1906 32.26875Q448.22186 30.471874 446.20624 30.471874Q444.6125 30.471874 443.72186 31.70625Q442.83124 32.940624 442.83124 35.346874ZM463.01874 41.55Q462.83124 41.175 462.72186 40.20625Q461.20624 41.784374 459.1125 41.784374Q457.2375 41.784374 456.03436 40.721874Q454.83124 39.659374 454.83124 38.034374Q454.83124 36.05 456.33124 34.95625Q457.84686 33.8625 460.5656 33.8625L462.675 33.8625L462.675 32.8625Q462.675 31.721874 461.9875 31.05Q461.3156 30.378124 460.0031 30.378124Q458.83124 30.378124 458.05 30.971874Q457.26874 31.55 457.26874 32.378124L455.08124 32.378124Q455.08124 31.440624 455.7531 30.55Q456.4406 29.659374 457.58124 29.14375Q458.7375 28.628124 460.1281 28.628124Q462.3156 28.628124 463.55 29.7375Q464.8 30.83125 464.84686 32.753124L464.84686 38.58125Q464.84686 40.33125 465.3 41.3625L465.3 41.55L463.01874 41.55ZM459.425 39.89375Q460.4406 39.89375 461.34686 39.378124Q462.26874 38.846874 462.675 38.003124L462.675 35.39375L460.9875 35.39375Q457.0031 35.39375 457.0031 37.721874Q457.0031 38.753124 457.675 39.33125Q458.3625 39.89375 459.425 39.89375ZM471.1281 25.8L471.1281 28.8625L473.5031 28.8625L473.5031 30.55L471.1281 30.55L471.1281 38.409374Q471.1281 39.175 471.4406 39.55Q471.76874 39.925 472.53436 39.925Q472.90936 39.925 473.5656 39.784374L473.5656 41.55Q472.70624 41.784374 471.89374 41.784374Q470.4406 41.784374 469.70624 40.909374Q468.97186 40.01875 468.97186 38.409374L468.97186 30.55L466.65936 30.55L466.65936 28.8625L468.97186 28.8625L468.97186 25.8L471.1281 25.8ZM484.01874 41.55Q483.83124 41.175 483.72186 40.20625Q482.20624 41.784374 480.1125 41.784374Q478.2375 41.784374 477.03436 40.721874Q475.83124 39.659374 475.83124 38.034374Q475.83124 36.05 477.33124 34.95625Q478.84686 33.8625 481.5656 33.8625L483.675 33.8625L483.675 32.8625Q483.675 31.721874 482.9875 31.05Q482.3156 30.378124 481.0031 30.378124Q479.83124 30.378124 479.05 30.971874Q478.26874 31.55 478.26874 32.378124L476.08124 32.378124Q476.08124 31.440624 476.7531 30.55Q477.4406 29.659374 478.58124 29.14375Q479.7375 28.628124 481.1281 28.628124Q483.3156 28.628124 484.55 29.7375Q485.8 30.83125 485.84686 32.753124L485.84686 38.58125Q485.84686 40.33125 486.3 41.3625L486.3 41.55L484.01874 41.55ZM480.425 39.89375Q481.4406 39.89375 482.34686 39.378124Q483.26874 38.846874 483.675 38.003124L483.675 35.39375L481.9875 35.39375Q478.0031 35.39375 478.0031 37.721874Q478.0031 38.753124 478.675 39.33125Q479.3625 39.89375 480.425 39.89375ZM496.58124 38.190624Q496.58124 37.3 495.90936 36.815624Q495.2531 36.33125 493.59686 35.9875Q491.95624 35.628124 490.9875 35.14375Q490.01874 34.64375 489.55 33.971874Q489.09686 33.284374 489.09686 32.346874Q489.09686 30.784374 490.40936 29.70625Q491.7375 28.628124 493.78436 28.628124Q495.9406 28.628124 497.28436 29.753124Q498.6281 30.8625 498.6281 32.596874L496.4406 32.596874Q496.4406 31.70625 495.6906 31.065624Q494.9406 30.409374 493.78436 30.409374Q492.59686 30.409374 491.925 30.925Q491.26874 31.440624 491.26874 32.284374Q491.26874 33.065624 491.8781 33.471874Q492.5031 33.8625 494.1281 34.221874Q495.7531 34.58125 496.7531 35.096874Q497.76874 35.596874 498.2531 36.315624Q498.7375 37.01875 498.7375 38.034374Q498.7375 39.7375 497.3781 40.76875Q496.01874 41.784374 493.8625 41.784374Q492.33124 41.784374 491.15936 41.253124Q489.9875 40.70625 489.3156 39.7375Q488.65936 38.76875 488.65936 37.64375L490.83124 37.64375Q490.89374 38.7375 491.70624 39.378124Q492.51874 40.01875 493.8625 40.01875Q495.08124 40.01875 495.83124 39.51875Q496.58124 39.01875 496.58124 38.190624ZM506.45624 41.784374Q503.8781 41.784374 502.2531 40.096874Q500.64374 38.39375 500.64374 35.565624L500.64374 35.159374Q500.64374 33.26875 501.3625 31.8Q502.08124 30.315624 503.3781 29.471874Q504.675 28.628124 506.1906 28.628124Q508.65936 28.628124 510.01874 30.26875Q511.39374 31.89375 511.39374 34.925L511.39374 35.83125L502.8156 35.83125Q502.8625 37.70625 503.90936 38.8625Q504.95624 40.01875 506.5656 40.01875Q507.72186 40.01875 508.51874 39.55Q509.3156 39.08125 509.90936 38.3L511.2375 39.33125Q509.64374 41.784374 506.45624 41.784374ZM506.1906 30.409374Q504.8781 30.409374 503.9875 31.378124Q503.09686 32.33125 502.8781 34.05L509.2375 34.05L509.2375 33.878124Q509.14374 32.2375 508.34686 31.33125Q507.55 30.409374 506.1906 30.409374ZM517.1281 25.8L517.1281 28.8625L519.5031 28.8625L519.5031 30.55L517.1281 30.55L517.1281 38.409374Q517.1281 39.175 517.4406 39.55Q517.76874 39.925 518.53436 39.925Q518.90936 39.925 519.5656 39.784374L519.5656 41.55Q518.70624 41.784374 517.89374 41.784374Q516.4406 41.784374 515.70624 40.909374Q514.97186 40.01875 514.97186 38.409374L514.97186 30.55L512.65936 30.55L512.65936 28.8625L514.97186 28.8625L514.97186 25.8L517.1281 25.8ZM529.58124 38.190624Q529.58124 37.3 528.90936 36.815624Q528.2531 36.33125 526.59686 35.9875Q524.95624 35.628124 523.9875 35.14375Q523.01874 34.64375 522.55 33.971874Q522.09686 33.284374 522.09686 32.346874Q522.09686 30.784374 523.40936 29.70625Q524.7375 28.628124 526.78436 28.628124Q528.9406 28.628124 530.28436 29.753124Q531.6281 30.8625 531.6281 32.596874L529.4406 32.596874Q529.4406 31.70625 528.6906 31.065624Q527.9406 30.409374 526.78436 30.409374Q525.59686 30.409374 524.925 30.925Q524.26874 31.440624 524.26874 32.284374Q524.26874 33.065624 524.8781 33.471874Q525.5031 33.8625 527.1281 34.221874Q528.7531 34.58125 529.7531 35.096874Q530.76874 35.596874 531.2531 36.315624Q531.7375 37.01875 531.7375 38.034374Q531.7375 39.7375 530.3781 40.76875Q529.01874 41.784374 526.8625 41.784374Q525.33124 41.784374 524.15936 41.253124Q522.9875 40.70625 522.3156 39.7375Q521.65936 38.76875 521.65936 37.64375L523.83124 37.64375Q523.89374 38.7375 524.70624 39.378124Q525.51874 40.01875 526.8625 40.01875Q528.08124 40.01875 528.83124 39.51875Q529.58124 39.01875 529.58124 38.190624Z" fill-rule="nonzero"/></svg>