<svg version="1.1" viewBox="0.0 0.0 732.0 429.0" fill="none" stroke="none" stroke-linecap="square" stroke-miterlimit="10" width="732" height="429" xmlns:xlink="http://www.w3.org/1999/xlink" xmlns="http://www.w3.org/2000/svg"><path fill="#ffffff" d="M0 0L732.0 0L732.0 429.0L0 429.0L0 0Z" fill-rule="nonzero"/><path stroke="#333333" stroke-width="1.0" stroke-linecap="butt" d="M128.5 21.5L128.5 353.5" fill-rule="nonzero"/><path stroke="#cccccc" stroke-width="1.0" stroke-linecap="butt" d="M273.5 21.5L273.5 353.5" fill-rule="nonzero"/><path stroke="#cccccc" stroke-width="1.0" stroke-linecap="butt" d="M419.5 21.5L419.5 353.5" fill-rule="nonzero"/><path stroke="#cccccc" stroke-width="1.0" stroke-linecap="butt" d="M565.5 21.5L565.5 353.5" fill-rule="nonzero"/><path stroke="#cccccc" stroke-width="1.0" stroke-linecap="butt" d="M710.5 21.5L710.5 353.5" fill-rule="nonzero"/><clipPath id="id_0"><path d="M128.45 21.45L710.55 21.45L710.55 353.55L128.45 353.55L128.45 21.45Z" clip-rule="nonzero"/></clipPath><path stroke="#000000" stroke-width="0.0" stroke-linecap="butt" stroke-opacity="0.0" clip-path="url(#id_0)" d="M128.0 40.0L128.0 28.0L550.0 28.0C551.10455 28.0 552.0 28.89543 552.0 30.0L552.0 38.0C552.0 39.10457 551.10455 40.0 550.0 40.0Z" fill-rule="nonzero"/><path fill="#4285f4" clip-path="url(#id_0)" d="M128.0 40.0L128.0 28.0L550.0 28.0C551.10455 28.0 552.0 28.89543 552.0 30.0L552.0 38.0C552.0 39.10457 551.10455 40.0 550.0 40.0Z" fill-rule="nonzero"/><path stroke="#000000" stroke-width="0.0" stroke-linecap="butt" stroke-opacity="0.0" clip-path="url(#id_0)" d="M128.0 58.0L128.0 46.0L497.0 46.0C498.10458 46.0 499.0 46.89543 499.0 48.0L499.0 56.0C499.0 57.10457 498.10458 58.0 497.0 58.0Z" fill-rule="nonzero"/><path fill="#4285f4" clip-path="url(#id_0)" d="M128.0 58.0L128.0 46.0L497.0 46.0C498.10458 46.0 499.0 46.89543 499.0 48.0L499.0 56.0C499.0 57.10457 498.10458 58.0 497.0 58.0Z" fill-rule="nonzero"/><path stroke="#000000" stroke-width="0.0" stroke-linecap="butt" stroke-opacity="0.0" clip-path="url(#id_0)" d="M128.0 76.0L128.0 64.0L497.0 64.0C498.10458 64.0 499.0 64.89543 499.0 66.0L499.0 74.0C499.0 75.10457 498.10458 76.0 497.0 76.0Z" fill-rule="nonzero"/><path fill="#4285f4" clip-path="url(#id_0)" d="M128.0 76.0L128.0 64.0L497.0 64.0C498.10458 64.0 499.0 64.89543 499.0 66.0L499.0 74.0C499.0 75.10457 498.10458 76.0 497.0 76.0Z" fill-rule="nonzero"/><path stroke="#000000" stroke-width="0.0" stroke-linecap="butt" stroke-opacity="0.0" clip-path="url(#id_0)" d="M128.0 94.0L128.0 82.0L444.0 82.0C445.10458 82.0 446.0 82.89543 446.0 84.0L446.0 92.0C446.0 93.10457 445.10458 94.0 444.0 94.0Z" fill-rule="nonzero"/><path fill="#4285f4" clip-path="url(#id_0)" d="M128.0 94.0L128.0 82.0L444.0 82.0C445.10458 82.0 446.0 82.89543 446.0 84.0L446.0 92.0C446.0 93.10457 445.10458 94.0 444.0 94.0Z" fill-rule="nonzero"/><path stroke="#000000" stroke-width="0.0" stroke-linecap="butt" stroke-opacity="0.0" clip-path="url(#id_0)" d="M128.0 112.0L128.0 100.0L444.0 100.0C445.10458 100.0 446.0 100.89543 446.0 102.0L446.0 110.0C446.0 111.10457 445.10458 112.0 444.0 112.0Z" fill-rule="nonzero"/><path fill="#4285f4" clip-path="url(#id_0)" d="M128.0 112.0L128.0 100.0L444.0 100.0C445.10458 100.0 446.0 100.89543 446.0 102.0L446.0 110.0C446.0 111.10457 445.10458 112.0 444.0 112.0Z" fill-rule="nonzero"/><path stroke="#000000" stroke-width="0.0" stroke-linecap="butt" stroke-opacity="0.0" clip-path="url(#id_0)" d="M128.0 130.0L128.0 118.0L444.0 118.0C445.10458 118.0 446.0 118.89543 446.0 120.0L446.0 128.0C446.0 129.10457 445.10458 130.0 444.0 130.0Z" fill-rule="nonzero"/><path fill="#4285f4" clip-path="url(#id_0)" d="M128.0 130.0L128.0 118.0L444.0 118.0C445.10458 118.0 446.0 118.89543 446.0 120.0L446.0 128.0C446.0 129.10457 445.10458 130.0 444.0 130.0Z" fill-rule="nonzero"/><path stroke="#000000" stroke-width="0.0" stroke-linecap="butt" stroke-opacity="0.0" clip-path="url(#id_0)" d="M128.0 148.0L128.0 136.0L444.0 136.0C445.10458 136.0 446.0 136.89543 446.0 138.0L446.0 146.0C446.0 147.10457 445.10458 148.0 444.0 148.0Z" fill-rule="nonzero"/><path fill="#4285f4" clip-path="url(#id_0)" d="M128.0 148.0L128.0 136.0L444.0 136.0C445.10458 136.0 446.0 136.89543 446.0 138.0L446.0 146.0C446.0 147.10457 445.10458 148.0 444.0 148.0Z" fill-rule="nonzero"/><path stroke="#000000" stroke-width="0.0" stroke-linecap="butt" stroke-opacity="0.0" clip-path="url(#id_0)" d="M128.0 166.0L128.0 154.0L391.0 154.0C392.10458 154.0 393.0 154.89543 393.0 156.0L393.0 164.0C393.0 165.10457 392.10458 166.0 391.0 166.0Z" fill-rule="nonzero"/><path fill="#4285f4" clip-path="url(#id_0)" d="M128.0 166.0L128.0 154.0L391.0 154.0C392.10458 154.0 393.0 154.89543 393.0 156.0L393.0 164.0C393.0 165.10457 392.10458 166.0 391.0 166.0Z" fill-rule="nonzero"/><path stroke="#000000" stroke-width="0.0" stroke-linecap="butt" stroke-opacity="0.0" clip-path="url(#id_0)" d="M128.0 184.0L128.0 172.0L391.0 172.0C392.10458 172.0 393.0 172.89543 393.0 174.0L393.0 182.0C393.0 183.10457 392.10458 184.0 391.0 184.0Z" fill-rule="nonzero"/><path fill="#4285f4" clip-path="url(#id_0)" d="M128.0 184.0L128.0 172.0L391.0 172.0C392.10458 172.0 393.0 172.89543 393.0 174.0L393.0 182.0C393.0 183.10457 392.10458 184.0 391.0 184.0Z" fill-rule="nonzero"/><path stroke="#000000" stroke-width="0.0" stroke-linecap="butt" stroke-opacity="0.0" clip-path="url(#id_0)" d="M128.0 203.0L128.0 191.0L391.0 191.0C392.10458 191.0 393.0 191.89543 393.0 193.0L393.0 201.0C393.0 202.10457 392.10458 203.0 391.0 203.0Z" fill-rule="nonzero"/><path fill="#4285f4" clip-path="url(#id_0)" d="M128.0 203.0L128.0 191.0L391.0 191.0C392.10458 191.0 393.0 191.89543 393.0 193.0L393.0 201.0C393.0 202.10457 392.10458 203.0 391.0 203.0Z" fill-rule="nonzero"/><path stroke="#000000" stroke-width="0.0" stroke-linecap="butt" stroke-opacity="0.0" clip-path="url(#id_0)" d="M128.0 221.0L128.0 209.0L338.0 209.0C339.10458 209.0 340.0 209.89543 340.0 211.0L340.0 219.0C340.0 220.10457 339.10458 221.0 338.0 221.0Z" fill-rule="nonzero"/><path fill="#4285f4" clip-path="url(#id_0)" d="M128.0 221.0L128.0 209.0L338.0 209.0C339.10458 209.0 340.0 209.89543 340.0 211.0L340.0 219.0C340.0 220.10457 339.10458 221.0 338.0 221.0Z" fill-rule="nonzero"/><path stroke="#000000" stroke-width="0.0" stroke-linecap="butt" stroke-opacity="0.0" clip-path="url(#id_0)" d="M128.0 239.0L128.0 227.0L338.0 227.0C339.10458 227.0 340.0 227.89543 340.0 229.0L340.0 237.0C340.0 238.10457 339.10458 239.0 338.0 239.0Z" fill-rule="nonzero"/><path fill="#4285f4" clip-path="url(#id_0)" d="M128.0 239.0L128.0 227.0L338.0 227.0C339.10458 227.0 340.0 227.89543 340.0 229.0L340.0 237.0C340.0 238.10457 339.10458 239.0 338.0 239.0Z" fill-rule="nonzero"/><path stroke="#000000" stroke-width="0.0" stroke-linecap="butt" stroke-opacity="0.0" clip-path="url(#id_0)" d="M128.0 257.0L128.0 245.0L285.0 245.0C286.10458 245.0 287.0 245.89543 287.0 247.0L287.0 255.0C287.0 256.10458 286.10458 257.0 285.0 257.0Z" fill-rule="nonzero"/><path fill="#4285f4" clip-path="url(#id_0)" d="M128.0 257.0L128.0 245.0L285.0 245.0C286.10458 245.0 287.0 245.89543 287.0 247.0L287.0 255.0C287.0 256.10458 286.10458 257.0 285.0 257.0Z" fill-rule="nonzero"/><path stroke="#000000" stroke-width="0.0" stroke-linecap="butt" stroke-opacity="0.0" clip-path="url(#id_0)" d="M128.0 275.0L128.0 263.0L232.0 263.0C233.10457 263.0 234.0 263.89542 234.0 265.0L234.0 273.0C234.0 274.10458 233.10457 275.0 232.0 275.0Z" fill-rule="nonzero"/><path fill="#4285f4" clip-path="url(#id_0)" d="M128.0 275.0L128.0 263.0L232.0 263.0C233.10457 263.0 234.0 263.89542 234.0 265.0L234.0 273.0C234.0 274.10458 233.10457 275.0 232.0 275.0Z" fill-rule="nonzero"/><path stroke="#000000" stroke-width="0.0" stroke-linecap="butt" stroke-opacity="0.0" clip-path="url(#id_0)" d="M128.0 293.0L128.0 281.0L232.0 281.0C233.10457 281.0 234.0 281.89542 234.0 283.0L234.0 291.0C234.0 292.10458 233.10457 293.0 232.0 293.0Z" fill-rule="nonzero"/><path fill="#4285f4" clip-path="url(#id_0)" d="M128.0 293.0L128.0 281.0L232.0 281.0C233.10457 281.0 234.0 281.89542 234.0 283.0L234.0 291.0C234.0 292.10458 233.10457 293.0 232.0 293.0Z" fill-rule="nonzero"/><path stroke="#000000" stroke-width="0.0" stroke-linecap="butt" stroke-opacity="0.0" clip-path="url(#id_0)" d="M128.0 311.0L128.0 299.0L232.0 299.0C233.10457 299.0 234.0 299.89542 234.0 301.0L234.0 309.0C234.0 310.10458 233.10457 311.0 232.0 311.0Z" fill-rule="nonzero"/><path fill="#4285f4" clip-path="url(#id_0)" d="M128.0 311.0L128.0 299.0L232.0 299.0C233.10457 299.0 234.0 299.89542 234.0 301.0L234.0 309.0C234.0 310.10458 233.10457 311.0 232.0 311.0Z" fill-rule="nonzero"/><path stroke="#000000" stroke-width="0.0" stroke-linecap="butt" stroke-opacity="0.0" clip-path="url(#id_0)" d="M128.0 329.0L128.0 317.0L232.0 317.0C233.10457 317.0 234.0 317.89542 234.0 319.0L234.0 327.0C234.0 328.10458 233.10457 329.0 232.0 329.0Z" fill-rule="nonzero"/><path fill="#4285f4" clip-path="url(#id_0)" d="M128.0 329.0L128.0 317.0L232.0 317.0C233.10457 317.0 234.0 317.89542 234.0 319.0L234.0 327.0C234.0 328.10458 233.10457 329.0 232.0 329.0Z" fill-rule="nonzero"/><path stroke="#000000" stroke-width="0.0" stroke-linecap="butt" stroke-opacity="0.0" clip-path="url(#id_0)" d="M128.0 347.0L128.0 335.0L128.0 335.0L128.0 347.0Z" fill-rule="nonzero"/><path fill="#4285f4" clip-path="url(#id_0)" d="M128.0 347.0L128.0 335.0L128.0 335.0L128.0 347.0Z" fill-rule="nonzero"/><path fill="#424242" d="M365.79688 403.425Q365.35938 404.05 364.57812 404.3625Q363.79688 404.675 362.76562 404.675Q361.73438 404.675 360.92188 404.1906Q360.10938 403.6906 359.67188 402.78436Q359.23438 401.8781 359.21875 400.6906L359.21875 399.95624Q359.21875 398.01874 360.10938 396.95624Q361.01562 395.89374 362.64062 395.89374Q363.98438 395.89374 364.79688 396.58124Q365.60938 397.26874 365.79688 398.51874L364.67188 398.51874Q364.34375 396.83124 362.65625 396.83124Q361.51562 396.83124 360.9375 397.6281Q360.35938 398.40936 360.34375 399.925L360.34375 400.6125Q360.34375 402.05 361.0 402.90936Q361.65625 403.7531 362.78125 403.7531Q363.40625 403.7531 363.875 403.6125Q364.35938 403.47186 364.67188 403.1281L364.67188 401.22186L362.70312 401.22186L362.70312 400.3L365.79688 400.3L365.79688 403.425ZM370.39062 399.175Q370.14062 399.14374 369.85938 399.14374Q368.78125 399.14374 368.40625 400.05L368.40625 404.55L367.32812 404.55L367.32812 398.20624L368.375 398.20624L368.39062 398.9406Q368.92188 398.09686 369.90625 398.09686Q370.21875 398.09686 370.39062 398.175L370.39062 399.175ZM371.03125 401.3156Q371.03125 400.39374 371.39062 399.64374Q371.76562 398.89374 372.42188 398.5031Q373.07812 398.09686 373.90625 398.09686Q375.20312 398.09686 376.0 398.9875Q376.8125 399.8781 376.8125 401.3781L376.8125 401.45624Q376.8125 402.3781 376.45312 403.1125Q376.09375 403.84686 375.4375 404.26874Q374.78125 404.675 373.92188 404.675Q372.64062 404.675 371.82812 403.78436Q371.03125 402.8781 371.03125 401.39374L371.03125 401.3156ZM372.125 401.45624Q372.125 402.5031 372.60938 403.14374Q373.10938 403.78436 373.92188 403.78436Q374.75 403.78436 375.23438 403.14374Q375.71875 402.4875 375.71875 401.3156Q375.71875 400.28436 375.21875 399.64374Q374.73438 398.9875 373.90625 398.9875Q373.10938 398.9875 372.60938 399.6281Q372.125 400.2531 372.125 401.45624ZM382.23438 403.925Q381.60938 404.675 380.375 404.675Q379.35938 404.675 378.82812 404.08124Q378.29688 403.4875 378.29688 402.33124L378.29688 398.20624L379.375 398.20624L379.375 402.3Q379.375 403.7531 380.54688 403.7531Q381.79688 403.7531 382.20312 402.8156L382.20312 398.20624L383.29688 398.20624L383.29688 404.55L382.26562 404.55L382.23438 403.925ZM386.34375 398.20624L386.375 399.0031Q387.10938 398.09686 388.28125 398.09686Q390.29688 398.09686 390.3125 400.3625L390.3125 404.55L389.21875 404.55L389.21875 400.34686Q389.21875 399.675 388.90625 399.34686Q388.60938 399.01874 387.95312 399.01874Q387.42188 399.01874 387.01562 399.3Q386.625 399.58124 386.40625 400.03436L386.40625 404.55L385.32812 404.55L385.32812 398.20624L386.34375 398.20624ZM392.0625 401.33124Q392.0625 399.8625 392.75 398.9875Q393.4375 398.09686 394.5625 398.09686Q395.67188 398.09686 396.32812 398.84686L396.32812 395.55L397.40625 395.55L397.40625 404.55L396.40625 404.55L396.35938 403.8625Q395.70312 404.675 394.54688 404.675Q393.45312 404.675 392.75 403.76874Q392.0625 402.8625 392.0625 401.40936L392.0625 401.33124ZM393.14062 401.45624Q393.14062 402.53436 393.57812 403.14374Q394.03125 403.7531 394.8125 403.7531Q395.84375 403.7531 396.32812 402.8156L396.32812 399.90936Q395.84375 399.01874 394.82812 399.01874Q394.03125 399.01874 393.57812 399.6281Q393.14062 400.2375 393.14062 401.45624ZM401.57812 401.3625L398.71875 401.3625L398.71875 400.4875L401.57812 400.4875L401.57812 401.3625ZM403.79688 396.675L403.79688 398.20624L404.96875 398.20624L404.96875 399.05L403.79688 399.05L403.79688 402.97186Q403.79688 403.3625 403.95312 403.55Q404.10938 403.7375 404.48438 403.7375Q404.67188 403.7375 405.0 403.675L405.0 404.55Q404.57812 404.675 404.17188 404.675Q403.45312 404.675 403.07812 404.2375Q402.70312 403.78436 402.70312 402.97186L402.70312 399.05L401.54688 399.05L401.54688 398.20624L402.70312 398.20624L402.70312 396.675L403.79688 396.675ZM409.39062 399.175Q409.14062 399.14374 408.85938 399.14374Q407.78125 399.14374 407.40625 400.05L407.40625 404.55L406.32812 404.55L406.32812 398.20624L407.375 398.20624L407.39062 398.9406Q407.92188 398.09686 408.90625 398.09686Q409.21875 398.09686 409.39062 398.175L409.39062 399.175ZM414.23438 403.925Q413.60938 404.675 412.375 404.675Q411.35938 404.675 410.82812 404.08124Q410.29688 403.4875 410.29688 402.33124L410.29688 398.20624L411.375 398.20624L411.375 402.3Q411.375 403.7531 412.54688 403.7531Q413.79688 403.7531 414.20312 402.8156L414.20312 398.20624L415.29688 398.20624L415.29688 404.55L414.26562 404.55L414.23438 403.925ZM418.79688 396.675L418.79688 398.20624L419.96875 398.20624L419.96875 399.05L418.79688 399.05L418.79688 402.97186Q418.79688 403.3625 418.95312 403.55Q419.10938 403.7375 419.48438 403.7375Q419.67188 403.7375 420.0 403.675L420.0 404.55Q419.57812 404.675 419.17188 404.675Q418.45312 404.675 418.07812 404.2375Q417.70312 403.78436 417.70312 402.97186L417.70312 399.05L416.54688 399.05L416.54688 398.20624L417.70312 398.20624L417.70312 396.675L418.79688 396.675ZM422.40625 398.97186Q423.125 398.09686 424.28125 398.09686Q426.29688 398.09686 426.3125 400.3625L426.3125 404.55L425.21875 404.55L425.21875 400.34686Q425.21875 399.675 424.90625 399.34686Q424.60938 399.01874 423.95312 399.01874Q423.42188 399.01874 423.01562 399.3Q422.625 399.58124 422.40625 400.03436L422.40625 404.55L421.32812 404.55L421.32812 395.55L422.40625 395.55L422.40625 398.97186ZM436.20312 402.3156L432.625 402.3156L431.82812 404.55L430.67188 404.55L433.92188 396.01874L434.90625 396.01874L438.17188 404.55L437.01562 404.55L436.20312 402.3156ZM432.96875 401.39374L435.875 401.39374L434.42188 397.40936L432.96875 401.39374ZM441.85938 403.78436Q442.4375 403.78436 442.875 403.4406Q443.3125 403.08124 443.35938 402.55L444.39062 402.55Q444.35938 403.09686 444.0 403.59686Q443.65625 404.08124 443.07812 404.3781Q442.51562 404.675 441.85938 404.675Q440.5625 404.675 439.79688 403.8156Q439.04688 402.9406 439.04688 401.4406L439.04688 401.2531Q439.04688 400.33124 439.375 399.6125Q439.71875 398.89374 440.34375 398.5031Q440.98438 398.09686 441.85938 398.09686Q442.92188 398.09686 443.625 398.7375Q444.34375 399.3625 444.39062 400.39374L443.35938 400.39374Q443.3125 399.76874 442.89062 399.3781Q442.46875 398.9875 441.85938 398.9875Q441.03125 398.9875 440.57812 399.58124Q440.125 400.175 440.125 401.3L440.125 401.5031Q440.125 402.59686 440.57812 403.1906Q441.03125 403.78436 441.85938 403.78436ZM447.85938 403.78436Q448.4375 403.78436 448.875 403.4406Q449.3125 403.08124 449.35938 402.55L450.39062 402.55Q450.35938 403.09686 450.0 403.59686Q449.65625 404.08124 449.07812 404.3781Q448.51562 404.675 447.85938 404.675Q446.5625 404.675 445.79688 403.8156Q445.04688 402.9406 445.04688 401.4406L445.04688 401.2531Q445.04688 400.33124 445.375 399.6125Q445.71875 398.89374 446.34375 398.5031Q446.98438 398.09686 447.85938 398.09686Q448.92188 398.09686 449.625 398.7375Q450.34375 399.3625 450.39062 400.39374L449.35938 400.39374Q449.3125 399.76874 448.89062 399.3781Q448.46875 398.9875 447.85938 398.9875Q447.03125 398.9875 446.57812 399.58124Q446.125 400.175 446.125 401.3L446.125 401.5031Q446.125 402.59686 446.57812 403.1906Q447.03125 403.78436 447.85938 403.78436ZM455.23438 403.925Q454.60938 404.675 453.375 404.675Q452.35938 404.675 451.82812 404.08124Q451.29688 403.4875 451.29688 402.33124L451.29688 398.20624L452.375 398.20624L452.375 402.3Q452.375 403.7531 453.54688 403.7531Q454.79688 403.7531 455.20312 402.8156L455.20312 398.20624L456.29688 398.20624L456.29688 404.55L455.26562 404.55L455.23438 403.925ZM461.39062 399.175Q461.14062 399.14374 460.85938 399.14374Q459.78125 399.14374 459.40625 400.05L459.40625 404.55L458.32812 404.55L458.32812 398.20624L459.375 398.20624L459.39062 398.9406Q459.92188 398.09686 460.90625 398.09686Q461.21875 398.09686 461.39062 398.175L461.39062 399.175ZM466.23438 404.55Q466.14062 404.3625 466.07812 403.8781Q465.32812 404.675 464.28125 404.675Q463.34375 404.675 462.73438 404.14374Q462.14062 403.6125 462.14062 402.78436Q462.14062 401.8 462.89062 401.2531Q463.64062 400.70624 465.01562 400.70624L466.0625 400.70624L466.0625 400.20624Q466.0625 399.64374 465.71875 399.3156Q465.39062 398.97186 464.71875 398.97186Q464.14062 398.97186 463.75 399.26874Q463.35938 399.55 463.35938 399.97186L462.26562 399.97186Q462.26562 399.4875 462.59375 399.05Q462.9375 398.6125 463.51562 398.3625Q464.09375 398.09686 464.78125 398.09686Q465.89062 398.09686 466.5 398.64374Q467.125 399.1906 467.15625 400.14374L467.15625 403.0656Q467.15625 403.9406 467.375 404.45624L467.375 404.55L466.23438 404.55ZM464.4375 403.72186Q464.95312 403.72186 465.40625 403.45624Q465.85938 403.1906 466.0625 402.76874L466.0625 401.47186L465.21875 401.47186Q463.21875 401.47186 463.21875 402.64374Q463.21875 403.14374 463.5625 403.4406Q463.90625 403.72186 464.4375 403.72186ZM471.85938 403.78436Q472.4375 403.78436 472.875 403.4406Q473.3125 403.08124 473.35938 402.55L474.39062 402.55Q474.35938 403.09686 474.0 403.59686Q473.65625 404.08124 473.07812 404.3781Q472.51562 404.675 471.85938 404.675Q470.5625 404.675 469.79688 403.8156Q469.04688 402.9406 469.04688 401.4406L469.04688 401.2531Q469.04688 400.33124 469.375 399.6125Q469.71875 398.89374 470.34375 398.5031Q470.98438 398.09686 471.85938 398.09686Q472.92188 398.09686 473.625 398.7375Q474.34375 399.3625 474.39062 400.39374L473.35938 400.39374Q473.3125 399.76874 472.89062 399.3781Q472.46875 398.9875 471.85938 398.9875Q471.03125 398.9875 470.57812 399.58124Q470.125 400.175 470.125 401.3L470.125 401.5031Q470.125 402.59686 470.57812 403.1906Q471.03125 403.78436 471.85938 403.78436ZM477.39062 402.95624L478.875 398.20624L480.03125 398.20624L477.48438 405.53436Q476.89062 407.1125 475.60938 407.1125L475.39062 407.09686L475.0 407.01874L475.0 406.14374L475.28125 406.15936Q475.84375 406.15936 476.14062 405.9406Q476.45312 405.72186 476.65625 405.1281L476.89062 404.47186L474.625 398.20624L475.8125 398.20624L477.39062 402.95624Z" fill-rule="nonzero"/><path fill="#757575" d="M88.95 34.36934Q87.5125 33.947464 86.84062 33.33809Q86.18437 32.728714 86.18437 31.838089Q86.18437 30.838089 86.98125 30.181839Q87.79375 29.509964 89.09062 29.509964Q89.96562 29.509964 90.65312 29.853714Q91.34062 30.197464 91.71562 30.791214Q92.10625 31.384964 92.10625 32.103714L90.96562 32.103714Q90.96562 31.322464 90.46562 30.884964Q89.98125 30.447464 89.09062 30.447464Q88.2625 30.447464 87.79375 30.822464Q87.325 31.181839 87.325 31.822464Q87.325 32.353714 87.7625 32.71309Q88.21562 33.072464 89.27812 33.36934Q90.34062 33.666214 90.93437 34.02559Q91.54375 34.384964 91.825 34.86934Q92.12187 35.353714 92.12187 35.99434Q92.12187 37.041214 91.30937 37.666214Q90.49687 38.291214 89.15312 38.291214Q88.2625 38.291214 87.49687 37.947464Q86.74687 37.603714 86.325 37.02559Q85.91875 36.43184 85.91875 35.697464L87.04375 35.697464Q87.04375 36.46309 87.62187 36.916214Q88.2 37.36934 89.15312 37.36934Q90.04375 37.36934 90.5125 37.009964Q90.98125 36.634964 90.98125 36.009964Q90.98125 35.384964 90.54375 35.041214Q90.10625 34.697464 88.95 34.36934ZM99.99687 34.18184Q99.99687 35.43184 99.575 36.36934Q99.15312 37.291214 98.37187 37.791214Q97.60625 38.291214 96.575 38.291214Q95.575 38.291214 94.79375 37.791214Q94.0125 37.291214 93.575 36.384964Q93.15312 35.46309 93.1375 34.24434L93.1375 33.634964Q93.1375 32.40059 93.55937 31.463089Q93.99687 30.525589 94.77812 30.025589Q95.55937 29.509964 96.575 29.509964Q97.59062 29.509964 98.37187 30.009964Q99.15312 30.509964 99.575 31.447464Q99.99687 32.384964 99.99687 33.634964L99.99687 34.18184ZM98.8875 33.61934Q98.8875 32.103714 98.27812 31.291214Q97.66875 30.478714 96.575 30.478714Q95.49687 30.478714 94.8875 31.291214Q94.27812 32.103714 94.2625 33.541214L94.2625 34.18184Q94.2625 35.65059 94.87187 36.49434Q95.49687 37.322464 96.575 37.322464Q97.66875 37.322464 98.2625 36.541214Q98.87187 35.74434 98.8875 34.259964L98.8875 33.61934ZM107.71562 35.46309Q107.55937 36.80684 106.71562 37.55684Q105.87187 38.291214 104.48125 38.291214Q102.96562 38.291214 102.05937 37.21309Q101.15312 36.11934 101.15312 34.291214L101.15312 33.478714Q101.15312 32.291214 101.575 31.384964Q101.99687 30.478714 102.77812 29.994339Q103.55937 29.509964 104.575 29.509964Q105.93437 29.509964 106.74687 30.275589Q107.575 31.041214 107.71562 32.36934L106.59062 32.36934Q106.43437 31.353714 105.95 30.900589Q105.46562 30.447464 104.575 30.447464Q103.49687 30.447464 102.8875 31.244339Q102.27812 32.041214 102.27812 33.509964L102.27812 34.33809Q102.27812 35.728714 102.85625 36.55684Q103.43437 37.36934 104.48125 37.36934Q105.41875 37.36934 105.91875 36.947464Q106.41875 36.509964 106.59062 35.46309L107.71562 35.46309ZM114.15312 35.93184L110.575 35.93184L109.77812 38.166214L108.62187 38.166214L111.87187 29.634964L112.85625 29.634964L116.12187 38.166214L114.96562 38.166214L114.15312 35.93184ZM110.91875 35.009964L113.825 35.009964L112.37187 31.025589L110.91875 35.009964ZM118.575 37.24434L122.62187 37.24434L122.62187 38.166214L117.43437 38.166214L117.43437 29.634964L118.575 29.634964L118.575 37.24434Z" fill-rule="nonzero"/><path fill="#757575" d="M38.95 52.46743Q37.5125 52.045555 36.840626 51.43618Q36.184376 50.826805 36.184376 49.93618Q36.184376 48.93618 36.98125 48.27993Q37.79375 47.608055 39.090626 47.608055Q39.965626 47.608055 40.653126 47.951805Q41.340626 48.295555 41.715626 48.889305Q42.10625 49.483055 42.10625 50.201805L40.965626 50.201805Q40.965626 49.420555 40.465626 48.983055Q39.98125 48.545555 39.090626 48.545555Q38.2625 48.545555 37.79375 48.920555Q37.325 49.27993 37.325 49.920555Q37.325 50.451805 37.7625 50.81118Q38.215626 51.170555 39.278126 51.46743Q40.340626 51.764305 40.934376 52.12368Q41.54375 52.483055 41.825 52.96743Q42.121876 53.451805 42.121876 54.09243Q42.121876 55.139305 41.309376 55.764305Q40.496876 56.389305 39.153126 56.389305Q38.2625 56.389305 37.496876 56.045555Q36.746876 55.701805 36.325 55.12368Q35.91875 54.52993 35.91875 53.795555L37.04375 53.795555Q37.04375 54.56118 37.621876 55.014305Q38.2 55.46743 39.153126 55.46743Q40.04375 55.46743 40.5125 55.108055Q40.98125 54.733055 40.98125 54.108055Q40.98125 53.483055 40.54375 53.139305Q40.10625 52.795555 38.95 52.46743ZM48.2625 52.326805L44.559376 52.326805L44.559376 55.34243L48.85625 55.34243L48.85625 56.264305L43.434376 56.264305L43.434376 47.733055L48.809376 47.733055L48.809376 48.65493L44.559376 48.65493L44.559376 51.40493L48.2625 51.40493L48.2625 52.326805ZM56.996876 56.264305L55.871876 56.264305L51.575 49.68618L51.575 56.264305L50.434376 56.264305L50.434376 47.733055L51.575 47.733055L55.871876 54.34243L55.871876 47.733055L56.996876 47.733055L56.996876 56.264305ZM65.34062 48.65493L62.590626 48.65493L62.590626 56.264305L61.48125 56.264305L61.48125 48.65493L58.73125 48.65493L58.73125 47.733055L65.34062 47.733055L65.34062 48.65493ZM67.65312 56.264305L66.52812 56.264305L66.52812 47.733055L67.65312 47.733055L67.65312 56.264305ZM70.8875 47.733055L73.68437 54.68618L76.46562 47.733055L77.93437 47.733055L77.93437 56.264305L76.80937 56.264305L76.80937 52.93618L76.91875 49.358055L74.10625 56.264305L73.24687 56.264305L70.45 49.37368L70.55937 52.93618L70.55937 56.264305L69.43437 56.264305L69.43437 47.733055L70.8875 47.733055ZM84.2625 52.326805L80.55937 52.326805L80.55937 55.34243L84.85625 55.34243L84.85625 56.264305L79.43437 56.264305L79.43437 47.733055L84.80937 47.733055L84.80937 48.65493L80.55937 48.65493L80.55937 51.40493L84.2625 51.40493L84.2625 52.326805ZM92.99687 56.264305L91.87187 56.264305L87.575 49.68618L87.575 56.264305L86.43437 56.264305L86.43437 47.733055L87.575 47.733055L91.87187 54.34243L91.87187 47.733055L92.99687 47.733055L92.99687 56.264305ZM101.34062 48.65493L98.59062 48.65493L98.59062 56.264305L97.48125 56.264305L97.48125 48.65493L94.73125 48.65493L94.73125 47.733055L101.34062 47.733055L101.34062 48.65493ZM105.71562 56.264305L104.6375 56.264305L104.6375 49.045555L102.45 49.84243L102.45 48.858055L105.55937 47.68618L105.71562 47.68618L105.71562 56.264305ZM113.73125 53.40493L114.91875 53.40493L114.91875 54.27993L113.73125 54.27993L113.73125 56.264305L112.65312 56.264305L112.65312 54.27993L108.7625 54.27993L108.7625 53.639305L112.575 47.733055L113.73125 47.733055L113.73125 53.40493ZM109.99687 53.40493L112.65312 53.40493L112.65312 49.21743L112.5125 49.451805L109.99687 53.40493ZM121.5125 52.62368Q121.5125 54.52993 120.85625 55.46743Q120.21562 56.389305 118.825 56.389305Q117.46562 56.389305 116.80937 55.483055Q116.15312 54.576805 116.12187 52.764305L116.12187 51.326805Q116.12187 49.43618 116.7625 48.52993Q117.41875 47.608055 118.80937 47.608055Q120.18437 47.608055 120.84062 48.49868Q121.49687 49.37368 121.5125 51.21743L121.5125 52.62368ZM120.41875 51.139305Q120.41875 49.764305 120.02812 49.139305Q119.65312 48.49868 118.80937 48.49868Q117.98125 48.49868 117.59062 49.139305Q117.21562 49.764305 117.21562 51.06118L117.21562 52.795555Q117.21562 54.170555 117.60625 54.84243Q118.0125 55.49868 118.825 55.49868Q119.62187 55.49868 120.0125 54.87368Q120.40312 54.24868 120.41875 52.920555L120.41875 51.139305Z" fill-rule="nonzero"/><path fill="#757575" d="M64.95 70.56552Q63.5125 70.14365 62.840626 69.53427Q62.184376 68.9249 62.184376 68.03427Q62.184376 67.03427 62.98125 66.37802Q63.79375 65.70615 65.09062 65.70615Q65.96562 65.70615 66.65312 66.0499Q67.34062 66.39365 67.71562 66.9874Q68.10625 67.58115 68.10625 68.2999L66.96562 68.2999Q66.96562 67.51865 66.46562 67.08115Q65.98125 66.64365 65.09062 66.64365Q64.2625 66.64365 63.79375 67.01865Q63.325 67.37802 63.325 68.01865Q63.325 68.5499 63.7625 68.90927Q64.21562 69.26865 65.27812 69.56552Q66.34062 69.8624 66.93437 70.22177Q67.54375 70.58115 67.825 71.06552Q68.12187 71.5499 68.12187 72.19052Q68.12187 73.2374 67.30937 73.8624Q66.49687 74.4874 65.15312 74.4874Q64.2625 74.4874 63.496876 74.14365Q62.746876 73.7999 62.325 73.22177Q61.91875 72.62802 61.91875 71.89365L63.04375 71.89365Q63.04375 72.65927 63.621876 73.1124Q64.2 73.56552 65.15312 73.56552Q66.04375 73.56552 66.5125 73.20615Q66.98125 72.83115 66.98125 72.20615Q66.98125 71.58115 66.54375 71.2374Q66.10625 70.89365 64.95 70.56552ZM75.34062 66.75302L72.59062 66.75302L72.59062 74.3624L71.48125 74.3624L71.48125 66.75302L68.73125 66.75302L68.73125 65.83115L75.34062 65.83115L75.34062 66.75302ZM81.15312 72.12802L77.575 72.12802L76.77812 74.3624L75.62187 74.3624L78.87187 65.83115L79.85625 65.83115L83.12187 74.3624L81.96562 74.3624L81.15312 72.12802ZM77.91875 71.20615L80.825 71.20615L79.37187 67.22177L77.91875 71.20615ZM90.99687 74.3624L89.87187 74.3624L85.575 67.78427L85.575 74.3624L84.43437 74.3624L84.43437 65.83115L85.575 65.83115L89.87187 72.44052L89.87187 65.83115L90.99687 65.83115L90.99687 74.3624ZM98.15312 70.59677L94.55937 70.59677L94.55937 74.3624L93.43437 74.3624L93.43437 65.83115L98.73125 65.83115L98.73125 66.75302L94.55937 66.75302L94.55937 69.6749L98.15312 69.6749L98.15312 70.59677ZM106.99687 70.37802Q106.99687 71.62802 106.575 72.56552Q106.15312 73.4874 105.37187 73.9874Q104.60625 74.4874 103.575 74.4874Q102.575 74.4874 101.79375 73.9874Q101.0125 73.4874 100.575 72.58115Q100.15312 71.65927 100.1375 70.44052L100.1375 69.83115Q100.1375 68.59677 100.55937 67.65927Q100.99687 66.72177 101.77812 66.22177Q102.55937 65.70615 103.575 65.70615Q104.59062 65.70615 105.37187 66.20615Q106.15312 66.70615 106.575 67.64365Q106.99687 68.58115 106.99687 69.83115L106.99687 70.37802ZM105.8875 69.81552Q105.8875 68.2999 105.27812 67.4874Q104.66875 66.6749 103.575 66.6749Q102.49687 66.6749 101.8875 67.4874Q101.27812 68.2999 101.2625 69.7374L101.2625 70.37802Q101.2625 71.84677 101.87187 72.69052Q102.49687 73.51865 103.575 73.51865Q104.66875 73.51865 105.2625 72.7374Q105.87187 71.94052 105.8875 70.45615L105.8875 69.81552ZM111.575 70.90927L109.55937 70.90927L109.55937 74.3624L108.43437 74.3624L108.43437 65.83115L111.2625 65.83115Q112.7 65.83115 113.46562 66.4874Q114.24687 67.14365 114.24687 68.39365Q114.24687 69.19052 113.80937 69.78427Q113.3875 70.37802 112.62187 70.6749L114.62187 74.28427L114.62187 74.3624L113.41875 74.3624L111.575 70.90927ZM109.55937 69.9874L111.29375 69.9874Q112.1375 69.9874 112.62187 69.56552Q113.12187 69.12802 113.12187 68.39365Q113.12187 67.6124 112.65312 67.19052Q112.18437 66.76865 111.29375 66.75302L109.55937 66.75302L109.55937 69.9874ZM115.43437 74.3624L115.43437 65.83115L117.85625 65.83115Q118.96562 65.83115 119.80937 66.33115Q120.66875 66.81552 121.1375 67.72177Q121.60625 68.62802 121.60625 69.81552L121.60625 70.34677Q121.60625 71.56552 121.1375 72.47177Q120.68437 73.37802 119.80937 73.8624Q118.95 74.34677 117.80937 74.3624L115.43437 74.3624ZM116.55937 66.75302L116.55937 73.44052L117.74687 73.44052Q119.04375 73.44052 119.7625 72.64365Q120.49687 71.83115 120.49687 70.33115L120.49687 69.83115Q120.49687 68.37802 119.80937 67.58115Q119.1375 66.76865 117.87187 66.75302L116.55937 66.75302Z" fill-rule="nonzero"/><path fill="#757575" d="M32.996876 88.47611Q32.996876 89.72611 32.575 90.66361Q32.153126 91.58549 31.371876 92.08549Q30.60625 92.58549 29.575 92.58549Q28.575 92.58549 27.79375 92.08549Q27.0125 91.58549 26.575 90.67924Q26.153126 89.75736 26.1375 88.53861L26.1375 87.92924Q26.1375 86.69486 26.559376 85.75736Q26.996876 84.81986 27.778126 84.31986Q28.559376 83.80424 29.575 83.80424Q30.590626 83.80424 31.371876 84.30424Q32.153126 84.80424 32.575 85.74174Q32.996876 86.67924 32.996876 87.92924L32.996876 88.47611ZM31.8875 87.91361Q31.8875 86.39799 31.278126 85.58549Q30.66875 84.77299 29.575 84.77299Q28.496876 84.77299 27.8875 85.58549Q27.278126 86.39799 27.2625 87.83549L27.2625 88.47611Q27.2625 89.94486 27.871876 90.78861Q28.496876 91.61674 29.575 91.61674Q30.66875 91.61674 31.2625 90.83549Q31.871876 90.03861 31.8875 88.55424L31.8875 87.91361ZM35.559376 89.11674L35.559376 92.46049L34.434376 92.46049L34.434376 83.92924L37.590626 83.92924Q38.98125 83.92924 39.778126 84.64799Q40.575 85.35111 40.575 86.53861Q40.575 87.77299 39.79375 88.44486Q39.028126 89.11674 37.575 89.11674L35.559376 89.11674ZM35.559376 88.19486L37.590626 88.19486Q38.496876 88.19486 38.965626 87.77299Q39.45 87.35111 39.45 86.55424Q39.45 85.78861 38.965626 85.33549Q38.496876 84.86674 37.653126 84.85111L35.559376 84.85111L35.559376 88.19486ZM43.653126 92.46049L42.528126 92.46049L42.528126 83.92924L43.653126 83.92924L43.653126 92.46049ZM51.996876 92.46049L50.871876 92.46049L46.575 85.88236L46.575 92.46049L45.434376 92.46049L45.434376 83.92924L46.575 83.92924L50.871876 90.53861L50.871876 83.92924L51.996876 83.92924L51.996876 92.46049ZM55.653126 92.46049L54.528126 92.46049L54.528126 83.92924L55.653126 83.92924L55.653126 92.46049ZM63.996876 88.47611Q63.996876 89.72611 63.575 90.66361Q63.153126 91.58549 62.371876 92.08549Q61.60625 92.58549 60.575 92.58549Q59.575 92.58549 58.79375 92.08549Q58.0125 91.58549 57.575 90.67924Q57.153126 89.75736 57.1375 88.53861L57.1375 87.92924Q57.1375 86.69486 57.559376 85.75736Q57.996876 84.81986 58.778126 84.31986Q59.559376 83.80424 60.575 83.80424Q61.590626 83.80424 62.371876 84.30424Q63.153126 84.80424 63.575 85.74174Q63.996876 86.67924 63.996876 87.92924L63.996876 88.47611ZM62.8875 87.91361Q62.8875 86.39799 62.278126 85.58549Q61.66875 84.77299 60.575 84.77299Q59.496876 84.77299 58.8875 85.58549Q58.278126 86.39799 58.2625 87.83549L58.2625 88.47611Q58.2625 89.94486 58.871876 90.78861Q59.496876 91.61674 60.575 91.61674Q61.66875 91.61674 62.2625 90.83549Q62.871876 90.03861 62.8875 88.55424L62.8875 87.91361ZM71.99687 92.46049L70.87187 92.46049L66.575 85.88236L66.575 92.46049L65.43437 92.46049L65.43437 83.92924L66.575 83.92924L70.87187 90.53861L70.87187 83.92924L71.99687 83.92924L71.99687 92.46049ZM75.575 91.53861L79.62187 91.53861L79.62187 92.46049L74.43437 92.46049L74.43437 83.92924L75.575 83.92924L75.575 91.53861ZM85.2625 88.52299L81.55937 88.52299L81.55937 91.53861L85.85625 91.53861L85.85625 92.46049L80.43437 92.46049L80.43437 83.92924L85.80937 83.92924L85.80937 84.85111L81.55937 84.85111L81.55937 87.60111L85.2625 87.60111L85.2625 88.52299ZM90.23125 87.19486L92.2625 83.92924L93.59062 83.92924L90.90312 88.16361L93.65312 92.46049L92.325 92.46049L90.23125 89.13236L88.12187 92.46049L86.77812 92.46049L89.54375 88.16361L86.85625 83.92924L88.16875 83.92924L90.23125 87.19486ZM96.65312 92.46049L95.52812 92.46049L95.52812 83.92924L96.65312 83.92924L96.65312 92.46049ZM104.71562 89.75736Q104.55937 91.10111 103.71562 91.85111Q102.87187 92.58549 101.48125 92.58549Q99.96562 92.58549 99.05937 91.50736Q98.15312 90.41361 98.15312 88.58549L98.15312 87.77299Q98.15312 86.58549 98.575 85.67924Q98.99687 84.77299 99.77812 84.28861Q100.55937 83.80424 101.575 83.80424Q102.93437 83.80424 103.74687 84.56986Q104.575 85.33549 104.71562 86.66361L103.59062 86.66361Q103.43437 85.64799 102.95 85.19486Q102.46562 84.74174 101.575 84.74174Q100.49687 84.74174 99.8875 85.53861Q99.27812 86.33549 99.27812 87.80424L99.27812 88.63236Q99.27812 90.02299 99.85625 90.85111Q100.43437 91.66361 101.48125 91.66361Q102.41875 91.66361 102.91875 91.24174Q103.41875 90.80424 103.59062 89.75736L104.71562 89.75736ZM112.99687 88.47611Q112.99687 89.72611 112.575 90.66361Q112.15312 91.58549 111.37187 92.08549Q110.60625 92.58549 109.575 92.58549Q108.575 92.58549 107.79375 92.08549Q107.0125 91.58549 106.575 90.67924Q106.15312 89.75736 106.1375 88.53861L106.1375 87.92924Q106.1375 86.69486 106.55937 85.75736Q106.99687 84.81986 107.77812 84.31986Q108.55937 83.80424 109.575 83.80424Q110.59062 83.80424 111.37187 84.30424Q112.15312 84.80424 112.575 85.74174Q112.99687 86.67924 112.99687 87.92924L112.99687 88.47611ZM111.8875 87.91361Q111.8875 86.39799 111.27812 85.58549Q110.66875 84.77299 109.575 84.77299Q108.49687 84.77299 107.8875 85.58549Q107.27812 86.39799 107.2625 87.83549L107.2625 88.47611Q107.2625 89.94486 107.87187 90.78861Q108.49687 91.61674 109.575 91.61674Q110.66875 91.61674 111.2625 90.83549Q111.87187 90.03861 111.8875 88.55424L111.8875 87.91361ZM120.99687 92.46049L119.87187 92.46049L115.575 85.88236L115.575 92.46049L114.43437 92.46049L114.43437 83.92924L115.575 83.92924L119.87187 90.53861L119.87187 83.92924L120.99687 83.92924L120.99687 92.46049Z" fill-rule="nonzero"/><path fill="#757575" d="M92.15312 108.32421L88.575 108.32421L87.77812 110.558586L86.62187 110.558586L89.87187 102.027336L90.85625 102.027336L94.12187 110.558586L92.96562 110.558586L92.15312 108.32421ZM88.91875 107.402336L91.825 107.402336L90.37187 103.41796L88.91875 107.402336ZM100.15312 106.79296L96.55937 106.79296L96.55937 110.558586L95.43437 110.558586L95.43437 102.027336L100.73125 102.027336L100.73125 102.94921L96.55937 102.94921L96.55937 105.871086L100.15312 105.871086L100.15312 106.79296ZM103.65312 110.558586L102.52812 110.558586L102.52812 102.027336L103.65312 102.027336L103.65312 110.558586ZM111.99687 110.558586L110.87187 110.558586L106.575 103.98046L106.575 110.558586L105.43437 110.558586L105.43437 102.027336L106.575 102.027336L110.87187 108.63671L110.87187 102.027336L111.99687 102.027336L111.99687 110.558586ZM120.99687 110.558586L119.87187 110.558586L115.575 103.98046L115.575 110.558586L114.43437 110.558586L114.43437 102.027336L115.575 102.027336L119.87187 108.63671L119.87187 102.027336L120.99687 102.027336L120.99687 110.558586Z" fill-rule="nonzero"/><path fill="#757575" d="M49.996876 128.65668L48.871876 128.65668L44.575 122.07855L44.575 128.65668L43.434376 128.65668L43.434376 120.12543L44.575 120.12543L48.871876 126.7348L48.871876 120.12543L49.996876 120.12543L49.996876 128.65668ZM55.575 125.20355L53.559376 125.20355L53.559376 128.65668L52.434376 128.65668L52.434376 120.12543L55.2625 120.12543Q56.7 120.12543 57.465626 120.78168Q58.246876 121.43793 58.246876 122.68793Q58.246876 123.4848 57.809376 124.07855Q57.3875 124.6723 56.621876 124.96918L58.621876 128.57855L58.621876 128.65668L57.41875 128.65668L55.575 125.20355ZM53.559376 124.28168L55.29375 124.28168Q56.1375 124.28168 56.621876 123.8598Q57.121876 123.4223 57.121876 122.68793Q57.121876 121.90668 56.653126 121.4848Q56.184376 121.06293 55.29375 121.0473L53.559376 121.0473L53.559376 124.28168ZM65.71562 125.95355Q65.55937 127.2973 64.71562 128.0473Q63.871876 128.78168 62.48125 128.78168Q60.965626 128.78168 60.059376 127.70355Q59.153126 126.6098 59.153126 124.78168L59.153126 123.96918Q59.153126 122.78168 59.575 121.87543Q59.996876 120.96918 60.778126 120.4848Q61.559376 120.00043 62.575 120.00043Q63.934376 120.00043 64.74687 120.76605Q65.575 121.53168 65.71562 122.8598L64.59062 122.8598Q64.43437 121.84418 63.95 121.39105Q63.465626 120.93793 62.575 120.93793Q61.496876 120.93793 60.8875 121.7348Q60.278126 122.53168 60.278126 124.00043L60.278126 124.82855Q60.278126 126.21918 60.85625 127.0473Q61.434376 127.8598 62.48125 127.8598Q63.41875 127.8598 63.91875 127.43793Q64.41875 127.00043 64.59062 125.95355L65.71562 125.95355ZM73.99687 128.65668L72.87187 128.65668L72.87187 124.71918L68.55937 124.71918L68.55937 128.65668L67.43437 128.65668L67.43437 120.12543L68.55937 120.12543L68.55937 123.7973L72.87187 123.7973L72.87187 120.12543L73.99687 120.12543L73.99687 128.65668ZM81.15312 126.4223L77.575 126.4223L76.77812 128.65668L75.62187 128.65668L78.87187 120.12543L79.85625 120.12543L83.12187 128.65668L81.96562 128.65668L81.15312 126.4223ZM77.91875 125.50043L80.825 125.50043L79.37187 121.51605L77.91875 125.50043ZM86.95 124.8598Q85.5125 124.43793 84.84062 123.82855Q84.18437 123.21918 84.18437 122.32855Q84.18437 121.32855 84.98125 120.6723Q85.79375 120.00043 87.09062 120.00043Q87.96562 120.00043 88.65312 120.34418Q89.34062 120.68793 89.71562 121.28168Q90.10625 121.87543 90.10625 122.59418L88.96562 122.59418Q88.96562 121.81293 88.46562 121.37543Q87.98125 120.93793 87.09062 120.93793Q86.2625 120.93793 85.79375 121.31293Q85.325 121.6723 85.325 122.31293Q85.325 122.84418 85.7625 123.20355Q86.21562 123.56293 87.27812 123.8598Q88.34062 124.15668 88.93437 124.51605Q89.54375 124.87543 89.825 125.3598Q90.12187 125.84418 90.12187 126.4848Q90.12187 127.53168 89.30937 128.15668Q88.49687 128.78168 87.15312 128.78168Q86.2625 128.78168 85.49687 128.43793Q84.74687 128.09418 84.325 127.51605Q83.91875 126.9223 83.91875 126.18793L85.04375 126.18793Q85.04375 126.95355 85.62187 127.40668Q86.2 127.8598 87.15312 127.8598Q88.04375 127.8598 88.5125 127.50043Q88.98125 127.12543 88.98125 126.50043Q88.98125 125.87543 88.54375 125.53168Q88.10625 125.18793 86.95 124.8598ZM97.99687 128.65668L96.87187 128.65668L96.87187 124.71918L92.55937 124.71918L92.55937 128.65668L91.43437 128.65668L91.43437 120.12543L92.55937 120.12543L92.55937 123.7973L96.87187 123.7973L96.87187 120.12543L97.99687 120.12543L97.99687 128.65668ZM106.34062 121.0473L103.59062 121.0473L103.59062 128.65668L102.48125 128.65668L102.48125 121.0473L99.73125 121.0473L99.73125 120.12543L106.34062 120.12543L106.34062 121.0473ZM112.15312 126.4223L108.575 126.4223L107.77812 128.65668L106.62187 128.65668L109.87187 120.12543L110.85625 120.12543L114.12187 128.65668L112.96562 128.65668L112.15312 126.4223ZM108.91875 125.50043L111.825 125.50043L110.37187 121.51605L108.91875 125.50043ZM121.74687 127.53168Q121.30937 128.15668 120.52812 128.46918Q119.74687 128.78168 118.71562 128.78168Q117.68437 128.78168 116.87187 128.2973Q116.05937 127.7973 115.62187 126.89105Q115.18437 125.9848 115.16875 124.7973L115.16875 124.06293Q115.16875 122.12543 116.05937 121.06293Q116.96562 120.00043 118.59062 120.00043Q119.93437 120.00043 120.74687 120.68793Q121.55937 121.37543 121.74687 122.62543L120.62187 122.62543Q120.29375 120.93793 118.60625 120.93793Q117.46562 120.93793 116.8875 121.7348Q116.30937 122.51605 116.29375 124.03168L116.29375 124.71918Q116.29375 126.15668 116.95 127.01605Q117.60625 127.8598 118.73125 127.8598Q119.35625 127.8598 119.825 127.71918Q120.30937 127.57855 120.62187 127.2348L120.62187 125.32855L118.65312 125.32855L118.65312 124.40668L121.74687 124.40668L121.74687 127.53168Z" fill-rule="nonzero"/><path fill="#757575" d="M88.2625 145.25478L90.7 138.22353L91.93437 138.22353L88.7625 146.75478L87.77812 146.75478L84.62187 138.22353L85.84062 138.22353L88.2625 145.25478ZM98.15312 144.5204L94.575 144.5204L93.77812 146.75478L92.62187 146.75478L95.87187 138.22353L96.85625 138.22353L100.12187 146.75478L98.96562 146.75478L98.15312 144.5204ZM94.91875 143.59853L97.825 143.59853L96.37187 139.61415L94.91875 143.59853ZM101.43437 146.75478L101.43437 138.22353L103.85625 138.22353Q104.96562 138.22353 105.80937 138.72353Q106.66875 139.2079 107.1375 140.11415Q107.60625 141.0204 107.60625 142.2079L107.60625 142.73915Q107.60625 143.9579 107.1375 144.86415Q106.68437 145.7704 105.80937 146.25478Q104.95 146.73915 103.80937 146.75478L101.43437 146.75478ZM102.55937 139.1454L102.55937 145.8329L103.74687 145.8329Q105.04375 145.8329 105.7625 145.03603Q106.49687 144.22353 106.49687 142.72353L106.49687 142.22353Q106.49687 140.7704 105.80937 139.97353Q105.1375 139.16103 103.87187 139.1454L102.55937 139.1454ZM114.2625 142.81728L110.55937 142.81728L110.55937 145.8329L114.85625 145.8329L114.85625 146.75478L109.43437 146.75478L109.43437 138.22353L114.80937 138.22353L114.80937 139.1454L110.55937 139.1454L110.55937 141.8954L114.2625 141.8954L114.2625 142.81728ZM119.575 143.30165L117.55937 143.30165L117.55937 146.75478L116.43437 146.75478L116.43437 138.22353L119.2625 138.22353Q120.7 138.22353 121.46562 138.87978Q122.24687 139.53603 122.24687 140.78603Q122.24687 141.5829 121.80937 142.17665Q121.3875 142.7704 120.62187 143.06728L122.62187 146.67665L122.62187 146.75478L121.41875 146.75478L119.575 143.30165ZM117.55937 142.37978L119.29375 142.37978Q120.1375 142.37978 120.62187 141.9579Q121.12187 141.5204 121.12187 140.78603Q121.12187 140.00478 120.65312 139.5829Q120.18437 139.16103 119.29375 139.1454L117.55937 139.1454L117.55937 142.37978Z" fill-rule="nonzero"/><path fill="#757575" d="M31.95 161.05598Q30.5125 160.63411 29.840626 160.02473Q29.184376 159.41536 29.184376 158.52473Q29.184376 157.52473 29.98125 156.86848Q30.79375 156.19661 32.090626 156.19661Q32.965626 156.19661 33.653126 156.54036Q34.340626 156.88411 34.715626 157.47786Q35.10625 158.07161 35.10625 158.79036L33.965626 158.79036Q33.965626 158.00911 33.465626 157.57161Q32.98125 157.13411 32.090626 157.13411Q31.2625 157.13411 30.79375 157.50911Q30.325 157.86848 30.325 158.50911Q30.325 159.04036 30.7625 159.39973Q31.215626 159.75911 32.278126 160.05598Q33.340626 160.35286 33.934376 160.71223Q34.54375 161.07161 34.825 161.55598Q35.121876 162.04036 35.121876 162.68098Q35.121876 163.72786 34.309376 164.35286Q33.496876 164.97786 32.153126 164.97786Q31.2625 164.97786 30.496876 164.63411Q29.746876 164.29036 29.325 163.71223Q28.91875 163.11848 28.91875 162.38411L30.04375 162.38411Q30.04375 163.14973 30.621876 163.60286Q31.2 164.05598 32.153126 164.05598Q33.04375 164.05598 33.5125 163.69661Q33.98125 163.32161 33.98125 162.69661Q33.98125 162.07161 33.54375 161.72786Q33.10625 161.38411 31.95 161.05598ZM41.2625 160.91536L37.559376 160.91536L37.559376 163.93098L41.85625 163.93098L41.85625 164.85286L36.434376 164.85286L36.434376 156.32161L41.809376 156.32161L41.809376 157.24348L37.559376 157.24348L37.559376 159.99348L41.2625 159.99348L41.2625 160.91536ZM49.996876 164.85286L48.871876 164.85286L44.575 158.27473L44.575 164.85286L43.434376 164.85286L43.434376 156.32161L44.575 156.32161L48.871876 162.93098L48.871876 156.32161L49.996876 156.32161L49.996876 164.85286ZM58.340626 157.24348L55.590626 157.24348L55.590626 164.85286L54.48125 164.85286L54.48125 157.24348L51.73125 157.24348L51.73125 156.32161L58.340626 156.32161L58.340626 157.24348ZM60.653126 164.85286L59.528126 164.85286L59.528126 156.32161L60.653126 156.32161L60.653126 164.85286ZM64.95 161.05598Q63.5125 160.63411 62.840626 160.02473Q62.184376 159.41536 62.184376 158.52473Q62.184376 157.52473 62.98125 156.86848Q63.79375 156.19661 65.09062 156.19661Q65.96562 156.19661 66.65312 156.54036Q67.34062 156.88411 67.71562 157.47786Q68.10625 158.07161 68.10625 158.79036L66.96562 158.79036Q66.96562 158.00911 66.46562 157.57161Q65.98125 157.13411 65.09062 157.13411Q64.2625 157.13411 63.79375 157.50911Q63.325 157.86848 63.325 158.50911Q63.325 159.04036 63.7625 159.39973Q64.21562 159.75911 65.27812 160.05598Q66.34062 160.35286 66.93437 160.71223Q67.54375 161.07161 67.825 161.55598Q68.12187 162.04036 68.12187 162.68098Q68.12187 163.72786 67.30937 164.35286Q66.49687 164.97786 65.15312 164.97786Q64.2625 164.97786 63.496876 164.63411Q62.746876 164.29036 62.325 163.71223Q61.91875 163.11848 61.91875 162.38411L63.04375 162.38411Q63.04375 163.14973 63.621876 163.60286Q64.2 164.05598 65.15312 164.05598Q66.04375 164.05598 66.5125 163.69661Q66.98125 163.32161 66.98125 162.69661Q66.98125 162.07161 66.54375 161.72786Q66.10625 161.38411 64.95 161.05598ZM75.34062 157.24348L72.59062 157.24348L72.59062 164.85286L71.48125 164.85286L71.48125 157.24348L68.73125 157.24348L68.73125 156.32161L75.34062 156.32161L75.34062 157.24348ZM79.575 161.39973L77.55937 161.39973L77.55937 164.85286L76.43437 164.85286L76.43437 156.32161L79.2625 156.32161Q80.7 156.32161 81.46562 156.97786Q82.24687 157.63411 82.24687 158.88411Q82.24687 159.68098 81.80937 160.27473Q81.3875 160.86848 80.62187 161.16536L82.62187 164.77473L82.62187 164.85286L81.41875 164.85286L79.575 161.39973ZM77.55937 160.47786L79.29375 160.47786Q80.1375 160.47786 80.62187 160.05598Q81.12187 159.61848 81.12187 158.88411Q81.12187 158.10286 80.65312 157.68098Q80.18437 157.25911 79.29375 157.24348L77.55937 157.24348L77.55937 160.47786ZM88.2625 160.91536L84.55937 160.91536L84.55937 163.93098L88.85625 163.93098L88.85625 164.85286L83.43437 164.85286L83.43437 156.32161L88.80937 156.32161L88.80937 157.24348L84.55937 157.24348L84.55937 159.99348L88.2625 159.99348L88.2625 160.91536ZM96.99687 164.85286L95.87187 164.85286L91.575 158.27473L91.575 164.85286L90.43437 164.85286L90.43437 156.32161L91.575 156.32161L95.87187 162.93098L95.87187 156.32161L96.99687 156.32161L96.99687 164.85286ZM105.74687 163.72786Q105.30937 164.35286 104.52812 164.66536Q103.74687 164.97786 102.71562 164.97786Q101.68437 164.97786 100.87187 164.49348Q100.05937 163.99348 99.62187 163.08723Q99.18437 162.18098 99.16875 160.99348L99.16875 160.25911Q99.16875 158.32161 100.05937 157.25911Q100.96562 156.19661 102.59062 156.19661Q103.93437 156.19661 104.74687 156.88411Q105.55937 157.57161 105.74687 158.82161L104.62187 158.82161Q104.29375 157.13411 102.60625 157.13411Q101.46562 157.13411 100.8875 157.93098Q100.30937 158.71223 100.29375 160.22786L100.29375 160.91536Q100.29375 162.35286 100.95 163.21223Q101.60625 164.05598 102.73125 164.05598Q103.35625 164.05598 103.825 163.91536Q104.30937 163.77473 104.62187 163.43098L104.62187 161.52473L102.65312 161.52473L102.65312 160.60286L105.74687 160.60286L105.74687 163.72786ZM113.34062 157.24348L110.59062 157.24348L110.59062 164.85286L109.48125 164.85286L109.48125 157.24348L106.73125 157.24348L106.73125 156.32161L113.34062 156.32161L113.34062 157.24348ZM120.99687 164.85286L119.87187 164.85286L119.87187 160.91536L115.55937 160.91536L115.55937 164.85286L114.43437 164.85286L114.43437 156.32161L115.55937 156.32161L115.55937 159.99348L119.87187 159.99348L119.87187 156.32161L120.99687 156.32161L120.99687 164.85286Z" fill-rule="nonzero"/><path fill="#757575" d="M61.2625 179.01346L57.559376 179.01346L57.559376 182.02908L61.85625 182.02908L61.85625 182.95096L56.434376 182.95096L56.434376 174.41971L61.809376 174.41971L61.809376 175.34158L57.559376 175.34158L57.559376 178.09158L61.2625 178.09158L61.2625 179.01346ZM64.8875 174.41971L67.68437 181.37283L70.46562 174.41971L71.93437 174.41971L71.93437 182.95096L70.80937 182.95096L70.80937 179.62283L70.91875 176.04471L68.10625 182.95096L67.24687 182.95096L64.45 176.06033L64.55937 179.62283L64.55937 182.95096L63.434376 182.95096L63.434376 174.41971L64.8875 174.41971ZM79.99687 178.96658Q79.99687 180.21658 79.575 181.15408Q79.15312 182.07596 78.37187 182.57596Q77.60625 183.07596 76.575 183.07596Q75.575 183.07596 74.79375 182.57596Q74.0125 182.07596 73.575 181.16971Q73.15312 180.24783 73.1375 179.02908L73.1375 178.41971Q73.1375 177.18533 73.55937 176.24783Q73.99687 175.31033 74.77812 174.81033Q75.55937 174.29471 76.575 174.29471Q77.59062 174.29471 78.37187 174.79471Q79.15312 175.29471 79.575 176.23221Q79.99687 177.16971 79.99687 178.41971L79.99687 178.96658ZM78.8875 178.40408Q78.8875 176.88846 78.27812 176.07596Q77.66875 175.26346 76.575 175.26346Q75.49687 175.26346 74.8875 176.07596Q74.27812 176.88846 74.2625 178.32596L74.2625 178.96658Q74.2625 180.43533 74.87187 181.27908Q75.49687 182.10721 76.575 182.10721Q77.66875 182.10721 78.2625 181.32596Q78.87187 180.52908 78.8875 179.04471L78.8875 178.40408ZM87.34062 175.34158L84.59062 175.34158L84.59062 182.95096L83.48125 182.95096L83.48125 175.34158L80.73125 175.34158L80.73125 174.41971L87.34062 174.41971L87.34062 175.34158ZM89.65312 182.95096L88.52812 182.95096L88.52812 174.41971L89.65312 174.41971L89.65312 182.95096ZM97.71562 180.24783Q97.55937 181.59158 96.71562 182.34158Q95.87187 183.07596 94.48125 183.07596Q92.96562 183.07596 92.05937 181.99783Q91.15312 180.90408 91.15312 179.07596L91.15312 178.26346Q91.15312 177.07596 91.575 176.16971Q91.99687 175.26346 92.77812 174.77908Q93.55937 174.29471 94.575 174.29471Q95.93437 174.29471 96.74687 175.06033Q97.575 175.82596 97.71562 177.15408L96.59062 177.15408Q96.43437 176.13846 95.95 175.68533Q95.46562 175.23221 94.575 175.23221Q93.49687 175.23221 92.8875 176.02908Q92.27812 176.82596 92.27812 178.29471L92.27812 179.12283Q92.27812 180.51346 92.85625 181.34158Q93.43437 182.15408 94.48125 182.15408Q95.41875 182.15408 95.91875 181.73221Q96.41875 181.29471 96.59062 180.24783L97.71562 180.24783ZM105.99687 178.96658Q105.99687 180.21658 105.575 181.15408Q105.15312 182.07596 104.37187 182.57596Q103.60625 183.07596 102.575 183.07596Q101.575 183.07596 100.79375 182.57596Q100.0125 182.07596 99.575 181.16971Q99.15312 180.24783 99.1375 179.02908L99.1375 178.41971Q99.1375 177.18533 99.55937 176.24783Q99.99687 175.31033 100.77812 174.81033Q101.55937 174.29471 102.575 174.29471Q103.59062 174.29471 104.37187 174.79471Q105.15312 175.29471 105.575 176.23221Q105.99687 177.16971 105.99687 178.41971L105.99687 178.96658ZM104.8875 178.40408Q104.8875 176.88846 104.27812 176.07596Q103.66875 175.26346 102.575 175.26346Q101.49687 175.26346 100.8875 176.07596Q100.27812 176.88846 100.2625 178.32596L100.2625 178.96658Q100.2625 180.43533 100.87187 181.27908Q101.49687 182.10721 102.575 182.10721Q103.66875 182.10721 104.2625 181.32596Q104.87187 180.52908 104.8875 179.04471L104.8875 178.40408ZM113.99687 182.95096L112.87187 182.95096L108.575 176.37283L108.575 182.95096L107.43437 182.95096L107.43437 174.41971L108.575 174.41971L112.87187 181.02908L112.87187 174.41971L113.99687 174.41971L113.99687 182.95096ZM118.95 179.15408Q117.5125 178.73221 116.84062 178.12283Q116.18437 177.51346 116.18437 176.62283Q116.18437 175.62283 116.98125 174.96658Q117.79375 174.29471 119.09062 174.29471Q119.96562 174.29471 120.65312 174.63846Q121.34062 174.98221 121.71562 175.57596Q122.10625 176.16971 122.10625 176.88846L120.96562 176.88846Q120.96562 176.10721 120.46562 175.66971Q119.98125 175.23221 119.09062 175.23221Q118.2625 175.23221 117.79375 175.60721Q117.325 175.96658 117.325 176.60721Q117.325 177.13846 117.7625 177.49783Q118.21562 177.85721 119.27812 178.15408Q120.34062 178.45096 120.93437 178.81033Q121.54375 179.16971 121.825 179.65408Q122.12187 180.13846 122.12187 180.77908Q122.12187 181.82596 121.30937 182.45096Q120.49687 183.07596 119.15312 183.07596Q118.2625 183.07596 117.49687 182.73221Q116.74687 182.38846 116.325 181.81033Q115.91875 181.21658 115.91875 180.48221L117.04375 180.48221Q117.04375 181.24783 117.62187 181.70096Q118.2 182.15408 119.15312 182.15408Q120.04375 182.15408 120.5125 181.79471Q120.98125 181.41971 120.98125 180.79471Q120.98125 180.16971 120.54375 179.82596Q120.10625 179.48221 118.95 179.15408Z" fill-rule="nonzero"/><path fill="#757575" d="M77.55937 197.70529L77.55937 201.04904L76.43437 201.04904L76.43437 192.51779L79.59062 192.51779Q80.98125 192.51779 81.77812 193.23654Q82.575 193.93967 82.575 195.12717Q82.575 196.36154 81.79375 197.03342Q81.02812 197.70529 79.575 197.70529L77.55937 197.70529ZM77.55937 196.78342L79.59062 196.78342Q80.49687 196.78342 80.96562 196.36154Q81.45 195.93967 81.45 195.14279Q81.45 194.37717 80.96562 193.92404Q80.49687 193.45529 79.65312 193.43967L77.55937 193.43967L77.55937 196.78342ZM89.15312 198.81467L85.575 198.81467L84.77812 201.04904L83.62187 201.04904L86.87187 192.51779L87.85625 192.51779L91.12187 201.04904L89.96562 201.04904L89.15312 198.81467ZM85.91875 197.89279L88.825 197.89279L87.37187 193.90842L85.91875 197.89279ZM98.99687 201.04904L97.87187 201.04904L93.575 194.47092L93.575 201.04904L92.43437 201.04904L92.43437 192.51779L93.575 192.51779L97.87187 199.12717L97.87187 192.51779L98.99687 192.51779L98.99687 201.04904ZM106.15312 198.81467L102.575 198.81467L101.77812 201.04904L100.62187 201.04904L103.87187 192.51779L104.85625 192.51779L108.12187 201.04904L106.96562 201.04904L106.15312 198.81467ZM102.91875 197.89279L105.825 197.89279L104.37187 193.90842L102.91875 197.89279ZM111.95 197.25217Q110.5125 196.83029 109.84062 196.22092Q109.18437 195.61154 109.18437 194.72092Q109.18437 193.72092 109.98125 193.06467Q110.79375 192.39279 112.09062 192.39279Q112.96562 192.39279 113.65312 192.73654Q114.34062 193.08029 114.71562 193.67404Q115.10625 194.26779 115.10625 194.98654L113.96562 194.98654Q113.96562 194.20529 113.46562 193.76779Q112.98125 193.33029 112.09062 193.33029Q111.2625 193.33029 110.79375 193.70529Q110.325 194.06467 110.325 194.70529Q110.325 195.23654 110.7625 195.59592Q111.21562 195.95529 112.27812 196.25217Q113.34062 196.54904 113.93437 196.90842Q114.54375 197.26779 114.825 197.75217Q115.12187 198.23654 115.12187 198.87717Q115.12187 199.92404 114.30937 200.54904Q113.49687 201.17404 112.15312 201.17404Q111.2625 201.17404 110.49687 200.83029Q109.74687 200.48654 109.325 199.90842Q108.91875 199.31467 108.91875 198.58029L110.04375 198.58029Q110.04375 199.34592 110.62187 199.79904Q111.2 200.25217 112.15312 200.25217Q113.04375 200.25217 113.5125 199.89279Q113.98125 199.51779 113.98125 198.89279Q113.98125 198.26779 113.54375 197.92404Q113.10625 197.58029 111.95 197.25217ZM122.34062 193.43967L119.59062 193.43967L119.59062 201.04904L118.48125 201.04904L118.48125 193.43967L115.73125 193.43967L115.73125 192.51779L122.34062 192.51779L122.34062 193.43967Z" fill-rule="nonzero"/><path fill="#757575" d="M90.8875 210.61589L93.68437 217.56902L96.46562 210.61589L97.93437 210.61589L97.93437 219.14714L96.80937 219.14714L96.80937 215.81902L96.91875 212.24089L94.10625 219.14714L93.24687 219.14714L90.45 212.25652L90.55937 215.81902L90.55937 219.14714L89.43437 219.14714L89.43437 210.61589L90.8875 210.61589ZM100.55937 215.80339L100.55937 219.14714L99.43437 219.14714L99.43437 210.61589L102.59062 210.61589Q103.98125 210.61589 104.77812 211.33464Q105.575 212.03777 105.575 213.22527Q105.575 214.45964 104.79375 215.13152Q104.02812 215.80339 102.575 215.80339L100.55937 215.80339ZM100.55937 214.88152L102.59062 214.88152Q103.49687 214.88152 103.96562 214.45964Q104.45 214.03777 104.45 213.24089Q104.45 212.47527 103.96562 212.02214Q103.49687 211.55339 102.65312 211.53777L100.55937 211.53777L100.55937 214.88152ZM113.95 215.16277Q113.95 216.39714 113.55937 217.28777Q113.16875 218.17839 112.46562 218.67839L113.98125 219.88152L113.21562 220.58464L111.41875 219.16277Q110.99687 219.27214 110.52812 219.27214Q109.52812 219.27214 108.74687 218.77214Q107.96562 218.27214 107.52812 217.36589Q107.10625 216.44402 107.09062 215.22527L107.09062 214.61589Q107.09062 213.38152 107.5125 212.44402Q107.95 211.50652 108.73125 211.00652Q109.5125 210.49089 110.5125 210.49089Q111.54375 210.49089 112.325 210.99089Q113.10625 211.49089 113.52812 212.42839Q113.95 213.36589 113.95 214.61589L113.95 215.16277ZM112.825 214.60027Q112.825 213.10027 112.23125 212.28777Q111.6375 211.45964 110.5125 211.45964Q109.45 211.45964 108.84062 212.27214Q108.23125 213.08464 108.21562 214.52214L108.21562 215.16277Q108.21562 216.61589 108.825 217.45964Q109.43437 218.30339 110.52812 218.30339Q111.62187 218.30339 112.21562 217.52214Q112.80937 216.72527 112.825 215.24089L112.825 214.60027ZM120.15312 216.91277L116.575 216.91277L115.77812 219.14714L114.62187 219.14714L117.87187 210.61589L118.85625 210.61589L122.12187 219.14714L120.96562 219.14714L120.15312 216.91277ZM116.91875 215.99089L119.825 215.99089L118.37187 212.00652L116.91875 215.99089Z" fill-rule="nonzero"/><path fill="#757575" d="M83.45 228.71397L83.45 234.51085Q83.43437 235.71397 82.68437 236.49522Q81.93437 237.26085 80.65312 237.3546L80.34062 237.37022Q78.95 237.37022 78.10625 236.62022Q77.27812 235.8546 77.27812 234.52647L77.27812 228.71397L78.3875 228.71397L78.3875 234.49522Q78.3875 235.4171 78.8875 235.93272Q79.40312 236.44835 80.34062 236.44835Q81.30937 236.44835 81.80937 235.93272Q82.30937 235.4171 82.30937 234.49522L82.30937 228.71397L83.45 228.71397ZM86.8875 228.71397L89.68437 235.6671L92.46562 228.71397L93.93437 228.71397L93.93437 237.24522L92.80937 237.24522L92.80937 233.9171L92.91875 230.33897L90.10625 237.24522L89.24687 237.24522L86.45 230.3546L86.55937 233.9171L86.55937 237.24522L85.43437 237.24522L85.43437 228.71397L86.8875 228.71397ZM96.65312 237.24522L95.52812 237.24522L95.52812 228.71397L96.65312 228.71397L96.65312 237.24522ZM104.74687 236.12022Q104.30937 236.74522 103.52812 237.05772Q102.74687 237.37022 101.71562 237.37022Q100.68437 237.37022 99.87187 236.88585Q99.05937 236.38585 98.62187 235.4796Q98.18437 234.57335 98.16875 233.38585L98.16875 232.65147Q98.16875 230.71397 99.05937 229.65147Q99.96562 228.58897 101.59062 228.58897Q102.93437 228.58897 103.74687 229.27647Q104.55937 229.96397 104.74687 231.21397L103.62187 231.21397Q103.29375 229.52647 101.60625 229.52647Q100.46562 229.52647 99.8875 230.32335Q99.30937 231.1046 99.29375 232.62022L99.29375 233.30772Q99.29375 234.74522 99.95 235.6046Q100.60625 236.44835 101.73125 236.44835Q102.35625 236.44835 102.825 236.30772Q103.30937 236.1671 103.62187 235.82335L103.62187 233.9171L101.65312 233.9171L101.65312 232.99522L104.74687 232.99522L104.74687 236.12022ZM112.99687 233.26085Q112.99687 234.51085 112.575 235.44835Q112.15312 236.37022 111.37187 236.87022Q110.60625 237.37022 109.575 237.37022Q108.575 237.37022 107.79375 236.87022Q107.0125 236.37022 106.575 235.46397Q106.15312 234.5421 106.1375 233.32335L106.1375 232.71397Q106.1375 231.4796 106.55937 230.5421Q106.99687 229.6046 107.77812 229.1046Q108.55937 228.58897 109.575 228.58897Q110.59062 228.58897 111.37187 229.08897Q112.15312 229.58897 112.575 230.52647Q112.99687 231.46397 112.99687 232.71397L112.99687 233.26085ZM111.8875 232.69835Q111.8875 231.18272 111.27812 230.37022Q110.66875 229.55772 109.575 229.55772Q108.49687 229.55772 107.8875 230.37022Q107.27812 231.18272 107.2625 232.62022L107.2625 233.26085Q107.2625 234.7296 107.87187 235.57335Q108.49687 236.40147 109.575 236.40147Q110.66875 236.40147 111.2625 235.62022Q111.87187 234.82335 111.8875 233.33897L111.8875 232.69835ZM120.99687 237.24522L119.87187 237.24522L115.575 230.6671L115.575 237.24522L114.43437 237.24522L114.43437 228.71397L115.575 228.71397L119.87187 235.32335L119.87187 228.71397L120.99687 228.71397L120.99687 237.24522Z" fill-rule="nonzero"/><path fill="#757575" d="M28.996876 255.34332L27.871876 255.34332L27.871876 251.40582L23.559376 251.40582L23.559376 255.34332L22.434376 255.34332L22.434376 246.81207L23.559376 246.81207L23.559376 250.48395L27.871876 250.48395L27.871876 246.81207L28.996876 246.81207L28.996876 255.34332ZM36.153126 253.10895L32.575 253.10895L31.778126 255.34332L30.621876 255.34332L33.871876 246.81207L34.85625 246.81207L38.121876 255.34332L36.965626 255.34332L36.153126 253.10895ZM32.91875 252.18707L35.825 252.18707L34.371876 248.2027L32.91875 252.18707ZM40.559376 251.99957L40.559376 255.34332L39.434376 255.34332L39.434376 246.81207L42.590626 246.81207Q43.98125 246.81207 44.778126 247.53082Q45.575 248.23395 45.575 249.42145Q45.575 250.65582 44.79375 251.3277Q44.028126 251.99957 42.575 251.99957L40.559376 251.99957ZM40.559376 251.0777L42.590626 251.0777Q43.496876 251.0777 43.965626 250.65582Q44.45 250.23395 44.45 249.43707Q44.45 248.67145 43.965626 248.21832Q43.496876 247.74957 42.653126 247.73395L40.559376 247.73395L40.559376 251.0777ZM48.559376 251.99957L48.559376 255.34332L47.434376 255.34332L47.434376 246.81207L50.590626 246.81207Q51.98125 246.81207 52.778126 247.53082Q53.575 248.23395 53.575 249.42145Q53.575 250.65582 52.79375 251.3277Q52.028126 251.99957 50.575 251.99957L48.559376 251.99957ZM48.559376 251.0777L50.590626 251.0777Q51.496876 251.0777 51.965626 250.65582Q52.45 250.23395 52.45 249.43707Q52.45 248.67145 51.965626 248.21832Q51.496876 247.74957 50.653126 247.73395L48.559376 247.73395L48.559376 251.0777ZM56.653126 255.34332L55.528126 255.34332L55.528126 246.81207L56.653126 246.81207L56.653126 255.34332ZM64.99687 255.34332L63.871876 255.34332L59.575 248.7652L59.575 255.34332L58.434376 255.34332L58.434376 246.81207L59.575 246.81207L63.871876 253.42145L63.871876 246.81207L64.99687 246.81207L64.99687 255.34332ZM72.2625 251.40582L68.55937 251.40582L68.55937 254.42145L72.85625 254.42145L72.85625 255.34332L67.43437 255.34332L67.43437 246.81207L72.80937 246.81207L72.80937 247.73395L68.55937 247.73395L68.55937 250.48395L72.2625 250.48395L72.2625 251.40582ZM76.95 251.54645Q75.5125 251.12457 74.84062 250.5152Q74.18437 249.90582 74.18437 249.0152Q74.18437 248.0152 74.98125 247.35895Q75.79375 246.68707 77.09062 246.68707Q77.96562 246.68707 78.65312 247.03082Q79.34062 247.37457 79.71562 247.96832Q80.10625 248.56207 80.10625 249.28082L78.96562 249.28082Q78.96562 248.49957 78.46562 248.06207Q77.98125 247.62457 77.09062 247.62457Q76.2625 247.62457 75.79375 247.99957Q75.325 248.35895 75.325 248.99957Q75.325 249.53082 75.7625 249.8902Q76.21562 250.24957 77.27812 250.54645Q78.34062 250.84332 78.93437 251.2027Q79.54375 251.56207 79.825 252.04645Q80.12187 252.53082 80.12187 253.17145Q80.12187 254.21832 79.30937 254.84332Q78.49687 255.46832 77.15312 255.46832Q76.2625 255.46832 75.49687 255.12457Q74.74687 254.78082 74.325 254.2027Q73.91875 253.60895 73.91875 252.87457L75.04375 252.87457Q75.04375 253.6402 75.62187 254.09332Q76.2 254.54645 77.15312 254.54645Q78.04375 254.54645 78.5125 254.18707Q78.98125 253.81207 78.98125 253.18707Q78.98125 252.56207 78.54375 252.21832Q78.10625 251.87457 76.95 251.54645ZM83.95 251.54645Q82.5125 251.12457 81.84062 250.5152Q81.18437 249.90582 81.18437 249.0152Q81.18437 248.0152 81.98125 247.35895Q82.79375 246.68707 84.09062 246.68707Q84.96562 246.68707 85.65312 247.03082Q86.34062 247.37457 86.71562 247.96832Q87.10625 248.56207 87.10625 249.28082L85.96562 249.28082Q85.96562 248.49957 85.46562 248.06207Q84.98125 247.62457 84.09062 247.62457Q83.2625 247.62457 82.79375 247.99957Q82.325 248.35895 82.325 248.99957Q82.325 249.53082 82.7625 249.8902Q83.21562 250.24957 84.27812 250.54645Q85.34062 250.84332 85.93437 251.2027Q86.54375 251.56207 86.825 252.04645Q87.12187 252.53082 87.12187 253.17145Q87.12187 254.21832 86.30937 254.84332Q85.49687 255.46832 84.15312 255.46832Q83.2625 255.46832 82.49687 255.12457Q81.74687 254.78082 81.325 254.2027Q80.91875 253.60895 80.91875 252.87457L82.04375 252.87457Q82.04375 253.6402 82.62187 254.09332Q83.2 254.54645 84.15312 254.54645Q85.04375 254.54645 85.5125 254.18707Q85.98125 253.81207 85.98125 253.18707Q85.98125 252.56207 85.54375 252.21832Q85.10625 251.87457 83.95 251.54645ZM89.65312 255.34332L88.52812 255.34332L88.52812 246.81207L89.65312 246.81207L89.65312 255.34332ZM97.99687 255.34332L96.87187 255.34332L92.575 248.7652L92.575 255.34332L91.43437 255.34332L91.43437 246.81207L92.575 246.81207L96.87187 253.42145L96.87187 246.81207L97.99687 246.81207L97.99687 255.34332ZM100.43437 255.34332L100.43437 246.81207L102.85625 246.81207Q103.96562 246.81207 104.80937 247.31207Q105.66875 247.79645 106.1375 248.7027Q106.60625 249.60895 106.60625 250.79645L106.60625 251.3277Q106.60625 252.54645 106.1375 253.4527Q105.68437 254.35895 104.80937 254.84332Q103.95 255.3277 102.80937 255.34332L100.43437 255.34332ZM101.55937 247.73395L101.55937 254.42145L102.74687 254.42145Q104.04375 254.42145 104.7625 253.62457Q105.49687 252.81207 105.49687 251.31207L105.49687 250.81207Q105.49687 249.35895 104.80937 248.56207Q104.1375 247.74957 102.87187 247.73395L101.55937 247.73395ZM113.2625 251.40582L109.55937 251.40582L109.55937 254.42145L113.85625 254.42145L113.85625 255.34332L108.43437 255.34332L108.43437 246.81207L113.80937 246.81207L113.80937 247.73395L109.55937 247.73395L109.55937 250.48395L113.2625 250.48395L113.2625 251.40582ZM118.23125 250.0777L120.2625 246.81207L121.59062 246.81207L118.90312 251.04645L121.65312 255.34332L120.325 255.34332L118.23125 252.0152L116.12187 255.34332L114.77812 255.34332L117.54375 251.04645L114.85625 246.81207L116.16875 246.81207L118.23125 250.0777Z" fill-rule="nonzero"/><path fill="#757575" d="M92.95 269.64453Q91.5125 269.22266 90.84062 268.61328Q90.18437 268.0039 90.18437 267.11328Q90.18437 266.11328 90.98125 265.45703Q91.79375 264.78516 93.09062 264.78516Q93.96562 264.78516 94.65312 265.1289Q95.34062 265.47266 95.71562 266.0664Q96.10625 266.66016 96.10625 267.3789L94.96562 267.3789Q94.96562 266.59766 94.46562 266.16016Q93.98125 265.72266 93.09062 265.72266Q92.2625 265.72266 91.79375 266.09766Q91.325 266.45703 91.325 267.09766Q91.325 267.6289 91.7625 267.98828Q92.21562 268.34766 93.27812 268.64453Q94.34062 268.9414 94.93437 269.30078Q95.54375 269.66016 95.825 270.14453Q96.12187 270.6289 96.12187 271.26953Q96.12187 272.3164 95.30937 272.9414Q94.49687 273.5664 93.15312 273.5664Q92.2625 273.5664 91.49687 273.22266Q90.74687 272.8789 90.325 272.30078Q89.91875 271.70703 89.91875 270.97266L91.04375 270.97266Q91.04375 271.73828 91.62187 272.1914Q92.2 272.64453 93.15312 272.64453Q94.04375 272.64453 94.5125 272.28516Q94.98125 271.91016 94.98125 271.28516Q94.98125 270.66016 94.54375 270.3164Q94.10625 269.97266 92.95 269.64453ZM102.15312 271.20703L98.575 271.20703L97.77812 273.4414L96.62187 273.4414L99.87187 264.91016L100.85625 264.91016L104.12187 273.4414L102.96562 273.4414L102.15312 271.20703ZM98.91875 270.28516L101.825 270.28516L100.37187 266.30078L98.91875 270.28516ZM111.99687 273.4414L110.87187 273.4414L106.575 266.86328L106.575 273.4414L105.43437 273.4414L105.43437 264.91016L106.575 264.91016L110.87187 271.51953L110.87187 264.91016L111.99687 264.91016L111.99687 273.4414ZM120.99687 273.4414L119.87187 273.4414L115.575 266.86328L115.575 273.4414L114.43437 273.4414L114.43437 264.91016L115.575 264.91016L119.87187 271.51953L119.87187 264.91016L120.99687 264.91016L120.99687 273.4414Z" fill-rule="nonzero"/><path fill="#757575" d="M82.2625 287.60202L78.55937 287.60202L78.55937 290.61765L82.85625 290.61765L82.85625 291.53952L77.43437 291.53952L77.43437 283.00827L82.80937 283.00827L82.80937 283.93015L78.55937 283.93015L78.55937 286.68015L82.2625 286.68015L82.2625 287.60202ZM85.8875 283.00827L88.68437 289.9614L91.46562 283.00827L92.93437 283.00827L92.93437 291.53952L91.80937 291.53952L91.80937 288.2114L91.91875 284.63327L89.10625 291.53952L88.24687 291.53952L85.45 284.6489L85.55937 288.2114L85.55937 291.53952L84.43437 291.53952L84.43437 283.00827L85.8875 283.00827ZM100.99687 287.55515Q100.99687 288.80515 100.575 289.74265Q100.15312 290.66452 99.37187 291.16452Q98.60625 291.66452 97.575 291.66452Q96.575 291.66452 95.79375 291.16452Q95.0125 290.66452 94.575 289.75827Q94.15312 288.8364 94.1375 287.61765L94.1375 287.00827Q94.1375 285.7739 94.55937 284.8364Q94.99687 283.8989 95.77812 283.3989Q96.55937 282.88327 97.575 282.88327Q98.59062 282.88327 99.37187 283.38327Q100.15312 283.88327 100.575 284.82077Q100.99687 285.75827 100.99687 287.00827L100.99687 287.55515ZM99.8875 286.99265Q99.8875 285.47702 99.27812 284.66452Q98.66875 283.85202 97.575 283.85202Q96.49687 283.85202 95.8875 284.66452Q95.27812 285.47702 95.2625 286.91452L95.2625 287.55515Q95.2625 289.0239 95.87187 289.86765Q96.49687 290.69577 97.575 290.69577Q98.66875 290.69577 99.2625 289.91452Q99.87187 289.11765 99.8875 287.63327L99.8875 286.99265ZM103.575 290.61765L107.62187 290.61765L107.62187 291.53952L102.43437 291.53952L102.43437 283.00827L103.575 283.00827L103.575 290.61765ZM113.2625 287.60202L109.55937 287.60202L109.55937 290.61765L113.85625 290.61765L113.85625 291.53952L108.43437 291.53952L108.43437 283.00827L113.80937 283.00827L113.80937 283.93015L109.55937 283.93015L109.55937 286.68015L113.2625 286.68015L113.2625 287.60202ZM118.23125 286.2739L120.2625 283.00827L121.59062 283.00827L118.90312 287.24265L121.65312 291.53952L120.325 291.53952L118.23125 288.2114L116.12187 291.53952L114.77812 291.53952L117.54375 287.24265L114.85625 283.00827L116.16875 283.00827L118.23125 286.2739Z" fill-rule="nonzero"/><path fill="#757575" d="M95.95 305.84073Q94.5125 305.41885 93.84062 304.80948Q93.18437 304.2001 93.18437 303.30948Q93.18437 302.30948 93.98125 301.65323Q94.79375 300.98135 96.09062 300.98135Q96.96562 300.98135 97.65312 301.3251Q98.34062 301.66885 98.71562 302.2626Q99.10625 302.85635 99.10625 303.5751L97.96562 303.5751Q97.96562 302.79385 97.46562 302.35635Q96.98125 301.91885 96.09062 301.91885Q95.2625 301.91885 94.79375 302.29385Q94.325 302.65323 94.325 303.29385Q94.325 303.8251 94.7625 304.18448Q95.21562 304.54385 96.27812 304.84073Q97.34062 305.1376 97.93437 305.49698Q98.54375 305.85635 98.825 306.34073Q99.12187 306.8251 99.12187 307.46573Q99.12187 308.5126 98.30937 309.1376Q97.49687 309.7626 96.15312 309.7626Q95.2625 309.7626 94.49687 309.41885Q93.74687 309.0751 93.325 308.49698Q92.91875 307.90323 92.91875 307.16885L94.04375 307.16885Q94.04375 307.93448 94.62187 308.3876Q95.2 308.84073 96.15312 308.84073Q97.04375 308.84073 97.5125 308.48135Q97.98125 308.10635 97.98125 307.48135Q97.98125 306.85635 97.54375 306.5126Q97.10625 306.16885 95.95 305.84073ZM105.15312 307.40323L101.575 307.40323L100.77812 309.6376L99.62187 309.6376L102.87187 301.10635L103.85625 301.10635L107.12187 309.6376L105.96562 309.6376L105.15312 307.40323ZM101.91875 306.48135L104.825 306.48135L103.37187 302.49698L101.91875 306.48135ZM110.95 305.84073Q109.5125 305.41885 108.84062 304.80948Q108.18437 304.2001 108.18437 303.30948Q108.18437 302.30948 108.98125 301.65323Q109.79375 300.98135 111.09062 300.98135Q111.96562 300.98135 112.65312 301.3251Q113.34062 301.66885 113.71562 302.2626Q114.10625 302.85635 114.10625 303.5751L112.96562 303.5751Q112.96562 302.79385 112.46562 302.35635Q111.98125 301.91885 111.09062 301.91885Q110.2625 301.91885 109.79375 302.29385Q109.325 302.65323 109.325 303.29385Q109.325 303.8251 109.7625 304.18448Q110.21562 304.54385 111.27812 304.84073Q112.34062 305.1376 112.93437 305.49698Q113.54375 305.85635 113.825 306.34073Q114.12187 306.8251 114.12187 307.46573Q114.12187 308.5126 113.30937 309.1376Q112.49687 309.7626 111.15312 309.7626Q110.2625 309.7626 109.49687 309.41885Q108.74687 309.0751 108.325 308.49698Q107.91875 307.90323 107.91875 307.16885L109.04375 307.16885Q109.04375 307.93448 109.62187 308.3876Q110.2 308.84073 111.15312 308.84073Q112.04375 308.84073 112.5125 308.48135Q112.98125 308.10635 112.98125 307.48135Q112.98125 306.85635 112.54375 306.5126Q112.10625 306.16885 110.95 305.84073ZM120.15312 307.40323L116.575 307.40323L115.77812 309.6376L114.62187 309.6376L117.87187 301.10635L118.85625 301.10635L122.12187 309.6376L120.96562 309.6376L120.15312 307.40323ZM116.91875 306.48135L119.825 306.48135L118.37187 302.49698L116.91875 306.48135Z" fill-rule="nonzero"/><path fill="#757575" d="M35.95 323.9388Q34.5125 323.51694 33.840626 322.90756Q33.184376 322.2982 33.184376 321.40756Q33.184376 320.40756 33.98125 319.7513Q34.79375 319.07944 36.090626 319.07944Q36.965626 319.07944 37.653126 319.4232Q38.340626 319.76694 38.715626 320.3607Q39.10625 320.95444 39.10625 321.6732L37.965626 321.6732Q37.965626 320.89194 37.465626 320.45444Q36.98125 320.01694 36.090626 320.01694Q35.2625 320.01694 34.79375 320.39194Q34.325 320.7513 34.325 321.39194Q34.325 321.9232 34.7625 322.28256Q35.215626 322.64194 36.278126 322.9388Q37.340626 323.2357 37.934376 323.59506Q38.54375 323.95444 38.825 324.4388Q39.121876 324.9232 39.121876 325.5638Q39.121876 326.6107 38.309376 327.2357Q37.496876 327.8607 36.153126 327.8607Q35.2625 327.8607 34.496876 327.51694Q33.746876 327.1732 33.325 326.59506Q32.91875 326.0013 32.91875 325.26694L34.04375 325.26694Q34.04375 326.03256 34.621876 326.4857Q35.2 326.9388 36.153126 326.9388Q37.04375 326.9388 37.5125 326.57944Q37.98125 326.20444 37.98125 325.57944Q37.98125 324.95444 37.54375 324.6107Q37.10625 324.26694 35.95 323.9388ZM45.2625 323.7982L41.559376 323.7982L41.559376 326.8138L45.85625 326.8138L45.85625 327.7357L40.434376 327.7357L40.434376 319.20444L45.809376 319.20444L45.809376 320.1263L41.559376 320.1263L41.559376 322.8763L45.2625 322.8763L45.2625 323.7982ZM53.996876 327.7357L52.871876 327.7357L48.575 321.15756L48.575 327.7357L47.434376 327.7357L47.434376 319.20444L48.575 319.20444L52.871876 325.8138L52.871876 319.20444L53.996876 319.20444L53.996876 327.7357ZM62.340626 320.1263L59.590626 320.1263L59.590626 327.7357L58.48125 327.7357L58.48125 320.1263L55.73125 320.1263L55.73125 319.20444L62.340626 319.20444L62.340626 320.1263ZM64.65312 327.7357L63.528126 327.7357L63.528126 319.20444L64.65312 319.20444L64.65312 327.7357ZM68.27812 325.0482L68.45 326.1732L68.68437 325.15756L70.37187 319.20444L71.325 319.20444L72.96562 325.15756L73.2 326.1888L73.3875 325.03256L74.71562 319.20444L75.84062 319.20444L73.77812 327.7357L72.74687 327.7357L70.98125 321.51694L70.85625 320.8607L70.71562 321.51694L68.90312 327.7357L67.87187 327.7357L65.80937 319.20444L66.93437 319.20444L68.27812 325.0482ZM83.99687 323.7513Q83.99687 325.0013 83.575 325.9388Q83.15312 326.8607 82.37187 327.3607Q81.60625 327.8607 80.575 327.8607Q79.575 327.8607 78.79375 327.3607Q78.0125 326.8607 77.575 325.95444Q77.15312 325.03256 77.1375 323.8138L77.1375 323.20444Q77.1375 321.97006 77.55937 321.03256Q77.99687 320.09506 78.77812 319.59506Q79.55937 319.07944 80.575 319.07944Q81.59062 319.07944 82.37187 319.57944Q83.15312 320.07944 83.575 321.01694Q83.99687 321.95444 83.99687 323.20444L83.99687 323.7513ZM82.8875 323.1888Q82.8875 321.6732 82.27812 320.8607Q81.66875 320.0482 80.575 320.0482Q79.49687 320.0482 78.8875 320.8607Q78.27812 321.6732 78.2625 323.1107L78.2625 323.7513Q78.2625 325.22006 78.87187 326.0638Q79.49687 326.89194 80.575 326.89194Q81.66875 326.89194 82.2625 326.1107Q82.87187 325.3138 82.8875 323.82944L82.8875 323.1888ZM88.575 324.28256L86.55937 324.28256L86.55937 327.7357L85.43437 327.7357L85.43437 319.20444L88.2625 319.20444Q89.7 319.20444 90.46562 319.8607Q91.24687 320.51694 91.24687 321.76694Q91.24687 322.5638 90.80937 323.15756Q90.3875 323.7513 89.62187 324.0482L91.62187 327.65756L91.62187 327.7357L90.41875 327.7357L88.575 324.28256ZM86.55937 323.3607L88.29375 323.3607Q89.1375 323.3607 89.62187 322.9388Q90.12187 322.5013 90.12187 321.76694Q90.12187 320.9857 89.65312 320.5638Q89.18437 320.14194 88.29375 320.1263L86.55937 320.1263L86.55937 323.3607ZM92.43437 327.7357L92.43437 319.20444L94.85625 319.20444Q95.96562 319.20444 96.80937 319.70444Q97.66875 320.1888 98.1375 321.09506Q98.60625 322.0013 98.60625 323.1888L98.60625 323.72006Q98.60625 324.9388 98.1375 325.84506Q97.68437 326.7513 96.80937 327.2357Q95.95 327.72006 94.80937 327.7357L92.43437 327.7357ZM93.55937 320.1263L93.55937 326.8138L94.74687 326.8138Q96.04375 326.8138 96.7625 326.01694Q97.49687 325.20444 97.49687 323.70444L97.49687 323.20444Q97.49687 321.7513 96.80937 320.95444Q96.1375 320.14194 94.87187 320.1263L93.55937 320.1263ZM106.99687 327.7357L105.87187 327.7357L101.575 321.15756L101.575 327.7357L100.43437 327.7357L100.43437 319.20444L101.575 319.20444L105.87187 325.8138L105.87187 319.20444L106.99687 319.20444L106.99687 327.7357ZM114.2625 323.7982L110.55937 323.7982L110.55937 326.8138L114.85625 326.8138L114.85625 327.7357L109.43437 327.7357L109.43437 319.20444L114.80937 319.20444L114.80937 320.1263L110.55937 320.1263L110.55937 322.8763L114.2625 322.8763L114.2625 323.7982ZM122.34062 320.1263L119.59062 320.1263L119.59062 327.7357L118.48125 327.7357L118.48125 320.1263L115.73125 320.1263L115.73125 319.20444L122.34062 319.20444L122.34062 320.1263Z" fill-rule="nonzero"/><path fill="#757575" d="M46.2625 341.8963L42.559376 341.8963L42.559376 344.91193L46.85625 344.91193L46.85625 345.8338L41.434376 345.8338L41.434376 337.30255L46.809376 337.30255L46.809376 338.22443L42.559376 338.22443L42.559376 340.97443L46.2625 340.97443L46.2625 341.8963ZM49.8875 337.30255L52.684376 344.25568L55.465626 337.30255L56.934376 337.30255L56.934376 345.8338L55.809376 345.8338L55.809376 342.50568L55.91875 338.92755L53.10625 345.8338L52.246876 345.8338L49.45 338.94318L49.559376 342.50568L49.559376 345.8338L48.434376 345.8338L48.434376 337.30255L49.8875 337.30255ZM64.99687 341.84943Q64.99687 343.09943 64.575 344.03693Q64.15312 344.9588 63.371876 345.4588Q62.60625 345.9588 61.575 345.9588Q60.575 345.9588 59.79375 345.4588Q59.0125 344.9588 58.575 344.05255Q58.153126 343.13068 58.1375 341.91193L58.1375 341.30255Q58.1375 340.06818 58.559376 339.13068Q58.996876 338.19318 59.778126 337.69318Q60.559376 337.17755 61.575 337.17755Q62.590626 337.17755 63.371876 337.67755Q64.15312 338.17755 64.575 339.11505Q64.99687 340.05255 64.99687 341.30255L64.99687 341.84943ZM63.8875 341.28693Q63.8875 339.7713 63.278126 338.9588Q62.66875 338.1463 61.575 338.1463Q60.496876 338.1463 59.8875 338.9588Q59.278126 339.7713 59.2625 341.2088L59.2625 341.84943Q59.2625 343.31818 59.871876 344.16193Q60.496876 344.99005 61.575 344.99005Q62.66875 344.99005 63.2625 344.2088Q63.871876 343.41193 63.8875 341.92755L63.8875 341.28693ZM72.34062 338.22443L69.59062 338.22443L69.59062 345.8338L68.48125 345.8338L68.48125 338.22443L65.73125 338.22443L65.73125 337.30255L72.34062 337.30255L72.34062 338.22443ZM74.65312 345.8338L73.52812 345.8338L73.52812 337.30255L74.65312 337.30255L74.65312 345.8338ZM82.71562 343.13068Q82.55937 344.47443 81.71562 345.22443Q80.87187 345.9588 79.48125 345.9588Q77.96562 345.9588 77.05937 344.88068Q76.15312 343.78693 76.15312 341.9588L76.15312 341.1463Q76.15312 339.9588 76.575 339.05255Q76.99687 338.1463 77.77812 337.66193Q78.55937 337.17755 79.575 337.17755Q80.93437 337.17755 81.74687 337.94318Q82.575 338.7088 82.71562 340.03693L81.59062 340.03693Q81.43437 339.0213 80.95 338.56818Q80.46562 338.11505 79.575 338.11505Q78.49687 338.11505 77.8875 338.91193Q77.27812 339.7088 77.27812 341.17755L77.27812 342.00568Q77.27812 343.3963 77.85625 344.22443Q78.43437 345.03693 79.48125 345.03693Q80.41875 345.03693 80.91875 344.61505Q81.41875 344.17755 81.59062 343.13068L82.71562 343.13068ZM90.99687 341.84943Q90.99687 343.09943 90.575 344.03693Q90.15312 344.9588 89.37187 345.4588Q88.60625 345.9588 87.575 345.9588Q86.575 345.9588 85.79375 345.4588Q85.0125 344.9588 84.575 344.05255Q84.15312 343.13068 84.1375 341.91193L84.1375 341.30255Q84.1375 340.06818 84.55937 339.13068Q84.99687 338.19318 85.77812 337.69318Q86.55937 337.17755 87.575 337.17755Q88.59062 337.17755 89.37187 337.67755Q90.15312 338.17755 90.575 339.11505Q90.99687 340.05255 90.99687 341.30255L90.99687 341.84943ZM89.8875 341.28693Q89.8875 339.7713 89.27812 338.9588Q88.66875 338.1463 87.575 338.1463Q86.49687 338.1463 85.8875 338.9588Q85.27812 339.7713 85.2625 341.2088L85.2625 341.84943Q85.2625 343.31818 85.87187 344.16193Q86.49687 344.99005 87.575 344.99005Q88.66875 344.99005 89.2625 344.2088Q89.87187 343.41193 89.8875 341.92755L89.8875 341.28693ZM98.99687 345.8338L97.87187 345.8338L93.575 339.25568L93.575 345.8338L92.43437 345.8338L92.43437 337.30255L93.575 337.30255L97.87187 343.91193L97.87187 337.30255L98.99687 337.30255L98.99687 345.8338ZM103.95 342.03693Q102.5125 341.61505 101.84062 341.00568Q101.18437 340.3963 101.18437 339.50568Q101.18437 338.50568 101.98125 337.84943Q102.79375 337.17755 104.09062 337.17755Q104.96562 337.17755 105.65312 337.5213Q106.34062 337.86505 106.71562 338.4588Q107.10625 339.05255 107.10625 339.7713L105.96562 339.7713Q105.96562 338.99005 105.46562 338.55255Q104.98125 338.11505 104.09062 338.11505Q103.2625 338.11505 102.79375 338.49005Q102.325 338.84943 102.325 339.49005Q102.325 340.0213 102.7625 340.38068Q103.21562 340.74005 104.27812 341.03693Q105.34062 341.3338 105.93437 341.69318Q106.54375 342.05255 106.825 342.53693Q107.12187 343.0213 107.12187 343.66193Q107.12187 344.7088 106.30937 345.3338Q105.49687 345.9588 104.15312 345.9588Q103.2625 345.9588 102.49687 345.61505Q101.74687 345.2713 101.325 344.69318Q100.91875 344.09943 100.91875 343.36505L102.04375 343.36505Q102.04375 344.13068 102.62187 344.5838Q103.2 345.03693 104.15312 345.03693Q105.04375 345.03693 105.5125 344.67755Q105.98125 344.30255 105.98125 343.67755Q105.98125 343.05255 105.54375 342.7088Q105.10625 342.36505 103.95 342.03693ZM108.43437 345.8338L108.43437 337.30255L110.85625 337.30255Q111.96562 337.30255 112.80937 337.80255Q113.66875 338.28693 114.1375 339.19318Q114.60625 340.09943 114.60625 341.28693L114.60625 341.81818Q114.60625 343.03693 114.1375 343.94318Q113.68437 344.84943 112.80937 345.3338Q111.95 345.81818 110.80937 345.8338L108.43437 345.8338ZM109.55937 338.22443L109.55937 344.91193L110.74687 344.91193Q112.04375 344.91193 112.7625 344.11505Q113.49687 343.30255 113.49687 341.80255L113.49687 341.30255Q113.49687 339.84943 112.80937 339.05255Q112.1375 338.24005 110.87187 338.22443L109.55937 338.22443ZM118.95 342.03693Q117.5125 341.61505 116.84062 341.00568Q116.18437 340.3963 116.18437 339.50568Q116.18437 338.50568 116.98125 337.84943Q117.79375 337.17755 119.09062 337.17755Q119.96562 337.17755 120.65312 337.5213Q121.34062 337.86505 121.71562 338.4588Q122.10625 339.05255 122.10625 339.7713L120.96562 339.7713Q120.96562 338.99005 120.46562 338.55255Q119.98125 338.11505 119.09062 338.11505Q118.2625 338.11505 117.79375 338.49005Q117.325 338.84943 117.325 339.49005Q117.325 340.0213 117.7625 340.38068Q118.21562 340.74005 119.27812 341.03693Q120.34062 341.3338 120.93437 341.69318Q121.54375 342.05255 121.825 342.53693Q122.12187 343.0213 122.12187 343.66193Q122.12187 344.7088 121.30937 345.3338Q120.49687 345.9588 119.15312 345.9588Q118.2625 345.9588 117.49687 345.61505Q116.74687 345.2713 116.325 344.69318Q115.91875 344.09943 115.91875 343.36505L117.04375 343.36505Q117.04375 344.13068 117.62187 344.5838Q118.2 345.03693 119.15312 345.03693Q120.04375 345.03693 120.5125 344.67755Q120.98125 344.30255 120.98125 343.67755Q120.98125 343.05255 120.54375 342.7088Q120.10625 342.36505 118.95 342.03693Z" fill-rule="nonzero"/><path fill="#757575" d="M131.0125 367.90936Q131.0125 369.8156 130.35625 370.7531Q129.71562 371.675 128.325 371.675Q126.96562 371.675 126.30937 370.76874Q125.65312 369.8625 125.62187 368.05L125.62187 366.6125Q125.62187 364.72186 126.2625 363.8156Q126.91875 362.89374 128.30937 362.89374Q129.68437 362.89374 130.34062 363.78436Q130.99687 364.65936 131.0125 366.5031L131.0125 367.90936ZM129.91875 366.425Q129.91875 365.05 129.52812 364.425Q129.15312 363.78436 128.30937 363.78436Q127.48125 363.78436 127.09062 364.425Q126.71562 365.05 126.71562 366.34686L126.71562 368.08124Q126.71562 369.45624 127.10625 370.1281Q127.5125 370.78436 128.325 370.78436Q129.12187 370.78436 129.5125 370.15936Q129.90312 369.53436 129.91875 368.20624L129.91875 366.425Z" fill-rule="nonzero"/><path fill="#757575" d="M273.27188 371.55L267.67813 371.55L267.67813 370.76874L270.63126 367.4875Q271.2875 366.7375 271.5375 366.28436Q271.7875 365.8156 271.7875 365.3156Q271.7875 364.64374 271.38126 364.22186Q270.99063 363.78436 270.30313 363.78436Q269.50626 363.78436 269.05313 364.2531Q268.6 364.70624 268.6 365.53436L267.52188 365.53436Q267.52188 364.34686 268.27188 363.6281Q269.0375 362.89374 270.30313 362.89374Q271.50626 362.89374 272.19376 363.51874Q272.88126 364.14374 272.88126 365.1906Q272.88126 366.4406 271.27188 368.1906L268.99063 370.65936L273.27188 370.65936L273.27188 371.55ZM275.17813 367.26874L275.61563 363.01874L279.99063 363.01874L279.99063 364.01874L276.5375 364.01874L276.27188 366.34686Q276.9125 365.97186 277.70938 365.97186Q278.86563 365.97186 279.55313 366.7531Q280.24063 367.51874 280.24063 368.83124Q280.24063 370.14374 279.52188 370.90936Q278.81876 371.675 277.5375 371.675Q276.4125 371.675 275.69376 371.05Q274.975 370.40936 274.88126 369.3L275.89688 369.3Q276.00626 370.03436 276.42813 370.40936Q276.85 370.78436 277.5375 370.78436Q278.2875 370.78436 278.725 370.26874Q279.1625 369.7531 279.1625 368.84686Q279.1625 367.9875 278.69376 367.47186Q278.225 366.95624 277.44376 366.95624Q276.74063 366.95624 276.33438 367.2531L276.05313 367.4875L275.17813 367.26874Z" fill-rule="nonzero"/><path fill="#757575" d="M413.70312 367.26874L414.14062 363.01874L418.51562 363.01874L418.51562 364.01874L415.0625 364.01874L414.79688 366.34686Q415.4375 365.97186 416.23438 365.97186Q417.39062 365.97186 418.07812 366.7531Q418.76562 367.51874 418.76562 368.83124Q418.76562 370.14374 418.04688 370.90936Q417.34375 371.675 416.0625 371.675Q414.9375 371.675 414.21875 371.05Q413.5 370.40936 413.40625 369.3L414.42188 369.3Q414.53125 370.03436 414.95312 370.40936Q415.375 370.78436 416.0625 370.78436Q416.8125 370.78436 417.25 370.26874Q417.6875 369.7531 417.6875 368.84686Q417.6875 367.9875 417.21875 367.47186Q416.75 366.95624 415.96875 366.95624Q415.26562 366.95624 414.85938 367.2531L414.57812 367.4875L413.70312 367.26874ZM425.5625 367.90936Q425.5625 369.8156 424.90625 370.7531Q424.26562 371.675 422.875 371.675Q421.51562 371.675 420.85938 370.76874Q420.20312 369.8625 420.17188 368.05L420.17188 366.6125Q420.17188 364.72186 420.8125 363.8156Q421.46875 362.89374 422.85938 362.89374Q424.23438 362.89374 424.89062 363.78436Q425.54688 364.65936 425.5625 366.5031L425.5625 367.90936ZM424.46875 366.425Q424.46875 365.05 424.07812 364.425Q423.70312 363.78436 422.85938 363.78436Q422.03125 363.78436 421.64062 364.425Q421.26562 365.05 421.26562 366.34686L421.26562 368.08124Q421.26562 369.45624 421.65625 370.1281Q422.0625 370.78436 422.875 370.78436Q423.67188 370.78436 424.0625 370.15936Q424.45312 369.53436 424.46875 368.20624L424.46875 366.425Z" fill-rule="nonzero"/><path fill="#757575" d="M564.2438 363.6281L560.7125 371.55L559.5719 371.55L563.0875 363.90936L558.47815 363.90936L558.47815 363.01874L564.2438 363.01874L564.2438 363.6281ZM566.22815 367.26874L566.66565 363.01874L571.04065 363.01874L571.04065 364.01874L567.5875 364.01874L567.3219 366.34686Q567.9625 365.97186 568.7594 365.97186Q569.91565 365.97186 570.60315 366.7531Q571.29065 367.51874 571.29065 368.83124Q571.29065 370.14374 570.5719 370.90936Q569.8688 371.675 568.5875 371.675Q567.4625 371.675 566.7438 371.05Q566.025 370.40936 565.9313 369.3L566.9469 369.3Q567.0563 370.03436 567.47815 370.40936Q567.9 370.78436 568.5875 370.78436Q569.3375 370.78436 569.775 370.26874Q570.2125 369.7531 570.2125 368.84686Q570.2125 367.9875 569.7438 367.47186Q569.275 366.95624 568.4938 366.95624Q567.79065 366.95624 567.3844 367.2531L567.10315 367.4875L566.22815 367.26874Z" fill-rule="nonzero"/><path fill="#757575" d="M704.3156 371.55L703.2375 371.55L703.2375 364.33124L701.05 365.1281L701.05 364.14374L704.15936 362.97186L704.3156 362.97186L704.3156 371.55ZM713.1125 367.90936Q713.1125 369.8156 712.45624 370.7531Q711.8156 371.675 710.425 371.675Q709.0656 371.675 708.40936 370.76874Q707.7531 369.8625 707.72186 368.05L707.72186 366.6125Q707.72186 364.72186 708.3625 363.8156Q709.01874 362.89374 710.40936 362.89374Q711.78436 362.89374 712.4406 363.78436Q713.09686 364.65936 713.1125 366.5031L713.1125 367.90936ZM712.01874 366.425Q712.01874 365.05 711.6281 364.425Q711.2531 363.78436 710.40936 363.78436Q709.58124 363.78436 709.1906 364.425Q708.8156 365.05 708.8156 366.34686L708.8156 368.08124Q708.8156 369.45624 709.20624 370.1281Q709.6125 370.78436 710.425 370.78436Q711.22186 370.78436 711.6125 370.15936Q712.0031 369.53436 712.01874 368.20624L712.01874 366.425ZM720.1125 367.90936Q720.1125 369.8156 719.45624 370.7531Q718.8156 371.675 717.425 371.675Q716.0656 371.675 715.40936 370.76874Q714.7531 369.8625 714.72186 368.05L714.72186 366.6125Q714.72186 364.72186 715.3625 363.8156Q716.01874 362.89374 717.40936 362.89374Q718.78436 362.89374 719.4406 363.78436Q720.09686 364.65936 720.1125 366.5031L720.1125 367.90936ZM719.01874 366.425Q719.01874 365.05 718.6281 364.425Q718.2531 363.78436 717.40936 363.78436Q716.58124 363.78436 716.1906 364.425Q715.8156 365.05 715.8156 366.34686L715.8156 368.08124Q715.8156 369.45624 716.20624 370.1281Q716.6125 370.78436 717.425 370.78436Q718.22186 370.78436 718.6125 370.15936Q719.0031 369.53436 719.01874 368.20624L719.01874 366.425Z" fill-rule="nonzero"/></svg>