<svg version="1.1" viewBox="0.0 0.0 467.0 124.0" fill="none" stroke="none" stroke-linecap="square" stroke-miterlimit="10" width="467" height="124" xmlns:xlink="http://www.w3.org/1999/xlink" xmlns="http://www.w3.org/2000/svg"><path fill="#ffffff" d="M0 0L467.0 0L467.0 124.0L0 124.0L0 0Z" fill-rule="nonzero"/><path stroke="#333333" stroke-width="1.0" stroke-linecap="butt" d="M69.5 6.5L69.5 63.5" fill-rule="nonzero"/><path stroke="#cccccc" stroke-width="1.0" stroke-linecap="butt" d="M147.5 6.5L147.5 63.5" fill-rule="nonzero"/><path stroke="#cccccc" stroke-width="1.0" stroke-linecap="butt" d="M225.5 6.5L225.5 63.5" fill-rule="nonzero"/><path stroke="#cccccc" stroke-width="1.0" stroke-linecap="butt" d="M304.5 6.5L304.5 63.5" fill-rule="nonzero"/><path stroke="#cccccc" stroke-width="1.0" stroke-linecap="butt" d="M382.5 6.5L382.5 63.5" fill-rule="nonzero"/><path stroke="#cccccc" stroke-width="1.0" stroke-linecap="butt" d="M460.5 6.5L460.5 63.5" fill-rule="nonzero"/><clipPath id="id_0"><path d="M69.2 6.2L460.8 6.2L460.8 63.8L69.2 63.8L69.2 6.2Z" clip-rule="nonzero"/></clipPath><path stroke="#000000" stroke-width="0.0" stroke-linecap="butt" stroke-opacity="0.0" clip-path="url(#id_0)" d="M69.0 24.0L69.0 13.0L298.0 13.0C299.10458 13.0 300.0 13.895431 300.0 15.0L300.0 22.0C300.0 23.10457 299.10458 24.0 298.0 24.0Z" fill-rule="nonzero"/><path fill="#4285f4" clip-path="url(#id_0)" d="M69.0 24.0L69.0 13.0L298.0 13.0C299.10458 13.0 300.0 13.895431 300.0 15.0L300.0 22.0C300.0 23.10457 299.10458 24.0 298.0 24.0Z" fill-rule="nonzero"/><path stroke="#000000" stroke-width="0.0" stroke-linecap="butt" stroke-opacity="0.0" clip-path="url(#id_0)" d="M69.0 41.0L69.0 30.0L279.0 30.0C280.10458 30.0 281.0 30.89543 281.0 32.0L281.0 39.0C281.0 40.10457 280.10458 41.0 279.0 41.0Z" fill-rule="nonzero"/><path fill="#4285f4" clip-path="url(#id_0)" d="M69.0 41.0L69.0 30.0L279.0 30.0C280.10458 30.0 281.0 30.89543 281.0 32.0L281.0 39.0C281.0 40.10457 280.10458 41.0 279.0 41.0Z" fill-rule="nonzero"/><path stroke="#000000" stroke-width="0.0" stroke-linecap="butt" stroke-opacity="0.0" clip-path="url(#id_0)" d="M69.0 58.0L69.0 47.0L408.0 47.0C409.10458 47.0 410.0 47.89543 410.0 49.0L410.0 56.0C410.0 57.10457 409.10458 58.0 408.0 58.0Z" fill-rule="nonzero"/><path fill="#4285f4" clip-path="url(#id_0)" d="M69.0 58.0L69.0 47.0L408.0 47.0C409.10458 47.0 410.0 47.89543 410.0 49.0L410.0 56.0C410.0 57.10457 409.10458 58.0 408.0 58.0Z" fill-rule="nonzero"/><path fill="#424242" d="M186.125 111.34688L184.10938 111.34688L184.10938 114.8L182.98438 114.8L182.98438 106.26875L185.8125 106.26875Q187.25 106.26875 188.01562 106.925Q188.79688 107.58125 188.79688 108.83125Q188.79688 109.62813 188.35938 110.22188Q187.9375 110.81563 187.17188 111.1125L189.17188 114.72188L189.17188 114.8L187.96875 114.8L186.125 111.34688ZM184.10938 110.425L185.84375 110.425Q186.6875 110.425 187.17188 110.00313Q187.67188 109.56563 187.67188 108.83125Q187.67188 108.05 187.20312 107.62813Q186.73438 107.20625 185.84375 107.19063L184.10938 107.19063L184.10938 110.425ZM193.73438 114.8Q193.64062 114.6125 193.57812 114.12813Q192.82812 114.925 191.78125 114.925Q190.84375 114.925 190.23438 114.39375Q189.64062 113.8625 189.64062 113.03438Q189.64062 112.05 190.39062 111.50313Q191.14062 110.95625 192.51562 110.95625L193.5625 110.95625L193.5625 110.45625Q193.5625 109.89375 193.21875 109.56563Q192.89062 109.22188 192.21875 109.22188Q191.64062 109.22188 191.25 109.51875Q190.85938 109.8 190.85938 110.22188L189.76562 110.22188Q189.76562 109.7375 190.09375 109.3Q190.4375 108.8625 191.01562 108.6125Q191.59375 108.34688 192.28125 108.34688Q193.39062 108.34688 194.0 108.89375Q194.625 109.44063 194.65625 110.39375L194.65625 113.31563Q194.65625 114.19063 194.875 114.70625L194.875 114.8L193.73438 114.8ZM191.9375 113.97188Q192.45312 113.97188 192.90625 113.70625Q193.35938 113.44063 193.5625 113.01875L193.5625 111.72188L192.71875 111.72188Q190.71875 111.72188 190.71875 112.89375Q190.71875 113.39375 191.0625 113.69063Q191.40625 113.97188 191.9375 113.97188ZM198.29688 106.925L198.29688 108.45625L199.46875 108.45625L199.46875 109.3L198.29688 109.3L198.29688 113.22188Q198.29688 113.6125 198.45312 113.8Q198.60938 113.9875 198.98438 113.9875Q199.17188 113.9875 199.5 113.925L199.5 114.8Q199.07812 114.925 198.67188 114.925Q197.95312 114.925 197.57812 114.4875Q197.20312 114.03438 197.20312 113.22188L197.20312 109.3L196.04688 109.3L196.04688 108.45625L197.20312 108.45625L197.20312 106.925L198.29688 106.925ZM202.0 114.8L200.92188 114.8L200.92188 108.45625L202.0 108.45625L202.0 114.8ZM200.82812 106.78438Q200.82812 106.51875 200.98438 106.33125Q201.15625 106.14375 201.46875 106.14375Q201.78125 106.14375 201.9375 106.33125Q202.10938 106.51875 202.10938 106.78438Q202.10938 107.03438 201.9375 107.22188Q201.78125 107.39375 201.46875 107.39375Q201.15625 107.39375 200.98438 107.22188Q200.82812 107.03438 200.82812 106.78438ZM203.53125 111.56563Q203.53125 110.64375 203.89062 109.89375Q204.26562 109.14375 204.92188 108.75313Q205.57812 108.34688 206.40625 108.34688Q207.70312 108.34688 208.5 109.2375Q209.3125 110.12813 209.3125 111.62813L209.3125 111.70625Q209.3125 112.62813 208.95312 113.3625Q208.59375 114.09688 207.9375 114.51875Q207.28125 114.925 206.42188 114.925Q205.14062 114.925 204.32812 114.03438Q203.53125 113.12813 203.53125 111.64375L203.53125 111.56563ZM204.625 111.70625Q204.625 112.75313 205.10938 113.39375Q205.60938 114.03438 206.42188 114.03438Q207.25 114.03438 207.73438 113.39375Q208.21875 112.7375 208.21875 111.56563Q208.21875 110.53438 207.71875 109.89375Q207.23438 109.2375 206.40625 109.2375Q205.60938 109.2375 205.10938 109.87813Q204.625 110.50313 204.625 111.70625ZM213.53125 111.56563Q213.53125 110.64375 213.89062 109.89375Q214.26562 109.14375 214.92188 108.75313Q215.57812 108.34688 216.40625 108.34688Q217.70312 108.34688 218.5 109.2375Q219.3125 110.12813 219.3125 111.62813L219.3125 111.70625Q219.3125 112.62813 218.95312 113.3625Q218.59375 114.09688 217.9375 114.51875Q217.28125 114.925 216.42188 114.925Q215.14062 114.925 214.32812 114.03438Q213.53125 113.12813 213.53125 111.64375L213.53125 111.56563ZM214.625 111.70625Q214.625 112.75313 215.10938 113.39375Q215.60938 114.03438 216.42188 114.03438Q217.25 114.03438 217.73438 113.39375Q218.21875 112.7375 218.21875 111.56563Q218.21875 110.53438 217.71875 109.89375Q217.23438 109.2375 216.40625 109.2375Q215.60938 109.2375 215.10938 109.87813Q214.625 110.50313 214.625 111.70625ZM221.35938 114.8L221.35938 109.3L220.35938 109.3L220.35938 108.45625L221.35938 108.45625L221.35938 107.81563Q221.35938 106.78438 221.89062 106.2375Q222.4375 105.675 223.4375 105.675Q223.8125 105.675 224.1875 105.76875L224.125 106.65938Q223.84375 106.59688 223.54688 106.59688Q223.01562 106.59688 222.71875 106.90938Q222.4375 107.22188 222.4375 107.78438L222.4375 108.45625L223.79688 108.45625L223.79688 109.3L222.4375 109.3L222.4375 114.8L221.35938 114.8ZM230.89062 109.425Q230.64062 109.39375 230.35938 109.39375Q229.28125 109.39375 228.90625 110.3L228.90625 114.8L227.82812 114.8L227.82812 108.45625L228.875 108.45625L228.89062 109.19063Q229.42188 108.34688 230.40625 108.34688Q230.71875 108.34688 230.89062 108.425L230.89062 109.425ZM234.45312 114.925Q233.15625 114.925 232.34375 114.08125Q231.54688 113.22188 231.54688 111.8L231.54688 111.6125Q231.54688 110.65938 231.90625 109.925Q232.26562 109.175 232.90625 108.76875Q233.5625 108.34688 234.3125 108.34688Q235.54688 108.34688 236.23438 109.15938Q236.92188 109.97188 236.92188 111.4875L236.92188 111.94063L232.625 111.94063Q232.65625 112.87813 233.17188 113.45625Q233.70312 114.03438 234.51562 114.03438Q235.07812 114.03438 235.46875 113.8Q235.875 113.56563 236.1875 113.175L236.84375 113.69063Q236.04688 114.925 234.45312 114.925ZM234.3125 109.2375Q233.65625 109.2375 233.20312 109.72188Q232.76562 110.19063 232.67188 111.05L235.84375 111.05L235.84375 110.97188Q235.79688 110.14375 235.39062 109.69063Q235.0 109.2375 234.3125 109.2375ZM239.90625 113.33125L241.48438 108.45625L242.59375 108.45625L240.3125 114.8L239.48438 114.8L237.1875 108.45625L238.29688 108.45625L239.90625 113.33125ZM245.0 114.8L243.92188 114.8L243.92188 108.45625L245.0 108.45625L245.0 114.8ZM243.82812 106.78438Q243.82812 106.51875 243.98438 106.33125Q244.15625 106.14375 244.46875 106.14375Q244.78125 106.14375 244.9375 106.33125Q245.10938 106.51875 245.10938 106.78438Q245.10938 107.03438 244.9375 107.22188Q244.78125 107.39375 244.46875 107.39375Q244.15625 107.39375 243.98438 107.22188Q243.82812 107.03438 243.82812 106.78438ZM249.45312 114.925Q248.15625 114.925 247.34375 114.08125Q246.54688 113.22188 246.54688 111.8L246.54688 111.6125Q246.54688 110.65938 246.90625 109.925Q247.26562 109.175 247.90625 108.76875Q248.5625 108.34688 249.3125 108.34688Q250.54688 108.34688 251.23438 109.15938Q251.92188 109.97188 251.92188 111.4875L251.92188 111.94063L247.625 111.94063Q247.65625 112.87813 248.17188 113.45625Q248.70312 114.03438 249.51562 114.03438Q250.07812 114.03438 250.46875 113.8Q250.875 113.56563 251.1875 113.175L251.84375 113.69063Q251.04688 114.925 249.45312 114.925ZM249.3125 109.2375Q248.65625 109.2375 248.20312 109.72188Q247.76562 110.19063 247.67188 111.05L250.84375 111.05L250.84375 110.97188Q250.79688 110.14375 250.39062 109.69063Q250.0 109.2375 249.3125 109.2375ZM258.4375 113.3L259.65625 108.45625L260.73438 108.45625L258.89062 114.8L258.01562 114.8L256.46875 109.9875L254.96875 114.8L254.09375 114.8L252.25 108.45625L253.32812 108.45625L254.57812 113.20625L256.0625 108.45625L256.92188 108.45625L258.4375 113.3ZM267.35938 114.03438Q267.9375 114.03438 268.375 113.69063Q268.8125 113.33125 268.85938 112.8L269.89062 112.8Q269.85938 113.34688 269.5 113.84688Q269.15625 114.33125 268.57812 114.62813Q268.01562 114.925 267.35938 114.925Q266.0625 114.925 265.29688 114.06563Q264.54688 113.19063 264.54688 111.69063L264.54688 111.50313Q264.54688 110.58125 264.875 109.8625Q265.21875 109.14375 265.84375 108.75313Q266.48438 108.34688 267.35938 108.34688Q268.42188 108.34688 269.125 108.9875Q269.84375 109.6125 269.89062 110.64375L268.85938 110.64375Q268.8125 110.01875 268.39062 109.62813Q267.96875 109.2375 267.35938 109.2375Q266.53125 109.2375 266.07812 109.83125Q265.625 110.425 265.625 111.55L265.625 111.75313Q265.625 112.84688 266.07812 113.44063Q266.53125 114.03438 267.35938 114.03438ZM270.53125 111.56563Q270.53125 110.64375 270.89062 109.89375Q271.26562 109.14375 271.92188 108.75313Q272.57812 108.34688 273.40625 108.34688Q274.70312 108.34688 275.5 109.2375Q276.3125 110.12813 276.3125 111.62813L276.3125 111.70625Q276.3125 112.62813 275.95312 113.3625Q275.59375 114.09688 274.9375 114.51875Q274.28125 114.925 273.42188 114.925Q272.14062 114.925 271.32812 114.03438Q270.53125 113.12813 270.53125 111.64375L270.53125 111.56563ZM271.625 111.70625Q271.625 112.75313 272.10938 113.39375Q272.60938 114.03438 273.42188 114.03438Q274.25 114.03438 274.73438 113.39375Q275.21875 112.7375 275.21875 111.56563Q275.21875 110.53438 274.71875 109.89375Q274.23438 109.2375 273.40625 109.2375Q272.60938 109.2375 272.10938 109.87813Q271.625 110.50313 271.625 111.70625ZM278.84375 108.45625L278.875 109.15938Q279.5625 108.34688 280.75 108.34688Q282.07812 108.34688 282.5625 109.3625Q282.875 108.90938 283.375 108.62813Q283.89062 108.34688 284.57812 108.34688Q286.67188 108.34688 286.70312 110.55L286.70312 114.8L285.625 114.8L285.625 110.6125Q285.625 109.94063 285.3125 109.6125Q285.0 109.26875 284.26562 109.26875Q283.65625 109.26875 283.25 109.62813Q282.85938 109.9875 282.79688 110.59688L282.79688 114.8L281.71875 114.8L281.71875 110.64375Q281.71875 109.26875 280.35938 109.26875Q279.29688 109.26875 278.90625 110.175L278.90625 114.8L277.8125 114.8L277.8125 108.45625L278.84375 108.45625ZM289.84375 108.45625L289.875 109.15938Q290.5625 108.34688 291.75 108.34688Q293.07812 108.34688 293.5625 109.3625Q293.875 108.90938 294.375 108.62813Q294.89062 108.34688 295.57812 108.34688Q297.67188 108.34688 297.70312 110.55L297.70312 114.8L296.625 114.8L296.625 110.6125Q296.625 109.94063 296.3125 109.6125Q296.0 109.26875 295.26562 109.26875Q294.65625 109.26875 294.25 109.62813Q293.85938 109.9875 293.79688 110.59688L293.79688 114.8L292.71875 114.8L292.71875 110.64375Q292.71875 109.26875 291.35938 109.26875Q290.29688 109.26875 289.90625 110.175L289.90625 114.8L288.8125 114.8L288.8125 108.45625L289.84375 108.45625ZM302.45312 114.925Q301.15625 114.925 300.34375 114.08125Q299.54688 113.22188 299.54688 111.8L299.54688 111.6125Q299.54688 110.65938 299.90625 109.925Q300.26562 109.175 300.90625 108.76875Q301.5625 108.34688 302.3125 108.34688Q303.54688 108.34688 304.23438 109.15938Q304.92188 109.97188 304.92188 111.4875L304.92188 111.94063L300.625 111.94063Q300.65625 112.87813 301.17188 113.45625Q301.70312 114.03438 302.51562 114.03438Q303.07812 114.03438 303.46875 113.8Q303.875 113.56563 304.1875 113.175L304.84375 113.69063Q304.04688 114.925 302.45312 114.925ZM302.3125 109.2375Q301.65625 109.2375 301.20312 109.72188Q300.76562 110.19063 300.67188 111.05L303.84375 111.05L303.84375 110.97188Q303.79688 110.14375 303.39062 109.69063Q303.0 109.2375 302.3125 109.2375ZM306.84375 108.45625L306.875 109.25313Q307.60938 108.34688 308.78125 108.34688Q310.79688 108.34688 310.8125 110.6125L310.8125 114.8L309.71875 114.8L309.71875 110.59688Q309.71875 109.925 309.40625 109.59688Q309.10938 109.26875 308.45312 109.26875Q307.92188 109.26875 307.51562 109.55Q307.125 109.83125 306.90625 110.28438L306.90625 114.8L305.82812 114.8L305.82812 108.45625L306.84375 108.45625ZM314.29688 106.925L314.29688 108.45625L315.46875 108.45625L315.46875 109.3L314.29688 109.3L314.29688 113.22188Q314.29688 113.6125 314.45312 113.8Q314.60938 113.9875 314.98438 113.9875Q315.17188 113.9875 315.5 113.925L315.5 114.8Q315.07812 114.925 314.67188 114.925Q313.95312 114.925 313.57812 114.4875Q313.20312 114.03438 313.20312 113.22188L313.20312 109.3L312.04688 109.3L312.04688 108.45625L313.20312 108.45625L313.20312 106.925L314.29688 106.925ZM321.29688 106.925L321.29688 108.45625L322.46875 108.45625L322.46875 109.3L321.29688 109.3L321.29688 113.22188Q321.29688 113.6125 321.45312 113.8Q321.60938 113.9875 321.98438 113.9875Q322.17188 113.9875 322.5 113.925L322.5 114.8Q322.07812 114.925 321.67188 114.925Q320.95312 114.925 320.57812 114.4875Q320.20312 114.03438 320.20312 113.22188L320.20312 109.3L319.04688 109.3L319.04688 108.45625L320.20312 108.45625L320.20312 106.925L321.29688 106.925ZM325.89062 113.20625L327.375 108.45625L328.53125 108.45625L325.98438 115.78438Q325.39062 117.3625 324.10938 117.3625L323.89062 117.34688L323.5 117.26875L323.5 116.39375L323.78125 116.40938Q324.34375 116.40938 324.64062 116.19063Q324.95312 115.97188 325.15625 115.37813L325.39062 114.72188L323.125 108.45625L324.3125 108.45625L325.89062 113.20625ZM335.17188 111.70625Q335.17188 113.14375 334.51562 114.03438Q333.85938 114.925 332.71875 114.925Q331.5625 114.925 330.90625 114.19063L330.90625 117.2375L329.82812 117.2375L329.82812 108.45625L330.8125 108.45625L330.85938 109.15938Q331.53125 108.34688 332.70312 108.34688Q333.84375 108.34688 334.5 109.20625Q335.17188 110.06563 335.17188 111.59688L335.17188 111.70625ZM334.09375 111.58125Q334.09375 110.50313 333.625 109.89375Q333.17188 109.26875 332.375 109.26875Q331.39062 109.26875 330.90625 110.12813L330.90625 113.15938Q331.39062 114.03438 332.39062 114.03438Q333.17188 114.03438 333.625 113.425Q334.09375 112.8 334.09375 111.58125ZM339.45312 114.925Q338.15625 114.925 337.34375 114.08125Q336.54688 113.22188 336.54688 111.8L336.54688 111.6125Q336.54688 110.65938 336.90625 109.925Q337.26562 109.175 337.90625 108.76875Q338.5625 108.34688 339.3125 108.34688Q340.54688 108.34688 341.23438 109.15938Q341.92188 109.97188 341.92188 111.4875L341.92188 111.94063L337.625 111.94063Q337.65625 112.87813 338.17188 113.45625Q338.70312 114.03438 339.51562 114.03438Q340.07812 114.03438 340.46875 113.8Q340.875 113.56563 341.1875 113.175L341.84375 113.69063Q341.04688 114.925 339.45312 114.925ZM339.3125 109.2375Q338.65625 109.2375 338.20312 109.72188Q337.76562 110.19063 337.67188 111.05L340.84375 111.05L340.84375 110.97188Q340.79688 110.14375 340.39062 109.69063Q340.0 109.2375 339.3125 109.2375ZM346.51562 113.1125Q346.51562 112.675 346.17188 112.44063Q345.84375 112.19063 345.01562 112.01875Q344.20312 111.84688 343.71875 111.59688Q343.23438 111.34688 343.0 111.01875Q342.78125 110.675 342.78125 110.20625Q342.78125 109.425 343.4375 108.89375Q344.09375 108.34688 345.125 108.34688Q346.20312 108.34688 346.85938 108.90938Q347.53125 109.45625 347.53125 110.31563L346.45312 110.31563Q346.45312 109.87813 346.0625 109.56563Q345.6875 109.2375 345.125 109.2375Q344.53125 109.2375 344.1875 109.50313Q343.85938 109.75313 343.85938 110.15938Q343.85938 110.55 344.17188 110.75313Q344.48438 110.95625 345.29688 111.14375Q346.10938 111.31563 346.60938 111.56563Q347.10938 111.81563 347.34375 112.175Q347.59375 112.53438 347.59375 113.03438Q347.59375 113.89375 346.90625 114.40938Q346.23438 114.925 345.15625 114.925Q344.39062 114.925 343.79688 114.65938Q343.21875 114.37813 342.89062 113.89375Q342.5625 113.40938 342.5625 112.84688L343.64062 112.84688Q343.67188 113.39375 344.07812 113.72188Q344.48438 114.03438 345.15625 114.03438Q345.76562 114.03438 346.14062 113.78438Q346.51562 113.53438 346.51562 113.1125Z" fill-rule="nonzero"/><path fill="#757575" d="M34.934376 22.30597Q34.840626 22.11847 34.778126 21.634094Q34.028126 22.43097 32.98125 22.43097Q32.04375 22.43097 31.434376 21.89972Q30.840626 21.36847 30.840626 20.540344Q30.840626 19.55597 31.590626 19.009094Q32.340626 18.46222 33.715626 18.46222L34.7625 18.46222L34.7625 17.96222Q34.7625 17.39972 34.41875 17.071594Q34.090626 16.727844 33.41875 16.727844Q32.840626 16.727844 32.45 17.02472Q32.059376 17.30597 32.059376 17.727844L30.965626 17.727844Q30.965626 17.24347 31.29375 16.80597Q31.6375 16.36847 32.215626 16.11847Q32.79375 15.852844 33.48125 15.852844Q34.590626 15.852844 35.2 16.39972Q35.825 16.946594 35.85625 17.89972L35.85625 20.821594Q35.85625 21.696594 36.075 22.21222L36.075 22.30597L34.934376 22.30597ZM33.1375 21.477844Q33.653126 21.477844 34.10625 21.21222Q34.559376 20.946594 34.7625 20.52472L34.7625 19.227844L33.91875 19.227844Q31.91875 19.227844 31.91875 20.39972Q31.91875 20.89972 32.2625 21.196594Q32.60625 21.477844 33.1375 21.477844ZM41.090626 16.93097Q40.840626 16.89972 40.559376 16.89972Q39.48125 16.89972 39.10625 17.80597L39.10625 22.30597L38.028126 22.30597L38.028126 15.962219L39.075 15.962219L39.090626 16.696594Q39.621876 15.852844 40.60625 15.852844Q40.91875 15.852844 41.090626 15.930969L41.090626 16.93097ZM43.496876 14.430969L43.496876 15.962219L44.66875 15.962219L44.66875 16.80597L43.496876 16.80597L43.496876 20.727844Q43.496876 21.11847 43.653126 21.30597Q43.809376 21.49347 44.184376 21.49347Q44.371876 21.49347 44.7 21.43097L44.7 22.30597Q44.278126 22.43097 43.871876 22.43097Q43.153126 22.43097 42.778126 21.99347Q42.403126 21.540344 42.403126 20.727844L42.403126 16.80597L41.246876 16.80597L41.246876 15.962219L42.403126 15.962219L42.403126 14.430969L43.496876 14.430969ZM47.2 22.30597L46.121876 22.30597L46.121876 15.962219L47.2 15.962219L47.2 22.30597ZM46.028126 14.290344Q46.028126 14.024719 46.184376 13.837219Q46.35625 13.649719 46.66875 13.649719Q46.98125 13.649719 47.1375 13.837219Q47.309376 14.024719 47.309376 14.290344Q47.309376 14.540344 47.1375 14.727844Q46.98125 14.899719 46.66875 14.899719Q46.35625 14.899719 46.184376 14.727844Q46.028126 14.540344 46.028126 14.290344ZM51.559376 21.540344Q52.1375 21.540344 52.575 21.196594Q53.0125 20.83722 53.059376 20.30597L54.090626 20.30597Q54.059376 20.852844 53.7 21.352844Q53.35625 21.83722 52.778126 22.134094Q52.215626 22.43097 51.559376 22.43097Q50.2625 22.43097 49.496876 21.571594Q48.746876 20.696594 48.746876 19.196594L48.746876 19.009094Q48.746876 18.08722 49.075 17.36847Q49.41875 16.64972 50.04375 16.259094Q50.684376 15.852844 51.559376 15.852844Q52.621876 15.852844 53.325 16.49347Q54.04375 17.11847 54.090626 18.14972L53.059376 18.14972Q53.0125 17.52472 52.590626 17.134094Q52.16875 16.74347 51.559376 16.74347Q50.73125 16.74347 50.278126 17.33722Q49.825 17.93097 49.825 19.05597L49.825 19.259094Q49.825 20.352844 50.278126 20.946594Q50.73125 21.540344 51.559376 21.540344ZM56.2 22.30597L55.121876 22.30597L55.121876 13.305969L56.2 13.305969L56.2 22.30597ZM60.653126 22.43097Q59.35625 22.43097 58.54375 21.58722Q57.746876 20.727844 57.746876 19.30597L57.746876 19.11847Q57.746876 18.165344 58.10625 17.43097Q58.465626 16.68097 59.10625 16.27472Q59.7625 15.852844 60.5125 15.852844Q61.746876 15.852844 62.434376 16.665344Q63.121876 17.477844 63.121876 18.99347L63.121876 19.446594L58.825 19.446594Q58.85625 20.384094 59.371876 20.96222Q59.903126 21.540344 60.715626 21.540344Q61.278126 21.540344 61.66875 21.30597Q62.075 21.071594 62.3875 20.68097L63.04375 21.196594Q62.246876 22.43097 60.653126 22.43097ZM60.5125 16.74347Q59.85625 16.74347 59.403126 17.227844Q58.965626 17.696594 58.871876 18.55597L62.04375 18.55597L62.04375 18.477844Q61.996876 17.64972 61.590626 17.196594Q61.2 16.74347 60.5125 16.74347Z" fill-rule="nonzero"/><path fill="#757575" d="M28.715626 37.8125Q28.715626 37.375 28.371876 37.140625Q28.04375 36.890625 27.215626 36.71875Q26.403126 36.546875 25.91875 36.296875Q25.434376 36.046875 25.2 35.71875Q24.98125 35.375 24.98125 34.90625Q24.98125 34.125 25.6375 33.59375Q26.29375 33.046875 27.325 33.046875Q28.403126 33.046875 29.059376 33.609375Q29.73125 34.15625 29.73125 35.015625L28.653126 35.015625Q28.653126 34.578125 28.2625 34.265625Q27.8875 33.9375 27.325 33.9375Q26.73125 33.9375 26.3875 34.203125Q26.059376 34.453125 26.059376 34.859375Q26.059376 35.25 26.371876 35.453125Q26.684376 35.65625 27.496876 35.84375Q28.309376 36.015625 28.809376 36.265625Q29.309376 36.515625 29.54375 36.875Q29.79375 37.234375 29.79375 37.734375Q29.79375 38.59375 29.10625 39.109375Q28.434376 39.625 27.35625 39.625Q26.590626 39.625 25.996876 39.359375Q25.41875 39.078125 25.090626 38.59375Q24.7625 38.109375 24.7625 37.546875L25.840626 37.546875Q25.871876 38.09375 26.278126 38.421875Q26.684376 38.734375 27.35625 38.734375Q27.965626 38.734375 28.340626 38.484375Q28.715626 38.234375 28.715626 37.8125ZM33.653126 39.625Q32.35625 39.625 31.54375 38.78125Q30.746876 37.921875 30.746876 36.5L30.746876 36.3125Q30.746876 35.359375 31.10625 34.625Q31.465626 33.875 32.10625 33.46875Q32.7625 33.046875 33.5125 33.046875Q34.746876 33.046875 35.434376 33.859375Q36.121876 34.671875 36.121876 36.1875L36.121876 36.640625L31.825 36.640625Q31.85625 37.578125 32.371876 38.15625Q32.903126 38.734375 33.715626 38.734375Q34.278126 38.734375 34.66875 38.5Q35.075 38.265625 35.3875 37.875L36.04375 38.390625Q35.246876 39.625 33.653126 39.625ZM33.5125 33.9375Q32.85625 33.9375 32.403126 34.421875Q31.965626 34.890625 31.871876 35.75L35.04375 35.75L35.04375 35.671875Q34.996876 34.84375 34.590626 34.390625Q34.2 33.9375 33.5125 33.9375ZM39.559376 38.734375Q40.1375 38.734375 40.575 38.390625Q41.0125 38.03125 41.059376 37.5L42.090626 37.5Q42.059376 38.046875 41.7 38.546875Q41.35625 39.03125 40.778126 39.328125Q40.215626 39.625 39.559376 39.625Q38.2625 39.625 37.496876 38.765625Q36.746876 37.890625 36.746876 36.390625L36.746876 36.203125Q36.746876 35.28125 37.075 34.5625Q37.41875 33.84375 38.04375 33.453125Q38.684376 33.046875 39.559376 33.046875Q40.621876 33.046875 41.325 33.6875Q42.04375 34.3125 42.090626 35.34375L41.059376 35.34375Q41.0125 34.71875 40.590626 34.328125Q40.16875 33.9375 39.559376 33.9375Q38.73125 33.9375 38.278126 34.53125Q37.825 35.125 37.825 36.25L37.825 36.453125Q37.825 37.546875 38.278126 38.140625Q38.73125 38.734375 39.559376 38.734375ZM44.496876 31.625L44.496876 33.15625L45.66875 33.15625L45.66875 34.0L44.496876 34.0L44.496876 37.921875Q44.496876 38.3125 44.653126 38.5Q44.809376 38.6875 45.184376 38.6875Q45.371876 38.6875 45.7 38.625L45.7 39.5Q45.278126 39.625 44.871876 39.625Q44.153126 39.625 43.778126 39.1875Q43.403126 38.734375 43.403126 37.921875L43.403126 34.0L42.246876 34.0L42.246876 33.15625L43.403126 33.15625L43.403126 31.625L44.496876 31.625ZM48.2 39.5L47.121876 39.5L47.121876 33.15625L48.2 33.15625L48.2 39.5ZM47.028126 31.484375Q47.028126 31.21875 47.184376 31.03125Q47.35625 30.84375 47.66875 30.84375Q47.98125 30.84375 48.1375 31.03125Q48.309376 31.21875 48.309376 31.484375Q48.309376 31.734375 48.1375 31.921875Q47.98125 32.09375 47.66875 32.09375Q47.35625 32.09375 47.184376 31.921875Q47.028126 31.734375 47.028126 31.484375ZM49.73125 36.265625Q49.73125 35.34375 50.090626 34.59375Q50.465626 33.84375 51.121876 33.453125Q51.778126 33.046875 52.60625 33.046875Q53.903126 33.046875 54.7 33.9375Q55.5125 34.828125 55.5125 36.328125L55.5125 36.40625Q55.5125 37.328125 55.153126 38.0625Q54.79375 38.796875 54.1375 39.21875Q53.48125 39.625 52.621876 39.625Q51.340626 39.625 50.528126 38.734375Q49.73125 37.828125 49.73125 36.34375L49.73125 36.265625ZM50.825 36.40625Q50.825 37.453125 51.309376 38.09375Q51.809376 38.734375 52.621876 38.734375Q53.45 38.734375 53.934376 38.09375Q54.41875 37.4375 54.41875 36.265625Q54.41875 35.234375 53.91875 34.59375Q53.434376 33.9375 52.60625 33.9375Q51.809376 33.9375 51.309376 34.578125Q50.825 35.203125 50.825 36.40625ZM58.04375 33.15625L58.075 33.953125Q58.809376 33.046875 59.98125 33.046875Q61.996876 33.046875 62.0125 35.3125L62.0125 39.5L60.91875 39.5L60.91875 35.296875Q60.91875 34.625 60.60625 34.296875Q60.309376 33.96875 59.653126 33.96875Q59.121876 33.96875 58.715626 34.25Q58.325 34.53125 58.10625 34.984375L58.10625 39.5L57.028126 39.5L57.028126 33.15625L58.04375 33.15625Z" fill-rule="nonzero"/><path fill="#757575" d="M12.371875 53.60028Q12.371875 55.03778 11.715625 55.928406Q11.059375 56.81903 9.91875 56.81903Q8.7625 56.81903 8.10625 56.084656L8.10625 59.13153L7.028125 59.13153L7.028125 50.35028L8.0125 50.35028L8.059375 51.053406Q8.73125 50.240906 9.903125 50.240906Q11.04375 50.240906 11.7 51.10028Q12.371875 51.959656 12.371875 53.490906L12.371875 53.60028ZM11.29375 53.47528Q11.29375 52.397156 10.825 51.78778Q10.371875 51.16278 9.575 51.16278Q8.590625 51.16278 8.10625 52.022156L8.10625 55.053406Q8.590625 55.928406 9.590625 55.928406Q10.371875 55.928406 10.825 55.31903Q11.29375 54.69403 11.29375 53.47528ZM17.934376 56.69403Q17.840626 56.50653 17.778126 56.022156Q17.028126 56.81903 15.98125 56.81903Q15.04375 56.81903 14.434375 56.28778Q13.840625 55.75653 13.840625 54.928406Q13.840625 53.94403 14.590625 53.397156Q15.340625 52.85028 16.715626 52.85028L17.7625 52.85028L17.7625 52.35028Q17.7625 51.78778 17.41875 51.459656Q17.090626 51.115906 16.41875 51.115906Q15.840625 51.115906 15.45 51.41278Q15.059375 51.69403 15.059375 52.115906L13.965625 52.115906Q13.965625 51.63153 14.29375 51.19403Q14.6375 50.75653 15.215625 50.50653Q15.79375 50.240906 16.48125 50.240906Q17.590626 50.240906 18.2 50.78778Q18.825 51.334656 18.85625 52.28778L18.85625 55.209656Q18.85625 56.084656 19.075 56.60028L19.075 56.69403L17.934376 56.69403ZM16.1375 55.865906Q16.653126 55.865906 17.10625 55.60028Q17.559376 55.334656 17.7625 54.91278L17.7625 53.615906L16.91875 53.615906Q14.91875 53.615906 14.91875 54.78778Q14.91875 55.28778 15.2625 55.584656Q15.60625 55.865906 16.1375 55.865906ZM24.090626 51.31903Q23.840626 51.28778 23.559376 51.28778Q22.48125 51.28778 22.10625 52.19403L22.10625 56.69403L21.028126 56.69403L21.028126 50.35028L22.075 50.35028L22.090626 51.084656Q22.621876 50.240906 23.60625 50.240906Q23.91875 50.240906 24.090626 50.31903L24.090626 51.31903ZM28.934376 56.69403Q28.840626 56.50653 28.778126 56.022156Q28.028126 56.81903 26.98125 56.81903Q26.04375 56.81903 25.434376 56.28778Q24.840626 55.75653 24.840626 54.928406Q24.840626 53.94403 25.590626 53.397156Q26.340626 52.85028 27.715626 52.85028L28.7625 52.85028L28.7625 52.35028Q28.7625 51.78778 28.41875 51.459656Q28.090626 51.115906 27.41875 51.115906Q26.840626 51.115906 26.45 51.41278Q26.059376 51.69403 26.059376 52.115906L24.965626 52.115906Q24.965626 51.63153 25.29375 51.19403Q25.6375 50.75653 26.215626 50.50653Q26.79375 50.240906 27.48125 50.240906Q28.590626 50.240906 29.2 50.78778Q29.825 51.334656 29.85625 52.28778L29.85625 55.209656Q29.85625 56.084656 30.075 56.60028L30.075 56.69403L28.934376 56.69403ZM27.1375 55.865906Q27.653126 55.865906 28.10625 55.60028Q28.559376 55.334656 28.7625 54.91278L28.7625 53.615906L27.91875 53.615906Q25.91875 53.615906 25.91875 54.78778Q25.91875 55.28778 26.2625 55.584656Q26.60625 55.865906 27.1375 55.865906ZM31.7625 53.47528Q31.7625 51.990906 32.45 51.115906Q33.1375 50.240906 34.2625 50.240906Q35.41875 50.240906 36.075 51.053406L36.121876 50.35028L37.121876 50.35028L37.121876 56.53778Q37.121876 57.772156 36.3875 58.47528Q35.653126 59.19403 34.434376 59.19403Q33.746876 59.19403 33.090626 58.897156Q32.434376 58.60028 32.090626 58.10028L32.653126 57.44403Q33.340626 58.303406 34.35625 58.303406Q35.1375 58.303406 35.575 57.85028Q36.028126 57.41278 36.028126 56.60028L36.028126 56.053406Q35.371876 56.81903 34.246876 56.81903Q33.1375 56.81903 32.45 55.928406Q31.7625 55.022156 31.7625 53.47528ZM32.85625 53.60028Q32.85625 54.66278 33.29375 55.28778Q33.73125 55.897156 34.528126 55.897156Q35.54375 55.897156 36.028126 54.959656L36.028126 52.06903Q35.528126 51.16278 34.528126 51.16278Q33.746876 51.16278 33.29375 51.772156Q32.85625 52.38153 32.85625 53.60028ZM42.090626 51.31903Q41.840626 51.28778 41.559376 51.28778Q40.48125 51.28778 40.10625 52.19403L40.10625 56.69403L39.028126 56.69403L39.028126 50.35028L40.075 50.35028L40.090626 51.084656Q40.621876 50.240906 41.60625 50.240906Q41.91875 50.240906 42.090626 50.31903L42.090626 51.31903ZM46.934376 56.69403Q46.840626 56.50653 46.778126 56.022156Q46.028126 56.81903 44.98125 56.81903Q44.04375 56.81903 43.434376 56.28778Q42.840626 55.75653 42.840626 54.928406Q42.840626 53.94403 43.590626 53.397156Q44.340626 52.85028 45.715626 52.85028L46.7625 52.85028L46.7625 52.35028Q46.7625 51.78778 46.41875 51.459656Q46.090626 51.115906 45.41875 51.115906Q44.840626 51.115906 44.45 51.41278Q44.059376 51.69403 44.059376 52.115906L42.965626 52.115906Q42.965626 51.63153 43.29375 51.19403Q43.6375 50.75653 44.215626 50.50653Q44.79375 50.240906 45.48125 50.240906Q46.590626 50.240906 47.2 50.78778Q47.825 51.334656 47.85625 52.28778L47.85625 55.209656Q47.85625 56.084656 48.075 56.60028L48.075 56.69403L46.934376 56.69403ZM45.1375 55.865906Q45.653126 55.865906 46.10625 55.60028Q46.559376 55.334656 46.7625 54.91278L46.7625 53.615906L45.91875 53.615906Q43.91875 53.615906 43.91875 54.78778Q43.91875 55.28778 44.2625 55.584656Q44.60625 55.865906 45.1375 55.865906ZM55.371876 53.60028Q55.371876 55.03778 54.715626 55.928406Q54.059376 56.81903 52.91875 56.81903Q51.7625 56.81903 51.10625 56.084656L51.10625 59.13153L50.028126 59.13153L50.028126 50.35028L51.0125 50.35028L51.059376 51.053406Q51.73125 50.240906 52.903126 50.240906Q54.04375 50.240906 54.7 51.10028Q55.371876 51.959656 55.371876 53.490906L55.371876 53.60028ZM54.29375 53.47528Q54.29375 52.397156 53.825 51.78778Q53.371876 51.16278 52.575 51.16278Q51.590626 51.16278 51.10625 52.022156L51.10625 55.053406Q51.590626 55.928406 52.590626 55.928406Q53.371876 55.928406 53.825 55.31903Q54.29375 54.69403 54.29375 53.47528ZM58.10625 51.115906Q58.825 50.240906 59.98125 50.240906Q61.996876 50.240906 62.0125 52.50653L62.0125 56.69403L60.91875 56.69403L60.91875 52.490906Q60.91875 51.81903 60.60625 51.490906Q60.309376 51.16278 59.653126 51.16278Q59.121876 51.16278 58.715626 51.44403Q58.325 51.72528 58.10625 52.178406L58.10625 56.69403L57.028126 56.69403L57.028126 47.69403L58.10625 47.69403L58.10625 51.115906Z" fill-rule="nonzero"/><path fill="#757575" d="M71.7625 78.15938Q71.7625 80.06563 71.10625 81.00313Q70.46562 81.925 69.075 81.925Q67.71562 81.925 67.05937 81.01875Q66.40312 80.1125 66.37187 78.3L66.37187 76.8625Q66.37187 74.97188 67.0125 74.06563Q67.66875 73.14375 69.05937 73.14375Q70.43437 73.14375 71.09062 74.03438Q71.74687 74.90938 71.7625 76.75313L71.7625 78.15938ZM70.66875 76.675Q70.66875 75.3 70.27812 74.675Q69.90312 74.03438 69.05937 74.03438Q68.23125 74.03438 67.84062 74.675Q67.46562 75.3 67.46562 76.59688L67.46562 78.33125Q67.46562 79.70625 67.85625 80.37813Q68.2625 81.03438 69.075 81.03438Q69.87187 81.03438 70.2625 80.40938Q70.65312 79.78438 70.66875 78.45625L70.66875 76.675Z" fill-rule="nonzero"/><path fill="#757575" d="M145.0825 78.15938Q145.0825 80.06563 144.42625 81.00313Q143.78563 81.925 142.395 81.925Q141.03563 81.925 140.37938 81.01875Q139.72313 80.1125 139.69188 78.3L139.69188 76.8625Q139.69188 74.97188 140.3325 74.06563Q140.98875 73.14375 142.37938 73.14375Q143.75438 73.14375 144.41063 74.03438Q145.06688 74.90938 145.0825 76.75313L145.0825 78.15938ZM143.98875 76.675Q143.98875 75.3 143.59813 74.675Q143.22313 74.03438 142.37938 74.03438Q141.55125 74.03438 141.16063 74.675Q140.78563 75.3 140.78563 76.59688L140.78563 78.33125Q140.78563 79.70625 141.17625 80.37813Q141.5825 81.03438 142.395 81.03438Q143.19188 81.03438 143.5825 80.40938Q143.97313 79.78438 143.98875 78.45625L143.98875 76.675ZM146.86375 81.2375Q146.86375 80.95625 147.02 80.76875Q147.19188 80.58125 147.52 80.58125Q147.86375 80.58125 148.03563 80.76875Q148.2075 80.95625 148.2075 81.2375Q148.2075 81.50313 148.03563 81.69063Q147.86375 81.8625 147.52 81.8625Q147.19188 81.8625 147.02 81.69063Q146.86375 81.50313 146.86375 81.2375ZM153.28563 81.8L152.2075 81.8L152.2075 74.58125L150.02 75.37813L150.02 74.39375L153.12938 73.22188L153.28563 73.22188L153.28563 81.8Z" fill-rule="nonzero"/><path fill="#757575" d="M223.4025 78.15938Q223.4025 80.06563 222.74625 81.00313Q222.10562 81.925 220.715 81.925Q219.35562 81.925 218.69937 81.01875Q218.04312 80.1125 218.01187 78.3L218.01187 76.8625Q218.01187 74.97188 218.6525 74.06563Q219.30875 73.14375 220.69937 73.14375Q222.07437 73.14375 222.73062 74.03438Q223.38687 74.90938 223.4025 76.75313L223.4025 78.15938ZM222.30875 76.675Q222.30875 75.3 221.91812 74.675Q221.54312 74.03438 220.69937 74.03438Q219.87125 74.03438 219.48062 74.675Q219.10562 75.3 219.10562 76.59688L219.10562 78.33125Q219.10562 79.70625 219.49625 80.37813Q219.9025 81.03438 220.715 81.03438Q221.51187 81.03438 221.9025 80.40938Q222.29312 79.78438 222.30875 78.45625L222.30875 76.675ZM225.18375 81.2375Q225.18375 80.95625 225.34 80.76875Q225.51187 80.58125 225.84 80.58125Q226.18375 80.58125 226.35562 80.76875Q226.5275 80.95625 226.5275 81.2375Q226.5275 81.50313 226.35562 81.69063Q226.18375 81.8625 225.84 81.8625Q225.51187 81.8625 225.34 81.69063Q225.18375 81.50313 225.18375 81.2375ZM233.63687 81.8L228.04312 81.8L228.04312 81.01875L230.99625 77.7375Q231.6525 76.9875 231.9025 76.53438Q232.1525 76.06563 232.1525 75.56563Q232.1525 74.89375 231.74625 74.47188Q231.35562 74.03438 230.66812 74.03438Q229.87125 74.03438 229.41812 74.50313Q228.965 74.95625 228.965 75.78438L227.88687 75.78438Q227.88687 74.59688 228.63687 73.87813Q229.4025 73.14375 230.66812 73.14375Q231.87125 73.14375 232.55875 73.76875Q233.24625 74.39375 233.24625 75.44063Q233.24625 76.69063 231.63687 78.44063L229.35562 80.90938L233.63687 80.90938L233.63687 81.8Z" fill-rule="nonzero"/><path fill="#757575" d="M301.7225 78.15938Q301.7225 80.06563 301.06625 81.00313Q300.42563 81.925 299.035 81.925Q297.67563 81.925 297.01938 81.01875Q296.36313 80.1125 296.33188 78.3L296.33188 76.8625Q296.33188 74.97188 296.9725 74.06563Q297.62875 73.14375 299.01938 73.14375Q300.39438 73.14375 301.05063 74.03438Q301.70688 74.90938 301.7225 76.75313L301.7225 78.15938ZM300.62875 76.675Q300.62875 75.3 300.23813 74.675Q299.86313 74.03438 299.01938 74.03438Q298.19125 74.03438 297.80063 74.675Q297.42563 75.3 297.42563 76.59688L297.42563 78.33125Q297.42563 79.70625 297.81625 80.37813Q298.2225 81.03438 299.035 81.03438Q299.83188 81.03438 300.2225 80.40938Q300.61313 79.78438 300.62875 78.45625L300.62875 76.675ZM303.50375 81.2375Q303.50375 80.95625 303.66 80.76875Q303.83188 80.58125 304.16 80.58125Q304.50375 80.58125 304.67563 80.76875Q304.8475 80.95625 304.8475 81.2375Q304.8475 81.50313 304.67563 81.69063Q304.50375 81.8625 304.16 81.8625Q303.83188 81.8625 303.66 81.69063Q303.50375 81.50313 303.50375 81.2375ZM307.94125 77.00313L308.75375 77.00313Q309.535 76.9875 309.9725 76.59688Q310.41 76.20625 310.41 75.53438Q310.41 74.03438 308.91 74.03438Q308.20688 74.03438 307.785 74.44063Q307.37875 74.84688 307.37875 75.50313L306.285 75.50313Q306.285 74.4875 307.01938 73.81563Q307.76938 73.14375 308.91 73.14375Q310.11313 73.14375 310.80063 73.78438Q311.48813 74.425 311.48813 75.56563Q311.48813 76.12813 311.12875 76.64375Q310.76938 77.15938 310.14438 77.425Q310.8475 77.64375 311.2225 78.15938Q311.61313 78.675 311.61313 79.425Q311.61313 80.56563 310.86313 81.25313Q310.11313 81.925 308.91 81.925Q307.7225 81.925 306.95688 81.26875Q306.20688 80.6125 306.20688 79.55L307.30063 79.55Q307.30063 80.22188 307.73813 80.62813Q308.17563 81.03438 308.92563 81.03438Q309.70688 81.03438 310.11313 80.62813Q310.535 80.20625 310.535 79.44063Q310.535 78.70625 310.08188 78.31563Q309.62875 77.90938 308.75375 77.89375L307.94125 77.89375L307.94125 77.00313Z" fill-rule="nonzero"/><path fill="#757575" d="M380.0425 78.15938Q380.0425 80.06563 379.38626 81.00313Q378.74564 81.925 377.355 81.925Q375.99564 81.925 375.3394 81.01875Q374.68314 80.1125 374.6519 78.3L374.6519 76.8625Q374.6519 74.97188 375.2925 74.06563Q375.94876 73.14375 377.3394 73.14375Q378.7144 73.14375 379.37064 74.03438Q380.0269 74.90938 380.0425 76.75313L380.0425 78.15938ZM378.94876 76.675Q378.94876 75.3 378.55814 74.675Q378.18314 74.03438 377.3394 74.03438Q376.51126 74.03438 376.12064 74.675Q375.74564 75.3 375.74564 76.59688L375.74564 78.33125Q375.74564 79.70625 376.13626 80.37813Q376.5425 81.03438 377.355 81.03438Q378.1519 81.03438 378.5425 80.40938Q378.93314 79.78438 378.94876 78.45625L378.94876 76.675ZM381.82376 81.2375Q381.82376 80.95625 381.98 80.76875Q382.1519 80.58125 382.48 80.58125Q382.82376 80.58125 382.99564 80.76875Q383.1675 80.95625 383.1675 81.2375Q383.1675 81.50313 382.99564 81.69063Q382.82376 81.8625 382.48 81.8625Q382.1519 81.8625 381.98 81.69063Q381.82376 81.50313 381.82376 81.2375ZM389.26126 78.94063L390.44876 78.94063L390.44876 79.81563L389.26126 79.81563L389.26126 81.8L388.18314 81.8L388.18314 79.81563L384.2925 79.81563L384.2925 79.175L388.105 73.26875L389.26126 73.26875L389.26126 78.94063ZM385.5269 78.94063L388.18314 78.94063L388.18314 74.75313L388.0425 74.9875L385.5269 78.94063Z" fill-rule="nonzero"/></svg>