<svg version="1.1" viewBox="0.0 0.0 594.0 365.0" fill="none" stroke="none" stroke-linecap="square" stroke-miterlimit="10" width="594" height="365" xmlns:xlink="http://www.w3.org/1999/xlink" xmlns="http://www.w3.org/2000/svg"><path fill="#ffffff" d="M0 0L594.0 0L594.0 365.0L0 365.0L0 0Z" fill-rule="nonzero"/><path fill="#4285f4" d="M161.23488 156.09457C181.26245 98.228714 235.76634 59.416668 297.0 59.416668L297.0 203.08333Z" fill-rule="nonzero"/><path fill="#f4b400" d="M208.19116 316.01297C160.05826 278.16083 141.20732 213.96043 161.23488 156.09457L297.0 203.08333Z" fill-rule="nonzero"/><path fill="#db4437" d="M297.0 59.416668C359.9129 59.416668 415.5075 100.35009 434.18762 160.42577C452.86774 220.50145 430.2875 285.74283 378.4676 321.4182C326.6477 357.0936 257.64404 354.90314 208.19116 316.01297L297.0 203.08333Z" fill-rule="nonzero"/><path fill="#757575" d="M28.546875 80.23542Q28.546875 82.657295 27.4375 84.14167Q26.34375 85.61042 24.453125 85.61042Q22.53125 85.61042 21.421875 84.376045L21.421875 89.469795L19.625 89.469795L19.625 74.844795L21.265625 74.844795L21.359375 76.01667Q22.453125 74.64167 24.421875 74.64167Q26.328125 74.64167 27.4375 76.07917Q28.546875 77.51667 28.546875 80.07917L28.546875 80.23542ZM26.734375 80.032295Q26.734375 78.251045 25.96875 77.219795Q25.21875 76.17292 23.890625 76.17292Q22.25 76.17292 21.421875 77.626045L21.421875 82.688545Q22.234375 84.126045 23.90625 84.126045Q25.203125 84.126045 25.96875 83.094795Q26.734375 82.063545 26.734375 80.032295ZM37.140625 85.407295Q36.984375 85.094795 36.890625 84.29792Q35.625 85.61042 33.875 85.61042Q32.3125 85.61042 31.3125 84.719795Q30.3125 83.82917 30.3125 82.469795Q30.3125 80.82917 31.5625 79.92292Q32.828125 79.001045 35.09375 79.001045L36.859375 79.001045L36.859375 78.17292Q36.859375 77.219795 36.28125 76.657295Q35.71875 76.094795 34.625 76.094795Q33.65625 76.094795 33.0 76.594795Q32.34375 77.07917 32.34375 77.76667L30.53125 77.76667Q30.53125 76.98542 31.09375 76.251045Q31.65625 75.501045 32.609375 75.07917Q33.578125 74.64167 34.734375 74.64167Q36.5625 74.64167 37.59375 75.563545Q38.625 76.469795 38.671875 78.07917L38.671875 82.938545Q38.671875 84.39167 39.03125 85.251045L39.03125 85.407295L37.140625 85.407295ZM34.140625 84.032295Q35.0 84.032295 35.75 83.594795Q36.515625 83.157295 36.859375 82.45417L36.859375 80.282295L35.4375 80.282295Q32.125 80.282295 32.125 82.219795Q32.125 83.07917 32.6875 83.563545Q33.25 84.032295 34.140625 84.032295ZM46.71875 76.45417Q46.3125 76.39167 45.84375 76.39167Q44.0625 76.39167 43.421875 77.907295L43.421875 85.407295L41.625 85.407295L41.625 74.844795L43.375 74.844795L43.40625 76.063545Q44.296875 74.64167 45.921875 74.64167Q46.453125 74.64167 46.71875 74.782295L46.71875 76.45417ZM55.140625 85.407295Q54.984375 85.094795 54.890625 84.29792Q53.625 85.61042 51.875 85.61042Q50.3125 85.61042 49.3125 84.719795Q48.3125 83.82917 48.3125 82.469795Q48.3125 80.82917 49.5625 79.92292Q50.828125 79.001045 53.09375 79.001045L54.859375 79.001045L54.859375 78.17292Q54.859375 77.219795 54.28125 76.657295Q53.71875 76.094795 52.625 76.094795Q51.65625 76.094795 51.0 76.594795Q50.34375 77.07917 50.34375 77.76667L48.53125 77.76667Q48.53125 76.98542 49.09375 76.251045Q49.65625 75.501045 50.609375 75.07917Q51.578125 74.64167 52.734375 74.64167Q54.5625 74.64167 55.59375 75.563545Q56.625 76.469795 56.671875 78.07917L56.671875 82.938545Q56.671875 84.39167 57.03125 85.251045L57.03125 85.407295L55.140625 85.407295ZM52.140625 84.032295Q53.0 84.032295 53.75 83.594795Q54.515625 83.157295 54.859375 82.45417L54.859375 80.282295L53.4375 80.282295Q50.125 80.282295 50.125 82.219795Q50.125 83.07917 50.6875 83.563545Q51.25 84.032295 52.140625 84.032295ZM59.1875 80.032295Q59.1875 77.563545 60.328125 76.11042Q61.46875 74.64167 63.359375 74.64167Q65.296875 74.64167 66.375 76.01667L66.46875 74.844795L68.109375 74.844795L68.109375 85.157295Q68.109375 87.20417 66.890625 88.376045Q65.6875 89.563545 63.625 89.563545Q62.484375 89.563545 61.390625 89.07917Q60.296875 88.594795 59.71875 87.73542L60.65625 86.657295Q61.828125 88.094795 63.5 88.094795Q64.828125 88.094795 65.5625 87.344795Q66.296875 86.61042 66.296875 85.26667L66.296875 84.344795Q65.21875 85.61042 63.34375 85.61042Q61.484375 85.61042 60.328125 84.11042Q59.1875 82.61042 59.1875 80.032295ZM61.0 80.23542Q61.0 82.032295 61.734375 83.04792Q62.46875 84.063545 63.78125 84.063545Q65.5 84.063545 66.296875 82.51667L66.296875 77.688545Q65.46875 76.17292 63.8125 76.17292Q62.484375 76.17292 61.734375 77.20417Q61.0 78.23542 61.0 80.23542ZM75.71875 76.45417Q75.3125 76.39167 74.84375 76.39167Q73.0625 76.39167 72.421875 77.907295L72.421875 85.407295L70.625 85.407295L70.625 74.844795L72.375 74.844795L72.40625 76.063545Q73.296875 74.64167 74.921875 74.64167Q75.453125 74.64167 75.71875 74.782295L75.71875 76.45417ZM84.140625 85.407295Q83.984375 85.094795 83.890625 84.29792Q82.625 85.61042 80.875 85.61042Q79.3125 85.61042 78.3125 84.719795Q77.3125 83.82917 77.3125 82.469795Q77.3125 80.82917 78.5625 79.92292Q79.828125 79.001045 82.09375 79.001045L83.859375 79.001045L83.859375 78.17292Q83.859375 77.219795 83.28125 76.657295Q82.71875 76.094795 81.625 76.094795Q80.65625 76.094795 80.0 76.594795Q79.34375 77.07917 79.34375 77.76667L77.53125 77.76667Q77.53125 76.98542 78.09375 76.251045Q78.65625 75.501045 79.609375 75.07917Q80.578125 74.64167 81.734375 74.64167Q83.5625 74.64167 84.59375 75.563545Q85.625 76.469795 85.671875 78.07917L85.671875 82.938545Q85.671875 84.39167 86.03125 85.251045L86.03125 85.407295L84.140625 85.407295ZM81.140625 84.032295Q82.0 84.032295 82.75 83.594795Q83.515625 83.157295 83.859375 82.45417L83.859375 80.282295L82.4375 80.282295Q79.125 80.282295 79.125 82.219795Q79.125 83.07917 79.6875 83.563545Q80.25 84.032295 81.140625 84.032295ZM97.546875 80.23542Q97.546875 82.657295 96.4375 84.14167Q95.34375 85.61042 93.453125 85.61042Q91.53125 85.61042 90.421875 84.376045L90.421875 89.469795L88.625 89.469795L88.625 74.844795L90.265625 74.844795L90.359375 76.01667Q91.453125 74.64167 93.421875 74.64167Q95.328125 74.64167 96.4375 76.07917Q97.546875 77.51667 97.546875 80.07917L97.546875 80.23542ZM95.734375 80.032295Q95.734375 78.251045 94.96875 77.219795Q94.21875 76.17292 92.890625 76.17292Q91.25 76.17292 90.421875 77.626045L90.421875 82.688545Q91.234375 84.126045 92.90625 84.126045Q94.203125 84.126045 94.96875 83.094795Q95.734375 82.063545 95.734375 80.032295ZM101.421875 76.126045Q102.625 74.64167 104.546875 74.64167Q107.90625 74.64167 107.921875 78.42292L107.921875 85.407295L106.125 85.407295L106.125 78.407295Q106.109375 77.26667 105.59375 76.719795Q105.09375 76.17292 104.0 76.17292Q103.125 76.17292 102.453125 76.64167Q101.796875 77.11042 101.421875 77.876045L101.421875 85.407295L99.625 85.407295L99.625 70.407295L101.421875 70.407295L101.421875 76.126045Z" fill-rule="nonzero"/><path fill="#9e9e9e" d="M25.375 112.407295L23.546875 112.407295L23.546875 100.36042L19.90625 101.70417L19.90625 100.063545L25.09375 98.126045L25.375 98.126045L25.375 112.407295ZM37.359375 106.157295Q36.796875 106.82917 36.0 107.251045Q35.21875 107.657295 34.28125 107.657295Q33.046875 107.657295 32.125 107.04792Q31.21875 106.438545 30.71875 105.344795Q30.234375 104.23542 30.234375 102.907295Q30.234375 101.48542 30.765625 100.344795Q31.3125 99.20417 32.296875 98.594795Q33.296875 97.98542 34.625 97.98542Q36.734375 97.98542 37.953125 99.563545Q39.171875 101.14167 39.171875 103.876045L39.171875 104.39167Q39.171875 108.54792 37.53125 110.45417Q35.890625 112.36042 32.578125 112.42292L32.234375 112.42292L32.234375 110.89167L32.609375 110.89167Q34.84375 110.86042 36.046875 109.73542Q37.25 108.594795 37.359375 106.157295ZM34.578125 106.157295Q35.484375 106.157295 36.25 105.61042Q37.015625 105.04792 37.359375 104.219795L37.359375 103.501045Q37.359375 101.719795 36.59375 100.61042Q35.828125 99.501045 34.640625 99.501045Q33.453125 99.501045 32.71875 100.42292Q32.0 101.32917 32.0 102.813545Q32.0 104.26667 32.703125 105.219795Q33.40625 106.157295 34.578125 106.157295ZM41.65625 111.45417Q41.65625 110.98542 41.9375 110.67292Q42.21875 110.36042 42.765625 110.36042Q43.328125 110.36042 43.609375 110.67292Q43.90625 110.98542 43.90625 111.45417Q43.90625 111.907295 43.609375 112.219795Q43.328125 112.51667 42.765625 112.51667Q42.21875 112.51667 41.9375 112.219795Q41.65625 111.907295 41.65625 111.45417ZM55.609375 99.20417L49.71875 112.407295L47.828125 112.407295L53.703125 99.67292L46.0 99.67292L46.0 98.188545L55.609375 98.188545L55.609375 99.20417ZM57.28125 100.92292Q57.28125 99.64167 58.09375 98.813545Q58.90625 97.98542 60.1875 97.98542Q61.484375 97.98542 62.28125 98.82917Q63.09375 99.657295 63.09375 100.98542L63.09375 101.67292Q63.09375 102.969795 62.28125 103.782295Q61.46875 104.594795 60.203125 104.594795Q58.9375 104.594795 58.109375 103.782295Q57.28125 102.969795 57.28125 101.61042L57.28125 100.92292ZM58.625 101.67292Q58.625 102.438545 59.046875 102.938545Q59.484375 103.42292 60.203125 103.42292Q60.90625 103.42292 61.328125 102.95417Q61.75 102.469795 61.75 101.64167L61.75 100.92292Q61.75 100.157295 61.328125 99.657295Q60.90625 99.157295 60.1875 99.157295Q59.46875 99.157295 59.046875 99.657295Q58.625 100.157295 58.625 100.95417L58.625 101.67292ZM64.203125 108.92292Q64.203125 107.64167 65.015625 106.813545Q65.828125 105.98542 67.109375 105.98542Q68.390625 105.98542 69.203125 106.813545Q70.03125 107.626045 70.03125 108.98542L70.03125 109.688545Q70.03125 110.95417 69.21875 111.782295Q68.40625 112.61042 67.125 112.61042Q65.859375 112.61042 65.03125 111.79792Q64.203125 110.98542 64.203125 109.626045L64.203125 108.92292ZM65.546875 109.688545Q65.546875 110.45417 65.96875 110.95417Q66.40625 111.438545 67.125 111.438545Q67.828125 111.438545 68.25 110.95417Q68.671875 110.469795 68.671875 109.64167L68.671875 108.92292Q68.671875 108.14167 68.25 107.657295Q67.828125 107.17292 67.109375 107.17292Q66.421875 107.17292 65.984375 107.657295Q65.546875 108.14167 65.546875 108.95417L65.546875 109.688545ZM60.609375 111.32917L59.59375 110.688545L66.53125 99.57917L67.5625 100.219795L60.609375 111.32917Z" fill-rule="nonzero"/><path stroke="#757575" stroke-width="1.0" stroke-linecap="butt" d="M18.25 91.907295L147.33333 91.907295L217.8319 91.907295" fill-rule="nonzero"/><path fill="#9e9e9e" d="M219.8319 91.907295C219.8319 90.80272 218.93646 89.907295 217.8319 89.907295C216.72733 89.907295 215.8319 90.80272 215.8319 91.907295C215.8319 93.01186 216.72733 93.907295 217.8319 93.907295C218.93646 93.907295 219.8319 93.01186 219.8319 91.907295" fill-rule="nonzero"/><path fill="#757575" d="M25.765625 232.23825Q25.765625 231.50388 25.21875 231.09763Q24.671875 230.69138 23.296875 230.3945Q21.921875 230.09763 21.109375 229.69138Q20.3125 229.28513 19.921875 228.72263Q19.546875 228.1445 19.546875 227.36325Q19.546875 226.06638 20.640625 225.17575Q21.734375 224.2695 23.453125 224.2695Q25.25 224.2695 26.359375 225.207Q27.484375 226.12888 27.484375 227.56638L25.65625 227.56638Q25.65625 226.832 25.03125 226.30075Q24.40625 225.75388 23.453125 225.75388Q22.453125 225.75388 21.890625 226.19138Q21.34375 226.61325 21.34375 227.31638Q21.34375 227.957 21.859375 228.30075Q22.375 228.62888 23.734375 228.94138Q25.09375 229.23825 25.921875 229.66013Q26.765625 230.06638 27.171875 230.66013Q27.578125 231.25388 27.578125 232.09763Q27.578125 233.5195 26.4375 234.37888Q25.3125 235.23825 23.5 235.23825Q22.234375 235.23825 21.25 234.78513Q20.28125 234.332 19.71875 233.53513Q19.171875 232.72263 19.171875 231.78513L20.984375 231.78513Q21.03125 232.69138 21.703125 233.22263Q22.390625 233.75388 23.5 233.75388Q24.53125 233.75388 25.140625 233.34763Q25.765625 232.92575 25.765625 232.23825ZM34.0 235.23825Q31.859375 235.23825 30.5 233.832Q29.15625 232.41013 29.15625 230.05075L29.15625 229.707Q29.15625 228.1445 29.75 226.91013Q30.359375 225.67575 31.4375 224.97263Q32.515625 224.2695 33.78125 224.2695Q35.84375 224.2695 36.984375 225.62888Q38.125 226.98825 38.125 229.5195L38.125 230.2695L30.96875 230.2695Q31.0 231.832 31.875 232.80075Q32.75 233.75388 34.09375 233.75388Q35.0625 233.75388 35.71875 233.36325Q36.390625 232.97263 36.890625 232.332L37.984375 233.19138Q36.65625 235.23825 34.0 235.23825ZM33.78125 225.75388Q32.6875 225.75388 31.9375 226.55075Q31.203125 227.34763 31.03125 228.78513L36.3125 228.78513L36.3125 228.6445Q36.234375 227.2695 35.5625 226.5195Q34.90625 225.75388 33.78125 225.75388ZM44.859375 233.75388Q45.828125 233.75388 46.546875 233.17575Q47.265625 232.582 47.34375 231.707L49.0625 231.707Q49.0 232.61325 48.421875 233.44138Q47.859375 234.25388 46.890625 234.75388Q45.9375 235.23825 44.859375 235.23825Q42.703125 235.23825 41.421875 233.80075Q40.15625 232.34763 40.15625 229.84763L40.15625 229.55075Q40.15625 228.00388 40.71875 226.80075Q41.28125 225.59763 42.34375 224.94138Q43.40625 224.2695 44.84375 224.2695Q46.625 224.2695 47.796875 225.332Q48.984375 226.3945 49.0625 228.09763L47.34375 228.09763Q47.265625 227.082 46.5625 226.42575Q45.875 225.75388 44.84375 225.75388Q43.46875 225.75388 42.703125 226.75388Q41.953125 227.73825 41.953125 229.61325L41.953125 229.957Q41.953125 231.78513 42.703125 232.7695Q43.453125 233.75388 44.859375 233.75388ZM53.0625 221.91013L53.0625 224.47263L55.046875 224.47263L55.046875 225.86325L53.0625 225.86325L53.0625 232.41013Q53.0625 233.05075 53.328125 233.37888Q53.59375 233.69138 54.234375 233.69138Q54.546875 233.69138 55.09375 233.56638L55.09375 235.03513Q54.375 235.23825 53.703125 235.23825Q52.5 235.23825 51.875 234.50388Q51.265625 233.7695 51.265625 232.41013L51.265625 225.86325L49.34375 225.86325L49.34375 224.47263L51.265625 224.47263L51.265625 221.91013L53.0625 221.91013ZM59.578125 235.03513L57.78125 235.03513L57.78125 224.47263L59.578125 224.47263L59.578125 235.03513ZM57.625 221.66013Q57.625 221.22263 57.890625 220.92575Q58.171875 220.61325 58.6875 220.61325Q59.21875 220.61325 59.484375 220.92575Q59.765625 221.22263 59.765625 221.66013Q59.765625 222.09763 59.484375 222.3945Q59.21875 222.69138 58.6875 222.69138Q58.171875 222.69138 57.890625 222.3945Q57.625 222.09763 57.625 221.66013ZM62.140625 229.66013Q62.140625 228.09763 62.75 226.86325Q63.359375 225.61325 64.4375 224.94138Q65.53125 224.2695 66.9375 224.2695Q69.09375 224.2695 70.421875 225.7695Q71.765625 227.25388 71.765625 229.73825L71.765625 229.86325Q71.765625 231.41013 71.171875 232.6445Q70.578125 233.86325 69.46875 234.55075Q68.375 235.23825 66.953125 235.23825Q64.8125 235.23825 63.46875 233.73825Q62.140625 232.23825 62.140625 229.78513L62.140625 229.66013ZM63.953125 229.86325Q63.953125 231.62888 64.765625 232.69138Q65.59375 233.75388 66.953125 233.75388Q68.328125 233.75388 69.140625 232.67575Q69.953125 231.59763 69.953125 229.66013Q69.953125 227.91013 69.125 226.832Q68.296875 225.75388 66.9375 225.75388Q65.59375 225.75388 64.765625 226.81638Q63.953125 227.87888 63.953125 229.86325ZM75.328125 224.47263L75.390625 225.80075Q76.59375 224.2695 78.546875 224.2695Q81.90625 224.2695 81.921875 228.05075L81.921875 235.03513L80.125 235.03513L80.125 228.03513Q80.109375 226.8945 79.59375 226.34763Q79.09375 225.80075 78.0 225.80075Q77.125 225.80075 76.453125 226.2695Q75.796875 226.73825 75.421875 227.50388L75.421875 235.03513L73.625 235.03513L73.625 224.47263L75.328125 224.47263Z" fill-rule="nonzero"/><path fill="#9e9e9e" d="M25.375 262.03513L23.546875 262.03513L23.546875 249.98825L19.90625 251.332L19.90625 249.69138L25.09375 247.75388L25.375 247.75388L25.375 262.03513ZM37.359375 255.78513Q36.796875 256.457 36.0 256.87888Q35.21875 257.28513 34.28125 257.28513Q33.046875 257.28513 32.125 256.67575Q31.21875 256.06638 30.71875 254.97263Q30.234375 253.86325 30.234375 252.53513Q30.234375 251.11325 30.765625 249.97263Q31.3125 248.832 32.296875 248.22263Q33.296875 247.61325 34.625 247.61325Q36.734375 247.61325 37.953125 249.19138Q39.171875 250.7695 39.171875 253.50388L39.171875 254.0195Q39.171875 258.17575 37.53125 260.082Q35.890625 261.98825 32.578125 262.05075L32.234375 262.05075L32.234375 260.5195L32.609375 260.5195Q34.84375 260.48825 36.046875 259.36325Q37.25 258.22263 37.359375 255.78513ZM34.578125 255.78513Q35.484375 255.78513 36.25 255.23825Q37.015625 254.67575 37.359375 253.84763L37.359375 253.12888Q37.359375 251.34763 36.59375 250.23825Q35.828125 249.12888 34.640625 249.12888Q33.453125 249.12888 32.71875 250.05075Q32.0 250.957 32.0 252.44138Q32.0 253.8945 32.703125 254.84763Q33.40625 255.78513 34.578125 255.78513ZM41.65625 261.082Q41.65625 260.61325 41.9375 260.30075Q42.21875 259.98825 42.765625 259.98825Q43.328125 259.98825 43.609375 260.30075Q43.90625 260.61325 43.90625 261.082Q43.90625 261.53513 43.609375 261.84763Q43.328125 262.1445 42.765625 262.1445Q42.21875 262.1445 41.9375 261.84763Q41.65625 261.53513 41.65625 261.082ZM55.609375 248.832L49.71875 262.03513L47.828125 262.03513L53.703125 249.30075L46.0 249.30075L46.0 247.81638L55.609375 247.81638L55.609375 248.832ZM57.28125 250.55075Q57.28125 249.2695 58.09375 248.44138Q58.90625 247.61325 60.1875 247.61325Q61.484375 247.61325 62.28125 248.457Q63.09375 249.28513 63.09375 250.61325L63.09375 251.30075Q63.09375 252.59763 62.28125 253.41013Q61.46875 254.22263 60.203125 254.22263Q58.9375 254.22263 58.109375 253.41013Q57.28125 252.59763 57.28125 251.23825L57.28125 250.55075ZM58.625 251.30075Q58.625 252.06638 59.046875 252.56638Q59.484375 253.05075 60.203125 253.05075Q60.90625 253.05075 61.328125 252.582Q61.75 252.09763 61.75 251.2695L61.75 250.55075Q61.75 249.78513 61.328125 249.28513Q60.90625 248.78513 60.1875 248.78513Q59.46875 248.78513 59.046875 249.28513Q58.625 249.78513 58.625 250.582L58.625 251.30075ZM64.203125 258.55075Q64.203125 257.2695 65.015625 256.44138Q65.828125 255.61325 67.109375 255.61325Q68.390625 255.61325 69.203125 256.44138Q70.03125 257.25388 70.03125 258.61325L70.03125 259.31638Q70.03125 260.582 69.21875 261.41013Q68.40625 262.23825 67.125 262.23825Q65.859375 262.23825 65.03125 261.42575Q64.203125 260.61325 64.203125 259.25388L64.203125 258.55075ZM65.546875 259.31638Q65.546875 260.082 65.96875 260.582Q66.40625 261.06638 67.125 261.06638Q67.828125 261.06638 68.25 260.582Q68.671875 260.09763 68.671875 259.2695L68.671875 258.55075Q68.671875 257.7695 68.25 257.28513Q67.828125 256.80075 67.109375 256.80075Q66.421875 256.80075 65.984375 257.28513Q65.546875 257.7695 65.546875 258.582L65.546875 259.31638ZM60.609375 260.957L59.59375 260.31638L66.53125 249.207L67.5625 249.84763L60.609375 260.957Z" fill-rule="nonzero"/><path stroke="#757575" stroke-width="1.0" stroke-linecap="butt" d="M18.25 241.53513L147.33333 241.53513L166.0452 241.53513" fill-rule="nonzero"/><path fill="#9e9e9e" d="M168.0452 241.53513C168.0452 240.43056 167.14977 239.53513 166.0452 239.53513C164.94063 239.53513 164.0452 240.43056 164.0452 241.53513C164.0452 242.6397 164.94063 243.53513 166.0452 243.53513C167.14977 243.53513 168.0452 242.6397 168.0452 241.53513" fill-rule="nonzero"/><path fill="#757575" d="M527.6406 241.22266Q527.4844 240.91016 527.3906 240.11328Q526.125 241.42578 524.375 241.42578Q522.8125 241.42578 521.8125 240.53516Q520.8125 239.64453 520.8125 238.28516Q520.8125 236.64453 522.0625 235.73828Q523.3281 234.8164 525.59375 234.8164L527.3594 234.8164L527.3594 233.98828Q527.3594 233.03516 526.78125 232.47266Q526.21875 231.91016 525.125 231.91016Q524.15625 231.91016 523.5 232.41016Q522.84375 232.89453 522.84375 233.58203L521.03125 233.58203Q521.03125 232.80078 521.59375 232.0664Q522.15625 231.3164 523.1094 230.89453Q524.0781 230.45703 525.2344 230.45703Q527.0625 230.45703 528.09375 231.3789Q529.125 232.28516 529.1719 233.89453L529.1719 238.7539Q529.1719 240.20703 529.53125 241.0664L529.53125 241.22266L527.6406 241.22266ZM524.6406 239.84766Q525.5 239.84766 526.25 239.41016Q527.0156 238.97266 527.3594 238.26953L527.3594 236.09766L525.9375 236.09766Q522.625 236.09766 522.625 238.03516Q522.625 238.89453 523.1875 239.3789Q523.75 239.84766 524.6406 239.84766ZM537.21875 232.26953Q536.8125 232.20703 536.34375 232.20703Q534.5625 232.20703 533.9219 233.72266L533.9219 241.22266L532.125 241.22266L532.125 230.66016L533.875 230.66016L533.90625 231.8789Q534.7969 230.45703 536.4219 230.45703Q536.9531 230.45703 537.21875 230.59766L537.21875 232.26953ZM541.5625 228.09766L541.5625 230.66016L543.5469 230.66016L543.5469 232.05078L541.5625 232.05078L541.5625 238.59766Q541.5625 239.23828 541.8281 239.5664Q542.09375 239.8789 542.7344 239.8789Q543.0469 239.8789 543.59375 239.7539L543.59375 241.22266Q542.875 241.42578 542.2031 241.42578Q541.0 241.42578 540.375 240.6914Q539.7656 239.95703 539.7656 238.59766L539.7656 232.05078L537.84375 232.05078L537.84375 230.66016L539.7656 230.66016L539.7656 228.09766L541.5625 228.09766ZM548.0781 241.22266L546.28125 241.22266L546.28125 230.66016L548.0781 230.66016L548.0781 241.22266ZM546.125 227.84766Q546.125 227.41016 546.3906 227.11328Q546.6719 226.80078 547.1875 226.80078Q547.71875 226.80078 547.9844 227.11328Q548.2656 227.41016 548.2656 227.84766Q548.2656 228.28516 547.9844 228.58203Q547.71875 228.8789 547.1875 228.8789Q546.6719 228.8789 546.3906 228.58203Q546.125 228.28516 546.125 227.84766ZM555.3594 239.9414Q556.3281 239.9414 557.0469 239.36328Q557.7656 238.76953 557.84375 237.89453L559.5625 237.89453Q559.5 238.80078 558.9219 239.6289Q558.3594 240.4414 557.3906 240.9414Q556.4375 241.42578 555.3594 241.42578Q553.2031 241.42578 551.9219 239.98828Q550.65625 238.53516 550.65625 236.03516L550.65625 235.73828Q550.65625 234.1914 551.21875 232.98828Q551.78125 231.78516 552.84375 231.1289Q553.90625 230.45703 555.34375 230.45703Q557.125 230.45703 558.2969 231.51953Q559.4844 232.58203 559.5625 234.28516L557.84375 234.28516Q557.7656 233.26953 557.0625 232.61328Q556.375 231.9414 555.34375 231.9414Q553.96875 231.9414 553.2031 232.9414Q552.4531 233.92578 552.4531 235.80078L552.4531 236.14453Q552.4531 237.97266 553.2031 238.95703Q553.9531 239.9414 555.3594 239.9414ZM563.0781 241.22266L561.28125 241.22266L561.28125 226.22266L563.0781 226.22266L563.0781 241.22266ZM570.5 241.42578Q568.3594 241.42578 567.0 240.01953Q565.65625 238.59766 565.65625 236.23828L565.65625 235.89453Q565.65625 234.33203 566.25 233.09766Q566.8594 231.86328 567.9375 231.16016Q569.0156 230.45703 570.28125 230.45703Q572.34375 230.45703 573.4844 231.8164Q574.625 233.17578 574.625 235.70703L574.625 236.45703L567.46875 236.45703Q567.5 238.01953 568.375 238.98828Q569.25 239.9414 570.59375 239.9414Q571.5625 239.9414 572.21875 239.55078Q572.8906 239.16016 573.3906 238.51953L574.4844 239.3789Q573.15625 241.42578 570.5 241.42578ZM570.28125 231.9414Q569.1875 231.9414 568.4375 232.73828Q567.7031 233.53516 567.53125 234.97266L572.8125 234.97266L572.8125 234.83203Q572.7344 233.45703 572.0625 232.70703Q571.40625 231.9414 570.28125 231.9414Z" fill-rule="nonzero"/><path fill="#9e9e9e" d="M531.0156 253.98828L531.0156 255.51953L530.6875 255.51953Q528.5781 255.5664 527.3281 256.78516Q526.0781 257.98828 525.8906 260.1914Q527.0156 258.89453 528.9531 258.89453Q530.8125 258.89453 531.9219 260.20703Q533.03125 261.51953 533.03125 263.58203Q533.03125 265.78516 531.8281 267.11328Q530.625 268.42578 528.625 268.42578Q526.5781 268.42578 525.3125 266.86328Q524.0469 265.28516 524.0469 262.8164L524.0469 262.11328Q524.0469 258.1914 525.71875 256.11328Q527.3906 254.03516 530.7031 253.98828L531.0156 253.98828ZM528.65625 260.39453Q527.71875 260.39453 526.9375 260.95703Q526.15625 261.51953 525.8594 262.34766L525.8594 263.01953Q525.8594 264.76953 526.6406 265.84766Q527.4375 266.92578 528.625 266.92578Q529.84375 266.92578 530.53125 266.03516Q531.2344 265.1289 531.2344 263.67578Q531.2344 262.20703 530.53125 261.30078Q529.8281 260.39453 528.65625 260.39453ZM543.84375 262.16016Q543.84375 265.33203 542.7656 266.8789Q541.6875 268.42578 539.375 268.42578Q537.09375 268.42578 536.0 266.91016Q534.90625 265.39453 534.875 262.39453L534.875 259.98828Q534.875 256.84766 535.9531 255.33203Q537.0469 253.80078 539.3594 253.80078Q541.65625 253.80078 542.7344 255.28516Q543.8125 256.7539 543.84375 259.8164L543.84375 262.16016ZM542.0469 259.6914Q542.0469 257.39453 541.3906 256.34766Q540.75 255.28516 539.3594 255.28516Q537.96875 255.28516 537.3281 256.33203Q536.7031 257.3789 536.6875 259.55078L536.6875 262.4414Q536.6875 264.73828 537.34375 265.84766Q538.0156 266.9414 539.375 266.9414Q540.71875 266.9414 541.3594 265.91016Q542.0156 264.8789 542.0469 262.64453L542.0469 259.6914ZM546.15625 267.26953Q546.15625 266.80078 546.4375 266.48828Q546.71875 266.17578 547.2656 266.17578Q547.8281 266.17578 548.1094 266.48828Q548.40625 266.80078 548.40625 267.26953Q548.40625 267.72266 548.1094 268.03516Q547.8281 268.33203 547.2656 268.33203Q546.71875 268.33203 546.4375 268.03516Q546.15625 267.72266 546.15625 267.26953ZM558.0156 253.98828L558.0156 255.51953L557.6875 255.51953Q555.5781 255.5664 554.3281 256.78516Q553.0781 257.98828 552.8906 260.1914Q554.0156 258.89453 555.9531 258.89453Q557.8125 258.89453 558.9219 260.20703Q560.03125 261.51953 560.03125 263.58203Q560.03125 265.78516 558.8281 267.11328Q557.625 268.42578 555.625 268.42578Q553.5781 268.42578 552.3125 266.86328Q551.0469 265.28516 551.0469 262.8164L551.0469 262.11328Q551.0469 258.1914 552.71875 256.11328Q554.3906 254.03516 557.7031 253.98828L558.0156 253.98828ZM555.65625 260.39453Q554.71875 260.39453 553.9375 260.95703Q553.15625 261.51953 552.8594 262.34766L552.8594 263.01953Q552.8594 264.76953 553.6406 265.84766Q554.4375 266.92578 555.625 266.92578Q556.84375 266.92578 557.53125 266.03516Q558.2344 265.1289 558.2344 263.67578Q558.2344 262.20703 557.53125 261.30078Q556.8281 260.39453 555.65625 260.39453ZM561.78125 256.73828Q561.78125 255.45703 562.59375 254.6289Q563.40625 253.80078 564.6875 253.80078Q565.9844 253.80078 566.78125 254.64453Q567.59375 255.47266 567.59375 256.80078L567.59375 257.48828Q567.59375 258.78516 566.78125 259.59766Q565.96875 260.41016 564.7031 260.41016Q563.4375 260.41016 562.6094 259.59766Q561.78125 258.78516 561.78125 257.42578L561.78125 256.73828ZM563.125 257.48828Q563.125 258.2539 563.5469 258.7539Q563.9844 259.23828 564.7031 259.23828Q565.40625 259.23828 565.8281 258.76953Q566.25 258.28516 566.25 257.45703L566.25 256.73828Q566.25 255.97266 565.8281 255.47266Q565.40625 254.97266 564.6875 254.97266Q563.96875 254.97266 563.5469 255.47266Q563.125 255.97266 563.125 256.76953L563.125 257.48828ZM568.7031 264.73828Q568.7031 263.45703 569.5156 262.6289Q570.3281 261.80078 571.6094 261.80078Q572.8906 261.80078 573.7031 262.6289Q574.53125 263.4414 574.53125 264.80078L574.53125 265.5039Q574.53125 266.76953 573.71875 267.59766Q572.90625 268.42578 571.625 268.42578Q570.3594 268.42578 569.53125 267.61328Q568.7031 266.80078 568.7031 265.4414L568.7031 264.73828ZM570.0469 265.5039Q570.0469 266.26953 570.46875 266.76953Q570.90625 267.2539 571.625 267.2539Q572.3281 267.2539 572.75 266.76953Q573.1719 266.28516 573.1719 265.45703L573.1719 264.73828Q573.1719 263.95703 572.75 263.47266Q572.3281 262.98828 571.6094 262.98828Q570.9219 262.98828 570.4844 263.47266Q570.0469 263.95703 570.0469 264.76953L570.0469 265.5039ZM565.1094 267.14453L564.09375 266.5039L571.03125 255.39453L572.0625 256.03516L565.1094 267.14453Z" fill-rule="nonzero"/><path stroke="#757575" stroke-width="1.0" stroke-linecap="butt" d="M575.75 247.72266L446.66666 247.72266L425.97687 247.72266" fill-rule="nonzero"/><path fill="#9e9e9e" d="M427.97687 247.72266C427.97687 246.61809 427.08142 245.72266 425.97687 245.72266C424.87228 245.72266 423.97687 246.61809 423.97687 247.72266C423.97687 248.82722 424.87228 249.72266 425.97687 249.72266C427.08142 249.72266 427.97687 248.82722 427.97687 247.72266" fill-rule="nonzero"/><path fill="#757575" d="M26.484375 34.34375L22.484375 34.34375L22.484375 41.25L20.21875 41.25L20.21875 24.1875L25.875 24.1875Q28.75 24.1875 30.296875 25.5Q31.859375 26.8125 31.859375 29.3125Q31.859375 30.90625 31.0 32.09375Q30.140625 33.28125 28.59375 33.859375L32.609375 41.109375L32.609375 41.25L30.1875 41.25L26.484375 34.34375ZM22.484375 32.5L25.9375 32.5Q27.609375 32.5 28.59375 31.640625Q29.59375 30.765625 29.59375 29.3125Q29.59375 27.734375 28.640625 26.890625Q27.703125 26.046875 25.921875 26.03125L22.484375 26.03125L22.484375 32.5ZM40.15625 41.484375Q37.578125 41.484375 35.953125 39.796875Q34.34375 38.09375 34.34375 35.265625L34.34375 34.859375Q34.34375 32.96875 35.0625 31.5Q35.78125 30.015625 37.078125 29.171875Q38.375 28.328125 39.890625 28.328125Q42.359375 28.328125 43.71875 29.96875Q45.09375 31.59375 45.09375 34.625L45.09375 35.53125L36.515625 35.53125Q36.5625 37.40625 37.609375 38.5625Q38.65625 39.71875 40.265625 39.71875Q41.421875 39.71875 42.21875 39.25Q43.015625 38.78125 43.609375 38.0L44.9375 39.03125Q43.34375 41.484375 40.15625 41.484375ZM39.890625 30.109375Q38.578125 30.109375 37.6875 31.078125Q36.796875 32.03125 36.578125 33.75L42.9375 33.75L42.9375 33.578125Q42.84375 31.9375 42.046875 31.03125Q41.25 30.109375 39.890625 30.109375ZM52.078125 38.3125L55.21875 28.5625L57.4375 28.5625L52.890625 41.25L51.234375 41.25L46.640625 28.5625L48.859375 28.5625L52.078125 38.3125ZM62.25 41.25L60.078125 41.25L60.078125 28.5625L62.25 28.5625L62.25 41.25ZM59.90625 25.203125Q59.90625 24.671875 60.21875 24.3125Q60.546875 23.953125 61.171875 23.953125Q61.8125 23.953125 62.140625 24.3125Q62.46875 24.671875 62.46875 25.203125Q62.46875 25.734375 62.140625 26.09375Q61.8125 26.4375 61.171875 26.4375Q60.546875 26.4375 60.21875 26.09375Q59.90625 25.734375 59.90625 25.203125ZM71.15625 41.484375Q68.578125 41.484375 66.953125 39.796875Q65.34375 38.09375 65.34375 35.265625L65.34375 34.859375Q65.34375 32.96875 66.0625 31.5Q66.78125 30.015625 68.078125 29.171875Q69.375 28.328125 70.890625 28.328125Q73.359375 28.328125 74.71875 29.96875Q76.09375 31.59375 76.09375 34.625L76.09375 35.53125L67.515625 35.53125Q67.5625 37.40625 68.609375 38.5625Q69.65625 39.71875 71.265625 39.71875Q72.421875 39.71875 73.21875 39.25Q74.015625 38.78125 74.609375 38.0L75.9375 39.03125Q74.34375 41.484375 71.15625 41.484375ZM70.890625 30.109375Q69.578125 30.109375 68.6875 31.078125Q67.796875 32.03125 67.578125 33.75L73.9375 33.75L73.9375 33.578125Q73.84375 31.9375 73.046875 31.03125Q72.25 30.109375 70.890625 30.109375ZM90.125 38.265625L92.5625 28.5625L94.71875 28.5625L91.03125 41.25L89.28125 41.25L86.1875 31.640625L83.1875 41.25L81.4375 41.25L77.75 28.5625L79.90625 28.5625L82.40625 38.0625L85.359375 28.5625L87.109375 28.5625L90.125 38.265625ZM107.984375 39.71875Q109.140625 39.71875 110.0 39.015625Q110.875 38.3125 110.96875 37.25L113.015625 37.25Q112.953125 38.34375 112.265625 39.328125Q111.578125 40.3125 110.421875 40.90625Q109.265625 41.484375 107.984375 41.484375Q105.390625 41.484375 103.859375 39.765625Q102.328125 38.03125 102.328125 35.03125L102.328125 34.65625Q102.328125 32.8125 103.0 31.375Q103.6875 29.921875 104.953125 29.125Q106.234375 28.328125 107.96875 28.328125Q110.09375 28.328125 111.5 29.609375Q112.921875 30.890625 113.015625 32.921875L110.96875 32.921875Q110.875 31.703125 110.03125 30.90625Q109.203125 30.109375 107.96875 30.109375Q106.3125 30.109375 105.40625 31.3125Q104.5 32.5 104.5 34.75L104.5 35.15625Q104.5 37.34375 105.390625 38.53125Q106.296875 39.71875 107.984375 39.71875ZM115.3125 34.796875Q115.3125 32.921875 116.046875 31.4375Q116.78125 29.953125 118.078125 29.140625Q119.390625 28.328125 121.078125 28.328125Q123.65625 28.328125 125.25 30.125Q126.859375 31.921875 126.859375 34.890625L126.859375 35.046875Q126.859375 36.90625 126.140625 38.375Q125.4375 39.84375 124.125 40.671875Q122.8125 41.484375 121.09375 41.484375Q118.515625 41.484375 116.90625 39.6875Q115.3125 37.890625 115.3125 34.9375L115.3125 34.796875ZM117.5 35.046875Q117.5 37.15625 118.46875 38.4375Q119.453125 39.71875 121.09375 39.71875Q122.75 39.71875 123.71875 38.421875Q124.6875 37.125 124.6875 34.796875Q124.6875 32.703125 123.703125 31.40625Q122.71875 30.109375 121.078125 30.109375Q119.46875 30.109375 118.484375 31.390625Q117.5 32.671875 117.5 35.046875ZM131.9375 28.5625L131.98438 29.96875Q133.39062 28.328125 135.75 28.328125Q138.40625 28.328125 139.375 30.375Q140.0 29.453125 141.01562 28.890625Q142.03125 28.328125 143.42188 28.328125Q147.59375 28.328125 147.65625 32.75L147.65625 41.25L145.48438 41.25L145.48438 32.875Q145.48438 31.515625 144.85938 30.84375Q144.25 30.171875 142.78125 30.171875Q141.57812 30.171875 140.78125 30.890625Q139.98438 31.609375 139.85938 32.828125L139.85938 41.25L137.67188 41.25L137.67188 32.9375Q137.67188 30.171875 134.96875 30.171875Q132.82812 30.171875 132.04688 31.984375L132.04688 41.25L129.875 41.25L129.875 28.5625L131.9375 28.5625ZM152.9375 28.5625L152.98438 29.96875Q154.39062 28.328125 156.75 28.328125Q159.40625 28.328125 160.375 30.375Q161.0 29.453125 162.01562 28.890625Q163.03125 28.328125 164.42188 28.328125Q168.59375 28.328125 168.65625 32.75L168.65625 41.25L166.48438 41.25L166.48438 32.875Q166.48438 31.515625 165.85938 30.84375Q165.25 30.171875 163.78125 30.171875Q162.57812 30.171875 161.78125 30.890625Q160.98438 31.609375 160.85938 32.828125L160.85938 41.25L158.67188 41.25L158.67188 32.9375Q158.67188 30.171875 155.96875 30.171875Q153.82812 30.171875 153.04688 31.984375L153.04688 41.25L150.875 41.25L150.875 28.5625L152.9375 28.5625ZM177.15625 41.484375Q174.57812 41.484375 172.95312 39.796875Q171.34375 38.09375 171.34375 35.265625L171.34375 34.859375Q171.34375 32.96875 172.0625 31.5Q172.78125 30.015625 174.07812 29.171875Q175.375 28.328125 176.89062 28.328125Q179.35938 28.328125 180.71875 29.96875Q182.09375 31.59375 182.09375 34.625L182.09375 35.53125L173.51562 35.53125Q173.5625 37.40625 174.60938 38.5625Q175.65625 39.71875 177.26562 39.71875Q178.42188 39.71875 179.21875 39.25Q180.01562 38.78125 180.60938 38.0L181.9375 39.03125Q180.34375 41.484375 177.15625 41.484375ZM176.89062 30.109375Q175.57812 30.109375 174.6875 31.078125Q173.79688 32.03125 173.57812 33.75L179.9375 33.75L179.9375 33.578125Q179.84375 31.9375 179.04688 31.03125Q178.25 30.109375 176.89062 30.109375ZM186.9375 28.5625L187.01562 30.15625Q188.46875 28.328125 190.8125 28.328125Q194.82812 28.328125 194.85938 32.875L194.85938 41.25L192.70312 41.25L192.70312 32.859375Q192.6875 31.484375 192.0625 30.828125Q191.45312 30.171875 190.15625 30.171875Q189.09375 30.171875 188.29688 30.734375Q187.5 31.296875 187.0625 32.21875L187.0625 41.25L184.89062 41.25L184.89062 28.5625L186.9375 28.5625ZM200.82812 25.5L200.82812 28.5625L203.20312 28.5625L203.20312 30.25L200.82812 30.25L200.82812 38.109375Q200.82812 38.875 201.14062 39.25Q201.46875 39.625 202.23438 39.625Q202.60938 39.625 203.26562 39.484375L203.26562 41.25Q202.40625 41.484375 201.59375 41.484375Q200.14062 41.484375 199.40625 40.609375Q198.67188 39.71875 198.67188 38.109375L198.67188 30.25L196.35938 30.25L196.35938 28.5625L198.67188 28.5625L198.67188 25.5L200.82812 25.5ZM213.28125 37.890625Q213.28125 37.0 212.60938 36.515625Q211.95312 36.03125 210.29688 35.6875Q208.65625 35.328125 207.6875 34.84375Q206.71875 34.34375 206.25 33.671875Q205.79688 32.984375 205.79688 32.046875Q205.79688 30.484375 207.10938 29.40625Q208.4375 28.328125 210.48438 28.328125Q212.64062 28.328125 213.98438 29.453125Q215.32812 30.5625 215.32812 32.296875L213.14062 32.296875Q213.14062 31.40625 212.39062 30.765625Q211.64062 30.109375 210.48438 30.109375Q209.29688 30.109375 208.625 30.625Q207.96875 31.140625 207.96875 31.984375Q207.96875 32.765625 208.57812 33.171875Q209.20312 33.5625 210.82812 33.921875Q212.45312 34.28125 213.45312 34.796875Q214.46875 35.296875 214.95312 36.015625Q215.4375 36.71875 215.4375 37.734375Q215.4375 39.4375 214.07812 40.46875Q212.71875 41.484375 210.5625 41.484375Q209.03125 41.484375 207.85938 40.953125Q206.6875 40.40625 206.01562 39.4375Q205.35938 38.46875 205.35938 37.34375L207.53125 37.34375Q207.59375 38.4375 208.40625 39.078125Q209.21875 39.71875 210.5625 39.71875Q211.78125 39.71875 212.53125 39.21875Q213.28125 38.71875 213.28125 37.890625ZM224.23438 41.25L224.23438 24.1875L229.04688 24.1875Q231.28125 24.1875 232.98438 25.171875Q234.70312 26.15625 235.625 27.96875Q236.5625 29.78125 236.57812 32.140625L236.57812 33.234375Q236.57812 35.640625 235.64062 37.46875Q234.70312 39.28125 232.96875 40.25Q231.25 41.21875 228.95312 41.25L224.23438 41.25ZM226.48438 26.03125L226.48438 39.40625L228.84375 39.40625Q231.45312 39.40625 232.89062 37.796875Q234.34375 36.171875 234.34375 33.1875L234.34375 32.1875Q234.34375 29.28125 232.96875 27.671875Q231.60938 26.0625 229.10938 26.03125L226.48438 26.03125ZM247.71875 41.25Q247.53125 40.875 247.42188 39.90625Q245.90625 41.484375 243.8125 41.484375Q241.9375 41.484375 240.73438 40.421875Q239.53125 39.359375 239.53125 37.734375Q239.53125 35.75 241.03125 34.65625Q242.54688 33.5625 245.26562 33.5625L247.375 33.5625L247.375 32.5625Q247.375 31.421875 246.6875 30.75Q246.01562 30.078125 244.70312 30.078125Q243.53125 30.078125 242.75 30.671875Q241.96875 31.25 241.96875 32.078125L239.78125 32.078125Q239.78125 31.140625 240.45312 30.25Q241.14062 29.359375 242.28125 28.84375Q243.4375 28.328125 244.82812 28.328125Q247.01562 28.328125 248.25 29.4375Q249.5 30.53125 249.54688 32.453125L249.54688 38.28125Q249.54688 40.03125 250.0 41.0625L250.0 41.25L247.71875 41.25ZM244.125 39.59375Q245.14062 39.59375 246.04688 39.078125Q246.96875 38.546875 247.375 37.703125L247.375 35.09375L245.6875 35.09375Q241.70312 35.09375 241.70312 37.421875Q241.70312 38.453125 242.375 39.03125Q243.0625 39.59375 244.125 39.59375ZM255.82812 25.5L255.82812 28.5625L258.20312 28.5625L258.20312 30.25L255.82812 30.25L255.82812 38.109375Q255.82812 38.875 256.14062 39.25Q256.46875 39.625 257.23438 39.625Q257.60938 39.625 258.26562 39.484375L258.26562 41.25Q257.40625 41.484375 256.59375 41.484375Q255.14062 41.484375 254.40625 40.609375Q253.67188 39.71875 253.67188 38.109375L253.67188 30.25L251.35938 30.25L251.35938 28.5625L253.67188 28.5625L253.67188 25.5L255.82812 25.5ZM268.71875 41.25Q268.53125 40.875 268.42188 39.90625Q266.90625 41.484375 264.8125 41.484375Q262.9375 41.484375 261.73438 40.421875Q260.53125 39.359375 260.53125 37.734375Q260.53125 35.75 262.03125 34.65625Q263.54688 33.5625 266.26562 33.5625L268.375 33.5625L268.375 32.5625Q268.375 31.421875 267.6875 30.75Q267.01562 30.078125 265.70312 30.078125Q264.53125 30.078125 263.75 30.671875Q262.96875 31.25 262.96875 32.078125L260.78125 32.078125Q260.78125 31.140625 261.45312 30.25Q262.14062 29.359375 263.28125 28.84375Q264.4375 28.328125 265.82812 28.328125Q268.01562 28.328125 269.25 29.4375Q270.5 30.53125 270.54688 32.453125L270.54688 38.28125Q270.54688 40.03125 271.0 41.0625L271.0 41.25L268.71875 41.25ZM265.125 39.59375Q266.14062 39.59375 267.04688 39.078125Q267.96875 38.546875 268.375 37.703125L268.375 35.09375L266.6875 35.09375Q262.70312 35.09375 262.70312 37.421875Q262.70312 38.453125 263.375 39.03125Q264.0625 39.59375 265.125 39.59375ZM285.26562 33.640625Q282.35938 32.8125 281.04688 31.609375Q279.73438 30.390625 279.73438 28.609375Q279.73438 26.59375 281.34375 25.28125Q282.95312 23.953125 285.53125 23.953125Q287.28125 23.953125 288.65625 24.640625Q290.04688 25.3125 290.79688 26.515625Q291.54688 27.703125 291.54688 29.125L289.29688 29.125Q289.29688 27.578125 288.3125 26.6875Q287.32812 25.796875 285.53125 25.796875Q283.85938 25.796875 282.92188 26.53125Q282.0 27.265625 282.0 28.5625Q282.0 29.609375 282.875 30.328125Q283.76562 31.046875 285.89062 31.65625Q288.03125 32.25 289.21875 32.96875Q290.42188 33.6875 291.0 34.65625Q291.59375 35.609375 291.59375 36.90625Q291.59375 38.984375 289.96875 40.234375Q288.35938 41.484375 285.64062 41.484375Q283.89062 41.484375 282.35938 40.8125Q280.84375 40.140625 280.01562 38.96875Q279.1875 37.796875 279.1875 36.296875L281.45312 36.296875Q281.45312 37.84375 282.59375 38.75Q283.73438 39.640625 285.64062 39.640625Q287.42188 39.640625 288.375 38.921875Q289.32812 38.1875 289.32812 36.9375Q289.32812 35.6875 288.4375 35.0Q287.5625 34.3125 285.26562 33.640625ZM298.98438 39.71875Q300.14062 39.71875 301.0 39.015625Q301.875 38.3125 301.96875 37.25L304.01562 37.25Q303.95312 38.34375 303.26562 39.328125Q302.57812 40.3125 301.42188 40.90625Q300.26562 41.484375 298.98438 41.484375Q296.39062 41.484375 294.85938 39.765625Q293.32812 38.03125 293.32812 35.03125L293.32812 34.65625Q293.32812 32.8125 294.0 31.375Q294.6875 29.921875 295.95312 29.125Q297.23438 28.328125 298.96875 28.328125Q301.09375 28.328125 302.5 29.609375Q303.92188 30.890625 304.01562 32.921875L301.96875 32.921875Q301.875 31.703125 301.03125 30.90625Q300.20312 30.109375 298.96875 30.109375Q297.3125 30.109375 296.40625 31.3125Q295.5 32.5 295.5 34.75L295.5 35.15625Q295.5 37.34375 296.39062 38.53125Q297.29688 39.71875 298.98438 39.71875ZM309.25 41.25L307.07812 41.25L307.07812 28.5625L309.25 28.5625L309.25 41.25ZM306.90625 25.203125Q306.90625 24.671875 307.21875 24.3125Q307.54688 23.953125 308.17188 23.953125Q308.8125 23.953125 309.14062 24.3125Q309.46875 24.671875 309.46875 25.203125Q309.46875 25.734375 309.14062 26.09375Q308.8125 26.4375 308.17188 26.4375Q307.54688 26.4375 307.21875 26.09375Q306.90625 25.734375 306.90625 25.203125ZM318.15625 41.484375Q315.57812 41.484375 313.95312 39.796875Q312.34375 38.09375 312.34375 35.265625L312.34375 34.859375Q312.34375 32.96875 313.0625 31.5Q313.78125 30.015625 315.07812 29.171875Q316.375 28.328125 317.89062 28.328125Q320.35938 28.328125 321.71875 29.96875Q323.09375 31.59375 323.09375 34.625L323.09375 35.53125L314.51562 35.53125Q314.5625 37.40625 315.60938 38.5625Q316.65625 39.71875 318.26562 39.71875Q319.42188 39.71875 320.21875 39.25Q321.01562 38.78125 321.60938 38.0L322.9375 39.03125Q321.34375 41.484375 318.15625 41.484375ZM317.89062 30.109375Q316.57812 30.109375 315.6875 31.078125Q314.79688 32.03125 314.57812 33.75L320.9375 33.75L320.9375 33.578125Q320.84375 31.9375 320.04688 31.03125Q319.25 30.109375 317.89062 30.109375ZM327.9375 28.5625L328.01562 30.15625Q329.46875 28.328125 331.8125 28.328125Q335.82812 28.328125 335.85938 32.875L335.85938 41.25L333.70312 41.25L333.70312 32.859375Q333.6875 31.484375 333.0625 30.828125Q332.45312 30.171875 331.15625 30.171875Q330.09375 30.171875 329.29688 30.734375Q328.5 31.296875 328.0625 32.21875L328.0625 41.25L325.89062 41.25L325.89062 28.5625L327.9375 28.5625ZM343.98438 39.71875Q345.14062 39.71875 346.0 39.015625Q346.875 38.3125 346.96875 37.25L349.01562 37.25Q348.95312 38.34375 348.26562 39.328125Q347.57812 40.3125 346.42188 40.90625Q345.26562 41.484375 343.98438 41.484375Q341.39062 41.484375 339.85938 39.765625Q338.32812 38.03125 338.32812 35.03125L338.32812 34.65625Q338.32812 32.8125 339.0 31.375Q339.6875 29.921875 340.95312 29.125Q342.23438 28.328125 343.96875 28.328125Q346.09375 28.328125 347.5 29.609375Q348.92188 30.890625 349.01562 32.921875L346.96875 32.921875Q346.875 31.703125 346.03125 30.90625Q345.20312 30.109375 343.96875 30.109375Q342.3125 30.109375 341.40625 31.3125Q340.5 32.5 340.5 34.75L340.5 35.15625Q340.5 37.34375 341.39062 38.53125Q342.29688 39.71875 343.98438 39.71875ZM357.15625 41.484375Q354.57812 41.484375 352.95312 39.796875Q351.34375 38.09375 351.34375 35.265625L351.34375 34.859375Q351.34375 32.96875 352.0625 31.5Q352.78125 30.015625 354.07812 29.171875Q355.375 28.328125 356.89062 28.328125Q359.35938 28.328125 360.71875 29.96875Q362.09375 31.59375 362.09375 34.625L362.09375 35.53125L353.51562 35.53125Q353.5625 37.40625 354.60938 38.5625Q355.65625 39.71875 357.26562 39.71875Q358.42188 39.71875 359.21875 39.25Q360.01562 38.78125 360.60938 38.0L361.9375 39.03125Q360.34375 41.484375 357.15625 41.484375ZM356.89062 30.109375Q355.57812 30.109375 354.6875 31.078125Q353.79688 32.03125 353.57812 33.75L359.9375 33.75L359.9375 33.578125Q359.84375 31.9375 359.04688 31.03125Q358.25 30.109375 356.89062 30.109375ZM378.375 24.1875L380.64062 24.1875L380.64062 36.265625Q380.64062 38.71875 379.17188 40.109375Q377.70312 41.484375 375.25 41.484375Q372.70312 41.484375 371.28125 40.1875Q369.875 38.875 369.875 36.53125L372.125 36.53125Q372.125 38.0 372.92188 38.828125Q373.73438 39.640625 375.25 39.640625Q376.64062 39.640625 377.5 38.765625Q378.375 37.890625 378.375 36.296875L378.375 24.1875ZM383.3125 34.796875Q383.3125 32.921875 384.04688 31.4375Q384.78125 29.953125 386.07812 29.140625Q387.39062 28.328125 389.07812 28.328125Q391.65625 28.328125 393.25 30.125Q394.85938 31.921875 394.85938 34.890625L394.85938 35.046875Q394.85938 36.90625 394.14062 38.375Q393.4375 39.84375 392.125 40.671875Q390.8125 41.484375 389.09375 41.484375Q386.51562 41.484375 384.90625 39.6875Q383.3125 37.890625 383.3125 34.9375L383.3125 34.796875ZM385.5 35.046875Q385.5 37.15625 386.46875 38.4375Q387.45312 39.71875 389.09375 39.71875Q390.75 39.71875 391.71875 38.421875Q392.6875 37.125 392.6875 34.796875Q392.6875 32.703125 391.70312 31.40625Q390.71875 30.109375 389.07812 30.109375Q387.46875 30.109375 386.48438 31.390625Q385.5 32.671875 385.5 35.046875ZM405.71875 40.0Q404.45312 41.484375 402.0 41.484375Q399.98438 41.484375 398.92188 40.3125Q397.85938 39.125 397.84375 36.8125L397.84375 28.5625L400.01562 28.5625L400.01562 36.765625Q400.01562 39.640625 402.35938 39.640625Q404.84375 39.640625 405.65625 37.796875L405.65625 28.5625L407.82812 28.5625L407.82812 41.25L405.76562 41.25L405.71875 40.0ZM417.01562 30.515625Q416.53125 30.4375 415.95312 30.4375Q413.82812 30.4375 413.0625 32.25L413.0625 41.25L410.89062 41.25L410.89062 28.5625L413.0 28.5625L413.03125 30.03125Q414.10938 28.328125 416.0625 28.328125Q416.6875 28.328125 417.01562 28.5L417.01562 30.515625ZM420.9375 28.5625L421.01562 30.15625Q422.46875 28.328125 424.8125 28.328125Q428.82812 28.328125 428.85938 32.875L428.85938 41.25L426.70312 41.25L426.70312 32.859375Q426.6875 31.484375 426.0625 30.828125Q425.45312 30.171875 424.15625 30.171875Q423.09375 30.171875 422.29688 30.734375Q421.5 31.296875 421.0625 32.21875L421.0625 41.25L418.89062 41.25L418.89062 28.5625L420.9375 28.5625ZM439.71875 41.25Q439.53125 40.875 439.42188 39.90625Q437.90625 41.484375 435.8125 41.484375Q433.9375 41.484375 432.73438 40.421875Q431.53125 39.359375 431.53125 37.734375Q431.53125 35.75 433.03125 34.65625Q434.54688 33.5625 437.26562 33.5625L439.375 33.5625L439.375 32.5625Q439.375 31.421875 438.6875 30.75Q438.01562 30.078125 436.70312 30.078125Q435.53125 30.078125 434.75 30.671875Q433.96875 31.25 433.96875 32.078125L431.78125 32.078125Q431.78125 31.140625 432.45312 30.25Q433.14062 29.359375 434.28125 28.84375Q435.4375 28.328125 436.82812 28.328125Q439.01562 28.328125 440.25 29.4375Q441.5 30.53125 441.54688 32.453125L441.54688 38.28125Q441.54688 40.03125 442.0 41.0625L442.0 41.25L439.71875 41.25ZM436.125 39.59375Q437.14062 39.59375 438.04688 39.078125Q438.96875 38.546875 439.375 37.703125L439.375 35.09375L437.6875 35.09375Q433.70312 35.09375 433.70312 37.421875Q433.70312 38.453125 434.375 39.03125Q435.0625 39.59375 436.125 39.59375ZM447.25 41.25L445.07812 41.25L445.07812 23.25L447.25 23.25L447.25 41.25Z" fill-rule="nonzero"/></svg>