<svg version="1.1" viewBox="0.0 0.0 592.0 366.0" fill="none" stroke="none" stroke-linecap="square" stroke-miterlimit="10" width="592" height="366" xmlns:xlink="http://www.w3.org/1999/xlink" xmlns="http://www.w3.org/2000/svg"><path fill="#ffffff" d="M0 0L592.0 0L592.0 366.0L0 366.0L0 0Z" fill-rule="nonzero"/><path fill="#db4437" d="M296.0 59.5C357.8987 59.5 412.88242 99.0306 432.59634 157.70607C452.31024 216.38155 432.3497 281.09207 383.0082 318.4668L296.0 203.6Z" fill-rule="nonzero"/><path fill="#f4b400" d="M164.65201 262.8665C144.53055 218.27272 148.4092 166.51581 174.95227 125.41908C201.49535 84.322365 247.07684 59.5 296.0 59.5L296.0 203.6Z" fill-rule="nonzero"/><path fill="#4285f4" d="M383.0082 318.4668C348.05142 344.94553 302.9394 354.06512 260.44226 343.24405C217.94514 332.42294 182.68825 302.8389 164.65201 262.8665L296.0 203.6Z" fill-rule="nonzero"/><path fill="#757575" d="M28.596874 117.65626Q28.596874 120.07813 27.4875 121.56251Q26.39375 123.03126 24.503124 123.03126Q22.58125 123.03126 21.471874 121.79688L21.471874 126.89063L19.675 126.89063L19.675 112.26563L21.315624 112.26563L21.409374 113.43751Q22.503124 112.06251 24.471874 112.06251Q26.378124 112.06251 27.4875 113.50001Q28.596874 114.93751 28.596874 117.50001L28.596874 117.65626ZM26.784374 117.45313Q26.784374 115.67188 26.01875 114.64063Q25.26875 113.59376 23.940624 113.59376Q22.3 113.59376 21.471874 115.04688L21.471874 120.10938Q22.284374 121.54688 23.95625 121.54688Q25.253124 121.54688 26.01875 120.51563Q26.784374 119.48438 26.784374 117.45313ZM37.190624 122.82813Q37.034374 122.51563 36.940624 121.71876Q35.675 123.03126 33.925 123.03126Q32.3625 123.03126 31.3625 122.14063Q30.3625 121.25001 30.3625 119.89063Q30.3625 118.25001 31.6125 117.34376Q32.878124 116.42188 35.14375 116.42188L36.909374 116.42188L36.909374 115.59376Q36.909374 114.64063 36.33125 114.07813Q35.76875 113.51563 34.675 113.51563Q33.70625 113.51563 33.05 114.01563Q32.39375 114.50001 32.39375 115.18751L30.58125 115.18751Q30.58125 114.40626 31.14375 113.67188Q31.70625 112.92188 32.659374 112.50001Q33.628124 112.06251 34.784374 112.06251Q36.6125 112.06251 37.64375 112.98438Q38.675 113.89063 38.721874 115.50001L38.721874 120.35938Q38.721874 121.81251 39.08125 122.67188L39.08125 122.82813L37.190624 122.82813ZM34.190624 121.45313Q35.05 121.45313 35.8 121.01563Q36.565624 120.57813 36.909374 119.87501L36.909374 117.70313L35.4875 117.70313Q32.175 117.70313 32.175 119.64063Q32.175 120.50001 32.7375 120.98438Q33.3 121.45313 34.190624 121.45313ZM46.76875 113.87501Q46.3625 113.81251 45.89375 113.81251Q44.1125 113.81251 43.471874 115.32813L43.471874 122.82813L41.675 122.82813L41.675 112.26563L43.425 112.26563L43.45625 113.48438Q44.346874 112.06251 45.971874 112.06251Q46.503124 112.06251 46.76875 112.20313L46.76875 113.87501ZM55.190624 122.82813Q55.034374 122.51563 54.940624 121.71876Q53.675 123.03126 51.925 123.03126Q50.3625 123.03126 49.3625 122.14063Q48.3625 121.25001 48.3625 119.89063Q48.3625 118.25001 49.6125 117.34376Q50.878124 116.42188 53.14375 116.42188L54.909374 116.42188L54.909374 115.59376Q54.909374 114.64063 54.33125 114.07813Q53.76875 113.51563 52.675 113.51563Q51.70625 113.51563 51.05 114.01563Q50.39375 114.50001 50.39375 115.18751L48.58125 115.18751Q48.58125 114.40626 49.14375 113.67188Q49.70625 112.92188 50.659374 112.50001Q51.628124 112.06251 52.784374 112.06251Q54.6125 112.06251 55.64375 112.98438Q56.675 113.89063 56.721874 115.50001L56.721874 120.35938Q56.721874 121.81251 57.08125 122.67188L57.08125 122.82813L55.190624 122.82813ZM52.190624 121.45313Q53.05 121.45313 53.8 121.01563Q54.565624 120.57813 54.909374 119.87501L54.909374 117.70313L53.4875 117.70313Q50.175 117.70313 50.175 119.64063Q50.175 120.50001 50.7375 120.98438Q51.3 121.45313 52.190624 121.45313ZM59.2375 117.45313Q59.2375 114.98438 60.378124 113.53126Q61.51875 112.06251 63.409374 112.06251Q65.34688 112.06251 66.425 113.43751L66.51875 112.26563L68.15938 112.26563L68.15938 122.57813Q68.15938 124.62501 66.94063 125.79688Q65.7375 126.98438 63.675 126.98438Q62.534374 126.98438 61.440624 126.50001Q60.346874 126.01563 59.76875 125.15626L60.70625 124.07813Q61.878124 125.51563 63.55 125.51563Q64.87813 125.51563 65.6125 124.76563Q66.34688 124.03126 66.34688 122.68751L66.34688 121.76563Q65.26875 123.03126 63.39375 123.03126Q61.534374 123.03126 60.378124 121.53126Q59.2375 120.03126 59.2375 117.45313ZM61.05 117.65626Q61.05 119.45313 61.784374 120.46876Q62.51875 121.48438 63.83125 121.48438Q65.55 121.48438 66.34688 119.93751L66.34688 115.10938Q65.51875 113.59376 63.8625 113.59376Q62.534374 113.59376 61.784374 114.62501Q61.05 115.65626 61.05 117.65626ZM75.76875 113.87501Q75.3625 113.81251 74.89375 113.81251Q73.1125 113.81251 72.47188 115.32813L72.47188 122.82813L70.675 122.82813L70.675 112.26563L72.425 112.26563L72.45625 113.48438Q73.34688 112.06251 74.97188 112.06251Q75.50313 112.06251 75.76875 112.20313L75.76875 113.87501ZM84.19063 122.82813Q84.03438 122.51563 83.94063 121.71876Q82.675 123.03126 80.925 123.03126Q79.3625 123.03126 78.3625 122.14063Q77.3625 121.25001 77.3625 119.89063Q77.3625 118.25001 78.6125 117.34376Q79.87813 116.42188 82.14375 116.42188L83.90938 116.42188L83.90938 115.59376Q83.90938 114.64063 83.33125 114.07813Q82.76875 113.51563 81.675 113.51563Q80.70625 113.51563 80.05 114.01563Q79.39375 114.50001 79.39375 115.18751L77.58125 115.18751Q77.58125 114.40626 78.14375 113.67188Q78.70625 112.92188 79.65938 112.50001Q80.62813 112.06251 81.78438 112.06251Q83.6125 112.06251 84.64375 112.98438Q85.675 113.89063 85.72188 115.50001L85.72188 120.35938Q85.72188 121.81251 86.08125 122.67188L86.08125 122.82813L84.19063 122.82813ZM81.19063 121.45313Q82.05 121.45313 82.8 121.01563Q83.56563 120.57813 83.90938 119.87501L83.90938 117.70313L82.4875 117.70313Q79.175 117.70313 79.175 119.64063Q79.175 120.50001 79.7375 120.98438Q80.3 121.45313 81.19063 121.45313ZM97.59688 117.65626Q97.59688 120.07813 96.4875 121.56251Q95.39375 123.03126 93.50313 123.03126Q91.58125 123.03126 90.47188 121.79688L90.47188 126.89063L88.675 126.89063L88.675 112.26563L90.31563 112.26563L90.40938 113.43751Q91.50313 112.06251 93.47188 112.06251Q95.37813 112.06251 96.4875 113.50001Q97.59688 114.93751 97.59688 117.50001L97.59688 117.65626ZM95.78438 117.45313Q95.78438 115.67188 95.01875 114.64063Q94.26875 113.59376 92.94063 113.59376Q91.3 113.59376 90.47188 115.04688L90.47188 120.10938Q91.28438 121.54688 92.95625 121.54688Q94.25313 121.54688 95.01875 120.51563Q95.78438 119.48438 95.78438 117.45313ZM101.47188 113.54688Q102.675 112.06251 104.59688 112.06251Q107.95625 112.06251 107.97188 115.84376L107.97188 122.82813L106.175 122.82813L106.175 115.82813Q106.15938 114.68751 105.64375 114.14063Q105.14375 113.59376 104.05 113.59376Q103.175 113.59376 102.50313 114.06251Q101.84688 114.53126 101.47188 115.29688L101.47188 122.82813L99.675 122.82813L99.675 107.82813L101.47188 107.82813L101.47188 113.54688Z" fill-rule="nonzero"/><path fill="#9e9e9e" d="M22.1125 141.84375L23.471874 141.84375Q24.753124 141.8125 25.471874 141.17188Q26.20625 140.51562 26.20625 139.39062Q26.20625 136.89062 23.721874 136.89062Q22.55 136.89062 21.846874 137.5625Q21.159374 138.23438 21.159374 139.34375L19.346874 139.34375Q19.346874 137.65625 20.58125 136.53125Q21.815624 135.40625 23.721874 135.40625Q25.7375 135.40625 26.878124 136.48438Q28.01875 137.54688 28.01875 139.4375Q28.01875 140.35938 27.409374 141.23438Q26.815624 142.10938 25.784374 142.53125Q26.95625 142.90625 27.596874 143.76562Q28.2375 144.625 28.2375 145.85938Q28.2375 147.78125 26.9875 148.90625Q25.7375 150.03125 23.721874 150.03125Q21.721874 150.03125 20.471874 148.95312Q19.221874 147.85938 19.221874 146.07812L21.034374 146.07812Q21.034374 147.20312 21.76875 147.875Q22.503124 148.54688 23.7375 148.54688Q25.034374 148.54688 25.721874 147.875Q26.425 147.1875 26.425 145.90625Q26.425 144.65625 25.659374 144.0Q24.909374 143.32812 23.471874 143.3125L22.1125 143.3125L22.1125 141.84375ZM36.425 149.82812L34.596874 149.82812L34.596874 137.78125L30.95625 139.125L30.95625 137.48438L36.14375 135.54688L36.425 135.54688L36.425 149.82812ZM41.70625 148.875Q41.70625 148.40625 41.9875 148.09375Q42.26875 147.78125 42.815624 147.78125Q43.378124 147.78125 43.659374 148.09375Q43.95625 148.40625 43.95625 148.875Q43.95625 149.32812 43.659374 149.64062Q43.378124 149.9375 42.815624 149.9375Q42.26875 149.9375 41.9875 149.64062Q41.70625 149.32812 41.70625 148.875ZM55.659374 136.625L49.76875 149.82812L47.878124 149.82812L53.753124 137.09375L46.05 137.09375L46.05 135.60938L55.659374 135.60938L55.659374 136.625ZM57.33125 138.34375Q57.33125 137.0625 58.14375 136.23438Q58.95625 135.40625 60.2375 135.40625Q61.534374 135.40625 62.33125 136.25Q63.14375 137.07812 63.14375 138.40625L63.14375 139.09375Q63.14375 140.39062 62.33125 141.20312Q61.51875 142.01562 60.253124 142.01562Q58.9875 142.01562 58.159374 141.20312Q57.33125 140.39062 57.33125 139.03125L57.33125 138.34375ZM58.675 139.09375Q58.675 139.85938 59.096874 140.35938Q59.534374 140.84375 60.253124 140.84375Q60.95625 140.84375 61.378124 140.375Q61.8 139.89062 61.8 139.0625L61.8 138.34375Q61.8 137.57812 61.378124 137.07812Q60.95625 136.57812 60.2375 136.57812Q59.51875 136.57812 59.096874 137.07812Q58.675 137.57812 58.675 138.375L58.675 139.09375ZM64.25313 146.34375Q64.25313 145.0625 65.06563 144.23438Q65.87813 143.40625 67.15938 143.40625Q68.44063 143.40625 69.25313 144.23438Q70.08125 145.04688 70.08125 146.40625L70.08125 147.10938Q70.08125 148.375 69.26875 149.20312Q68.45625 150.03125 67.175 150.03125Q65.90938 150.03125 65.08125 149.21875Q64.25313 148.40625 64.25313 147.04688L64.25313 146.34375ZM65.59688 147.10938Q65.59688 147.875 66.01875 148.375Q66.45625 148.85938 67.175 148.85938Q67.87813 148.85938 68.3 148.375Q68.72188 147.89062 68.72188 147.0625L68.72188 146.34375Q68.72188 145.5625 68.3 145.07812Q67.87813 144.59375 67.15938 144.59375Q66.47188 144.59375 66.03438 145.07812Q65.59688 145.5625 65.59688 146.375L65.59688 147.10938ZM60.659374 148.75L59.64375 148.10938L66.58125 137.0L67.6125 137.64062L60.659374 148.75Z" fill-rule="nonzero"/><path stroke="#757575" stroke-width="1.0" stroke-linecap="butt" d="M18.3 129.32812L145.9 129.32812L181.00465 129.32812" fill-rule="nonzero"/><path fill="#9e9e9e" d="M183.00465 129.32812C183.00465 128.22356 182.10922 127.32813 181.00465 127.32813C179.90009 127.32813 179.00465 128.22356 179.00465 129.32812C179.00465 130.4327 179.90009 131.32812 181.00465 131.32812C182.10922 131.32812 183.00465 130.4327 183.00465 129.32812" fill-rule="nonzero"/><path fill="#757575" d="M25.815624 312.90314Q25.815624 312.16876 25.26875 311.7625Q24.721874 311.35626 23.346874 311.0594Q21.971874 310.7625 21.159374 310.35626Q20.3625 309.95 19.971874 309.3875Q19.596874 308.8094 19.596874 308.02814Q19.596874 306.73126 20.690624 305.84064Q21.784374 304.9344 23.503124 304.9344Q25.3 304.9344 26.409374 305.8719Q27.534374 306.79376 27.534374 308.23126L25.70625 308.23126Q25.70625 307.4969 25.08125 306.96564Q24.45625 306.41876 23.503124 306.41876Q22.503124 306.41876 21.940624 306.85626Q21.39375 307.27814 21.39375 307.98126Q21.39375 308.6219 21.909374 308.96564Q22.425 309.29376 23.784374 309.60626Q25.14375 309.90314 25.971874 310.325Q26.815624 310.73126 27.221874 311.325Q27.628124 311.91876 27.628124 312.7625Q27.628124 314.1844 26.4875 315.04376Q25.3625 315.90314 23.55 315.90314Q22.284374 315.90314 21.3 315.45Q20.33125 314.9969 19.76875 314.2Q19.221874 313.3875 19.221874 312.45L21.034374 312.45Q21.08125 313.35626 21.753124 313.8875Q22.440624 314.41876 23.55 314.41876Q24.58125 314.41876 25.190624 314.0125Q25.815624 313.59064 25.815624 312.90314ZM34.05 315.90314Q31.909374 315.90314 30.55 314.4969Q29.20625 313.075 29.20625 310.71564L29.20625 310.3719Q29.20625 308.8094 29.8 307.575Q30.409374 306.34064 31.4875 305.6375Q32.565624 304.9344 33.83125 304.9344Q35.89375 304.9344 37.034374 306.29376Q38.175 307.65314 38.175 310.1844L38.175 310.9344L31.01875 310.9344Q31.05 312.4969 31.925 313.46564Q32.8 314.41876 34.14375 314.41876Q35.1125 314.41876 35.76875 314.02814Q36.440624 313.6375 36.940624 312.9969L38.034374 313.85626Q36.70625 315.90314 34.05 315.90314ZM33.83125 306.41876Q32.7375 306.41876 31.9875 307.21564Q31.253124 308.0125 31.08125 309.45L36.3625 309.45L36.3625 309.3094Q36.284374 307.9344 35.6125 307.1844Q34.95625 306.41876 33.83125 306.41876ZM44.909374 314.41876Q45.878124 314.41876 46.596874 313.84064Q47.315624 313.2469 47.39375 312.3719L49.1125 312.3719Q49.05 313.27814 48.471874 314.10626Q47.909374 314.91876 46.940624 315.41876Q45.9875 315.90314 44.909374 315.90314Q42.753124 315.90314 41.471874 314.46564Q40.20625 313.0125 40.20625 310.5125L40.20625 310.21564Q40.20625 308.66876 40.76875 307.46564Q41.33125 306.2625 42.39375 305.60626Q43.45625 304.9344 44.89375 304.9344Q46.675 304.9344 47.846874 305.9969Q49.034374 307.0594 49.1125 308.7625L47.39375 308.7625Q47.315624 307.7469 46.6125 307.09064Q45.925 306.41876 44.89375 306.41876Q43.51875 306.41876 42.753124 307.41876Q42.003124 308.40314 42.003124 310.27814L42.003124 310.6219Q42.003124 312.45 42.753124 313.4344Q43.503124 314.41876 44.909374 314.41876ZM53.1125 302.575L53.1125 305.1375L55.096874 305.1375L55.096874 306.52814L53.1125 306.52814L53.1125 313.075Q53.1125 313.71564 53.378124 314.04376Q53.64375 314.35626 54.284374 314.35626Q54.596874 314.35626 55.14375 314.23126L55.14375 315.7Q54.425 315.90314 53.753124 315.90314Q52.55 315.90314 51.925 315.16876Q51.315624 314.4344 51.315624 313.075L51.315624 306.52814L49.39375 306.52814L49.39375 305.1375L51.315624 305.1375L51.315624 302.575L53.1125 302.575ZM59.628124 315.7L57.83125 315.7L57.83125 305.1375L59.628124 305.1375L59.628124 315.7ZM57.675 302.325Q57.675 301.8875 57.940624 301.59064Q58.221874 301.27814 58.7375 301.27814Q59.26875 301.27814 59.534374 301.59064Q59.815624 301.8875 59.815624 302.325Q59.815624 302.7625 59.534374 303.0594Q59.26875 303.35626 58.7375 303.35626Q58.221874 303.35626 57.940624 303.0594Q57.675 302.7625 57.675 302.325ZM62.190624 310.325Q62.190624 308.7625 62.8 307.52814Q63.409374 306.27814 64.4875 305.60626Q65.58125 304.9344 66.9875 304.9344Q69.14375 304.9344 70.47188 306.4344Q71.81563 307.91876 71.81563 310.40314L71.81563 310.52814Q71.81563 312.075 71.22188 313.3094Q70.62813 314.52814 69.51875 315.21564Q68.425 315.90314 67.00313 315.90314Q64.8625 315.90314 63.51875 314.40314Q62.190624 312.90314 62.190624 310.45L62.190624 310.325ZM64.00313 310.52814Q64.00313 312.29376 64.81563 313.35626Q65.64375 314.41876 67.00313 314.41876Q68.37813 314.41876 69.19063 313.34064Q70.00313 312.2625 70.00313 310.325Q70.00313 308.575 69.175 307.4969Q68.34688 306.41876 66.9875 306.41876Q65.64375 306.41876 64.81563 307.48126Q64.00313 308.54376 64.00313 310.52814ZM75.37813 305.1375L75.44063 306.46564Q76.64375 304.9344 78.59688 304.9344Q81.95625 304.9344 81.97188 308.71564L81.97188 315.7L80.175 315.7L80.175 308.7Q80.15938 307.5594 79.64375 307.0125Q79.14375 306.46564 78.05 306.46564Q77.175 306.46564 76.50313 306.9344Q75.84688 307.40314 75.47188 308.16876L75.47188 315.7L73.675 315.7L73.675 305.1375L75.37813 305.1375Z" fill-rule="nonzero"/><path fill="#9e9e9e" d="M28.8 342.7L19.4875 342.7L19.4875 341.40314L24.409374 335.9344Q25.503124 334.6844 25.909374 333.91876Q26.33125 333.1375 26.33125 332.3094Q26.33125 331.2 25.659374 330.48126Q24.9875 329.7625 23.8625 329.7625Q22.503124 329.7625 21.753124 330.54376Q21.01875 331.3094 21.01875 332.66876L19.20625 332.66876Q19.20625 330.7 20.471874 329.4969Q21.7375 328.27814 23.8625 328.27814Q25.846874 328.27814 26.9875 329.325Q28.14375 330.3719 28.14375 332.09064Q28.14375 334.2 25.471874 337.09064L21.659374 341.23126L28.8 341.23126L28.8 342.7ZM39.1125 332.1844Q39.1125 333.2625 38.55 334.09064Q37.9875 334.91876 37.01875 335.3875Q38.14375 335.85626 38.784374 336.77814Q39.440624 337.7 39.440624 338.85626Q39.440624 340.7 38.190624 341.8094Q36.940624 342.90314 34.909374 342.90314Q32.8625 342.90314 31.628124 341.8094Q30.39375 340.7 30.39375 338.85626Q30.39375 337.71564 31.01875 336.79376Q31.659374 335.85626 32.76875 335.3719Q31.815624 334.90314 31.26875 334.075Q30.721874 333.2469 30.721874 332.1844Q30.721874 330.3875 31.878124 329.34064Q33.034374 328.27814 34.909374 328.27814Q36.784374 328.27814 37.940624 329.34064Q39.1125 330.3875 39.1125 332.1844ZM37.628124 338.825Q37.628124 337.6375 36.8625 336.8875Q36.1125 336.1219 34.89375 336.1219Q33.675 336.1219 32.940624 336.8719Q32.20625 337.60626 32.20625 338.825Q32.20625 340.02814 32.925 340.73126Q33.64375 341.41876 34.909374 341.41876Q36.190624 341.41876 36.909374 340.73126Q37.628124 340.02814 37.628124 338.825ZM34.909374 329.7625Q33.846874 329.7625 33.190624 330.4344Q32.534374 331.09064 32.534374 332.21564Q32.534374 333.3094 33.175 333.98126Q33.83125 334.6375 34.909374 334.6375Q36.003124 334.6375 36.64375 333.98126Q37.3 333.3094 37.3 332.23126Q37.3 331.1375 36.628124 330.45Q35.95625 329.7625 34.909374 329.7625ZM41.70625 341.7469Q41.70625 341.27814 41.9875 340.96564Q42.26875 340.65314 42.815624 340.65314Q43.378124 340.65314 43.659374 340.96564Q43.95625 341.27814 43.95625 341.7469Q43.95625 342.2 43.659374 342.5125Q43.378124 342.8094 42.815624 342.8094Q42.26875 342.8094 41.9875 342.5125Q41.70625 342.2 41.70625 341.7469ZM53.565624 328.46564L53.565624 329.9969L53.2375 329.9969Q51.128124 330.04376 49.878124 331.2625Q48.628124 332.46564 48.440624 334.66876Q49.565624 333.3719 51.503124 333.3719Q53.3625 333.3719 54.471874 334.6844Q55.58125 335.9969 55.58125 338.0594Q55.58125 340.2625 54.378124 341.59064Q53.175 342.90314 51.175 342.90314Q49.128124 342.90314 47.8625 341.34064Q46.596874 339.7625 46.596874 337.29376L46.596874 336.59064Q46.596874 332.66876 48.26875 330.59064Q49.940624 328.5125 53.253124 328.46564L53.565624 328.46564ZM51.20625 334.8719Q50.26875 334.8719 49.4875 335.4344Q48.70625 335.9969 48.409374 336.825L48.409374 337.4969Q48.409374 339.2469 49.190624 340.325Q49.9875 341.40314 51.175 341.40314Q52.39375 341.40314 53.08125 340.5125Q53.784374 339.60626 53.784374 338.15314Q53.784374 336.6844 53.08125 335.77814Q52.378124 334.8719 51.20625 334.8719ZM57.33125 331.21564Q57.33125 329.9344 58.14375 329.10626Q58.95625 328.27814 60.2375 328.27814Q61.534374 328.27814 62.33125 329.1219Q63.14375 329.95 63.14375 331.27814L63.14375 331.96564Q63.14375 333.2625 62.33125 334.075Q61.51875 334.8875 60.253124 334.8875Q58.9875 334.8875 58.159374 334.075Q57.33125 333.2625 57.33125 331.90314L57.33125 331.21564ZM58.675 331.96564Q58.675 332.73126 59.096874 333.23126Q59.534374 333.71564 60.253124 333.71564Q60.95625 333.71564 61.378124 333.2469Q61.8 332.7625 61.8 331.9344L61.8 331.21564Q61.8 330.45 61.378124 329.95Q60.95625 329.45 60.2375 329.45Q59.51875 329.45 59.096874 329.95Q58.675 330.45 58.675 331.2469L58.675 331.96564ZM64.25313 339.21564Q64.25313 337.9344 65.06563 337.10626Q65.87813 336.27814 67.15938 336.27814Q68.44063 336.27814 69.25313 337.10626Q70.08125 337.91876 70.08125 339.27814L70.08125 339.98126Q70.08125 341.2469 69.26875 342.075Q68.45625 342.90314 67.175 342.90314Q65.90938 342.90314 65.08125 342.09064Q64.25313 341.27814 64.25313 339.91876L64.25313 339.21564ZM65.59688 339.98126Q65.59688 340.7469 66.01875 341.2469Q66.45625 341.73126 67.175 341.73126Q67.87813 341.73126 68.3 341.2469Q68.72188 340.7625 68.72188 339.9344L68.72188 339.21564Q68.72188 338.4344 68.3 337.95Q67.87813 337.46564 67.15938 337.46564Q66.47188 337.46564 66.03438 337.95Q65.59688 338.4344 65.59688 339.2469L65.59688 339.98126ZM60.659374 341.6219L59.64375 340.98126L66.58125 329.8719L67.6125 330.5125L60.659374 341.6219Z" fill-rule="nonzero"/><path stroke="#757575" stroke-width="1.0" stroke-linecap="butt" d="M18.3 322.2L145.9 322.2L262.22015 336.26184" fill-rule="nonzero"/><path fill="#9e9e9e" d="M264.22015 336.26184C264.22015 335.15726 263.3247 334.26184 262.22015 334.26184C261.11557 334.26184 260.22015 335.15726 260.22015 336.26184C260.22015 337.3664 261.11557 338.26184 262.22015 338.26184C263.3247 338.26184 264.22015 337.3664 264.22015 336.26184" fill-rule="nonzero"/><path fill="#757575" d="M525.59064 153.50076Q525.4344 153.18826 525.34064 152.39139Q524.075 153.70389 522.325 153.70389Q520.7625 153.70389 519.7625 152.81326Q518.7625 151.92264 518.7625 150.56326Q518.7625 148.92264 520.0125 148.01639Q521.27814 147.09451 523.54376 147.09451L525.3094 147.09451L525.3094 146.26639Q525.3094 145.31326 524.73126 144.75076Q524.16876 144.18826 523.075 144.18826Q522.10626 144.18826 521.45 144.68826Q520.79376 145.17264 520.79376 145.86014L518.98126 145.86014Q518.98126 145.07889 519.54376 144.34451Q520.10626 143.59451 521.0594 143.17264Q522.02814 142.73514 523.1844 142.73514Q525.0125 142.73514 526.04376 143.65701Q527.075 144.56326 527.1219 146.17264L527.1219 151.03201Q527.1219 152.48514 527.48126 153.34451L527.48126 153.50076L525.59064 153.50076ZM522.59064 152.12576Q523.45 152.12576 524.2 151.68826Q524.96564 151.25076 525.3094 150.54764L525.3094 148.37576L523.8875 148.37576Q520.575 148.37576 520.575 150.31326Q520.575 151.17264 521.1375 151.65701Q521.7 152.12576 522.59064 152.12576ZM535.16876 144.54764Q534.7625 144.48514 534.29376 144.48514Q532.5125 144.48514 531.8719 146.00076L531.8719 153.50076L530.075 153.50076L530.075 142.93826L531.825 142.93826L531.85626 144.15701Q532.7469 142.73514 534.3719 142.73514Q534.90314 142.73514 535.16876 142.87576L535.16876 144.54764ZM539.5125 140.37576L539.5125 142.93826L541.4969 142.93826L541.4969 144.32889L539.5125 144.32889L539.5125 150.87576Q539.5125 151.51639 539.77814 151.84451Q540.04376 152.15701 540.6844 152.15701Q540.9969 152.15701 541.54376 152.03201L541.54376 153.50076Q540.825 153.70389 540.15314 153.70389Q538.95 153.70389 538.325 152.96951Q537.71564 152.23514 537.71564 150.87576L537.71564 144.32889L535.79376 144.32889L535.79376 142.93826L537.71564 142.93826L537.71564 140.37576L539.5125 140.37576ZM546.02814 153.50076L544.23126 153.50076L544.23126 142.93826L546.02814 142.93826L546.02814 153.50076ZM544.075 140.12576Q544.075 139.68826 544.34064 139.39139Q544.6219 139.07889 545.1375 139.07889Q545.66876 139.07889 545.9344 139.39139Q546.21564 139.68826 546.21564 140.12576Q546.21564 140.56326 545.9344 140.86014Q545.66876 141.15701 545.1375 141.15701Q544.6219 141.15701 544.34064 140.86014Q544.075 140.56326 544.075 140.12576ZM553.3094 152.21951Q554.27814 152.21951 554.9969 151.64139Q555.71564 151.04764 555.79376 150.17264L557.5125 150.17264Q557.45 151.07889 556.8719 151.90701Q556.3094 152.71951 555.34064 153.21951Q554.3875 153.70389 553.3094 153.70389Q551.15314 153.70389 549.8719 152.26639Q548.60626 150.81326 548.60626 148.31326L548.60626 148.01639Q548.60626 146.46951 549.16876 145.26639Q549.73126 144.06326 550.79376 143.40701Q551.85626 142.73514 553.29376 142.73514Q555.075 142.73514 556.2469 143.79764Q557.4344 144.86014 557.5125 146.56326L555.79376 146.56326Q555.71564 145.54764 555.0125 144.89139Q554.325 144.21951 553.29376 144.21951Q551.91876 144.21951 551.15314 145.21951Q550.40314 146.20389 550.40314 148.07889L550.40314 148.42264Q550.40314 150.25076 551.15314 151.23514Q551.90314 152.21951 553.3094 152.21951ZM561.02814 153.50076L559.23126 153.50076L559.23126 138.50076L561.02814 138.50076L561.02814 153.50076ZM568.45 153.70389Q566.3094 153.70389 564.95 152.29764Q563.60626 150.87576 563.60626 148.51639L563.60626 148.17264Q563.60626 146.61014 564.2 145.37576Q564.8094 144.14139 565.8875 143.43826Q566.96564 142.73514 568.23126 142.73514Q570.29376 142.73514 571.4344 144.09451Q572.575 145.45389 572.575 147.98514L572.575 148.73514L565.41876 148.73514Q565.45 150.29764 566.325 151.26639Q567.2 152.21951 568.54376 152.21951Q569.5125 152.21951 570.16876 151.82889Q570.84064 151.43826 571.34064 150.79764L572.4344 151.65701Q571.10626 153.70389 568.45 153.70389ZM568.23126 144.21951Q567.1375 144.21951 566.3875 145.01639Q565.65314 145.81326 565.48126 147.25076L570.7625 147.25076L570.7625 147.11014Q570.6844 145.73514 570.0125 144.98514Q569.35626 144.21951 568.23126 144.21951Z" fill-rule="nonzero"/><path fill="#9e9e9e" d="M524.5125 172.51639L525.8719 172.51639Q527.15314 172.48514 527.8719 171.84451Q528.60626 171.18826 528.60626 170.06326Q528.60626 167.56326 526.1219 167.56326Q524.95 167.56326 524.2469 168.23514Q523.5594 168.90701 523.5594 170.01639L521.7469 170.01639Q521.7469 168.32889 522.98126 167.20389Q524.21564 166.07889 526.1219 166.07889Q528.1375 166.07889 529.27814 167.15701Q530.41876 168.21951 530.41876 170.11014Q530.41876 171.03201 529.8094 171.90701Q529.21564 172.78201 528.1844 173.20389Q529.35626 173.57889 529.9969 174.43826Q530.6375 175.29764 530.6375 176.53201Q530.6375 178.45389 529.3875 179.57889Q528.1375 180.70389 526.1219 180.70389Q524.1219 180.70389 522.8719 179.62576Q521.6219 178.53201 521.6219 176.75076L523.4344 176.75076Q523.4344 177.87576 524.16876 178.54764Q524.90314 179.21951 526.1375 179.21951Q527.4344 179.21951 528.1219 178.54764Q528.825 177.86014 528.825 176.57889Q528.825 175.32889 528.0594 174.67264Q527.3094 174.00076 525.8719 173.98514L524.5125 173.98514L524.5125 172.51639ZM539.8094 174.25076Q539.2469 174.92264 538.45 175.34451Q537.66876 175.75076 536.73126 175.75076Q535.4969 175.75076 534.575 175.14139Q533.66876 174.53201 533.16876 173.43826Q532.6844 172.32889 532.6844 171.00076Q532.6844 169.57889 533.21564 168.43826Q533.7625 167.29764 534.7469 166.68826Q535.7469 166.07889 537.075 166.07889Q539.1844 166.07889 540.40314 167.65701Q541.6219 169.23514 541.6219 171.96951L541.6219 172.48514Q541.6219 176.64139 539.98126 178.54764Q538.34064 180.45389 535.02814 180.51639L534.6844 180.51639L534.6844 178.98514L535.0594 178.98514Q537.29376 178.95389 538.4969 177.82889Q539.7 176.68826 539.8094 174.25076ZM537.02814 174.25076Q537.9344 174.25076 538.7 173.70389Q539.46564 173.14139 539.8094 172.31326L539.8094 171.59451Q539.8094 169.81326 539.04376 168.70389Q538.27814 167.59451 537.09064 167.59451Q535.90314 167.59451 535.16876 168.51639Q534.45 169.42264 534.45 170.90701Q534.45 172.36014 535.15314 173.31326Q535.85626 174.25076 537.02814 174.25076ZM544.10626 179.54764Q544.10626 179.07889 544.3875 178.76639Q544.66876 178.45389 545.21564 178.45389Q545.77814 178.45389 546.0594 178.76639Q546.35626 179.07889 546.35626 179.54764Q546.35626 180.00076 546.0594 180.31326Q545.77814 180.61014 545.21564 180.61014Q544.66876 180.61014 544.3875 180.31326Q544.10626 180.00076 544.10626 179.54764ZM558.0594 167.29764L552.16876 180.50076L550.27814 180.50076L556.15314 167.76639L548.45 167.76639L548.45 166.28201L558.0594 166.28201L558.0594 167.29764ZM559.73126 169.01639Q559.73126 167.73514 560.54376 166.90701Q561.35626 166.07889 562.6375 166.07889Q563.9344 166.07889 564.73126 166.92264Q565.54376 167.75076 565.54376 169.07889L565.54376 169.76639Q565.54376 171.06326 564.73126 171.87576Q563.91876 172.68826 562.65314 172.68826Q561.3875 172.68826 560.5594 171.87576Q559.73126 171.06326 559.73126 169.70389L559.73126 169.01639ZM561.075 169.76639Q561.075 170.53201 561.4969 171.03201Q561.9344 171.51639 562.65314 171.51639Q563.35626 171.51639 563.77814 171.04764Q564.2 170.56326 564.2 169.73514L564.2 169.01639Q564.2 168.25076 563.77814 167.75076Q563.35626 167.25076 562.6375 167.25076Q561.91876 167.25076 561.4969 167.75076Q561.075 168.25076 561.075 169.04764L561.075 169.76639ZM566.65314 177.01639Q566.65314 175.73514 567.46564 174.90701Q568.27814 174.07889 569.5594 174.07889Q570.84064 174.07889 571.65314 174.90701Q572.48126 175.71951 572.48126 177.07889L572.48126 177.78201Q572.48126 179.04764 571.66876 179.87576Q570.85626 180.70389 569.575 180.70389Q568.3094 180.70389 567.48126 179.89139Q566.65314 179.07889 566.65314 177.71951L566.65314 177.01639ZM567.9969 177.78201Q567.9969 178.54764 568.41876 179.04764Q568.85626 179.53201 569.575 179.53201Q570.27814 179.53201 570.7 179.04764Q571.1219 178.56326 571.1219 177.73514L571.1219 177.01639Q571.1219 176.23514 570.7 175.75076Q570.27814 175.26639 569.5594 175.26639Q568.8719 175.26639 568.4344 175.75076Q567.9969 176.23514 567.9969 177.04764L567.9969 177.78201ZM563.0594 179.42264L562.04376 178.78201L568.98126 167.67264L570.0125 168.31326L563.0594 179.42264Z" fill-rule="nonzero"/><path stroke="#757575" stroke-width="1.0" stroke-linecap="butt" d="M573.7 160.00076L446.1 160.00076L425.7665 160.00076" fill-rule="nonzero"/><path fill="#9e9e9e" d="M427.7665 160.00076C427.7665 158.8962 426.8711 158.00076 425.7665 158.00076C424.66196 158.00076 423.7665 158.8962 423.7665 160.00076C423.7665 161.10535 424.66196 162.00076 425.7665 162.00076C426.8711 162.00076 427.7665 161.10535 427.7665 160.00076" fill-rule="nonzero"/><path fill="#757575" d="M26.534374 34.39375L22.534374 34.39375L22.534374 41.3L20.26875 41.3L20.26875 24.2375L25.925 24.2375Q28.8 24.2375 30.346874 25.55Q31.909374 26.8625 31.909374 29.3625Q31.909374 30.95625 31.05 32.14375Q30.190624 33.33125 28.64375 33.909374L32.659374 41.159374L32.659374 41.3L30.2375 41.3L26.534374 34.39375ZM22.534374 32.55L25.9875 32.55Q27.659374 32.55 28.64375 31.690624Q29.64375 30.815624 29.64375 29.3625Q29.64375 27.784374 28.690624 26.940624Q27.753124 26.096874 25.971874 26.08125L22.534374 26.08125L22.534374 32.55ZM40.20625 41.534374Q37.628124 41.534374 36.003124 39.846874Q34.39375 38.14375 34.39375 35.315624L34.39375 34.909374Q34.39375 33.01875 35.1125 31.55Q35.83125 30.065624 37.128124 29.221874Q38.425 28.378124 39.940624 28.378124Q42.409374 28.378124 43.76875 30.01875Q45.14375 31.64375 45.14375 34.675L45.14375 35.58125L36.565624 35.58125Q36.6125 37.45625 37.659374 38.6125Q38.70625 39.76875 40.315624 39.76875Q41.471874 39.76875 42.26875 39.3Q43.065624 38.83125 43.659374 38.05L44.9875 39.08125Q43.39375 41.534374 40.20625 41.534374ZM39.940624 30.159374Q38.628124 30.159374 37.7375 31.128124Q36.846874 32.08125 36.628124 33.8L42.9875 33.8L42.9875 33.628124Q42.89375 31.9875 42.096874 31.08125Q41.3 30.159374 39.940624 30.159374ZM52.128124 38.3625L55.26875 28.6125L57.4875 28.6125L52.940624 41.3L51.284374 41.3L46.690624 28.6125L48.909374 28.6125L52.128124 38.3625ZM62.3 41.3L60.128124 41.3L60.128124 28.6125L62.3 28.6125L62.3 41.3ZM59.95625 25.253124Q59.95625 24.721874 60.26875 24.3625Q60.596874 24.003124 61.221874 24.003124Q61.8625 24.003124 62.190624 24.3625Q62.51875 24.721874 62.51875 25.253124Q62.51875 25.784374 62.190624 26.14375Q61.8625 26.4875 61.221874 26.4875Q60.596874 26.4875 60.26875 26.14375Q59.95625 25.784374 59.95625 25.253124ZM71.20625 41.534374Q68.62813 41.534374 67.00313 39.846874Q65.39375 38.14375 65.39375 35.315624L65.39375 34.909374Q65.39375 33.01875 66.1125 31.55Q66.83125 30.065624 68.12813 29.221874Q69.425 28.378124 70.94063 28.378124Q73.40938 28.378124 74.76875 30.01875Q76.14375 31.64375 76.14375 34.675L76.14375 35.58125L67.56563 35.58125Q67.6125 37.45625 68.65938 38.6125Q69.70625 39.76875 71.31563 39.76875Q72.47188 39.76875 73.26875 39.3Q74.06563 38.83125 74.65938 38.05L75.9875 39.08125Q74.39375 41.534374 71.20625 41.534374ZM70.94063 30.159374Q69.62813 30.159374 68.7375 31.128124Q67.84688 32.08125 67.62813 33.8L73.9875 33.8L73.9875 33.628124Q73.89375 31.9875 73.09688 31.08125Q72.3 30.159374 70.94063 30.159374ZM90.175 38.315624L92.6125 28.6125L94.76875 28.6125L91.08125 41.3L89.33125 41.3L86.2375 31.690624L83.2375 41.3L81.4875 41.3L77.8 28.6125L79.95625 28.6125L82.45625 38.1125L85.40938 28.6125L87.15938 28.6125L90.175 38.315624ZM108.03438 39.76875Q109.19063 39.76875 110.05 39.065624Q110.925 38.3625 111.01875 37.3L113.06563 37.3Q113.00313 38.39375 112.31563 39.378124Q111.62813 40.3625 110.47188 40.95625Q109.31563 41.534374 108.03438 41.534374Q105.44063 41.534374 103.90938 39.815624Q102.37813 38.08125 102.37813 35.08125L102.37813 34.70625Q102.37813 32.8625 103.05 31.425Q103.7375 29.971874 105.00313 29.175Q106.28438 28.378124 108.01875 28.378124Q110.14375 28.378124 111.55 29.659374Q112.97188 30.940624 113.06563 32.971874L111.01875 32.971874Q110.925 31.753124 110.08125 30.95625Q109.25313 30.159374 108.01875 30.159374Q106.3625 30.159374 105.45625 31.3625Q104.55 32.55 104.55 34.8L104.55 35.20625Q104.55 37.39375 105.44063 38.58125Q106.34688 39.76875 108.03438 39.76875ZM115.3625 34.846874Q115.3625 32.971874 116.09688 31.4875Q116.83125 30.003124 118.12813 29.190624Q119.44063 28.378124 121.12813 28.378124Q123.70625 28.378124 125.3 30.175Q126.90938 31.971874 126.90938 34.940624L126.90938 35.096874Q126.90938 36.95625 126.19063 38.425Q125.4875 39.89375 124.175 40.721874Q122.8625 41.534374 121.14375 41.534374Q118.56563 41.534374 116.95625 39.7375Q115.3625 37.940624 115.3625 34.9875L115.3625 34.846874ZM117.55 35.096874Q117.55 37.20625 118.51875 38.4875Q119.50313 39.76875 121.14375 39.76875Q122.8 39.76875 123.76875 38.471874Q124.7375 37.175 124.7375 34.846874Q124.7375 32.753124 123.75313 31.45625Q122.76875 30.159374 121.12813 30.159374Q119.51875 30.159374 118.53438 31.440624Q117.55 32.721874 117.55 35.096874ZM131.9875 28.6125L132.03438 30.01875Q133.44063 28.378124 135.8 28.378124Q138.45625 28.378124 139.425 30.425Q140.05 29.503124 141.06563 28.940624Q142.08125 28.378124 143.47188 28.378124Q147.64375 28.378124 147.70625 32.8L147.70625 41.3L145.53438 41.3L145.53438 32.925Q145.53438 31.565624 144.90938 30.89375Q144.3 30.221874 142.83125 30.221874Q141.62813 30.221874 140.83125 30.940624Q140.03438 31.659374 139.90938 32.878124L139.90938 41.3L137.72188 41.3L137.72188 32.9875Q137.72188 30.221874 135.01875 30.221874Q132.87813 30.221874 132.09688 32.034374L132.09688 41.3L129.925 41.3L129.925 28.6125L131.9875 28.6125ZM152.9875 28.6125L153.03438 30.01875Q154.44063 28.378124 156.8 28.378124Q159.45625 28.378124 160.425 30.425Q161.05 29.503124 162.06563 28.940624Q163.08125 28.378124 164.47188 28.378124Q168.64375 28.378124 168.70625 32.8L168.70625 41.3L166.53438 41.3L166.53438 32.925Q166.53438 31.565624 165.90938 30.89375Q165.3 30.221874 163.83125 30.221874Q162.62813 30.221874 161.83125 30.940624Q161.03438 31.659374 160.90938 32.878124L160.90938 41.3L158.72188 41.3L158.72188 32.9875Q158.72188 30.221874 156.01875 30.221874Q153.87813 30.221874 153.09688 32.034374L153.09688 41.3L150.925 41.3L150.925 28.6125L152.9875 28.6125ZM177.20625 41.534374Q174.62813 41.534374 173.00313 39.846874Q171.39375 38.14375 171.39375 35.315624L171.39375 34.909374Q171.39375 33.01875 172.1125 31.55Q172.83125 30.065624 174.12813 29.221874Q175.425 28.378124 176.94063 28.378124Q179.40938 28.378124 180.76875 30.01875Q182.14375 31.64375 182.14375 34.675L182.14375 35.58125L173.56563 35.58125Q173.6125 37.45625 174.65938 38.6125Q175.70625 39.76875 177.31563 39.76875Q178.47188 39.76875 179.26875 39.3Q180.06563 38.83125 180.65938 38.05L181.9875 39.08125Q180.39375 41.534374 177.20625 41.534374ZM176.94063 30.159374Q175.62813 30.159374 174.7375 31.128124Q173.84688 32.08125 173.62813 33.8L179.9875 33.8L179.9875 33.628124Q179.89375 31.9875 179.09688 31.08125Q178.3 30.159374 176.94063 30.159374ZM186.9875 28.6125L187.06563 30.20625Q188.51875 28.378124 190.8625 28.378124Q194.87813 28.378124 194.90938 32.925L194.90938 41.3L192.75313 41.3L192.75313 32.909374Q192.7375 31.534374 192.1125 30.878124Q191.50313 30.221874 190.20625 30.221874Q189.14375 30.221874 188.34688 30.784374Q187.55 31.346874 187.1125 32.26875L187.1125 41.3L184.94063 41.3L184.94063 28.6125L186.9875 28.6125ZM200.87813 25.55L200.87813 28.6125L203.25313 28.6125L203.25313 30.3L200.87813 30.3L200.87813 38.159374Q200.87813 38.925 201.19063 39.3Q201.51875 39.675 202.28438 39.675Q202.65938 39.675 203.31563 39.534374L203.31563 41.3Q202.45625 41.534374 201.64375 41.534374Q200.19063 41.534374 199.45625 40.659374Q198.72188 39.76875 198.72188 38.159374L198.72188 30.3L196.40938 30.3L196.40938 28.6125L198.72188 28.6125L198.72188 25.55L200.87813 25.55ZM213.33125 37.940624Q213.33125 37.05 212.65938 36.565624Q212.00313 36.08125 210.34688 35.7375Q208.70625 35.378124 207.7375 34.89375Q206.76875 34.39375 206.3 33.721874Q205.84688 33.034374 205.84688 32.096874Q205.84688 30.534374 207.15938 29.45625Q208.4875 28.378124 210.53438 28.378124Q212.69063 28.378124 214.03438 29.503124Q215.37813 30.6125 215.37813 32.346874L213.19063 32.346874Q213.19063 31.45625 212.44063 30.815624Q211.69063 30.159374 210.53438 30.159374Q209.34688 30.159374 208.675 30.675Q208.01875 31.190624 208.01875 32.034374Q208.01875 32.815624 208.62813 33.221874Q209.25313 33.6125 210.87813 33.971874Q212.50313 34.33125 213.50313 34.846874Q214.51875 35.346874 215.00313 36.065624Q215.4875 36.76875 215.4875 37.784374Q215.4875 39.4875 214.12813 40.51875Q212.76875 41.534374 210.6125 41.534374Q209.08125 41.534374 207.90938 41.003124Q206.7375 40.45625 206.06563 39.4875Q205.40938 38.51875 205.40938 37.39375L207.58125 37.39375Q207.64375 38.4875 208.45625 39.128124Q209.26875 39.76875 210.6125 39.76875Q211.83125 39.76875 212.58125 39.26875Q213.33125 38.76875 213.33125 37.940624ZM226.69063 41.3L224.44063 41.3L224.44063 24.2375L226.69063 24.2375L226.69063 41.3ZM236.31563 33.690624Q233.40938 32.8625 232.09688 31.659374Q230.78438 30.440624 230.78438 28.659374Q230.78438 26.64375 232.39375 25.33125Q234.00313 24.003124 236.58125 24.003124Q238.33125 24.003124 239.70625 24.690624Q241.09688 25.3625 241.84688 26.565624Q242.59688 27.753124 242.59688 29.175L240.34688 29.175Q240.34688 27.628124 239.3625 26.7375Q238.37813 25.846874 236.58125 25.846874Q234.90938 25.846874 233.97188 26.58125Q233.05 27.315624 233.05 28.6125Q233.05 29.659374 233.925 30.378124Q234.81563 31.096874 236.94063 31.70625Q239.08125 32.3 240.26875 33.01875Q241.47188 33.7375 242.05 34.70625Q242.64375 35.659374 242.64375 36.95625Q242.64375 39.034374 241.01875 40.284374Q239.40938 41.534374 236.69063 41.534374Q234.94063 41.534374 233.40938 40.8625Q231.89375 40.190624 231.06563 39.01875Q230.2375 37.846874 230.2375 36.346874L232.50313 36.346874Q232.50313 37.89375 233.64375 38.8Q234.78438 39.690624 236.69063 39.690624Q238.47188 39.690624 239.425 38.971874Q240.37813 38.2375 240.37813 36.9875Q240.37813 35.7375 239.4875 35.05Q238.6125 34.3625 236.31563 33.690624ZM248.95625 35.925L249.28438 38.175L249.76875 36.14375L253.14375 24.2375L255.05 24.2375L258.33124 36.14375L258.8 38.20625L259.175 35.909374L261.8156 24.2375L264.08124 24.2375L259.9406 41.3L257.89374 41.3L254.37813 28.8625L254.1125 27.565624L253.83125 28.8625L250.19063 41.3L248.14375 41.3L244.01875 24.2375L246.26875 24.2375L248.95625 35.925ZM278.83124 35.878124Q278.51874 38.596874 276.83124 40.065624Q275.15936 41.534374 272.3625 41.534374Q269.34686 41.534374 267.51874 39.3625Q265.6906 37.190624 265.6906 33.565624L265.6906 31.925Q265.6906 29.55 266.53436 27.753124Q267.39374 25.940624 268.95624 24.971874Q270.51874 24.003124 272.5656 24.003124Q275.28436 24.003124 276.925 25.51875Q278.5656 27.034374 278.83124 29.721874L276.5656 29.721874Q276.28436 27.675 275.3 26.76875Q274.3156 25.846874 272.5656 25.846874Q270.40936 25.846874 269.175 27.440624Q267.95624 29.034374 267.95624 31.9875L267.95624 33.628124Q267.95624 36.409374 269.1125 38.05Q270.28436 39.690624 272.3625 39.690624Q274.2375 39.690624 275.2375 38.846874Q276.2375 37.9875 276.5656 35.878124L278.83124 35.878124ZM286.45624 34.940624L280.7375 34.940624L280.7375 33.159374L286.45624 33.159374L286.45624 34.940624ZM289.28436 41.3L289.28436 24.2375L294.09686 24.2375Q296.33124 24.2375 298.03436 25.221874Q299.7531 26.20625 300.675 28.01875Q301.6125 29.83125 301.6281 32.190624L301.6281 33.284374Q301.6281 35.690624 300.6906 37.51875Q299.7531 39.33125 298.01874 40.3Q296.3 41.26875 294.0031 41.3L289.28436 41.3ZM291.53436 26.08125L291.53436 39.45625L293.89374 39.45625Q296.5031 39.45625 297.9406 37.846874Q299.39374 36.221874 299.39374 33.2375L299.39374 32.2375Q299.39374 29.33125 298.01874 27.721874Q296.65936 26.1125 294.15936 26.08125L291.53436 26.08125ZM310.20624 41.534374Q307.6281 41.534374 306.0031 39.846874Q304.39374 38.14375 304.39374 35.315624L304.39374 34.909374Q304.39374 33.01875 305.1125 31.55Q305.83124 30.065624 307.1281 29.221874Q308.425 28.378124 309.9406 28.378124Q312.40936 28.378124 313.76874 30.01875Q315.14374 31.64375 315.14374 34.675L315.14374 35.58125L306.5656 35.58125Q306.6125 37.45625 307.65936 38.6125Q308.70624 39.76875 310.3156 39.76875Q311.47186 39.76875 312.26874 39.3Q313.0656 38.83125 313.65936 38.05L314.9875 39.08125Q313.39374 41.534374 310.20624 41.534374ZM309.9406 30.159374Q308.6281 30.159374 307.7375 31.128124Q306.84686 32.08125 306.6281 33.8L312.9875 33.8L312.9875 33.628124Q312.89374 31.9875 312.09686 31.08125Q311.3 30.159374 309.9406 30.159374ZM323.3156 33.690624Q320.40936 32.8625 319.09686 31.659374Q317.78436 30.440624 317.78436 28.659374Q317.78436 26.64375 319.39374 25.33125Q321.0031 24.003124 323.58124 24.003124Q325.33124 24.003124 326.70624 24.690624Q328.09686 25.3625 328.84686 26.565624Q329.59686 27.753124 329.59686 29.175L327.34686 29.175Q327.34686 27.628124 326.3625 26.7375Q325.3781 25.846874 323.58124 25.846874Q321.90936 25.846874 320.97186 26.58125Q320.05 27.315624 320.05 28.6125Q320.05 29.659374 320.925 30.378124Q321.8156 31.096874 323.9406 31.70625Q326.08124 32.3 327.26874 33.01875Q328.47186 33.7375 329.05 34.70625Q329.64374 35.659374 329.64374 36.95625Q329.64374 39.034374 328.01874 40.284374Q326.40936 41.534374 323.6906 41.534374Q321.9406 41.534374 320.40936 40.8625Q318.89374 40.190624 318.0656 39.01875Q317.2375 37.846874 317.2375 36.346874L319.5031 36.346874Q319.5031 37.89375 320.64374 38.8Q321.78436 39.690624 323.6906 39.690624Q325.47186 39.690624 326.425 38.971874Q327.3781 38.2375 327.3781 36.9875Q327.3781 35.7375 326.4875 35.05Q325.6125 34.3625 323.3156 33.690624ZM337.20624 41.534374Q334.6281 41.534374 333.0031 39.846874Q331.39374 38.14375 331.39374 35.315624L331.39374 34.909374Q331.39374 33.01875 332.1125 31.55Q332.83124 30.065624 334.1281 29.221874Q335.425 28.378124 336.9406 28.378124Q339.40936 28.378124 340.76874 30.01875Q342.14374 31.64375 342.14374 34.675L342.14374 35.58125L333.5656 35.58125Q333.6125 37.45625 334.65936 38.6125Q335.70624 39.76875 337.3156 39.76875Q338.47186 39.76875 339.26874 39.3Q340.0656 38.83125 340.65936 38.05L341.9875 39.08125Q340.39374 41.534374 337.20624 41.534374ZM336.9406 30.159374Q335.6281 30.159374 334.7375 31.128124Q333.84686 32.08125 333.6281 33.8L339.9875 33.8L339.9875 33.628124Q339.89374 31.9875 339.09686 31.08125Q338.3 30.159374 336.9406 30.159374ZM346.9875 28.6125L347.03436 30.01875Q348.4406 28.378124 350.8 28.378124Q353.45624 28.378124 354.425 30.425Q355.05 29.503124 356.0656 28.940624Q357.08124 28.378124 358.47186 28.378124Q362.64374 28.378124 362.70624 32.8L362.70624 41.3L360.53436 41.3L360.53436 32.925Q360.53436 31.565624 359.90936 30.89375Q359.3 30.221874 357.83124 30.221874Q356.6281 30.221874 355.83124 30.940624Q355.03436 31.659374 354.90936 32.878124L354.90936 41.3L352.72186 41.3L352.72186 32.9875Q352.72186 30.221874 350.01874 30.221874Q347.8781 30.221874 347.09686 32.034374L347.09686 41.3L344.925 41.3L344.925 28.6125L346.9875 28.6125ZM369.95624 35.925L370.28436 38.175L370.76874 36.14375L374.14374 24.2375L376.05 24.2375L379.33124 36.14375L379.8 38.20625L380.175 35.909374L382.8156 24.2375L385.08124 24.2375L380.9406 41.3L378.89374 41.3L375.3781 28.8625L375.1125 27.565624L374.83124 28.8625L371.1906 41.3L369.14374 41.3L365.01874 24.2375L367.26874 24.2375L369.95624 35.925ZM392.20624 41.534374Q389.6281 41.534374 388.0031 39.846874Q386.39374 38.14375 386.39374 35.315624L386.39374 34.909374Q386.39374 33.01875 387.1125 31.55Q387.83124 30.065624 389.1281 29.221874Q390.425 28.378124 391.9406 28.378124Q394.40936 28.378124 395.76874 30.01875Q397.14374 31.64375 397.14374 34.675L397.14374 35.58125L388.5656 35.58125Q388.6125 37.45625 389.65936 38.6125Q390.70624 39.76875 392.3156 39.76875Q393.47186 39.76875 394.26874 39.3Q395.0656 38.83125 395.65936 38.05L396.9875 39.08125Q395.39374 41.534374 392.20624 41.534374ZM391.9406 30.159374Q390.6281 30.159374 389.7375 31.128124Q388.84686 32.08125 388.6281 33.8L394.9875 33.8L394.9875 33.628124Q394.89374 31.9875 394.09686 31.08125Q393.3 30.159374 391.9406 30.159374ZM410.675 35.096874Q410.675 38.003124 409.33124 39.76875Q408.0031 41.534374 405.7531 41.534374Q403.34686 41.534374 402.03436 39.83125L401.9406 41.3L399.9406 41.3L399.9406 23.3L402.1125 23.3L402.1125 30.01875Q403.425 28.378124 405.72186 28.378124Q408.03436 28.378124 409.34686 30.128124Q410.675 31.878124 410.675 34.909374L410.675 35.096874ZM408.5031 34.846874Q408.5031 32.64375 407.64374 31.440624Q406.8 30.221874 405.1906 30.221874Q403.05 30.221874 402.1125 32.221874L402.1125 37.70625Q403.1125 39.690624 405.22186 39.690624Q406.76874 39.690624 407.6281 38.4875Q408.5031 37.284374 408.5031 34.846874Z" fill-rule="nonzero"/></svg>